<svg width="190" height="158" viewBox="0 0 190 158" fill="none" xmlns="http://www.w3.org/2000/svg">
<g clip-path="url(#clip0_931_5812)">
<path d="M94.9408 31.874C66.431 31.874 37.9211 31.874 9.4112 31.874C7.59114 31.874 6.67979 32.7649 6.67716 34.5466C6.67716 71.8409 6.67716 109.139 6.67716 146.433C6.67716 150.436 7.66489 151.399 11.7146 151.399C33.9701 151.399 56.2257 151.399 78.4773 151.403C80.8676 151.403 82.1951 152.303 82.4836 154.048C82.847 156.271 81.405 157.921 78.9435 157.937C73.4122 157.976 67.8809 157.957 62.3496 157.957C44.9656 157.957 27.5855 157.957 10.2014 157.949C3.98658 157.949 0.0949154 154.056 0.0949154 147.882C0.102817 102.116 0.185787 56.35 9.32162e-05 10.5879C-0.0236123 4.73339 4.47649 -0.0196774 10.7071 6.12566e-05C67.1974 0.173761 123.692 0.0987545 180.182 0.0987545C186.022 0.0987545 189.992 4.0149 189.992 9.80622C189.996 55.8328 190 101.863 189.996 147.89C189.996 154.068 186.081 157.949 179.866 157.957C173.94 157.961 168.013 157.965 162.087 157.945C159.483 157.937 158.112 156.749 158.152 154.609C158.187 152.544 159.515 151.411 162.02 151.403C167.618 151.38 173.213 151.403 178.811 151.388C182.351 151.376 183.41 150.33 183.41 146.792C183.418 109.234 183.406 71.675 183.461 34.1163C183.461 32.2175 182.794 31.8385 181.055 31.8385C152.348 31.8819 123.64 31.8701 94.9329 31.8661L94.9408 31.874ZM94.925 25.3208C123.557 25.3208 152.186 25.3208 180.818 25.3208C181.213 25.3208 181.608 25.3011 182.003 25.3208C182.999 25.3642 183.434 24.9102 183.43 23.9115C183.406 19.3834 183.485 14.8514 183.374 10.3273C183.315 7.95474 182.165 6.92043 179.791 6.69936C179.009 6.6283 178.214 6.66383 177.424 6.66383C154.782 6.66383 132.143 6.66383 109.5 6.66383C76.9207 6.66383 44.3413 6.66383 11.758 6.66383C7.80712 6.66383 6.70086 7.70998 6.68506 11.4485C6.6653 15.1909 6.67716 18.9294 6.68506 22.6719C6.68901 25.3208 6.69691 25.3247 9.43095 25.3247C37.929 25.3247 66.431 25.3247 94.929 25.3247L94.925 25.3208Z" fill="black"/>
<path d="M31.714 126.209C31.714 124.239 31.7298 122.269 31.7101 120.299C31.6864 118.282 32.6702 117.09 34.6219 116.683C37.7115 116.039 40.7972 115.368 43.9026 114.812C45.1748 114.583 45.9413 114.038 46.1428 112.739C46.2139 112.289 46.3285 111.815 46.5498 111.428C48.3356 108.282 47.6758 105.756 44.922 103.434C43.227 102.009 41.8561 100.193 40.3666 98.5273C39.0983 97.1061 39.0351 95.5902 40.1572 94.0427C42.5119 90.7976 44.8351 87.5329 47.2412 84.3273C48.6003 82.5153 49.9515 82.2311 52.1008 83.1825C54.9889 84.4576 57.8652 85.7643 60.7138 87.1183C61.745 87.6079 62.555 87.5565 63.3847 86.7473C63.9457 86.1985 64.5581 85.6024 65.2653 85.3261C68.4932 84.0667 68.5169 81.6192 68.0033 78.7886C67.5924 76.5345 67.4462 74.2369 67.1775 71.9591C66.9444 69.9615 67.8571 68.643 69.6982 68.0192C73.4358 66.756 77.1892 65.5243 80.9584 64.3636C83.3487 63.6254 84.5458 64.182 85.8299 66.4322C87.3273 69.0575 88.8326 71.6748 90.2707 74.3316C90.8396 75.3857 91.6377 75.6344 92.7914 75.8081C97.2362 76.4832 100.377 75.2357 101.902 70.6918C102.455 69.0417 103.562 67.5652 104.482 66.0533C105.624 64.1781 106.904 63.6846 108.986 64.332C112.692 65.4887 116.386 66.6691 120.069 67.9008C122.329 68.6548 123.02 69.626 122.834 72.0301C122.593 75.1646 122.265 78.2991 121.807 81.4099C121.625 82.6456 121.882 83.4154 122.945 84.0194C123.628 84.4102 124.359 84.8168 124.861 85.3971C126.991 87.8605 129.243 87.525 131.795 86.0682C133.786 84.9313 135.943 84.0746 138.057 83.1627C140.163 82.2508 141.542 82.5824 142.905 84.3984C145.228 87.5013 147.512 90.6358 149.752 93.7979C151.103 95.7007 151.028 97.0311 149.495 98.7681C147.409 101.133 145.283 103.466 143.11 105.752C142.269 106.636 142.028 107.485 142.577 108.578C142.751 108.926 142.921 109.312 142.956 109.691C143.347 113.86 145.967 115.301 149.807 115.578C151.822 115.72 153.817 116.296 155.793 116.778C157.452 117.18 158.373 118.294 158.381 120.042C158.393 124.18 158.389 128.313 158.393 132.45C158.393 134.381 157.393 135.525 155.548 135.924C152.529 136.576 149.511 137.262 146.465 137.756C144.92 138.005 144.098 138.707 143.861 140.196C143.822 140.452 143.774 140.736 143.64 140.95C141.376 144.562 142.806 147.266 145.686 149.71C146.682 150.554 147.563 151.565 148.345 152.611C149.507 154.163 149.349 155.844 148.085 157.072C146.856 158.26 144.758 158.383 143.434 157.037C140.673 154.226 138.033 151.293 135.394 148.363C134.478 147.345 134.391 146.105 134.944 144.858C136.39 141.609 137.472 138.241 138.251 134.775C138.674 132.9 140.068 132.162 141.799 131.822C144.572 131.282 147.334 130.662 150.123 130.2C151.451 129.979 151.862 129.335 151.834 128.072C151.692 121.511 152.727 123.173 146.789 121.772C144.999 121.349 143.182 121.029 141.372 120.698C139.523 120.358 138.48 119.221 138.124 117.437C137.496 114.263 136.473 111.219 135.126 108.29C134.308 106.51 134.58 105.006 135.892 103.6C137.868 101.488 139.772 99.3129 141.791 97.2403C142.699 96.3047 142.711 95.5941 141.973 94.5282C139.013 90.2568 139.045 90.2252 134.28 92.3096C132.534 93.0755 130.795 93.865 129.073 94.6822C127.433 95.4599 126.019 95.1362 124.723 93.9519C122.293 91.7214 119.634 89.791 116.77 88.1487C115.241 87.2723 114.506 85.9972 114.707 84.2325C115.035 81.3665 115.284 78.4886 115.746 75.6462C115.987 74.1777 115.565 73.5184 114.174 73.0447C109.31 71.3827 109.322 71.3353 106.746 75.8199C105.829 77.4148 104.905 79.0058 104.032 80.6204C103.222 82.1126 102.005 82.7324 100.318 82.7087C96.766 82.6614 93.2102 82.6732 89.6583 82.7087C88.0424 82.7245 86.8927 82.081 86.1143 80.6756C84.8105 78.3189 83.3763 76.0292 82.1753 73.625C81.3574 71.9788 80.4922 71.5288 78.6392 72.1841C72.8432 74.2448 74.3682 72.8355 74.7633 78.7018C74.8858 80.5296 75.1861 82.3455 75.3955 84.1694C75.597 85.9261 74.9174 87.2328 73.3805 88.1092C70.4568 89.7831 67.786 91.8003 65.2732 94.0348C63.9615 95.2033 62.5352 95.4046 60.8995 94.623C58.2326 93.3439 55.4947 92.203 52.8357 90.9082C51.7768 90.391 51.1526 90.4265 50.3743 91.449C47.0634 95.7994 47.0199 95.7718 50.6666 99.8064C51.9428 101.22 53.2663 102.593 54.5346 104.015C55.546 105.152 55.7475 106.45 55.1351 107.86C53.7444 111.057 52.5789 114.326 51.8835 117.753C51.4845 119.711 50.0226 120.485 48.2131 120.832C45.5028 121.357 42.8082 121.961 40.086 122.415C38.8257 122.624 38.2963 123.118 38.2607 124.448C38.1145 129.754 38.075 129.762 43.2073 130.832C45.0089 131.207 46.8184 131.546 48.628 131.886C50.4414 132.229 51.5279 133.291 51.9744 135.071C52.4564 136.978 53.0174 138.865 53.4836 140.776C53.934 142.6 52.9621 144.384 51.3225 144.874C49.5643 145.403 47.901 144.605 47.1187 142.86C47.0634 142.742 46.9883 142.619 46.9804 142.493C46.688 138.541 44.0212 137.476 40.6155 137.104C38.6637 136.891 36.7317 136.414 34.8155 135.96C32.4726 135.407 31.7377 134.456 31.714 132.111C31.6943 130.141 31.7101 128.171 31.7101 126.201H31.718L31.714 126.209Z" fill="black"/>
<path d="M126.781 125.956C126.746 142.509 114.818 155.939 98.7771 157.85C97.6708 157.98 96.5408 157.957 95.4227 157.941C93.2102 157.913 91.8945 156.8 91.7839 154.913C91.6654 152.892 92.8783 151.553 95.1462 151.407C100.796 151.044 106.067 149.599 110.492 145.92C118.623 139.162 121.862 130.488 119.274 120.26C116.691 110.035 109.753 103.675 99.3776 101.733C84.9923 99.0407 71.6895 109.336 70.1763 123.88C69.5916 129.505 70.844 134.685 73.7716 139.493C74.3524 140.448 75.0438 141.396 74.8502 142.584C74.6092 144.072 73.7321 145.099 72.2466 145.49C70.6939 145.9 69.5205 145.178 68.6671 143.994C66.8891 141.522 65.5932 138.794 64.7003 135.885C58.8253 116.766 71.2786 97.1932 91.1873 94.8246C109.634 92.6296 123.672 105.535 126.366 120.674C126.702 122.561 126.837 124.448 126.777 125.952L126.781 125.956Z" fill="black"/>
<path d="M34.9854 50.5384C41.0975 50.5384 47.2135 50.5266 53.3256 50.5423C55.8384 50.5502 57.1817 51.6635 57.2331 53.6966C57.2884 55.8442 55.9174 57.0758 53.3532 57.0798C41.0619 57.0956 28.7666 57.0956 16.4753 57.0758C14.0613 57.0758 12.7259 55.8126 12.7693 53.7242C12.8128 51.7346 14.1285 50.5542 16.4516 50.5423C22.6308 50.5187 28.8101 50.5345 34.9893 50.5345L34.9854 50.5384Z" fill="#26B2E3"/>
<path d="M25.4954 69.6964C22.4729 69.6964 19.4544 69.7201 16.4319 69.6924C14.0456 69.6687 12.7062 68.4055 12.7615 66.3053C12.8089 64.3235 14.1286 63.1629 16.4636 63.155C22.5045 63.1353 28.5494 63.1313 34.5904 63.155C36.9175 63.1629 38.2253 64.3393 38.2687 66.3329C38.3122 68.4094 36.961 69.6648 34.5627 69.6885C31.5403 69.7161 28.5218 69.6964 25.4993 69.6964H25.4954Z" fill="#26B2E3"/>
<path d="M19.3003 16.0006C19.2924 17.9389 17.874 19.3009 15.9183 19.2496C14.0614 19.1983 12.7536 17.8402 12.7615 15.9769C12.7734 14.0307 14.1759 12.6806 16.1435 12.7319C18.0004 12.7793 19.3042 14.1294 19.3003 16.0046V16.0006Z" fill="#66C6EB"/>
<path d="M31.9432 15.9967C31.9353 17.939 30.5248 19.297 28.5652 19.2496C26.7082 19.2062 25.4005 17.8561 25.4044 15.9809C25.4044 14.0426 26.8228 12.6766 28.7785 12.728C30.6355 12.7753 31.9472 14.1334 31.9393 15.9927L31.9432 15.9967Z" fill="#66C6EB"/>
<path d="M44.5862 16.0003C44.5862 17.8675 43.2706 19.2137 41.4097 19.2493C39.45 19.2848 38.0356 17.9149 38.0435 15.9805C38.0474 14.1251 39.3789 12.7631 41.2279 12.7237C43.1718 12.6802 44.5862 14.058 44.5862 16.0003Z" fill="#66C6EB"/>
</g>
<defs>
<clipPath id="clip0_931_5812">
<rect width="190" height="158" fill="white"/>
</clipPath>
</defs>
</svg>
