<svg width="150" height="150" viewBox="0 0 150 150" fill="none" xmlns="http://www.w3.org/2000/svg">
<g clip-path="url(#clip0_1294_15358)">
<path d="M149.988 105.626C149.988 116.223 149.971 126.823 150.002 137.421C150.008 139.949 148.783 141.702 146.77 142.994C143.904 144.831 140.655 145.573 137.359 146.116C129.024 147.485 120.726 147.36 112.5 145.34C110.303 144.801 108.144 144.095 106.297 142.726C104.355 141.288 103.415 139.499 103.666 136.915C103.938 134.125 103.839 131.278 103.666 128.471C103.578 127.047 103.853 125.674 103.792 124.267C103.523 118.084 103.683 111.887 103.68 105.704C103.68 100.707 103.714 95.6932 103.714 90.693C103.714 84.8487 104.036 78.9942 103.578 73.1464C103.439 71.3565 104.596 69.9734 105.998 68.9022C107.781 67.5428 109.852 66.7733 111.991 66.2309C121.67 63.7833 131.4 63.5901 141.158 65.7156C143.317 66.1868 145.364 67.0038 147.163 68.3462C149.061 69.7632 150.002 71.6243 149.998 74.0007C149.985 84.5436 149.991 95.083 149.991 105.626H149.985H149.988ZM126.973 108.673C131.567 108.741 136.384 108.331 141.059 106.877C143.999 105.961 144.203 105.561 144.155 102.578C144.135 101.324 143.734 101.188 142.631 101.548C137.983 103.056 133.162 103.561 128.307 103.666C122.481 103.792 116.71 103.317 111.088 101.643C110.487 101.463 109.903 101.188 109.655 102.155C109.044 104.541 109.706 105.921 112.028 106.714C116.785 108.334 121.714 108.721 126.973 108.673ZM127.282 130.322C130.164 130.447 133.529 130.139 136.863 129.552C138.302 129.298 139.732 128.942 141.124 128.501C143.979 127.603 144.162 127.223 144.155 124.322C144.155 123.003 143.772 122.867 142.556 123.21C132.582 126.034 122.543 126.023 112.486 123.678C109.448 122.969 109.461 122.949 109.604 126.078C109.668 127.484 110.606 127.861 111.617 128.22C116.52 129.966 121.612 130.373 127.279 130.319L127.282 130.322ZM126.61 97.8493C131.645 97.8832 136.635 97.5509 141.443 95.8797C144.101 94.9542 144.128 94.8186 144.152 92.0049C144.162 90.771 144.006 90.3133 142.55 90.7303C132.578 93.5711 122.536 93.544 112.476 91.2015C109.441 90.493 109.475 90.4659 109.611 93.6084C109.672 95.022 110.616 95.3881 111.627 95.7475C116.476 97.473 121.51 97.8933 126.61 97.8526V97.8493ZM126.871 119.494C131.577 119.593 136.388 119.128 141.066 117.701C143.982 116.809 144.196 116.382 144.155 113.402C144.138 112.141 143.731 112.016 142.631 112.372C137.871 113.921 132.942 114.409 127.971 114.497C122.257 114.599 116.598 114.121 111.094 112.457C110.028 112.135 109.685 112.413 109.621 113.494C109.451 116.44 109.641 116.796 112.514 117.708C117.131 119.172 121.891 119.559 126.871 119.498V119.494ZM126.943 141.156C131.587 141.224 136.459 140.814 141.181 139.319C144.009 138.424 144.2 138.027 144.152 135.102C144.132 133.936 143.846 133.624 142.662 134.01C137.851 135.583 132.863 136.065 127.835 136.156C122.176 136.258 116.584 135.746 111.125 134.139C110.548 133.97 109.937 133.631 109.662 134.607C109.01 136.915 109.719 138.397 111.994 139.18C116.747 140.817 121.673 141.19 126.936 141.156H126.943ZM126.943 87.0217C131.624 87.0861 136.5 86.6759 141.229 85.1673C143.979 84.2893 144.125 83.9469 144.162 81.4214C144.186 79.862 143.66 79.6383 142.244 80.062C137.786 81.3943 133.186 81.896 128.548 82.0146C122.658 82.1638 116.825 81.6824 111.139 80.0078C110.561 79.8383 109.947 79.4925 109.668 80.4688C109.017 82.7604 109.736 84.2656 112.008 85.0487C116.768 86.686 121.704 87.0589 126.943 87.0217ZM127.669 70.1666C122.634 70.0548 117.368 70.4887 112.269 72.1667C111.59 72.3905 110.487 72.5227 110.466 73.1837C110.439 74.0787 111.6 74.0956 112.296 74.3194C118.862 76.4279 125.625 76.4449 132.402 75.994C135.495 75.7872 138.577 75.3465 141.511 74.255C142.217 73.9939 143.402 73.9363 143.425 73.1295C143.453 72.1735 142.241 72.0922 141.49 71.8277C137.111 70.2887 132.551 70.0853 127.669 70.1633V70.1666Z" fill="black"/>
<path d="M0.0483781 84.0074C0.0483781 73.5798 0.129859 63.1489 0.000847426 52.7247C-0.0398931 49.5008 1.38942 47.5278 4.05453 46.1311C7.5718 44.2904 11.4048 43.592 15.2752 43.1378C22.785 42.2564 30.2575 42.5106 37.6248 44.3514C39.8282 44.9006 41.9433 45.6938 43.7902 47.0498C45.4232 48.2499 46.3399 49.7855 46.3331 51.9212C46.2686 69.6203 46.255 87.3161 46.2244 105.015C46.2176 108.398 46.1599 111.782 46.2346 115.161C46.2991 118.06 45.0667 120.124 42.6087 121.555C39.7772 123.206 36.6572 123.979 33.4726 124.48C25.1989 125.792 16.9557 125.725 8.78384 123.68C6.74681 123.172 4.79805 122.436 3.02923 121.28C1.05331 119.995 0.00763752 118.273 0.0212177 115.799C0.0823286 105.202 0.0483781 94.6045 0.0483781 84.0074ZM22.9378 76.1901C27.9285 76.2647 32.8581 75.8206 37.6214 74.2443C40.3136 73.3527 40.4053 73.0849 40.4087 70.2339C40.4087 69.0474 40.2152 68.6101 38.8809 69.0508C34.2365 70.5865 29.4054 71.0679 24.547 71.1831C18.6023 71.3255 12.7187 70.8339 7.00144 69.0271C6.45144 68.8542 5.69095 68.4372 5.68416 69.5627C5.66039 73.0137 5.22243 73.112 8.43075 74.2477C13.1159 75.902 18.0082 76.2376 22.9378 76.1901ZM22.7884 87.0143C27.8946 87.0855 32.7698 86.6482 37.489 85.116C40.3069 84.2007 40.3985 83.943 40.4121 81.031C40.4155 79.7903 40.1507 79.4513 38.864 79.8784C34.2739 81.4073 29.5004 81.8819 24.6964 82.0039C18.6363 82.1565 12.6338 81.6819 6.82489 79.7767C6.0644 79.5259 5.7215 79.6581 5.6536 80.57C5.41934 83.6345 5.76224 84.2379 8.76347 85.2041C13.3807 86.6889 18.144 87.0821 22.7884 87.0143ZM23.2298 97.8419C27.8912 97.9335 32.7053 97.4657 37.3769 95.991C40.3035 95.0656 40.4834 94.652 40.4155 91.6417C40.3883 90.462 40.0013 90.3433 38.9828 90.6789C34.2772 92.2281 29.3986 92.7231 24.4825 92.8383C18.5344 92.9773 12.644 92.5027 6.94372 90.6416C5.92521 90.3094 5.68416 90.6247 5.6536 91.6213C5.56194 94.6452 5.77243 95.0622 8.65143 96.0012C13.3162 97.5233 18.1406 97.9131 23.2332 97.8453L23.2298 97.8419ZM23.2841 108.676C27.9251 108.751 32.797 108.297 37.5127 106.768C40.3001 105.863 40.4053 105.561 40.4087 102.663C40.4087 101.361 40.0658 101.195 38.83 101.544C28.7909 104.374 18.6906 104.412 8.57334 101.978C5.53817 101.249 5.1783 101.54 5.68416 104.632C5.90144 105.964 7.0286 106.222 7.99958 106.575C12.8409 108.348 17.8894 108.707 23.2807 108.676H23.2841ZM22.8733 119.494C27.8097 119.589 32.6816 119.141 37.4041 117.633C40.3102 116.704 40.5106 116.273 40.4087 113.263C40.3748 112.26 40.1269 111.995 39.105 112.283C28.3767 115.307 17.6381 115.368 6.90977 112.283C6.06101 112.039 5.70113 112.131 5.64681 113.138C5.47706 116.185 5.75545 116.714 8.67859 117.663C13.2891 119.158 18.0523 119.562 22.8699 119.494H22.8733ZM22.673 65.3659C28.0032 65.4235 33.0415 65.0066 37.8964 63.315C40.2865 62.481 40.3951 62.1556 40.4121 59.6199C40.4223 58.2605 40.0183 57.9757 38.7146 58.3724C34.043 59.7894 29.2254 60.2877 24.3671 60.3657C18.4801 60.4606 12.6576 59.9691 7.00823 58.1656C6.12212 57.8808 5.68755 57.9249 5.64342 59.0538C5.52459 62.1217 5.75885 62.5895 8.71933 63.5455C13.3298 65.0337 18.0897 65.4337 22.673 65.3693V65.3659ZM23.2162 54.5247C25.844 54.5824 28.3733 54.4942 30.889 54.1383C33.4557 53.7756 36.0155 53.3518 38.443 52.3992C38.9319 52.206 39.7433 52.1551 39.7059 51.4941C39.672 50.8907 38.8877 50.8127 38.3785 50.6297C37.4245 50.2907 36.4603 49.9618 35.4723 49.7415C28.5192 48.1956 21.5119 48.1448 14.4807 49.0669C12.2468 49.3618 10.0332 49.8127 7.92828 50.65C7.4394 50.8432 6.62798 50.8941 6.66533 51.5551C6.69928 52.1619 7.48693 52.2297 7.99279 52.4196C8.78044 52.7145 9.59186 52.9755 10.4067 53.1789C14.6403 54.2298 18.9418 54.6536 23.2128 54.5247H23.2162Z" fill="black"/>
<path d="M50.195 119.47C50.195 112.535 50.2595 105.599 50.161 98.6661C50.1237 95.9745 51.2712 94.1541 53.478 92.8421C57.2635 90.5912 61.5107 89.8929 65.7749 89.3979C72.256 88.6453 78.7338 88.8115 85.1572 90.0454C87.9343 90.581 90.6572 91.3167 93.1186 92.7845C95.3797 94.1303 96.5272 95.9779 96.5136 98.7407C96.4389 112.667 96.4525 126.593 96.5068 140.519C96.517 142.872 95.5019 144.505 93.6788 145.756C90.5655 147.892 86.96 148.634 83.3273 149.201C75.2131 150.458 67.1329 150.292 59.1341 148.336C56.8798 147.784 54.6832 147.045 52.7922 145.624C51.1286 144.373 50.1509 142.827 50.1712 140.617C50.2357 133.569 50.195 126.522 50.195 119.474V119.47ZM73.9671 144.187C78.3026 144.136 83.2424 143.814 87.9955 142.18C90.8269 141.204 90.9593 140.878 90.8812 137.909C90.8507 136.725 90.4229 136.597 89.4349 136.936C84.4103 138.651 79.1785 139.075 73.9366 139.143C68.2872 139.214 62.6718 138.722 57.2533 136.942C56.2993 136.627 55.824 136.671 55.79 137.892C55.7052 140.892 55.8647 141.258 58.815 142.238C63.5239 143.797 68.4026 144.166 73.9671 144.19V144.187ZM73.7193 111.707C78.3569 111.67 83.2933 111.314 88.0464 109.684C90.8235 108.731 90.905 108.487 90.8778 105.548C90.8677 104.348 90.5282 104.077 89.3874 104.46C84.4171 106.138 79.2464 106.602 74.0554 106.66C68.3483 106.724 62.6752 106.246 57.2058 104.436C56.1601 104.09 55.8206 104.334 55.7934 105.456C55.7255 108.429 55.8647 108.748 58.703 109.707C63.4628 111.314 68.3992 111.674 73.7193 111.701V111.707ZM72.7449 122.535C78.289 122.508 83.2254 122.149 87.9819 120.538C90.8133 119.579 90.9559 119.233 90.8812 116.274C90.8507 115.121 90.4704 114.931 89.4519 115.274C84.3152 117.003 78.9782 117.467 73.6174 117.494C68.0835 117.521 62.5767 117.053 57.2737 115.287C56.1092 114.901 55.807 115.219 55.7968 116.392C55.7697 119.311 55.8545 119.565 58.6453 120.518C63.3983 122.149 68.3347 122.491 72.7517 122.532L72.7449 122.535ZM73.2813 133.366C78.3467 133.325 83.2831 132.973 88.0362 131.346C90.8201 130.393 90.9118 130.125 90.8778 127.22C90.8643 126.037 90.5383 125.735 89.3908 126.122C84.3118 127.83 79.0291 128.291 73.7261 128.325C68.1344 128.359 62.5835 127.857 57.2058 126.128C56.6897 125.962 56.0277 125.505 55.8172 126.61C55.3045 129.312 55.7968 130.339 58.3805 131.257C63.2286 132.98 68.277 133.322 73.2779 133.369L73.2813 133.366ZM73.5325 94.8456C68.26 94.7439 63.2184 95.1609 58.3499 96.8423C57.7897 97.0356 56.9002 97.1406 56.8798 97.7814C56.8561 98.4593 57.7626 98.5407 58.3092 98.7475C61.6125 100.005 65.0823 100.476 68.5758 100.704C75.0807 101.131 81.5483 100.927 87.8359 98.9339C88.5624 98.7034 89.7677 98.5712 89.7507 97.8356C89.7303 96.961 88.5013 96.8864 87.734 96.6423C83.0625 95.1439 78.2415 94.7405 73.5292 94.8456H73.5325Z" fill="black"/>
<path d="M82.7829 4.57462e-05C101.972 0.0305556 117.171 15.2584 117.124 34.4152C117.08 53.2736 101.564 68.5557 82.5283 68.4947C63.7028 68.437 48.4895 52.9279 48.5235 33.8219C48.5507 15.2041 63.9811 -0.0304641 82.7829 4.57462e-05ZM54.363 34.0863C54.3053 49.9515 66.7583 62.5758 82.5453 62.6571C98.6004 62.7385 111.108 50.2565 111.339 34.3067C111.546 20.0518 100.264 5.7698 82.9357 5.69183C65.5938 5.61386 53.9997 19.9264 54.3664 34.0863H54.363Z" fill="#66C6EB"/>
<path d="M84.134 52.3036C80.8679 52.3036 77.6019 52.3036 74.3359 52.3036C73.168 52.3036 72.3396 51.734 71.9016 50.6933C71.4806 49.7034 71.6028 48.6661 72.4414 47.9813C74.9572 45.9338 74.9538 43.1981 74.4513 40.4454C73.7723 36.7164 73.993 37.4826 70.8899 37.4012C70.1633 37.3809 69.4334 37.4419 68.7137 37.3571C67.3692 37.2012 66.4899 36.1435 66.5001 34.7977C66.5069 33.4553 67.4066 32.4755 68.7578 32.262C69.705 32.1128 70.9748 32.7434 71.5349 31.8857C72.0544 31.089 71.2056 30.0415 71.0121 29.0957C69.5454 21.9124 74.2001 15.79 81.4994 15.1459C88.9176 14.4917 92.9305 18.3936 95.2154 23.5701C95.8842 25.0888 95.4361 26.5024 94.1324 27.1634C92.7879 27.8414 91.4435 27.394 90.5676 25.943C90.1398 25.2345 89.7901 24.4786 89.342 23.7836C87.0265 20.197 82.3414 19.1563 78.6985 21.4276C76.6309 22.7158 75.9655 24.6989 76.0334 27.0177C76.0334 27.0685 76.047 27.1194 76.0538 27.1702C76.692 31.8823 77.096 32.2416 81.788 32.245C84.0185 32.245 86.2457 32.2315 88.4762 32.2518C90.4318 32.2688 91.5148 33.1807 91.5352 34.774C91.5589 36.4452 90.4657 37.3775 88.4083 37.391C85.8688 37.408 83.3293 37.4249 80.7898 37.3876C79.6932 37.3707 79.296 37.6893 79.5574 38.8555C80.0667 41.1437 80.2874 43.4727 79.6932 45.7778C79.3843 46.9847 79.8766 47.1813 80.929 47.1711C85.1796 47.1338 89.4302 47.1406 93.6808 47.1677C95.3478 47.1779 96.3663 48.0457 96.5021 49.4492C96.6617 51.0832 95.5753 52.2697 93.7793 52.29C90.5642 52.3307 87.3525 52.3002 84.1374 52.3002L84.134 52.3036Z" fill="#26B2E3"/>
<path d="M131.871 19.4988C131.871 18.1362 131.889 16.7736 131.864 15.4125C131.853 14.8608 132.048 14.6471 132.607 14.6608C133.791 14.6896 134.975 14.6835 136.158 14.6653C136.644 14.6577 136.829 14.8502 136.823 15.3337C136.808 16.7206 136.821 18.1089 136.823 19.4958C136.782 19.5428 136.743 19.5913 136.702 19.6383C135.13 19.6383 133.559 19.6352 131.988 19.6352C131.948 19.5898 131.909 19.5443 131.868 19.4988H131.871Z" fill="#66C6EB"/>
<path d="M131.851 24.479C130.488 24.4775 129.126 24.4578 127.763 24.4836C127.2 24.4942 127.01 24.2805 127.022 23.7303C127.049 22.5693 127.05 21.4067 127.02 20.2442C127.005 19.6698 127.249 19.5045 127.786 19.5121C129.149 19.5303 130.511 19.5076 131.872 19.5C131.911 19.5455 131.951 19.5909 131.991 19.6364C131.991 21.2097 131.991 22.783 131.991 24.3562C131.945 24.3972 131.898 24.4381 131.851 24.479Z" fill="#66C6EB"/>
<path d="M136.823 19.5C138.203 19.5076 139.582 19.5318 140.963 19.5167C141.481 19.5106 141.679 19.6986 141.67 20.2199C141.647 21.4007 141.643 22.5829 141.673 23.7621C141.688 24.3396 141.435 24.4942 140.905 24.4851C139.551 24.4623 138.196 24.479 136.839 24.479C136.794 24.4396 136.749 24.4002 136.703 24.3608C136.703 22.7875 136.703 21.2142 136.703 19.6425C136.744 19.5955 136.783 19.547 136.824 19.5H136.823Z" fill="#66C6EB"/>
<path d="M136.844 24.4782C136.838 25.8363 136.808 27.1959 136.835 28.5539C136.847 29.1496 136.632 29.3527 136.046 29.336C134.891 29.3042 133.735 29.3087 132.578 29.3314C132.063 29.3405 131.864 29.1541 131.868 28.6297C131.883 27.2459 131.859 25.8621 131.852 24.4782C131.898 24.4373 131.945 24.3964 131.992 24.3555C133.564 24.3555 135.135 24.357 136.706 24.3585C136.752 24.3979 136.797 24.4373 136.843 24.4767L136.844 24.4782Z" fill="#66C6EB"/>
<path d="M30.5729 139.816C30.5729 138.453 30.5925 137.09 30.5668 135.728C30.5562 135.175 30.75 134.965 31.3086 134.979C32.4923 135.008 33.6776 135.002 34.8614 134.984C35.3489 134.976 35.532 135.17 35.526 135.654C35.5108 137.04 35.5229 138.429 35.5245 139.817C35.4851 139.863 35.4457 139.91 35.4064 139.955C33.8351 139.955 32.2623 139.955 30.6909 139.955C30.6516 139.91 30.6122 139.864 30.5714 139.819L30.5729 139.816Z" fill="#66C6EB"/>
<path d="M30.5562 144.795C29.2255 144.795 27.8949 144.773 26.5658 144.803C25.9694 144.817 25.6999 144.648 25.7242 144C25.765 142.845 25.7529 141.687 25.7287 140.532C25.7181 140.006 25.9209 139.826 26.4356 139.832C27.8162 139.847 29.1968 139.824 30.5758 139.816C30.6152 139.862 30.6545 139.907 30.6954 139.953C30.6954 141.526 30.6954 143.101 30.6954 144.674C30.65 144.714 30.6046 144.753 30.5592 144.794L30.5562 144.795Z" fill="#66C6EB"/>
<path d="M35.5258 139.818C36.9064 139.826 38.287 139.849 39.666 139.834C40.1807 139.827 40.3851 140.009 40.3745 140.535C40.3503 141.716 40.3442 142.898 40.3745 144.079C40.3896 144.656 40.1399 144.811 39.61 144.802C38.2552 144.779 36.8988 144.796 35.544 144.797C35.4986 144.758 35.4532 144.719 35.4062 144.679C35.4062 143.106 35.4062 141.533 35.4062 139.958C35.4456 139.912 35.485 139.865 35.5243 139.82L35.5258 139.818Z" fill="#66C6EB"/>
<path d="M35.5456 144.796C35.5381 146.179 35.5214 147.563 35.5275 148.947C35.5305 149.4 35.4124 149.655 34.8962 149.647C33.6655 149.628 32.4333 149.629 31.2026 149.649C30.6834 149.658 30.5713 149.397 30.5729 148.947C30.5789 147.563 30.5623 146.179 30.5547 144.796C30.6001 144.756 30.6455 144.717 30.6909 144.676C32.2638 144.676 33.8351 144.676 35.4079 144.676L35.5456 144.794V144.796Z" fill="#66C6EB"/>
<path d="M19.7916 12.7532C19.7916 11.3906 19.8113 10.028 19.7856 8.66538C19.775 8.11216 19.9687 7.903 20.5273 7.91664C21.7111 7.94544 22.8964 7.93937 24.0802 7.92118C24.5676 7.9136 24.7508 8.10762 24.7447 8.59112C24.7296 9.97796 24.7417 11.3663 24.7432 12.7547C24.7038 12.8002 24.6645 12.8471 24.6251 12.8926C23.0538 12.8926 21.481 12.8926 19.9097 12.8926C19.8703 12.8471 19.831 12.8017 19.7901 12.7562L19.7916 12.7532Z" fill="#66C6EB"/>
<path d="M19.7749 17.7329C18.4443 17.7329 17.1137 17.7102 15.7846 17.7405C15.1881 17.7541 14.9187 17.5859 14.9429 16.9372C14.9838 15.7822 14.9717 14.6243 14.9474 13.4693C14.9368 12.9434 15.1397 12.763 15.6544 12.7691C17.035 12.7842 18.4155 12.7615 19.7946 12.7539C19.8339 12.7994 19.8733 12.8449 19.9142 12.8903C19.9142 14.4636 19.9142 16.0384 19.9142 17.6117C19.8688 17.6511 19.8233 17.6905 19.7779 17.7314L19.7749 17.7329Z" fill="#66C6EB"/>
<path d="M24.7446 12.7539C26.1252 12.7615 27.5057 12.7842 28.8848 12.7691C29.3995 12.763 29.6038 12.9449 29.5932 13.4708C29.569 14.6515 29.563 15.8338 29.5932 17.0145C29.6084 17.592 29.3586 17.7466 28.8288 17.7375C27.4739 17.7147 26.1176 17.7314 24.7628 17.7329C24.7173 17.6935 24.6719 17.6541 24.625 17.6147C24.625 16.0414 24.625 14.4681 24.625 12.8933C24.6644 12.8479 24.7037 12.8009 24.7431 12.7554L24.7446 12.7539Z" fill="#66C6EB"/>
<path d="M24.7644 17.733C24.7568 19.1168 24.7402 20.5006 24.7462 21.8845C24.7492 22.3377 24.6312 22.5923 24.115 22.5847C22.8843 22.565 21.652 22.5665 20.4213 22.5862C19.9021 22.5953 19.7901 22.3346 19.7916 21.8845C19.7977 20.5006 19.781 19.1168 19.7734 17.733C19.8189 17.6936 19.8643 17.6542 19.9097 17.6133C21.4825 17.6133 23.0538 17.6133 24.6266 17.6133L24.7644 17.7315V17.733Z" fill="#66C6EB"/>
</g>
<defs>
<clipPath id="clip0_1294_15358">
<rect width="150" height="150" fill="white"/>
</clipPath>
</defs>
</svg>
