<svg width="150" height="150" viewBox="0 0 150 150" fill="none" xmlns="http://www.w3.org/2000/svg">
<g clip-path="url(#clip0_1294_15341)">
<path d="M149.984 46.5412C148.917 51.7001 146.485 56.0172 142.189 59.1876C140.083 60.742 137.787 61.9679 135.206 62.3991C133.563 62.6747 133.267 63.449 133.27 64.9536C133.317 82.3658 133.296 99.781 133.299 117.196C133.299 122.798 131.173 127.136 125.935 129.614C124.372 130.353 122.709 130.667 120.97 130.661C115.116 130.64 109.262 130.69 103.411 130.629C102.115 130.614 101.716 131.019 101.757 132.297C101.862 135.535 101.399 135.151 104.678 135.172C106.385 135.183 108.095 135.239 109.799 135.157C111.107 135.095 111.482 135.626 111.461 136.876C111.403 140.63 111.371 144.389 111.473 148.141C111.517 149.68 110.948 150.006 109.529 150.003C92.9435 149.962 76.3583 149.977 59.7761 149.977C53.3385 149.977 46.898 149.941 40.4604 150.003C39.0556 150.018 38.598 149.592 38.6303 148.179C38.7153 144.375 38.6948 140.568 38.6391 136.767C38.6215 135.544 39.0819 135.131 40.2668 135.16C42.4606 135.216 44.6573 135.139 46.851 135.189C47.8775 135.213 48.3644 134.934 48.338 133.796C48.2559 130.086 48.7281 130.684 45.2614 130.664C40.2375 130.634 35.2135 130.655 30.1896 130.655C21.8897 130.652 16.8041 125.564 16.8012 117.234C16.7924 99.8191 16.7777 82.4069 16.8334 64.9946C16.8393 63.3992 16.4023 62.7657 14.7922 62.3756C5.33378 60.0645 -0.584685 51.6355 0.0458756 41.5935C0.594316 32.8624 7.94694 25.3573 17.0857 24.1637C18.3996 23.9906 19.7194 23.8146 21.0127 24.1021C22.224 24.3719 22.5935 23.8586 22.9308 22.7823C26.5822 11.1331 34.3454 3.76283 46.153 0.665754C47.1854 0.395933 48.2441 0.219963 49.2912 0C51.9248 0 54.5585 0 57.1952 0C57.2861 0.0351941 57.3741 0.090918 57.4679 0.105582C66.5656 1.46935 73.8273 5.85981 79.1709 13.3532C79.8249 14.2712 80.2385 14.1099 80.9951 13.5175C87.5266 8.37912 94.973 6.18242 103.179 7.38195C113.206 8.85131 120.63 14.2331 125.325 23.2603C125.791 24.1578 126.222 24.5127 127.343 24.3191C133.317 23.2985 138.634 24.8441 143.289 28.7008C146.978 31.7597 148.993 35.7865 149.987 40.394V46.5412H149.984ZM128 87.1845C128 76.7934 128.014 66.4024 127.994 56.0143C127.985 51.4156 125.246 48.6616 120.635 48.5913C117.855 48.5473 115.075 48.5913 112.294 48.5737C108.215 48.5502 108.74 49.0253 108.658 44.846C108.631 43.5849 109.197 43.2594 110.341 43.277C113.072 43.3239 115.805 43.3092 118.535 43.2858C120.295 43.2711 122.052 43.2711 123.771 43.6876C129.372 45.0396 132.801 49.4418 133.285 55.8735C133.417 57.6449 133.467 57.6772 135.188 57.0877C142.793 54.4716 146.802 46.3066 144.171 38.7956C141.541 31.2787 133.352 27.3868 125.744 30.0381C123.809 30.7127 122.505 30.1075 121.832 28.2227C116.362 12.9279 97.7094 7.35556 84.7345 17.1336C82.8898 18.5238 81.3412 20.2073 79.8367 21.9435C78.8307 23.1049 78.6635 23.0756 77.9479 21.6766C77.4581 20.7234 77.0006 19.7497 76.4962 18.8054C68.3546 3.62499 47.6957 0.322613 35.2223 12.2035C30.6383 16.5705 27.943 21.8731 27.0661 28.1582C26.6819 30.918 27.1541 30.9414 24.2095 29.9648C22.4205 29.3724 20.5933 29.2052 18.7281 29.2756C12.3521 29.5219 6.67409 34.2643 5.48336 40.35C4.14305 47.2011 7.37211 53.7677 13.4313 56.4953C16.6193 57.9324 16.6575 57.9118 16.9742 54.5537C16.9801 54.5039 16.9801 54.4569 16.983 54.4071C17.4728 48.8493 21.8603 44.2272 27.3477 43.5087C30.8935 43.0423 34.4598 43.3356 38.0173 43.3033C41.833 43.2652 41.349 42.8634 41.4546 46.7612C41.4927 48.2159 40.8827 48.6147 39.5453 48.5942C36.1814 48.5414 32.8145 48.5443 29.4476 48.5854C24.843 48.6441 22.1213 51.4097 22.1038 56.0289C22.0832 61.4928 22.0979 66.9567 22.1008 72.4206C22.1008 87.5921 22.1125 102.764 22.0891 117.932C22.0891 119.862 22.4645 121.595 23.796 123.062C25.3739 124.801 27.3154 125.52 29.6587 125.517C53.5614 125.49 77.464 125.502 101.367 125.499C104.264 125.499 103.901 125.704 103.933 122.871C103.939 122.431 103.948 121.994 103.971 121.554C103.989 121.176 104.156 120.856 104.558 120.836C105.915 120.765 107.402 120.393 108.596 120.98C109.611 121.478 108.922 122.851 109.071 123.824C109.115 124.112 109.083 124.408 109.103 124.701C109.133 125.147 109.373 125.367 109.822 125.479C112.649 126.168 113.567 125.479 113.594 122.619C113.594 122.326 113.605 122.032 113.611 121.742C113.62 121.173 113.869 120.886 114.468 120.783C117.964 120.167 118.641 120.677 118.741 124.077C118.741 124.126 118.747 124.173 118.741 124.223C118.65 125.168 119.087 125.446 120.017 125.523C124.774 125.91 128.129 122.153 128.055 117.915C127.874 107.673 127.997 97.4289 128 87.1845ZM75.0415 140.313C65.237 140.313 55.4354 140.31 45.631 140.322C45.0679 140.322 44.2232 140.052 44.0091 140.638C43.5721 141.832 43.6073 143.178 43.9681 144.369C44.2232 145.211 45.2556 144.815 45.936 144.815C65.2018 144.835 84.4676 144.832 103.73 144.829C106.558 144.829 106.203 145.061 106.32 142.196C106.382 140.735 105.957 140.272 104.446 140.281C94.6446 140.345 84.8401 140.313 75.0356 140.313H75.0415ZM74.9916 135.172C81.6726 135.172 88.3536 135.151 95.0346 135.192C96.2136 135.198 96.7914 134.861 96.636 133.62C96.5949 133.283 96.6301 132.937 96.6272 132.597C96.6213 131.302 95.981 130.653 94.7062 130.649C81.831 130.649 68.9588 130.646 56.0836 130.652C53.2036 130.652 53.5379 130.306 53.4411 133.353C53.3971 134.738 53.8048 135.213 55.239 135.198C61.8232 135.131 68.4045 135.169 74.9887 135.169L74.9916 135.172Z" fill="black"/>
<path d="M77.7017 28.8419C77.7017 29.8655 77.7574 30.8949 77.6841 31.9156C77.5991 33.1503 78.0155 33.7867 79.3353 33.6254C79.6227 33.5902 79.9219 33.6489 80.2122 33.6166C81.3032 33.4993 82.0012 33.9128 82.2153 35.0332C82.2505 35.2238 82.3737 35.3968 82.4001 35.5875C82.8547 38.6728 84.4883 40.6496 87.6059 41.3916C88.3156 41.5617 88.8699 41.679 89.5298 41.3241C90.7323 40.6759 91.9876 40.1304 93.1842 39.4706C93.9907 39.0248 94.5685 39.0922 95.2371 39.7756C97.7887 42.3975 100.381 44.9784 102.992 47.5417C103.613 48.1518 103.739 48.6943 103.314 49.4686C102.657 50.6652 102.121 51.9263 101.461 53.12C101.041 53.8796 101.211 54.5101 101.408 55.3137C102.144 58.3463 104.091 59.8655 107.051 60.3113C108.722 60.5635 109.183 61.5284 109.115 63.1767C108.98 66.4409 109.054 69.711 109.089 72.9812C109.101 73.9549 108.79 74.5708 107.801 74.7849C107.47 74.8552 107.159 75.0165 106.837 75.1251C104.119 76.0421 102.254 77.8428 101.244 80.5274C101.029 81.0934 101.091 81.548 101.349 82.0524C102.018 83.3546 102.631 84.6832 103.323 85.9736C103.701 86.6804 103.654 87.2054 103.065 87.7861C100.422 90.3876 97.7975 93.0066 95.2019 95.652C94.5802 96.2855 93.9995 96.3823 93.2692 95.9218C92.9818 95.74 92.6211 95.6667 92.3571 95.4614C89.9111 93.5579 87.4299 93.643 84.808 95.1417C84.1158 95.5376 83.6319 95.9189 83.4002 96.6697C83.0248 97.8809 82.5614 99.0658 82.2183 100.283C81.9397 101.271 81.4293 101.7 80.3471 101.682C76.7867 101.623 73.2233 101.638 69.6628 101.673C68.7478 101.682 68.1671 101.403 67.95 100.482C67.8708 100.151 67.6831 99.8401 67.6391 99.5087C67.2315 96.4439 65.4248 94.7399 62.5008 93.9832C61.7911 93.7984 61.2045 93.7193 60.5505 94.0595C59.2952 94.7105 58.0106 95.3059 56.7642 95.9717C56.0574 96.35 55.5265 96.2796 54.9487 95.696C52.3121 93.0212 49.652 90.367 46.9802 87.7275C46.4347 87.1908 46.3702 86.6716 46.7485 86.0352C46.948 85.7009 47.0506 85.3049 47.2794 84.9941C48.9892 82.6654 49.2414 80.3191 47.734 77.7324C47.2354 76.876 46.8248 76.2073 45.8364 75.9287C44.6164 75.5855 43.4374 75.1045 42.2202 74.7555C41.314 74.4945 41.0031 73.9549 41.0119 73.0427C41.0412 69.4324 41.0412 65.8221 41.0119 62.2118C41.006 61.3466 41.314 60.8245 42.1616 60.6163C42.493 60.5342 42.8097 60.4022 43.1323 60.2937C45.8599 59.3806 47.7574 57.6043 48.825 54.9647C49.0772 54.3488 49.001 53.8561 48.7165 53.3047C48.0654 52.0495 47.4788 50.759 46.8072 49.5155C46.4054 48.7676 46.4259 48.2075 47.0682 47.5769C49.7166 44.9814 52.3385 42.3594 54.9312 39.711C55.5617 39.0658 56.1365 39.0013 56.8639 39.4471C57.2364 39.6758 57.644 39.846 58.04 40.0425C60.4644 41.243 62.9222 41.2821 65.4131 40.1598C66.0554 39.8723 66.4191 39.4442 66.6244 38.8048C66.9968 37.6434 67.4778 36.5113 67.7594 35.3323C68.0791 34.0037 68.7859 33.5374 70.1496 33.5931C72.3874 33.6811 72.3903 33.6019 72.3933 31.3583C72.3962 29.3581 72.4167 27.3579 72.3933 25.3577C72.3815 24.3723 72.7892 23.95 73.7893 23.9588C78.3616 23.9998 77.6137 23.4807 77.6958 27.6747C77.7046 28.0647 77.6958 28.4548 77.6958 28.8449L77.7017 28.8419ZM103.93 67.6434C103.86 64.2677 104.446 64.9452 101.082 63.7838C100.713 63.6577 100.352 63.4993 99.9737 63.4142C99.0146 63.1972 98.5278 62.637 98.2814 61.6575C97.7858 59.669 97.0848 57.7245 95.9674 55.9942C95.2137 54.8269 95.2518 53.8561 95.9029 52.6331C97.6186 49.4129 97.5717 49.3689 94.9409 46.785C93.058 44.9344 93.6857 44.8816 91.3306 46.263C89.3392 47.4303 87.6176 47.6561 85.7259 46.2278C85.157 45.7996 84.4296 45.4594 83.7316 45.3509C80.6169 44.8728 78.8514 43.1454 78.4085 40.0161C78.3235 39.4148 77.9481 39.0218 77.2325 38.9221C72.8097 38.2974 72.1968 38.6523 70.745 42.8169C70.7304 42.8638 70.7128 42.9108 70.704 42.9577C70.5251 43.8287 69.9707 44.2335 69.1144 44.4329C67.1582 44.8846 65.2547 45.5797 63.5772 46.6648C62.1899 47.5622 61.0549 47.4273 59.6736 46.6883C56.7759 45.1368 56.7231 45.1808 54.415 47.5359C52.1889 49.8088 52.2505 48.9788 53.7727 51.7357C54.7728 53.5452 55.0279 55.0879 53.6994 56.7978C53.233 57.3961 52.8576 58.1733 52.7433 58.9153C52.2359 62.1443 50.4263 63.9627 47.1973 64.4261C46.464 64.5317 46.2089 65.0332 46.162 65.781C45.8628 70.4736 45.8482 70.4736 50.2005 71.9899C50.2474 72.0045 50.2914 72.0251 50.3383 72.0368C51.1155 72.2304 51.5643 72.6732 51.7696 73.4973C52.3503 75.826 53.2184 78.052 54.5147 80.0845C54.9751 80.803 54.8256 81.416 54.5147 82.1375C53.9487 83.4602 52.491 84.736 52.9544 86.0675C53.3914 87.3198 54.8813 88.1908 55.8609 89.276C56.4768 89.9594 57.0721 90.1265 57.8992 89.6309C58.691 89.1558 59.5768 88.8361 60.3686 88.3639C61.2573 87.833 62.0228 87.8125 62.9319 88.3844C64.2107 89.188 65.5539 90.0415 67.032 90.2673C69.8153 90.6926 71.1409 92.3144 71.5603 94.9305C71.7539 96.1359 72.4226 96.5641 73.6896 96.5524C77.8982 96.5113 77.9187 96.57 79.3382 92.5197C79.6432 91.6457 80.1154 91.1472 81.0305 90.936C82.5028 90.5928 84.0572 90.2468 85.2567 89.3611C87.5619 87.6571 89.6853 87.8565 91.8673 89.4461C92.8733 90.1793 93.7003 90.0239 94.4863 89.0443C95.3633 87.9474 96.9968 87.2406 97.2168 85.9179C97.428 84.6597 96.2578 83.4397 95.6331 82.2372C95.1668 81.3427 95.2254 80.6241 95.7504 79.7941C96.7446 78.2221 97.6127 76.5387 97.9442 74.7174C98.2873 72.8521 99.3343 72.113 101.044 71.5822C104.508 70.5088 103.857 71.2478 103.927 67.6522L103.93 67.6434Z" fill="#26B2E3"/>
<path d="M75.057 116.249C60.8621 116.249 46.6671 116.249 32.4722 116.246C29.557 116.246 27.6213 115.088 26.8705 112.894C26.5039 111.821 26.4687 110.694 26.4687 109.571C26.4687 97.1799 26.4687 84.7916 26.4687 72.4004C26.4687 68.0598 26.4569 63.7163 26.4745 59.3757C26.4951 54.7975 28.334 52.9645 32.874 52.9557C35.2144 52.9498 37.5577 52.9909 39.8981 52.941C41.039 52.9175 41.4584 53.3721 41.4408 54.4983C41.3763 58.707 41.8749 58.2201 37.8334 58.2524C36.2233 58.2641 34.6132 58.2729 33.003 58.2553C32.1496 58.2465 31.7273 58.6102 31.7683 59.4812C31.783 59.7745 31.7654 60.0678 31.7654 60.3582C31.7654 76.5034 31.7654 92.6516 31.7683 108.797C31.7683 110.234 32.5054 110.954 33.9797 110.955C61.1495 110.955 88.3222 110.955 115.492 110.955C116.079 110.955 116.662 110.944 117.249 110.938C117.964 110.932 118.328 110.577 118.322 109.853C118.322 109.463 118.337 109.073 118.337 108.683C118.337 92.5842 118.337 76.4858 118.337 60.3904C118.337 58.9768 117.641 58.2651 116.249 58.2553C114.249 58.2465 112.248 58.226 110.248 58.2553C109.157 58.2729 108.65 57.8682 108.661 56.7126C108.708 52.3603 108.257 52.9967 112.231 52.9527C113.988 52.9322 115.744 52.9381 117.498 52.9527C121.63 52.985 123.595 54.9177 123.622 59.0736C123.657 64.5374 123.637 70.0013 123.637 75.4652C123.637 86.83 123.637 98.1976 123.634 109.562C123.634 110.002 123.642 110.442 123.604 110.879C123.305 114.434 121.369 116.246 117.788 116.252C107.837 116.267 97.8862 116.258 87.9351 116.258C83.6414 116.258 79.3507 116.258 75.057 116.258V116.249Z" fill="black"/>
<path d="M50.9263 19.2192C52.8737 19.2192 54.824 19.2632 56.7714 19.2016C57.8712 19.1664 58.3845 19.5154 58.3757 20.6768C58.3434 24.6713 58.3522 28.6659 58.3698 32.6604C58.3727 33.6458 57.9621 34.0506 56.962 34.0359C52.4572 33.9655 53.1347 34.5785 53.076 30.32C53.0555 28.7626 53.0438 27.2024 53.079 25.6421C53.0995 24.6977 52.7006 24.3429 51.7709 24.3575C49.5302 24.3898 47.2866 24.3223 45.0489 24.381C43.8699 24.4103 43.383 24.0085 43.3947 22.7885C43.4387 18.5241 43.1073 19.2896 46.8379 19.2251C48.2017 19.2016 49.5654 19.2221 50.9292 19.2221L50.9263 19.2192Z" fill="#66C6EB"/>
<path d="M86.9754 26.592C86.9754 24.5948 87.0018 22.5975 86.9637 20.6032C86.9461 19.6207 87.3039 19.2042 88.3245 19.213C92.366 19.2482 96.4074 19.2394 100.452 19.216C101.355 19.2101 101.798 19.5034 101.786 20.4712C101.731 25.108 102.314 24.278 98.1026 24.3631C96.6919 24.3924 95.2754 24.4335 93.8676 24.3455C92.5684 24.2663 92.0229 24.6564 92.0903 26.0553C92.1959 28.2403 92.0903 30.437 92.1255 32.6278C92.1431 33.6103 91.7794 34.0415 90.7647 34.0327C86.2188 33.9975 87.0576 34.4667 86.9696 30.3901C86.9432 29.1231 86.9666 27.859 86.9666 26.592H86.9725H86.9754Z" fill="#66C6EB"/>
<path d="M48.6909 35.2262C48.6909 36.7865 48.6821 38.3467 48.6939 39.907C48.7027 40.8719 48.2862 41.3236 47.2861 41.3177C42.7461 41.2854 43.4411 41.7459 43.4089 37.7338C43.3825 34.2261 43.4118 34.1938 39.9921 34.0443C38.9715 34.0003 38.6342 33.5867 38.6489 32.616C38.7193 28.1522 38.1444 28.9675 42.1888 28.8883C43.8957 28.8531 45.6027 28.9235 47.3066 28.8707C48.3331 28.8385 48.7056 29.2931 48.6939 30.258C48.6733 31.915 48.688 33.5721 48.688 35.2321L48.6909 35.2262Z" fill="#66C6EB"/>
<path d="M101.41 34.9798C101.41 33.4195 101.422 31.8593 101.404 30.299C101.396 29.3722 101.683 28.8472 102.748 28.8678C105.232 28.9176 107.722 28.9 110.206 28.8766C111.059 28.8678 111.496 29.1933 111.435 30.079C111.426 30.2257 111.435 30.3723 111.438 30.519C111.496 33.9034 111.499 33.9445 108.1 34.0032C106.991 34.0237 106.645 34.4548 106.683 35.493C106.733 36.9536 106.675 38.4171 106.701 39.8806C106.719 40.8367 106.37 41.3294 105.343 41.3177C100.879 41.2707 101.434 41.7957 101.401 37.6106C101.396 36.7336 101.401 35.8567 101.401 34.9769H101.407L101.41 34.9798Z" fill="#66C6EB"/>
<path d="M68.0319 21.742C68.0319 23.7363 68.0084 25.7307 68.0407 27.725C68.0583 28.7544 67.6711 29.2442 66.6006 29.2472C61.9697 29.2677 62.7997 29.4994 62.744 25.631C62.697 22.3726 62.7616 19.1142 62.7293 15.8558C62.7176 14.7619 63.0871 14.2633 64.2485 14.2838C68.6038 14.363 67.982 13.7764 68.0319 17.9499C68.0465 19.2139 68.0319 20.478 68.0319 21.745H68.026L68.0319 21.742Z" fill="#66C6EB"/>
<path d="M36.2875 24.3506C35.8006 24.3506 35.2874 24.4533 34.8328 24.333C32.7388 23.7787 34.0556 22.0747 33.7799 20.9163C33.5951 20.1361 33.6391 19.1683 34.9325 19.224C35.2229 19.2358 35.5191 19.1947 35.8094 19.224C36.8007 19.3325 38.1469 18.7284 38.713 19.573C39.4696 20.7022 39.0268 22.2126 38.9417 23.5646C38.9095 24.0779 38.5487 24.3242 38.0443 24.333C37.4606 24.3418 36.877 24.333 36.2934 24.333C36.2934 24.3389 36.2934 24.3418 36.2934 24.3477L36.2875 24.3506Z" fill="#66C6EB"/>
<path d="M108.919 19.2207C110.599 19.2188 111.439 20.0615 111.441 21.7488C111.443 23.491 110.72 24.363 109.271 24.3649C106.291 24.3679 106.282 24.3679 106.294 22.1037C106.309 18.9597 106.06 19.2383 108.919 19.2207Z" fill="#66C6EB"/>
<path d="M94.4802 67.6351C94.4949 78.4808 85.7639 87.2822 75.0297 87.2411C64.2984 87.2001 55.6348 78.4954 55.6172 67.7378C55.5996 56.8658 64.231 48.2021 75.0707 48.2051C85.8401 48.2109 94.4656 56.8423 94.4802 67.6351ZM74.971 81.9386C83.0187 81.9532 89.3155 75.721 89.336 67.7231C89.3566 59.7575 83.0099 53.3727 75.0619 53.361C67.1961 53.3522 60.7937 59.7135 60.7702 67.5589C60.7497 75.6066 66.9878 81.9239 74.971 81.9386Z" fill="#26B2E3"/>
<path d="M84.813 67.7481C84.7954 73.1533 80.4489 77.5262 75.0613 77.5526C69.662 77.579 65.2744 73.124 65.2891 67.6308C65.3038 62.1376 69.659 57.8381 75.1786 57.8733C80.5428 57.9085 84.8306 62.3018 84.813 67.7481ZM74.9117 72.2647C77.5601 72.3234 79.6365 70.3759 79.6659 67.8068C79.6952 65.1731 77.7478 63.0908 75.1874 63.0233C72.6095 62.9559 70.4978 64.9531 70.4362 67.5252C70.3717 70.1589 72.3074 72.209 74.9117 72.2647Z" fill="#26B2E3"/>
</g>
<defs>
<clipPath id="clip0_1294_15341">
<rect width="149.985" height="150" fill="white"/>
</clipPath>
</defs>
</svg>
