<svg width="150" height="150" viewBox="0 0 150 150" fill="none" xmlns="http://www.w3.org/2000/svg">
<g clip-path="url(#clip0_1294_15404)">
<path d="M80.8481 -0.000973471C81.3757 0.758082 82.249 0.617408 82.9817 0.758082C100.783 4.14892 114.543 17.8618 117.925 35.5897C118.514 38.6728 118.76 41.7823 118.649 44.9123C118.605 46.2018 119.027 46.8172 120.386 47.0693C127.238 48.3471 131.204 53.1329 131.215 60.0846C131.218 62.6167 131.415 65.1606 130.987 67.684C130.07 73.0999 125.829 77.2557 120.381 77.9122C119.079 78.0675 118.675 78.6097 118.619 79.8669C117.869 96.7391 104.59 110.651 87.7793 112.272C85.7307 112.468 83.688 112.539 81.6394 112.477C79.5879 112.416 78.5358 111.448 78.1753 109.426C77.8178 107.41 76.7745 106.364 75.0805 106.323C73.4686 106.282 72.1205 107.392 71.8802 108.951C71.6516 110.449 72.6832 111.993 74.213 112.395C74.7288 112.53 75.2798 112.544 75.7897 112.697C77.3401 113.163 78.1988 114.502 77.9848 116.05C77.7768 117.538 76.6689 118.599 75.0834 118.634C71.6252 118.711 68.926 117.222 67.1089 114.315C65.1923 111.249 65.1102 108.014 66.8569 104.848C70.3122 98.5884 79.3007 98.4096 82.9172 104.588C83.8053 106.103 84.7812 106.364 86.352 106.24C99.3996 105.226 109.689 95.6137 112.01 83.419C112.432 81.2004 112.503 78.9643 112.488 76.7135C112.465 72.3702 112.474 68.0239 112.488 63.6806C112.488 63.0505 112.512 62.3999 112.67 61.7961C113.08 60.2194 114.399 59.3343 115.955 59.4985C117.424 59.6509 118.549 60.7528 118.605 62.3383C118.693 64.7767 118.643 67.218 118.663 69.6593C118.681 71.7928 119.305 72.2236 121.233 71.3444C123.642 70.2483 124.882 68.2906 125.002 65.694C125.102 63.5516 125.105 61.3946 125.008 59.2523C124.847 55.7559 122.288 53.2678 118.78 53.0773C117.807 53.0245 116.829 53.0714 115.853 53.0333C113.789 52.9542 112.591 51.817 112.515 49.7362C112.438 47.6877 112.482 45.6362 112.479 43.5847C112.456 24.2771 97.6206 8.08488 78.4215 6.40558C59.3543 4.74093 42.3913 17.1877 38.2941 35.8739C37.7695 38.2625 37.4853 40.6803 37.4882 43.1333C37.5028 53.2883 37.497 63.4403 37.4882 73.5952C37.4882 77.1091 36.4536 78.0997 32.9426 78.1408C27.7172 78.2023 23.3416 76.6138 20.5105 71.9188C19.7984 70.7378 19.262 69.4717 19.0628 68.106C18.5352 64.5129 18.4737 60.8905 19.0129 57.3121C19.8101 52.0222 23.7519 48.1302 29.0008 47.1308C31.2926 46.6942 31.2663 46.6942 31.3132 44.3173C31.6912 25.3908 40.501 11.8802 57.5079 3.69173C60.6877 2.1619 64.102 1.28268 67.5749 0.658438C68.1347 0.558794 68.7707 0.588101 69.1253 -0.00976562H80.8423L80.8481 -0.000973471ZM31.3102 62.3706C31.3102 59.7886 31.3337 57.2066 31.3014 54.6247C31.2839 53.2384 30.9029 52.9923 29.5723 53.341C27.0079 54.0092 25.0766 56.4271 24.9652 59.2787C24.8832 61.4181 24.8832 63.5692 24.9623 65.7086C25.0649 68.5016 26.7999 70.7759 29.2763 71.5525C30.7563 72.0155 31.2809 71.6727 31.3014 70.1194C31.3337 67.5374 31.3102 64.9555 31.3102 62.3735V62.3706Z" fill="#26B2E3"/>
<path d="M149.979 121.874C149.443 122.07 149.343 122.583 149.161 123.026C146.887 128.518 142.696 131.214 136.841 131.232C121.22 131.279 105.599 131.249 89.9754 131.249C75.7204 131.249 61.4654 131.27 47.2133 131.217C45.6161 131.211 44.476 131.701 43.3653 132.832C38.2365 138.057 33.0257 143.207 27.8559 148.391C27.3841 148.863 26.7657 149.247 26.6543 149.997H23.4335C21.7014 148.183 21.9212 145.918 21.9329 143.681C21.9564 139.142 21.9388 134.602 21.9417 130.062C21.9417 129.476 21.9329 128.89 21.9622 128.307C22.056 126.384 23.1785 125.168 24.89 125.112C26.6426 125.057 28.0054 126.285 28.0698 128.231C28.1666 131.109 28.0962 133.99 28.1314 136.868C28.1373 137.471 27.8237 138.359 28.4421 138.608C29.0604 138.858 29.4531 137.999 29.881 137.571C33.3481 134.136 36.8532 130.734 40.2147 127.199C41.7182 125.619 43.3535 125.027 45.5164 125.033C75.5797 125.086 105.643 125.068 135.706 125.066C136.779 125.066 137.852 125.11 138.91 124.837C141.623 124.139 143.502 121.933 143.751 119.066C143.807 118.436 143.792 117.797 143.792 117.164C143.792 89.0969 143.792 61.0323 143.792 32.9648C143.792 32.4754 143.798 31.9889 143.78 31.4995C143.654 27.6221 141.064 24.9933 137.163 24.9435C132.187 24.879 127.207 24.9347 122.228 24.9054C120.3 24.8936 119.165 24.0086 118.922 22.4611C118.611 20.4917 119.725 18.8651 121.759 18.8183C127.415 18.6893 133.095 18.4343 138.731 18.9062C143.71 19.3253 147.171 22.1827 149.103 26.8279C149.302 27.3115 149.381 27.8888 149.967 28.1174V121.868L149.979 121.874Z" fill="black"/>
<path d="M-0.000975532 28.127C0.629129 27.8603 0.687743 27.2214 0.916339 26.6997C3.07335 21.738 6.89793 19.0213 12.2524 18.8102C17.3665 18.608 22.4952 18.737 27.6181 18.7721C29.8455 18.7868 31.091 19.965 31.0881 21.8758C31.0881 23.8101 29.8777 24.9061 27.6035 24.9179C22.8703 24.9442 18.1372 24.9149 13.4071 24.9354C8.72084 24.956 6.18577 27.5028 6.18284 32.2212C6.17405 60.7664 6.17405 89.3116 6.18284 117.86C6.18284 122.194 8.26365 124.501 12.6011 125.09C14.5354 125.354 15.6637 126.664 15.4937 128.451C15.3325 130.139 13.8613 131.356 11.9593 131.197C6.85983 130.775 3.17885 128.267 1.02184 123.58C0.746358 122.98 0.711189 122.221 -0.00390625 121.878V28.127H-0.000975532Z" fill="black"/>
<path d="M106.152 42.2527C106.152 42.7157 106.208 43.3576 106.14 43.9818C105.967 45.582 104.786 46.7191 103.271 46.8129C101.794 46.9067 100.405 45.8809 100.138 44.2983C99.8713 42.7157 99.886 41.0863 99.6193 39.5037C97.5238 27.0774 86.9146 18.5402 73.8758 18.7513C62.1852 18.9418 51.8105 28.405 50.1868 40.3858C50.0374 41.4936 50.0784 42.6278 49.9495 43.7415C49.7238 45.6787 48.361 46.9243 46.6817 46.807C44.9614 46.6869 43.8037 45.3124 43.7862 43.3751C43.6601 28.4988 55.4651 14.9032 70.2564 12.8957C87.8729 10.5042 103.209 21.9311 105.885 39.4538C106.017 40.3184 106.052 41.2006 106.146 42.2468L106.152 42.2527Z" fill="#26B2E3"/>
<path d="M78.1399 84.3224C78.1438 86.4618 77.0868 87.5296 74.9689 87.5257C72.8803 87.5237 71.8359 86.4901 71.8359 84.425C71.8359 82.2894 72.8939 81.2207 75.0099 81.2188C77.0946 81.2188 78.138 82.2523 78.1399 84.3194V84.3224Z" fill="#66C6EB"/>
<path d="M65.6213 84.4875C65.6213 86.5136 64.6044 87.5266 62.5704 87.5266C60.4818 87.5266 59.4375 86.4882 59.4375 84.4113C59.4375 82.2855 60.5072 81.2227 62.6466 81.2227C64.6317 81.2227 65.6242 82.3109 65.6242 84.4875H65.6213Z" fill="#66C6EB"/>
<path d="M84.3594 84.2823C84.3594 82.2465 85.3705 81.2266 87.3927 81.2227C89.493 81.2188 90.5432 82.2523 90.5432 84.3234C90.5432 86.4647 89.4793 87.5335 87.3516 87.5296C85.3548 87.5276 84.3574 86.4452 84.3594 84.2823Z" fill="#66C6EB"/>
</g>
<defs>
<clipPath id="clip0_1294_15404">
<rect width="149.979" height="150" fill="white"/>
</clipPath>
</defs>
</svg>
