<svg width="151" height="150" viewBox="0 0 151 150" fill="none" xmlns="http://www.w3.org/2000/svg">
<path d="M117.446 45.5385C115.739 43.296 113.994 41.4145 112.113 39.6621C104.215 32.3126 95.0658 27.2821 84.4145 25.369C69.5022 22.689 55.881 25.9329 43.8831 35.2297C33.909 42.9587 27.7981 53.1831 25.3316 65.5578C24.7308 68.5645 24.433 71.6187 24.4225 74.6939C24.4145 77.3581 22.6648 79.2501 20.2246 79.258C17.7792 79.2659 15.9662 77.3581 16.0005 74.7229C16.1902 60.4087 20.8149 47.723 30.1012 36.8056C38.9185 26.4362 50.0547 19.8035 63.3754 17.1947C80.5329 13.8322 96.2648 17.6558 110.584 27.5509C114.021 29.9251 117.172 32.6473 120.052 35.6777C120.403 36.0466 120.653 36.5104 120.951 36.9294C121.088 36.8398 121.222 36.7529 121.359 36.6633C121.359 35.4537 121.352 34.2442 121.359 33.0346C121.381 30.5181 123.217 28.6524 125.634 28.6787C127.976 28.7051 129.779 30.5708 129.784 33.0267C129.795 38.6449 129.795 44.2657 129.784 49.8839C129.779 52.1317 127.958 53.9578 125.715 53.9631C120.097 53.9763 114.476 53.9763 108.858 53.9631C106.342 53.9578 104.476 52.1079 104.5 49.6915C104.526 47.3462 106.387 45.5517 108.845 45.5411C111.636 45.5279 114.426 45.5385 117.449 45.5385H117.446Z" fill="black"/>
<path d="M113.562 117.71C113.559 120.069 111.372 122.219 109.005 122.193C106.731 122.166 104.726 120.119 104.786 117.887C104.85 115.581 106.984 113.518 109.322 113.502C111.699 113.486 113.562 115.339 113.559 117.71H113.562Z" fill="#66C6EB"/>
<path d="M99.4976 126.037C99.4686 128.356 97.3262 130.37 94.9098 130.348C92.6014 130.33 90.7383 128.364 90.7699 125.982C90.8015 123.605 92.8886 121.645 95.3498 121.676C97.6872 121.708 99.5292 123.642 99.4976 126.037Z" fill="#66C6EB"/>
<path d="M124.569 105.763C124.553 108.145 122.495 110.279 120.189 110.306C117.928 110.332 115.934 108.298 115.965 105.997C115.997 103.625 118.079 101.502 120.379 101.488C122.738 101.475 124.585 103.362 124.566 105.763H124.569Z" fill="#66C6EB"/>
<path d="M38.9208 113.341C38.8997 115.663 37.0683 117.462 34.7283 117.457C32.3145 117.452 30.1721 115.294 30.2195 112.911C30.2643 110.64 32.1933 108.756 34.4648 108.764C36.8496 108.772 38.9419 110.919 38.9208 113.341Z" fill="#66C6EB"/>
<path d="M52.0947 122.878C52.0947 125.231 50.3133 127.054 47.9733 127.099C45.5041 127.147 43.3776 125.094 43.3828 122.67C43.3855 120.33 45.1905 118.509 47.5174 118.498C50.1157 118.488 52.0973 120.382 52.0947 122.878Z" fill="#66C6EB"/>
<path d="M131.629 91.0015C131.637 93.6103 129.742 95.6025 127.268 95.5919C124.936 95.5814 123.133 93.771 123.117 91.4231C123.099 88.8064 124.978 86.8274 127.468 86.8458C129.803 86.8616 131.621 88.6799 131.629 91.0015Z" fill="#66C6EB"/>
<path d="M79.1172 133.861C76.7165 133.861 74.8034 132.003 74.8008 129.671C74.8008 127.318 76.9036 125.357 79.3939 125.389C81.7365 125.421 83.6839 127.35 83.6865 129.647C83.6918 132.043 81.7207 133.861 79.1172 133.858V133.861Z" fill="#66C6EB"/>
<path d="M63.1865 132.741C60.496 132.741 58.6119 130.944 58.633 128.404C58.6514 126.053 60.4433 124.293 62.815 124.293C65.5002 124.293 67.3896 126.093 67.3712 128.63C67.3554 130.965 65.545 132.741 63.1865 132.741Z" fill="#66C6EB"/>
<path d="M134 75.1395C134 77.5928 132.092 79.5507 129.734 79.5138C127.415 79.4769 125.573 77.5559 125.57 75.1685C125.568 72.7072 127.436 70.8046 129.839 70.8283C132.171 70.8494 134 72.7441 134 75.1421V75.1395Z" fill="#66C6EB"/>
<path d="M20.2071 100.354C20.1992 97.9982 22.1096 96.0982 24.4681 96.1193C26.7897 96.1378 28.6185 98.1747 28.6659 100.794C28.7028 102.826 26.7238 104.726 24.5419 104.752C22.244 104.781 20.215 102.72 20.2071 100.354Z" fill="#66C6EB"/>
</svg>
