<svg width="150" height="150" viewBox="0 0 150 150" fill="none" xmlns="http://www.w3.org/2000/svg">
<g clip-path="url(#clip0_1294_15397)">
<path d="M77.2668 0C81.7153 1.42516 84.5187 4.27843 84.9937 9.06709C85.4248 13.3924 83.1903 17.3307 79.1817 19.1195C77.9383 19.6737 77.4369 20.3599 77.6333 21.6531C77.6832 21.9874 77.6392 22.3334 77.6392 22.6765C77.6333 24.7439 77.6392 24.7087 79.73 25.1046C81.7065 25.4799 83.0319 26.7116 83.8032 28.5326C84.507 30.1924 85.1814 31.8668 85.809 33.5588C86.1227 34.4004 86.5949 34.9312 87.4922 35.198C89.8323 35.896 92.0961 36.805 94.2339 37.9985C94.9464 38.3973 95.5652 38.3915 96.2983 38.0572C97.8935 37.327 99.5386 36.7082 101.134 35.9781C103.468 34.9136 105.612 35.1658 107.515 36.8725C108.225 37.5088 108.623 37.4238 109.318 36.805C111.057 35.2567 112.066 33.9781 111.075 31.1953C109.708 27.3655 111.236 23.7557 114.447 21.1869C117.749 18.5447 121.506 18.1576 125.306 19.9758C128.96 21.7235 130.898 24.7351 130.922 28.8434C130.963 36.3065 123.749 41.1685 116.878 38.2947C116.072 37.9575 115.517 37.9428 114.978 38.6407C114.802 38.8694 114.564 39.0542 114.362 39.2653C113.723 39.9339 112.793 40.5057 112.529 41.2975C112.257 42.1274 113.412 42.6787 113.811 43.444C114.629 45.0158 114.746 46.5993 114.06 48.2327C113.342 49.9394 112.652 51.6607 111.881 53.344C111.482 54.2178 111.477 54.9568 111.96 55.816C113.11 57.8599 114.007 60.024 114.644 62.285C114.89 63.1647 115.374 63.6984 116.236 64.0122C117.837 64.5957 119.415 65.2526 120.995 65.8948C123.136 66.7687 124.59 68.2231 124.813 70.6307C124.925 71.8271 125.435 72.4253 126.69 72.2113C126.881 72.179 127.083 72.1849 127.274 72.2113C129.092 72.4722 130.191 71.9473 131.074 70.0735C133.065 65.8449 138.009 63.9007 142.601 65.1499C147.343 66.4432 150.205 70.6453 149.941 75.9325C149.73 80.1464 146.132 84.0788 141.748 84.8823C137.218 85.7151 132.646 83.4425 130.76 79.2256C130.174 77.9148 129.438 77.4457 128.112 77.6216C127.728 77.6744 127.326 77.6832 126.945 77.6216C125.45 77.3929 124.878 78.0204 124.746 79.5189C124.564 81.6009 123.221 82.9557 121.371 83.7709C119.723 84.4982 118.042 85.1668 116.35 85.7826C115.447 86.111 114.89 86.6213 114.617 87.5626C113.954 89.8645 113.051 92.0785 111.878 94.1693C111.45 94.9347 111.471 95.5974 111.828 96.3716C112.544 97.9199 113.142 99.521 113.858 101.069C114.934 103.395 114.705 105.547 113.013 107.456C112.333 108.225 112.333 108.758 113.139 109.342C113.257 109.427 113.362 109.535 113.45 109.653C114.743 111.427 116.127 111.887 118.465 111.16C123.884 109.474 129.467 113.048 130.754 118.588C132.033 124.086 128.57 129.461 122.934 130.731C117.553 131.942 111.993 128.335 110.946 122.866C110.556 120.834 110.612 118.764 111.556 116.855C111.949 116.063 111.914 115.488 111.213 114.954C111.019 114.808 110.867 114.611 110.691 114.441C110.031 113.793 109.474 112.884 108.679 112.565C107.729 112.18 107.201 113.406 106.406 113.802C104.823 114.591 103.251 114.735 101.615 114.042C99.8641 113.301 98.0959 112.597 96.3687 111.808C95.5828 111.45 94.92 111.459 94.1664 111.884C92.0375 113.086 89.7736 113.996 87.4277 114.679C86.6476 114.905 86.1785 115.347 85.8969 116.089C85.2518 117.773 84.5949 119.453 83.8999 121.118C83.029 123.203 81.5599 124.588 79.2227 124.799C78.0175 124.907 77.4457 125.432 77.648 126.681C77.6949 126.966 77.6978 127.274 77.648 127.558C77.3342 129.297 78.0439 130.191 79.6831 130.966C83.856 132.939 85.9116 137.783 84.7855 142.311C83.6478 146.889 79.7945 149.774 75.1202 149.979C70.7187 150.17 66.0854 146.915 65.0209 142.088C63.9858 137.396 66.2848 132.681 70.7949 130.652C71.9151 130.147 72.4077 129.537 72.2376 128.35C72.1907 128.016 72.2289 127.667 72.2259 127.326C72.2201 125.153 72.2113 125.189 70.009 124.711C68.0443 124.283 66.7599 123.013 66.0062 121.186C65.32 119.517 64.6456 117.846 64.0122 116.157C63.7131 115.359 63.2204 114.884 62.3905 114.641C59.9977 113.94 57.7045 112.975 55.514 111.784C54.8981 111.45 54.3498 111.433 53.7164 111.714C52.0683 112.447 50.3881 113.107 48.7459 113.852C46.4175 114.913 44.2593 114.691 42.3649 112.975C41.5644 112.251 41.0541 112.392 40.4794 113.142C40.3327 113.333 40.1568 113.518 39.9632 113.658C38.3387 114.834 37.9692 116.045 38.7052 118.171C40.5908 123.623 36.8783 129.669 31.292 130.857C25.389 132.112 19.7734 128.224 18.923 122.426C17.8146 114.875 25.0225 108.776 32.4621 111.427C33.7348 111.881 34.5705 111.814 35.33 110.746C35.3857 110.667 35.4678 110.609 35.5353 110.538C36.1452 109.911 37.0015 109.38 37.3065 108.626C37.6789 107.703 36.4912 107.225 36.0983 106.48C35.242 104.858 35.113 103.245 35.8256 101.559C36.5675 99.8084 37.2742 98.0431 38.0484 96.3071C38.3739 95.5798 38.4149 94.964 38.0132 94.2427C36.7757 92.0228 35.8197 89.671 35.0983 87.2341C34.8755 86.4776 34.3887 86.1198 33.726 85.8588C32.0926 85.2166 30.4592 84.5744 28.8347 83.9146C26.6793 83.0437 25.2776 81.5511 25.0459 79.1582C24.9404 78.0585 24.4888 77.4339 23.2806 77.6157C22.9932 77.6597 22.6912 77.6627 22.4038 77.6157C20.6649 77.3547 19.6854 77.95 18.8468 79.6684C17.0345 83.3692 13.7619 85.1492 9.66824 85.0231C5.37222 84.8911 2.34008 82.6771 0.574758 78.7565C0.354825 78.2697 0.202338 77.7506 0.0205271 77.2492C0 75.7038 0 74.1437 0 72.5837C0.375352 71.6863 0.653933 70.7333 1.14072 69.9005C3.09372 66.5517 6.09067 64.8127 9.92923 64.7834C13.7297 64.7541 16.9084 66.3933 18.5858 69.7744C19.6327 71.8858 20.8584 72.528 22.9463 72.2171C23.09 72.1966 23.2425 72.1937 23.3832 72.2171C24.5474 72.396 24.958 71.7509 25.043 70.7245C25.2395 68.3199 26.5825 66.8068 28.7643 65.9446C30.3507 65.3171 31.9166 64.6368 33.5207 64.062C34.4327 63.7365 34.9664 63.1999 35.2362 62.2644C35.9018 59.9654 36.8138 57.7543 37.9721 55.6576C38.3973 54.8894 38.3709 54.2295 38.019 53.4554C37.2331 51.7253 36.5206 49.9629 35.7787 48.2122C35.1071 46.6287 35.2567 45.1038 35.9634 43.5496C36.3505 42.6963 37.6935 42.1772 37.2537 41.1568C36.8959 40.3239 35.9517 39.7404 35.2655 39.0483C35.1277 38.9105 34.9693 38.7873 34.8549 38.6319C34.3183 37.9164 33.7494 37.9692 32.9577 38.3064C26.4623 41.0629 19.5359 36.849 18.8878 29.7936C18.5242 25.8348 20.5417 22.0988 24.0606 20.2133C27.8552 18.1811 32.3712 18.6004 35.5675 21.2836C38.6495 23.87 40.0952 28.1367 38.6642 31.8199C37.9193 33.7348 38.2419 34.8813 39.7433 35.9781C39.9779 36.1481 40.1861 36.3681 40.3621 36.5997C41.0072 37.4472 41.5702 37.5968 42.4705 36.7816C44.271 35.157 46.3589 34.9341 48.5905 35.9282C50.2356 36.6613 51.9217 37.3094 53.561 38.0572C54.3029 38.3944 54.9216 38.3592 55.6283 37.9721C57.7749 36.805 60.0152 35.849 62.3671 35.1834C63.1999 34.9488 63.6896 34.4679 63.9916 33.6732C64.6456 31.943 65.3464 30.2276 66.0443 28.5121C66.798 26.6617 68.141 25.4477 70.1175 25.1075C72.528 24.6911 72.1731 24.7468 72.2054 22.5123C72.2113 22.2191 72.1643 21.92 72.2083 21.6355C72.4224 20.3277 71.874 19.6649 70.6483 19.1107C66.581 17.2779 64.3846 13.3485 64.8684 8.91461C65.3816 4.19925 68.188 1.39877 72.5778 0H77.2609L77.2668 0ZM119.62 74.9326C119.62 74.2493 119.547 73.5572 119.635 72.8857C119.813 71.528 119.221 70.8623 117.96 70.4371C116.069 69.8008 114.248 68.965 112.38 68.2525C111.142 67.7803 110.374 66.9563 110.057 65.6543C109.283 62.458 107.987 59.464 106.336 56.6312C105.662 55.4758 105.582 54.3879 106.134 53.168C107.037 51.171 107.837 49.1271 108.729 47.1243C109.049 46.4058 109.016 45.8281 108.456 45.271C107.178 44.0012 105.896 42.7315 104.635 41.4441C104.037 40.8312 103.427 40.799 102.662 41.145C100.8 41.9896 98.8818 42.7227 97.0314 43.5965C95.6297 44.2563 94.3863 44.2329 93.0257 43.4265C90.2897 41.8048 87.372 40.5644 84.2724 39.8166C82.9146 39.4882 82.0613 38.7111 81.5716 37.4179C80.7945 35.3681 79.9353 33.3477 79.1494 31.3008C78.8679 30.5707 78.4515 30.21 77.6333 30.2305C75.8299 30.2686 74.0264 30.2686 72.223 30.2305C71.4107 30.2129 70.9796 30.556 70.6981 31.2891C69.9122 33.3359 69.0589 35.3564 68.2818 37.4062C67.7921 38.6994 66.9358 39.4999 65.5869 39.8225C62.4345 40.5791 59.4845 41.8459 56.7075 43.5027C55.514 44.2153 54.3732 44.2945 53.1035 43.7168C51.1534 42.8282 49.1476 42.0599 47.2005 41.1597C46.353 40.7697 45.7255 40.9016 45.1067 41.5292C43.9103 42.7432 42.708 43.9543 41.4911 45.1478C40.843 45.7841 40.8019 46.4293 41.1773 47.2504C42.0658 49.2004 42.8458 51.2003 43.7256 53.1563C44.2739 54.3732 44.2241 55.4846 43.5408 56.6312C41.8547 59.4493 40.5761 62.4462 39.7961 65.6426C39.4794 66.9387 38.7228 67.7745 37.4853 68.2525C35.4385 69.0384 33.418 69.8917 31.3683 70.6688C30.5824 70.9679 30.1982 71.4048 30.2217 72.2846C30.2686 74.0382 30.2686 75.7947 30.2217 77.5483C30.1982 78.4163 30.5531 78.8737 31.3507 79.1758C33.4005 79.9529 35.4209 80.8121 37.4648 81.598C38.6994 82.073 39.4677 82.8824 39.7873 84.1903C40.5732 87.3808 41.8547 90.3777 43.532 93.2016C44.2065 94.3394 44.2974 95.4538 43.7432 96.6736C42.8576 98.6266 42.0775 100.627 41.1861 102.574C40.8107 103.392 40.8254 104.031 41.4852 104.673C42.7403 105.896 43.9748 107.145 45.2064 108.395C45.7959 108.993 46.4029 109.06 47.18 108.708C49.089 107.843 51.0508 107.096 52.9481 106.213C54.3087 105.579 55.5052 105.65 56.816 106.418C59.5578 108.028 62.4638 109.286 65.5722 110.022C66.9211 110.342 67.7862 111.131 68.2759 112.427C69.0354 114.432 69.8829 116.403 70.6365 118.409C70.9532 119.253 71.4136 119.658 72.3549 119.626C74.0587 119.567 75.7683 119.57 77.472 119.626C78.4016 119.655 78.8855 119.286 79.2051 118.429C79.9558 116.421 80.8121 114.453 81.5657 112.447C82.0525 111.148 82.8971 110.368 84.2548 110.037C87.4013 109.271 90.3542 108.002 93.1342 106.351C94.2749 105.67 95.398 105.553 96.6062 106.119C97.31 106.45 98.049 106.708 98.7645 107.016C102.471 108.61 105.636 107.87 108.26 104.796C108.324 104.723 108.38 104.641 108.45 104.574C109.013 104.028 109.051 103.448 108.729 102.726C107.834 100.723 107.046 98.6765 106.134 96.6824C105.547 95.401 105.664 94.2632 106.38 93.0843C107.471 91.2897 108.679 89.4364 108.999 87.4013C109.67 83.1287 112.345 81.3165 116.142 80.0174C120.403 78.56 119.503 79.6508 119.617 74.9326H119.62ZM120.884 125.511C123.655 125.511 125.564 123.605 125.558 120.849C125.549 118.113 123.497 116.013 120.808 115.99C118.163 115.966 115.969 118.163 115.995 120.808C116.022 123.508 118.104 125.511 120.887 125.511H120.884ZM74.8944 5.26666C72.2406 5.27545 70.1263 7.31056 70.0706 9.9087C70.0178 12.4453 72.308 14.7883 74.8768 14.8205C77.431 14.8528 79.7535 12.5655 79.774 9.99961C79.7945 7.36628 77.6216 5.25786 74.8915 5.26666H74.8944ZM14.8205 74.9414C14.8323 72.3813 12.5332 70.0735 9.97029 70.0706C7.38974 70.0706 5.29891 72.1878 5.26666 74.8329C5.2344 77.5717 7.28417 79.7418 9.93803 79.7769C12.4805 79.8092 14.8088 77.5043 14.8176 74.9414H14.8205ZM144.578 74.8534C144.549 72.1995 142.499 70.1087 139.889 70.0764C137.344 70.0471 135.015 72.3667 135.027 74.9238C135.039 77.4955 137.341 79.7945 139.889 79.7769C142.534 79.7593 144.604 77.5835 144.575 74.8504L144.578 74.8534ZM74.8827 144.581C77.6216 144.598 79.8209 142.461 79.7769 139.824C79.7359 137.291 77.5072 135.068 74.9648 135.03C72.396 134.992 70.05 137.323 70.0764 139.886C70.1028 142.505 72.2113 144.563 74.8856 144.581H74.8827ZM29.0018 125.52C31.7143 125.52 33.8022 123.532 33.8433 120.913C33.8843 118.356 31.6029 116.034 29.0223 116.004C26.3919 115.975 24.26 118.168 24.2835 120.881C24.3099 123.643 26.2189 125.52 28.9989 125.517L29.0018 125.52ZM29.0077 24.2923C26.1955 24.304 24.2659 26.26 24.2864 29.081C24.304 31.7231 26.3655 33.7846 29.0135 33.811C31.5501 33.8374 33.8931 31.4621 33.8433 28.9197C33.7905 26.3274 31.6498 24.2776 29.0077 24.2894V24.2923ZM121.036 24.2923C118.306 24.1985 116.092 26.2131 116.004 28.8728C115.919 31.4211 118.209 33.7934 120.778 33.8169C123.359 33.8433 125.447 31.8609 125.555 29.2833C125.675 26.4535 123.805 24.3861 121.036 24.2923Z" fill="black"/>
<path d="M42.3339 74.9067C42.0964 57.0774 57.0283 42.3243 74.8224 42.2833C92.6135 42.2422 107.199 56.7989 107.557 74.285C107.933 92.5951 92.6692 107.964 74.2036 107.559C56.7791 107.178 42.0934 92.645 42.331 74.9067H42.3339ZM74.925 47.72C59.864 47.6819 47.9466 59.6287 47.6739 74.6251C47.4041 89.604 59.9402 102.29 74.9103 102.17C89.9801 102.046 101.956 90.1465 102.161 75.0679C102.367 60.0304 89.7367 47.4063 74.925 47.723V47.72Z" fill="black"/>
<path d="M74.8929 92.5779C71.7259 92.5779 68.5588 92.5867 65.3918 92.5779C60.5093 92.5632 57.2983 89.3962 57.2777 84.5518C57.2602 80.5549 57.2631 76.5609 57.2777 72.564C57.2924 68.7753 59.609 65.7696 63.301 64.9778C64.4505 64.7315 64.647 64.1978 64.6997 63.2037C64.9343 58.8725 66.6703 56.1541 70.0573 55.204C73.2449 54.3125 76.5439 54.3301 79.7314 55.1805C83.1008 56.0808 84.9248 58.8373 85.13 62.9867C85.1887 64.1626 85.4086 64.7549 86.7517 65.0189C90.077 65.6757 92.5198 68.7782 92.5579 72.1857C92.6077 76.5228 92.6195 80.8599 92.555 85.194C92.4934 89.1997 89.1504 92.4723 85.1271 92.5632C83.4233 92.6014 81.7167 92.572 80.01 92.575C78.3033 92.575 76.5996 92.575 74.8929 92.575V92.5779ZM74.9281 87.1588V87.1646C78.0951 87.1646 81.2621 87.1822 84.4292 87.1588C86.4174 87.1441 87.1241 86.411 87.1593 84.3993C87.1739 83.4727 87.1212 82.546 87.171 81.6223C87.2326 80.549 86.7751 80.1356 85.7136 80.1561C83.57 80.1971 81.4264 80.1884 79.2827 80.1561C78.3326 80.1414 77.6904 80.3878 77.1391 81.2851C76.1362 82.9272 73.9516 83.156 72.9897 81.6047C72.1129 80.1913 71.0162 80.1062 69.6702 80.1561C68.6967 80.1913 67.7202 80.1649 66.7466 80.1708C63.9842 80.1884 62.6294 81.6008 62.6822 84.4081C62.7203 86.411 63.4124 87.1324 65.4241 87.15C68.5911 87.1763 71.7581 87.1558 74.9251 87.1558L74.9281 87.1588ZM74.931 74.8249C78.535 74.8249 82.136 74.8308 85.74 74.8191C86.2473 74.8191 86.8308 74.9628 87.1036 74.2795C87.9569 72.1535 86.6608 70.0832 84.3412 70.0685C78.0599 70.0275 71.7816 70.048 65.5003 70.0685C65.0282 70.0685 64.5238 70.1829 64.0898 70.3676C62.8142 70.916 62.3333 72.2151 62.7028 74.0068C62.9872 75.3792 64.1074 74.7809 64.8522 74.7956C68.2099 74.863 71.5704 74.8249 74.9281 74.8249H74.931ZM74.9398 64.6758C76.1538 64.6758 77.3679 64.6846 78.5819 64.6728C79.0658 64.667 79.5496 64.6728 79.7578 64.057C80.4029 62.1744 79.0951 60.1862 77.0893 60.11C75.7785 60.0601 74.4677 60.0836 73.154 60.0982C70.937 60.1217 70.0045 61.1422 70.028 63.3562C70.0368 64.274 70.3476 64.708 71.2948 64.6846C72.5088 64.6523 73.7229 64.6758 74.9369 64.6758H74.9398Z" fill="#66C6EB"/>
</g>
<defs>
<clipPath id="clip0_1294_15397">
<rect width="149.95" height="150" fill="white"/>
</clipPath>
</defs>
</svg>
