<svg width="30" height="29" viewBox="0 0 30 29" fill="none" xmlns="http://www.w3.org/2000/svg">
<path d="M13.719 27.299L13.773 27.414C13.9295 27.6994 14.1439 27.9253 14.3951 28.085L14.3953 28.0851C14.6823 28.2677 15.0217 28.3691 15.3914 28.3691C15.7421 28.3691 16.0689 28.2758 16.3496 28.1065L16.3584 28.1012L16.3584 28.1013L16.3962 28.0795C16.6755 27.8997 16.9092 27.6364 17.0671 27.3011L13.719 27.299ZM13.719 27.299L10.8741 21.2424L10.4216 21.455M13.719 27.299L10.4216 21.455M10.3599 20.6142C10.1397 20.4549 9.88039 20.354 9.60133 20.3191L2.96435 19.484L2.96125 19.4836C2.59451 19.4398 2.27001 19.297 2.00812 19.0808L2.008 19.0807C1.75034 18.8682 1.54876 18.578 1.4276 18.2078C1.31739 17.8492 1.31308 17.5054 1.39484 17.1872C1.48057 16.8565 1.65898 16.5493 1.92607 16.2992L1.92635 16.2989L6.80665 11.721C7.00975 11.5305 7.16381 11.298 7.24829 11.0368C7.33195 10.7784 7.34552 10.5006 7.29188 10.2247C7.29184 10.2245 7.2918 10.2243 7.29176 10.2241L6.03035 3.63409C6.03023 3.63342 6.03011 3.63274 6.02998 3.63206C5.96511 3.27444 6.00196 2.92909 6.12371 2.6213L6.12374 2.62121C6.24793 2.30709 6.46352 2.02453 6.76401 1.80635L6.76437 1.80609C7.06243 1.58928 7.39848 1.47127 7.73745 1.45065L7.73789 1.45062C8.07496 1.42983 8.42155 1.50458 8.74344 1.68238L8.74407 1.68273L14.6065 4.91005C14.8513 5.04485 15.1205 5.11732 15.3935 5.11732C15.6669 5.11732 15.935 5.0446 16.1795 4.91004L22.0418 1.68273L22.0419 1.68266C22.3654 1.50448 22.7113 1.42988 23.0478 1.45061C23.3894 1.47222 23.7239 1.58962 24.023 1.8065C24.3232 2.02452 24.5386 2.30704 24.6631 2.62143L24.6632 2.62155C24.787 2.93415 24.8225 3.28597 24.7527 3.65102L23.4947 10.2266L23.4945 10.2275C23.4429 10.4998 23.4542 10.7774 23.5384 11.0375C23.6228 11.2992 23.7773 11.5317 23.98 11.7217C23.98 11.7218 23.9801 11.7218 23.9801 11.7218L28.8604 16.2998L28.8606 16.3C29.1276 16.5502 29.3054 16.8569 29.3911 17.1873C29.4762 17.5153 29.4681 17.8695 29.3544 18.2197L29.3542 18.2203C29.2395 18.5754 29.0387 18.8665 28.7784 19.082C28.5162 19.2983 28.19 19.4424 27.8225 19.4887C27.8224 19.4887 27.8224 19.4887 27.8223 19.4887L21.1845 20.3213L21.1829 20.3215C20.9057 20.3572 20.6473 20.4561 20.4258 20.6166L20.4252 20.617C20.206 20.7764 20.0307 20.9917 19.9119 21.2445L19.9119 21.2446L17.0672 27.3008L10.0669 21.0193M10.3599 20.6142L10.0669 21.0193M10.3599 20.6142C10.3599 20.6142 10.3599 20.6142 10.3599 20.6142L10.0669 21.0193M10.3599 20.6142C10.5818 20.7746 10.7558 20.9906 10.8741 21.2424L10.4216 21.455M10.0669 21.0193C10.2158 21.127 10.337 21.2749 10.4216 21.455M23.9853 10.3205L23.9853 10.3205L23.9853 10.3205Z" stroke="#325A3E"/>
</svg>
