<svg width="168" height="140" viewBox="0 0 168 140" fill="none" xmlns="http://www.w3.org/2000/svg">
<path d="M63.0019 122.997C44.4981 122.997 26.0008 123.004 7.49692 122.997C2.25973 122.997 0.00491601 120.75 0.00491601 115.529C-0.00163867 85.3487 -0.00163867 55.1685 0.00491601 24.9948C0.00491601 20.2715 2.31216 18.0049 7.11019 18.0049C44.3735 17.9984 81.6369 17.9984 118.9 18.0049C123.705 18.0049 125.992 20.2519 125.992 25.0013C125.999 55.2668 126.006 85.5322 125.992 115.798C125.992 120.685 123.672 122.984 118.763 122.991C100.174 123.004 81.5845 122.991 63.0019 122.991V122.997ZM63.1265 39.2693C44.7144 39.2693 26.3023 39.3152 7.88364 39.2169C5.28799 39.2038 4.44899 39.8392 4.45554 42.5513C4.56042 66.3641 4.51454 90.1702 4.51454 113.983C4.51454 117.946 5.05857 118.483 9.06348 118.483C44.9307 118.483 80.7979 118.483 116.665 118.483C121.031 118.483 121.476 118.045 121.476 113.708C121.476 89.9868 121.43 66.2593 121.535 42.5382C121.548 39.8065 120.683 39.1973 118.101 39.2104C99.7737 39.3086 81.4468 39.2628 63.1199 39.2628L63.1265 39.2693ZM63.0019 34.7557C80.1949 34.7557 97.3878 34.7557 114.574 34.7557C119.18 34.7557 121.481 32.4782 121.476 27.9231C121.476 22.9247 121.076 22.5251 116.141 22.5251C80.7127 22.5251 45.2781 22.5251 9.85005 22.5251C9.14869 22.5251 8.4539 22.5251 7.7591 22.5447C5.62883 22.6037 4.56697 23.7304 4.54075 25.8333C4.52109 27.6676 4.52109 29.4953 4.52109 31.3296C4.52765 34.7426 4.5342 34.7492 8.02129 34.7492C26.3482 34.7492 44.6751 34.7492 63.0019 34.7492V34.7557Z" fill="#66C6EB"/>
<path d="M118 57.8676C117.941 58.058 117.921 58.5572 117.67 58.8659C115.629 61.388 113.364 63.7197 110.795 65.7032C109.474 66.7278 108.14 65.9331 107.004 64.961C103.808 62.2287 100.499 59.6081 97.4148 56.751C95.6053 55.0762 94.8326 55.6213 93.7825 57.4801C90.4276 63.4241 86.9406 69.2959 83.48 75.1808C81.4789 78.5765 80.9308 78.7407 77.3976 77.1972C73.3756 75.4436 69.3141 73.7621 65.3449 71.8903C63.7401 71.1284 62.6901 71.24 61.4551 72.5799C58.0077 76.3105 54.4151 79.9164 50.8818 83.5682C50.0695 84.4023 49.211 85.1511 47.9165 84.9737C45.9089 84.6913 45.3145 82.4976 46.9259 80.7242C49.0987 78.3203 51.4498 76.0807 53.7018 73.749C55.7095 71.6669 57.7369 69.6046 59.672 67.4569C61.0985 65.874 62.6306 65.5062 64.6053 66.3994C68.6867 68.245 72.8671 69.8739 76.889 71.818C78.791 72.7375 79.6826 72.2449 80.627 70.5832C84.2791 64.1991 88.0039 57.8676 91.7418 51.536C93.5778 48.4228 94.7665 48.2586 97.5139 50.5902C100.928 53.4801 104.382 56.3175 107.717 59.2994C108.926 60.3765 109.712 60.3306 110.755 59.1746C111.805 58.0055 112.974 56.9349 114.176 55.9103C114.969 55.2338 115.966 55.1878 116.897 55.6738C117.663 56.0745 117.993 56.7707 117.974 57.8741L118 57.8676Z" fill="#66C6EB"/>
<path d="M25.2304 72.0001C34.8073 72.0265 42.0459 79.5483 41.9998 89.4215C41.9537 98.669 34.3462 106.046 24.8945 106C15.3308 105.954 7.98684 98.5438 8.00002 88.9604C8.01319 79.2519 15.4165 71.9672 25.2304 72.0001ZM24.934 101.396C31.5469 101.468 37.3892 95.6589 37.3958 89.0065C37.3958 82.4266 31.896 76.8215 25.2107 76.6107C18.5583 76.3999 12.8477 81.9853 12.6831 88.855C12.525 95.4943 18.2158 101.323 24.934 101.396Z" fill="#66C6EB"/>
<path d="M81.5003 109.998C72.4384 109.998 63.3831 109.998 54.3212 109.998C53.4497 109.998 52.5652 110.022 51.7199 109.888C50.6715 109.72 50.049 109.094 50.0032 108.115C49.9508 107.043 50.547 106.313 51.7199 106.11C52.5652 105.965 53.4563 106.006 54.3212 106.006C72.5302 106.006 90.7326 106.006 108.942 106.006C109.721 106.006 110.527 105.965 111.287 106.099C112.467 106.313 113.043 107.043 112.997 108.109C112.958 109.083 112.349 109.715 111.287 109.888C110.527 110.016 109.728 109.987 108.942 109.987C99.7945 109.993 90.6474 109.987 81.5003 109.987V109.998Z" fill="#66C6EB"/>
<path d="M97 82.9864C97 88.2329 97 93.4793 97 98.7257C97 100.411 96.8261 102.076 94.3768 101.997C92.1377 101.925 92 100.338 92 98.7586C92 88.2658 92 77.7729 92 67.2801C92 65.5883 92.1884 63.9361 94.6232 64.0019C96.8768 64.0677 97 65.6805 97 67.2472C97 72.4936 97 77.74 97 82.9864Z" fill="#66C6EB"/>
<path d="M104.993 85.2651C104.993 89.8405 104.993 94.4092 104.993 98.9846C104.993 100.508 104.71 101.931 102.649 101.997C100.428 102.07 100 100.653 100 98.9846C100.007 89.6617 100 80.3454 100 71.0225C100 69.3539 100.428 67.9237 102.649 68.0032C104.695 68.076 105.007 69.493 105 71.0225C105 75.77 105 80.5176 105 85.2651H104.993Z" fill="#66C6EB"/>
<path d="M22.7162 51.9855C18.8191 51.9855 14.9221 51.9855 11.0251 51.9855C9.4903 51.9855 8.06228 51.6884 8.00222 49.6304C7.93549 47.413 9.38353 47 11.0585 47C19.0327 47 27.0069 47 34.9745 47C36.5226 47 37.9306 47.3333 37.9973 49.3768C38.0707 51.6087 36.616 52 34.9478 52C30.8706 51.9928 26.8001 52 22.7228 52L22.7162 51.9855Z" fill="#66C6EB"/>
<path d="M113 87.6419C113 91.4105 113 95.1791 113 98.9476C113 100.522 112.797 102.013 110.994 102C109.203 101.987 109 100.49 109 98.9218C109 91.3008 109.006 83.6733 109 76.0523C109 74.4713 109.232 72.9936 111.017 73C112.826 73 112.994 74.5229 112.994 76.0781C112.994 79.9306 112.994 83.7895 112.994 87.6419H113Z" fill="#66C6EB"/>
<path d="M19.0175 59.9974C16.298 59.9974 13.5784 60.0032 10.8657 59.9974C9.21207 59.9974 7.93429 59.5206 8.00262 57.9041C8.06412 56.4271 9.29407 56.0026 10.8247 56.0026C16.2638 56.0026 21.6961 55.9968 27.1352 56.0026C28.7957 56.0026 30.0529 56.4852 29.9983 58.1018C29.9436 59.5904 28.7068 59.9974 27.1831 59.9974C24.4635 59.9974 21.7439 59.9974 19.0312 59.9974H19.0175Z" fill="#66C6EB"/>
<path d="M59.0002 91.4352C59.0002 89.0128 59.0002 86.5839 59.0002 84.1615C59.0002 82.588 59.1627 81.0536 60.9566 81.0013C62.7562 80.9491 63 82.4378 63 84.0375C63 88.9737 63 93.9098 63 98.846C63 100.413 62.8723 101.974 61.0611 102C59.1047 102.026 58.9944 100.367 59.0002 98.7089C59.006 96.2865 59.0002 93.8576 59.0002 91.4352Z" fill="#66C6EB"/>
<path d="M72 91.7542C72 94.2659 72 96.7711 72 99.2829C72 100.731 71.5189 101.932 69.6531 101.997C67.6414 102.069 67 100.888 67 99.2959C67 94.1028 67 88.9162 67 83.7231C67 82.1377 67.6268 80.9373 69.6385 81.0025C71.4971 81.0678 72 82.2617 72 83.71C72 86.3914 72 89.0728 72 91.7542Z" fill="#66C6EB"/>
<path d="M87.9974 91.5033C87.9974 94.0988 87.9974 96.6944 87.9974 99.29C87.9974 100.875 87.5021 102.075 85.8822 101.996C84.3904 101.931 84 100.744 84 99.29C84 94.0988 84 88.9077 84 83.7166C84 82.2688 84.3904 81.0753 85.8822 81.0036C87.5021 80.9253 87.9916 82.1318 87.9974 83.71C88.0032 86.3056 87.9974 88.9012 87.9974 91.4967V91.5033Z" fill="#66C6EB"/>
<path d="M79.9935 93.5465C79.9935 95.5559 80.0154 97.5653 79.9789 99.5682C79.9571 100.971 79.2721 101.966 77.5963 101.999C75.7746 102.032 75.0169 101.004 75.0096 99.4825C74.995 95.4636 74.995 91.4514 75.0241 87.4325C75.0387 86.0292 75.7455 85.041 77.4141 85.0014C79.2649 84.9553 79.9644 86.016 79.9862 87.5248C80.0154 89.5342 79.9862 91.5436 79.9862 93.5465H79.9935Z" fill="#66C6EB"/>
<path d="M54.978 95.7336C54.978 97.0641 55.0361 98.3879 54.9635 99.7183C54.8908 101.169 54.048 102.045 52.3986 101.998C50.9019 101.958 50.0809 101.109 50.0518 99.7852C49.9864 96.9571 49.9791 94.1223 50.0518 91.2875C50.0881 89.8367 50.9746 88.9675 52.6166 89.0009C54.1279 89.0344 54.8835 89.9035 54.9489 91.2206C55.0216 92.7249 54.9635 94.2293 54.9635 95.7336C54.9635 95.7336 54.9707 95.7336 54.978 95.7336Z" fill="#66C6EB"/>
</svg>
