<svg width="140" height="140" viewBox="0 0 140 140" fill="none" xmlns="http://www.w3.org/2000/svg">
<g clip-path="url(#clip0_1013_8387)">
<path d="M0.00137478 59.2469C1.3586 51.3623 3.28618 43.6415 7.06739 36.5226C18.1681 15.6203 35.3103 2.93528 58.9271 0.395107C78.1131 -1.66978 95.1022 4.35588 109.292 17.6113C121.724 29.2243 128.521 43.689 130.543 60.4827C130.68 61.6445 130.612 62.3469 132.286 62.1357C134.351 61.8769 135.502 63.7516 134.478 65.6739C133.247 67.9818 131.784 70.1998 130.189 72.2752C129.001 73.8173 127.385 73.7645 126.223 72.1432C124.745 70.0836 123.335 67.9501 122.109 65.732C121.18 64.0527 121.713 62.2782 123.667 62.1357C125.959 61.9667 125.685 60.7151 125.495 59.342C123.842 47.5389 119.464 36.8712 111.954 27.5819C101.867 15.0975 88.8547 7.45585 72.943 5.41737C55.8377 3.22574 40.396 7.74102 27.1776 18.8787C13.1881 30.6713 5.86332 45.8806 4.73846 64.1636C2.92179 93.7532 21.9388 121.098 50.3666 128.492C82.7499 136.915 115.286 117.238 123.884 84.2685C124.391 82.3198 124.459 79.4363 127.528 80.3605C130.332 81.2055 129.054 83.6981 128.515 85.5201C120.731 111.983 103.626 128.555 76.4549 134.37C75.3458 134.607 74.2315 134.787 73.1172 134.998H57.3375C57.0101 134.892 56.6827 134.745 56.3447 134.686C31.8882 130.504 14.9731 116.736 4.96026 94.2232C2.38312 88.4352 1.15264 82.2669 -0.00390625 76.0829V59.2469H0.00137478Z" fill="#66C6EB"/>
<path d="M38.754 25.9761C40.2803 25.955 41.7008 26.388 43.0422 27.064C46.2637 28.6906 51.2542 26.6627 52.3949 23.2458C53.7205 19.2798 56.7043 17.0459 60.8182 16.9984C63.7967 16.9667 66.7752 16.9667 69.759 16.9984C73.9257 17.0406 76.862 19.2111 78.2192 23.1877C79.4074 26.6732 84.3557 28.7275 87.5508 27.0693C91.0204 25.2632 94.8175 25.6434 97.8171 28.3473C100.157 30.4544 102.396 32.6936 104.513 35.0278C107.518 38.3443 107.825 41.9513 105.533 45.9015C104.899 46.9946 104.841 47.8449 105.311 49.0542C106.473 52.0222 107.661 54.4462 111.268 55.5129C114.32 56.4107 115.947 59.347 115.989 62.7532C116.031 65.906 116.037 69.0641 116 72.2168C115.947 76.2199 113.755 79.1931 109.948 80.5186C106.288 81.7966 104.255 86.6605 105.971 90.0298C107.719 93.4572 107.281 97.2542 104.545 100.28C102.433 102.614 100.199 104.864 97.8488 106.961C94.6326 109.834 90.9095 110.145 87.1811 107.932C85.9876 107.225 85.074 107.204 83.7907 107.721C80.9178 108.888 78.5677 110.061 77.501 113.562C76.5398 116.715 73.5402 118.341 70.0283 118.352C67.0498 118.363 64.0713 118.368 61.0875 118.352C56.6726 118.326 53.6782 116.092 52.3157 111.851C51.3387 108.809 46.0577 106.649 43.2799 108.16C39.6993 110.103 35.9128 109.77 32.797 106.966C30.3942 104.801 28.0864 102.498 25.9264 100.085C23.1803 97.0113 22.7948 93.1086 24.96 89.6178C25.8472 88.1867 25.6518 87.1569 25.0973 85.7627C24.0094 83.043 22.9004 80.8777 19.5575 79.9219C16.373 79.0135 14.6937 76.0509 14.6514 72.539C14.6144 69.4707 14.6197 66.4024 14.6461 63.3394C14.6831 59.0459 16.8906 56.0727 20.9939 54.7261C24.2312 53.6646 26.333 48.5367 24.7751 45.5424C23.0324 42.1942 23.138 38.8513 25.4511 35.8992C27.8276 32.8679 30.6212 30.1745 33.6103 27.74C35.052 26.5623 36.837 25.992 38.7435 25.9867L38.754 25.9761ZM101.984 41.1591C102.105 40.2508 101.825 39.3319 101.112 38.6084C98.8997 36.3586 96.7134 34.0772 94.3897 31.949C93.0483 30.7185 91.1788 30.3964 89.7794 31.5687C86.9065 33.9822 84.1867 33.4013 81.2875 31.8117C80.2946 31.2677 79.212 30.8452 78.1241 30.5389C75.5734 29.826 73.9838 28.2839 73.7145 25.6065C73.4398 22.8814 71.639 21.8094 69.2731 21.6404C66.659 21.4556 64.0079 21.4873 61.3885 21.6404C59.4979 21.7566 57.4383 22.4009 57.206 24.5608C56.7835 28.4424 54.5021 30.201 51.043 31.0776C50.0343 31.3311 49.0468 31.7853 48.1437 32.3028C45.7408 33.6706 43.5703 33.5544 41.3259 31.8328C39.5092 30.4439 37.5341 30.5812 35.8442 32.2289C33.774 34.2462 31.725 36.2953 29.7235 38.3813C28.3398 39.823 28.0388 41.7136 29.2271 43.1923C31.5507 46.081 31.1282 48.7743 29.4753 51.6948C28.8363 52.8249 28.456 54.1135 28.0388 55.3598C27.3048 57.5725 25.8102 58.7925 23.5341 59.2677C20.3496 59.9384 19.3885 61.0633 19.2512 64.2425C19.1508 66.6031 19.1297 68.9796 19.267 71.3402C19.3832 73.3311 19.9536 75.528 22.2138 75.7815C26.1112 76.2199 27.8329 78.4854 28.7254 81.9339C29.0052 83.0218 29.5967 84.0358 30.1195 85.0445C31.2814 87.2836 31.2444 89.3591 29.6231 91.4134C28.0969 93.3463 28.2501 95.3636 29.9083 97.1275C31.8834 99.2399 33.9536 101.263 36.0396 103.264C37.4813 104.642 39.3772 104.949 40.8506 103.75C43.7393 101.395 46.4327 101.843 49.3372 103.518C50.3142 104.083 51.4179 104.468 52.5058 104.774C55.0513 105.493 56.6462 107.045 56.9313 109.707C57.2218 112.416 58.9698 113.525 61.3568 113.689C63.9762 113.863 66.622 113.853 69.2414 113.689C71.2429 113.562 73.255 112.839 73.5138 110.52C73.9046 107.014 75.8797 105.276 79.0853 104.421C80.3422 104.083 81.5357 103.465 82.6975 102.857C84.9419 101.68 87.0015 101.717 89.0611 103.333C91.1049 104.938 93.1487 104.669 94.9759 102.905C96.9299 101.014 98.8522 99.092 100.732 97.1328C102.148 95.6541 102.723 93.7212 101.424 92.1158C99.1585 89.3221 99.5176 86.7186 101.102 83.8721C101.736 82.7367 102.153 81.4586 102.538 80.207C103.251 77.8834 104.714 76.5473 107.128 76.0614C110.286 75.4224 111.284 74.2342 111.405 71.0814C111.495 68.7208 111.516 66.3443 111.384 63.9837C111.273 61.9822 110.698 59.8064 108.432 59.5476C104.55 59.0988 102.824 56.8332 101.905 53.39C101.551 52.0486 100.864 50.7864 100.257 49.5295C99.3644 47.6917 99.5123 45.9754 100.716 44.3436C101.398 43.4194 102.084 42.5005 101.984 41.1485V41.1591Z" fill="#66C6EB"/>
<path d="M65.4076 42.767C79.2228 42.7776 90.2549 53.6935 90.2443 67.3502C90.2337 82.0103 79.5344 92.5935 64.7369 92.5724C51.2122 92.5566 40.4178 81.403 40.4336 67.4611C40.4495 53.572 51.3865 42.7564 65.4076 42.7617V42.767ZM85.5547 67.7199C85.6498 56.7248 76.3182 47.3985 65.2597 47.446C54.3069 47.4935 45.1284 56.6825 45.1179 67.609C45.1073 78.5988 54.0006 87.8406 65.1488 87.8195C76.276 87.8036 85.0425 79.7606 85.5547 67.7146V67.7199Z" fill="#66C6EB"/>
<path d="M61.4276 76.2095C60.7886 76.2148 60.1971 76.0194 59.7535 75.5652C58.2273 73.9968 56.6535 72.4653 55.2435 70.7965C54.3616 69.7561 54.3457 68.4623 55.3914 67.4747C56.4476 66.4819 57.6094 66.7195 58.7237 67.5539C62.0032 70.0096 62.0191 70.0149 64.8339 67.1156C67.0308 64.8553 69.1801 62.5422 71.3823 60.2819C72.5283 59.1043 73.9384 58.4336 75.3009 59.7274C76.6686 61.0266 76.0666 62.4736 74.9259 63.6565C71.2186 67.5064 67.4797 71.3299 63.746 75.1481C63.1228 75.7871 62.394 76.2676 61.4329 76.2043L61.4276 76.2095Z" fill="#66C6EB"/>
</g>
<defs>
<clipPath id="clip0_1013_8387">
<rect width="139.858" height="140" fill="white"/>
</clipPath>
</defs>
</svg>
