<svg width="140" height="140" viewBox="0 0 140 140" fill="none" xmlns="http://www.w3.org/2000/svg">
<g clip-path="url(#clip0_1013_8378)">
<path d="M54.2924 0.00910845C60.8514 0.00417314 67.4129 -0.0131005 73.9719 0.00910845C78.8307 0.026382 81.7796 2.63223 81.328 7.46143C80.6988 14.2228 82.774 19.0002 87.702 24.0786C101.412 38.2035 103.32 59.5709 93.4516 76.6323C92.2795 78.6582 92.2474 79.9241 94.0932 81.3505C95.1962 82.2018 96.0969 83.3172 97.0865 84.3141C98.1475 85.3801 99.0236 86.5992 100.8 85.0914C102.022 84.055 102.797 85.5553 103.525 86.2808C112.823 95.5345 122.094 104.818 131.37 114.096C133.092 115.819 134.876 117.487 136.515 119.286C141.183 124.409 141.114 131.93 136.426 136.525C131.792 141.065 124.28 141.255 119.414 136.49C108.097 125.413 96.9754 114.138 85.7821 102.935C85.1973 102.35 84.3188 101.62 85.0887 100.798C86.6359 99.1447 85.5329 98.2021 84.4274 97.0768C79.7216 92.2945 79.7462 92.3093 73.7474 95.0213C71.8744 95.8677 69.9225 96.5413 67.9879 97.2471C66.9268 97.6345 66.5467 98.0442 67.0773 99.2952C68.6763 103.061 68.0199 107.056 67.6917 110.93C67.5042 113.156 65.8484 114.795 63.6966 115.651C61.5942 116.487 60.8465 117.625 61.799 119.979C63.0205 122.997 62.411 125.862 59.9655 128.206C58.8156 129.307 57.6731 130.422 56.5922 131.592C54.0653 134.326 51.0375 135.002 47.6618 133.61C45.6852 132.794 44.6364 133.502 43.9134 135.232C42.5093 138.595 39.9479 140.036 36.3624 139.886C34.6794 139.814 32.9891 139.824 31.3037 139.873C27.9403 139.97 25.4998 138.59 24.1894 135.454C23.3504 133.443 22.2178 132.833 20.024 133.719C16.9987 134.938 14.1387 134.358 11.7771 131.95C10.7259 130.879 9.70428 129.776 8.5889 128.779C5.64992 126.153 4.86274 123.022 6.37048 119.399C7.0713 117.716 6.55309 116.653 5.00093 116.031C1.12178 114.476 -0.247773 111.527 0.0360075 107.535C0.14952 105.951 0.0705547 104.349 0.0656193 102.757C0.0557487 99.732 1.39815 97.4939 4.14959 96.2872C6.30632 95.3421 7.21935 94.3007 6.1558 91.7689C4.99846 89.0101 5.4994 86.2043 7.74003 83.9908C9.66727 82.0883 11.3058 79.8205 13.7266 78.5077C15.2787 77.6662 15.0196 76.8766 14.3459 75.6107C10.6691 68.7012 8.87515 61.3575 9.02074 53.4783C9.27491 39.8124 14.7704 28.6759 24.9322 19.7578C26.4103 18.4598 27.195 17.2309 27.084 15.2419C26.9384 12.6262 27.0322 9.99571 27.0593 7.37259C27.1136 2.63963 29.6454 0.0485909 34.334 0.0239144C40.9868 -0.0131005 47.6396 0.0140438 54.2948 0.0115761L54.2924 0.00910845ZM81.4292 39.3929C81.4292 43.8865 81.4539 47.6127 81.4218 51.3388C81.3798 56.2815 78.8949 58.8578 74.041 58.8701C60.8292 58.9022 47.6174 58.8997 34.4055 58.8701C29.6874 58.8602 27.1087 56.2741 27.0642 51.5905C27.0272 47.778 27.0568 43.963 27.0568 39.9901C26.0081 40.5478 25.8847 41.4287 25.5837 42.1567C22.2869 50.1568 22.2696 58.1915 25.5491 66.1842C27.9477 72.0326 28.0118 72.0054 34.3957 71.9906C34.8645 71.9906 35.3358 72.0153 35.7998 71.9808C39.6912 71.6822 42.5364 73.1109 44.0565 76.8593C44.666 78.3646 45.663 79.0629 47.3829 78.3276C51.1412 76.7187 54.3096 77.7033 56.987 80.6743C57.7397 81.5084 58.6157 82.2289 59.3634 83.0655C60.3406 84.1611 61.3671 84.4029 62.8576 84.0279C81.3033 79.3911 91.0876 56.8664 81.4292 39.3929ZM56.9624 89.4567C56.9747 86.5819 51.6594 82.5744 48.9351 83.3517C44.4242 84.6423 41.4507 83.4998 39.4568 79.3319C38.3908 77.1036 36.7128 76.768 34.6276 76.8741C32.3598 76.9901 29.9761 76.3732 28.5868 79.2184C26.4375 83.6256 23.7329 84.6867 18.9309 83.2654C17.2849 82.7792 16.0215 83.0161 14.8716 84.2549C13.9783 85.2148 13.0406 86.1352 12.088 87.0384C10.9381 88.1291 10.7358 89.2642 11.2811 90.8263C12.8752 95.3914 11.7179 98.3674 7.32546 100.497C4.63078 101.805 4.99353 104.011 4.93924 106.232C4.88742 108.354 4.95405 110.227 7.35508 111.372C11.5698 113.386 12.8703 116.404 11.3798 120.801C10.568 123.197 11.6562 124.552 13.1861 125.902C14.8592 127.38 16.0166 129.613 19.074 128.567C23.5528 127.034 26.4992 128.303 28.5202 132.522C29.7318 135.052 31.7355 135.01 33.9317 134.982C36.0835 134.958 38.1638 135.202 39.4099 132.648C41.5568 128.253 44.3156 127.153 49.0634 128.581C50.7118 129.077 51.9703 128.833 53.1227 127.597C54.1443 126.501 55.2399 125.475 56.2764 124.389C57.0487 123.582 57.2141 122.684 56.8957 121.551C55.2794 115.787 55.9654 114.165 61.1524 111.063C63.8002 109.479 63.9458 102.595 61.3671 100.899C55.7433 97.2027 55.5262 96.6943 56.8291 90.2291C56.8834 89.9527 56.9254 89.6763 56.9624 89.4518V89.4567ZM134.866 127.76C134.637 126.064 134.217 124.453 132.951 123.187C122.955 113.178 112.953 103.174 102.984 93.1384C101.861 92.0083 101.005 92.065 99.9391 93.1779C97.9304 95.2754 95.9341 97.3976 93.7601 99.3175C91.9611 100.907 92.1808 101.987 93.8193 103.594C101.38 111.002 108.82 118.536 116.309 126.015C118.696 128.399 121.02 130.852 123.525 133.105C125.669 135.034 128.253 135.296 130.859 134.065C133.477 132.826 134.669 130.585 134.866 127.76ZM54.5317 22.8917C47.985 22.8917 41.4383 22.9805 34.8941 22.8448C32.5054 22.7954 31.7676 23.6591 31.9058 25.9343C32.0612 28.4488 32.0094 30.9856 31.9206 33.5051C31.8589 35.2645 32.4339 36.0344 34.3142 36.027C47.5927 35.9752 60.8736 35.9727 74.1521 36.0245C76.0151 36.032 76.6321 35.3065 76.563 33.5248C76.4692 31.0966 76.405 28.6537 76.5852 26.2354C76.7727 23.7282 76.0151 22.7609 73.3279 22.8399C67.0674 23.0274 60.7996 22.8991 54.5317 22.8917ZM54.1295 18.0033C60.7798 18.0033 67.4302 17.9638 74.0805 18.0304C75.8745 18.0477 76.6444 17.4456 76.5654 15.5948C76.4618 13.1642 76.5259 10.7261 76.5334 8.29056C76.5408 6.13383 75.534 4.91481 73.3254 4.91481C60.5874 4.90494 47.8493 4.90741 35.1113 4.92468C33.0656 4.92715 31.9946 6.01291 31.9675 8.06107C31.9379 10.3091 32.081 12.567 31.9058 14.8027C31.7158 17.2087 32.4733 18.1217 35.0249 18.0551C41.389 17.8897 47.7629 18.0008 54.132 18.0057L54.1295 18.0033ZM54.4034 40.8957C47.7555 40.8957 41.1052 40.9302 34.4573 40.871C32.7078 40.8562 31.849 41.3744 31.928 43.2671C32.0292 45.6978 31.9551 48.1358 31.9477 50.5689C31.9403 52.7108 32.9274 53.9718 35.136 53.9743C47.8715 53.994 60.6071 53.9916 73.3402 53.9767C75.5512 53.9767 76.5457 52.7355 76.5383 50.5886C76.5309 48.2468 76.4272 45.9001 76.5679 43.5682C76.6962 41.4386 75.8276 40.8192 73.7868 40.8488C67.3265 40.945 60.8662 40.8834 54.4034 40.8932V40.8957ZM81.6759 25.2211C81.3946 28.2202 81.9573 30.6656 83.3638 32.5575C98.2092 52.548 89.1381 80.9704 65.4511 88.6893C64.738 88.9212 63.9656 89.0249 63.3116 89.3679C61.9643 90.0736 61.604 91.7072 61.8385 92.7387C62.1617 94.1576 63.5658 93.0817 64.4098 92.8596C86.3842 87.0878 99.1938 64.3779 92.6693 42.6773C90.6755 36.0443 87.2553 30.2354 81.6784 25.2211H81.6759ZM26.8125 25.5543C26.3462 25.7591 26.0451 25.806 25.8674 25.9812C12.0806 39.573 10.336 61.1576 21.248 76.8791C21.6601 77.4713 22.0327 78.7841 23.0716 78.0561C24.0537 77.3677 24.6682 76.1634 24.2807 74.858C24.0759 74.1646 23.5404 73.5699 23.1555 72.9283C15.5428 60.2767 16.2732 44.3183 25.211 32.5624C26.8422 30.4156 27.3949 28.3501 26.8125 25.5518V25.5543ZM89.0024 83.9366C88.6964 84.0377 88.4694 84.0427 88.3559 84.1586C86.9222 85.622 85.0764 86.8953 84.23 88.6498C83.6427 89.8663 85.7772 90.7053 86.5965 91.7936C86.9296 92.2377 87.4453 92.5511 87.7661 93.0027C89.5058 95.4506 90.9864 95.004 92.8298 92.941C95.3887 90.0761 95.5146 90.1847 92.8298 87.4949C91.9044 86.5671 90.9765 85.6368 90.0314 84.7311C89.7032 84.4177 89.3109 84.1685 89.0073 83.9366H89.0024Z" fill="#66C6EB"/>
<path d="M33.9089 85.4864C45.4847 85.4592 54.4176 94.3181 54.43 105.837C54.4423 117.428 45.5908 126.358 34.0841 126.366C22.4886 126.373 13.5508 117.514 13.5508 106.017C13.5508 94.4168 22.3801 85.5135 33.9089 85.4864ZM49.4206 105.864C49.2874 97.4619 42.1879 90.4143 33.9361 90.4933C25.6472 90.5722 18.4614 97.8247 18.5601 106.012C18.6588 114.358 25.7805 121.411 34.0619 121.364C42.3829 121.317 49.5514 114.079 49.4231 105.862L49.4206 105.864Z" fill="#66C6EB"/>
<path d="M44.5736 100.996C44.1861 101.489 43.8333 102.039 43.3842 102.491C39.3594 106.54 35.273 110.528 31.3075 114.634C29.9157 116.075 28.8719 116.019 27.6331 114.565C26.8459 113.642 25.886 112.867 25.0865 111.952C24.245 110.99 22.5497 110.202 24.1636 108.542C25.4073 107.266 26.5103 105.615 28.4154 107.809C29.5233 109.085 30.4018 108.051 31.2038 107.251C34.123 104.347 37.0275 101.43 39.9566 98.5353C40.5464 97.9504 41.2126 97.2077 42.1183 97.9504C43.1053 98.7623 44.233 99.5051 44.5711 100.996H44.5736Z" fill="#66C6EB"/>
</g>
<defs>
<clipPath id="clip0_1013_8378">
<rect width="139.983" height="140" fill="white"/>
</clipPath>
</defs>
</svg>
