<svg width="141" height="140" viewBox="0 0 141 140" fill="none" xmlns="http://www.w3.org/2000/svg">
<g clip-path="url(#clip0_935_6082)">
<path d="M73.2974 140C70.864 138.24 68.4252 136.491 66.0028 134.721C63.8706 133.161 63.8487 131.568 65.9563 130.036C68.2008 128.402 70.4562 126.785 72.7362 125.206C74.0692 124.281 75.4433 124.45 76.2507 125.54C77.039 126.601 76.7462 127.948 75.498 128.996C75.2626 129.193 75.0218 129.385 74.5373 129.779C76.6285 129.847 78.3939 129.486 80.1485 129.209C104.911 125.313 124.999 105.653 129.464 80.9473C129.644 79.9457 129.94 79.5982 130.975 79.9785C131.64 80.2221 132.417 80.3754 133.11 80.2878C134.218 80.151 134.358 80.5724 134.185 81.5083C133.274 86.4451 131.911 91.2587 129.82 95.8205C120.847 115.392 105.894 127.808 85.0014 133.054C81.5143 133.93 77.9478 134.316 74.2143 134.661C75.0327 135.569 76.2562 135.958 76.5847 137.126C76.9268 138.344 76.3575 139.236 75.4789 139.997H73.2946L73.2974 140Z" fill="#66C6EB"/>
<path d="M140.5 67.35C138.74 69.7829 136.983 72.2184 135.217 74.643C133.665 76.7748 132.059 76.7967 130.526 74.6895C128.974 72.555 127.444 70.4068 125.925 68.2476C124.8 66.6495 124.854 65.2538 126.031 64.3918C127.178 63.5517 128.495 63.9375 129.732 65.4782C129.842 65.6123 129.962 65.7355 130.285 66.0912C130.312 63.9841 129.981 62.1697 129.675 60.3773C127.468 47.4662 121.726 36.3557 112.357 27.2046C103.732 18.7815 93.4237 13.4671 81.5718 11.2149C80.455 11.0014 80.0445 10.7004 80.5043 9.54829C80.7315 8.97635 80.8355 8.27853 80.7479 7.67375C80.5673 6.43134 81.0682 6.28631 82.1274 6.48608C91.1929 8.19643 99.585 11.5679 107.145 16.8577C121.824 27.1307 130.786 41.1529 134.188 58.7189C134.67 61.2065 134.875 63.7487 135.223 66.3786C136.082 65.6123 136.46 64.3863 137.637 64.0607C138.858 63.7241 139.745 64.2933 140.508 65.169V67.3528L140.5 67.35Z" fill="#66C6EB"/>
<path d="M70.6697 95.3032C64.4783 95.3032 58.2868 95.3169 52.0954 95.3005C48.069 95.2895 45.3456 92.5502 45.3428 88.5192C45.3346 76.2293 45.3346 63.9394 45.3428 51.6495C45.3428 47.613 48.0745 44.8683 52.0927 44.8655C64.4317 44.8573 76.7681 44.8573 89.1072 44.8655C93.0378 44.8683 95.7859 47.6213 95.7913 51.5783C95.805 63.9586 95.8023 76.3388 95.7913 88.7217C95.7886 92.479 92.9912 95.2868 89.2495 95.2977C83.0581 95.3169 76.8666 95.3032 70.6752 95.3032H70.6697ZM77.1896 83.6482C80.9094 83.7138 84.2186 80.3752 84.1256 76.7465C84.1092 76.1007 84.1064 75.5808 84.6812 75.0553C87.5771 72.4145 87.5963 67.7952 84.7524 65.1325C84.2761 64.6865 84.0873 64.2705 84.1064 63.6083C84.2132 59.6813 80.9833 56.4221 77.0911 56.537C76.3904 56.5561 75.936 56.3865 75.4543 55.8501C73.0073 53.1108 68.1734 53.0917 65.7182 55.8145C65.2009 56.3892 64.7109 56.5671 63.961 56.5397C60.2193 56.4084 56.8854 59.7087 57.0223 63.414C57.0524 64.2158 56.8471 64.733 56.2422 65.2803C53.5707 67.694 53.5871 72.5322 56.286 74.9158C56.9237 75.4795 57.036 76.035 57.0141 76.8067C56.9128 80.3506 60.2384 83.7412 63.7502 83.629C64.6589 83.5989 65.2365 83.8589 65.8578 84.5156C68.2419 87.0388 72.9963 87.0059 75.3229 84.4554C75.9032 83.8178 76.4451 83.4265 77.1924 83.6509L77.1896 83.6482Z" fill="black"/>
<path d="M11.0819 74.3036C11.008 77.6395 11.4788 80.8686 12.3163 84.0239C17.8399 104.833 30.6991 119.049 50.8555 126.629C53.7514 127.719 56.754 128.485 59.8114 128.983C60.7831 129.142 61.0432 129.495 60.6928 130.442C60.4273 131.156 60.274 131.947 60.3835 132.718C60.5642 133.963 59.8306 133.816 59.0478 133.668C54.6984 132.855 50.4422 131.7 46.3665 129.976C28.1152 122.256 15.7159 109.022 9.20419 90.3098C7.35661 85.0036 6.42598 79.4949 5.97982 73.6523C5.44334 74.3228 5.06014 74.8591 4.61946 75.3408C3.72714 76.3122 2.37225 76.4737 1.42793 75.7567C0.458981 75.0233 0.168842 73.6742 0.92156 72.5796C2.69797 69.9908 4.5045 67.4211 6.40134 64.9199C7.43872 63.5516 9.0947 63.5462 10.1403 64.9117C12.0481 67.4047 13.8628 69.9662 15.6447 72.5522C16.3947 73.6414 16.0936 75.0124 15.1356 75.7403C14.1502 76.4901 12.7817 76.2931 11.8455 75.2505C11.5746 74.9494 11.3364 74.621 11.0819 74.3036Z" fill="#66C6EB"/>
<path d="M67.0266 5.5205C66.2574 4.91025 65.6908 4.52439 65.2036 4.05644C64.2976 3.18348 64.1854 2.14085 64.8232 1.08179C65.4281 0.0774746 66.8049 -0.34943 67.8231 0.337448C70.5739 2.19284 73.2892 4.11391 75.9196 6.1335C77.0829 7.02562 77.0309 8.66482 75.8293 9.58157C73.2645 11.541 70.6232 13.4073 67.9545 15.2216C66.8842 15.9496 65.4965 15.5528 64.815 14.543C64.1662 13.5824 64.3524 12.3455 65.294 11.4643C65.6224 11.1578 65.9865 10.8869 66.4928 10.471C65.0668 10.1727 63.8214 10.5366 62.6252 10.709C48.9778 12.6821 37.2244 18.4946 27.5951 28.3927C19.1866 37.0375 13.8929 47.3489 11.6649 59.2092C11.487 60.1588 11.2735 60.6322 10.1841 60.208C9.48063 59.9344 8.70054 59.7264 7.91498 59.8824C6.82559 60.0959 6.80643 59.5212 6.9515 58.7057C7.80823 53.8948 9.16039 49.2262 11.1257 44.7574C18.2122 28.6418 29.8971 17.1482 46.1065 10.2986C52.6921 7.51546 59.6171 6.04593 67.032 5.52324L67.0266 5.5205Z" fill="#66C6EB"/>
<path d="M36.1377 54.7007C37.457 54.7007 38.7763 54.7144 40.0956 54.6953C40.8456 54.6843 41.1604 55.01 41.1522 55.757C41.1139 59.9303 41.7024 59.3912 37.8649 59.3939C36.0009 59.3939 34.1314 59.5445 32.2756 59.2927C30.6716 59.0765 29.9408 58.2336 30.0475 56.7723C30.1433 55.4615 31.0275 54.7254 32.5876 54.698C33.7701 54.6761 34.9525 54.6953 36.1377 54.6953C36.1377 54.6953 36.1377 54.698 36.1377 54.7007Z" fill="black"/>
<path d="M36.3157 68.2099C34.9088 68.1442 33.4937 68.1442 32.095 67.9964C30.6717 67.8459 29.9847 66.9675 30.0421 65.6046C30.0969 64.3102 30.9481 63.4701 32.3633 63.451C34.9115 63.4154 37.4598 63.4564 40.0054 63.4318C40.7992 63.4236 41.1687 63.7109 41.155 64.5429C41.092 68.6915 41.7134 68.0812 37.8157 68.1442C37.3148 68.1524 36.8139 68.1442 36.313 68.1442C36.313 68.1661 36.313 68.1852 36.313 68.2071L36.3157 68.2099Z" fill="black"/>
<path d="M36.2801 76.8887C34.9554 76.823 33.4965 77.0118 32.0512 76.7464C30.6525 76.4919 29.9628 75.6517 30.0422 74.2944C30.1161 73.063 30.9509 72.2092 32.2729 72.1873C34.865 72.1462 37.4599 72.1927 40.0519 72.1681C40.8868 72.1599 41.1714 72.5375 41.1577 73.3257C41.0948 77.3566 41.738 76.8367 37.7719 76.8832C37.3175 76.8887 36.8632 76.8832 36.2774 76.8832L36.2801 76.8887Z" fill="black"/>
<path d="M105.037 72.1796C106.31 72.1796 107.586 72.1441 108.858 72.1879C110.181 72.2344 111.01 73.0608 111.084 74.2977C111.166 75.6688 110.487 76.5718 109.08 76.7333C106.362 77.048 103.628 76.8674 100.899 76.8455C100.59 76.8455 100.163 76.8044 100.1 76.4487C99.8751 75.1461 99.8614 73.8243 100.121 72.5299C100.204 72.1277 100.718 72.1879 101.074 72.1851C102.393 72.1742 103.713 72.1796 105.032 72.1796H105.037Z" fill="black"/>
<path d="M36.2774 80.918C37.5529 80.918 38.8257 80.9344 40.1012 80.9125C40.8539 80.8988 41.1632 81.2354 41.155 81.9798C41.1084 86.2132 41.7161 85.5811 37.8704 85.6139C35.9626 85.6303 34.0466 85.7672 32.1443 85.4935C30.6498 85.2773 29.9463 84.4153 30.0503 82.995C30.1407 81.728 31.0138 80.9563 32.4563 80.9262C33.7291 80.8988 35.0046 80.9207 36.2801 80.9207L36.2774 80.918Z" fill="black"/>
<path d="M104.61 59.3995C103.518 59.3995 102.429 59.3804 101.337 59.405C100.401 59.4241 99.9326 59.1176 99.9572 58.0668C100.05 54.0413 99.4837 54.7692 103.223 54.7008C105.04 54.668 106.86 54.6762 108.678 54.7063C110.115 54.7282 110.988 55.5109 111.078 56.7751C111.177 58.1489 110.427 59.1368 108.962 59.2545C107.52 59.3721 106.058 59.2791 104.608 59.2791C104.608 59.3202 104.608 59.3585 104.608 59.3995H104.61Z" fill="black"/>
<path d="M105.12 63.4386C106.346 63.4386 107.575 63.4085 108.801 63.4468C110.145 63.4906 110.991 64.2842 111.081 65.4965C111.18 66.8292 110.473 67.8116 109.116 67.984C106.401 68.3288 103.633 68.3726 100.956 68.0305C98.9528 67.7733 100.327 65.7893 100.004 64.629C99.7766 63.8053 100.283 63.4003 101.164 63.4249C102.481 63.4632 103.8 63.4358 105.12 63.4358V63.4413V63.4386Z" fill="black"/>
<path d="M104.991 80.9205C106.264 80.9205 107.539 80.8904 108.809 80.9315C110.148 80.9725 110.991 81.7716 111.081 82.9921C111.177 84.3193 110.462 85.299 109.105 85.4714C106.39 85.819 103.62 85.8573 100.943 85.5152C98.961 85.2635 100.324 83.2685 100.007 82.1C99.7766 81.2626 100.297 80.8822 101.173 80.9096C102.445 80.9479 103.718 80.9205 104.991 80.9205Z" fill="black"/>
<path d="M77.2088 104.589C77.2088 105.861 77.2416 107.131 77.2006 108.403C77.1568 109.783 76.2864 110.631 74.9835 110.65C73.6259 110.669 72.687 109.794 72.6679 108.36C72.6323 105.771 72.6761 103.185 72.6542 100.596C72.646 99.7668 73.0073 99.4767 73.801 99.485C77.9369 99.5287 77.1212 99.0197 77.2143 102.684C77.2307 103.319 77.2143 103.957 77.2143 104.591H77.2088V104.589Z" fill="black"/>
<path d="M68.4717 104.521C68.4717 105.747 68.4909 106.97 68.4635 108.196C68.4307 109.718 67.5165 110.665 66.1506 110.648C64.8067 110.632 63.9418 109.753 63.9253 108.273C63.8952 105.777 63.9472 103.281 63.8952 100.788C63.8733 99.7621 64.2948 99.4474 65.2665 99.472C69.0219 99.5651 68.4088 99.0096 68.469 102.616C68.48 103.251 68.469 103.886 68.469 104.521H68.4717Z" fill="black"/>
<path d="M81.4021 104.356C81.4021 103.086 81.4212 101.814 81.3966 100.544C81.3829 99.8024 81.7031 99.5315 82.4449 99.474C85.9567 99.2113 85.9539 99.1921 85.9539 102.717C85.9539 104.531 85.9704 106.346 85.9457 108.16C85.9238 109.69 85.0233 110.645 83.6657 110.645C82.2725 110.645 81.4322 109.742 81.4021 108.165C81.3802 106.896 81.3966 105.626 81.4021 104.353V104.356Z" fill="black"/>
<path d="M59.7294 104.595C59.7294 105.818 59.7512 107.044 59.7211 108.267C59.6856 109.701 58.785 110.632 57.4794 110.648C56.1492 110.664 55.2076 109.761 55.1884 108.333C55.1528 105.793 55.1966 103.254 55.1692 100.714C55.161 99.8714 55.4293 99.4691 56.3353 99.4828C60.4602 99.5402 59.639 99.0258 59.7321 102.693C59.7485 103.328 59.7321 103.963 59.7321 104.597L59.7294 104.595Z" fill="black"/>
<path d="M55.1801 35.6085C55.1801 34.3359 55.1445 33.0634 55.1911 31.7909C55.2403 30.4199 56.1272 29.5825 57.4383 29.5743C58.7521 29.5634 59.6882 30.3953 59.7129 31.7581C59.7594 34.3469 59.7101 36.9384 59.743 39.5272C59.7539 40.4412 59.3297 40.7012 58.4948 40.6875C54.5478 40.6136 55.2458 41.1582 55.1774 37.5186C55.1664 36.8837 55.1774 36.2461 55.1774 35.6112H55.1829L55.1801 35.6085Z" fill="black"/>
<path d="M68.4717 35.7499C68.4717 36.9759 68.4443 38.2046 68.4799 39.4306C68.5018 40.257 68.2582 40.6976 67.3303 40.684C63.1781 40.6265 63.9992 41.141 63.9226 37.4794C63.8842 35.6624 63.8979 33.8453 63.9226 32.0282C63.9445 30.4629 64.8067 29.568 66.2163 29.5762C67.615 29.5872 68.4416 30.4848 68.469 32.0692C68.4881 33.2952 68.4717 34.5239 68.4717 35.7499Z" fill="black"/>
<path d="M72.6596 35.6183C72.6596 34.3458 72.624 33.0733 72.6678 31.8008C72.7144 30.438 73.6094 29.5842 74.9068 29.5705C76.2179 29.5568 77.1677 30.3914 77.1924 31.746C77.2416 34.3814 77.206 37.0167 77.2033 39.652C77.2033 39.7888 77.2307 39.9612 77.1622 40.0543C76.1933 41.3487 74.8329 40.4456 73.6642 40.6536C72.895 40.7904 72.6459 40.2841 72.6569 39.5726C72.6761 38.2563 72.6624 36.9373 72.6596 35.621V35.6183Z" fill="black"/>
<path d="M85.9567 35.5485C85.9567 36.6842 85.9567 37.8198 85.9567 38.9582C85.9567 39.2319 86.0032 39.5165 85.9348 39.7737C85.4722 41.5416 84.0571 40.4305 83.0991 40.633C82.4613 40.7699 81.4157 41.0107 81.4103 39.7272C81.3993 37.0016 81.3692 34.2732 81.4349 31.5476C81.4623 30.3654 82.4367 29.591 83.6328 29.5746C84.8974 29.5554 85.8581 30.3435 85.9266 31.5941C85.9977 32.9077 85.943 34.2295 85.943 35.5457C85.9485 35.5457 85.9539 35.5457 85.9567 35.5457V35.5485Z" fill="black"/>
<path d="M42.2663 95.125C43.5746 95.1797 44.4834 96.2087 44.4232 97.5715C44.3657 98.8659 43.4296 99.7389 42.1212 99.717C40.7964 99.6951 39.8466 98.6908 39.8795 97.3471C39.9151 96.0226 40.936 95.0703 42.2663 95.1277V95.125Z" fill="black"/>
<path d="M99.043 45.0391C97.6963 45.061 96.7164 44.1114 96.711 42.7787C96.7055 41.498 97.617 40.5484 98.8897 40.5019C100.242 40.4526 101.257 41.3803 101.293 42.6939C101.329 44.0238 100.373 45.0199 99.0403 45.0418L99.043 45.0391Z" fill="black"/>
<path d="M99.0267 99.7011C97.6882 99.7066 96.6946 98.7242 96.7138 97.4106C96.7329 96.0971 97.7429 95.1146 99.0622 95.1311C100.319 95.1475 101.257 96.0998 101.282 97.375C101.307 98.7461 100.39 99.6929 99.0267 99.6984V99.7011Z" fill="black"/>
<path d="M42.1102 40.4965C43.4733 40.4746 44.434 41.4269 44.4258 42.7952C44.4203 44.1087 43.5116 45.0255 42.2005 45.0419C40.8812 45.0583 39.9287 44.1717 39.8794 42.8855C39.8274 41.5117 40.7526 40.5211 42.1074 40.4992L42.1102 40.4965Z" fill="black"/>
<path d="M80.1211 62.8861C80.0964 63.4525 79.8474 63.822 79.5627 64.1887C78.4541 65.6062 79.2452 67.6285 81.0353 67.8475C82.4969 68.0253 82.694 68.9366 82.7022 70.1653C82.7077 71.3995 82.3573 72.1658 81.0134 72.319C79.2616 72.5215 78.4514 74.5958 79.5901 75.9915C80.4906 77.0943 80.0116 77.866 79.1822 78.6925C78.3556 79.5189 77.581 79.9978 76.4779 79.1057C75.0245 77.9317 73.0729 78.7664 72.7882 80.6628C72.5966 81.9463 71.8001 82.2226 70.6505 82.2144C69.5036 82.2062 68.5703 82.0831 68.3486 80.6902C68.0283 78.6952 66.1725 77.9454 64.5713 79.1714C63.4135 80.0608 62.6772 79.3985 61.8807 78.6159C61.0759 77.8222 60.6763 77.0642 61.5111 76.0189C62.6936 74.5411 61.8944 72.5626 60.0221 72.3081C58.6399 72.122 58.4373 71.2408 58.4318 70.0641C58.4264 68.8682 58.6837 68.0281 60.055 67.8557C61.8287 67.6313 62.7018 65.5734 61.5823 64.227C60.69 63.157 61.0458 62.3743 61.8998 61.5205C62.7648 60.6585 63.5558 60.1413 64.7081 61.0991C66.0576 62.2183 68.1104 61.3481 68.3376 59.5748C68.5128 58.2038 69.3504 57.9438 70.5492 57.9493C71.7262 57.9548 72.6076 58.1518 72.7937 59.5365C73.0455 61.4083 74.9998 62.1828 76.508 61.0361C77.0472 60.6284 77.622 60.3055 78.2516 60.7297C79.0782 61.2852 79.861 61.9201 80.1211 62.8833V62.8861ZM76.9679 70.0832C76.9788 66.6516 74.1157 63.7563 70.6368 63.6797C67.24 63.603 64.1498 66.6625 64.1607 70.0942C64.1689 73.5258 67.0429 76.4239 70.5027 76.4895C73.9734 76.5552 76.9597 73.5997 76.9679 70.086V70.0832Z" fill="#26B2E3"/>
<path d="M68.2938 69.9693C68.3376 68.6749 69.2847 67.791 70.604 67.8129C71.9671 67.8348 72.8923 68.8227 72.8375 70.191C72.7855 71.4772 71.8275 72.372 70.5192 72.3556C69.1697 72.3364 68.2446 71.3485 68.2911 69.9693H68.2938Z" fill="#26B2E3"/>
</g>
<defs>
<clipPath id="clip0_935_6082">
<rect width="140" height="140" fill="white" transform="translate(0.5)"/>
</clipPath>
</defs>
</svg>
