<svg width="132" height="150" viewBox="0 0 132 150" fill="none" xmlns="http://www.w3.org/2000/svg">
<g clip-path="url(#clip0_932_5929)">
<path d="M118.378 16.0082C112.845 23.4946 107.601 30.578 102.365 37.6693C75.7745 73.6868 49.1876 109.704 22.5967 145.718C21.97 146.563 21.371 147.436 20.6809 148.231C18.9277 150.249 16.532 150.553 14.4933 149.072C12.514 147.634 12.042 145.129 13.5572 142.945C15.6951 139.863 17.9798 136.884 20.2089 133.866C50.084 93.4042 79.9671 52.9423 109.842 12.4803C110.259 11.9154 110.635 11.3188 111.226 10.4458C106.756 11.07 102.659 11.6349 98.5617 12.2196C92.6834 13.0571 86.8091 13.9302 80.9309 14.7519C78.8565 15.0403 76.9288 14.7401 75.6992 12.7964C74.7393 11.2793 74.6957 9.71096 75.6516 8.14652C76.5163 6.73221 77.8569 6.14357 79.4276 5.91839C93.0721 3.97075 106.717 2.01915 120.361 0.0557109C123.035 -0.327497 125.43 1.2962 125.823 4.00235C127.33 14.3845 128.778 24.7785 130.253 35.1646C130.706 38.3448 131.166 41.5251 131.665 44.7014C132.145 47.7591 130.61 50.1018 127.794 50.5285C125.41 50.8919 123.276 49.13 122.844 46.2618C121.503 37.3098 120.222 28.3498 118.917 19.3939C118.775 18.426 118.608 17.466 118.374 16.0082H118.378Z" fill="black"/>
<path d="M59.7066 49.8765C59.4528 59.5791 55.9504 69.021 47.4781 76.1203C35.6384 86.0441 19.3522 84.6101 8.79755 72.9124C-3.28022 59.5278 -2.86771 36.6815 9.68603 23.7394C22.6919 10.3311 43.4483 12.5552 53.7332 28.4564C57.7314 34.643 59.6392 41.4301 59.7066 49.8765ZM50.6989 50.7535C50.6949 42.8247 49.0766 37.4756 45.8717 32.8336C37.7842 21.128 22.8903 20.7883 14.3069 32.1344C11.2964 36.1166 9.62257 40.6281 9.15056 45.5822C8.25415 54.9885 10.8085 63.1623 18.1583 69.4477C24.7902 75.1208 34.1272 75.2511 40.9851 69.8862C47.8431 64.5213 50.449 57.189 50.6989 50.7496V50.7535Z" fill="#26B2E3"/>
<path d="M67.7267 112.757C67.9131 104.998 71.6177 95.4459 80.4073 88.3664C93.1753 78.083 110.909 80.9551 120.682 94.6913C130.702 108.775 129.456 128.358 117.731 141.071C106.213 153.555 86.714 152.777 75.8142 139.396C70.4635 132.826 67.7346 124.953 67.7267 112.757ZM76.6432 118.513C76.6115 121.962 78.1742 127.442 81.6568 132.309C89.6769 143.517 103.972 144.05 112.508 133.494C120.409 123.72 120.409 108.487 112.508 98.7328C104.67 89.0578 92.0369 88.5165 83.5408 97.6227C78.7414 102.766 76.6868 109.036 76.6432 118.517V118.513Z" fill="#26B2E3"/>
</g>
<defs>
<clipPath id="clip0_932_5929">
<rect width="131.757" height="150" fill="white"/>
</clipPath>
</defs>
</svg>
