<svg width="109" height="150" viewBox="0 0 109 150" fill="none" xmlns="http://www.w3.org/2000/svg">
<g clip-path="url(#clip0_932_6014)">
<path d="M55.2939 120.746C49.7961 120.746 44.2984 120.753 38.8006 120.746C36.6915 120.746 35.3698 118.981 36.0728 117.174C36.4806 116.12 37.4438 115.501 38.7233 115.501C42.7165 115.494 46.7028 115.501 50.696 115.501C56.3062 115.501 61.9165 115.487 67.5267 115.515C68.2508 115.515 68.5461 115.283 68.7078 114.58C70.0506 108.569 73.0034 103.423 77.1864 98.9518C79.8791 96.0763 82.8318 93.4681 85.6369 90.7051C89.7005 86.7048 92.3017 81.9172 93.3563 76.335C94.8608 68.3696 94.6921 60.4605 91.4862 52.9028C85.8057 39.524 75.6679 31.4602 61.4173 28.8449C51.0827 26.9537 41.3386 28.9996 32.5647 34.8137C22.9963 41.1551 17.133 50.0555 15.4246 61.4377C14.2506 69.2695 15.1715 76.9045 18.7711 84.0896C20.2404 87.0212 22.2511 89.524 24.6344 91.7597C26.7506 93.7422 28.8315 95.767 30.8914 97.8128C33.5138 100.421 35.8197 103.289 37.5141 106.601C38.3788 108.295 37.5914 110.046 35.8127 110.46C34.6527 110.735 33.5138 110.172 32.86 108.921C31.0883 105.567 28.5925 102.797 25.9139 100.168C24.0017 98.2909 22.0332 96.47 20.1069 94.614C15.6004 90.2622 12.8585 84.9051 11.2486 78.9222C10.0534 74.5001 9.57536 69.9796 9.77924 65.4169C10.2292 55.2861 13.7303 46.3083 20.381 38.6241C27.4184 30.49 36.2837 25.4844 46.8715 23.6494C55.9618 22.0746 64.7849 23.1362 73.2002 26.9607C83.2747 31.5375 90.7199 38.828 95.4514 48.8463C97.6026 53.402 98.8822 58.2107 99.2688 63.2445C99.7188 69.2203 99.3673 75.1188 97.5816 80.8767C96.1333 85.5589 93.7851 89.756 90.3684 93.2853C87.5914 96.1537 84.6668 98.8674 81.8195 101.665C77.2778 106.123 74.3884 111.452 73.383 117.765C73.2846 118.37 73.1651 118.974 73.1229 119.586C73.0596 120.437 72.7081 120.767 71.8012 120.753C68.286 120.704 64.7708 120.732 61.2486 120.732C59.266 120.732 57.2835 120.732 55.3009 120.732L55.2939 120.746Z" fill="black"/>
<path d="M54.0988 35.8204C55.7017 35.8204 56.9039 35.7852 58.1061 35.8274C59.9129 35.8907 60.7917 36.6781 61.101 38.4638C61.3752 40.0316 61.6283 41.5993 61.8884 43.1671C61.9095 43.3077 61.9095 43.4483 61.9587 43.5749C62.2118 44.2638 65.0239 45.1356 65.6286 44.7068C66.9784 43.7577 68.3071 42.7945 69.664 41.8524C71.056 40.8893 72.216 40.9947 73.4112 42.1758C75.1336 43.8912 76.849 45.6066 78.5644 47.3291C79.8862 48.6578 79.9705 49.7475 78.9019 51.2661C77.9669 52.5878 77.0459 53.9166 76.0898 55.2242C75.7875 55.639 75.7031 55.9975 75.9843 56.4405C76.1038 56.6303 76.2233 56.8342 76.2585 57.0451C76.5186 58.5707 77.4958 59.0839 78.9441 59.1753C80.1322 59.2526 81.3133 59.5338 82.4944 59.7236C84.0552 59.9767 84.9551 60.9118 84.9832 62.5006C85.0254 65.0667 85.0254 67.6328 84.9832 70.2059C84.9621 71.6401 84.0833 72.6314 82.6842 72.8775C81.0391 73.1727 79.387 73.4469 77.7349 73.693C77.2076 73.7703 76.9475 74.0234 76.6733 74.4804C75.6609 76.1677 75.7523 77.63 77.2006 79.0642C77.9247 79.7813 78.4379 80.7093 79.0214 81.567C79.9143 82.8676 79.8229 84.0768 78.7191 85.2017C76.9615 86.9944 75.1828 88.7731 73.3901 90.5307C72.209 91.6907 70.9857 91.754 69.6288 90.7838C68.3142 89.8418 66.9854 88.9137 65.6918 87.9435C65.2489 87.6131 64.8552 87.5428 64.3912 87.824C64.3701 87.8381 64.342 87.8592 64.3139 87.8592C62.254 88.1966 61.6775 89.6168 61.558 91.4658C61.4877 92.4922 61.2486 93.5046 61.0588 94.5169C60.7987 95.9371 59.8144 96.7878 58.3802 96.8018C55.8142 96.8229 53.2481 96.8229 50.675 96.8018C49.1705 96.7878 48.2003 95.9652 47.9331 94.4959C47.6308 92.8507 47.3496 91.1986 47.0965 89.5465C47.0121 88.984 46.6887 88.745 46.2318 88.4497C44.5445 87.3671 43.1595 87.7467 41.7745 89.0262C41.0012 89.7433 40.0732 90.2917 39.2084 90.8963C38.0344 91.7118 36.797 91.6626 35.7706 90.6713C33.8864 88.8505 32.0304 86.9944 30.2025 85.1103C29.155 84.0347 29.1128 82.7973 29.9986 81.5318C30.9407 80.182 31.9039 78.8462 32.8881 77.5245C33.2045 77.0957 33.3451 76.7231 33.0287 76.245C32.8811 76.013 32.7545 75.7458 32.7053 75.4787C32.4593 74.0726 31.5102 73.6578 30.2236 73.5313C28.923 73.4047 27.6364 73.1306 26.3499 72.8845C24.8735 72.5962 24.0439 71.6542 24.0228 70.1497C23.9877 67.6117 23.9877 65.0667 24.0228 62.5288C24.0509 60.9258 24.9016 60.0119 26.4835 59.7377C28.1004 59.4565 29.7245 59.1612 31.3485 58.9222C31.8617 58.8448 32.164 58.6269 32.3187 58.1488C32.403 57.8817 32.4593 57.5864 32.6139 57.3685C33.4576 56.2084 33.0779 55.2664 32.2413 54.2681C31.4188 53.2908 30.7368 52.1941 29.9986 51.1396C29.0777 49.8249 29.148 48.6438 30.2588 47.5189C32.0656 45.691 33.8794 43.8772 35.7073 42.0704C36.7689 41.0228 37.9359 40.9104 39.1873 41.7681C40.5934 42.7242 41.9784 43.7155 43.3563 44.7208C43.7922 45.0372 44.1578 45.0864 44.6499 44.8403C45.9084 44.2287 47.2231 43.7647 48.5869 43.4413C50.0211 43.0968 51.371 43.842 51.7787 45.1708C52.1935 46.5347 51.5397 47.9478 50.1266 48.3907C48.3057 48.9601 46.5622 49.6632 44.8749 50.556C43.9821 51.0271 43.0259 50.8513 42.1823 50.2608C40.952 49.396 39.7076 48.5453 38.4984 47.6455C38.0554 47.315 37.7531 47.308 37.3735 47.7298C36.8954 48.2712 36.3682 48.7773 35.8338 49.2695C35.4683 49.6069 35.4894 49.8952 35.7635 50.2748C36.6072 51.4208 37.4016 52.6019 38.2523 53.7408C39.0678 54.8446 39.2084 55.9554 38.5054 57.1646C37.6899 58.5707 37.0782 60.0681 36.6634 61.6429C36.3611 62.7818 35.6229 63.4638 34.4629 63.6677C32.9514 63.9348 31.4469 64.216 29.9283 64.448C29.394 64.5254 29.2253 64.7644 29.2464 65.2776C29.2745 65.9736 29.2815 66.6767 29.2464 67.3727C29.2183 67.9562 29.5065 68.1601 30.0197 68.2444C31.4258 68.4694 32.8178 68.7295 34.2239 68.9475C35.5245 69.1443 36.34 69.8333 36.6916 71.1128C37.1204 72.6806 37.725 74.1781 38.5546 75.5842C39.2014 76.6879 39.1311 77.7636 38.3859 78.797C37.5211 79.9992 36.6775 81.2085 35.7917 82.3966C35.5034 82.7833 35.4753 83.0645 35.8479 83.3949C36.2205 83.7253 36.5509 84.112 36.9165 84.4565C38.0203 85.497 37.6407 85.5954 39.0608 84.5971C40.0872 83.873 41.0996 83.1348 42.119 82.4036C43.1103 81.6935 44.1437 81.6514 45.1842 82.256C46.6184 83.0926 48.137 83.7042 49.7329 84.1471C50.9702 84.4916 51.6662 85.279 51.8701 86.5445C52.081 87.8662 52.3482 89.1809 52.531 90.5026C52.6364 91.2478 52.8825 91.6837 53.7402 91.5712C54.2605 91.5009 54.8018 91.5079 55.3291 91.5712C56.1024 91.6626 56.3485 91.2759 56.4539 90.594C56.6578 89.2442 56.925 87.9014 57.1288 86.5515C57.3187 85.3212 57.9725 84.5127 59.1747 84.1682C60.8198 83.6972 62.3876 83.0645 63.871 82.2068C64.8833 81.6232 65.9027 81.6935 66.8589 82.3825C68.0822 83.2613 69.3195 84.1261 70.5287 85.0189C70.9435 85.3283 71.2458 85.3212 71.5973 84.9345C72.0824 84.4002 72.6027 83.887 73.137 83.3949C73.5026 83.0574 73.4885 82.7903 73.2003 82.4036C72.3144 81.2155 71.4708 80.0063 70.6061 78.8041C69.8608 77.7706 69.7835 76.6879 70.4303 75.5912C71.281 74.1359 71.8926 72.5822 72.3426 70.9652C72.673 69.7841 73.4604 69.1373 74.6415 68.9404C76.0476 68.7084 77.4466 68.4694 78.8527 68.2655C79.4784 68.1741 79.8159 67.9281 79.7455 67.2391C79.6963 66.7681 79.7315 66.29 79.7315 65.819C79.7315 64.9894 79.3144 64.5066 78.4801 64.3707C77.1584 64.1528 75.8367 63.9419 74.522 63.7099C73.3971 63.513 72.6519 62.8732 72.3566 61.7624C71.9067 60.0822 71.2247 58.5004 70.3811 56.9748C69.8257 55.9694 69.889 54.9922 70.5428 54.0572C71.4075 52.8198 72.2582 51.5754 73.1581 50.3732C73.5166 49.8881 73.5026 49.5648 73.0526 49.1711C72.5465 48.7281 72.0684 48.2571 71.6325 47.7509C71.2318 47.2799 70.9084 47.3291 70.4444 47.6806C69.3054 48.5313 68.1173 49.3187 66.9643 50.1553C65.8746 50.9497 64.7709 51.006 63.6038 50.324C62.247 49.5296 60.7917 48.9601 59.2801 48.5524C57.9795 48.2009 57.2413 47.3994 57.0515 46.0496C56.8547 44.6435 56.5664 43.2515 56.3625 41.8384C56.2782 41.2548 56.0391 41.0439 55.4416 41.058C53.8527 41.0932 52.2568 41.0791 50.6679 41.0721C49.1142 41.065 48.0386 40.13 47.9191 38.7169C47.7995 37.2757 48.7416 36.1367 50.3164 35.9118C51.7014 35.7149 53.1004 35.8766 54.0917 35.8415L54.0988 35.8204Z" fill="#26B2E3"/>
<path d="M48.9806 65.9231C48.7275 69.157 51.2654 71.477 53.6136 71.7653C56.6226 72.1309 59.1887 70.4014 59.8636 67.5682C60.7564 63.828 57.5435 60.3198 53.705 60.8471C51.9333 61.0932 50.6257 60.2285 50.4358 58.6818C50.239 57.121 51.2654 55.9188 52.9949 55.6868C59.7441 54.7869 65.5722 60.1441 65.2348 66.9284C64.9676 72.2644 60.426 76.8412 55.1954 77.0451C49.4446 77.2701 44.6639 73.4034 43.8695 67.9197C43.7007 66.7737 43.6867 65.6418 43.9046 64.51C44.1648 63.139 45.4443 62.1337 46.7238 62.3024C48.2142 62.4993 49.1423 63.6522 49.0438 65.1708C49.0298 65.4239 49.0087 65.67 48.9876 65.9231H48.9806Z" fill="#26B2E3"/>
<path d="M54.5697 128.213C60.9041 128.213 67.2384 128.213 73.5728 128.213C74.6906 128.213 75.4991 128.705 75.9912 129.696C76.4623 130.645 76.2936 131.552 75.696 132.375C75.0351 133.289 74.0368 133.443 73.0104 133.443C69.4389 133.451 65.8675 133.443 62.2961 133.443C53.6698 133.443 45.0506 133.443 36.4243 133.443C36.0658 133.443 35.6932 133.443 35.3416 133.387C33.7739 133.141 32.8599 132.037 32.9794 130.561C33.0919 129.155 34.1816 128.213 35.7353 128.213C42.0135 128.213 48.2916 128.213 54.5767 128.213H54.5697Z" fill="black"/>
<path d="M42.7658 139.827C43.8695 139.827 44.678 139.82 45.4865 139.827C46.5551 139.841 47.4128 140.242 48.0807 141.114C49.4587 142.914 51.1741 144.242 53.473 144.657C55.9336 145.107 57.9584 144.179 59.7511 142.597C60.2292 142.175 60.6651 141.69 61.0518 141.184C61.7267 140.291 62.5984 139.841 63.7022 139.834C65.3754 139.827 67.0487 139.785 68.7219 139.841C70.8451 139.919 72.0683 141.592 71.3864 143.392C70.9997 144.418 70.1491 145.023 69.0031 145.044C67.8009 145.065 66.6057 145.072 65.4036 145.044C64.8552 145.03 64.4826 145.227 64.11 145.627C61.5579 148.355 58.4294 149.972 54.6611 150C51.0546 150.021 47.9823 148.552 45.4865 145.993C44.7975 145.283 44.1086 144.981 43.1454 145.044C42.1752 145.107 41.191 145.072 40.2208 145.051C38.8006 145.023 37.7601 144.038 37.6687 142.682C37.5703 141.247 38.4491 140.151 39.8903 139.926C40.9449 139.757 42.0065 139.876 42.7658 139.834V139.827Z" fill="black"/>
<path d="M108.971 25.5334C108.992 26.0255 108.633 26.6583 108.078 27.2137C105.589 29.7024 103.114 32.1982 100.626 34.6729C99.4376 35.854 97.8909 35.9102 96.8153 34.8486C95.7185 33.773 95.7045 32.2615 96.8856 31.0382C99.0228 28.8307 101.209 26.6794 103.375 24.507C103.81 24.0711 104.218 23.6071 104.696 23.2274C105.54 22.5525 106.489 22.3486 107.508 22.8548C108.479 23.3399 108.95 24.1273 108.978 25.5264L108.971 25.5334Z" fill="black"/>
<path d="M-3.13452e-05 25.4564C0.00699903 24.0925 0.562398 23.3051 1.54665 22.834C2.64339 22.3068 3.63467 22.6161 4.46425 23.4035C5.63833 24.5143 6.76319 25.6813 7.90211 26.8273C9.31521 28.2474 10.7775 29.6394 12.1344 31.1158C13.667 32.782 12.9077 35.1302 10.7494 35.559C9.87764 35.7348 9.12539 35.4395 8.52781 34.8489C5.91251 32.2618 3.3183 29.6465 0.724097 27.0382C0.239001 26.539 -0.0211225 25.9274 -3.13452e-05 25.4564Z" fill="black"/>
<path d="M57.0514 7.39595C57.0514 8.98481 57.0655 10.5737 57.0514 12.1625C57.0303 13.7303 55.9968 14.7567 54.4994 14.7638C53.0019 14.7638 51.9474 13.7303 51.9333 12.1766C51.9122 9.027 51.9122 5.87739 51.9333 2.72778C51.9333 1.16704 53.0511 0 54.4853 0C55.9476 0 57.0303 1.13189 57.0444 2.71372C57.0584 4.27447 57.0444 5.83521 57.0444 7.39595H57.0514Z" fill="black"/>
</g>
<defs>
<clipPath id="clip0_932_6014">
<rect width="108.971" height="150" fill="white"/>
</clipPath>
</defs>
</svg>
