<svg width="147" height="150" viewBox="0 0 147 150" fill="none" xmlns="http://www.w3.org/2000/svg">
<g clip-path="url(#clip0_932_5943)">
<path d="M63.4752 134.083C61.9448 134.152 60.4333 134.032 58.9723 133.538C55.7069 132.436 53.4838 129.561 53.2759 126.154C53.1531 124.12 53.0209 122.082 52.9359 120.045C52.8855 118.839 52.4887 118.036 51.226 117.576C48.0488 116.417 45.1581 114.708 42.5635 112.541C41.792 111.896 41.1591 111.883 40.3026 112.333C38.4479 113.313 36.5585 114.226 34.6598 115.117C30.0183 117.293 25.6288 115.904 23.0908 111.48C22.439 110.343 21.7557 109.222 21.1826 108.048C19.4412 104.464 20.4205 100.32 23.6261 97.9367C25.4745 96.5606 27.3985 95.2758 29.3539 94.0509C30.3962 93.3991 30.7394 92.6371 30.5284 91.4405C30.2104 89.6331 31.0228 88.3735 32.5248 88.109C34.0174 87.8476 35.1856 88.7577 35.6296 90.5273C35.6422 90.5777 35.6611 90.6281 35.6737 90.6785C36.3958 93.8106 35.4144 96.272 32.7295 98.0626C30.9409 99.256 29.1398 100.434 27.3733 101.655C25.5312 102.928 25.1722 104.433 26.2145 106.41C26.6774 107.292 27.1686 108.158 27.6976 109.002C28.9099 110.932 30.3017 111.36 32.3548 110.394C35.0124 109.144 37.6669 107.887 40.2742 106.543C41.8109 105.749 43.0515 105.969 44.267 107.128C47.4789 110.183 51.2512 112.286 55.4991 113.539C57.0703 114.002 57.8009 114.978 57.8828 116.619C58.0339 119.648 58.2795 122.671 58.5062 125.694C58.6416 127.514 59.6996 128.582 61.5197 128.673C62.8265 128.739 64.1459 128.739 65.4527 128.673C67.194 128.585 68.1985 127.791 68.4535 126.04C68.7558 123.978 68.8314 121.881 68.9888 119.796C69.0329 119.223 69.0109 118.644 69.0361 118.067C69.1872 114.641 69.4643 114.276 72.7423 113.171C76.5304 111.896 79.8682 109.849 82.7872 107.153C84.0877 105.951 85.3536 105.768 86.9217 106.59C89.381 107.881 91.8906 109.081 94.3971 110.283C96.7997 111.436 98.1758 111.001 99.5267 108.734C102.468 103.797 102.392 103.457 97.6374 100.273C95.8519 99.0765 94.076 97.8642 92.2906 96.6677C91.0184 95.8143 90.5366 94.7091 90.9145 93.1598C91.9851 88.764 91.9757 84.3492 90.8862 79.9503C90.5366 78.5459 90.9838 77.4941 92.1614 76.7038C94.6428 75.038 97.1272 73.3754 99.596 71.6907C101.636 70.2989 101.98 68.8819 100.802 66.7281C100.352 65.9 99.8668 65.0875 99.3692 64.2877C98.1695 62.3606 96.7431 61.9135 94.6931 62.8802C92.1331 64.0862 89.5636 65.2859 87.054 66.5959C85.3851 67.465 84.009 67.3453 82.6329 66.0322C79.5061 63.0502 75.8125 60.9877 71.6874 59.7376C70.1256 59.2653 69.2785 58.3395 69.1715 56.7336C69.0014 54.1263 68.7968 51.5159 68.696 48.9055C68.5669 45.5739 67.5435 44.5348 64.2089 44.5348C63.3681 44.5348 62.5305 44.5254 61.6897 44.5506C59.728 44.6104 58.6259 45.7031 58.4936 47.6774C58.2858 50.7539 58.0559 53.8335 57.8576 56.9099C57.7694 58.2702 57.1144 59.2086 55.8171 59.5896C51.3047 60.9216 47.3435 63.1856 43.9175 66.4038C42.8154 67.4398 41.5684 67.3988 40.2742 66.7565C37.7835 65.5189 35.2958 64.2814 32.7956 63.0691C30.2545 61.8348 28.8973 62.2599 27.4299 64.7002C24.6778 69.2787 24.8132 69.9085 29.2217 72.8716C31.0071 74.0713 32.7767 75.2899 34.5905 76.4424C36.0705 77.3871 36.5963 78.6214 36.1114 80.325C35.8563 81.2287 35.7556 82.1734 35.5131 83.0802C35.0786 84.6893 33.8379 85.4325 32.3076 85.064C30.9976 84.746 30.1348 83.4927 30.4686 82.0537C30.7929 80.6493 30.3678 79.8086 29.1492 79.0906C27.4803 78.105 25.8996 76.9746 24.3 75.8756C20.3828 73.1896 19.2775 68.7465 21.4943 64.5585C22.1304 63.3557 22.8168 62.1748 23.5537 61.0318C25.8901 57.4169 30.075 56.1479 34.0111 57.8955C36.1649 58.8528 38.2778 59.9139 40.3781 60.9877C41.1905 61.4034 41.7857 61.3498 42.5036 60.7515C45.1424 58.5536 48.0929 56.8501 51.3079 55.6441C52.4194 55.2284 52.8508 54.4947 52.9107 53.4084C53.0177 51.4749 53.1783 49.5478 53.2445 47.6144C53.4019 43.0548 56.5319 39.7706 61.0726 39.3077C63.0249 39.1093 64.9551 39.188 66.8791 39.399C70.6829 39.8146 73.5925 43.3886 73.8791 47.8852C74.005 49.869 74.1499 51.8497 74.2128 53.8366C74.2412 54.6774 74.4994 55.1654 75.337 55.4709C78.6716 56.6737 81.704 58.4466 84.4467 60.6791C85.2748 61.353 85.9487 61.3687 86.8556 60.8995C88.9024 59.8384 90.9649 58.7929 93.0809 57.8766C97.0517 56.1542 101.372 57.5176 103.608 61.2176C104.949 63.4375 106.602 65.5441 106.671 68.3372C106.747 71.4672 105.525 73.9359 102.972 75.7213C101.123 77.0124 99.2433 78.2593 97.3476 79.4779C96.5951 79.9629 96.3369 80.4635 96.5038 81.4113C97.1241 84.9412 97.08 88.4995 96.4849 92.0325C96.3463 92.8481 96.5604 93.2952 97.2122 93.7172C99.1016 94.9452 100.972 96.2079 102.836 97.4738C106.794 100.166 107.843 104.773 105.459 108.933C104.911 109.887 104.367 110.844 103.8 111.785C101.356 115.838 96.9666 117.217 92.659 115.237C90.6594 114.317 88.6851 113.338 86.7391 112.308C85.87 111.848 85.256 111.93 84.4908 112.56C81.8426 114.742 78.9015 116.468 75.6739 117.642C74.5403 118.055 74.2034 118.691 74.1939 119.85C74.1782 121.887 74.0459 123.928 73.8318 125.955C73.3123 130.89 70.0784 133.846 65.0465 134.086C64.5237 134.111 63.9979 134.089 63.472 134.086L63.4752 134.083Z" fill="black"/>
<path d="M121.874 41.0023C121.874 40.5331 121.821 40.0545 121.884 39.5916C122.151 37.6047 121.629 36.3514 119.604 35.2934C115.961 33.3883 114.49 29.0303 115.643 25.1351C116.839 21.0825 120.397 18.5382 124.768 18.6138C128.707 18.6799 132.193 21.473 133.223 25.3933C134.284 29.4333 132.489 33.7095 128.707 35.6461C127.416 36.3073 126.997 37.0883 127.067 38.4517C127.164 40.3316 127.105 42.2209 127.089 44.104C127.082 44.9605 127.139 45.6973 128.307 45.6406C129.328 45.5902 130.521 45.9209 130.644 44.3181C130.789 42.454 131.406 40.741 132.363 39.1508C133.1 37.929 134.07 36.9182 135.172 36.0019C139.448 32.4468 141.671 27.8967 141.737 22.3169C141.759 20.3551 142.732 19.2278 144.326 19.2436C145.935 19.2593 146.965 20.3835 146.952 22.3137C146.905 29.4396 144.105 35.3028 138.655 39.8845C137.143 41.1535 136.085 42.6114 135.899 44.6267C135.827 45.4233 136.028 45.987 136.728 46.4908C139.886 48.7706 140.648 51.5353 139.13 55.1282C138.856 55.7769 138.903 56.2807 139.168 56.901C140.834 60.8025 139.489 64.2725 135.619 65.9194C134.703 66.3099 134.441 67.0121 134.104 67.7772C131.044 74.7237 121.207 76.3863 116.496 70.5608C114.666 68.2999 113.183 65.9194 110.696 64.1497C108.422 62.5312 108.548 59.7476 109.477 57.2316C109.811 56.3311 109.868 55.6257 109.483 54.7188C108.136 51.529 109.143 48.3581 112.081 46.5349C112.953 45.9933 113.164 45.4233 112.969 44.4724C112.547 42.4099 111.36 40.8953 109.795 39.5664C104.426 35.0131 101.781 29.131 101.816 22.172C101.882 9.56076 112.695 -0.518804 125.278 0.0228029C130.348 0.240076 134.782 1.95621 138.711 5.08305C140.289 6.33945 140.623 7.88241 139.631 9.1577C138.658 10.4078 137.033 10.4204 135.465 9.18919C125.08 1.03674 110.349 6.10644 107.503 18.9224C106.057 25.4374 108.041 31.0802 113.054 35.4634C115.828 37.8881 117.774 40.6559 118.206 44.3181C118.436 46.2641 119.802 45.5304 120.804 45.6154C122.06 45.7193 121.852 44.7369 121.865 43.978C121.881 42.9861 121.868 41.9942 121.868 41.0023H121.874ZM124.267 53.2798C127.145 53.2798 130.024 53.2829 132.902 53.2798C133.733 53.2798 134.523 53.1759 134.53 52.0643C134.536 50.9496 133.774 50.8552 132.921 50.8552C127.268 50.8615 121.619 50.8583 115.967 50.8552C115.054 50.8552 114.226 50.9937 114.248 52.1588C114.27 53.305 115.161 53.2672 115.951 53.2703C118.725 53.2829 121.496 53.2766 124.271 53.2798H124.267ZM124.535 58.6518C121.711 58.6518 118.886 58.6392 116.065 58.6581C115.243 58.6644 114.251 58.5384 114.251 59.8043C114.251 60.9851 115.136 61.0575 116.017 61.0575C121.613 61.0607 127.208 61.0575 132.804 61.0638C133.689 61.0638 134.555 61.0323 134.526 59.8074C134.498 58.677 133.664 58.6581 132.851 58.6549C130.08 58.6455 127.309 58.6549 124.535 58.6518ZM124.614 23.8409C122.45 23.7307 120.608 25.3933 120.533 27.5283C120.457 29.6034 122.107 31.4077 124.167 31.5053C126.317 31.6061 128.081 30.0694 128.213 27.9754C128.351 25.7617 126.777 23.9511 124.614 23.8409ZM124.371 66.2815C123.216 66.2815 122.063 66.2689 120.911 66.291C120.668 66.2941 120.325 66.3382 120.208 66.4956C119.969 66.8137 120.312 67.0593 120.495 67.2923C121.629 68.7439 126.815 68.9297 128.093 67.5726C128.166 67.497 128.232 67.4151 128.295 67.3332C128.786 66.7035 128.789 66.2847 127.835 66.2847C126.679 66.2847 125.527 66.2847 124.371 66.2847V66.2815Z" fill="#26B2E3"/>
<path d="M55.1872 23.7044C54.8377 23.0778 54.274 22.8668 53.8048 22.552C51.629 21.0909 49.4373 19.6518 47.2552 18.1971C45.3942 16.9532 44.9093 15.5772 45.8098 14.1696C46.7167 12.7558 48.2282 12.6298 50.0671 13.8296C52.5232 15.4355 54.9794 17.0477 57.4292 18.6662C59.7027 20.1682 61.9825 21.664 64.2371 23.2006C66.7625 24.9231 66.7751 26.8313 64.2717 28.5033C59.5641 31.6491 54.8408 34.7759 50.1238 37.9059C49.4247 38.3719 48.7099 38.882 47.8188 38.775C46.6947 38.6396 45.8319 38.0539 45.4949 36.9329C45.158 35.8119 45.5012 34.8168 46.4396 34.1461C48.1872 32.8992 49.9884 31.7215 51.7675 30.5186C52.1422 30.2636 52.5232 30.0148 52.857 29.659C50.8638 29.7849 48.9524 30.251 47.1009 30.8681C24.6777 38.3247 10.5172 53.4393 6.28825 76.7316C2.56628 97.2402 8.98054 114.937 24.0637 129.271C33.3025 138.05 44.4873 143.041 57.2371 144.363C70.1759 145.705 82.2613 143.132 93.4555 136.482C93.7704 136.296 94.0916 136.11 94.4191 135.953C95.8865 135.247 97.2657 135.578 97.9931 136.8C98.7708 138.1 98.4087 139.536 96.9791 140.449C93.6539 142.571 90.1272 144.303 86.4524 145.733C77.3521 149.269 67.8835 150.579 58.2038 149.776C30.6606 147.49 7.65172 127.636 1.68144 100.603C-3.00094 79.3924 2.09394 60.4141 16.5693 44.1659C26.7497 32.7386 39.638 26.1165 54.803 23.9154C54.8943 23.9028 54.9794 23.8209 55.1809 23.7076L55.1872 23.7044Z" fill="black"/>
<path d="M63.6074 68.5723C73.605 68.5786 81.726 76.6617 81.748 86.6342C81.7701 96.4336 73.4507 104.907 63.6074 104.784C52.6776 104.652 45.3376 95.9801 45.3722 86.6342C45.4131 76.5421 53.4396 68.566 63.6074 68.5723ZM63.5664 99.4439C70.771 99.4061 76.4831 93.7161 76.48 86.587C76.4768 79.4548 70.6293 73.7616 63.3302 73.7805C56.3271 73.8026 50.5773 79.628 50.6119 86.6689C50.6466 93.8483 56.3586 99.4817 63.5664 99.4439Z" fill="black"/>
<path d="M84.2577 11.4108C86.3013 11.4108 88.345 11.4234 90.3886 11.4045C91.7773 11.3919 92.7975 11.9587 93.4934 13.1647C95.6346 16.8836 97.7853 20.5929 99.9328 24.3086C100.503 25.2942 100.541 26.3113 99.9801 27.2969C97.7759 31.1606 95.5591 35.0148 93.3359 38.8659C92.8636 39.6846 92.152 40.1632 91.1727 40.2199C86.6162 40.4875 82.063 40.3994 77.5065 40.2797C76.2281 40.2451 75.3621 39.587 74.7418 38.5069C72.6604 34.8762 70.579 31.2424 68.4598 27.6338C67.745 26.4184 67.7671 25.3005 68.4724 24.0976C70.5916 20.4859 72.6919 16.8678 74.7544 13.2246C75.485 11.9335 76.5398 11.3951 77.9757 11.4045C80.0729 11.4202 82.17 11.4077 84.264 11.4077L84.2577 11.4108ZM84.1097 34.7629C88.4174 36.224 90.2721 33.7741 92.3724 30.408C94.5388 26.9348 94.1389 24.5353 92.2653 21.1597C90.3004 17.6235 88.1655 16.4144 84.1129 16.4427C80.1484 16.4679 78.0324 17.633 76.0738 21.0873C74.1372 24.5007 73.7279 26.96 75.9636 30.4615C78.045 33.7269 79.8021 36.2649 84.1129 34.7629H84.1097Z" fill="black"/>
<path d="M112.185 125.67C111.143 125.692 110.381 125.289 109.924 124.429C109.379 123.405 109.521 122.392 110.179 121.472C111.801 119.217 113.338 116.913 114.657 114.469C115.252 113.364 115.787 112.227 116.398 111.131C117.198 109.689 118.518 109.195 119.809 109.805C121.175 110.451 121.736 111.903 121.068 113.364C119.258 117.328 116.984 121.022 114.399 124.526C113.838 125.285 113.111 125.748 112.182 125.67H112.185Z" fill="black"/>
<path d="M127.07 87.8133C126.79 91.4188 126.66 94.8668 125.902 98.2424C125.502 100.012 124.293 100.973 122.847 100.667C121.279 100.336 120.482 98.9856 120.8 97.1844C121.304 94.3536 121.663 91.5101 121.663 88.6289C121.663 88.0054 121.717 87.3757 121.805 86.7553C122.051 84.9982 123.061 83.9749 124.459 84.0315C125.902 84.0882 126.975 85.3257 127.064 87.0482C127.079 87.3599 127.064 87.6748 127.064 87.8133H127.07Z" fill="black"/>
<path d="M145.044 13.9486C145.056 15.3341 143.831 16.5653 142.443 16.5653C141.041 16.5653 139.851 15.3436 139.876 13.9329C139.902 12.5663 141.007 11.4547 142.386 11.4169C143.806 11.3791 145.034 12.5442 145.047 13.9486H145.044Z" fill="black"/>
<path d="M84.0373 17.9797C88.5496 17.9734 92.1393 21.4435 92.1551 25.833C92.1708 30.1438 88.4362 33.8721 84.1128 33.8595C79.717 33.8469 76.228 30.2572 76.2406 25.7511C76.2501 21.4214 79.6981 17.986 84.0373 17.9766V17.9797ZM84.1128 28.6198C85.5645 28.6135 86.95 27.1933 86.8996 25.7606C86.8555 24.394 85.6117 23.2194 84.2073 23.21C82.6234 23.2006 81.4331 24.4223 81.4804 26.0094C81.5213 27.4043 82.7525 28.6261 84.1128 28.6198Z" fill="#66C6EB"/>
</g>
<defs>
<clipPath id="clip0_932_5943">
<rect width="146.955" height="150" fill="white"/>
</clipPath>
</defs>
</svg>
