<svg width="162" height="126" viewBox="0 0 162 126" fill="none" xmlns="http://www.w3.org/2000/svg">
<g clip-path="url(#clip0_932_5975)">
<path d="M158.494 69.9848C158.494 85.367 158.518 100.753 158.464 116.135C158.457 118.008 158.867 119.466 160.294 120.765C162.232 122.53 162.453 124.019 161.288 125.246C160.106 126.491 158.498 126.19 156.678 124.353C144.969 112.56 133.263 100.763 121.554 88.9724C119.976 87.3828 120 87.4267 118.213 88.8337C103.321 100.55 86.7737 103.658 69.1181 96.9746C51.261 90.2136 40.8147 76.7289 37.3426 57.8123C37.1915 56.9837 37.0505 56.1415 37.0136 55.3027C36.9464 53.7503 36.3386 53.6454 35.1231 54.3726C30.0762 57.3963 25.0025 60.376 19.9388 63.3726C18.2498 64.3703 16.5776 65.3951 14.8651 66.3523C13.9518 66.863 13.5018 67.5056 13.4313 68.6116C13.2332 71.6995 11.1513 74.1652 8.37102 74.8078C5.45975 75.4808 2.44439 74.2227 0.970292 71.7198C-0.544103 69.146 -0.262043 65.9092 1.66873 63.6905C3.59614 61.4752 6.70888 60.7243 9.46568 62.0096C10.6342 62.5541 11.4871 62.4493 12.5583 61.8067C20.0597 57.3151 27.5847 52.8709 35.1298 48.4538C36.2983 47.7706 36.8625 46.9758 36.9766 45.5451C38.8201 22.7289 56.872 3.42672 79.3226 0.511275C98.4188 -1.96787 114.033 4.59357 126.111 19.6578C127.092 20.8788 127.753 21.0953 129.089 20.2091C133.952 16.9927 138.878 13.8777 143.81 10.7728C144.808 10.1437 145.264 9.41996 145.328 8.19899C145.553 3.93743 149.109 1.19786 153.343 1.90474C156.953 2.50677 159.434 6.36246 158.578 10.0389C157.638 14.0738 153.635 16.3974 149.781 14.9397C148.337 14.3952 147.299 14.5609 146.06 15.3557C136.873 21.2779 127.659 27.1561 118.435 33.0209C117.421 33.6669 116.837 34.3534 116.776 35.6793C116.575 40.0592 112.686 42.9814 108.472 41.9025C107.21 41.5778 106.377 41.8416 105.45 42.6364C98.3483 48.748 91.2262 54.836 84.0874 60.9036C83.2916 61.58 82.9457 62.2734 82.986 63.3591C83.1338 67.4076 80.6792 70.2926 76.8848 70.6748C73.2449 71.0434 70.0818 68.4662 69.5848 64.5226C69.4203 63.2136 68.8327 62.5541 67.7649 61.9825C62.0364 58.9149 56.3313 55.7999 50.6196 52.7018C49.8775 52.2993 49.1321 51.9138 48.7392 51.0919C47.9333 49.3906 49.1019 47.5406 50.9823 47.5304C51.8687 47.5271 52.5907 47.9667 53.3261 48.3658C58.9438 51.403 64.5715 54.4233 70.1657 57.5045C71.3276 58.1437 72.3215 58.4143 73.5975 57.7108C75.132 56.8687 76.8378 56.889 78.4899 57.4673C79.3864 57.7785 80.0815 57.5992 80.7967 56.987C87.9557 50.8551 95.1213 44.7368 102.311 38.6387C103.173 37.9081 103.405 37.0761 103.395 35.9769C103.328 30.305 107.697 27.2373 113.012 29.2227C113.915 29.5609 114.6 29.4391 115.356 28.9419C117.371 27.6229 119.375 26.2734 121.457 25.066C122.807 24.2813 122.77 23.5778 121.867 22.438C115.08 13.8811 106.434 8.30722 95.7963 6.03777C69.7561 0.477453 44.6695 19.0017 42.0369 45.6736C39.5958 70.3839 57.7584 92.6218 82.2339 94.898C106.102 97.1167 127.159 80.6015 130.795 56.7604C131.662 51.0817 131.41 45.4166 130.12 39.8055C130.006 39.3117 129.868 38.8213 129.798 38.3207C129.583 36.7819 130.251 35.6454 131.557 35.2869C132.924 34.9115 134.173 35.5947 134.643 37.1539C135.621 40.4008 136.117 43.7458 136.275 47.1313C136.893 60.4301 133.058 72.2475 124.573 82.4887C123.942 83.2531 123.727 83.889 124.523 84.6669C126.084 86.199 127.612 87.7717 129.16 89.3174C129.392 89.5507 129.64 89.8585 130.013 89.7503C130.486 89.6116 130.476 89.1584 130.483 88.7694C130.506 87.1934 130.483 85.6139 130.523 84.0378C130.57 82.0592 131.396 81.0445 132.931 81.0107C134.509 80.9735 135.513 82.0693 135.547 84.0648C135.604 87.3895 135.604 90.7142 135.563 94.0389C135.55 95.2497 135.886 96.2001 136.779 97.0355C138.132 98.3005 139.398 99.6567 140.714 100.959C140.98 101.223 141.252 101.629 141.698 101.446C142.141 101.263 142.051 100.786 142.071 100.408C142.101 99.8461 142.091 99.2813 142.091 98.7165C142.091 75.6127 142.091 52.5124 142.098 29.4087C142.098 28.509 142.091 27.5958 142.235 26.7131C142.454 25.3906 143.283 24.5857 144.646 24.5722C146.01 24.5552 146.869 25.3399 147.098 26.6623C147.259 27.5958 147.252 28.5699 147.252 29.5237C147.259 54.4301 147.289 79.3365 147.212 104.24C147.205 106.634 147.749 108.488 149.623 109.979C150.539 110.706 151.292 111.64 152.138 112.462C152.403 112.719 152.662 113.145 153.118 112.915C153.464 112.739 153.397 112.333 153.407 112.005C153.427 111.329 153.424 110.652 153.424 109.976C153.424 81.3523 153.424 52.7255 153.427 24.102C153.427 23.2599 153.39 22.3974 153.541 21.5755C153.797 20.1888 154.663 19.3771 156.12 19.4346C157.594 19.4921 158.346 20.3647 158.447 21.8021C158.508 22.6443 158.491 23.4899 158.491 24.3354C158.491 39.5485 158.491 54.7649 158.491 69.978L158.494 69.9848Z" fill="#66C6EB"/>
<path d="M30.2913 93.667C30.2913 101.95 30.2913 110.23 30.2913 118.513C30.2913 119.189 30.3047 119.869 30.2208 120.538C30.0629 121.749 29.3511 122.47 28.1322 122.595C26.873 122.723 25.9596 122.206 25.4828 120.995C25.2075 120.295 25.2276 119.558 25.2276 118.827C25.2276 102.095 25.2276 85.3603 25.2276 68.6286C25.2276 68.3479 25.2276 68.0638 25.2444 67.7831C25.3619 65.7741 26.2954 64.7154 27.8971 64.7696C29.4485 64.8203 30.2678 65.8011 30.2778 67.8068C30.3047 75.0176 30.2946 82.2284 30.2946 89.4426C30.2946 90.8496 30.2946 92.26 30.2946 93.667H30.2913Z" fill="black"/>
<path d="M13.5489 99.3208C13.5489 92.9047 13.5388 86.4854 13.5556 80.0693C13.5623 77.3704 14.4219 76.1257 16.1815 76.1629C17.8738 76.2001 18.7066 77.4177 18.7099 80.0085C18.72 92.9555 18.7166 105.902 18.7099 118.853C18.7099 119.414 18.6931 119.986 18.5823 120.53C18.3204 121.843 17.528 122.654 16.158 122.661C14.7074 122.671 13.8813 121.829 13.6597 120.426C13.5455 119.709 13.5523 118.968 13.5523 118.237C13.5455 111.933 13.5489 105.629 13.5489 99.3241V99.3208Z" fill="black"/>
<path d="M1.96094 101.97C1.96094 96.4537 1.96094 90.9407 1.9643 85.4244C1.9643 84.7513 1.94751 84.0647 2.05496 83.4052C2.24636 82.2079 3.00187 81.4977 4.19727 81.3827C5.3826 81.2677 6.24557 81.7953 6.7291 82.9114C7.05481 83.6589 7.03131 84.4503 7.03131 85.2384C7.03131 96.4368 7.03467 107.635 7.03131 118.837C7.03131 119.398 7.03131 119.973 6.91042 120.515C6.60822 121.901 5.7486 122.686 4.29801 122.608C2.82727 122.53 2.06839 121.644 2.00795 120.21C1.94415 118.692 1.96765 117.173 1.9643 115.654C1.96094 111.095 1.9643 106.536 1.9643 101.98L1.96094 101.97Z" fill="black"/>
<path d="M41.9866 103.282C41.9866 108.744 41.9866 114.206 41.9866 119.672C41.9866 121.106 41.5568 122.252 40.0055 122.567C38.3299 122.909 37.0439 121.796 36.9633 119.858C36.8861 118.001 36.9331 116.141 36.9297 114.284C36.9297 105.612 36.9297 96.9367 36.9297 88.2648C36.9297 87.7574 36.9163 87.2501 36.9398 86.7428C37.0237 84.9096 38.0042 83.7563 39.4682 83.7462C40.9356 83.736 41.9598 84.8758 41.9699 86.7225C42.0001 92.2422 41.9799 97.7619 41.9833 103.282H41.9866Z" fill="black"/>
<path d="M107.079 64.9308C107.079 60.0841 107.086 55.2408 107.079 50.3942C107.079 49.3491 107.173 48.3581 108.056 47.6444C109.483 46.4877 111.632 47.2352 112.022 49.065C112.159 49.7177 112.129 50.4111 112.129 51.0841C112.136 60.3243 112.132 69.5644 112.129 78.8045C112.129 79.3119 112.142 79.8226 112.095 80.3231C111.961 81.8485 111.028 82.8226 109.685 82.8699C108.301 82.9206 107.166 81.8925 107.119 80.3096C107.039 77.6072 107.082 74.9015 107.075 72.1991C107.072 69.7775 107.075 67.3524 107.075 64.9308H107.079Z" fill="black"/>
<path d="M100.4 71.3702C100.4 75.537 100.437 79.7073 100.383 83.8741C100.356 85.9542 98.7681 87.1751 97.0926 86.5258C95.736 86.0015 95.3599 84.8584 95.3532 83.5359C95.3364 80.2687 95.3398 77.0015 95.3364 73.7343C95.3364 69.2834 95.3364 64.8324 95.3364 60.3848C95.3364 59.8234 95.3162 59.2552 95.38 58.6971C95.5681 57.0263 96.6963 55.9373 98.0831 56.0421C99.433 56.1402 100.37 57.2056 100.387 58.8662C100.427 63.0331 100.4 67.2033 100.4 71.3702Z" fill="black"/>
<path d="M118.805 54.8052C118.805 51.2065 118.788 47.6079 118.811 44.0092C118.825 42.0036 119.751 40.8435 121.262 40.8131C122.824 40.7826 123.841 42.0103 123.845 44.0836C123.865 51.3384 123.865 58.5932 123.845 65.848C123.838 67.8232 122.871 69.0002 121.35 69.034C119.765 69.0712 118.821 67.901 118.805 65.7702C118.781 62.1141 118.798 58.4613 118.798 54.8052H118.805Z" fill="black"/>
<path d="M48.6722 109.178C48.6722 105.802 48.6521 102.43 48.679 99.0547C48.6957 97.0457 49.6158 95.9194 51.1604 95.9025C52.7118 95.8856 53.6922 97.0187 53.699 99.0006C53.7225 105.863 53.7225 112.722 53.699 119.585C53.6922 121.621 52.7722 122.642 51.1268 122.612C49.5554 122.581 48.6991 121.597 48.679 119.639C48.6454 116.152 48.6689 112.665 48.6689 109.178H48.6722Z" fill="black"/>
<path d="M118.805 110.912C118.805 108.098 118.781 105.287 118.815 102.473C118.835 100.495 119.812 99.3077 121.313 99.3145C122.824 99.3212 123.838 100.519 123.848 102.473C123.875 108.156 123.875 113.838 123.848 119.52C123.838 121.539 122.901 122.614 121.306 122.618C119.694 122.618 118.835 121.593 118.815 119.52C118.784 116.652 118.808 113.78 118.808 110.912H118.805Z" fill="black"/>
<path d="M60.3945 112.437C60.3945 110.077 60.3642 107.712 60.4079 105.352C60.4415 103.542 61.3313 102.521 62.7886 102.467C64.2527 102.413 65.401 103.549 65.4212 105.345C65.4783 110.181 65.4783 115.018 65.4212 119.855C65.401 121.613 64.3735 122.608 62.8826 122.614C61.3112 122.621 60.4314 121.627 60.4045 119.692C60.3676 117.274 60.3945 114.856 60.3978 112.437H60.3945Z" fill="black"/>
<path d="M88.7852 79.9647C88.7852 82.0481 88.8423 84.1315 88.7685 86.2116C88.7013 88.0954 87.7007 89.1202 86.1728 89.0797C84.7256 89.0391 83.735 88.0278 83.7082 86.2319C83.641 81.9568 83.641 77.6783 83.7115 73.4032C83.7417 71.6817 84.8465 70.5825 86.2299 70.5723C87.61 70.5622 88.6912 71.6682 88.7584 73.3829C88.8423 75.5746 88.7785 77.7696 88.7785 79.9647C88.7785 79.9647 88.7819 79.9647 88.7852 79.9647Z" fill="black"/>
<path d="M112.116 113.283C112.116 115.475 112.156 117.666 112.102 119.858C112.062 121.657 111.152 122.608 109.621 122.618C108.1 122.628 107.122 121.657 107.106 119.885C107.062 115.333 107.059 110.78 107.112 106.231C107.133 104.533 108.227 103.478 109.681 103.519C111.081 103.559 112.059 104.567 112.095 106.204C112.153 108.562 112.109 110.922 112.109 113.283C112.109 113.283 112.112 113.283 112.116 113.283Z" fill="black"/>
<path d="M72.0262 114.639C72.0262 113.008 71.9624 111.372 72.043 109.745C72.1336 107.922 73.057 106.998 74.5748 107.012C76.022 107.025 77.0327 107.928 77.0764 109.613C77.1637 113.096 77.1637 116.59 77.0697 120.074C77.026 121.724 75.9582 122.654 74.5345 122.651C73.1007 122.648 72.1504 121.738 72.0597 120.033C71.9657 118.237 72.0396 116.435 72.0396 114.635C72.0362 114.635 72.0295 114.635 72.0262 114.635V114.639Z" fill="black"/>
<path d="M60.4012 74.5306C60.4012 72.8462 60.3575 71.1585 60.4146 69.4742C60.4717 67.8406 61.4421 66.8395 62.8491 66.8226C64.2392 66.8023 65.3473 67.7797 65.391 69.3998C65.4816 72.7685 65.4816 76.1439 65.3977 79.5125C65.354 81.1867 64.1586 82.2521 62.745 82.1777C61.3481 82.1033 60.4583 81.1055 60.4079 79.4246C60.3575 77.7978 60.3978 76.1676 60.3978 74.5373L60.4012 74.5306Z" fill="black"/>
<path d="M83.7014 115.508C83.7014 114.104 83.6208 112.694 83.7215 111.3C83.8457 109.626 84.8195 108.716 86.2466 108.727C87.6972 108.737 88.6844 109.636 88.7381 111.317C88.8288 114.233 88.8288 117.155 88.7314 120.071C88.6744 121.751 87.6636 122.665 86.2365 122.651C84.8262 122.641 83.876 121.697 83.7114 120.05C83.6342 119.272 83.6644 118.481 83.6544 117.693C83.6476 116.962 83.6544 116.232 83.6544 115.505C83.6711 115.505 83.6879 115.505 83.7047 115.505L83.7014 115.508Z" fill="black"/>
<path d="M100.39 115.312C100.39 116.888 100.417 118.465 100.383 120.041C100.353 121.549 99.6177 122.489 98.063 122.601C96.6158 122.706 95.464 121.772 95.4103 120.169C95.3062 116.966 95.3096 113.753 95.4103 110.547C95.4607 108.93 96.5856 108 98.0194 108.051C99.4733 108.102 100.303 109.028 100.393 110.753C100.434 111.538 100.414 112.329 100.417 113.117C100.417 113.848 100.417 114.582 100.417 115.312C100.41 115.312 100.4 115.312 100.393 115.312H100.39Z" fill="black"/>
<path d="M130.537 115.932C130.537 114.582 130.5 113.233 130.55 111.883C130.604 110.449 131.353 109.566 132.8 109.421C134.17 109.282 135.325 110.141 135.453 111.653C135.701 114.565 135.694 117.497 135.453 120.413C135.328 121.904 134.18 122.73 132.773 122.605C131.302 122.476 130.584 121.583 130.54 120.149C130.5 118.746 130.53 117.339 130.533 115.932H130.537Z" fill="black"/>
<path d="M72.0932 80.722C72.0932 79.4841 71.9958 78.2395 72.1167 77.0151C72.2578 75.5844 73.1812 74.7862 74.6083 74.793C75.9716 74.7998 76.858 75.625 77.0058 76.9441C77.2878 79.4604 77.2979 82.0072 76.9991 84.5202C76.8312 85.917 75.8641 86.7423 74.4337 86.6713C73.0972 86.6036 72.241 85.775 72.1201 84.4322C72.0093 83.2045 72.0966 81.9599 72.0932 80.7254V80.722Z" fill="black"/>
<path d="M48.7124 63.6354C48.7124 62.5666 48.6285 61.4911 48.7326 60.4359C48.8736 59.012 49.7668 58.1529 51.1771 58.1563C52.5807 58.1596 53.5578 59.0086 53.6384 60.4257C53.7593 62.6106 53.7492 64.8124 53.6518 66.9973C53.5847 68.4618 52.4161 69.4866 51.1099 69.375C49.7063 69.2532 48.8366 68.4381 48.7258 67.0041C48.6385 65.8879 48.709 64.7583 48.709 63.632C48.709 63.632 48.7124 63.632 48.7158 63.632L48.7124 63.6354Z" fill="black"/>
<path d="M144.549 122.734C143.203 122.666 142.165 121.519 142.212 120.16C142.262 118.699 143.414 117.667 144.875 117.775C146.242 117.877 147.209 119.006 147.128 120.403C147.051 121.746 145.886 122.801 144.549 122.73V122.734Z" fill="black"/>
</g>
<defs>
<clipPath id="clip0_932_5975">
<rect width="162" height="126" fill="white"/>
</clipPath>
</defs>
</svg>
