<svg width="168" height="115" viewBox="0 0 168 115" fill="none" xmlns="http://www.w3.org/2000/svg">
<g clip-path="url(#clip0_997_6619)">
<path d="M39.2552 54.3184C39.2057 54.211 39.1396 54.1119 39.0653 54.021V53.8806C38.5408 52.8523 38.0658 51.7992 37.6529 50.7213C37.3183 49.4452 37.1614 48.1278 37.1821 46.8104V32.6699C37.529 28.6351 36.1785 24.6374 33.457 21.6392C30.2316 18.9961 26.11 17.7117 21.9554 18.0545C19.651 18.0421 17.3507 18.327 15.1206 18.9011C13.1383 19.3678 11.222 20.0822 9.41732 21.0238C8.94239 21.2427 8.52528 21.5648 8.19076 21.9654C7.96362 22.4321 7.86451 22.9566 7.90993 23.4728V25.6409C7.90993 26.5371 8.19076 27.0079 8.8061 27.0079H9.5123L11.2097 26.3471C12.7459 25.7442 14.3235 25.2404 15.9218 24.8398C17.4663 24.4763 19.048 24.2864 20.6339 24.274C23.1944 24.0097 25.7549 24.7365 27.7991 26.3017C29.3643 28.2882 30.0912 30.8073 29.8269 33.3265V36.5313C28.0841 36.1059 26.4322 35.7755 24.7844 35.5401C23.2192 35.3377 21.6457 35.2262 20.0722 35.2097C16.2274 34.9991 12.4362 36.205 9.42145 38.6044C6.76185 40.8221 5.28337 44.1466 5.41553 47.6074C5.26272 50.7544 6.44385 53.8145 8.66982 56.0446C11.0321 58.3078 14.2162 59.5013 17.4828 59.3444C22.4841 59.4187 27.2457 57.1969 30.3968 53.3107C30.8015 54.1986 31.2599 55.0659 31.7637 55.9042C32.2098 56.6311 32.7301 57.3125 33.3207 57.932C33.6593 58.3037 34.1343 58.5267 34.6422 58.5432C35.0511 58.5514 35.4517 58.4193 35.7738 58.1674L38.5532 56.3296C39.3048 55.9703 39.6187 55.0659 39.2594 54.3184H39.2552ZM29.9714 43.2257C29.9962 44.5101 29.8558 45.7944 29.546 47.0416C29.3395 48.0824 28.9059 49.0653 28.2741 49.916C27.1466 51.188 25.7218 52.1626 24.1277 52.7449C22.6079 53.257 21.018 53.5131 19.4156 53.5007C15.8268 53.3479 13.0392 50.3166 13.192 46.7278C13.2663 44.9933 14.0303 43.3579 15.3147 42.1891C17.2309 40.9089 19.523 40.3142 21.8192 40.4918C23.1861 40.4918 24.5531 40.4918 25.9655 40.7272C27.3779 40.9626 28.6994 41.198 29.9714 41.4829V43.2257Z" fill="#1F2B3C"/>
<path d="M51.8395 56.044C51.9758 56.6965 52.2855 57.2995 52.7357 57.7868C53.2395 58.1089 53.8342 58.2576 54.433 58.2122H58.2036C58.8148 58.2659 59.4301 58.1172 59.9463 57.7868C60.3965 57.283 60.6897 56.6635 60.793 55.9945L67.5328 27.7135L74.3677 55.9945C74.4255 56.6511 74.7104 57.2664 75.1688 57.7372C75.6892 58.1048 76.3252 58.2741 76.9612 58.208H80.7317C81.3181 58.2411 81.9004 58.0718 82.3795 57.7372C82.8503 57.2747 83.1807 56.6841 83.3211 56.0399L94.2569 22.1506C94.4179 21.8079 94.5129 21.4403 94.5377 21.0645C94.5583 20.8291 94.5583 20.5937 94.5377 20.3583C94.6244 19.8462 94.2734 19.3589 93.7613 19.2722C93.658 19.2556 93.5548 19.2556 93.4515 19.2722H89.3506C88.7559 19.2515 88.1695 19.4002 87.6533 19.6975C87.2362 20.1848 86.9471 20.7671 86.8067 21.3949L79.1706 50.8074L72.1458 21.6303C72.0673 20.9943 71.7865 20.3996 71.3446 19.9329C70.8078 19.6025 70.18 19.4539 69.5523 19.5076H65.9717C64.7658 19.2969 63.6177 20.1064 63.4113 21.3123C63.3947 21.4155 63.3823 21.5229 63.3782 21.6303L56.5434 50.477L49.2501 21.6385C49.118 21.0108 48.8247 20.4244 48.4035 19.9412C47.8873 19.6025 47.2719 19.4539 46.6607 19.5158H42.4194C41.7132 19.5158 41.3828 19.8916 41.3828 20.602C41.42 21.2008 41.548 21.7872 41.7586 22.3447L51.8478 56.0481L51.8395 56.044Z" fill="#1F2B3C"/>
<path d="M98.979 56.8502C100.569 57.6638 102.266 58.2502 104.022 58.593C106.231 59.1175 108.49 59.3859 110.761 59.3942C112.901 59.4024 115.032 59.0844 117.076 58.4526C118.794 57.957 120.396 57.1228 121.788 55.9995C123.126 54.9629 124.22 53.6413 124.993 52.134C125.769 50.5522 126.157 48.8053 126.124 47.0419C126.157 44.8283 125.443 42.6725 124.097 40.9132C122.457 38.9351 120.281 37.4814 117.828 36.7174L111.604 34.7392C109.882 34.256 108.275 33.4218 106.892 32.2861C106.037 31.4807 105.558 30.3533 105.57 29.1763C105.484 27.5905 106.281 26.0831 107.643 25.2654C109.341 24.4229 111.216 24.0016 113.111 24.0388C116.019 23.9851 118.901 24.5798 121.548 25.7816C122.065 26.0459 122.622 26.2235 123.196 26.302C123.857 26.302 124.233 25.8312 124.233 24.8896V22.8164C124.266 22.3084 124.113 21.8087 123.807 21.404C123.469 20.9249 123.015 20.5367 122.486 20.2724C121.895 19.9544 121.28 19.686 120.648 19.4712C119.847 19.4712 119.046 19.0004 118.15 18.8105L115.321 18.2901H112.351C110.489 18.2571 108.63 18.4966 106.838 18.9963C105.137 19.4712 103.542 20.2518 102.126 21.3049C100.825 22.2547 99.7431 23.4772 98.9666 24.8854C98.1779 26.3309 97.7731 27.9539 97.7896 29.5975C97.8103 31.8979 98.5702 34.128 99.9578 35.9616C101.771 38.1545 104.228 39.7197 106.983 40.4383L113.347 42.4165C114.99 42.784 116.514 43.5646 117.778 44.6796C118.579 45.4973 119.021 46.6 119.005 47.744C119.054 49.4578 118.17 51.0643 116.696 51.9398C114.73 52.993 112.512 53.4844 110.286 53.3522C108.527 53.3646 106.776 53.1912 105.054 52.8319C103.431 52.5015 101.853 51.9935 100.342 51.3245L99.2557 50.8537H98.4546C97.7938 50.8537 97.418 51.3245 97.418 52.2207V54.6242C97.4221 55.0496 97.5171 55.4667 97.6988 55.8508C98.0994 56.3175 98.6197 56.6602 99.2062 56.8419H98.9708L98.979 56.8502Z" fill="#1F2B3C"/>
<path d="M116.984 77.4008C101.278 84.0127 84.4367 87.4858 67.3971 87.6304C44.4807 87.6015 21.9649 81.6091 2.06749 70.2356C0.465122 69.294 -0.761434 70.9418 0.560108 72.1684C18.4959 88.3407 41.8335 97.2198 65.9847 97.0546C85.0355 97.1207 103.665 91.4381 119.437 80.746C121.7 78.9536 119.627 76.3147 117.223 77.4008H116.988H116.984Z" fill="#F89A1C"/>
<path d="M131.123 69.1478C129.566 67.2151 115.992 65.5177 107.554 71.316C106.282 72.2576 106.518 73.4841 107.885 73.2942C112.597 72.7284 122.967 71.5018 124.805 73.86C126.642 76.2181 122.732 85.9727 120.989 90.3586C120.468 91.6306 121.6 92.1963 122.781 91.1598C131.028 84.6553 133.056 71.126 131.454 69.1478H131.123Z" fill="#F89A1C"/>
</g>
<defs>
<clipPath id="clip0_997_6619">
<rect width="131.96" height="79.057" fill="white" transform="translate(0 18)"/>
</clipPath>
</defs>
</svg>
