<svg width="140" height="140" viewBox="0 0 140 140" fill="none" xmlns="http://www.w3.org/2000/svg">
<path d="M69.6283 15C84.0284 15 98.4285 15 112.834 15C117.723 15 119.913 17.1545 119.928 21.9881C119.943 25.6714 119.973 29.3547 119.918 33.038C119.892 34.5315 120.453 35.0512 121.966 35.1369C128.208 35.4851 131.982 39.461 131.992 45.6418C132.012 65.6526 132.012 85.6634 131.992 105.674C131.987 111.663 127.713 115.851 121.633 115.856C110.079 115.871 98.5244 115.932 86.97 115.806C84.4623 115.781 83.322 116.426 83.7408 119.02C83.7963 119.348 83.7459 119.691 83.7459 120.024C83.7459 122.338 84.9417 123.515 87.3333 123.556C92.5605 123.647 95.7291 126.81 95.8048 132.047C95.825 133.385 95.8149 134.727 95.8048 136.069C95.7846 139.681 95.5071 139.979 91.9651 139.984C80.5772 139.994 69.1894 139.989 57.8015 139.989C54.1182 139.989 50.4349 140.004 46.7516 139.979C43.6284 139.959 43.2248 139.56 43.1895 136.538C43.1693 134.949 43.1693 133.354 43.1995 131.765C43.2853 126.881 46.5397 123.702 51.444 123.525C52.6802 123.48 54.542 124.318 55.0214 122.703C55.6016 120.745 55.5713 118.525 54.981 116.517C54.6732 115.468 53.3714 115.886 52.5036 115.881C41.035 115.856 29.5613 115.866 18.0927 115.856C10.9936 115.851 7.01261 111.916 7.00757 104.872C6.99748 85.1942 6.99748 65.5214 7.00757 45.8437C7.00757 39.3702 10.5798 35.5154 17.0483 35.1319C18.5771 35.0411 19.1069 34.4961 19.0817 33.0178C19.0211 29.5868 19.0665 26.1507 19.0665 22.7197C19.0716 16.9426 20.9788 15.005 26.6753 15.005C40.9946 15.005 55.309 15.005 69.6283 15.005V15ZM69.4063 87.3638C83.5592 87.3638 97.7171 87.3739 111.87 87.3587C114.882 87.3587 115.548 86.6776 115.553 83.6502C115.568 68.4075 115.543 53.1648 115.599 37.9221C115.604 36.1006 115.074 35.3842 113.172 35.4245C108.57 35.5254 103.958 35.4498 99.3519 35.4498C96.4456 35.4498 94.4476 36.7549 93.3577 39.3651C92.616 41.1462 94.1751 45.8033 96.0218 46.217C99.5941 47.0193 100.169 49.2999 99.8463 52.3676C99.7353 53.4423 99.7303 54.5523 99.8463 55.6321C100.119 58.0943 99.2308 59.5374 96.7231 60.2185C94.3618 60.8593 92.1972 65.3448 93.3779 67.358C95.0631 70.229 94.2508 72.2068 91.9248 74.0636C91.1427 74.6893 90.4161 75.4108 89.7955 76.1929C88.0649 78.3725 86.1627 78.7964 83.6651 77.3634C81.8336 76.3139 77.1008 77.9739 76.6266 79.9468C75.8142 83.3172 73.7506 84.1043 70.703 83.7209C69.7141 83.5947 68.6848 83.5998 67.6908 83.7209C64.9712 84.0438 63.2457 83.2012 62.5393 80.3101C62.0549 78.3372 57.3373 76.1172 55.7176 77.1313C52.7004 79.0285 50.5964 78.1102 48.6185 75.6177C47.8415 74.6388 46.8879 73.7962 45.9645 72.9485C44.5417 71.6417 44.2793 70.2744 45.1522 68.463C46.8071 65.0219 45.1926 61.3588 41.5244 59.941C40.1823 59.4213 39.153 58.7452 39.1782 57.0903C39.2186 54.5776 39.1883 52.0649 39.1833 49.5522C39.1833 48.311 39.7534 47.2716 40.929 47.1051C44.1532 46.656 44.799 44.0474 45.8031 41.6911C46.7617 39.4509 44.7132 37.9826 44.3045 36.0855C44.0422 34.8746 42.5537 35.4952 41.6354 35.48C36.4435 35.4195 31.2516 35.5103 26.0597 35.4144C24.1676 35.3791 23.3855 35.8736 23.3956 37.9423C23.4713 53.0992 23.4259 68.2612 23.4461 83.4181C23.4461 86.723 24.1222 87.3638 27.4472 87.3638C41.4336 87.3739 55.42 87.3638 69.4063 87.3638ZM69.7545 99.781C51.9133 99.781 34.0721 99.7507 16.2359 99.8012C10.9936 99.8163 11.2408 98.5751 11.4275 105.054C11.5435 109.07 13.7333 111.139 17.7446 111.461C18.4964 111.522 19.2532 111.497 20.005 111.497C42.034 111.497 64.058 111.497 86.087 111.497C97.3942 111.497 108.701 111.512 120.008 111.492C125.392 111.482 127.597 109.226 127.632 103.807C127.632 103.474 127.587 103.131 127.632 102.803C128.016 100.331 126.906 99.7204 124.534 99.7305C106.274 99.8163 88.0195 99.781 69.7595 99.781H69.7545ZM69.2348 95.4064C87.6562 95.4064 106.073 95.3509 124.489 95.467C127.113 95.4821 127.718 94.6647 127.673 92.1823C127.531 83.731 127.622 75.2695 127.622 66.8131C127.622 60.1176 127.648 53.4171 127.607 46.7216C127.587 42.9525 126.124 40.7375 123.268 39.8899C120.382 39.0321 119.928 39.3702 119.928 42.4278C119.923 56.6614 119.938 70.895 119.918 85.1286C119.913 89.2861 117.667 91.7181 113.707 91.7232C84.2353 91.7484 54.764 91.7333 25.2978 91.7534C23.4158 91.7534 21.8769 91.1177 20.5953 89.7705C19.2835 88.3931 19.0463 86.7079 19.0514 84.8914C19.0766 70.6579 19.0716 56.4243 19.0564 42.1907C19.0564 39.3853 18.6578 39.0977 15.9635 39.8243C12.7696 40.6871 11.3871 42.7659 11.3821 46.9436C11.3619 62.0955 11.4225 77.2524 11.3115 92.4043C11.2913 94.9019 12.1339 95.467 14.4801 95.4519C32.73 95.3661 50.9798 95.4064 69.2348 95.4064ZM89.1043 37.0492C88.9933 35.3892 85.9457 33.487 84.4674 34.2994C82.7065 35.2631 81.1726 35.0865 79.5177 34.0824C78.5287 33.482 77.4086 33.0127 76.2885 32.7352C74.2349 32.2256 72.807 31.2115 72.363 29.0368C72.025 27.3869 70.7434 27.4121 69.4315 27.397C68.1702 27.3819 67.0349 27.4828 66.717 28.9763C66.2629 31.1257 64.8905 32.1954 62.8117 32.6999C61.6109 32.9926 60.4353 33.5425 59.3606 34.1732C57.7712 35.1067 56.2272 35.3589 54.653 34.2943C53.2857 33.3659 52.3522 33.9563 51.4188 34.9957C50.5308 35.9795 49.2845 36.7667 50.3643 38.3762C51.4743 40.0211 51.2826 41.6356 50.2684 43.3108C49.6226 44.3703 49.1029 45.5611 48.8052 46.767C48.3158 48.7398 47.342 50.1173 45.2733 50.5361C43.6688 50.864 43.5124 52.0043 43.5174 53.3818C43.5225 54.7592 43.6991 55.8995 45.2935 56.2275C47.3672 56.6513 48.3259 58.059 48.8153 60.0117C49.0978 61.1318 49.5671 62.2519 50.1625 63.2459C51.1968 64.9715 51.555 66.6466 50.3542 68.4075C49.3602 69.8606 50.3542 70.6932 51.2674 71.6014C52.1706 72.4944 52.993 73.5439 54.4512 72.5449C56.202 71.3491 57.8721 71.6367 59.6027 72.7013C60.5917 73.3068 61.7068 73.7861 62.8319 74.0586C64.8098 74.5329 66.1771 75.5167 66.6161 77.5753C66.9542 79.1395 68.044 79.3867 69.4517 79.3615C70.7989 79.3363 71.9897 79.2707 72.3277 77.6409C72.7515 75.5924 74.0886 74.5783 76.0715 74.0788C77.3531 73.7558 78.6044 73.1756 79.7548 72.5146C81.2786 71.6417 82.7519 71.3945 84.2353 72.3986C85.7086 73.3926 86.6572 72.7215 87.6814 71.6468C88.6451 70.6276 89.6189 69.7597 88.5695 68.2259C87.4947 66.6567 87.7622 65.1178 88.6905 63.5234C89.3566 62.378 89.9418 61.1166 90.2294 59.83C90.6634 57.8824 91.7028 56.6765 93.6201 56.2577C95.1691 55.9197 95.4819 54.9156 95.4869 53.4776C95.4869 51.9892 95.2801 50.8741 93.6049 50.4301C92.5756 50.1576 91.1982 49.8801 90.9913 48.7146C90.3304 44.991 86.0517 41.893 88.9983 37.5386C89.0841 37.4125 89.074 37.2157 89.1043 37.0543V37.0492ZM69.4719 19.3745C68.8866 19.3745 68.3013 19.3745 67.711 19.3745C54.1434 19.3745 40.5758 19.3644 27.0083 19.3796C24.1071 19.3796 23.4764 20.0355 23.441 22.9266C23.4209 24.854 23.5319 26.7865 23.4057 28.7038C23.2796 30.6262 24.1071 31.1358 25.9134 31.1156C32.8662 31.0399 39.814 31.0651 46.7668 31.0954C48.013 31.1005 49.0777 30.8532 49.9051 29.8693C51.2473 28.2749 52.771 28.1841 54.6177 29.062C57.8217 30.5858 61.6462 28.9914 62.8168 25.6512C63.4626 23.8146 64.4919 22.9064 66.5102 23.0174C68.599 23.1335 70.698 23.1083 72.7919 23.0326C74.457 22.9771 75.4106 23.6885 76.0211 25.2224C77.5953 29.1781 80.9153 30.6211 84.6541 28.941C86.3494 28.1791 87.7067 28.3405 88.9479 29.7028C89.6997 30.5303 90.5271 31.1055 91.7583 31.1005C99.0441 31.0651 106.33 31.0651 113.616 31.1005C114.988 31.1055 115.619 30.606 115.578 29.1882C115.523 27.2658 115.573 25.3334 115.563 23.411C115.548 19.9396 114.978 19.3796 111.436 19.3745C97.4497 19.3745 83.4633 19.3745 69.477 19.3745H69.4719ZM69.371 135.63C75.5569 135.63 81.7478 135.63 87.9337 135.63C91.4959 135.63 92.1619 134.757 91.2487 131.301C90.6281 128.96 89.1547 127.95 86.0719 127.945C75.0322 127.925 63.9975 127.94 52.9577 127.93C51.9436 127.93 50.9496 128.026 50.0161 128.45C48.2451 129.247 47.1149 131.947 47.5892 134.283C48.0383 136.498 49.8446 135.564 51.0555 135.584C57.1607 135.68 63.2658 135.625 69.366 135.625L69.371 135.63ZM69.3861 123.566C70.9704 123.566 72.5548 123.591 74.1391 123.566C80.103 123.445 79.2351 124.595 79.4067 118.212C79.4571 116.255 78.6196 115.811 76.8637 115.846C72.8625 115.932 68.8563 115.826 64.8552 115.886C58.8913 115.977 59.744 114.852 59.5977 121.235C59.5573 122.935 60.0972 123.672 61.8783 123.596C64.3759 123.49 66.8835 123.571 69.3811 123.571L69.3861 123.566Z" fill="black"/>
<path d="M69.6624 103.469C72.3366 103.469 75.0107 103.51 77.6799 103.454C79.1935 103.424 79.7233 104.08 79.7385 105.558C79.7536 107.112 79.2844 107.859 77.6042 107.839C72.1751 107.783 66.7461 107.798 61.317 107.839C59.7983 107.849 59.2786 107.203 59.2584 105.735C59.2382 104.186 59.7075 103.404 61.3927 103.449C64.1476 103.525 66.9025 103.469 69.6624 103.469Z" fill="#66C6EB"/>
<path d="M69.6261 39.1231C77.7141 39.1382 83.7487 45.309 83.7436 53.5635C83.7436 61.5053 77.5224 67.6407 69.4949 67.6155C61.3261 67.5903 55.226 61.4649 55.2461 53.3062C55.2663 45.1778 61.4219 39.1079 69.6261 39.1231ZM69.8531 43.6187C64.7722 43.2756 60.0344 47.7056 59.7367 53.0792C59.4542 58.0995 63.642 62.6254 69.0206 63.1098C74.0763 63.5639 78.8191 59.2449 79.2379 53.7956C79.6315 48.6996 75.2872 43.987 69.8582 43.6237L69.8531 43.6187Z" fill="#66C6EB"/>
</svg>
