<svg width="140" height="140" viewBox="0 0 140 140" fill="none" xmlns="http://www.w3.org/2000/svg">
<path d="M94.5195 75.7152C97.2273 76.1193 100.325 75.7438 103.387 76.0835C104.013 76.1515 104.313 76.0049 104.41 75.3361C104.717 73.1691 105.039 71.002 105.429 68.8456C105.58 68.0088 105.247 67.7406 104.517 67.5404C101.552 66.7214 98.5973 65.856 95.6427 64.9978C93.8649 64.4793 93.3284 63.8856 93.2926 62.044C93.2389 59.3226 92.731 56.6906 92.0371 54.073C91.5792 52.3422 91.8582 51.7021 93.382 50.6721C95.9324 48.9449 98.4721 47.1998 101.044 45.5083C101.749 45.0435 101.899 44.6215 101.484 43.8598C100.515 42.0861 99.5881 40.2837 98.7046 38.46C98.3326 37.6947 97.9105 37.5302 97.1128 37.8306C94.2727 38.8998 91.4111 39.9154 88.5495 40.9382C86.6001 41.6355 86.1243 41.4924 84.8294 39.9369C83.1268 37.8878 81.2703 35.9961 79.1706 34.3439C77.7363 33.2175 77.5431 32.5523 78.1548 30.8322C79.1706 27.9714 80.1937 25.1142 81.2668 22.2748C81.6102 21.3665 81.5279 20.83 80.5657 20.3902C78.8416 19.6035 77.1353 18.7524 75.4971 17.8047C74.5098 17.2325 74.0484 17.5222 73.4904 18.3805C71.8593 20.8908 70.1495 23.3512 68.4647 25.8294C67.4453 27.3277 66.7764 27.5959 65.0415 27.1382C62.4661 26.4587 59.8656 25.9939 57.1936 25.883C55.2048 25.8008 54.6468 25.2822 54.0924 23.3547C53.2804 20.5189 52.4255 17.6939 51.6815 14.8366C51.4204 13.8317 50.9625 13.5993 49.9967 13.7781C47.9686 14.1607 45.9297 14.4826 43.8837 14.7615C43.1468 14.8616 43.0073 15.1727 43.0753 15.8522C43.3865 18.9598 43.1611 22.0852 43.4294 25.2C43.5796 26.9773 43.0824 27.6245 41.4263 28.2825C38.8687 29.2981 36.4435 30.564 34.1221 32.0302C32.5625 33.0136 31.9473 32.96 30.4735 31.8085C28.0805 29.9382 25.6661 28.093 23.3017 26.187C22.572 25.5969 22.0998 25.5469 21.4202 26.2871C20.0824 27.7461 18.6695 29.1479 17.2172 30.4925C16.5197 31.1398 16.5805 31.5868 17.1349 32.277C19.0379 34.6443 20.8836 37.0546 22.758 39.4469C23.9527 40.9739 24.0063 41.5818 22.9797 43.2018C21.5096 45.5262 20.2505 47.9508 19.2311 50.5041C18.6015 52.0775 17.9433 52.5138 16.23 52.4602C13.0715 52.3636 9.913 52.2277 6.75452 52.0847C6.23228 52.0597 5.8567 52.0775 5.7637 52.7248C5.43462 54.9741 5.0948 57.2235 4.70491 59.4656C4.57614 60.2023 4.90522 60.4097 5.52404 60.5814C8.40709 61.3824 11.2794 62.2335 14.1589 63.0488C16.3444 63.6711 16.8559 64.2647 16.8881 66.5105C16.9239 69.0638 17.4533 71.5276 18.0936 73.9772C18.5729 75.8118 18.3332 76.434 16.7665 77.4996C14.2555 79.2054 11.7552 80.9362 9.21191 82.5919C8.39994 83.1212 8.28905 83.5682 8.76837 84.4193C9.70196 86.0714 10.5604 87.7665 11.3366 89.4973C11.7909 90.5093 12.331 90.6309 13.304 90.2554C16.0976 89.1826 18.9234 88.1849 21.7421 87.18C23.5234 86.547 24.1029 86.7187 25.2619 88.1455C26.9681 90.2518 28.8961 92.1328 30.9993 93.8386C32.4373 95.0044 32.6126 95.6159 31.9902 97.3574C30.9564 100.258 29.9155 103.154 28.8317 106.033C28.5205 106.859 28.6385 107.327 29.4863 107.721C31.2819 108.558 33.0561 109.452 34.7945 110.399C35.5886 110.832 36.0322 110.746 36.5401 109.967C38.2213 107.388 39.974 104.853 41.7017 102.307C42.6854 100.858 43.3435 100.579 45.0104 101.012C47.6288 101.692 50.2722 102.164 52.9835 102.296C54.9902 102.393 55.491 102.875 56.0597 104.846C56.8896 107.721 57.7302 110.592 58.535 113.475C58.7496 114.24 59.0358 114.605 59.9408 114.429C62.0476 114.022 64.1795 113.714 66.3042 113.407C66.9481 113.314 67.1234 113.049 67.0912 112.405C66.9302 109.248 66.8265 106.09 66.6905 102.932C66.6476 101.963 66.8014 101.069 67.6313 100.444C68.2823 99.9501 69.0013 99.8177 69.7739 100.15C70.7075 100.554 71.0473 101.334 71.0795 102.282C71.1725 105.06 71.2512 107.842 71.3442 110.625C71.3871 111.844 71.4336 113.067 71.5123 114.286C71.6232 116.067 70.9615 117.026 69.2159 117.319C65.5602 117.938 61.9009 118.524 58.231 119.057C56.2457 119.347 55.5768 118.842 55.0152 116.904C54.1353 113.868 53.2411 110.836 52.3933 107.789C52.1859 107.049 51.8317 106.648 51.0448 106.534C49.2098 106.269 47.3784 105.979 45.5648 105.618C44.7886 105.464 44.5132 105.918 44.177 106.416C42.3849 109.073 40.5893 111.73 38.7864 114.379C37.6847 115.999 36.7869 116.25 35.0378 115.366C31.8006 113.732 28.567 112.087 25.3441 110.421C23.5664 109.502 23.2766 108.74 23.9563 106.827C25.0294 103.809 26.0989 100.787 27.2399 97.7937C27.5476 96.9855 27.4152 96.5027 26.7892 95.9342C25.5731 94.8292 24.3927 93.6741 23.2909 92.4547C22.6399 91.7359 22.0283 91.6608 21.1698 91.9826C18.2474 93.0805 15.3107 94.1354 12.3704 95.176C10.3887 95.8769 9.55888 95.5301 8.5931 93.6312C6.98345 90.4735 5.38096 87.3159 3.7892 84.1511C2.89495 82.3702 3.09884 81.5191 4.7371 80.3962C7.37692 78.5796 10.0239 76.7666 12.7031 75.0071C13.4149 74.5423 13.6617 74.0738 13.4471 73.2406C13.0572 71.7315 12.7639 70.1974 12.7031 68.6311C12.6601 67.5332 12.188 66.9396 11.0362 66.6428C8.05655 65.8811 5.11269 64.9728 2.15809 64.1073C0.315945 63.5674 -0.191987 62.8665 0.0870176 60.9533C0.619989 57.2878 1.20661 53.626 1.82186 49.9712C2.1259 48.1653 3.11315 47.5324 4.94814 47.6361C8.10305 47.8113 11.2651 47.89 14.42 48.0581C15.2856 48.1045 15.6791 47.7398 16.0225 46.9852C16.7057 45.4905 17.4533 44.0207 18.2939 42.6117C18.7947 41.7749 18.6802 41.1992 18.1007 40.4768C16.1692 38.0809 14.2984 35.6349 12.4026 33.2067C11.0076 31.4223 11.0433 30.5605 12.6566 28.9298C15.0889 26.473 17.5356 24.0235 19.9965 21.5917C21.5454 20.0612 22.4539 20.0362 24.1816 21.3843C26.6426 23.3047 29.1179 25.2036 31.5538 27.1561C32.2477 27.7139 32.8021 27.7568 33.5819 27.2991C35.0378 26.4516 36.5508 25.697 38.0746 24.9747C38.7185 24.6707 39.0905 24.3417 39.0547 23.5693C38.9081 20.3687 38.8473 17.1682 38.6613 13.9712C38.5504 12.0687 39.162 11.1354 41.0793 10.8135C44.5704 10.2271 48.0616 9.6406 51.5599 9.11134C53.9278 8.75374 54.5252 9.18287 55.2013 11.5001C56.0526 14.4146 56.9397 17.3184 57.723 20.2472C57.9734 21.1841 58.467 21.5917 59.3684 21.649C61.0568 21.7634 62.7093 22.096 64.3512 22.4715C65.063 22.636 65.5137 22.4428 65.9286 21.8135C67.6957 19.1386 69.5092 16.4959 71.3192 13.8496C72.5389 12.0687 73.3402 11.8685 75.2574 12.834C78.3479 14.3896 81.4349 15.9452 84.5218 17.5115C86.6215 18.5771 86.9148 19.3174 86.1136 21.5739C85.0798 24.474 84.0461 27.3742 82.9658 30.2529C82.6546 31.0826 82.7655 31.6583 83.438 32.2591C84.5647 33.2747 85.6843 34.3117 86.6644 35.4668C87.4657 36.4109 88.224 36.486 89.315 36.0604C92.105 34.9769 94.9309 33.9827 97.7531 32.9779C99.7991 32.2484 100.565 32.5452 101.541 34.4512C103.179 37.641 104.796 40.838 106.402 44.0457C107.275 45.7908 107.021 46.6741 105.383 47.7827C102.729 49.5815 100.085 51.3945 97.4061 53.1575C96.748 53.5902 96.4976 54.0408 96.7015 54.8204C97.1092 56.3688 97.3847 57.9494 97.4669 59.555C97.5206 60.5993 97.9677 61.1821 99.0659 61.4682C102.045 62.2407 104.986 63.149 107.944 64.0036C109.865 64.5615 110.366 65.2374 110.072 67.2364C109.525 70.9877 108.913 74.7282 108.287 78.4688C108.044 79.9135 107.021 80.5643 105.404 80.4999C101.613 80.3498 97.8246 80.2031 94.033 80.0851C92.08 80.0243 90.9532 79.209 91.0033 77.8C91.0534 76.4197 92.2266 75.6365 94.5302 75.6866L94.5195 75.7152Z" fill="black"/>
<path d="M60.4162 50.3056C62.7519 52.605 65.0054 54.9938 67.4449 57.1788C69.0403 58.602 69.5303 60.0789 69.144 62.1924C68.4465 66.0009 68.0387 69.8594 67.4914 73.6965C67.2053 75.6955 66.5936 76.2534 64.5619 76.5395C60.4734 77.1152 56.3885 77.691 52.3035 78.2882C50.9658 78.4848 49.8819 78.2309 48.8911 77.1796C46.4087 74.5512 43.8225 72.0158 40.9967 69.1621C40.9967 71.3506 40.9931 73.1387 40.9967 74.9267C40.9967 75.3951 41.3365 75.6812 41.6334 75.978C45.5108 79.858 49.3955 83.7273 53.2586 87.6181C53.7451 88.108 54.1993 88.2868 54.9291 88.1723C58.0482 87.6824 61.1852 87.2998 64.3151 86.8528C65.7423 86.649 66.8583 86.9744 67.9421 88.0615C80.8229 101.01 93.7537 113.913 106.674 126.826C106.853 127.005 107.039 127.176 107.203 127.369C108.015 128.321 108.029 129.519 107.243 130.345C106.416 131.21 105.118 131.271 104.184 130.37C102.421 128.675 100.711 126.922 98.9797 125.195C87.9411 114.159 76.8989 103.127 65.8782 92.0774C65.2129 91.4122 64.5726 91.187 63.6319 91.3336C60.3446 91.8414 57.0431 92.2633 53.7487 92.7175C52.8365 92.8427 52.1032 92.5065 51.4701 91.8736C46.8486 87.2462 42.2272 82.6223 37.5985 78.0057C37.0262 77.4335 36.7508 76.797 36.758 75.978C36.7794 72.1409 36.783 68.3003 36.758 64.4632C36.7508 63.4476 37.0083 62.5965 37.9884 62.1781C39.0508 61.7239 39.9272 62.0958 40.7177 62.8969C43.9835 66.194 47.3029 69.4374 50.5401 72.7632C51.3914 73.6357 52.164 73.9611 53.416 73.7287C56.3133 73.1923 59.2429 72.8204 62.1689 72.4699C63.0703 72.3626 63.3386 71.9907 63.4494 71.1396C63.8644 67.9677 64.3473 64.8029 64.8409 61.6417C64.9661 60.8478 64.544 60.3865 64.054 59.9001C60.6773 56.5351 57.3113 53.1593 53.9382 49.7907C53.4553 49.3079 53.0154 48.8215 52.976 48.0742C52.9116 46.7617 53.7272 45.8177 55.1115 45.8105C59.1177 45.7819 63.1275 45.8034 67.1373 45.7891C67.867 45.7891 68.4322 46.0751 68.9294 46.5758C73.5222 51.171 78.1079 55.7734 82.7223 60.3436C83.5593 61.1732 83.5843 62.1387 83.4663 63.1543C83.1157 66.1225 82.7795 69.0941 82.3252 72.048C82.1285 73.3282 82.3753 74.2365 83.3375 75.1913C92.4409 84.2172 101.491 93.2932 110.555 102.359C110.794 102.598 111.045 102.827 111.263 103.081C112.071 104.025 112.082 105.237 111.295 106.056C110.469 106.922 109.178 106.975 108.237 106.074C106.563 104.468 104.939 102.809 103.301 101.168C95.2167 93.0858 87.147 84.9861 79.0308 76.9364C78.0042 75.9172 77.5607 74.8981 77.7753 73.4569C78.2296 70.3744 78.5372 67.2739 78.9771 64.1878C79.1095 63.2652 78.9414 62.5965 78.2617 61.9278C74.5059 58.2265 70.7823 54.4932 67.0658 50.7526C66.5543 50.2377 66.0249 49.973 65.288 49.9945C63.732 50.0338 62.1725 50.0052 60.6129 50.0052C60.5449 50.1053 60.4805 50.2055 60.4126 50.3056H60.4162Z" fill="black"/>
<path d="M24.5831 63.8662C24.3077 49.2366 35.7218 35.7978 50.9634 33.8846C60.5247 32.6866 68.8733 35.408 76.0023 41.8806C76.2205 42.0773 76.4315 42.2919 76.614 42.5172C77.4438 43.5471 77.4152 44.7701 76.5496 45.5926C75.709 46.39 74.5572 46.4258 73.5842 45.5568C72.3895 44.4876 71.1948 43.4291 69.8677 42.5172C53.8607 31.503 31.6298 41.3013 29.108 60.5619C28.0349 68.7546 30.4064 75.9747 36.033 82.079C36.1761 82.2328 36.3299 82.3794 36.4623 82.5439C37.3386 83.606 37.3601 84.761 36.5195 85.6157C35.6574 86.4918 34.3626 86.5169 33.3539 85.537C31.4402 83.6775 29.8448 81.5497 28.5357 79.2217C25.903 74.5371 24.4829 69.5271 24.5831 63.8626V63.8662Z" fill="black"/>
<path d="M75.3761 82.24C76.2131 82.1577 76.764 82.7621 77.3363 83.3307C84.5582 90.5471 91.7802 97.7636 98.9985 104.98C106.217 112.197 113.435 119.417 120.654 126.637C120.893 126.876 121.14 127.105 121.362 127.363C122.21 128.342 122.188 129.608 121.319 130.424C120.489 131.203 119.244 131.228 118.354 130.363C116.118 128.185 113.925 125.964 111.715 123.754C99.274 111.317 86.8332 98.8793 74.3924 86.4418C73.7951 85.8446 73.1655 85.2868 73.2049 84.3141C73.255 83.1018 74.0777 82.2507 75.3761 82.24Z" fill="#66C6EB"/>
<path d="M46.4464 128.45C42.4688 127.956 38.3302 127.005 34.2918 125.628C23.0672 121.802 13.5739 115.393 5.82613 106.414C5.50062 106.035 5.1465 105.634 4.96765 105.18C4.58849 104.226 4.79595 103.346 5.62939 102.691C6.42348 102.073 7.28911 102.083 8.09751 102.623C8.54464 102.924 8.91665 103.346 9.27792 103.757C19.154 114.993 31.466 121.777 46.264 124.033C46.5966 124.083 46.9257 124.158 47.2548 124.233C48.6319 124.555 49.3831 125.435 49.2615 126.565C49.1292 127.781 48.1812 128.485 46.45 128.45H46.4464Z" fill="black"/>
<path d="M119.965 61.8858C119.965 62.5616 119.979 63.2339 119.965 63.9098C119.929 65.2937 119.171 66.1413 117.951 66.1842C116.71 66.2307 115.905 65.4547 115.754 64.0886C115.447 61.285 115.501 58.4599 115.093 55.6563C113.326 43.4155 108.289 32.7195 100.08 23.5005C99.6831 23.0571 99.2753 22.6136 99.1609 22.0129C98.9605 20.9758 99.3469 20.1605 100.284 19.7027C101.375 19.1663 102.337 19.4882 103.121 20.3715C104.716 22.1702 106.254 24.0119 107.663 25.9644C114.367 35.255 118.337 45.604 119.643 56.9723C119.829 58.5994 120.079 60.2336 119.972 61.8858H119.965Z" fill="black"/>
<path d="M97.6919 15.5144C97.6848 16.7553 96.7619 17.635 95.5135 17.5993C94.3331 17.5635 93.4961 16.6838 93.4961 15.4822C93.4961 14.2807 94.3438 13.4224 95.5421 13.4046C96.7977 13.3867 97.6991 14.27 97.6919 15.5144Z" fill="#66C6EB"/>
<path d="M50.9344 57.9421C52.1935 57.9135 53.1021 58.7896 53.1021 60.0341C53.1021 61.2249 52.2507 62.1046 51.0668 62.1368C49.822 62.169 48.9134 61.2857 48.9063 60.0376C48.9027 58.8361 49.7433 57.9671 50.9344 57.9421Z" fill="#66C6EB"/>
<path d="M52.9866 63.9817C53.0367 62.7515 53.9881 61.9147 55.2472 61.9934C56.4205 62.0649 57.2253 62.9768 57.1752 64.1855C57.1252 65.4121 56.1665 66.256 54.9146 66.1738C53.7413 66.0987 52.9365 65.1832 52.9866 63.9781V63.9817Z" fill="#66C6EB"/>
<path d="M117.919 110.632C117.94 111.833 117.107 112.72 115.923 112.763C114.664 112.806 113.741 111.941 113.723 110.703C113.705 109.509 114.542 108.615 115.722 108.568C116.974 108.518 117.897 109.387 117.919 110.632Z" fill="#66C6EB"/>
<path d="M55.0415 124.772C56.297 124.757 57.1949 125.648 57.1806 126.889C57.1698 128.079 56.3113 128.945 55.1202 128.963C53.8754 128.984 52.9812 128.09 52.9883 126.839C52.9955 125.637 53.8432 124.786 55.0415 124.772Z" fill="#66C6EB"/>
</svg>
