<svg width="140" height="140" viewBox="0 0 140 140" fill="none" xmlns="http://www.w3.org/2000/svg">
<g clip-path="url(#clip0_998_6663)">
<path d="M0 113.775C4.1897 113.746 8.37939 113.692 12.5691 113.687C25.9644 113.677 39.3598 113.687 52.7552 113.687C53.9832 113.687 54.5989 113.056 54.6021 111.794C54.6021 107.196 54.5633 102.598 54.6264 98.0002C54.641 96.7741 54.3251 96.3264 53.0274 96.3508C49.8972 96.414 50.2083 96.7546 50.252 93.6406C50.2666 92.4242 49.9556 91.9181 48.6481 91.9863C46.6942 92.0884 44.7306 91.9863 42.7718 92.0203C41.8581 92.0398 41.4498 91.7381 41.4644 90.7698C41.5227 86.8092 41.0464 87.539 44.6674 87.466C46.1255 87.4368 47.5837 87.4271 49.0418 87.466C49.9361 87.4952 50.2423 87.1303 50.2326 86.2594C50.1986 82.6344 50.534 83.3302 47.4281 83.2767C45.8339 83.2475 44.2397 83.2524 42.6455 83.2767C41.8629 83.2864 41.4692 83.0188 41.4741 82.1771C41.513 77.9488 41.0318 78.8149 44.6528 78.7273C46.1547 78.6932 47.6614 78.703 49.1633 78.7273C49.9118 78.7419 50.2375 78.4451 50.2277 77.6812C50.184 73.813 50.5971 74.6061 47.3115 74.5331C45.761 74.499 44.2105 74.499 42.6649 74.5331C41.7803 74.5525 41.4498 74.1876 41.4644 73.3167C41.5276 69.283 41.0415 70.0615 44.6334 69.9788C46.1353 69.9448 47.642 69.9545 49.1439 69.9788C49.8778 69.9886 50.2326 69.7258 50.2277 68.9473C50.1937 65.0645 50.602 65.8625 47.3261 65.7846C45.7756 65.7457 44.2251 65.7505 42.6795 65.7846C41.8046 65.8041 41.4595 65.4586 41.4692 64.5828C41.5081 60.554 41.0658 61.2985 44.6237 61.2352C46.0818 61.2109 47.5399 61.2011 48.9981 61.2352C49.8438 61.2595 50.2326 61.0065 50.2472 60.082C50.2618 59.0651 49.7611 57.7854 50.5777 57.0848C51.297 56.462 52.5121 56.8658 53.5037 56.8707C54.3445 56.8707 54.6216 56.5252 54.6119 55.7224C54.5827 53.6302 54.6362 51.5331 54.5876 49.4408C54.5633 48.4239 54.9667 48.0784 55.9533 48.1028C59.7105 48.1952 59.1029 47.6502 59.1515 51.28C59.1709 52.7835 59.1758 54.287 59.1515 55.7856C59.1418 56.5204 59.4042 56.8707 60.1819 56.8658C64.0508 56.8366 63.278 57.2259 63.3461 53.961C63.3801 52.4137 63.3801 50.8665 63.3461 49.3192C63.3266 48.4433 63.6766 48.1028 64.5515 48.1125C68.5807 48.1563 67.8225 47.6892 67.8954 51.2654C67.9246 52.7203 67.9295 54.18 67.8906 55.6348C67.8663 56.4863 68.1287 56.8804 69.0522 56.8658C72.7073 56.8172 72.0414 57.221 72.09 53.9756C72.1143 52.4283 72.124 50.8811 72.09 49.3338C72.0705 48.4725 72.3816 48.0979 73.2759 48.1076C77.349 48.1563 76.5762 47.7086 76.6442 51.2411C76.6734 52.7446 76.6782 54.2481 76.6442 55.7467C76.6248 56.5739 76.965 56.8756 77.7767 56.8658C81.4706 56.8172 80.7756 57.2113 80.8436 53.9902C80.8728 52.4867 80.8874 50.9832 80.8388 49.4846C80.8048 48.5163 81.1207 48.0882 82.156 48.1028C86.0637 48.1563 85.3201 47.7476 85.4027 51.2314C85.4367 52.7349 85.4319 54.2384 85.4027 55.737C85.3833 56.5593 85.7284 56.8415 86.5352 56.8756C87.5608 56.9194 88.8245 56.3987 89.5438 57.1918C90.1902 57.9071 89.7674 59.1186 89.7625 60.1064C89.7577 61.06 90.2194 61.2449 91.036 61.2352C93.0871 61.206 95.1382 61.2595 97.1844 61.2109C98.1857 61.1865 98.5599 61.5515 98.5405 62.5587C98.4676 66.3928 98.9585 65.7068 95.3909 65.7749C93.9328 65.7992 92.4747 65.8235 91.0165 65.7651C90.0444 65.7262 89.748 66.1252 89.7674 67.0545C89.8452 70.5286 89.4077 69.9156 92.6545 69.9691C94.2487 69.9934 95.8429 69.9885 97.4372 69.9739C98.1614 69.9691 98.5648 70.2367 98.5259 71.0055C98.5259 71.0979 98.5308 71.1855 98.5308 71.278C98.4822 75.1413 98.9536 74.4455 95.4104 74.5185C93.9085 74.5477 92.4017 74.5477 90.8999 74.5136C90.0736 74.4942 89.7674 74.8299 89.7771 75.6473C89.8257 79.3501 89.4126 78.6397 92.6448 78.7127C94.1466 78.7468 95.6534 78.7516 97.1553 78.7078C98.1128 78.6786 98.5648 78.9657 98.5502 80.0167C98.487 83.8752 98.9439 83.2135 95.4298 83.267C93.9279 83.2913 92.4212 83.301 90.9193 83.267C90.1076 83.2475 89.7674 83.5492 89.782 84.3812C89.8452 88.0694 89.3494 87.4125 92.7614 87.4612C94.3119 87.4855 95.8624 87.4904 97.408 87.4612C98.2294 87.4466 98.5453 87.792 98.5356 88.5997C98.4919 92.7502 98.9779 91.923 95.3083 92.0057C93.8988 92.0398 92.4844 92.0495 91.07 92.0009C90.1562 91.9668 89.7771 92.2539 89.7625 93.2367C89.7042 96.2388 89.6702 96.268 86.5741 96.3702C85.67 96.3994 85.393 96.7352 85.3979 97.5964C85.4222 102.559 85.4416 107.522 85.3881 112.48C85.3736 113.76 86.1123 113.697 86.9775 113.697C98.278 113.687 109.579 113.692 120.874 113.692C126.707 113.692 132.539 113.692 138.372 113.692C138.916 113.692 139.46 113.75 140.005 113.78V118.149C139.689 118.178 139.373 118.237 139.057 118.237C120.155 118.237 101.253 118.227 82.3504 118.261C81.0964 118.261 80.8242 117.779 80.8339 116.65C80.8728 110.734 80.8582 104.817 80.8534 98.9004C80.8534 96.0248 81.1401 96.4675 78.2725 96.3605C77.0282 96.3167 76.6296 96.6768 76.6345 97.9613C76.688 107.109 76.6734 116.256 76.6588 125.404C76.6491 130.269 76.6005 135.14 76.5713 140.006H72.1969C72.1677 139.373 72.1143 138.736 72.1143 138.103C72.1094 124.995 72.1143 111.887 72.1046 98.7787C72.1046 96.1269 72.4011 96.4675 69.6695 96.3556C68.3086 96.2972 67.8663 96.6816 67.876 98.0975C67.944 106.335 67.9197 114.573 67.9052 122.81C67.8954 128.542 67.8468 134.274 67.8177 140.006H63.4433C63.4141 139.509 63.3558 139.008 63.3558 138.512C63.3558 125.316 63.3558 112.116 63.3509 98.9198C63.3509 96.0734 63.696 96.4821 60.7895 96.3556C59.414 96.2972 59.1223 96.8179 59.1369 98.0829C59.1952 104.136 59.1661 110.189 59.1661 116.242C59.1661 118.232 59.1564 118.241 57.1198 118.241C42.2275 118.241 27.3302 118.251 12.4379 118.241C8.29676 118.241 4.15081 118.183 0.00972087 118.154V113.784L0 113.775ZM85.218 76.781C85.218 72.1392 85.1889 67.5022 85.2423 62.8603C85.2569 61.7169 84.8729 61.386 83.7502 61.3909C74.5542 61.425 65.3534 61.425 56.1575 61.3909C55.0687 61.3909 54.7528 61.751 54.7577 62.8117C54.7917 72.0029 54.7917 81.1893 54.7577 90.3806C54.7577 91.5289 55.1368 91.85 56.2498 91.8451C65.4458 91.8111 74.6466 91.8111 83.8425 91.8451C84.9313 91.8451 85.2521 91.4851 85.2423 90.4244C85.1986 85.875 85.2229 81.3256 85.2229 76.7762L85.218 76.781Z" fill="black"/>
<path d="M0.00190837 59.6817C0.769857 55.5312 2.04815 51.5657 4.41518 48.0186C9.13953 40.9391 15.6817 36.6281 24.1145 35.3046C25.5095 35.0857 26.1948 34.7159 26.3649 33.1248C27.1474 25.7387 29.9276 19.136 34.7297 13.448C40.9851 6.03762 48.9076 1.50281 58.5653 0.330184C69.6422 -1.01761 79.611 1.74123 88.2237 8.96675C90.6102 10.9665 92.7099 13.2583 94.3624 15.8906C95.1304 17.1168 95.9858 17.5401 97.4391 17.5595C103.218 17.6276 108.341 19.4523 112.448 23.6854C115.607 26.9405 117.328 30.8866 117.931 35.3387C118.081 36.4627 118.315 37.2363 119.68 37.4601C128.249 38.8663 134.072 43.8196 137.669 51.5754C138.869 54.1591 139.458 56.9082 139.992 59.6817V67.3305C139.19 71.4225 138.014 75.3735 135.652 78.8719C130.019 87.2165 122.232 91.7464 112.084 91.9946C109.396 92.0627 106.708 91.9849 104.02 92.014C103.116 92.0238 102.693 91.7416 102.708 90.7684C102.761 86.798 102.29 87.4938 105.901 87.4646C110.358 87.4257 114.82 87.6009 119.151 86.1412C128.245 83.0709 134.568 75.0037 135.321 65.4329C135.827 58.981 134.262 53.1422 130.009 48.1841C126.786 44.4278 122.67 42.2869 117.678 41.9511C117.041 41.9074 116.409 41.8198 115.773 41.776C113.547 41.6251 113.474 41.63 113.488 39.3139C113.503 36.2583 113.002 33.3486 111.627 30.5947C109.07 25.4808 104.735 23.0285 99.2423 22.3425C97.5266 22.1284 95.7962 21.9289 94.0659 22.0797C93.0112 22.1722 92.4085 21.7635 91.903 20.8439C88.6222 14.9126 83.8541 10.514 77.6911 7.7406C57.6904 -1.25603 35.4782 10.227 31.3226 31.2905C30.8803 33.5384 30.8997 35.8204 30.7782 38.0829C30.7101 39.3334 30.2144 39.5767 29.1111 39.5864C24.3819 39.6205 19.8762 40.6034 15.8567 43.2113C9.22702 47.5175 5.40671 53.5509 4.67279 61.4917C3.50142 74.1473 12.5613 85.207 24.8144 87.1094C28.3771 87.6641 31.9982 87.5036 35.59 87.4306C36.8975 87.4063 37.3495 87.8004 37.3009 89.1287C37.1794 92.4082 37.6363 92.0189 34.4673 91.9897C29.9714 91.9459 25.4366 92.4374 21.0282 91.0944C9.56239 87.6009 2.65085 79.9618 0.215768 68.2501C0.152582 67.9387 0.0699545 67.637 -0.0078125 67.3256C-0.0078125 64.776 -0.0078125 62.2264 -0.0078125 59.6768L0.00190837 59.6817Z" fill="black"/>
<path d="M67.9019 33.0082C67.9019 34.4582 67.0967 35.1816 65.4863 35.1783C64.0573 35.1783 63.3444 34.3625 63.3477 32.7309C63.3477 31.3263 64.1756 30.6257 65.8314 30.6289C67.2117 30.6289 67.9019 31.422 67.9019 33.0082Z" fill="#66C6EB"/>
<path d="M76.6529 32.9654C76.6529 34.4511 75.8169 35.1923 74.1449 35.189C72.7742 35.189 72.0905 34.297 72.0938 32.5129C72.0938 31.2576 72.8617 30.6315 74.3976 30.6348C75.9335 30.638 76.6869 31.4149 76.6577 32.9654H76.6529Z" fill="#66C6EB"/>
<path d="M59.1519 41.7514C59.1519 43.2014 58.3467 43.9247 56.7363 43.9215C55.3073 43.9215 54.5944 43.1073 54.5977 41.4789C54.5977 40.0744 55.4256 39.3737 57.0814 39.377C58.4617 39.377 59.1519 40.1684 59.1519 41.7514Z" fill="#66C6EB"/>
<path d="M67.9068 41.7524C67.9036 43.2089 67.0514 43.9339 65.3502 43.9274C64.0087 43.9241 63.3412 43.0159 63.3477 41.2026C63.3477 39.9764 64.1302 39.3666 65.6953 39.3731C67.1729 39.3763 67.91 40.1694 67.9068 41.7524Z" fill="#66C6EB"/>
<path d="M76.6538 41.7474C76.6538 43.1974 75.8956 43.9223 74.3791 43.9223C72.0947 43.9223 72.085 43.9223 72.0996 41.8885C72.119 39.0713 71.8323 39.3973 74.7145 39.3729C76.649 39.3583 76.649 39.3729 76.649 41.7474H76.6538Z" fill="#66C6EB"/>
<path d="M83.2147 39.373C85.4019 39.373 85.4116 39.373 85.397 41.4993C85.3824 44.2339 85.6352 43.8981 82.6898 43.9224C80.8477 43.937 80.8477 43.9225 80.8477 41.4556C80.8477 40.0672 81.6367 39.3747 83.2147 39.3779V39.373Z" fill="#66C6EB"/>
<path d="M19.7772 63.5271C19.7578 66.1059 19.9473 65.7556 17.0359 65.7799C15.2181 65.7945 15.2181 65.7799 15.2278 63.1427C15.2311 61.8646 16.0768 61.2272 17.765 61.2305C19.113 61.2305 19.7853 61.996 19.7821 63.5271H19.7772Z" fill="#66C6EB"/>
<path d="M28.5278 63.5893C28.5311 65.049 27.9154 65.7805 26.6809 65.7838C24.876 65.787 23.972 65.1139 23.9688 63.7645C23.9655 62.0745 24.6962 61.2279 26.1608 61.2246C27.7356 61.2214 28.5246 62.008 28.5278 63.5845V63.5893Z" fill="#66C6EB"/>
<path d="M37.273 63.6195C37.273 65.063 36.4645 65.7831 34.8476 65.7799C33.4284 65.7799 32.7188 64.9608 32.7188 63.3227C32.7188 61.9247 33.5499 61.2272 35.2122 61.2305C36.586 61.2305 37.273 62.0268 37.273 63.6195Z" fill="#66C6EB"/>
<path d="M104.899 65.7789C103.451 65.7789 102.727 65.0669 102.727 63.6429C102.727 62.0372 103.405 61.2344 104.763 61.2344C107.281 61.2344 107.295 61.2344 107.281 63.1661C107.261 65.9979 107.577 65.7643 104.904 65.7838L104.899 65.7789Z" fill="#66C6EB"/>
<path d="M113.855 65.7793C111.293 65.7453 111.483 66.0518 111.473 63.2978C111.468 61.2202 111.478 61.2202 113.991 61.225C115.361 61.2283 116.042 62.1706 116.032 64.052C116.026 65.21 115.3 65.7858 113.855 65.7793Z" fill="#66C6EB"/>
<path d="M122.624 61.2305C124.059 61.2305 124.777 61.9944 124.777 63.5222C124.777 65.05 123.954 65.801 122.308 65.775C120.918 65.775 120.223 64.9884 120.223 63.4152C120.223 61.9555 121.023 61.2272 122.624 61.2305Z" fill="#66C6EB"/>
<path d="M28.5269 72.3471C28.5269 73.7971 27.7217 74.5204 26.1113 74.5172C24.6823 74.5172 23.9694 73.703 23.9727 72.0746C23.9727 70.6701 24.8006 69.9694 26.4564 69.9727C27.8367 69.9727 28.5269 70.7642 28.5269 72.3471Z" fill="#66C6EB"/>
<path d="M37.2788 72.2703C37.2788 73.7754 36.4526 74.5263 34.8 74.5231C33.4035 74.5231 32.7084 73.5954 32.7149 71.7399C32.7181 70.5527 33.4747 69.9623 34.9847 69.9688C36.4947 69.9753 37.2578 70.7424 37.274 72.2703H37.2788Z" fill="#66C6EB"/>
<path d="M105.091 74.523C103.506 74.5198 102.716 73.7348 102.719 72.168C102.722 70.6986 103.566 69.9655 105.251 69.9688C106.605 69.972 107.281 70.8722 107.278 72.6692C107.278 73.9083 106.549 74.5263 105.091 74.523Z" fill="#66C6EB"/>
<path d="M113.854 69.9727C115.306 69.9727 116.03 70.7755 116.027 72.3812C116.027 73.8084 115.21 74.5221 113.577 74.5221C112.171 74.5221 111.469 73.6965 111.473 72.0454C111.473 70.6636 112.265 69.9727 113.849 69.9727H113.854Z" fill="#66C6EB"/>
<path d="M35.0818 78.7168C36.5431 78.7168 37.2738 79.4223 37.2738 80.8334C37.2738 82.452 36.6031 83.263 35.2616 83.2662C32.7244 83.2662 32.7099 83.2662 32.7244 81.354C32.7487 78.5027 32.4231 78.7363 35.0818 78.7168Z" fill="#66C6EB"/>
<path d="M102.727 80.9015C102.727 79.445 103.527 78.7168 105.128 78.7168C106.563 78.7168 107.279 79.5277 107.276 81.1496C107.276 82.5639 106.453 83.2694 104.807 83.2662C103.417 83.2662 102.723 82.478 102.727 80.9015Z" fill="#66C6EB"/>
<path d="M69.8803 83.2659C68.1014 83.2659 66.3273 83.2415 64.5484 83.2756C63.6687 83.2951 63.3381 82.9301 63.3479 82.064C63.3722 78.4245 63.3722 74.7801 63.3479 71.1406C63.343 70.2307 63.7513 69.968 64.5921 69.9729C68.1937 69.9972 71.7904 70.002 75.392 69.9729C76.3349 69.9631 76.68 70.3183 76.6703 71.2574C76.6363 74.8093 76.6266 78.3613 76.68 81.9083C76.6946 83.0177 76.2377 83.3243 75.217 83.2902C73.443 83.2367 71.6641 83.2756 69.8851 83.2756L69.8803 83.2659ZM70.0504 74.5223C68.6214 74.5223 67.907 75.184 67.907 76.5075C67.907 77.9769 68.683 78.7132 70.2351 78.7165C71.4826 78.7165 72.1064 78.1001 72.1064 76.8675C72.1064 75.304 71.4227 74.5223 70.0553 74.5223H70.0504Z" fill="black"/>
</g>
<defs>
<clipPath id="clip0_998_6663">
<rect width="140" height="140" fill="white"/>
</clipPath>
</defs>
</svg>
