<svg width="115" height="115" viewBox="0 0 115 115" fill="none" xmlns="http://www.w3.org/2000/svg">
<path d="M70.5258 40.7357H73.3453L81.4905 32.5905L81.9082 29.1445C66.7665 15.778 43.5841 17.24 30.2176 32.3817C26.4583 36.5587 23.8476 41.5711 22.2812 47.0013C23.2211 46.5836 24.1609 46.5836 25.1007 46.7924L41.3911 44.0774C41.3911 44.0774 42.2265 42.7198 42.6442 42.8243C49.954 34.8879 62.1718 33.9481 70.5258 40.7357Z" fill="#EA4335"/>
<path d="M93.1851 46.9993C91.3055 40.1073 87.4417 33.9462 82.116 29.1426L70.6292 40.6294C75.4328 44.5976 78.2523 50.5498 78.0434 56.7109V58.695C83.6824 58.695 88.1727 63.2897 88.1727 68.8243C88.1727 74.3588 83.578 78.9536 78.0434 78.9536H57.7849L55.8008 81.0421V93.2599L57.7849 95.2439H78.1478C92.7674 95.3484 104.672 83.5483 104.776 68.9287C104.881 60.2614 100.495 52.0118 93.1851 46.9993Z" fill="#4285F4"/>
<path d="M37.317 95.2458H57.6799V78.9555H37.317C35.855 78.9555 34.393 78.6422 33.1399 78.0156L30.3204 78.9555L22.0708 87.1006L21.3398 89.9201C25.9346 93.4706 31.5735 95.3503 37.317 95.2458Z" fill="#34A853"/>
<path d="M37.3159 42.4082C22.6963 42.5126 10.8963 54.4171 11.0007 69.0367C11.0007 77.1819 14.8644 84.9094 21.3388 89.8174L33.1389 78.0173C28.0221 75.7199 25.7247 69.6633 28.022 64.5464C30.3194 59.4296 36.3761 57.1322 41.4929 59.4296C43.7903 60.4738 45.5655 62.2491 46.6098 64.5464L58.4099 52.7463C53.3975 46.2719 45.5655 42.4082 37.3159 42.4082Z" fill="#FBBC05"/>
</svg>
