<svg width="21" height="21" viewBox="0 0 21 21" fill="none" xmlns="http://www.w3.org/2000/svg">
<path d="M18.5014 7.50355L11.8952 2.13542C11.0858 1.4783 9.91156 1.4783 9.10219 2.13542L2.49681 7.50267C2.26494 7.6908 2.13281 7.96905 2.13281 8.26655V18.3667C2.13281 18.9092 2.57469 19.3554 3.11719 19.3554H7.54644C8.08894 19.3554 8.53081 18.9092 8.53081 18.3667V11.9739H12.4674V18.3667C12.4674 18.9092 12.9093 19.3554 13.4518 19.3554H17.8811C18.4236 19.3554 18.8654 18.9092 18.8654 18.3667V8.26655C18.8646 7.96905 18.7324 7.6908 18.5014 7.50355ZM17.8802 18.3719H13.4509V11.9695C13.4509 11.427 13.0091 10.9904 12.4666 10.9904H8.52994C7.98744 10.9904 7.54556 11.427 7.54556 11.9695V18.3719H3.11719V8.26655L9.72344 2.8993C10.1723 2.53355 10.8259 2.53442 11.2748 2.8993L17.8811 8.26655L17.8802 18.3719Z" fill="black"/>
</svg>
