<svg width="56" height="57" viewBox="0 0 56 57" fill="none" xmlns="http://www.w3.org/2000/svg">
<path d="M13.8266 35.2137C9.97656 35.2137 6.91406 32.1512 6.91406 28.3012C6.91406 24.4512 9.97656 21.3887 13.8266 21.3887C17.6766 21.3887 20.7391 24.4512 20.7391 28.3012C20.7391 32.0637 17.6766 35.2137 13.8266 35.2137ZM13.8266 23.9262C11.4641 23.9262 9.53906 25.8512 9.53906 28.2137C9.53906 30.5762 11.4641 32.5012 13.8266 32.5012C16.1891 32.5012 18.1141 30.5762 18.1141 28.2137C18.1141 25.9387 16.1891 23.9262 13.8266 23.9262Z" fill="#5C6366"/>
<path d="M41.9125 21.1258C38.0625 21.1258 35 18.0633 35 14.2133C35 10.3633 38.0625 7.30078 41.9125 7.30078C45.7625 7.30078 48.825 10.3633 48.825 14.2133C48.825 18.0633 45.675 21.1258 41.9125 21.1258ZM41.9125 9.92578C39.55 9.92578 37.625 11.8508 37.625 14.2133C37.625 16.5758 39.55 18.5008 41.9125 18.5008C44.275 18.5008 46.2 16.5758 46.2 14.2133C46.2 11.8508 44.275 9.92578 41.9125 9.92578Z" fill="#5C6366"/>
<path d="M41.9125 49.2137C38.0625 49.2137 35 46.1512 35 42.3012C35 38.4512 38.0625 35.3887 41.9125 35.3887C45.7625 35.3887 48.825 38.4512 48.825 42.3012C48.825 46.1512 45.675 49.2137 41.9125 49.2137ZM41.9125 38.0137C39.55 38.0137 37.625 39.9387 37.625 42.3012C37.625 44.6637 39.55 46.5887 41.9125 46.5887C44.275 46.5887 46.2 44.6637 46.2 42.3012C46.2 39.9387 44.275 38.0137 41.9125 38.0137Z" fill="#5C6366"/>
<path d="M36.2281 41.0754L18.2031 32.0629L19.4281 29.5254L37.5406 38.5379L36.2281 41.0754Z" fill="#5C6366"/>
<path d="M19.4281 26.9879L18.2031 24.5379L36.2281 15.5254L37.5406 17.9754L19.4281 26.9879Z" fill="#5C6366"/>
</svg>
