<svg width="141" height="141" viewBox="0 0 141 141" fill="none" xmlns="http://www.w3.org/2000/svg">
<g clip-path="url(#clip0_349_1608)">
<path d="M131.642 52.507C129.229 52.507 126.816 52.571 124.409 52.4803C123.149 52.4323 122.818 52.8644 122.797 54.0966C122.604 65.539 121.067 76.7893 117.384 87.6663C111.992 103.579 102.629 116.43 87.9536 125.039C79.5191 129.99 70.3853 132.87 60.659 133.932C56.8794 134.343 53.0999 134.087 49.3204 134.199C48.5357 134.22 48.1087 133.932 47.9165 133.142C47.4574 131.313 46.8862 129.504 46.4485 127.669C46.2136 126.682 45.7598 126.154 44.7295 125.904C39.829 124.709 35.2007 122.81 30.9141 120.142C30.2041 119.7 29.6329 119.742 28.9549 120.142C27.2467 121.156 25.5064 122.111 23.8035 123.135C23.0828 123.567 22.5543 123.535 21.9404 122.911C18.4171 119.348 14.8725 115.805 11.3066 112.285C10.6873 111.671 10.6339 111.148 11.0717 110.423C12.0753 108.764 12.9934 107.057 14.0077 105.403C14.4882 104.619 14.4721 103.974 13.9917 103.184C11.3599 98.8793 9.45951 94.2596 8.26907 89.3573C8.06621 88.5304 7.67652 88.0664 6.81172 87.8583C4.92731 87.4049 3.08026 86.8181 1.19585 86.3593C0.283001 86.146 -0.00526573 85.6712 7.2548e-05 84.7697C0.0321022 79.8086 0.0267639 74.8423 7.2548e-05 69.8812C7.2548e-05 69.0331 0.283001 68.585 1.12645 68.3769C2.91477 67.9395 4.67641 67.3901 6.47007 66.9686C7.50036 66.7286 8.06088 66.2538 8.32245 65.1549C9.4862 60.2952 11.392 55.729 14.0291 51.4774C14.4988 50.7199 14.4722 50.1225 14.0344 49.397C13.0362 47.738 12.1073 46.0309 11.1037 44.3773C10.6393 43.6144 10.666 43.0597 11.3332 42.3982C14.8725 38.9148 18.3851 35.4047 21.871 31.8733C22.5223 31.2119 23.0721 31.1425 23.8515 31.6173C25.5491 32.6468 27.2947 33.5964 28.9976 34.6152C29.6916 35.0313 30.2628 34.9833 30.9568 34.5566C35.2167 31.932 39.7863 30.033 44.6441 28.8487C45.637 28.6087 46.1922 28.1819 46.4271 27.147C46.8435 25.3066 47.4307 23.5036 47.8844 21.6685C48.0926 20.8364 48.5197 20.5216 49.3738 20.527C54.3865 20.5537 59.3991 20.559 64.4171 20.527C65.2979 20.527 65.6769 20.8897 65.8851 21.7006C66.3549 23.5783 66.9368 25.4293 67.3905 27.3124C67.5987 28.1712 68.0471 28.582 68.8799 28.7794C73.9833 29.9849 78.7611 32.0067 83.1972 34.7913C84.2275 35.4367 85.1563 35.1273 86.1759 35.042C88.5194 34.8553 90.0088 33.7404 91.3167 31.7186C96.7778 23.2582 102.436 14.9311 108.026 6.55607C109.088 4.96641 109.125 4.96641 110.177 6.54007C120.015 21.2845 129.854 36.0342 139.692 50.7786C139.826 50.976 139.948 51.1734 140.087 51.3707C140.68 52.2029 140.429 52.523 139.447 52.5176C136.847 52.4963 134.242 52.5123 131.642 52.5123V52.507ZM93.2598 47.7646C94.9627 47.7646 96.671 47.8393 98.3686 47.7433C99.7138 47.6633 100.157 48.0954 100.157 49.4877C100.157 55.4462 99.9434 61.3835 99.2707 67.3047C98.2725 76.0745 96.4681 84.647 92.8915 92.766C89.8006 99.7915 85.578 106.001 79.4924 110.791C70.7323 117.689 60.7977 119.55 49.945 117.769C31.8269 114.792 17.1626 98.9646 15.9829 80.7848C15.1181 67.4327 19.4741 56.0224 29.43 46.9911C39.1884 38.136 50.7885 35.074 63.7338 36.877C70.2839 37.7892 76.1827 40.3338 81.4142 44.3933C82.0281 44.868 82.4391 44.9587 82.8929 44.2386C83.5442 43.1984 84.2488 42.1901 84.9268 41.1659C85.0762 40.9366 85.3538 40.6538 85.1029 40.4298C84.9428 40.2858 84.5424 40.2751 84.3075 40.3604C83.4908 40.6538 82.8502 40.3604 82.1936 39.9123C76.9621 36.3436 71.2074 34.0445 64.983 32.9189C64.1128 32.7642 63.6858 32.3321 63.4829 31.4839C63.0719 29.7876 62.5594 28.1126 62.1323 26.4215C61.9295 25.616 61.5398 25.248 60.659 25.2693C58.1553 25.3173 55.6463 25.328 53.1373 25.264C52.1657 25.2373 51.8081 25.6747 51.5946 26.5176C51.1728 28.2139 50.655 29.8836 50.244 31.5799C50.0465 32.3908 49.6087 32.7642 48.8133 32.9082C42.3914 34.0658 36.4819 36.4823 31.1329 40.2111C30.4016 40.7178 29.809 40.7232 29.067 40.2697C27.5776 39.3576 26.0242 38.5414 24.5348 37.6239C23.8462 37.2024 23.3711 37.2558 22.8052 37.8319C21.0222 39.6616 19.2286 41.4753 17.3815 43.241C16.6929 43.9025 16.6982 44.436 17.184 45.1988C18.0702 46.5964 18.8228 48.074 19.7037 49.4717C20.2322 50.3145 20.1628 50.9706 19.5969 51.7815C15.9242 57.0572 13.5486 62.8825 12.4062 69.1984C12.2407 70.1266 11.7923 70.6014 10.9008 70.8148C9.24597 71.2149 7.6178 71.7003 5.96293 72.095C5.09813 72.3031 4.70844 72.7032 4.72979 73.6527C4.78851 76.1065 4.79919 78.5711 4.72979 81.0249C4.7031 82.0438 5.1355 82.4439 6.04834 82.6626C7.74592 83.0733 9.4168 83.6014 11.1144 84.0175C11.8671 84.2042 12.2354 84.615 12.3635 85.3511C13.5273 91.8165 15.9562 97.7644 19.725 103.152C20.2001 103.835 20.2055 104.4 19.7837 105.094C18.8762 106.588 18.0648 108.14 17.136 109.623C16.6769 110.354 16.7196 110.855 17.3495 111.463C19.1859 113.234 20.9955 115.037 22.7678 116.878C23.3871 117.518 23.8942 117.518 24.6149 117.07C26.0562 116.168 27.5723 115.384 29.019 114.488C29.8144 113.992 30.4389 114.045 31.2077 114.579C36.5246 118.281 42.3967 120.66 48.7653 121.817C49.6354 121.977 50.0625 122.399 50.2707 123.247C50.655 124.853 51.1888 126.426 51.5412 128.037C51.7707 129.104 52.2458 129.499 53.3669 129.478C58.2033 129.387 62.9811 128.864 67.6948 127.771C81.2113 124.623 92.6139 117.993 101.422 107.169C108.303 98.7139 112.424 88.9412 114.971 78.4377C117.266 68.969 117.912 59.3297 118.077 49.6317C118.11 47.7806 118.088 47.7753 119.978 47.77C123.48 47.77 126.976 47.77 130.478 47.7593C130.799 47.7593 131.247 47.7806 131.402 47.5939C131.706 47.2259 131.268 46.9111 131.076 46.6177C124.003 35.9969 116.914 25.3813 109.846 14.7551C109.275 13.8963 108.901 13.8856 108.346 14.7551C107.203 16.5475 105.997 18.3025 104.817 20.0736C98.9398 28.8807 93.0623 37.6879 87.1955 46.5004C86.9767 46.8258 86.4909 47.1618 86.7845 47.5993C87.0034 47.9247 87.4892 47.7593 87.8575 47.7593C89.6565 47.77 91.4501 47.7646 93.2491 47.7646H93.2598ZM88.7703 89.448L88.9625 89.5227C89.0746 89.2719 89.1921 89.0212 89.2935 88.7652C93.7296 77.3655 95.0161 65.4377 95.2563 53.3285C95.267 52.6883 95.0001 52.491 94.4182 52.5016C93.6602 52.5176 92.9022 52.5016 92.1495 52.5016C87.7988 52.5016 83.4481 52.5016 79.092 52.5016C78.681 52.5016 78.1311 52.6723 77.8963 52.2882C77.5973 51.8081 78.1365 51.4454 78.35 51.0453C78.4354 50.88 78.5315 50.7039 78.665 50.5759C79.7166 49.5037 79.3056 48.8102 78.2166 48.01C69.291 41.422 59.3084 39.811 48.7226 42.2115C29.8944 46.479 17.9741 64.6375 21.2678 83.6548C21.887 87.2342 22.9867 90.6696 24.8818 93.8329C24.9886 89.624 25.0419 85.4365 24.9619 81.2489C24.9352 79.8513 25.4156 79.4886 26.7555 79.5046C31.6721 79.5686 36.594 79.5259 41.5159 79.5312C43.3522 79.5312 43.3576 79.5419 43.3576 81.4463C43.3576 90.3335 43.3576 99.2207 43.3576 108.108C43.3576 110.053 44.2918 111.294 46.1602 111.831C47.6709 112.263 47.6976 112.247 47.6976 110.578C47.6976 104.576 47.7296 98.5699 47.6763 92.5686C47.6656 91.299 48.0179 90.8349 49.3471 90.8563C54.1729 90.9256 58.9987 90.8829 63.8192 90.8829C65.3104 90.8829 66.0577 91.6262 66.0613 93.1127C66.0613 99.0713 66.0613 105.025 66.0773 110.978C66.0773 111.383 65.7837 112.167 66.4456 112.135C67.6788 112.077 68.7945 111.463 69.8888 110.914C70.6415 110.53 70.3853 109.751 70.3906 109.121C70.4013 98.2978 70.412 87.4742 70.38 76.6453C70.38 75.4771 70.6255 74.949 71.9387 74.965C77.0475 75.029 82.1562 75.0236 87.2649 74.965C88.4714 74.9543 88.797 75.4077 88.781 76.5386C88.733 80.8382 88.7597 85.1377 88.7597 89.4426L88.7703 89.448ZM75.3339 107.596C75.4727 107.558 75.6275 107.558 75.7289 107.484C78.8732 105.233 81.4355 102.416 83.683 99.2954C83.9712 98.8899 84.0299 98.4312 84.0299 97.9511C84.0299 92.2912 84.0086 86.6314 84.046 80.9662C84.0513 79.926 83.6029 79.6859 82.6794 79.7073C80.7469 79.75 78.8038 79.798 76.8766 79.6913C75.5047 79.6166 75.115 80.0807 75.1204 81.4463C75.1791 89.704 75.147 97.9564 75.1577 106.214C75.1577 106.662 75.0029 107.148 75.3339 107.59V107.596ZM38.6172 96.3828C38.6172 92.798 38.5852 89.2133 38.6385 85.6285C38.6546 84.5723 38.2916 84.2149 37.2453 84.2469C35.2167 84.3109 33.1828 84.3216 31.1596 84.2469C30.0012 84.2042 29.7129 84.6576 29.7236 85.7352C29.7663 90.4509 29.761 95.1665 29.7236 99.8875C29.7183 100.752 29.9692 101.429 30.5457 102.053C32.5796 104.246 34.8804 106.113 37.3894 107.729C37.6937 107.926 38.014 108.332 38.377 108.156C38.8467 107.932 38.6065 107.393 38.6065 106.998C38.6225 103.462 38.6172 99.9248 38.6172 96.3881V96.3828ZM52.4433 104.448C52.4433 106.95 52.438 109.452 52.4433 111.959C52.4433 112.509 52.3206 113.202 53.1533 113.261C55.5022 113.426 57.851 113.789 60.2159 113.453C61.0059 113.341 61.3369 112.978 61.3316 112.146C61.3049 107.046 61.3049 101.947 61.3316 96.8469C61.3316 95.9347 61.0166 95.5826 60.0931 95.6039C57.9685 95.6466 55.8385 95.6573 53.7139 95.6039C52.6996 95.5773 52.406 95.9933 52.422 96.9482C52.4647 99.4501 52.438 101.952 52.4327 104.454L52.4433 104.448Z" fill="black"/>
<path d="M20.4458 4.60894C20.4458 3.47804 20.4725 2.34181 20.4458 1.2109C20.4298 0.437409 20.7714 0.160018 21.5401 0.101339C25.1755 -0.170717 25.1755 -0.192055 25.1862 3.47271C25.1862 3.85145 25.1862 4.22486 25.1862 4.60361C25.1114 4.69429 25.0367 4.77965 24.962 4.87033C23.5313 4.87033 22.1006 4.87033 20.6646 4.87033L20.4404 4.60894H20.4458Z" fill="#66C6EB"/>
<path d="M20.4084 9.39392C19.4742 9.39392 18.5294 9.3139 17.6005 9.40992C16.2019 9.55395 15.8389 8.94583 15.8869 7.63355C16.0043 4.1875 15.5079 4.71028 18.903 4.6516C19.4155 4.64093 19.9333 4.62493 20.4458 4.61426C20.5205 4.69961 20.5953 4.79029 20.67 4.87565C20.67 6.30528 20.67 7.73491 20.67 9.16987C20.5793 9.24455 20.4938 9.32457 20.4031 9.39925L20.4084 9.39392Z" fill="#66C6EB"/>
<path d="M25.1968 4.60901C26.3659 4.62501 27.5403 4.65702 28.7094 4.65702C29.414 4.65702 29.761 4.95575 29.7237 5.66523C29.7237 5.71324 29.729 5.76125 29.7237 5.80392C29.681 10.1995 30.2255 9.27131 26.3499 9.38867C25.9762 9.39934 25.6025 9.38867 25.2235 9.38867C25.1381 9.31399 25.0473 9.23931 24.9619 9.16462C24.9619 7.73499 24.9619 6.30536 24.9619 4.87573C25.0366 4.78505 25.1114 4.69969 25.1861 4.60901H25.1968Z" fill="#66C6EB"/>
<path d="M25.2286 9.39393C25.2126 10.5195 25.1699 11.6451 25.1913 12.7706C25.2126 13.6188 24.8443 13.9389 24.0115 13.9282C19.6501 13.8855 20.5523 14.3923 20.4455 10.6582C20.4349 10.2368 20.4188 9.81535 20.4028 9.39393C20.4882 9.31925 20.579 9.23923 20.6644 9.16455C22.0951 9.16455 23.5311 9.16455 24.9617 9.16455C25.0471 9.23923 25.1379 9.31392 25.2233 9.3886L25.2286 9.39393Z" fill="#66C6EB"/>
<path d="M79.4495 16.2007C78.3178 16.2007 77.1807 16.1794 76.049 16.2007C75.275 16.2167 74.9974 15.8753 74.9386 15.1072C74.6664 11.4691 74.645 11.4691 78.3178 11.4637C78.6968 11.4637 79.0758 11.4637 79.4495 11.4637C79.5349 11.5384 79.6257 11.6131 79.7111 11.6878C79.7111 13.1174 79.7111 14.5524 79.7111 15.982C79.6257 16.0567 79.5402 16.1314 79.4495 16.2061V16.2007Z" fill="#66C6EB"/>
<path d="M84.2699 11.4583C85.4016 11.4583 86.5386 11.485 87.6704 11.4583C88.4444 11.4423 88.722 11.7837 88.7807 12.5519C89.053 16.19 89.0743 16.19 85.4016 16.1953C85.0226 16.1953 84.6436 16.1953 84.2699 16.1953C84.1845 16.1206 84.0991 16.046 84.0083 15.9713C84.0083 14.5416 84.0083 13.1067 84.0083 11.677C84.0937 11.6024 84.1791 11.5277 84.2699 11.453V11.4583Z" fill="#66C6EB"/>
<path d="M79.4497 11.4583C79.4657 10.3328 79.5084 9.20186 79.4817 8.07629C79.4604 7.22811 79.8234 6.90805 80.6615 6.91871C85.0335 6.96672 84.126 6.46529 84.2328 10.1941C84.2435 10.6155 84.2595 11.0369 84.2702 11.4583C84.1848 11.533 84.0993 11.6077 84.0086 11.6824C82.5779 11.6824 81.1419 11.6824 79.7113 11.6824C79.6259 11.6077 79.5351 11.533 79.4497 11.4583Z" fill="#66C6EB"/>
<path d="M84.2702 16.2007C84.2542 17.3263 84.2115 18.4519 84.2381 19.5774C84.2542 20.4256 83.8912 20.7457 83.0584 20.7403C78.713 20.687 79.5885 21.2098 79.4871 17.465C79.4764 17.0436 79.4604 16.6222 79.4497 16.2007C79.5351 16.126 79.6205 16.0514 79.7113 15.9767C81.1419 15.9767 82.5779 15.9767 84.0086 15.9767C84.094 16.0514 84.1794 16.126 84.2702 16.2007Z" fill="#66C6EB"/>
<path d="M131.711 84.0282C131.711 82.8973 131.738 81.761 131.711 80.6301C131.695 79.8566 132.032 79.5792 132.806 79.5206C136.446 79.2538 136.446 79.2325 136.452 82.8973C136.452 83.276 136.452 83.6548 136.452 84.0282C136.377 84.1135 136.302 84.2042 136.228 84.2895C134.797 84.2895 133.361 84.2895 131.93 84.2895C131.856 84.2042 131.781 84.1135 131.706 84.0282H131.711Z" fill="#66C6EB"/>
<path d="M131.674 88.8078C130.878 88.8078 130.083 88.8078 129.282 88.8078C127.174 88.8078 127.163 88.8078 127.174 86.6313C127.19 83.7881 126.901 84.0975 129.741 84.0708C130.398 84.0655 131.055 84.0441 131.706 84.0334C131.781 84.1188 131.855 84.2095 131.93 84.2948C131.93 85.7245 131.93 87.1594 131.93 88.5891C131.845 88.6637 131.759 88.7384 131.668 88.8131L131.674 88.8078Z" fill="#66C6EB"/>
<path d="M136.457 84.0335C137.626 84.0495 138.801 84.0815 139.97 84.0762C140.674 84.0762 141.016 84.3749 140.984 85.0897C140.984 85.1378 140.984 85.1858 140.984 85.2284C140.957 89.608 141.475 88.7065 137.61 88.8079C137.236 88.8185 136.863 88.8079 136.484 88.8079C136.398 88.7332 136.313 88.6585 136.222 88.5838C136.222 87.1542 136.222 85.7192 136.222 84.2896C136.297 84.2042 136.372 84.1135 136.446 84.0282L136.457 84.0335Z" fill="#66C6EB"/>
<path d="M136.494 88.8131C136.478 89.9387 136.436 91.0643 136.462 92.1898C136.478 93.038 136.115 93.3581 135.283 93.3474C130.937 93.2941 131.813 93.8168 131.711 90.0721C131.701 89.6506 131.685 89.2292 131.674 88.8078C131.759 88.7331 131.845 88.6584 131.935 88.5837C133.366 88.5837 134.802 88.5837 136.233 88.5837C136.318 88.6584 136.404 88.7331 136.494 88.8078V88.8131Z" fill="#66C6EB"/>
<path d="M124.9 115.795C124.9 114.664 124.927 113.528 124.9 112.397C124.884 111.623 125.226 111.346 125.994 111.287C129.63 111.015 129.63 110.994 129.64 114.659C129.64 115.037 129.64 115.411 129.64 115.789C129.566 115.88 129.491 115.965 129.416 116.056C127.985 116.056 126.555 116.056 125.119 116.056L124.895 115.795H124.9Z" fill="#66C6EB"/>
<path d="M124.863 120.58C123.928 120.58 122.983 120.5 122.055 120.596C120.656 120.74 120.293 120.132 120.341 118.819C120.458 115.373 119.962 115.896 123.357 115.837C123.87 115.827 124.387 115.811 124.9 115.8C124.975 115.885 125.049 115.976 125.124 116.061V120.356C125.033 120.43 124.948 120.51 124.857 120.585L124.863 120.58Z" fill="#66C6EB"/>
<path d="M129.646 115.795C130.815 115.811 131.989 115.843 133.158 115.843C133.863 115.843 134.21 116.142 134.172 116.851C134.172 116.899 134.178 116.947 134.172 116.99C134.13 121.385 134.674 120.457 130.799 120.574C130.425 120.585 130.051 120.574 129.672 120.574L129.411 120.35C129.411 118.921 129.411 117.491 129.411 116.062C129.485 115.971 129.56 115.885 129.635 115.795H129.646Z" fill="#66C6EB"/>
<path d="M129.683 120.58C129.667 121.705 129.624 122.831 129.645 123.956C129.667 124.805 129.298 125.125 128.466 125.114C124.104 125.071 125.006 125.578 124.9 121.844C124.889 121.423 124.873 121.001 124.857 120.58C124.942 120.505 125.033 120.425 125.119 120.35C126.549 120.35 127.985 120.35 129.416 120.35C129.501 120.425 129.592 120.5 129.677 120.574L129.683 120.58Z" fill="#66C6EB"/>
<path d="M9.09128 127.141C9.09128 126.01 9.11797 124.874 9.09128 123.743C9.07526 122.97 9.41157 122.692 10.1856 122.633C13.8263 122.367 13.8263 122.345 13.8317 126.01C13.8317 126.389 13.8317 126.768 13.8317 127.141C13.7569 127.226 13.6822 127.317 13.6075 127.402C12.1768 127.402 10.7408 127.402 9.31015 127.402C9.23541 127.317 9.16067 127.226 9.08594 127.141H9.09128Z" fill="#66C6EB"/>
<path d="M9.05388 131.921C8.30652 131.921 7.55382 131.921 6.80647 131.921C5.30463 131.921 4.55371 131.147 4.55371 129.6C4.55371 129.131 4.57506 128.661 4.55905 128.197C4.5377 127.483 4.87401 127.184 5.57866 127.189C6.74774 127.189 7.92217 127.162 9.09125 127.146C9.16599 127.232 9.24072 127.323 9.31546 127.408C9.31546 128.837 9.31546 130.272 9.31546 131.702C9.23004 131.777 9.14463 131.851 9.05388 131.926V131.921Z" fill="#66C6EB"/>
<path d="M13.8423 127.146C15.0114 127.162 16.1858 127.194 17.3549 127.189C18.0595 127.189 18.4012 127.488 18.3692 128.203C18.3692 128.251 18.3692 128.299 18.3692 128.341C18.3425 132.721 18.8603 131.819 14.9954 131.921C14.6217 131.931 14.248 131.921 13.869 131.921C13.7836 131.846 13.6982 131.771 13.6074 131.697C13.6074 130.267 13.6074 128.832 13.6074 127.403C13.6822 127.317 13.7569 127.226 13.8316 127.141L13.8423 127.146Z" fill="#66C6EB"/>
<path d="M102.191 131.681C102.191 130.55 102.218 129.414 102.191 128.283C102.175 127.509 102.516 127.232 103.285 127.173C106.926 126.901 106.921 126.88 106.931 130.55C106.931 130.929 106.931 131.307 106.931 131.681C106.857 131.766 106.782 131.857 106.707 131.942C105.276 131.942 103.84 131.942 102.41 131.942C102.335 131.857 102.26 131.766 102.18 131.681H102.191Z" fill="#66C6EB"/>
<path d="M13.8742 131.926C13.8582 133.052 13.8155 134.177 13.8421 135.303C13.8582 136.151 13.4952 136.471 12.6624 136.46C8.31703 136.407 9.19251 136.93 9.09108 133.185C9.0804 132.764 9.06439 132.342 9.05371 131.921C9.13912 131.846 9.22454 131.771 9.31529 131.697C10.7459 131.697 12.1819 131.697 13.6126 131.697C13.698 131.771 13.7834 131.846 13.8742 131.921V131.926Z" fill="#66C6EB"/>
<path d="M102.153 136.46C101.214 136.46 100.269 136.38 99.3453 136.476C97.9467 136.62 97.589 136.012 97.6317 134.7C97.7438 131.254 97.2581 131.777 100.648 131.718C101.16 131.707 101.678 131.691 102.191 131.675C102.265 131.761 102.34 131.851 102.42 131.937C102.42 133.366 102.42 134.801 102.42 136.231C102.335 136.306 102.249 136.38 102.159 136.455L102.153 136.46Z" fill="#66C6EB"/>
<path d="M106.942 131.681C108.111 131.697 109.285 131.729 110.455 131.723C111.159 131.723 111.501 132.022 111.469 132.737C111.469 132.785 111.474 132.833 111.469 132.876C111.437 137.255 111.96 136.348 108.095 136.455C107.721 136.466 107.348 136.455 106.969 136.455C106.883 136.38 106.798 136.306 106.707 136.231C106.707 134.801 106.707 133.366 106.707 131.937L106.931 131.675L106.942 131.681Z" fill="#66C6EB"/>
<path d="M106.974 136.46C106.958 137.586 106.915 138.712 106.942 139.837C106.963 140.685 106.595 141.005 105.762 140.995C101.379 140.957 102.308 141.437 102.191 137.725C102.18 137.303 102.164 136.882 102.153 136.46C102.239 136.386 102.324 136.311 102.415 136.236C103.846 136.236 105.282 136.236 106.712 136.236C106.798 136.311 106.883 136.386 106.974 136.46Z" fill="#66C6EB"/>
<path d="M72.6805 64.04C72.6805 60.6153 74.5382 58.0494 77.549 57.1266C80.4584 56.2357 83.672 57.3453 85.3108 59.8045C87.0565 62.4343 86.891 65.8751 84.8945 68.2489C82.9513 70.564 79.6149 71.3535 76.7803 70.0359C75.8674 69.6092 75.2642 69.7105 74.4902 70.2706C71.4206 72.4791 68.3351 74.6662 65.1909 76.7626C64.1232 77.4721 63.6962 78.2243 63.7602 79.5312C63.8883 82.1451 62.7299 84.2149 60.4772 85.5538C58.1337 86.9461 55.6941 86.9514 53.3346 85.5751C51.2793 84.3802 50.0889 82.5505 50.0088 80.1447C49.9768 79.2005 49.6405 78.699 48.813 78.3043C46.0051 76.9493 43.2078 75.5677 40.4426 74.1168C39.4657 73.6047 38.7344 73.5727 37.7361 74.1861C35.2004 75.7384 32.5633 75.6051 30.1344 73.9141C27.7268 72.2337 26.846 69.7852 27.3798 66.9526C27.9083 64.1627 29.6486 62.3383 32.4245 61.5862C36.6257 60.4499 40.8323 63.4425 41.0565 67.7954C41.1046 68.745 41.4569 69.2304 42.2736 69.6252C45.2097 71.0441 48.1244 72.5058 51.0284 73.9941C51.7331 74.3568 52.2829 74.3728 52.9822 73.9194C55.2083 72.4578 57.5838 72.2764 59.9807 73.466C60.696 73.8234 61.1872 73.706 61.785 73.2846C65.1001 70.9321 68.4045 68.5636 71.7783 66.2965C72.7712 65.6297 72.7712 64.8028 72.6965 64.04H72.6805ZM81.6862 63.7466C81.6862 62.6797 80.6452 61.6448 79.5829 61.6502C78.5152 61.6502 77.4849 62.6797 77.4849 63.7519C77.4849 64.8188 78.5206 65.8484 79.5882 65.8484C80.6559 65.8484 81.6862 64.8135 81.6862 63.7466ZM56.9005 81.729C57.9735 81.7183 58.9931 80.6781 58.9771 79.6112C58.9611 78.5337 57.9201 77.5201 56.8578 77.5361C55.7848 77.5521 54.7705 78.587 54.7812 79.6593C54.7972 80.7315 55.8329 81.745 56.9059 81.7343L56.9005 81.729ZM36.2681 68.3449C36.3001 67.2833 35.3018 66.2218 34.2288 66.1898C33.1665 66.1524 32.1095 67.1553 32.0722 68.2329C32.0348 69.2944 33.0384 70.3506 34.1114 70.388C35.1737 70.4253 36.236 69.4225 36.2681 68.3502V68.3449Z" fill="#26B2E3"/>
</g>
<defs>
<clipPath id="clip0_349_1608">
<rect width="141" height="141" fill="white"/>
</clipPath>
</defs>
</svg>
