<svg width="141" height="141" viewBox="0 0 141 141" fill="none" xmlns="http://www.w3.org/2000/svg">
<g clip-path="url(#clip0_437_5747)">
<path d="M131.642 52.5065C129.229 52.5065 126.816 52.5705 124.409 52.4798C123.149 52.4318 122.818 52.8639 122.797 54.0961C122.604 65.5385 121.067 76.7889 117.384 87.6658C111.992 103.578 102.629 116.429 87.9536 125.039C79.5191 129.989 70.3853 132.87 60.659 133.931C56.8794 134.342 53.0999 134.086 49.3204 134.198C48.5357 134.219 48.1087 133.931 47.9165 133.142C47.4574 131.312 46.8862 129.504 46.4485 127.669C46.2136 126.682 45.7598 126.154 44.7295 125.903C39.829 124.708 35.2007 122.809 30.9141 120.142C30.2041 119.699 29.6329 119.742 28.9549 120.142C27.2467 121.155 25.5064 122.11 23.8035 123.134C23.0828 123.567 22.5543 123.535 21.9404 122.91C18.4171 119.347 14.8725 115.805 11.3066 112.284C10.6873 111.671 10.6339 111.148 11.0717 110.423C12.0753 108.764 12.9934 107.056 14.0077 105.403C14.4882 104.619 14.4721 103.973 13.9917 103.184C11.3599 98.8788 9.45951 94.2592 8.26907 89.3568C8.06621 88.53 7.67652 88.0659 6.81172 87.8578C4.92731 87.4044 3.08026 86.8176 1.19585 86.3588C0.283001 86.1455 -0.00526573 85.6707 7.2548e-05 84.7692C0.0321022 79.8082 0.0267639 74.8418 7.2548e-05 69.8808C7.2548e-05 69.0326 0.283001 68.5845 1.12645 68.3764C2.91477 67.939 4.67641 67.3896 6.47007 66.9681C7.50036 66.7281 8.06088 66.2533 8.32245 65.1544C9.4862 60.2948 11.392 55.7285 14.0291 51.4769C14.4988 50.7194 14.4722 50.122 14.0344 49.3965C13.0362 47.7375 12.1073 46.0305 11.1037 44.3768C10.6393 43.614 10.666 43.0592 11.3332 42.3977C14.8725 38.9143 18.3851 35.4043 21.871 31.8729C22.5223 31.2114 23.0721 31.142 23.8515 31.6168C25.5491 32.6463 27.2947 33.5959 28.9976 34.6148C29.6916 35.0308 30.2628 34.9828 30.9568 34.5561C35.2167 31.9315 39.7863 30.0325 44.6441 28.8482C45.637 28.6082 46.1922 28.1814 46.4271 27.1465C46.8435 25.3062 47.4307 23.5031 47.8844 21.6681C48.0926 20.8359 48.5197 20.5212 49.3738 20.5265C54.3865 20.5532 59.3991 20.5585 64.4171 20.5265C65.2979 20.5265 65.6769 20.8892 65.8851 21.7001C66.3549 23.5778 66.9368 25.4288 67.3905 27.3119C67.5987 28.1707 68.0471 28.5815 68.8799 28.7789C73.9833 29.9845 78.7611 32.0062 83.1972 34.7908C84.2275 35.4363 85.1563 35.1269 86.1759 35.0415C88.5194 34.8548 90.0088 33.7399 91.3167 31.7182C96.7778 23.2577 102.436 14.9307 108.026 6.55558C109.088 4.96592 109.125 4.96592 110.177 6.53958C120.015 21.284 129.854 36.0337 139.692 50.7781C139.826 50.9755 139.948 51.1729 140.087 51.3702C140.68 52.2024 140.429 52.5225 139.447 52.5171C136.847 52.4958 134.242 52.5118 131.642 52.5118V52.5065ZM93.2598 47.7642C94.9627 47.7642 96.671 47.8388 98.3686 47.7428C99.7138 47.6628 100.157 48.0949 100.157 49.4872C100.157 55.4458 99.9434 61.383 99.2707 67.3042C98.2725 76.074 96.4681 84.6465 92.8915 92.7655C89.8006 99.791 85.578 106 79.4924 110.791C70.7323 117.688 60.7977 119.55 49.945 117.768C31.8269 114.791 17.1626 98.9641 15.9829 80.7844C15.1181 67.4322 19.4741 56.0219 29.43 46.9907C39.1884 38.1355 50.7885 35.0735 63.7338 36.8766C70.2839 37.7887 76.1827 40.3333 81.4142 44.3928C82.0281 44.8675 82.4391 44.9582 82.8929 44.2381C83.5442 43.1979 84.2488 42.1897 84.9268 41.1654C85.0762 40.9361 85.3538 40.6533 85.1029 40.4293C84.9428 40.2853 84.5424 40.2746 84.3075 40.3599C83.4908 40.6533 82.8502 40.3599 82.1936 39.9119C76.9621 36.3431 71.2074 34.044 64.983 32.9184C64.1128 32.7637 63.6858 32.3316 63.4829 31.4834C63.0719 29.7871 62.5594 28.1121 62.1323 26.421C61.9295 25.6155 61.5398 25.2475 60.659 25.2688C58.1553 25.3168 55.6463 25.3275 53.1373 25.2635C52.1657 25.2368 51.8081 25.6742 51.5946 26.5171C51.1728 28.2134 50.655 29.8831 50.244 31.5795C50.0465 32.3903 49.6087 32.7637 48.8133 32.9077C42.3914 34.0653 36.4819 36.4818 31.1329 40.2106C30.4016 40.7174 29.809 40.7227 29.067 40.2693C27.5776 39.3571 26.0242 38.5409 24.5348 37.6234C23.8462 37.202 23.3711 37.2553 22.8052 37.8314C21.0222 39.6611 19.2286 41.4748 17.3815 43.2405C16.6929 43.902 16.6982 44.4355 17.184 45.1983C18.0702 46.5959 18.8228 48.0736 19.7037 49.4712C20.2322 50.314 20.1628 50.9702 19.5969 51.781C15.9242 57.0568 13.5486 62.882 12.4062 69.1979C12.2407 70.1261 11.7923 70.6009 10.9008 70.8143C9.24597 71.2144 7.6178 71.6998 5.96293 72.0945C5.09813 72.3026 4.70844 72.7027 4.72979 73.6522C4.78851 76.106 4.79919 78.5706 4.72979 81.0244C4.7031 82.0433 5.1355 82.4434 6.04834 82.6621C7.74592 83.0728 9.4168 83.6009 11.1144 84.017C11.8671 84.2037 12.2354 84.6145 12.3635 85.3506C13.5273 91.816 15.9562 97.7639 19.725 103.152C20.2001 103.834 20.2055 104.4 19.7837 105.093C18.8762 106.587 18.0648 108.139 17.136 109.622C16.6769 110.353 16.7196 110.855 17.3495 111.463C19.1859 113.234 20.9955 115.037 22.7678 116.877C23.3871 117.517 23.8942 117.517 24.6149 117.069C26.0562 116.168 27.5723 115.384 29.019 114.487C29.8144 113.991 30.4389 114.045 31.2077 114.578C36.5246 118.28 42.3967 120.659 48.7653 121.817C49.6354 121.977 50.0625 122.398 50.2707 123.247C50.655 124.852 51.1888 126.426 51.5412 128.037C51.7707 129.104 52.2458 129.498 53.3669 129.477C58.2033 129.386 62.9811 128.864 67.6948 127.77C81.2113 124.623 92.6139 117.992 101.422 107.169C108.303 98.7134 112.424 88.9407 114.971 78.4372C117.266 68.9686 117.912 59.3292 118.077 49.6312C118.11 47.7802 118.088 47.7748 119.978 47.7695C123.48 47.7695 126.976 47.7695 130.478 47.7588C130.799 47.7588 131.247 47.7802 131.402 47.5935C131.706 47.2254 131.268 46.9106 131.076 46.6172C124.003 35.9964 116.914 25.3808 109.846 14.7546C109.275 13.8958 108.901 13.8851 108.346 14.7546C107.203 16.547 105.997 18.302 104.817 20.0731C98.9398 28.8802 93.0623 37.6874 87.1955 46.4999C86.9767 46.8253 86.4909 47.1614 86.7845 47.5988C87.0034 47.9242 87.4892 47.7588 87.8575 47.7588C89.6565 47.7695 91.4501 47.7642 93.2491 47.7642H93.2598ZM88.7703 89.4475L88.9625 89.5222C89.0746 89.2715 89.1921 89.0207 89.2935 88.7647C93.7296 77.365 95.0161 65.4372 95.2563 53.328C95.267 52.6878 95.0001 52.4905 94.4182 52.5011C93.6602 52.5171 92.9022 52.5011 92.1495 52.5011C87.7988 52.5011 83.4481 52.5011 79.092 52.5011C78.681 52.5011 78.1311 52.6718 77.8963 52.2878C77.5973 51.8077 78.1365 51.4449 78.35 51.0448C78.4354 50.8795 78.5315 50.7034 78.665 50.5754C79.7166 49.5032 79.3056 48.8097 78.2166 48.0095C69.291 41.4215 59.3084 39.8105 48.7226 42.211C29.8944 46.4785 17.9741 64.637 21.2678 83.6543C21.887 87.2337 22.9867 90.6691 24.8818 93.8324C24.9886 89.6235 25.0419 85.436 24.9619 81.2485C24.9352 79.8508 25.4156 79.4881 26.7555 79.5041C31.6721 79.5681 36.594 79.5254 41.5159 79.5308C43.3522 79.5308 43.3576 79.5414 43.3576 81.4458C43.3576 90.333 43.3576 99.2202 43.3576 108.107C43.3576 110.053 44.2918 111.294 46.1602 111.831C47.6709 112.263 47.6976 112.247 47.6976 110.577C47.6976 104.576 47.7296 98.5694 47.6763 92.5681C47.6656 91.2985 48.0179 90.8344 49.3471 90.8558C54.1729 90.9251 58.9987 90.8825 63.8192 90.8825C65.3104 90.8825 66.0577 91.6257 66.0613 93.1123C66.0613 99.0708 66.0613 105.024 66.0773 110.977C66.0773 111.383 65.7837 112.167 66.4456 112.135C67.6788 112.076 68.7945 111.463 69.8888 110.913C70.6415 110.529 70.3853 109.75 70.3906 109.121C70.4013 98.2973 70.412 87.4737 70.38 76.6448C70.38 75.4766 70.6255 74.9485 71.9387 74.9645C77.0475 75.0285 82.1562 75.0232 87.2649 74.9645C88.4714 74.9538 88.797 75.4072 88.781 76.5381C88.733 80.8377 88.7597 85.1373 88.7597 89.4422L88.7703 89.4475ZM75.3339 107.595C75.4727 107.558 75.6275 107.558 75.7289 107.483C78.8732 105.232 81.4355 102.416 83.683 99.2949C83.9712 98.8895 84.0299 98.4307 84.0299 97.9506C84.0299 92.2907 84.0086 86.6309 84.046 80.9657C84.0513 79.9255 83.6029 79.6855 82.6794 79.7068C80.7469 79.7495 78.8038 79.7975 76.8766 79.6908C75.5047 79.6161 75.115 80.0802 75.1204 81.4458C75.1791 89.7035 75.147 97.9559 75.1577 106.214C75.1577 106.662 75.0029 107.147 75.3339 107.59V107.595ZM38.6172 96.3823C38.6172 92.7975 38.5852 89.2128 38.6385 85.628C38.6546 84.5718 38.2916 84.2144 37.2453 84.2464C35.2167 84.3104 33.1828 84.3211 31.1596 84.2464C30.0012 84.2037 29.7129 84.6572 29.7236 85.7347C29.7663 90.4504 29.761 95.166 29.7236 99.887C29.7183 100.751 29.9692 101.429 30.5457 102.053C32.5796 104.245 34.8804 106.112 37.3894 107.729C37.6937 107.926 38.014 108.331 38.377 108.155C38.8467 107.931 38.6065 107.393 38.6065 106.998C38.6225 103.461 38.6172 99.9243 38.6172 96.3876V96.3823ZM52.4433 104.448C52.4433 106.95 52.438 109.452 52.4433 111.959C52.4433 112.508 52.3206 113.202 53.1533 113.26C55.5022 113.426 57.851 113.789 60.2159 113.452C61.0059 113.34 61.3369 112.978 61.3316 112.146C61.3049 107.046 61.3049 101.946 61.3316 96.8464C61.3316 95.9342 61.0166 95.5821 60.0931 95.6034C57.9685 95.6461 55.8385 95.6568 53.7139 95.6034C52.6996 95.5768 52.406 95.9929 52.422 96.9477C52.4647 99.4496 52.438 101.951 52.4327 104.453L52.4433 104.448Z" fill="black"/>
<path d="M20.4458 4.60833C20.4458 3.47743 20.4725 2.34119 20.4458 1.21029C20.4298 0.436799 20.7714 0.159408 21.5401 0.100729C25.1755 -0.171328 25.1755 -0.192665 25.1862 3.4721C25.1862 3.85084 25.1862 4.22425 25.1862 4.603C25.1114 4.69368 25.0367 4.77904 24.962 4.86972C23.5313 4.86972 22.1006 4.86972 20.6646 4.86972L20.4404 4.60833H20.4458Z" fill="#66C6EB"/>
<path d="M20.4084 9.3949C19.4742 9.3949 18.5294 9.31488 17.6005 9.4109C16.2019 9.55493 15.8389 8.9468 15.8869 7.63453C16.0043 4.18848 15.5079 4.71125 18.903 4.65258C19.4155 4.64191 19.9333 4.6259 20.4458 4.61523C20.5205 4.70059 20.5953 4.79127 20.67 4.87662C20.67 6.30625 20.67 7.73588 20.67 9.17085C20.5793 9.24553 20.4938 9.32555 20.4031 9.40023L20.4084 9.3949Z" fill="#66C6EB"/>
<path d="M25.1968 4.60938C26.3659 4.62538 27.5403 4.65738 28.7094 4.65738C29.414 4.65738 29.761 4.95611 29.7237 5.66559C29.7237 5.7136 29.729 5.76161 29.7237 5.80429C29.681 10.1999 30.2255 9.27168 26.3499 9.38904C25.9762 9.3997 25.6025 9.38904 25.2235 9.38904C25.1381 9.31435 25.0473 9.23967 24.9619 9.16499C24.9619 7.73536 24.9619 6.30573 24.9619 4.8761C25.0366 4.78541 25.1114 4.70006 25.1861 4.60938H25.1968Z" fill="#66C6EB"/>
<path d="M25.2286 9.39344C25.2126 10.519 25.1699 11.6446 25.1913 12.7701C25.2126 13.6183 24.8443 13.9384 24.0115 13.9277C19.6501 13.885 20.5523 14.3918 20.4455 10.6577C20.4349 10.2363 20.4188 9.81486 20.4028 9.39344C20.4882 9.31876 20.579 9.23874 20.6644 9.16406C22.0951 9.16406 23.5311 9.16406 24.9617 9.16406C25.0471 9.23874 25.1379 9.31343 25.2233 9.38811L25.2286 9.39344Z" fill="#66C6EB"/>
<path d="M79.4495 16.1999C78.3178 16.1999 77.1807 16.1785 76.049 16.1999C75.275 16.2159 74.9974 15.8745 74.9386 15.1063C74.6664 11.4682 74.645 11.4682 78.3178 11.4629C78.6968 11.4629 79.0758 11.4629 79.4495 11.4629C79.5349 11.5376 79.6257 11.6123 79.7111 11.6869C79.7111 13.1166 79.7111 14.5515 79.7111 15.9812C79.6257 16.0558 79.5402 16.1305 79.4495 16.2052V16.1999Z" fill="#66C6EB"/>
<path d="M84.2699 11.4585C85.4016 11.4585 86.5386 11.4851 87.6704 11.4585C88.4444 11.4425 88.722 11.7839 88.7807 12.552C89.053 16.1901 89.0743 16.1901 85.4016 16.1954C85.0226 16.1954 84.6436 16.1954 84.2699 16.1954C84.1845 16.1208 84.0991 16.0461 84.0083 15.9714C84.0083 14.5418 84.0083 13.1068 84.0083 11.6772C84.0937 11.6025 84.1791 11.5278 84.2699 11.4531V11.4585Z" fill="#66C6EB"/>
<path d="M79.4497 11.4578C79.4657 10.3323 79.5084 9.20137 79.4817 8.0758C79.4604 7.22762 79.8234 6.90756 80.6615 6.91823C85.0335 6.96624 84.126 6.4648 84.2328 10.1936C84.2435 10.615 84.2595 11.0364 84.2702 11.4578C84.1848 11.5325 84.0993 11.6072 84.0086 11.6819C82.5779 11.6819 81.1419 11.6819 79.7113 11.6819C79.6259 11.6072 79.5351 11.5325 79.4497 11.4578Z" fill="#66C6EB"/>
<path d="M84.2702 16.2006C84.2542 17.3262 84.2115 18.4517 84.2381 19.5773C84.2542 20.4255 83.8912 20.7456 83.0584 20.7402C78.713 20.6869 79.5885 21.2097 79.4871 17.4649C79.4764 17.0435 79.4604 16.622 79.4497 16.2006C79.5351 16.1259 79.6205 16.0512 79.7113 15.9766C81.1419 15.9766 82.5779 15.9766 84.0086 15.9766C84.094 16.0512 84.1794 16.1259 84.2702 16.2006Z" fill="#66C6EB"/>
<path d="M131.711 84.0274C131.711 82.8965 131.738 81.7603 131.711 80.6294C131.695 79.8559 132.032 79.5785 132.806 79.5198C136.446 79.2531 136.446 79.2318 136.452 82.8965C136.452 83.2753 136.452 83.654 136.452 84.0274C136.377 84.1128 136.302 84.2035 136.228 84.2888C134.797 84.2888 133.361 84.2888 131.93 84.2888C131.856 84.2035 131.781 84.1128 131.706 84.0274H131.711Z" fill="#66C6EB"/>
<path d="M131.674 88.8075C130.878 88.8075 130.083 88.8075 129.282 88.8075C127.174 88.8075 127.163 88.8075 127.174 86.6311C127.19 83.7878 126.901 84.0972 129.741 84.0705C130.398 84.0652 131.055 84.0439 131.706 84.0332C131.781 84.1186 131.855 84.2092 131.93 84.2946C131.93 85.7242 131.93 87.1592 131.93 88.5888C131.845 88.6635 131.759 88.7382 131.668 88.8129L131.674 88.8075Z" fill="#66C6EB"/>
<path d="M136.457 84.0327C137.626 84.0487 138.801 84.0807 139.97 84.0754C140.674 84.0754 141.016 84.3741 140.984 85.0889C140.984 85.1369 140.984 85.1849 140.984 85.2276C140.957 89.6072 141.475 88.7056 137.61 88.807C137.236 88.8177 136.863 88.807 136.484 88.807C136.398 88.7323 136.313 88.6576 136.222 88.583C136.222 87.1533 136.222 85.7184 136.222 84.2887C136.297 84.2034 136.372 84.1127 136.446 84.0273L136.457 84.0327Z" fill="#66C6EB"/>
<path d="M136.494 88.8134C136.478 89.9389 136.436 91.0645 136.462 92.1901C136.478 93.0382 136.115 93.3583 135.283 93.3476C130.937 93.2943 131.813 93.8171 131.711 90.0723C131.701 89.6509 131.685 89.2295 131.674 88.808C131.759 88.7333 131.845 88.6587 131.935 88.584C133.366 88.584 134.802 88.584 136.233 88.584C136.318 88.6587 136.404 88.7333 136.494 88.808V88.8134Z" fill="#66C6EB"/>
<path d="M124.9 115.794C124.9 114.663 124.927 113.527 124.9 112.396C124.884 111.622 125.226 111.345 125.994 111.286C129.63 111.014 129.63 110.993 129.64 114.658C129.64 115.036 129.64 115.41 129.64 115.789C129.566 115.879 129.491 115.965 129.416 116.055C127.985 116.055 126.555 116.055 125.119 116.055L124.895 115.794H124.9Z" fill="#66C6EB"/>
<path d="M124.863 120.58C123.928 120.58 122.983 120.5 122.055 120.596C120.656 120.74 120.293 120.132 120.341 118.82C120.458 115.374 119.962 115.897 123.357 115.838C123.87 115.827 124.387 115.811 124.9 115.801C124.975 115.886 125.049 115.977 125.124 116.062V120.356C125.033 120.431 124.948 120.511 124.857 120.586L124.863 120.58Z" fill="#66C6EB"/>
<path d="M129.646 115.795C130.815 115.811 131.989 115.843 133.158 115.843C133.863 115.843 134.21 116.142 134.172 116.851C134.172 116.899 134.178 116.947 134.172 116.99C134.13 121.385 134.674 120.457 130.799 120.575C130.425 120.585 130.051 120.575 129.672 120.575L129.411 120.351C129.411 118.921 129.411 117.491 129.411 116.062C129.485 115.971 129.56 115.886 129.635 115.795H129.646Z" fill="#66C6EB"/>
<path d="M129.683 120.579C129.667 121.705 129.624 122.83 129.645 123.956C129.667 124.804 129.298 125.124 128.466 125.113C124.104 125.071 125.006 125.577 124.9 121.843C124.889 121.422 124.873 121 124.857 120.579C124.942 120.504 125.033 120.424 125.119 120.35C126.549 120.35 127.985 120.35 129.416 120.35C129.501 120.424 129.592 120.499 129.677 120.574L129.683 120.579Z" fill="#66C6EB"/>
<path d="M9.09128 127.141C9.09128 126.01 9.11797 124.874 9.09128 123.743C9.07526 122.969 9.41157 122.692 10.1856 122.633C13.8263 122.366 13.8263 122.345 13.8317 126.01C13.8317 126.389 13.8317 126.767 13.8317 127.141C13.7569 127.226 13.6822 127.317 13.6075 127.402C12.1768 127.402 10.7408 127.402 9.31015 127.402C9.23541 127.317 9.16067 127.226 9.08594 127.141H9.09128Z" fill="#66C6EB"/>
<path d="M9.05388 131.921C8.30652 131.921 7.55382 131.921 6.80647 131.921C5.30463 131.921 4.55371 131.147 4.55371 129.6C4.55371 129.131 4.57506 128.661 4.55905 128.197C4.5377 127.483 4.87401 127.184 5.57866 127.189C6.74774 127.189 7.92217 127.162 9.09125 127.146C9.16599 127.232 9.24072 127.323 9.31546 127.408C9.31546 128.837 9.31546 130.272 9.31546 131.702C9.23004 131.777 9.14463 131.851 9.05388 131.926V131.921Z" fill="#66C6EB"/>
<path d="M13.8423 127.146C15.0114 127.162 16.1858 127.194 17.3549 127.189C18.0595 127.189 18.4012 127.487 18.3692 128.202C18.3692 128.25 18.3692 128.298 18.3692 128.341C18.3425 132.72 18.8603 131.819 14.9954 131.92C14.6217 131.931 14.248 131.92 13.869 131.92C13.7836 131.846 13.6982 131.771 13.6074 131.696C13.6074 130.267 13.6074 128.832 13.6074 127.402C13.6822 127.317 13.7569 127.226 13.8316 127.141L13.8423 127.146Z" fill="#66C6EB"/>
<path d="M102.191 131.681C102.191 130.55 102.218 129.413 102.191 128.283C102.175 127.509 102.516 127.232 103.285 127.173C106.926 126.901 106.921 126.88 106.931 130.55C106.931 130.928 106.931 131.307 106.931 131.681C106.857 131.766 106.782 131.857 106.707 131.942C105.276 131.942 103.84 131.942 102.41 131.942C102.335 131.857 102.26 131.766 102.18 131.681H102.191Z" fill="#66C6EB"/>
<path d="M13.8742 131.927C13.8582 133.052 13.8155 134.178 13.8421 135.303C13.8582 136.152 13.4952 136.472 12.6624 136.461C8.31703 136.408 9.19251 136.93 9.09108 133.186C9.0804 132.764 9.06439 132.343 9.05371 131.921C9.13912 131.847 9.22454 131.772 9.31529 131.697C10.7459 131.697 12.1819 131.697 13.6126 131.697C13.698 131.772 13.7834 131.847 13.8742 131.921V131.927Z" fill="#66C6EB"/>
<path d="M102.153 136.461C101.214 136.461 100.269 136.381 99.3453 136.477C97.9467 136.621 97.589 136.013 97.6317 134.7C97.7438 131.254 97.2581 131.777 100.648 131.718C101.16 131.708 101.678 131.692 102.191 131.676C102.265 131.761 102.34 131.852 102.42 131.937C102.42 133.367 102.42 134.802 102.42 136.231C102.335 136.306 102.249 136.381 102.159 136.455L102.153 136.461Z" fill="#66C6EB"/>
<path d="M106.942 131.681C108.111 131.697 109.285 131.729 110.455 131.724C111.159 131.724 111.501 132.023 111.469 132.737C111.469 132.785 111.474 132.833 111.469 132.876C111.437 137.256 111.96 136.349 108.095 136.455C107.721 136.466 107.348 136.455 106.969 136.455C106.883 136.381 106.798 136.306 106.707 136.231C106.707 134.802 106.707 133.367 106.707 131.937L106.931 131.676L106.942 131.681Z" fill="#66C6EB"/>
<path d="M106.974 136.46C106.958 137.586 106.915 138.712 106.942 139.837C106.963 140.685 106.595 141.005 105.762 140.995C101.379 140.957 102.308 141.437 102.191 137.725C102.18 137.303 102.164 136.882 102.153 136.46C102.239 136.386 102.324 136.311 102.415 136.236C103.846 136.236 105.282 136.236 106.712 136.236C106.798 136.311 106.883 136.386 106.974 136.46Z" fill="#66C6EB"/>
<path d="M72.6805 64.0409C72.6805 60.6161 74.5382 58.0503 77.549 57.1274C80.4584 56.2366 83.672 57.3461 85.3108 59.8053C87.0565 62.4352 86.891 65.8759 84.8945 68.2497C82.9513 70.5649 79.6149 71.3544 76.7803 70.0368C75.8674 69.61 75.2642 69.7114 74.4902 70.2715C71.4206 72.4799 68.3351 74.6671 65.1909 76.7635C64.1232 77.473 63.6962 78.2251 63.7602 79.5321C63.8883 82.146 62.7299 84.2157 60.4772 85.5547C58.1337 86.947 55.6941 86.9523 53.3346 85.576C51.2793 84.3811 50.0889 82.5514 50.0088 80.1455C49.9768 79.2013 49.6405 78.6999 48.813 78.3052C46.0051 76.9502 43.2078 75.5686 40.4426 74.1176C39.4657 73.6055 38.7344 73.5735 37.7361 74.187C35.2004 75.7393 32.5633 75.6059 30.1344 73.9149C27.7268 72.2346 26.846 69.7861 27.3798 66.9535C27.9083 64.1635 29.6486 62.3392 32.4245 61.587C36.6257 60.4508 40.8323 63.4434 41.0565 67.7963C41.1046 68.7458 41.4569 69.2313 42.2736 69.626C45.2097 71.045 48.1244 72.5066 51.0284 73.9949C51.7331 74.3577 52.2829 74.3737 52.9822 73.9202C55.2083 72.4586 57.5838 72.2772 59.9807 73.4668C60.696 73.8242 61.1872 73.7069 61.785 73.2854C65.1001 70.933 68.4045 68.5645 71.7783 66.2973C72.7712 65.6305 72.7712 64.8037 72.6965 64.0409H72.6805ZM81.6862 63.7475C81.6862 62.6806 80.6452 61.6457 79.5829 61.651C78.5152 61.651 77.4849 62.6806 77.4849 63.7528C77.4849 64.8197 78.5206 65.8492 79.5882 65.8492C80.6559 65.8492 81.6862 64.8144 81.6862 63.7475ZM56.9005 81.7299C57.9735 81.7192 58.9931 80.679 58.9771 79.6121C58.9611 78.5345 57.9201 77.521 56.8578 77.537C55.7848 77.553 54.7705 78.5879 54.7812 79.6601C54.7972 80.7323 55.8329 81.7459 56.9059 81.7352L56.9005 81.7299ZM36.2681 68.3457C36.3001 67.2842 35.3018 66.2226 34.2288 66.1906C33.1665 66.1533 32.1095 67.1562 32.0722 68.2337C32.0348 69.2953 33.0384 70.3515 34.1114 70.3888C35.1737 70.4262 36.236 69.4233 36.2681 68.3511V68.3457Z" fill="#26B2E3"/>
</g>
<defs>
<clipPath id="clip0_437_5747">
<rect width="141" height="141" fill="white"/>
</clipPath>
</defs>
</svg>
