<svg width="120" height="120" viewBox="0 0 120 120" fill="none" xmlns="http://www.w3.org/2000/svg">
<g clip-path="url(#clip0_935_6322)">
<path d="M34.247 59.1702C34.1704 46.8461 43.9255 34.8869 58.5753 34.8419C72.3291 34.7996 83.0806 45.5802 83.0383 59.3102C82.9907 73.6561 71.4015 83.6121 58.8264 83.6226C45.0699 83.6332 34.2391 72.8236 34.2497 59.1675L34.247 59.1702ZM58.6757 79.0689C68.8352 79.3649 78.5955 70.8202 78.5559 58.9693C78.5215 48.2258 69.4166 39.2794 58.5409 39.3191C47.6018 39.3587 38.7876 48.2865 38.8035 59.305C38.822 70.3736 47.5992 79.1032 58.6757 79.0662V79.0689Z" fill="#66C6EB"/>
<path d="M109.568 60.1301C109.621 60.9653 109.405 61.8586 108.778 62.4929C107.988 63.2937 107.869 64.2716 107.753 65.2627C106.651 74.6451 103.151 83.0814 97.0594 90.2358C88.816 99.9142 78.424 106.017 65.6427 107.666C64.3953 107.827 63.2482 108.017 62.2334 109.043C60.748 110.542 58.2425 110.296 56.7519 108.795C55.2956 107.328 55.1926 104.896 56.514 103.247C57.8091 101.632 60.3304 101.162 61.9559 102.483C63.1161 103.427 64.2473 103.35 65.5265 103.165C74.9168 101.796 83.0095 97.755 89.8891 91.2718C97.1836 84.4002 101.531 75.9666 103.125 66.0793C103.344 64.7103 103.365 63.6505 102.226 62.5378C100.923 61.2639 101.071 59.1839 102.158 57.6695C103.18 56.245 104.993 55.653 106.735 56.1763C108.403 56.6758 109.555 58.2536 109.566 60.1354L109.568 60.1301Z" fill="#66C6EB"/>
<path d="M12.4586 62.2738C10.2702 62.287 8.80075 61.3276 8.19023 59.7735C7.49778 58.0133 7.89951 56.2346 9.40334 55.0215C10.0958 54.4612 10.4288 53.8904 10.5768 52.9785C13.7748 33.2516 24.7456 19.8387 43.4391 12.7821C46.3199 11.6958 49.3302 11.0351 52.396 10.6598C53.3607 10.5409 54.1959 10.2634 54.9412 9.48898C56.4714 7.89529 58.9637 7.90586 60.5416 9.34626C62.1405 10.8078 62.3467 13.2657 61.0146 14.9572C59.6588 16.6778 57.333 17.0795 55.4856 15.7607C54.5765 15.1105 53.6858 14.9334 52.6471 15.1237C34.8971 18.4036 22.9643 28.5525 16.8538 45.5202C15.8257 48.3772 15.3129 51.3743 14.9192 54.3872C14.8346 55.0348 15.157 55.4629 15.4583 55.9492C16.3146 57.3315 16.4071 58.7534 15.5905 60.1938C14.8055 61.584 13.5845 62.2262 12.4586 62.2738Z" fill="#66C6EB"/>
<path d="M20.1209 96.4242C19.8883 97.0928 20.261 97.5844 20.7684 98.076C29.654 106.655 40.1782 111.809 52.4599 113.36C53.5779 113.5 54.3998 113.416 55.2958 112.594C56.8234 111.196 59.1783 111.42 60.6795 112.882C62.1331 114.296 62.2996 116.653 61.06 118.294C59.8258 119.93 57.3943 120.623 55.8032 119.315C54.2968 118.075 52.6687 117.935 50.9587 117.695C37.9528 115.866 26.8128 110.257 17.433 101.11C16.7723 100.465 16.0561 100.116 15.1469 99.9499C13.4211 99.6353 12.2872 98.5147 11.9939 96.8127C11.7349 95.3036 11.6371 93.5909 13.0061 92.5602C14.3778 91.5295 16.0931 91.6193 17.6683 92.2246C19.2038 92.8139 19.9438 94.0825 20.1156 95.6921C20.1394 95.9088 20.1183 96.1308 20.1183 96.4242H20.1209Z" fill="#66C6EB"/>
<path d="M99.9584 24.5296C97.6379 24.6406 95.7535 23.1394 95.476 20.959C95.1985 18.7812 96.6679 16.7964 98.8933 16.3418C100.976 15.9163 103.059 17.3117 103.6 19.5847C103.791 20.3855 104.153 21.0198 104.66 21.6488C112.174 30.9519 116.622 41.5263 117.753 53.4592C117.83 54.2653 118.081 54.9551 118.607 55.6132C120.039 57.413 119.788 59.8948 118.113 61.3035C116.421 62.728 113.86 62.5958 112.375 61.0074C110.866 59.39 110.853 56.895 112.515 55.3172C113.324 54.5507 113.3 53.8239 113.186 52.8513C111.981 42.6496 108.204 33.5182 101.909 25.4176C101.416 24.7833 100.765 24.4864 99.9584 24.527V24.5296Z" fill="#66C6EB"/>
<path d="M4.56171 59.2757C4.55643 60.502 3.52304 61.4905 2.26236 61.4773C1.03868 61.4641 0 60.4201 0 59.2096C0 58.0414 1.13118 56.9526 2.31257 56.979C3.52039 57.0054 4.567 58.0758 4.55907 59.2783L4.56171 59.2757Z" fill="#66C6EB"/>
<path d="M104.488 41.293C104.478 42.5352 103.426 43.5501 102.184 43.521C100.987 43.4919 100.019 42.5141 99.9954 41.3115C99.9743 40.1169 101.079 39.0465 102.297 39.0809C103.468 39.1126 104.494 40.1513 104.486 41.2957L104.488 41.293Z" fill="#66C6EB"/>
<path d="M66.0576 113.342C67.2734 113.372 68.2962 114.474 68.2433 115.692C68.1931 116.873 67.1624 117.849 65.9836 117.828C64.7705 117.806 63.745 116.696 63.8085 115.475C63.8692 114.273 64.8815 113.313 66.0576 113.342Z" fill="#66C6EB"/>
<path d="M112.309 84.4807C112.301 85.7043 111.212 86.7509 109.991 86.706C108.839 86.6637 107.848 85.6118 107.858 84.4384C107.869 83.2332 108.842 82.2394 110.023 82.2209C111.241 82.2024 112.317 83.2675 112.309 84.4807Z" fill="#66C6EB"/>
<path d="M58.9772 0.000491142C60.1903 -0.0259382 61.2739 1.01802 61.2898 2.23113C61.3056 3.51031 60.3357 4.49613 59.0592 4.49877C57.8434 4.49877 56.7889 3.44424 56.7915 2.2232C56.7968 1.06031 57.8117 0.0269205 58.9772 0.000491142Z" fill="#66C6EB"/>
<path d="M79.9491 5.41993C79.9306 6.6304 78.8338 7.67964 77.6233 7.64793C76.4525 7.61621 75.4667 6.60133 75.4509 5.41465C75.435 4.21739 76.545 3.15229 77.7634 3.19458C78.9316 3.23686 79.965 4.28875 79.9491 5.41993Z" fill="#66C6EB"/>
<path d="M5.45489 75.471C6.62042 75.4922 7.67231 76.5282 7.6776 77.662C7.68289 78.8672 6.59664 79.9376 5.38617 79.9244C4.16249 79.9112 3.13175 78.8223 3.17932 77.596C3.22425 76.4436 4.28671 75.4499 5.45489 75.471Z" fill="#66C6EB"/>
<path d="M96.1711 28.5137C97.3393 28.5243 98.3542 29.526 98.3859 30.7047C98.4176 31.8703 97.2943 32.983 96.105 32.9671C94.9025 32.9486 93.9167 31.9734 93.9034 30.7893C93.8902 29.5762 94.9606 28.5032 96.1737 28.5137H96.1711Z" fill="#66C6EB"/>
<path d="M117.643 66.6369C117.648 67.7972 116.636 68.82 115.457 68.8438C114.199 68.8702 113.139 67.8527 113.155 66.629C113.171 65.4661 114.175 64.4354 115.335 64.3957C116.522 64.3534 117.637 65.4397 117.643 66.6343V66.6369Z" fill="#66C6EB"/>
<path d="M55.002 2.73362C55.0152 3.94673 54.0849 4.93519 52.8903 4.98276C51.6613 5.03033 50.62 4.01016 50.6094 2.75212C50.6015 1.55487 51.5503 0.545266 52.737 0.492407C53.9633 0.436905 54.9888 1.45179 55.002 2.73626V2.73362Z" fill="#66C6EB"/>
<path d="M71.642 5.85965C70.3734 5.8808 69.3559 4.88441 69.3718 3.63958C69.3876 2.45026 70.3576 1.4988 71.5786 1.47502C72.8314 1.45123 73.8727 2.47141 73.8568 3.70301C73.841 4.89762 72.8737 5.83851 71.6447 5.85965H71.642Z" fill="#66C6EB"/>
<path d="M34.5882 5.71909C35.8303 5.74288 36.8003 6.80005 36.7395 8.06602C36.684 9.2342 35.6295 10.2306 34.4824 10.1989C33.2455 10.1645 32.2862 9.10734 32.3337 7.83609C32.3787 6.66262 33.4068 5.69795 34.5882 5.71909Z" fill="#66C6EB"/>
<path d="M79.1954 16.0506C79.1796 17.2294 78.1832 18.1967 76.9806 18.2046C75.7543 18.2126 74.676 17.1422 74.7077 15.9449C74.7394 14.7133 75.8072 13.7407 77.0731 13.7909C78.2466 13.8385 79.2113 14.8666 79.1954 16.0506Z" fill="#66C6EB"/>
<path d="M84.6771 18.7734C84.6348 20.0209 83.5882 20.9512 82.2958 20.8904C81.0906 20.8322 80.155 19.8332 80.1894 18.6386C80.2264 17.4043 81.2941 16.445 82.5628 16.511C83.7547 16.5718 84.7167 17.6026 84.6745 18.7734H84.6771Z" fill="#66C6EB"/>
<path d="M7.88637 81.3145C9.05983 81.3171 10.0536 82.3056 10.0774 83.4949C10.1011 84.7212 9.05983 85.7467 7.80708 85.7282C6.63097 85.7097 5.61344 84.7027 5.60022 83.5451C5.58701 82.3161 6.61511 81.3118 7.88637 81.3145Z" fill="#66C6EB"/>
<path d="M96.5043 14.5098C96.5307 15.6833 95.5396 16.7167 94.3609 16.7484C93.1478 16.7801 92.0642 15.7415 92.0404 14.5231C92.0192 13.3522 92.9945 12.3374 94.1864 12.2924C95.3916 12.2475 96.4779 13.2862 96.5043 14.5098Z" fill="#66C6EB"/>
<path d="M13.2677 28.8799C13.2625 30.0904 12.3057 31.0841 11.1217 31.1026C9.88478 31.1238 8.83024 30.0798 8.85139 28.8588C8.87253 27.6536 9.83456 26.6493 11.0054 26.6123C12.1973 26.5753 13.273 27.6509 13.2677 28.8799Z" fill="#66C6EB"/>
<path d="M24.1935 92.6109C23.0121 92.5342 22.0844 91.485 22.1584 90.3036C22.2351 89.0667 23.3213 88.1549 24.5952 88.2579C25.774 88.3504 26.7228 89.4288 26.6409 90.5784C26.551 91.8338 25.5097 92.6981 24.1935 92.6135V92.6109Z" fill="#66C6EB"/>
<path d="M109.246 89.9467C109.214 91.1862 108.168 92.1245 106.881 92.069C105.652 92.0161 104.721 91.0435 104.758 89.8436C104.795 88.5856 105.821 87.6632 107.119 87.7214C108.332 87.7769 109.278 88.7653 109.246 89.9467Z" fill="#66C6EB"/>
<path d="M22.6948 85.3689C22.7212 86.5688 21.7856 87.5388 20.5593 87.5863C19.2669 87.6365 18.2335 86.6983 18.2071 85.4561C18.1807 84.2747 19.1295 83.2942 20.3479 83.2387C21.6455 83.1832 22.6684 84.1082 22.6948 85.3689Z" fill="#66C6EB"/>
<path d="M71.2033 11.7953C72.4085 11.8218 73.3864 12.797 73.3943 13.9784C73.3996 15.1836 72.3028 16.2989 71.1399 16.2698C69.9109 16.2408 68.8881 15.1492 68.9489 13.9361C69.0097 12.7679 70.0589 11.7716 71.2033 11.7953Z" fill="#66C6EB"/>
<path d="M103.323 97.1575C102.081 97.1257 101.037 96.0554 101.087 94.8581C101.135 93.7111 102.195 92.7226 103.363 92.7385C104.61 92.757 105.628 93.8141 105.572 95.0352C105.519 96.2245 104.499 97.1865 103.323 97.1575Z" fill="#66C6EB"/>
<path d="M83.858 108.114C85.0579 108.08 86.0384 109.015 86.086 110.236C86.1362 111.526 85.2059 112.565 83.9611 112.605C82.7929 112.642 81.7939 111.685 81.7331 110.472C81.6696 109.174 82.592 108.151 83.8553 108.114H83.858Z" fill="#66C6EB"/>
<path d="M78.1333 110.538C79.2962 110.506 80.3296 111.484 80.3825 112.665C80.438 113.871 79.4046 114.962 78.1809 114.989C76.9995 115.015 76.0005 114.066 75.9423 112.864C75.8842 111.656 76.9043 110.57 78.1333 110.538Z" fill="#66C6EB"/>
<path d="M92.0957 28.3932C90.9196 28.3932 89.9311 27.4047 89.91 26.2154C89.8889 24.9415 90.8667 23.916 92.1036 23.916C93.2982 23.916 94.2497 24.8648 94.2709 26.0832C94.2946 27.3783 93.3379 28.3932 92.0957 28.3932Z" fill="#66C6EB"/>
<path d="M13.1934 89.1044C13.1114 90.2937 11.9274 91.335 10.7698 91.2266C9.61748 91.1209 8.64752 90.0162 8.71095 88.885C8.77438 87.7459 9.88442 86.7099 10.9918 86.7574C12.2076 86.8077 13.2727 87.9415 13.1934 89.1044Z" fill="#66C6EB"/>
<path d="M107.642 53.1262C107.623 54.2997 106.455 55.3991 105.298 55.341C104.169 55.2828 103.13 54.1834 103.146 53.0681C103.165 51.8972 104.333 50.7951 105.49 50.8559C106.622 50.9141 107.66 52.0135 107.642 53.1288V53.1262Z" fill="#66C6EB"/>
<path d="M114.777 78.68C114.796 79.8614 113.691 80.9688 112.504 80.9529C111.363 80.9397 110.316 79.9089 110.284 78.7645C110.253 77.5858 111.357 76.481 112.555 76.4943C113.702 76.5075 114.759 77.5488 114.777 78.68Z" fill="#66C6EB"/>
<path d="M48.7861 3.85384C48.7703 4.97444 47.6735 6.03426 46.5449 6.02633C45.3556 6.01576 44.2641 4.88987 44.3064 3.71376C44.346 2.59844 45.4428 1.53069 46.5502 1.52541C47.7052 1.52012 48.802 2.66187 48.7835 3.85648L48.7861 3.85384Z" fill="#66C6EB"/>
<path d="M34.0673 96.454C35.2566 96.417 36.3984 97.5033 36.3958 98.6688C36.3958 99.8317 35.3967 100.865 34.2365 100.907C33.0339 100.952 31.9345 99.9031 31.9133 98.6953C31.8948 97.5694 32.9335 96.4884 34.0673 96.454Z" fill="#66C6EB"/>
<path d="M99.163 97.3466C100.384 97.3836 101.404 98.4645 101.362 99.6803C101.322 100.862 100.294 101.837 99.1207 101.808C97.9023 101.776 96.8637 100.682 96.9112 99.4821C96.9588 98.3165 98.0133 97.3122 99.1604 97.3466H99.163Z" fill="#66C6EB"/>
<path d="M83.5909 5.67391C84.8093 5.68449 85.7634 6.62009 85.7792 7.81998C85.7951 9.05423 84.7723 10.0453 83.501 10.0295C82.2985 10.0163 81.31 9.0463 81.2994 7.8702C81.2862 6.63594 82.3038 5.66334 83.5909 5.67391Z" fill="#66C6EB"/>
<path d="M91.3244 10.8915C91.2953 12.0808 90.1668 13.1724 89.0039 13.1327C87.87 13.0957 86.8499 12.0174 86.8604 10.8704C86.871 9.66784 87.9969 8.58423 89.1704 8.64502C90.3333 8.70581 91.3508 9.76827 91.3244 10.8915Z" fill="#66C6EB"/>
<path d="M87.4706 19.9298C88.7498 19.9192 89.7699 20.9129 89.7488 22.1419C89.7277 23.3444 88.7736 24.2774 87.5552 24.2906C86.276 24.3038 85.2558 23.3207 85.2717 22.0864C85.2849 20.8997 86.2628 19.943 87.4732 19.9324L87.4706 19.9298Z" fill="#66C6EB"/>
<path d="M72.1445 116.786C71.0266 116.773 69.9377 115.695 69.9192 114.582C69.9007 113.414 71.0239 112.282 72.1921 112.293C73.3629 112.304 74.4677 113.467 74.4122 114.627C74.3593 115.755 73.2625 116.799 72.1445 116.783V116.786Z" fill="#66C6EB"/>
<path d="M96.6392 103.733C96.6419 104.973 95.7274 105.94 94.5275 105.967C93.3012 105.993 92.2704 104.957 92.2784 103.709C92.2863 102.496 93.2325 101.508 94.4086 101.474C95.6375 101.439 96.6339 102.451 96.6366 103.733H96.6392Z" fill="#66C6EB"/>
<path d="M16.9783 73.9874C16.9598 75.2665 15.9502 76.2576 14.716 76.2101C13.5399 76.1651 12.6175 75.1714 12.6201 73.9504C12.6201 72.695 13.6694 71.6669 14.8851 71.725C16.0744 71.7832 16.9968 72.7769 16.9783 73.9874Z" fill="#66C6EB"/>
<path d="M28.9957 8.848C30.2643 8.87179 31.2501 9.89989 31.1893 11.1394C31.1312 12.3393 30.1533 13.2326 28.927 13.2088C27.661 13.1824 26.6435 12.1411 26.7069 10.9359C26.7677 9.78624 27.8196 8.82686 28.9931 8.848H28.9957Z" fill="#66C6EB"/>
<path d="M67.593 2.55015C67.6247 3.78705 66.6125 4.82836 65.3809 4.82836C64.181 4.82836 63.174 3.87162 63.1423 2.7008C63.1106 1.49297 64.1625 0.414655 65.3677 0.419941C66.5702 0.425227 67.5613 1.37404 67.5904 2.55015H67.593Z" fill="#66C6EB"/>
<path d="M101.793 35.8427C101.785 37.0188 100.802 37.9888 99.5965 38.002C98.3121 38.0178 97.3051 37.0479 97.313 35.803C97.321 34.5635 98.3491 33.6041 99.6309 33.6438C100.833 33.6808 101.801 34.6666 101.793 35.8427Z" fill="#66C6EB"/>
<path d="M37.5296 101.661C37.5851 100.413 38.6317 99.4885 39.9109 99.5519C41.1055 99.6127 42.0437 100.622 42.0041 101.804C41.9618 103.038 40.8967 103.997 39.6413 103.934C38.5128 103.876 37.4794 102.766 37.5296 101.661Z" fill="#66C6EB"/>
<path d="M45.7997 106.225C44.695 106.262 43.5849 105.215 43.5294 104.086C43.4739 102.9 44.5285 101.776 45.7284 101.745C46.8437 101.716 47.9564 102.757 48.0013 103.878C48.0515 105.067 47.0049 106.18 45.7971 106.222L45.7997 106.225Z" fill="#66C6EB"/>
<path d="M54.1272 105.4C54.1563 106.632 53.1493 107.631 51.8754 107.636C50.6755 107.642 49.6792 106.693 49.6422 105.511C49.6052 104.333 50.5593 103.334 51.7644 103.283C53.0489 103.231 54.0981 104.171 54.1272 105.4Z" fill="#66C6EB"/>
<path d="M4.96349 65.4132C4.97406 66.6316 3.92482 67.6412 2.66942 67.6227C1.50653 67.6042 0.523353 66.5972 0.512781 65.4158C0.50221 64.2397 1.46688 63.2486 2.66149 63.2063C3.86931 63.164 4.95292 64.2027 4.96349 65.4132Z" fill="#66C6EB"/>
<path d="M116.585 72.7224C116.604 73.9012 115.642 74.887 114.434 74.924C113.152 74.9636 112.108 74.0042 112.1 72.7779C112.092 71.541 113.102 70.5605 114.381 70.5684C115.578 70.5763 116.567 71.5436 116.585 72.7224Z" fill="#66C6EB"/>
<path d="M19.4626 79.8692C19.4917 81.0559 18.5534 82.0126 17.3245 82.0522C16.0347 82.0945 15.0278 81.1563 15.0172 79.9062C15.0066 78.7116 15.9369 77.7522 17.1527 77.6993C18.3975 77.6465 19.4309 78.6164 19.4626 79.8665V79.8692Z" fill="#66C6EB"/>
<path d="M38.2144 5.52894C38.217 4.31583 39.1553 3.34851 40.3472 3.32473C41.5921 3.2983 42.6307 4.30526 42.6228 5.53158C42.6149 6.80019 41.6211 7.76486 40.3525 7.73315C39.1632 7.70408 38.2091 6.7209 38.2144 5.52894Z" fill="#66C6EB"/>
<path d="M106.394 47.0711C106.405 48.2869 105.485 49.2727 104.298 49.3203C103.051 49.3705 102.047 48.3952 102.033 47.1213C102.02 45.8792 102.921 44.8986 104.105 44.8643C105.345 44.8273 106.381 45.8289 106.394 47.0711Z" fill="#66C6EB"/>
<path d="M89.4343 109.489C88.1789 109.513 87.2089 108.648 87.1482 107.451C87.0874 106.22 88.0785 105.16 89.3154 105.133C90.5893 105.107 91.5989 106.08 91.5936 107.327C91.5883 108.53 90.6527 109.468 89.4343 109.489Z" fill="#66C6EB"/>
<path d="M10.154 34.3829C10.1778 35.6462 9.19727 36.6558 7.9498 36.6531C6.76312 36.6505 5.80374 35.6964 5.76938 34.4859C5.73502 33.2781 6.77898 32.2077 7.98945 32.2051C9.17084 32.2051 10.1302 33.1698 10.1514 34.3855L10.154 34.3829Z" fill="#66C6EB"/>
<path d="M4.91565 52.6784C4.9315 53.9258 4.06198 54.835 2.81451 54.8773C1.52476 54.9222 0.517796 53.9919 0.499295 52.7365C0.480795 51.5366 1.40847 50.564 2.60836 50.5191C3.8664 50.4742 4.89715 51.4388 4.913 52.6784H4.91565Z" fill="#66C6EB"/>
<path d="M65.2328 15.0324C64.0382 15.0667 63.0551 14.147 62.9996 12.9418C62.9388 11.6177 63.8162 10.6504 65.106 10.616C66.2979 10.5843 67.297 11.5093 67.3551 12.6987C67.4186 13.9699 66.4856 14.9954 65.2328 15.0324Z" fill="#66C6EB"/>
<path d="M5.97301 46.425C5.96508 47.7016 4.97927 48.6583 3.70537 48.6266C2.53719 48.5975 1.56195 47.5959 1.55666 46.4197C1.55137 45.1908 2.60591 44.168 3.83223 44.2103C5.01098 44.2525 5.98094 45.2569 5.97301 46.425Z" fill="#66C6EB"/>
<path d="M7.72796 40.2995C7.73325 41.5021 6.79501 42.4614 5.59247 42.4852C4.3265 42.5117 3.32219 41.5417 3.3169 40.2942C3.31426 39.0521 4.19964 38.1508 5.44711 38.1217C6.72893 38.0927 7.72268 39.0415 7.72796 40.2995Z" fill="#66C6EB"/>
<path d="M13.228 65.4845C14.4967 65.4713 15.4719 66.4439 15.464 67.7178C15.456 68.8886 14.4782 69.8718 13.2915 69.8982C12.1074 69.9246 11.0978 68.9758 11.0529 67.7944C11.0053 66.5575 12.0017 65.5004 13.2254 65.4871L13.228 65.4845Z" fill="#66C6EB"/>
<path d="M5.89353 71.6082C5.91468 72.8821 4.94736 73.8679 3.68932 73.8494C2.47621 73.8335 1.55118 72.9006 1.54061 71.6848C1.53004 70.4215 2.51321 69.4225 3.75011 69.4357C4.96322 69.4515 5.87239 70.3713 5.89353 71.6055V71.6082Z" fill="#66C6EB"/>
<path d="M14.8059 21.508C16.0322 21.5212 16.9626 22.4673 16.9573 23.6937C16.952 24.9147 16.0085 25.8582 14.7848 25.8635C13.495 25.8714 12.5171 24.8803 12.5594 23.6091C12.5991 22.3986 13.5664 21.4947 14.8033 21.508H14.8059Z" fill="#66C6EB"/>
<path d="M19.0106 16.7637C20.266 16.7637 21.1725 17.6543 21.191 18.9071C21.2095 20.218 20.2686 21.1483 18.9525 21.1166C17.6971 21.0875 16.8222 20.1783 16.8381 18.9177C16.8513 17.6676 17.7605 16.7663 19.0106 16.7637Z" fill="#66C6EB"/>
<path d="M23.7572 12.5371C25.0178 12.5318 25.9217 13.4172 25.9402 14.67C25.9587 15.9201 25.0681 16.8557 23.8312 16.8901C22.5256 16.9244 21.5688 15.9835 21.5847 14.6806C21.6005 13.4225 22.4938 12.5398 23.7572 12.5371Z" fill="#66C6EB"/>
<path d="M31.1971 94.9104C31.1971 96.1367 30.2563 97.075 29.0273 97.0829C27.8063 97.0908 26.8152 96.1526 26.7834 94.9659C26.7517 93.7184 27.764 92.7141 29.0352 92.7247C30.2536 92.7353 31.1971 93.6894 31.1945 94.9104H31.1971Z" fill="#66C6EB"/>
<path d="M71.2192 57.564C71.1056 58.5604 70.6431 59.3189 69.6811 59.6784C66.2717 60.9523 62.8623 62.2315 59.4344 63.4578C58.3217 63.8569 57.3227 63.5186 56.6937 62.4852C54.0269 58.0979 51.3734 53.7053 48.7516 49.2916C48.0486 48.1076 48.3895 46.8443 49.4441 46.1782C50.5515 45.4805 51.8174 45.758 52.605 47.0293C54.6824 50.3858 56.7412 53.7582 58.7155 57.1755C59.3736 58.3173 59.9894 58.5578 61.2289 58.0318C63.4887 57.0751 65.8224 56.2875 68.1482 55.5025C69.6969 54.9792 71.251 56.0681 71.2192 57.5614V57.564Z" fill="#66C6EB"/>
</g>
<defs>
<clipPath id="clip0_935_6322">
<rect width="119.54" height="120" fill="white"/>
</clipPath>
</defs>
</svg>
