<svg width="141" height="143" viewBox="0 0 141 143" fill="none" xmlns="http://www.w3.org/2000/svg">
<g clip-path="url(#clip0_437_5777)">
<path d="M33.6853 120.494C33.6853 116.298 31.6192 114.203 27.487 114.209C26.0362 114.209 24.5853 114.181 23.1345 114.209C21.3439 114.241 19.9802 113.511 19.3145 111.835C18.6625 110.191 19.039 108.681 20.3062 107.406C24.9526 102.741 29.5347 98.0077 34.2638 93.4309C35.7284 92.0177 35.8891 90.9832 34.9157 89.1359C21.3714 63.5413 37.0782 32.7141 65.6866 29.2874C89.4007 26.4471 107.504 43.6226 110.521 63.2827C111.93 72.4685 110.548 81.1924 106.007 89.3114C105.089 90.9555 105.213 91.93 106.568 93.2416C111.186 97.7167 115.649 102.354 120.213 106.884C121.636 108.293 122.486 109.831 121.7 111.812C120.902 113.83 119.198 114.273 117.206 114.227C114.533 114.162 111.861 114.255 109.189 114.199C107.803 114.167 107.279 114.726 107.307 116.107C107.362 118.869 107.279 121.635 107.334 124.401C107.376 126.35 106.811 127.934 104.924 128.682C103.06 129.421 101.545 128.706 100.19 127.329C94.7036 121.769 89.1573 116.273 83.7028 110.685C82.5091 109.466 81.4393 109.036 79.6855 109.48C73.5928 111.013 67.4267 111.008 61.3341 109.48C59.5894 109.041 58.5058 109.452 57.3121 110.676C51.9632 116.158 46.5179 121.538 41.1507 127.001C39.709 128.465 38.1801 129.504 36.0865 128.687C33.9516 127.851 33.5659 126.022 33.6715 123.953C33.7312 122.803 33.6807 121.649 33.6807 120.499L33.6853 120.494ZM70.4799 36.7829C51.9862 37.277 37.923 51.3074 37.7945 69.4435C37.6613 88.2538 52.2157 102.811 70.76 102.681C89.0288 102.552 103.395 88.1568 103.202 69.3973C103.014 51.058 88.9277 37.2909 70.4799 36.7829ZM41.6007 115.488C44.6539 112.412 47.4959 109.53 50.3563 106.667C51.0174 106.007 50.9577 105.499 50.1634 105.037C47.0368 103.222 44.2131 101.014 41.6925 98.4141C41.1323 97.8368 40.664 97.9569 40.1406 98.4834C37.62 101.01 35.0856 103.517 32.3813 106.201C35.1728 107.073 38.0332 105.522 40.1636 107.609C42.3445 109.747 40.8201 112.62 41.5961 115.493L41.6007 115.488ZM99.1021 115.308C99.2949 115.234 99.4831 115.16 99.676 115.086C99.676 113.645 99.6484 112.204 99.6806 110.768C99.7494 107.9 101.067 106.621 103.928 106.51C105.374 106.45 106.852 106.713 108.744 106.187C105.984 103.49 103.501 101.111 101.081 98.6727C100.31 97.8968 99.7632 97.8784 99.0148 98.6727C96.6962 101.144 94.0011 103.157 91.104 104.884C90.1858 105.434 89.8827 105.91 90.7597 106.796C93.5604 109.609 96.3197 112.468 99.0929 115.308H99.1021Z" fill="#26B2E3"/>
<path d="M25.8209 24.458C25.8209 22.5539 25.8503 20.6497 25.8151 18.7485C25.7974 17.8111 26.1618 17.4408 27.1021 17.4555C31.4394 17.5201 30.6401 16.9853 30.7195 20.8025C30.7459 22.022 30.7254 23.2415 30.7254 24.4639C30.649 24.555 30.5726 24.6432 30.4962 24.7343C29.0151 24.7343 27.537 24.7343 26.056 24.7343C25.9767 24.6432 25.9003 24.5521 25.8209 24.4639V24.458Z" fill="#66C6EB"/>
<path d="M110.286 24.4598C110.286 22.5557 110.319 20.6515 110.28 18.7503C110.263 17.8129 110.621 17.4455 111.567 17.4573C115.931 17.5161 115.097 16.993 115.182 20.8014C115.208 22.0209 115.188 23.2433 115.188 24.4628C115.111 24.5539 115.035 24.642 114.959 24.7331C113.478 24.7331 111.997 24.7331 110.518 24.7302C110.442 24.642 110.363 24.5509 110.286 24.4628V24.4598Z" fill="#66C6EB"/>
<path d="M25.7825 29.4026C23.94 29.4026 22.0946 29.3644 20.2522 29.4143C19.2296 29.4408 18.7506 29.1411 18.7711 28.0215C18.8534 23.8135 18.298 24.5834 22.1828 24.5011C23.3964 24.4747 24.6071 24.4717 25.8207 24.457C25.9 24.5481 25.9764 24.6363 26.0558 24.7274C26.0558 26.2084 26.0528 27.6865 26.0499 29.1675C25.9618 29.2439 25.8707 29.3233 25.7825 29.3997V29.4026Z" fill="#66C6EB"/>
<path d="M30.7253 24.4609C32.6647 24.4756 34.6071 24.5138 36.5466 24.4962C37.4046 24.4874 37.7749 24.8136 37.7631 25.6922C37.7073 30.2264 38.2744 29.2919 34.2545 29.3947C33.0908 29.4241 31.9242 29.4006 30.7606 29.4036C30.6724 29.3272 30.5813 29.2478 30.4932 29.1714C30.4932 27.6904 30.4932 26.2123 30.4932 24.7313C30.5696 24.6402 30.646 24.552 30.7224 24.4609H30.7253Z" fill="#66C6EB"/>
<path d="M110.248 29.4026C108.403 29.4026 106.56 29.3615 104.718 29.4114C103.695 29.4379 103.216 29.1411 103.24 28.0215C103.328 23.8047 102.761 24.5893 106.651 24.5011C107.865 24.4747 109.076 24.4717 110.289 24.457C110.366 24.5452 110.445 24.6363 110.521 24.7244C110.521 26.2055 110.521 27.6865 110.518 29.1646C110.43 29.241 110.339 29.3203 110.251 29.3967L110.248 29.4026Z" fill="#66C6EB"/>
<path d="M115.191 24.4609C117.13 24.4756 119.072 24.5109 121.012 24.4962C121.87 24.4903 122.237 24.8165 122.228 25.6951C122.181 30.2205 122.731 29.3037 118.723 29.3977C117.559 29.4241 116.393 29.4036 115.229 29.4065C115.138 29.3272 115.047 29.2508 114.958 29.1714C114.958 27.6933 114.958 26.2123 114.958 24.7342C115.035 24.6431 115.111 24.555 115.188 24.4639L115.191 24.4609Z" fill="#66C6EB"/>
<path d="M30.7606 29.4021C30.7459 31.2974 30.693 33.1957 30.7312 35.0911C30.7518 36.1049 30.3639 36.4663 29.3619 36.4487C25.1069 36.3723 25.912 36.9306 25.8209 33.0488C25.7915 31.8352 25.7915 30.6186 25.7769 29.4021C25.865 29.3257 25.9561 29.2463 26.0443 29.1699C27.5253 29.1699 29.0063 29.1699 30.4873 29.1699C30.5755 29.2463 30.6666 29.3257 30.7547 29.4021H30.7606Z" fill="#66C6EB"/>
<path d="M115.229 29.4031C115.214 31.2984 115.164 33.1967 115.202 35.0921C115.223 36.1029 114.832 36.4702 113.833 36.4497C109.604 36.3674 110.371 36.9404 110.292 33.0468C110.266 31.8332 110.263 30.6167 110.251 29.4001C110.339 29.3237 110.43 29.2444 110.518 29.168C111.999 29.168 113.48 29.168 114.959 29.168C115.05 29.2473 115.141 29.3237 115.229 29.4031Z" fill="#66C6EB"/>
<path d="M7.04945 8.03421C7.04945 6.13004 7.07884 4.22586 7.04358 2.32463C7.02595 1.38723 7.39032 1.01698 8.33066 1.03167C12.6679 1.09632 11.8687 0.561503 11.948 4.37867C11.9744 5.59816 11.9539 6.81766 11.9539 8.04009C11.8775 8.13118 11.8011 8.21934 11.7247 8.31044C10.2436 8.31044 8.76556 8.31044 7.28454 8.31044C7.2052 8.21934 7.12879 8.12825 7.04945 8.04009V8.03421Z" fill="#66C6EB"/>
<path d="M129.055 8.03602C129.055 6.13184 129.087 4.22767 129.049 2.32643C129.031 1.38904 129.39 1.02172 130.336 1.03348C134.714 1.08343 133.859 0.592694 133.953 4.37753C133.983 5.59703 133.959 6.81652 133.959 8.03896C133.883 8.13005 133.806 8.21821 133.73 8.3093C132.249 8.3093 130.771 8.3093 129.29 8.3093C129.211 8.21821 129.134 8.13005 129.055 8.03896V8.03602Z" fill="#66C6EB"/>
<path d="M7.01151 12.9788C5.16904 12.9788 3.32364 12.9406 1.48117 12.9905C0.458559 13.017 -0.0204232 12.7172 0.000146578 11.5977C0.0824257 7.38966 -0.472959 8.15956 3.41179 8.07728C4.62541 8.05083 5.83609 8.0479 7.04971 8.0332C7.12905 8.1243 7.20545 8.21245 7.28479 8.30355C7.28479 9.78457 7.28185 11.2627 7.27891 12.7437L7.01151 12.9758V12.9788Z" fill="#66C6EB"/>
<path d="M11.9538 8.03711C13.8933 8.0518 15.8356 8.09 17.7751 8.07237C18.6331 8.06356 19.0034 8.38973 18.9916 9.26836C18.9358 13.8025 19.5029 12.8681 15.483 12.9709C14.3193 13.0003 13.1527 12.9768 11.9891 12.9797C11.9009 12.9033 11.8098 12.824 11.7217 12.7476C11.7217 11.2666 11.7217 9.78848 11.7217 8.30746C11.7981 8.21636 11.8745 8.1282 11.9509 8.03711H11.9538Z" fill="#66C6EB"/>
<path d="M129.017 12.9787C127.174 12.9787 125.329 12.9405 123.486 12.9905C122.464 13.017 121.982 12.7172 122.005 11.6006C122.09 7.38965 121.529 8.16836 125.417 8.0802C126.63 8.05376 127.841 8.05082 129.055 8.03906C129.134 8.13016 129.211 8.21831 129.29 8.30941C129.29 9.79043 129.29 11.2685 129.287 12.7495C129.199 12.8259 129.108 12.9053 129.02 12.9817L129.017 12.9787Z" fill="#66C6EB"/>
<path d="M133.959 8.03614C135.899 8.05083 137.841 8.08904 139.78 8.0714C140.639 8.06553 141.009 8.38877 141 9.26739C140.944 13.781 141.479 12.87 137.635 12.97C136.422 13.0023 135.208 12.9758 133.994 12.9758C133.906 12.8994 133.815 12.8201 133.727 12.7437C133.727 11.2627 133.727 9.78457 133.727 8.30355C133.803 8.21245 133.88 8.1243 133.956 8.0332L133.959 8.03614Z" fill="#66C6EB"/>
<path d="M11.9921 12.9802C11.9774 14.8756 11.9245 16.7738 11.9627 18.6692C11.9833 19.683 11.5954 20.0444 10.5933 20.0268C6.33831 19.9504 7.14347 20.5087 7.05238 16.6269C7.02299 15.4133 7.02299 14.1967 7.0083 12.9802C7.09646 12.9038 7.18755 12.8244 7.27571 12.748C8.75673 12.748 10.2378 12.748 11.7188 12.748C11.8069 12.8244 11.898 12.9038 11.9862 12.9802H11.9921Z" fill="#66C6EB"/>
<path d="M133.997 12.9802C133.983 14.8756 133.93 16.7738 133.968 18.6692C133.989 19.683 133.601 20.0444 132.599 20.0268C128.352 19.9533 129.149 20.5117 129.058 16.6269C129.031 15.4133 129.028 14.1967 129.017 12.9802C129.105 12.9038 129.196 12.8244 129.284 12.748C130.765 12.748 132.246 12.748 133.727 12.748C133.815 12.8244 133.906 12.9038 133.994 12.9802H133.997Z" fill="#66C6EB"/>
<path d="M23.4759 128.973C23.4759 128.923 23.4759 128.876 23.4759 128.826C23.4759 125.038 23.473 125.053 27.2813 125.388C27.9836 125.45 28.3715 125.664 28.3656 126.422C28.3509 128.13 28.5214 129.852 28.3245 131.535C28.0806 133.625 26.3351 132.367 25.289 132.593C24.5132 132.761 23.4171 132.914 23.4759 131.462C23.5082 130.633 23.4818 129.805 23.4818 128.976H23.4759V128.973Z" fill="#26B2E3"/>
<path d="M112.634 128.99C112.634 128.893 112.634 128.796 112.634 128.696C112.634 125.288 113.322 124.747 116.716 125.402C117.339 125.523 117.521 125.855 117.521 126.401C117.521 128.156 117.521 129.913 117.518 131.667C117.518 131.764 117.533 131.888 117.486 131.955C116.454 133.363 114.991 132.375 113.745 132.608C112.943 132.757 112.614 132.261 112.637 131.476C112.661 130.648 112.643 129.819 112.643 128.99H112.637H112.634Z" fill="#26B2E3"/>
<path d="M25.8563 142.023C23.1705 142.002 23.5026 142.179 23.4791 139.355C23.4614 137.121 23.4761 137.107 25.7035 137.124C28.5334 137.145 28.3776 136.816 28.3717 139.496C28.3659 142.258 28.6127 141.994 25.8534 142.023H25.8563Z" fill="#26B2E3"/>
<path d="M115.012 142.02C113.427 142.02 112.634 141.228 112.634 139.645C112.634 137.963 113.426 137.121 115.009 137.121C117.536 137.121 117.545 137.121 117.533 139.349C117.515 142.261 117.818 141.996 115.014 142.02H115.012Z" fill="#26B2E3"/>
<path d="M52.4122 88.2526C53.1241 85.3527 53.8776 81.836 54.8715 78.3883C55.3708 76.6622 54.9223 75.6909 53.443 74.8026C51.275 73.4999 49.2178 72.0131 47.1052 70.6184C45.5519 69.5965 44.7291 68.2202 45.0804 66.3422C45.4179 64.5608 46.629 63.6264 48.3441 63.2029C51.9221 62.3192 55.4817 61.3756 59.0598 60.5102C60.3541 60.1972 61.1909 59.5067 61.778 58.2961C63.4745 54.7794 65.2821 51.3179 67.0064 47.8151C67.8523 46.0981 69.082 44.9382 71.0883 44.9796C72.979 45.021 74.1625 46.1442 74.9715 47.7782C76.5987 51.074 78.3322 54.3145 79.8855 57.6471C80.6621 59.318 81.7161 60.2754 83.5837 60.6529C86.8151 61.3065 89.9956 62.2133 93.1946 63.0188C95.0067 63.4745 96.5322 64.2847 96.9159 66.3054C97.3181 68.409 96.2364 69.7853 94.5537 70.8716C92.4272 72.2433 90.3608 73.7162 88.2112 75.0465C86.9584 75.8244 86.6718 76.7266 87.0647 78.1259C87.9107 81.1455 88.6226 84.2019 89.3669 87.2445C89.806 89.0397 89.8338 90.775 88.2343 92.0777C86.5608 93.4402 84.8134 93.072 83.0614 92.1928C79.7006 90.5081 76.3028 88.8832 72.9744 87.1433C71.6153 86.4344 70.4319 86.4206 69.0681 87.1295C65.5271 88.9661 61.9675 90.7842 58.3432 92.4505C55.1627 93.9097 52.3474 92.1283 52.4122 88.248V88.2526ZM83.2324 69.127C81.7901 68.0914 80.5419 67.9395 79.377 67.7507C76.6911 67.3227 74.9437 65.9141 73.9313 63.4147C73.3304 61.9325 72.5075 60.5378 71.7817 59.1109C71.2593 58.0798 70.7277 58.112 70.2192 59.1201C69.3917 60.7587 68.518 62.3744 67.7645 64.0453C66.8769 66.02 65.4115 67.1661 63.2942 67.5988C61.8982 67.8842 60.5298 68.3031 58.9026 68.7266C60.6454 70.7059 63.6178 71.2122 63.7612 74.1765C63.8767 76.6023 62.5269 78.8026 62.5685 81.3389C65.6473 80.5563 67.8986 78.0615 70.982 78.0247C74.1162 77.9879 76.3768 80.6714 79.793 81.3296C78.152 76.3768 76.4461 71.5252 83.2324 69.1316V69.127Z" fill="black"/>
</g>
<defs>
<clipPath id="clip0_437_5777">
<rect width="141" height="141.044" fill="white" transform="translate(0 0.978516)"/>
</clipPath>
</defs>
</svg>
