<svg width="141" height="141" viewBox="0 0 141 141" fill="none" xmlns="http://www.w3.org/2000/svg">
<g clip-path="url(#clip0_437_5808)">
<path d="M140.987 99.2877C140.987 109.249 140.971 119.213 141 129.175C141.007 131.552 139.855 133.199 137.962 134.413C135.269 136.141 132.214 136.838 129.116 137.348C121.281 138.636 113.481 138.518 105.749 136.619C103.684 136.112 101.654 135.449 99.918 134.162C98.0926 132.811 97.2086 131.128 97.4447 128.7C97.7001 126.077 97.6075 123.401 97.4447 120.762C97.3618 119.424 97.6203 118.133 97.5628 116.811C97.3107 110.998 97.4607 105.173 97.4575 99.361C97.4575 94.664 97.4894 89.951 97.4894 85.2508C97.4894 79.7572 97.7926 74.2539 97.3618 68.7571C97.2309 67.0746 98.3192 65.7744 99.6372 64.7675C101.313 63.4896 103.259 62.7663 105.27 62.2564C114.368 59.9557 123.515 59.7741 132.687 61.7721C134.716 62.215 136.641 62.983 138.332 64.2449C140.116 65.5769 141 67.3263 140.997 69.5601C140.984 79.4704 140.991 89.3775 140.991 99.2877H140.984H140.987ZM119.353 102.152C123.671 102.216 128.2 101.831 132.594 100.464C135.358 99.6032 135.549 99.2272 135.505 96.423C135.486 95.244 135.109 95.1165 134.072 95.4543C129.703 96.8723 125.171 97.3471 120.608 97.4459C115.131 97.5638 109.706 97.1177 104.421 95.5435C103.856 95.3746 103.307 95.1165 103.074 96.0247C102.5 98.268 103.122 99.565 105.305 100.311C109.776 101.834 114.41 102.197 119.353 102.152ZM119.644 122.502C122.353 122.62 125.516 122.33 128.65 121.779C130.003 121.54 131.346 121.205 132.655 120.791C135.339 119.946 135.511 119.589 135.505 116.862C135.505 115.622 135.144 115.495 134.002 115.817C124.625 118.471 115.189 118.461 105.736 116.256C102.88 115.59 102.892 115.571 103.026 118.512C103.087 119.835 103.968 120.189 104.919 120.526C109.527 122.167 114.314 122.55 119.641 122.499L119.644 122.502ZM119.012 91.9777C123.745 92.0096 128.436 91.6973 132.955 90.1263C135.454 89.2564 135.479 89.1289 135.502 86.484C135.511 85.3241 135.364 84.8939 133.995 85.2859C124.622 87.9563 115.182 87.9308 105.726 85.7288C102.873 85.0628 102.905 85.0373 103.033 87.9913C103.09 89.3201 103.977 89.6643 104.928 90.002C109.486 91.624 114.218 92.0191 119.012 91.9809V91.9777ZM119.258 112.324C123.681 112.416 128.203 111.98 132.601 110.638C135.342 109.8 135.543 109.399 135.505 106.598C135.489 105.412 135.106 105.294 134.072 105.629C129.598 107.085 124.964 107.544 120.292 107.627C114.921 107.723 109.601 107.273 104.427 105.709C103.425 105.406 103.103 105.667 103.042 106.684C102.883 109.453 103.062 109.788 105.761 110.645C110.102 112.021 114.576 112.385 119.258 112.327V112.324ZM119.325 132.686C123.69 132.75 128.27 132.364 132.709 130.959C135.367 130.118 135.546 129.745 135.502 126.995C135.482 125.899 135.214 125.606 134.101 125.969C129.578 127.448 124.89 127.9 120.164 127.986C114.844 128.082 109.588 127.601 104.456 126.09C103.914 125.931 103.339 125.612 103.081 126.53C102.468 128.7 103.135 130.092 105.273 130.829C109.741 132.368 114.372 132.718 119.318 132.686H119.325ZM119.325 81.7998C123.725 81.8603 128.308 81.4747 132.754 80.0567C135.339 79.2314 135.476 78.9095 135.511 76.5355C135.533 75.0697 135.039 74.8594 133.708 75.2577C129.518 76.51 125.193 76.9816 120.834 77.0932C115.297 77.2334 109.814 76.7809 104.469 75.2067C103.926 75.0474 103.349 74.7224 103.087 75.6401C102.474 77.7942 103.151 79.2091 105.286 79.9452C109.76 81.4843 114.4 81.8348 119.325 81.7998ZM120.008 65.9561C115.275 65.8509 110.325 66.2588 105.532 67.8362C104.893 68.0465 103.856 68.1707 103.837 68.7921C103.811 69.6334 104.903 69.6493 105.557 69.8596C111.729 71.8417 118.086 71.8576 124.456 71.4338C127.364 71.2394 130.261 70.8252 133.019 69.7991C133.682 69.5537 134.796 69.4995 134.819 68.7411C134.844 67.8425 133.705 67.766 133 67.5175C128.883 66.0708 124.597 65.8796 120.008 65.9529V65.9561Z" fill="black"/>
<path d="M0.0444988 78.9673C0.0444988 69.1654 0.121091 59.3602 -0.000179982 49.5615C-0.0384761 46.5311 1.30508 44.6765 3.81029 43.3636C7.11652 41.6333 10.7195 40.9768 14.3577 40.5498C21.4169 39.7213 28.4411 39.9603 35.3663 41.6906C37.4375 42.2069 39.4257 42.9525 41.1618 44.2271C42.6968 45.3552 43.5585 46.7987 43.5521 48.8063C43.4915 65.4434 43.4787 82.0774 43.45 98.7146C43.4436 101.895 43.3893 105.075 43.4596 108.252C43.5202 110.977 42.3617 112.917 40.0512 114.262C37.3896 115.814 34.4568 116.54 31.4633 117.012C23.686 118.245 15.9374 118.181 8.25583 116.26C6.34102 115.782 4.50919 115.09 2.8465 114.004C0.989137 112.796 0.00620271 111.177 0.0189681 108.851C0.0764123 98.8898 0.0444988 88.9286 0.0444988 78.9673ZM21.5605 71.619C26.2518 71.6891 30.8857 71.2717 35.3631 69.7899C37.8938 68.9519 37.98 68.7001 37.9832 66.0202C37.9832 64.9049 37.8013 64.4938 36.5471 64.9081C32.1813 66.3516 27.6401 66.8041 23.0732 66.9124C17.4852 67.0463 11.9546 66.5842 6.58037 64.8858C6.06338 64.7233 5.34851 64.3313 5.34213 65.3893C5.31979 68.6332 4.90811 68.7256 7.92393 69.7931C12.328 71.3482 16.9267 71.6636 21.5605 71.619ZM21.4201 81.7938C26.2199 81.8607 30.8027 81.4496 35.2386 80.0093C37.8875 79.1489 37.9736 78.9067 37.9864 76.1695C37.9896 75.0032 37.7407 74.6845 36.5311 75.086C32.2164 76.5232 27.7294 76.9693 23.2137 77.084C17.5171 77.2274 11.8748 76.7813 6.41442 74.9904C5.69956 74.7546 5.37724 74.8789 5.31341 75.7361C5.09321 78.6168 5.41553 79.184 8.23668 80.0922C12.5769 81.4879 17.0544 81.8575 21.4201 81.7938ZM21.835 91.9717C26.2167 92.0578 30.742 91.618 35.1333 90.2319C37.8843 89.3619 38.0534 88.9732 37.9896 86.1435C37.9641 85.0345 37.6002 84.923 36.6428 85.2385C32.2196 86.6948 27.6337 87.16 23.0126 87.2683C17.4214 87.399 11.8844 86.9529 6.52612 85.2034C5.56872 84.8912 5.34213 85.1875 5.31341 86.1244C5.22724 88.9668 5.42511 89.3587 8.13137 90.2414C12.5163 91.6722 17.0512 92.0387 21.8382 91.9749L21.835 91.9717ZM21.8861 102.156C26.2486 102.226 30.8282 101.799 35.261 100.362C37.8811 99.5112 37.98 99.2276 37.9832 96.5031C37.9832 95.2794 37.6609 95.1233 36.4992 95.4515C27.0624 98.1123 17.5682 98.1474 8.05797 95.8594C5.2049 95.1743 4.86662 95.4483 5.34213 98.3545C5.54638 99.6068 6.6059 99.849 7.51863 100.18C12.0695 101.847 16.815 102.185 21.8829 102.156H21.8861ZM21.4999 112.324C26.1401 112.414 30.7197 111.993 35.1589 110.575C37.8907 109.702 38.0789 109.297 37.9832 106.468C37.9513 105.524 37.7183 105.276 36.7577 105.547C26.6731 108.389 16.5789 108.446 6.49421 105.547C5.69637 105.317 5.35809 105.403 5.30703 106.35C5.14746 109.214 5.40915 109.711 8.1569 110.604C12.4907 112.009 16.9682 112.388 21.4967 112.324H21.4999ZM21.3116 61.4443C26.322 61.4984 31.058 61.1065 35.6216 59.5164C37.8683 58.7325 37.9704 58.4266 37.9864 56.043C37.996 54.7652 37.6162 54.4975 36.3907 54.8703C31.9994 56.2023 27.4709 56.6708 22.9041 56.7441C17.3703 56.8333 11.8972 56.3712 6.58676 54.676C5.75381 54.4083 5.34532 54.4497 5.30384 55.5108C5.19214 58.3947 5.41234 58.8345 8.19519 59.7331C12.529 61.132 17.0033 61.508 21.3116 61.4475V61.4443ZM21.8222 51.2536C24.2923 51.3077 26.6699 51.2249 29.0347 50.8903C31.4473 50.5493 33.8536 50.151 36.1354 49.2556C36.595 49.0739 37.3577 49.0261 37.3226 48.4048C37.2907 47.8375 36.5535 47.7643 36.0748 47.5922C35.178 47.2735 34.2717 46.9644 33.343 46.7573C26.8071 45.3042 20.2202 45.2564 13.6109 46.1232C11.511 46.4004 9.43024 46.8242 7.45161 47.6113C6.99206 47.7929 6.22932 47.8407 6.26443 48.4621C6.29634 49.0325 7.03674 49.0963 7.51225 49.2747C8.25264 49.5519 9.01537 49.7973 9.78129 49.9885C13.7609 50.9763 17.8043 51.3747 21.819 51.2536H21.8222Z" fill="black"/>
<path d="M47.1841 112.301C47.1841 105.781 47.2447 99.2616 47.1522 92.745C47.1171 90.2148 48.1958 88.5037 50.2701 87.2704C53.8285 85.1546 57.8209 84.4981 61.8292 84.0329C67.9215 83.3254 74.0106 83.4816 80.0486 84.6415C82.6591 85.145 85.2186 85.8365 87.5323 87.2163C89.6577 88.4814 90.7364 90.218 90.7236 92.8151C90.6534 105.906 90.6662 118.996 90.7173 132.087C90.7268 134.298 89.7726 135.834 88.0589 137.01C85.1324 139.017 81.7432 139.715 78.3284 140.247C70.7011 141.43 63.1057 141.273 55.5869 139.435C53.4679 138.915 51.4031 138.221 49.6255 136.886C48.0617 135.71 47.1426 134.257 47.1618 132.179C47.2224 125.554 47.1841 118.929 47.1841 112.304V112.301ZM69.5299 135.534C73.6053 135.487 78.2487 135.184 82.7165 133.648C85.3781 132.73 85.5026 132.424 85.4292 129.633C85.4005 128.521 84.9984 128.4 84.0697 128.718C79.3465 130.331 74.4286 130.729 69.5012 130.793C64.1908 130.86 58.9123 130.398 53.8189 128.725C52.9221 128.428 52.4754 128.47 52.4434 129.617C52.3637 132.437 52.5137 132.781 55.2869 133.702C59.7133 135.168 64.2993 135.515 69.5299 135.538V135.534ZM69.2969 105.004C73.6563 104.969 78.2965 104.634 82.7644 103.101C85.3749 102.206 85.4515 101.977 85.426 99.2138C85.4164 98.0857 85.0973 97.8308 84.025 98.1909C79.3529 99.7682 74.4925 100.205 69.6129 100.259C64.2482 100.32 58.9155 99.8702 53.7742 98.1686C52.7913 97.8435 52.4722 98.073 52.4466 99.1277C52.3828 101.922 52.5137 102.222 55.1816 103.124C59.6559 104.634 64.2961 104.972 69.2969 104.997V105.004ZM68.381 115.182C73.5925 115.156 78.2327 114.818 82.7038 113.305C85.3654 112.403 85.4994 112.078 85.4292 109.296C85.4005 108.213 85.043 108.034 84.0856 108.356C79.2571 109.981 74.2403 110.418 69.2012 110.443C63.9993 110.469 58.8229 110.029 53.8381 108.369C52.7434 108.006 52.4594 108.305 52.4498 109.408C52.4243 112.151 52.5041 112.39 55.1274 113.286C59.5953 114.818 64.2355 115.14 68.3874 115.179L68.381 115.182ZM68.8853 125.363C73.6467 125.325 78.287 124.993 82.7548 123.464C85.3717 122.568 85.4579 122.317 85.426 119.586C85.4132 118.473 85.1069 118.19 84.0282 118.553C79.2539 120.159 74.2882 120.593 69.3033 120.624C64.0472 120.656 58.8293 120.185 53.7742 118.56C53.2892 118.403 52.6668 117.973 52.469 119.012C51.9871 121.552 52.4498 122.517 54.8784 123.381C59.4357 125 64.1812 125.321 68.8821 125.366L68.8853 125.363ZM69.1214 89.1537C64.1653 89.0581 59.4261 89.4501 54.8497 91.0306C54.3231 91.2123 53.487 91.311 53.4679 91.9133C53.4455 92.5506 54.2976 92.6271 54.8114 92.8215C57.9166 94.0037 61.1782 94.4466 64.4621 94.6601C70.5767 95.0616 76.6562 94.8704 82.5666 92.9967C83.2495 92.78 84.3824 92.6558 84.3665 91.9643C84.3473 91.1421 83.1921 91.072 82.4708 90.8426C78.0795 89.4341 73.5478 89.0549 69.1182 89.1537H69.1214Z" fill="black"/>
<path d="M77.8177 4.30014e-05C95.8552 0.0287223 110.143 14.3429 110.098 32.3502C110.057 50.0772 95.4722 64.4423 77.5783 64.385C59.8823 64.3308 45.5819 49.7522 45.6138 31.7926C45.6394 14.2919 60.144 -0.0286363 77.8177 4.30014e-05ZM51.1029 32.0411C51.0487 46.9544 62.7545 58.8212 77.5943 58.8977C92.6862 58.9742 104.443 47.2412 104.66 32.2483C104.855 18.8487 94.2499 5.42361 77.9613 5.35032C61.6599 5.27703 50.7615 18.7308 51.1061 32.0411H51.1029Z" fill="#66C6EB"/>
<path d="M79.0876 49.1655C76.0176 49.1655 72.9475 49.1655 69.8774 49.1655C68.7796 49.1655 68.0009 48.6302 67.5892 47.6519C67.1935 46.7214 67.3084 45.7463 68.0967 45.1026C70.4614 43.1779 70.4582 40.6063 69.9859 38.0188C69.3477 34.5136 69.5551 35.2338 66.6382 35.1573C65.9553 35.1382 65.2691 35.1955 64.5926 35.1159C63.3288 34.9693 62.5022 33.9751 62.5118 32.71C62.5182 31.4481 63.3639 30.5272 64.634 30.3264C65.5244 30.1862 66.718 30.7789 67.2446 29.9727C67.7328 29.2239 66.935 28.2392 66.7531 27.3501C65.3744 20.5978 69.7498 14.8428 76.6112 14.2373C83.5842 13.6223 87.3564 17.2901 89.5042 22.156C90.1329 23.5836 89.7116 24.9124 88.4862 25.5338C87.2224 26.1711 85.9586 25.7505 85.1352 24.3866C84.7331 23.7206 84.4044 23.01 83.9832 22.3568C81.8067 18.9854 77.4026 18.0071 73.9783 20.1421C72.0348 21.353 71.4093 23.2171 71.4731 25.3968C71.4731 25.4446 71.4859 25.4924 71.4922 25.5402C72.0922 29.9695 72.472 30.3073 76.8824 30.3105C78.9791 30.3105 81.0727 30.2977 83.1694 30.3169C85.0076 30.3328 86.0256 31.19 86.0448 32.6877C86.0671 34.2587 85.0395 35.135 83.1055 35.1477C80.7184 35.1637 78.3313 35.1796 75.9442 35.1445C74.9134 35.1286 74.54 35.4281 74.7857 36.5243C75.2644 38.6753 75.4719 40.8644 74.9134 43.0313C74.623 44.1657 75.0857 44.3506 76.075 44.341C80.0706 44.306 84.0661 44.3123 88.0617 44.3378C89.6287 44.3474 90.5861 45.1632 90.7137 46.4824C90.8637 48.0183 89.8425 49.1336 88.1543 49.1528C85.1321 49.191 82.113 49.1623 79.0908 49.1623L79.0876 49.1655Z" fill="#26B2E3"/>
<path d="M123.96 18.3296C123.96 17.0487 123.977 15.7679 123.953 14.4885C123.943 13.9699 124.126 13.769 124.651 13.7818C125.764 13.8089 126.877 13.8032 127.989 13.7861C128.446 13.779 128.62 13.9599 128.614 14.4144C128.6 15.718 128.613 17.0231 128.614 18.3267C128.576 18.3709 128.539 18.4165 128.5 18.4607C127.023 18.4607 125.546 18.4578 124.069 18.4578C124.032 18.4151 123.995 18.3723 123.957 18.3296H123.96Z" fill="#66C6EB"/>
<path d="M123.941 23.0103C122.661 23.0089 121.38 22.9904 120.099 23.0146C119.57 23.0246 119.391 22.8237 119.402 22.3065C119.428 21.2152 119.429 20.1224 119.401 19.0296C119.386 18.4896 119.615 18.3344 120.121 18.3415C121.401 18.3586 122.682 18.3372 123.961 18.3301C123.998 18.3728 124.035 18.4156 124.074 18.4583C124.074 19.9372 124.074 21.4161 124.074 22.8949C124.029 22.9334 123.985 22.9719 123.941 23.0103Z" fill="#66C6EB"/>
<path d="M128.616 18.3301C129.914 18.3372 131.21 18.36 132.508 18.3458C132.994 18.3401 133.181 18.5167 133.172 19.0068C133.151 20.1167 133.147 21.228 133.175 22.3364C133.189 22.8793 132.952 23.0246 132.454 23.016C131.18 22.9947 129.906 23.0103 128.631 23.0103C128.589 22.9733 128.546 22.9363 128.503 22.8992C128.503 21.4203 128.503 19.9415 128.503 18.464C128.542 18.4198 128.579 18.3742 128.617 18.3301H128.616Z" fill="#66C6EB"/>
<path d="M128.634 23.0099C128.628 24.2865 128.6 25.5645 128.625 26.8411C128.637 27.401 128.435 27.5919 127.884 27.5762C126.798 27.5463 125.711 27.5506 124.624 27.5719C124.14 27.5805 123.952 27.4053 123.957 26.9123C123.971 25.6115 123.948 24.3107 123.941 23.0099C123.985 22.9715 124.029 22.933 124.073 22.8945C125.55 22.8945 127.027 22.896 128.504 22.8974C128.547 22.9344 128.59 22.9715 128.632 23.0085L128.634 23.0099Z" fill="#66C6EB"/>
<path d="M28.7405 131.428C28.7405 130.147 28.759 128.866 28.7348 127.585C28.7248 127.065 28.9069 126.869 29.432 126.881C30.5448 126.909 31.6589 126.903 32.7717 126.886C33.2299 126.879 33.4021 127.061 33.3964 127.515C33.3821 128.819 33.3935 130.124 33.3949 131.429C33.3579 131.472 33.321 131.516 33.284 131.559C31.8069 131.559 30.3285 131.559 28.8514 131.559C28.8144 131.516 28.7774 131.473 28.739 131.431L28.7405 131.428Z" fill="#66C6EB"/>
<path d="M28.7246 136.108C27.4739 136.108 26.2231 136.087 24.9737 136.115C24.4131 136.128 24.1598 135.97 24.1826 135.36C24.221 134.274 24.2096 133.186 24.1868 132.1C24.1769 131.606 24.3675 131.436 24.8513 131.442C26.1491 131.456 27.4468 131.435 28.7431 131.428C28.7801 131.47 28.8171 131.513 28.8555 131.556C28.8555 133.035 28.8555 134.515 28.8555 135.994C28.8129 136.031 28.7702 136.068 28.7275 136.107L28.7246 136.108Z" fill="#66C6EB"/>
<path d="M33.3961 131.43C34.6938 131.437 35.9916 131.458 37.2879 131.444C37.7717 131.438 37.9638 131.609 37.9538 132.104C37.9311 133.213 37.9254 134.325 37.9538 135.435C37.9681 135.977 37.7333 136.123 37.2352 136.114C35.9617 136.093 34.6867 136.109 33.4132 136.11C33.3705 136.073 33.3278 136.036 33.2837 135.999C33.2837 134.52 33.2837 133.041 33.2837 131.561C33.3207 131.518 33.3577 131.474 33.3947 131.431L33.3961 131.43Z" fill="#66C6EB"/>
<path d="M33.4137 136.109C33.4065 137.409 33.3909 138.71 33.3966 140.011C33.3994 140.437 33.2884 140.676 32.8032 140.669C31.6463 140.651 30.4881 140.652 29.3312 140.671C28.8431 140.679 28.7378 140.434 28.7392 140.011C28.7449 138.71 28.7293 137.409 28.7222 136.109C28.7649 136.072 28.8075 136.035 28.8502 135.996C30.3287 135.996 31.8057 135.996 33.2842 135.996L33.4137 136.107V136.109Z" fill="#66C6EB"/>
<path d="M18.6052 11.9883C18.6052 10.7075 18.6237 9.42665 18.5995 8.14581C18.5895 7.62578 18.7717 7.42917 19.2968 7.44199C20.4095 7.46906 21.5237 7.46336 22.6364 7.44626C23.0946 7.43914 23.2668 7.62151 23.2611 8.076C23.2469 9.37964 23.2583 10.6847 23.2597 11.9898C23.2227 12.0325 23.1857 12.0767 23.1487 12.1194C21.6717 12.1194 20.1932 12.1194 18.7162 12.1194C18.6792 12.0767 18.6422 12.0339 18.6038 11.9912L18.6052 11.9883Z" fill="#66C6EB"/>
<path d="M18.5894 16.6686C17.3386 16.6686 16.0878 16.6472 14.8385 16.6757C14.2778 16.6885 14.0245 16.5304 14.0473 15.9206C14.0857 14.8349 14.0743 13.7464 14.0516 12.6608C14.0416 12.1664 14.2323 11.9968 14.7161 12.0025C16.0138 12.0168 17.3116 11.9954 18.6079 11.9883C18.6449 12.031 18.6819 12.0738 18.7203 12.1165C18.7203 13.5954 18.7203 15.0757 18.7203 16.5546C18.6776 16.5916 18.6349 16.6287 18.5922 16.6671L18.5894 16.6686Z" fill="#66C6EB"/>
<path d="M23.2609 11.9902C24.5586 11.9974 25.8563 12.0187 27.1526 12.0045C27.6364 11.9988 27.8285 12.1697 27.8186 12.6641C27.7958 13.774 27.7901 14.8853 27.8186 15.9952C27.8328 16.538 27.598 16.6833 27.1 16.6748C25.8264 16.6534 24.5515 16.6691 23.2779 16.6705C23.2352 16.6335 23.1925 16.5964 23.1484 16.5594C23.1484 15.0805 23.1484 13.6016 23.1484 12.1213C23.1854 12.0786 23.2224 12.0344 23.2594 11.9917L23.2609 11.9902Z" fill="#66C6EB"/>
<path d="M23.2789 16.6692C23.2718 17.97 23.2561 19.2708 23.2618 20.5716C23.2647 20.9975 23.1537 21.2369 22.6684 21.2298C21.5116 21.2113 20.3533 21.2127 19.1964 21.2312C18.7084 21.2398 18.6031 20.9947 18.6045 20.5716C18.6102 19.2708 18.5945 17.97 18.5874 16.6692C18.6301 16.6322 18.6728 16.5951 18.7155 16.5566C20.1939 16.5566 21.671 16.5566 23.1494 16.5566L23.2789 16.6678V16.6692Z" fill="#66C6EB"/>
</g>
<defs>
<clipPath id="clip0_437_5808">
<rect width="141" height="141" fill="white"/>
</clipPath>
</defs>
</svg>
