<svg width="120" height="120" viewBox="0 0 120 120" fill="none" xmlns="http://www.w3.org/2000/svg">
<g clip-path="url(#clip0_935_6422)">
<path d="M90.0309 57.9177C91.6528 57.9177 93.2747 57.9415 94.8965 57.9082C95.6861 57.8939 96.0143 58.184 96.0047 58.9974C95.9667 62.6977 96.3852 62.0271 93.151 62.0699C90.5731 62.1032 87.9952 62.1317 85.4173 62.0556C84.3567 62.0223 83.9334 62.3933 83.7955 63.4112C83.1439 68.2007 81.1653 72.4005 77.9548 76.0009C74.1688 80.253 69.4269 82.8214 63.8145 83.7726C62.069 84.0675 62.0594 84.0295 62.0594 85.756C62.0594 88.7477 62.0309 91.7441 62.0785 94.7358C62.0927 95.7108 61.755 96.058 60.78 96.0295C57.4269 95.9343 57.931 96.4433 57.9025 93.2185C57.8787 90.6407 57.8407 88.0628 57.9263 85.4849C57.9643 84.3577 57.541 83.9534 56.4946 83.7917C49.2699 82.6692 43.648 79.0211 39.6623 72.8951C37.8264 70.0747 36.6278 66.9831 36.195 63.6299C36.0476 62.4932 35.6623 61.9986 34.3971 62.0414C31.3627 62.1412 28.3282 62.0414 25.2937 62.0937C24.2568 62.1127 23.9144 61.7512 23.9382 60.7286C24.019 57.423 23.5719 57.951 26.6873 57.9177C29.308 57.8892 31.9286 57.8559 34.5446 57.9367C35.6195 57.97 36.019 57.5848 36.1569 56.5764C36.8085 51.7869 38.7824 47.5871 41.9929 43.9867C45.8169 39.7013 50.5874 37.0996 56.2568 36.2197C57.4459 36.0342 57.9691 35.6965 57.9215 34.3648C57.8121 31.3351 57.9215 28.2958 57.8739 25.2613C57.8597 24.2958 58.1641 23.9343 59.1581 23.9581C62.5874 24.039 62.0071 23.5919 62.0452 26.7548C62.0737 29.3327 62.1118 31.9106 62.0261 34.4884C61.9929 35.5919 62.3638 36.0485 63.434 36.1912C68.3234 36.8428 72.5755 38.9022 76.1998 42.2126C80.3329 45.9843 82.8632 50.6739 83.7289 56.2102C83.9191 57.4421 84.2759 58.0651 85.6599 57.9415C87.1058 57.8131 88.566 57.9129 90.0214 57.9129L90.0309 57.9177ZM60.0143 79.8582C71.4388 79.5158 79.843 70.8452 79.7717 59.9296C79.6956 48.3624 70.6682 40.1151 59.8811 40.2055C48.5279 40.3006 40.1522 49.1091 40.1807 60.0104C40.2093 71.2827 48.9084 79.5919 60.0143 79.863V79.8582Z" fill="#66C6EB"/>
<path d="M119.952 63.1724C119.462 72.8561 116.666 82.34 111.353 91.0107C103.577 103.696 92.5801 112.414 78.4588 117.113C72.9558 118.944 67.2769 119.933 61.4553 120C60.2995 120.014 59.8001 119.724 59.8762 118.478C60.0331 115.805 59.1818 115.772 62.7204 115.596C77.284 114.877 89.6693 109.208 99.8619 98.8394C108.509 90.0451 113.531 79.4245 115.253 67.2295C115.524 65.2937 115.638 63.3436 115.624 61.3888C115.615 60.3186 116.024 59.8382 117.189 59.8906C120.333 60.0237 119.928 59.4482 119.952 63.1771V63.1724Z" fill="#66C6EB"/>
<path d="M0 56.899C0.494649 46.987 3.36742 37.3984 8.80381 28.6517C16.585 16.1427 27.5054 7.51492 41.5077 2.88234C47.0583 1.04643 52.7658 0.0333538 58.635 6.01177e-05C59.6956 -0.00469612 60.1379 0.271166 60.0856 1.3984C59.9429 4.2997 60.7277 4.21885 57.2366 4.39483C42.8633 5.11778 30.6017 10.6588 20.4471 20.7991C12.0381 29.1939 6.97741 39.3532 4.96076 51.0393C4.54221 53.4555 4.36623 55.8954 4.31867 58.3544C4.29013 60.0619 4.20452 60.0904 2.50654 60.0762C-0.404281 60.0524 0.0523187 60.4186 0.00475624 56.8942L0 56.899Z" fill="#66C6EB"/>
<path d="M105.969 60.0191C106.036 60.761 105.655 61.308 105.18 61.7884C102.811 64.1808 100.419 66.5494 98.0594 68.9465C97.5172 69.4983 97.1414 69.4031 96.6087 68.9037C94.2211 66.673 94.2068 66.6873 96.5041 64.3901C97.736 63.1534 98.9488 61.8978 100.214 60.6944C100.775 60.1617 100.751 59.8098 100.204 59.2818C98.4732 57.6029 96.799 55.8669 95.0725 54.1879C94.5208 53.6505 94.4019 53.2509 95.0249 52.6612C97.95 49.8883 96.78 50.0452 99.5481 52.6183C101.493 54.4257 103.306 56.3805 105.175 58.2688C105.66 58.7587 106.036 59.2866 105.96 60.0143L105.969 60.0191Z" fill="#66C6EB"/>
<path d="M60.0239 105.987C59.3343 106.049 58.8158 105.745 58.3545 105.288C55.9431 102.877 53.5412 100.461 51.1155 98.0681C50.6018 97.564 50.4924 97.1835 51.0679 96.6365C54.0453 93.8113 52.823 93.9683 55.6815 96.589C56.9371 97.74 58.1072 98.9813 59.2724 100.223C59.7909 100.774 60.1476 100.789 60.685 100.232C62.3307 98.5295 64.0477 96.8934 65.6886 95.1859C66.2927 94.558 66.7017 94.4153 67.4009 95.1145C69.6458 97.3499 69.6743 97.3214 67.4294 99.5711C65.6363 101.364 63.8479 103.162 62.0453 104.946C61.4841 105.502 60.9038 106.063 60.0192 105.992L60.0239 105.987Z" fill="#66C6EB"/>
<path d="M60.0096 14.0072C60.8134 13.9359 61.3556 14.4067 61.8598 14.9061C64.2094 17.251 66.54 19.6243 68.8991 21.9644C69.3747 22.4353 69.4413 22.7634 68.9609 23.3056C66.735 25.8169 66.7492 25.8312 64.3711 23.4674C63.163 22.264 61.9312 21.0892 60.7706 19.8431C60.1618 19.1867 59.7623 19.2533 59.1725 19.8669C57.5316 21.5744 55.8194 23.2105 54.169 24.9133C53.622 25.4793 53.2415 25.5221 52.6375 24.9513C50.3069 22.7492 50.2879 22.7682 52.5376 20.5232C54.4163 18.6445 56.2998 16.7658 58.1785 14.8823C58.6922 14.3687 59.2296 13.9263 60.0144 14.0167L60.0096 14.0072Z" fill="#66C6EB"/>
<path d="M13.993 59.9863C13.9407 59.3442 14.2213 58.8496 14.6494 58.4215C17.0845 55.9816 19.534 53.5511 21.9502 51.0922C22.4924 50.5404 22.8539 50.6165 23.3866 51.1159C25.7457 53.3228 25.7599 53.3038 23.5197 55.544C22.345 56.7188 21.2082 57.9364 19.9811 59.0541C19.2249 59.739 19.1725 60.1861 19.9573 60.9186C21.6601 62.5024 23.2391 64.2146 24.9181 65.8222C25.5126 66.393 25.4793 66.764 24.9276 67.3442C22.7255 69.651 22.7445 69.67 20.5138 67.4489C18.6303 65.5749 16.7516 63.6914 14.8681 61.8127C14.3545 61.3038 13.9121 60.7616 13.993 59.9863Z" fill="#66C6EB"/>
<path d="M87.4342 7.10099C86.9538 8.10932 86.5162 9.23655 85.7695 10.183C85.5079 10.5112 85.1464 10.2306 84.861 10.0974C83.0632 9.2413 81.2606 8.39469 79.3771 7.73833C78.6636 7.49101 78.5067 7.11526 78.7778 6.4161C80.1856 2.82989 79.2201 3.05343 82.8824 4.48982C84.1904 5.00349 85.4556 5.63607 86.735 6.23536C87.0632 6.38756 87.4389 6.535 87.4342 7.10099Z" fill="#66C6EB"/>
<path d="M100.78 16.1894C100.666 16.6983 100.233 16.9932 99.9144 17.3594C98.2069 19.3333 98.2165 19.3143 96.2664 17.6733C95.1867 16.7649 94.0833 15.8802 92.937 15.0622C92.2283 14.558 92.0096 14.1347 92.5993 13.3642C94.8157 10.4534 93.9358 10.4296 96.9418 12.6841C98.069 13.5259 99.1106 14.4867 100.186 15.3999C100.433 15.6139 100.709 15.8184 100.785 16.1894H100.78Z" fill="#66C6EB"/>
<path d="M111.125 28.6802C111.034 28.8181 110.968 28.9751 110.854 29.0797C110.706 29.2224 110.521 29.327 110.349 29.4412C107.776 31.1534 107.786 31.1439 106.04 28.6088C105.313 27.5482 104.547 26.5113 103.748 25.503C103.282 24.9085 103.187 24.4852 103.871 23.9667C106.977 21.6219 105.978 21.3698 108.38 24.4899C109.213 25.5744 109.94 26.7396 110.706 27.8764C110.868 28.1142 110.973 28.3853 111.125 28.6754V28.6802Z" fill="#66C6EB"/>
<path d="M6.23091 75.0827C5.49369 76.0673 4.14292 75.896 3.06801 76.3051C2.35933 76.5762 2.10725 76.1386 1.97883 75.5298C1.58406 73.7082 1.10844 71.9008 0.78977 70.0697C0.471102 68.2385 0.532933 68.1576 2.41165 67.9722C5.06563 67.7058 4.55196 67.0732 5.15124 69.9936C5.47467 71.5774 5.83614 73.1517 6.17859 74.7308C6.18811 74.7736 6.19286 74.8116 6.23091 75.0875V75.0827Z" fill="#66C6EB"/>
<path d="M12.3043 88.9937C12.2995 89.3457 12.1045 89.5074 11.8952 89.6453C11.5813 89.8498 11.2674 90.0496 10.944 90.2351C8.58965 91.5859 9.10808 91.9426 7.63365 89.379C6.78703 87.9093 6.09262 86.3492 5.31736 84.8367C5.00344 84.2279 5.13186 83.8094 5.79774 83.5859C5.87384 83.5573 5.94994 83.5145 6.02604 83.4812C8.76563 82.2208 8.75612 82.2303 10.1069 84.8843C10.6919 86.0306 11.3292 87.1483 11.938 88.2755C12.076 88.5276 12.1996 88.7892 12.3043 88.9937Z" fill="#66C6EB"/>
<path d="M32.4613 113.374C30.0452 112.066 27.7289 110.853 25.7027 109.179C25.4792 108.994 25.6504 108.699 25.7883 108.499C26.3305 107.709 26.8918 106.939 27.434 106.154C27.8002 105.621 28.1855 105.812 28.6088 106.073C30.3448 107.134 32.0856 108.185 33.8216 109.246C33.9643 109.331 34.126 109.403 34.2307 109.526C34.6254 110.002 34.2307 110.401 34.0309 110.768C33.541 111.638 33.2794 112.665 32.4613 113.384V113.374Z" fill="#66C6EB"/>
<path d="M63.6623 2.53587C63.7336 0.152989 63.7384 0.0911575 66.0404 0.29092C67.8478 0.447876 69.6409 0.785569 71.4387 1.04241C71.9857 1.11851 72.2663 1.38961 72.0999 1.97463C72.0761 2.05549 72.0713 2.13634 72.0571 2.2172C71.7717 4.25921 70.6302 5.16131 68.6326 4.9235C67.5244 4.79033 66.4257 4.53824 65.3127 4.50495C63.6908 4.45263 63.6005 4.40507 63.6623 2.53587Z" fill="#66C6EB"/>
<path d="M117.693 43.2199C117.655 43.4577 117.631 43.6479 117.475 43.8191C117.218 44.0998 114.24 44.8988 113.912 44.7751C113.589 44.6562 113.498 44.3614 113.417 44.095C112.823 42.1449 112.143 40.2282 111.358 38.3495C111.111 37.7597 111.291 37.4315 111.867 37.1937C115.653 35.6099 114.749 35.3007 116.181 38.8679C116.752 40.29 117.194 41.7644 117.698 43.2151L117.693 43.2199Z" fill="#66C6EB"/>
<path d="M48.7897 115.439C48.6184 116.333 48.452 117.227 48.2712 118.117C48.1523 118.707 47.7433 118.797 47.2344 118.688C45.0465 118.212 42.9014 117.603 40.7802 116.899C40.6612 116.861 40.5043 116.828 40.4472 116.742C39.6339 115.482 40.8848 114.559 41.018 113.446C41.0846 112.885 41.4555 112.628 42.1024 112.814C44.0857 113.389 46.0881 113.917 48.081 114.469C48.5756 114.607 48.9181 114.854 48.7944 115.444L48.7897 115.439Z" fill="#66C6EB"/>
<path d="M21.9405 100.993C21.8596 101.464 21.4506 101.721 21.1462 102.049C19.1771 104.142 19.1676 104.147 17.1462 102.025C16.0855 100.912 15.0725 99.7567 14.0213 98.6342C13.5933 98.1776 13.5552 97.7781 14.0927 97.3976C14.1593 97.35 14.2211 97.2882 14.2829 97.2359C15.8208 95.8312 17.2873 95.8899 18.6824 97.4119C19.5766 98.3964 20.4423 99.4047 21.4601 100.27C21.6789 100.456 21.9072 100.651 21.9405 100.998V100.993Z" fill="#66C6EB"/>
<path d="M68.0524 60.057C68.0381 64.6991 64.5185 68.0903 59.7337 68.0666C55.3675 68.0475 51.8954 64.4375 51.9097 59.9334C51.924 55.3436 55.4388 51.9096 60.1047 51.9239C64.6184 51.9381 68.0667 55.4673 68.0524 60.057ZM63.8336 59.9429C63.7861 57.912 61.9692 56.1331 59.9573 56.1474C57.9359 56.1617 56.1285 57.9786 56.1333 59.9905C56.1333 62.0547 58.0453 63.9239 60.0714 63.8525C62.1119 63.7764 63.8812 61.9405 63.8336 59.9477V59.9429Z" fill="#66C6EB"/>
</g>
<defs>
<clipPath id="clip0_935_6422">
<rect width="119.962" height="120" fill="white"/>
</clipPath>
</defs>
</svg>
