<svg width="161" height="158" viewBox="0 0 161 158" fill="none" xmlns="http://www.w3.org/2000/svg">
<g clip-path="url(#clip0_1013_8877)">
<path d="M160.405 130.701C160.708 133.093 160.096 135.426 157.498 136.639C154.757 137.915 152.301 137.154 150.186 135.065C147.749 132.661 145.331 130.23 142.817 127.902C140.289 125.562 138.639 125.62 136.189 128.031C134.28 129.908 132.398 131.81 130.58 133.776C128.149 136.4 128.194 138.07 130.747 140.668C132.843 142.809 135.009 144.885 137.162 146.961C139.432 149.147 141.321 151.5 139.67 154.833C138.059 158.083 135.17 158.231 131.966 157.838C120.064 156.374 111.96 148.727 110.122 136.955C109.896 135.491 109.664 133.853 110.083 132.499C111.212 128.863 109.845 126.4 107.15 124.131C104.945 122.274 102.953 120.159 100.96 118.07C99.89 116.948 98.9293 116.839 97.5818 117.593C94.6934 119.211 91.7405 120.733 88.7747 122.209C87.6722 122.757 87.2402 123.505 87.137 124.704C86.7437 129.282 86.2022 133.84 85.854 138.425C85.6477 141.139 84.3195 142.648 81.6439 142.673C74.8999 142.744 68.1623 142.731 61.4184 142.673C58.6782 142.648 57.4725 140.978 57.2404 138.36C56.8471 134.002 56.2798 129.65 55.9832 125.285C55.8671 123.531 55.2095 122.648 53.6106 121.971C46.1058 118.786 46.1316 118.747 39.8131 124.131C37.8595 125.794 35.8351 127.38 33.8815 129.05C31.8699 130.765 30.0775 130.546 28.2529 128.702C23.5914 123.976 18.9235 119.263 14.1653 114.634C12.0377 112.564 12.0699 110.707 13.9784 108.534C16.7959 105.317 19.4264 101.932 22.2504 98.715C23.5592 97.2257 23.6495 95.9362 22.8564 94.1115C19.6843 86.8453 19.7488 86.8453 11.8765 86.4391C9.21374 86.2973 6.55097 85.9943 3.90109 85.7041C1.41239 85.4333 0.0326459 84.0987 0.0390933 81.4811C0.0519881 74.7371 0.0713303 67.9931 0.0197511 61.2492C0.000408916 58.7282 1.25765 57.4839 3.6303 57.226C8.0919 56.7489 12.5471 56.1944 17.0215 55.9236C18.9429 55.8075 19.5683 54.8404 20.5289 53.364C24.1266 47.8515 22.9338 43.4414 18.2723 39.2764C16.4606 37.6581 15.126 35.5047 13.5464 33.6156C12.057 31.8297 12.1151 30.1791 13.785 28.5221C18.7237 23.6221 23.6559 18.7156 28.5302 13.7511C30.3419 11.9072 32.0375 12.0361 33.8686 13.5771C37.2277 16.401 40.6384 19.1605 43.9266 22.0683C45.4997 23.4609 46.9697 23.9316 48.7686 22.6099C49.1941 22.3004 49.7034 21.9974 50.2128 21.9265C55.3191 21.2108 56.3442 17.6196 56.5119 13.274C56.6215 10.3921 56.9954 7.52941 57.2211 4.65387C57.4919 1.18516 58.5751 0.0439739 61.9857 0.0181843C68.4073 -0.0333949 74.8289 0.0310791 81.2506 -0.00760533C84.1261 -0.0269475 85.5832 1.30766 85.8282 4.17676C86.2086 8.64481 86.7179 13.1064 87.1177 17.5745C87.2144 18.6834 87.2724 19.7343 88.4716 20.2437C90.9345 21.2817 93.4039 22.3069 95.8668 23.3449C97.253 23.9316 98.0783 22.9516 98.968 22.2295C102.456 19.3926 105.97 16.588 109.381 13.6609C111.399 11.9265 113.152 12.0168 114.99 13.8608C119.748 18.6383 124.519 23.4029 129.309 28.1482C131.147 29.9728 131.282 31.7974 129.632 33.809C126.911 37.1165 124.339 40.553 121.482 43.7316C119.935 45.453 119.916 46.923 120.792 48.9217C123.926 56.0783 123.874 56.0783 131.85 56.5039C134.409 56.6393 136.956 56.9358 139.503 57.2324C141.682 57.4839 143.042 58.5477 143.03 60.9719C143.004 67.9287 143.004 74.8854 143.042 81.8422C143.055 84.4276 141.592 85.4785 139.284 85.717C134.822 86.1813 130.36 86.6906 125.892 87.0323C124.326 87.1548 123.32 87.5739 122.74 89.1471C121.889 91.4488 120.896 93.7118 119.812 95.9168C119.123 97.3159 119.4 98.3088 120.464 99.334C123.159 101.939 125.873 104.524 128.439 107.251C129.761 108.657 131.147 108.218 132.572 107.857C145.776 104.498 159.857 115.846 160.425 130.701H160.405ZM71.5343 136.884C73.0301 136.884 74.5324 136.89 76.0282 136.884C80.3802 136.858 80.5671 136.645 80.9282 132.164C81.199 128.863 81.6116 125.575 81.8566 122.274C82.0565 119.617 83.3008 118.077 85.8798 117.155C88.4781 116.226 90.8894 114.769 93.3781 113.538C94.8417 112.815 94.8739 111.977 93.694 110.868C91.6696 108.966 89.6709 107.019 87.7495 105.014C86.5439 103.757 85.2995 103.589 83.7006 104.176C80.0642 105.511 76.2603 106.194 72.3983 106.265C50.7801 106.69 34.2426 87.6835 37.2406 65.9235C40.5675 41.8102 68.3171 28.419 89.2582 40.8302C103.339 49.1796 109.69 64.7436 105.422 80.8235C104.88 82.8737 105.112 84.2148 106.692 85.6074C108.781 87.4385 110.741 89.4243 112.636 91.4552C113.984 92.8994 114.88 92.8865 115.577 90.9781C116.344 88.8698 117.156 86.7744 117.865 84.6468C118.504 82.719 119.619 81.6358 121.766 81.4682C125.596 81.1652 129.4 80.5204 133.23 80.2819C135.86 80.1207 137.143 79.2052 137.008 76.3876C136.846 73.0801 136.795 69.7404 137.04 66.4393C137.266 63.3188 135.808 62.2614 133.004 62.0615C129.38 61.8036 125.776 61.333 122.159 61.0493C119.69 60.8559 118.31 59.618 117.659 57.2518C116.834 54.2537 115.641 51.3717 114.036 48.709C112.656 46.4137 113.036 44.531 114.738 42.6097C117.362 39.6504 119.761 36.4782 122.488 33.6156C124.171 31.849 124.39 30.6949 122.449 28.9735C119.651 26.4912 117.001 23.822 114.5 21.0432C112.927 19.2959 111.74 19.2185 109.987 20.753C106.937 23.4351 103.675 25.8787 100.573 28.5028C98.7875 30.0115 97.0338 30.2307 94.9964 29.0444C92.0306 27.3165 88.8907 25.9432 85.5639 25.0599C83.4169 24.4925 82.3853 23.2224 82.2177 20.9722C81.8888 16.717 81.2699 12.481 80.9927 8.21928C80.8508 6.07874 79.8708 5.47913 77.943 5.51137C73.9843 5.57584 70.0256 5.59519 66.0669 5.51137C64.1972 5.47269 63.3977 6.12387 63.2623 8.05809C62.9786 11.9975 62.3403 15.911 62.076 19.8504C61.8826 22.7517 60.851 24.6537 57.8272 25.4016C54.8162 26.1431 51.9149 27.3358 49.2521 28.9412C46.9633 30.321 45.1064 29.9664 43.1529 28.2642C40.3289 25.8078 37.1826 23.6995 34.5133 21.0947C32.2632 18.9026 30.7996 19.5345 29.0008 21.488C26.6153 24.0863 24.1653 26.646 21.5476 29.0057C19.9164 30.4693 19.7552 31.5524 21.2059 33.2223C23.9396 36.3686 26.4734 39.689 29.1491 42.8934C30.5353 44.5568 30.9092 46.2009 29.7681 48.1674C27.995 51.2363 26.654 54.5116 25.7191 57.9223C25.0808 60.2627 23.5592 61.146 21.2897 61.3523C17.144 61.7198 13.0113 62.3388 8.85914 62.5838C6.71215 62.7127 6.13189 63.6089 6.17702 65.5754C6.26728 69.4245 6.26728 73.28 6.17702 77.1291C6.12544 79.1858 6.64768 80.2239 8.99453 80.3464C13.0371 80.5527 17.0602 81.2103 21.1028 81.5456C23.4303 81.739 24.8487 82.8093 25.5257 85.0336C26.4992 88.2122 27.6855 91.3198 29.407 94.1696C30.7481 96.3746 30.2903 98.1154 28.7042 99.9593C26.0608 103.041 23.6172 106.304 20.9738 109.385C19.6327 110.946 19.7681 112.061 21.2381 113.441C24.0428 116.078 26.7829 118.792 29.407 121.61C30.8706 123.183 32.0375 123.363 33.7074 121.919C36.8602 119.192 40.1871 116.665 43.385 113.982C44.9517 112.667 46.4862 112.274 48.3559 113.344C51.5216 115.162 54.9 116.51 58.3945 117.548C60.361 118.128 61.3926 119.347 61.528 121.481C61.6891 124.034 61.9986 126.587 62.3919 129.114C63.5976 136.89 63.6234 136.884 71.5343 136.871V136.884ZM133.926 151.326C131.444 149.005 128.878 146.761 126.505 144.337C122.366 140.114 122.288 134.975 126.228 130.585C127.943 128.676 129.799 126.897 131.598 125.066C137.478 119.063 142.011 118.986 148.168 124.704C150.225 126.613 151.966 128.902 154.564 130.494C153.842 118.193 143.255 110.688 131.824 114.169C129.922 114.75 128.362 114.821 126.827 113.325C115.512 102.261 104.171 91.2167 92.7914 80.211C91.0313 78.5089 90.6122 76.7616 91.4568 74.447C92.4175 71.8229 92.8236 69.0827 92.2176 66.2588C90.4768 58.1737 83.3073 52.5194 74.2487 52.2228C76.7245 54.7824 79.168 57.284 81.5794 59.8114C85.8927 64.3375 85.9314 69.4567 81.6567 74.0601C79.9869 75.8654 78.2009 77.5675 76.5311 79.3728C71.0701 85.2851 65.8606 85.4205 60.0193 79.7661C57.8787 77.69 55.7253 75.6204 53.1721 73.1511C54.4874 86.5423 64.5582 93.6022 76.5182 90.0819C78.8199 89.405 80.3221 89.9272 81.9404 91.5133C92.1144 101.455 102.237 111.455 112.643 121.152C116.189 124.459 117.646 127.425 116.408 132.525C114.081 142.145 123.565 152.609 133.913 151.332L133.926 151.326ZM71.8245 100.378C73.8489 100.217 75.8928 100.198 77.8786 99.8433C78.7683 99.6821 80.5285 99.9851 80.3544 98.5216C80.1932 97.1805 78.8844 96.2005 77.4466 95.891C76.8599 95.7621 76.1765 95.9749 75.5511 96.1167C59.7227 99.6628 48.0658 86.4005 47.4017 73.9376C47.2534 71.1008 47.7112 68.8249 50.4449 67.516C53.1399 66.233 55.4094 67.0583 57.4403 69.0247C59.8258 71.3329 62.2307 73.6153 64.6421 75.8912C67.4531 78.5346 69.2519 78.5024 72.0372 75.7365C73.6297 74.1569 75.1964 72.5386 76.7438 70.9074C79.8386 67.6579 79.8386 66.1943 76.7309 63.0867C74.3132 60.6624 71.8245 58.3091 69.4389 55.8527C67.6594 54.0216 66.9502 51.8746 68.0914 49.3988C69.1617 47.0778 71.0766 46.2267 73.5459 46.2138C78.0462 46.1945 82.2177 47.4066 86.099 49.5923C94.6096 54.3827 100.045 64.4986 97.4013 74.2987C96.8533 76.3167 97.5754 78.006 99.3613 78.367C100.754 78.6442 100.573 76.6455 100.722 75.6526C103.578 56.2524 86.6986 39.5601 67.408 42.6613C51.3282 45.2467 41.6248 57.9094 42.8047 74.7758C43.7783 88.7409 56.8858 100.262 71.8245 100.385V100.378Z" fill="#0B79B7"/>
</g>
<defs>
<clipPath id="clip0_1013_8877">
<rect width="160.476" height="158" fill="white"/>
</clipPath>
</defs>
</svg>
