<svg width="164" height="158" viewBox="0 0 164 158" fill="none" xmlns="http://www.w3.org/2000/svg">
<g clip-path="url(#clip0_1013_8869)">
<path d="M81.74 -0.00175416C105.724 -0.00175416 129.702 -0.00175416 153.686 -0.00175416C160.617 -0.00175416 163.371 2.71768 163.378 9.60829C163.384 45.5812 163.378 81.5541 163.378 117.527C163.378 117.977 163.378 118.434 163.378 118.883C163.378 120.928 162.764 122.564 160.372 122.516C158.205 122.475 157.55 120.969 157.537 119.047C157.537 118.14 157.523 117.234 157.523 116.334C157.523 88.1653 157.455 59.9963 157.591 31.8273C157.612 28.3104 156.514 27.4993 153.147 27.5061C105.411 27.6152 57.6672 27.6152 9.9305 27.513C6.54994 27.5061 5.80704 28.6239 5.81385 31.7932C5.91609 64.5968 5.86838 97.4005 5.86838 130.204C5.86838 135.145 6.49542 135.759 11.6276 135.759C38.4403 135.766 65.2462 135.738 92.0589 135.8C94.4307 135.8 98.0089 134.723 97.9885 138.778C97.968 142.588 94.533 141.593 92.2497 141.6C64.8713 141.654 37.4997 141.641 10.1213 141.634C2.80816 141.634 0.00693542 138.867 0.00693542 131.69C0.00693542 91.1914 0.000119788 50.6929 0.00693542 10.1944C0.000119788 2.57456 2.55598 0.0118771 10.135 -0.00175416C34.0033 -0.0153854 57.8717 -0.00175416 81.74 -0.00175416ZM81.6991 21.7265C103.857 21.7265 126.021 21.7265 148.179 21.7265C154.417 21.7265 157.53 18.5754 157.516 12.2732C157.503 6.59578 156.787 5.86651 151.041 5.86651C116.561 5.86651 82.074 5.86651 47.5937 5.86651C35.3801 5.86651 23.1733 5.84606 10.9597 5.88014C7.02022 5.89377 5.95017 7.01153 5.88201 10.9305C5.84112 13.0774 6.06603 15.2448 5.8343 17.3713C5.45944 20.7518 6.62491 21.8287 10.135 21.8083C33.9897 21.6583 57.8444 21.7265 81.6991 21.7265Z" fill="#0B79B7"/>
<path d="M43.3818 81.595C42.7138 61.0186 59.3099 40.3059 82.5103 38.1249C109.364 35.6032 127.971 55.3071 130.547 75.7677C131.999 87.2929 129.497 98.0275 122.518 107.542C121.741 108.599 119.874 109.675 121.332 111.277C122.838 112.927 124.004 115.36 127.085 114.515C132.169 113.124 136.313 114.746 139.952 118.488C146.339 125.058 152.861 131.492 159.384 137.926C162.805 141.307 164.257 145.28 163.023 149.956C160.863 158.135 150.748 160.738 144.233 154.665C138.937 149.738 133.948 144.483 128.823 139.364C127.303 137.844 125.858 136.243 124.263 134.812C120.194 131.165 118.517 126.817 119.996 121.419C120.78 118.556 118.361 117.425 116.813 115.946C115.219 114.419 114.142 116.239 113.072 117.002C86.0544 136.352 48.8138 120.812 43.7294 88.0154C43.4022 85.9025 43.4908 83.7283 43.3886 81.5882L43.3818 81.595ZM86.9337 43.9659C65.185 44.8111 49.6249 61.0118 49.5567 81.4519C49.4886 103.153 66.1596 119.326 87.1449 119.258C109.084 119.19 124.931 102.199 124.692 81.411C124.44 59.4306 107.442 44.4635 86.9337 43.9659ZM130.588 120.103C128.625 120.308 127.003 121.173 126.083 123.095C124.992 125.372 125.735 127.301 127.371 128.95C134.384 136.004 141.391 143.072 148.486 150.051C150.919 152.444 153.591 152.457 155.717 150.412C157.946 148.266 157.932 145.512 155.39 142.936C148.486 135.929 141.493 129.011 134.541 122.053C133.464 120.976 132.203 120.287 130.595 120.103H130.588Z" fill="#0B79B7"/>
<path d="M29.982 43.8791C24.9043 43.8791 19.8267 43.8791 14.7491 43.8791C12.7589 43.8791 11.0141 43.4156 10.98 41.0165C10.9459 38.6447 12.6021 38.0312 14.6332 38.0312C24.9043 38.0312 35.1755 38.0381 45.4398 38.0312C47.4436 38.0312 49.168 38.522 49.1953 40.9074C49.2293 43.5587 47.3005 43.8859 45.2149 43.8791C40.1373 43.8722 35.0596 43.8791 29.982 43.8791Z" fill="#0B79B7"/>
<path d="M21.905 48.9082C24.4949 48.9082 27.0849 48.8877 29.6748 48.915C31.6513 48.9354 32.9599 49.8283 32.9054 51.9479C32.8577 53.904 31.5559 54.7014 29.7566 54.7083C24.5767 54.7355 19.3968 54.7423 14.2169 54.7083C12.2609 54.6946 10.9046 53.8427 10.9795 51.6889C11.0477 49.7465 12.3358 48.9422 14.1352 48.915C16.7251 48.8741 19.315 48.9082 21.905 48.9082Z" fill="#0B79B7"/>
<path d="M88.8627 114.49C86.7771 114.497 84.4938 114.606 84.3234 111.73C84.1531 108.854 86.4363 108.669 88.5082 108.451C99.2565 107.306 107.142 102.106 111.709 92.162C112.595 90.24 113.869 88.7201 116.152 89.7425C118.449 90.7648 118.061 92.7686 117.345 94.6975C113.331 105.568 100.551 114.449 88.8627 114.49Z" fill="#0B79B7"/>
</g>
<defs>
<clipPath id="clip0_1013_8869">
<rect width="163.446" height="158" fill="white"/>
</clipPath>
</defs>
</svg>
