<svg width="186" height="158" viewBox="0 0 186 158" fill="none" xmlns="http://www.w3.org/2000/svg">
<g clip-path="url(#clip0_1013_8807)">
<path d="M92.6927 157.992C70.6986 157.992 48.7045 157.992 26.7023 157.992C20.6687 157.992 20.1995 157.498 20.1995 151.407C20.1913 125.174 20.1913 98.9489 20.1913 72.7157C20.1913 71.4893 20.1666 70.2463 20.2983 69.0281C20.5123 66.9703 21.6729 65.7685 23.7966 65.8014C25.945 65.8344 27.015 67.1102 27.1714 69.1598C27.2784 70.518 27.2455 71.8926 27.2455 73.259C27.2455 97.5743 27.3361 121.898 27.1797 146.213C27.155 150.082 28.4308 151.045 32.1185 151.02C53.8409 150.872 75.5633 150.847 97.2857 151.037C101.368 151.07 102.307 149.67 102.274 145.851C102.109 125.495 102.183 105.139 102.208 84.7828C102.208 79.4736 102.867 78.8234 108.085 78.8069C118.605 78.774 129.124 78.774 139.644 78.8069C144.616 78.8234 145.307 79.523 145.315 84.5606C145.34 104.917 145.431 125.273 145.25 145.629C145.217 149.637 146.097 151.242 150.427 151.037C158.831 150.633 157.926 151.745 157.942 143.521C157.983 120.021 157.959 96.5207 157.959 73.0285C157.959 71.6621 157.918 70.2875 158.066 68.9376C158.288 66.8633 159.523 65.7356 161.638 65.8097C163.556 65.8755 164.659 66.9867 164.881 68.8553C165.029 70.0735 165.005 71.3082 165.005 72.5347C165.005 98.8995 165.005 125.273 165.005 151.638C165.005 157.457 164.47 157.992 158.691 157.992C136.697 158.009 114.703 157.992 92.7009 157.992H92.6927ZM138.261 118.375C138.261 108.818 138.195 99.2699 138.302 89.7134C138.335 86.9724 137.487 85.7459 134.565 85.8035C127.338 85.9352 120.095 85.9435 112.868 85.8035C109.871 85.7459 109.196 87.0794 109.205 89.7628C109.279 108.868 109.303 127.981 109.205 147.086C109.188 150.23 110.423 151.061 113.337 150.996C120.021 150.847 126.721 150.773 133.397 151.02C137.068 151.152 138.467 150.115 138.36 146.221C138.105 136.945 138.278 127.66 138.269 118.383L138.261 118.375Z" fill="#0B79B7"/>
<path d="M93.014 0.082911C113.642 0.082911 134.278 0.173455 154.905 0.000597939C158.667 -0.0323273 160.955 1.29291 162.931 4.37142C169.639 14.8334 176.57 25.1555 183.369 35.5681C187.839 42.4165 186.234 52.1624 179.451 56.7555C169.442 63.5299 158.733 63.8262 147.933 58.7145C145.703 57.6609 144.155 57.6445 141.941 58.7145C132.541 63.25 122.951 63.3817 113.51 58.8215C111.189 57.7021 109.411 57.6198 107.048 58.7722C97.4753 63.4558 87.7788 63.2171 78.247 58.5993C76.3538 57.6774 74.9709 57.4716 72.979 58.4841C63.2001 63.4475 53.2567 63.4311 43.4532 58.5828C41.486 57.6115 40.1196 57.7186 38.1934 58.6322C27.5833 63.7109 16.9978 63.5792 6.94737 57.2905C-0.0739375 52.8868 -2.07415 42.9104 2.33784 35.8727C9.08751 25.1061 16.0347 14.463 22.7515 3.68823C24.4965 0.889579 26.7107 0.00882925 29.888 0.0252919C50.9273 0.124068 71.9665 0.0746797 93.0057 0.0746797L93.014 0.082911ZM92.7423 7.13714C73.0777 7.13714 53.4131 7.16184 33.7403 7.10422C31.131 7.10422 29.1308 7.47463 27.5586 10.0099C21.665 19.5253 15.5079 28.8843 9.50731 38.342C5.66329 44.4003 7.18608 50.1375 13.8864 52.5904C22.0107 55.5702 30.2091 55.8994 37.5267 50.0305C39.4775 48.4666 41.2719 48.162 43.4532 49.6683C53.1826 56.4015 62.9944 56.4098 72.7485 49.7177C74.8721 48.2608 76.6336 48.4172 78.6997 49.9235C87.1944 56.1299 98.3396 56.2122 106.925 50.0717C109.287 48.3842 111.139 48.2937 113.535 50.047C121.815 56.1052 133.092 56.1628 141.455 50.2116C143.925 48.4583 145.966 48.1785 148.452 50.121C155.366 55.529 163.136 55.529 170.997 52.9115C178.315 50.475 180.225 44.4332 176.01 37.9634C170.133 28.9172 164.083 19.978 158.296 10.8824C156.568 8.15783 154.617 7.05483 151.325 7.07953C131.8 7.22769 112.267 7.15361 92.7341 7.14538L92.7423 7.13714Z" fill="#0B79B7"/>
<path d="M64.616 78.7999C71.1763 78.7999 77.7367 78.8823 84.2888 78.767C87.8447 78.7012 89.6227 80.0017 89.5897 83.7552C89.5074 95.9128 89.5157 108.079 89.5815 120.236C89.598 123.661 88.1904 125.233 84.7004 125.216C71.308 125.15 57.9239 125.159 44.5316 125.2C41.2308 125.208 39.8479 123.661 39.8644 120.434C39.9056 108.136 39.922 95.8388 39.8644 83.5412C39.8479 79.977 41.593 78.7176 44.9514 78.7588C51.5117 78.8411 58.0638 78.7835 64.6242 78.7835L64.616 78.7999ZM64.723 118.154C69.2255 118.154 73.7362 118.014 78.2305 118.203C81.3337 118.335 82.6508 117.421 82.5767 114.079C82.3791 106.029 82.4203 97.9789 82.5602 89.9287C82.6096 87.0066 81.7782 85.7472 78.6421 85.8048C69.3654 85.9612 60.0805 85.9283 50.8038 85.8213C48.0793 85.7883 46.8446 86.5785 46.8857 89.5253C47.0174 97.8472 47.0256 106.177 46.8857 114.499C46.8363 117.454 48.0793 118.286 50.8038 118.203C55.438 118.063 60.0805 118.162 64.723 118.17V118.154Z" fill="#0B79B7"/>
<path d="M135.389 115.075C135.389 117.38 135.52 119.693 135.347 121.981C135.199 124.031 133.882 125.142 131.791 125.076C129.89 125.019 128.631 123.908 128.573 122.064C128.433 117.462 128.425 112.845 128.565 108.243C128.631 106.194 130.03 105.074 132.112 105.157C134.236 105.239 135.298 106.548 135.389 108.564C135.487 110.729 135.413 112.902 135.413 115.067H135.389V115.075Z" fill="#0B79B7"/>
<path d="M92.4707 46.4807C67.324 46.4807 42.1856 46.4807 17.0389 46.4807C15.6808 46.4807 14.2814 46.5301 12.9644 46.2502C11.3099 45.9045 10.4703 44.6698 10.4786 42.9494C10.4786 41.2291 11.3429 40.0191 12.9974 39.6816C14.3144 39.41 15.7137 39.4511 17.0719 39.4511C67.4969 39.4347 117.922 39.4347 168.347 39.4429C169.705 39.4429 171.104 39.4429 172.413 39.7639C174.076 40.1755 174.792 41.5007 174.71 43.1964C174.636 44.7274 173.854 45.8716 172.38 46.1926C171.063 46.4807 169.672 46.4807 168.314 46.4807C143.036 46.4971 117.749 46.4889 92.4707 46.4889V46.4807Z" fill="#0B79B7"/>
<path d="M52.812 13.7457C52.2194 15.7541 51.4703 18.3717 50.6719 20.9728C49.2972 25.393 47.9391 29.8214 46.4739 34.2169C45.7578 36.3571 44.3173 37.8634 41.8561 37.1226C39.4855 36.4147 38.7447 34.4968 39.4197 32.2414C41.4116 25.5905 43.4777 18.9561 45.6178 12.3546C46.3093 10.2062 47.8321 8.81511 50.2768 9.39953C52.1041 9.83579 52.8614 11.2598 52.8202 13.7457H52.812Z" fill="#0B79B7"/>
<path d="M144.394 32.9151C144.254 35.3763 143.381 36.6768 141.595 37.1625C139.759 37.6563 138.13 36.9238 137.57 35.2199C135.191 27.9845 132.944 20.6998 130.795 13.3822C130.285 11.6289 131.215 10.1391 132.977 9.48056C134.746 8.81383 136.483 9.38179 137.183 11.0116C140.327 18.2716 142.072 26.0008 144.394 32.9233V32.9151Z" fill="#0B79B7"/>
<path d="M111.592 32.2259C111.658 34.9505 110.9 36.8519 108.456 37.2141C105.665 37.6339 104.513 35.6584 104.159 33.3207C103.196 26.999 102.332 20.6527 101.517 14.3063C101.204 11.9028 101.928 9.80382 104.603 9.3511C107.122 8.92307 108.456 10.6352 108.801 12.8494C109.847 19.4345 110.711 26.0524 111.592 32.2259Z" fill="#0B79B7"/>
<path d="M71.9252 32.8905C72.8718 25.9268 73.6538 19.7122 74.5839 13.514C74.9543 11.0446 76.0409 8.83859 79.07 9.39009C81.7534 9.86751 82.3296 12.057 82.025 14.4359C81.2184 20.6505 80.387 26.8569 79.4486 33.0469C79.0782 35.5163 77.9917 37.714 74.9626 37.179C72.2709 36.7016 71.8018 34.5121 71.9335 32.8905H71.9252Z" fill="#0B79B7"/>
</g>
<defs>
<clipPath id="clip0_1013_8807">
<rect width="185.879" height="158" fill="white"/>
</clipPath>
</defs>
</svg>
