<svg width="127" height="159" viewBox="0 0 127 159" fill="none" xmlns="http://www.w3.org/2000/svg">
<g clip-path="url(#clip0_1013_8846)">
<path d="M0 79.5366C0 55.0235 0 30.5105 0 5.99745C0 0.836468 0.316382 0.513495 5.32577 0.513495C29.9443 0.500312 54.5628 0.500312 79.1878 0.500312C79.6229 0.500312 80.0645 0.506903 80.4995 0.500312C82.5362 0.487129 84.3752 0.882607 84.3356 3.42685C84.2961 5.76676 82.5758 6.17542 80.6577 6.16224C79.7811 6.16224 78.9044 6.16883 78.0344 6.16883C55.4921 6.16883 32.9499 6.16883 10.4077 6.16883C5.68829 6.16883 5.67511 6.18201 5.67511 10.7761C5.67511 56.7373 5.70806 102.692 5.6026 148.653C5.59601 151.988 6.54516 152.904 9.86058 152.898C45.5327 152.786 81.2048 152.786 116.877 152.898C120.133 152.904 120.884 151.83 120.871 148.758C120.779 113.086 120.779 77.4208 120.871 41.7487C120.878 38.6507 120.067 37.5302 116.837 37.6225C109.185 37.84 101.519 37.7214 93.8601 37.6884C89.9053 37.6752 89.3187 37.082 89.3055 33.0745C89.2791 23.6621 89.2923 14.2563 89.2923 4.84398C89.2923 3.18297 89.2 1.4165 91.184 0.731007C93.023 0.0916515 94.3017 1.20558 95.4947 2.4052C105.316 12.2394 115.11 22.0934 124.991 31.8683C126.54 33.3975 126.48 35.1508 126.48 37.0095C126.48 66.5517 126.48 96.1005 126.48 125.643C126.48 134.943 126.494 144.243 126.474 153.544C126.467 158.013 126.012 158.481 121.596 158.487C82.6417 158.5 43.6871 158.5 4.73255 158.487C0.533895 158.487 0.0197739 157.96 0.0197739 153.722C0 128.998 0 104.267 0 79.5366ZM95.1454 11.8967C95.2574 11.7319 95.0399 11.8967 95.0399 12.0746C95.0004 16.3326 94.9872 20.5906 94.974 24.842C94.9608 29.6141 97.3007 32.0067 101.994 32.0199C106.489 32.0265 110.991 32.0199 115.387 32.0199C108.46 25.132 101.783 18.488 95.152 11.8967H95.1454Z" fill="#0B79B7"/>
<path d="M10.5263 137.182C10.4801 129.543 10.4603 129.444 18.0733 128.132C20.545 127.704 22.1665 127.058 23.0431 124.349C23.9461 121.554 23.1288 119.9 21.2503 118.021C15.7598 112.524 15.8257 112.458 20.4396 106.183C25.0864 99.8621 25.1062 99.8226 32.2578 103.395C34.3208 104.423 35.9291 104.951 38.1833 103.303C40.5298 101.582 41.0242 99.7435 40.6485 97.1531C39.5148 89.3424 39.5477 89.3358 47.1277 86.8707C47.2332 86.8377 47.3321 86.7982 47.4375 86.7586C54.1672 84.5703 54.1145 84.6033 57.6013 90.7332C58.7152 92.6974 59.2491 95.1823 62.5777 95.1559C65.4713 95.1296 67.1851 94.3123 68.4835 91.6691C72.2933 83.9376 72.056 84.4319 79.9128 87.0618C80.3281 87.2002 80.7565 87.3057 81.1718 87.4375C86.636 89.2172 87.038 89.9686 86.1614 95.8019C85.8055 98.1813 84.8168 100.561 87.4797 102.65C89.8789 104.542 91.7706 104.713 94.4862 103.296C101.374 99.7105 101.447 99.8489 106.021 106.124C106.212 106.388 106.397 106.664 106.588 106.928C110.641 112.524 110.727 112.61 105.738 117.507C103.516 119.689 102.198 121.673 103.642 124.922C104.459 126.768 105.434 127.611 107.385 127.961C116.89 129.668 115.98 128.58 115.98 138.105C115.98 138.869 115.98 139.634 115.98 140.405C115.947 144.584 115.374 145.243 111.235 145.942C108.651 146.377 106.08 146.924 103.483 147.26C101.559 147.511 99.5615 147.405 99.2517 144.848C98.9749 142.58 100.55 141.829 102.435 141.473C104.156 141.143 105.85 140.636 107.583 140.491C109.686 140.306 110.345 139.285 110.345 137.281C110.345 135.29 109.752 134.104 107.609 134.097C101.592 134.078 98.8431 131.046 97.215 125.186C95.9956 120.789 96.3318 118.041 99.6801 115.193C101.058 114.02 103.345 112.742 101.486 110.072C100.221 108.253 98.8892 107.33 96.9184 108.774C92.2056 112.234 88.5079 111.199 83.8742 107.712C79.8074 104.647 78.6539 101.793 79.8469 97.2981C80.3874 95.268 80.4204 93.5543 77.7904 92.6249C75.0682 91.6626 74.2641 93.284 73.3347 95.0966C72.6822 96.3621 72.0099 97.6145 71.3573 98.88C70.4543 100.64 69.0174 101.457 67.0664 101.24C64.5551 100.963 62.0636 100.917 59.5523 101.24C57.4563 101.51 55.9864 100.574 55.0505 98.6955C54.3188 97.2256 53.4686 95.8151 52.7435 94.3452C51.8998 92.6381 50.8518 91.9592 48.8085 92.6249C46.6663 93.3236 46.0863 94.5693 46.4752 96.5797C46.64 97.4365 46.7652 98.3066 46.9564 99.1569C47.7407 102.677 46.8707 105.412 43.318 106.888C43.2191 106.928 43.1202 106.994 43.0477 107.073C38.8095 111.641 34.2286 112.531 29.0478 108.549C27.6307 107.462 26.4179 108.128 25.4424 109.485C24.5064 110.797 23.4847 112.208 25.1787 113.467C30.5308 117.421 30.7813 121.969 28.3294 127.934C26.9122 131.375 25.5215 133.326 21.8765 133.557C20.7955 133.629 19.7343 134.071 18.6533 134.13C16.6166 134.242 16.142 135.396 16.1552 137.195C16.1684 138.935 16.5375 140.142 18.5479 140.418C20.5978 140.702 22.6147 141.229 24.6514 141.644C26.3849 142 27.4198 142.996 27.255 144.835C27.0836 146.746 25.739 147.544 24.0384 147.306C20.2616 146.772 16.498 146.093 12.7541 145.335C11.1392 145.006 10.5263 143.701 10.5263 142.119C10.5263 140.478 10.5263 138.836 10.5263 137.195V137.182Z" fill="#0B79B7"/>
<path d="M26.5301 21.5245C30.5705 21.5245 34.611 21.564 38.6515 21.5113C41.2484 21.4783 42.4546 22.6384 42.4415 25.2551C42.4019 33.4481 42.4151 41.6345 42.4415 49.8275C42.448 52.2597 41.3341 53.4527 38.8756 53.4461C30.5771 53.4264 22.2787 53.4329 13.9736 53.4395C11.6996 53.4395 10.5264 52.3454 10.5264 50.045C10.5264 41.7466 10.5396 33.4481 10.5132 25.1431C10.5066 22.4604 11.8842 21.4717 14.4153 21.5047C18.4557 21.5574 22.4962 21.5179 26.5366 21.5179L26.5301 21.5245ZM26.7937 27.1864C24.2824 27.1864 21.7711 27.2787 19.2664 27.16C17.0847 27.0546 16.0763 27.7533 16.1356 30.1129C16.2608 35.0235 16.2279 39.934 16.1488 44.8445C16.1158 46.8878 16.742 47.8369 18.9435 47.7974C23.9595 47.6985 28.982 47.7249 34.0046 47.7974C35.8963 47.8238 36.8191 47.2239 36.7861 45.1806C36.707 40.0526 36.7004 34.9246 36.7795 29.79C36.8125 27.7467 35.8963 27.1007 34.0046 27.1666C31.6054 27.2523 29.2061 27.1864 26.8003 27.1864H26.7937Z" fill="#0B79B7"/>
<path d="M89.7602 137.23C89.8591 139.709 89.5559 142.088 88.844 144.402C88.2442 146.359 87.4005 148.396 84.8233 147.664C82.5229 147.005 82.5032 144.995 83.0305 143.057C84.5465 137.514 83.8808 132.267 81.1717 127.225C77.039 119.552 68.3648 115.532 59.2161 117.114C51.1879 118.498 44.4384 125.498 42.9686 133.599C42.4017 136.71 42.7115 139.669 43.3377 142.675C43.7727 144.758 44.4121 147.117 41.5712 147.783C38.5722 148.488 37.946 145.997 37.4846 143.822C35.2106 133.071 37.8471 123.778 46.4554 116.764C54.9318 109.857 64.5617 108.73 74.4354 113.278C84.5069 117.911 89.3515 126.269 89.7536 137.237L89.7602 137.23Z" fill="#0B79B7"/>
<path d="M63.5006 63.5379C70.817 63.5379 78.1333 63.5444 85.4496 63.5379C87.5457 63.5379 89.6285 63.7092 89.5758 66.4776C89.5296 69.0482 87.5391 69.1998 85.5749 69.1998C70.7247 69.1998 55.8679 69.1998 41.0177 69.1998C38.9414 69.1998 36.7993 69.0811 36.8916 66.2798C36.9838 63.5049 39.1919 63.5313 41.2154 63.5313C48.6438 63.5313 56.0656 63.5313 63.494 63.5313L63.5006 63.5379Z" fill="#0B79B7"/>
<path d="M92.476 53.0391C98.9157 53.0391 105.362 53.0391 111.802 53.0391C113.766 53.0391 115.756 53.1907 115.849 55.7349C115.948 58.5098 113.878 58.7142 111.769 58.7142C98.6652 58.7142 85.5617 58.7142 72.4648 58.7142C70.5138 58.7142 68.4969 58.5758 68.4112 56.0249C68.3189 53.2632 70.3886 53.0391 72.4978 53.0457C79.155 53.0522 85.8188 53.0457 92.476 53.0457V53.0391Z" fill="#0B79B7"/>
<path d="M68.7077 32.0312C72.7416 32.0312 76.7821 32.0312 80.816 32.0312C82.7868 32.0312 84.3753 32.6113 84.3489 34.9116C84.3159 37.2318 82.6483 37.6932 80.7237 37.6932C72.5439 37.6932 64.3641 37.6932 56.1777 37.6932C54.2201 37.6932 52.6052 37.1263 52.6448 34.8194C52.6843 32.5124 54.3453 32.0312 56.2766 32.0378C60.4225 32.0378 64.5684 32.0378 68.7143 32.0378L68.7077 32.0312Z" fill="#0B79B7"/>
<path d="M26.4312 79.7128C22.3973 79.7128 18.3569 79.7062 14.323 79.7128C12.4115 79.7128 10.6846 79.3173 10.6253 77.0038C10.5594 74.4859 12.3588 74.0443 14.4087 74.0509C22.483 74.0574 30.5508 74.0574 38.6251 74.0509C40.5432 74.0509 42.2569 74.4529 42.3228 76.7665C42.3953 79.2975 40.5893 79.726 38.5394 79.7194C34.5056 79.7128 30.4651 79.7194 26.4312 79.7194V79.7128Z" fill="#0B79B7"/>
<path d="M63.1312 48.1685C60.6266 48.1685 58.1219 48.208 55.6172 48.1553C53.8705 48.1157 52.6511 47.3116 52.6313 45.4199C52.6049 43.548 53.7452 42.6054 55.5183 42.5856C60.6397 42.5329 65.7546 42.5395 70.876 42.5725C72.6359 42.5856 73.8355 43.4425 73.8553 45.3144C73.8751 47.3973 72.5304 48.1553 70.6519 48.1751C68.1472 48.2014 65.6425 48.1817 63.1378 48.1817C63.1378 48.1817 63.1378 48.1685 63.1378 48.1619L63.1312 48.1685Z" fill="#0B79B7"/>
<path d="M105.217 48.1761C102.712 48.1761 100.207 48.2091 97.7027 48.1696C95.9626 48.1432 94.7037 47.3786 94.651 45.4869C94.5982 43.4238 95.8901 42.5735 97.7884 42.5604C102.798 42.534 107.807 42.5406 112.817 42.5604C114.57 42.5669 115.802 43.3513 115.855 45.2364C115.914 47.3061 114.623 48.1366 112.724 48.163C110.22 48.1959 107.715 48.1696 105.21 48.1696L105.217 48.1761Z" fill="#0B79B7"/>
<path d="M21.1713 69.1823C18.6666 69.1823 16.1619 69.2087 13.6572 69.1691C11.9171 69.1427 10.6516 68.3979 10.612 66.4996C10.5659 64.4366 11.8578 63.5863 13.7495 63.5731C18.7589 63.5401 23.7683 63.5467 28.7777 63.5731C30.5309 63.5797 31.7569 64.3904 31.8162 66.2623C31.8822 68.332 30.5837 69.1559 28.6854 69.1823C26.1807 69.2152 23.676 69.1889 21.1713 69.1823Z" fill="#0B79B7"/>
<path d="M105.151 69.173C102.646 69.173 100.141 69.2125 97.6367 69.1598C95.89 69.1269 94.6772 68.3095 94.6508 66.4178C94.6245 64.5459 95.7582 63.6033 97.5312 63.5902C102.653 63.5374 107.768 63.5506 112.889 63.5836C114.655 63.5968 115.842 64.4536 115.862 66.3321C115.888 68.4216 114.543 69.1664 112.665 69.1862C110.16 69.2059 107.655 69.1862 105.151 69.1862C105.151 69.1862 105.151 69.1796 105.151 69.173Z" fill="#0B79B7"/>
<path d="M76.5778 21.5585C78.2125 21.5585 79.8405 21.5124 81.4752 21.5651C83.2614 21.6244 84.3622 22.5274 84.3556 24.3928C84.3556 26.0933 83.3339 27.0688 81.7124 27.1018C78.1268 27.1875 74.5279 27.1941 70.9423 27.082C69.3208 27.0293 68.3453 25.9944 68.3783 24.3005C68.4112 22.6065 69.4197 21.6771 71.0345 21.5783C72.8801 21.4728 74.7323 21.5519 76.5844 21.5519L76.5778 21.5585Z" fill="#0B79B7"/>
<path d="M57.8715 21.5119C58.3066 21.5119 58.7416 21.5119 59.1766 21.5119C61.2463 21.5053 63.3555 21.6503 63.3159 24.4055C63.2764 27.1738 61.1013 27.1804 59.0777 27.1804C57.9902 27.1804 56.9092 27.1804 55.8216 27.1607C53.9563 27.1145 52.5985 26.3895 52.638 24.3066C52.6776 22.237 54.075 21.5646 55.9271 21.5317C56.5796 21.5185 57.2322 21.5317 57.8781 21.5317V21.5119H57.8715Z" fill="#0B79B7"/>
<path d="M84.2697 48.189C83.6171 48.189 82.9646 48.1956 82.3186 48.189C80.3413 48.1627 78.8121 47.5035 78.9044 45.2229C78.9835 43.1467 80.4533 42.5535 82.2857 42.5469C83.5908 42.5469 84.8893 42.5469 86.1943 42.5469C88.1915 42.5469 89.6811 43.239 89.602 45.5064C89.5295 47.5958 88.0531 48.1758 86.2339 48.189C85.5813 48.189 84.9288 48.189 84.2829 48.189H84.2697Z" fill="#0B79B7"/>
<path d="M57.878 58.6686C57.12 58.6686 56.3554 58.7016 55.5974 58.6686C53.8507 58.583 52.6577 57.7986 52.6313 55.9201C52.6049 54.0547 53.7321 53.1649 55.4985 53.0858C57.0145 53.0199 58.5371 53.0463 60.0597 53.0594C61.9185 53.0726 63.3092 53.7581 63.3422 55.8344C63.3751 57.904 62.0305 58.6489 60.1586 58.695C59.4006 58.7148 58.636 58.695 57.878 58.695C57.878 58.6884 57.878 58.6818 57.878 58.6686Z" fill="#0B79B7"/>
</g>
<defs>
<clipPath id="clip0_1013_8846">
<rect width="126.48" height="158" fill="white" transform="translate(0 0.5)"/>
</clipPath>
</defs>
</svg>
