<svg width="158" height="158" viewBox="0 0 158 158" fill="none" xmlns="http://www.w3.org/2000/svg">
<g clip-path="url(#clip0_1013_8793)">
<path d="M101.96 13.3426C108.308 18.0988 113.413 23.4701 117.205 30.059C118.112 31.6381 119.551 31.6381 121.041 31.6381C127.041 31.6381 133.046 31.6381 139.045 31.6381C140.098 31.6381 141.157 31.6381 142.197 31.7395C148.323 32.3483 150.714 34.9166 150.739 41.1694C150.79 56.3321 150.764 71.4884 150.764 86.6511C150.764 100.653 150.796 114.655 150.726 128.658C150.714 131.112 151.012 132.716 154.075 132.532C156.427 132.393 157.283 133.934 157.296 136.229C157.347 146.807 148.285 156.668 137.764 157.499C126.933 158.355 116.089 157.854 105.257 157.892C78.9398 157.987 52.616 157.937 26.2985 157.924C19.8999 157.924 13.6661 157.22 8.45971 152.908C3.22793 148.583 0.24105 143.154 7.07377e-05 136.293C-0.0823696 133.845 0.856181 132.298 3.41817 132.507C6.39236 132.748 6.58261 131.099 6.58261 128.81C6.54456 100.07 6.56359 71.3299 6.56993 42.5836C6.56993 41.6387 6.52554 40.6875 6.60164 39.7426C7.01384 34.3459 9.969 31.4922 15.372 31.4415C22.2146 31.378 29.0571 31.3654 35.8997 31.4668C38.0114 31.4985 39.3558 30.9278 40.4529 28.9619C44.169 22.3286 49.5467 17.23 56.7444 12.867C50.073 12.867 44.2325 12.867 38.3855 12.867C36.6162 12.867 36.3055 14.4144 35.5509 15.4861C33.1474 18.9232 29.8181 20.3754 25.7151 19.8047C21.8214 19.2593 19.234 16.9256 17.8706 13.2983C16.1774 8.79575 18.4033 3.50688 22.8107 1.29368C27.1927 -0.906843 32.8874 0.317078 35.367 4.56592C36.8128 7.03913 38.5124 7.44499 41.0046 7.41329C49.1091 7.31182 57.22 7.31182 65.3245 7.40694C67.544 7.43231 68.6855 6.84889 68.5967 4.42641C68.4889 1.40149 70.1441 0 73.0929 0C76.7774 0.0126831 80.4618 0 84.1463 0C87.038 0 88.8073 1.281 88.7122 4.33763C88.6424 6.69035 89.6761 7.41963 91.9464 7.4006C100.476 7.31182 109.005 7.28011 117.528 7.41963C119.767 7.45768 120.579 6.18936 121.631 4.66739C124.39 0.672206 129.045 -0.780012 133.312 0.824403C137.086 2.23857 140.085 6.86791 139.787 10.7933C139.426 15.4544 136.255 19.1135 131.702 20.1281C127.897 20.9715 123.73 19.253 121.428 15.5495C120.395 13.888 119.202 13.2919 117.332 13.3173C112.208 13.3997 107.084 13.3426 101.96 13.3426ZM78.4959 132.456C99.1187 132.456 119.748 132.456 140.371 132.456C144.746 132.456 144.765 132.437 144.765 128.22C144.772 99.702 144.765 71.184 144.765 42.666C144.765 41.8226 144.746 40.9855 144.74 40.1421C144.734 38.3538 143.884 37.3835 142.051 37.3835C135.633 37.3835 129.216 37.4025 122.792 37.3581C120.762 37.3455 120.851 38.4869 121.27 39.844C121.98 42.1777 123.971 41.3977 125.525 41.4548C129.406 41.5943 129.964 42.0572 129.996 45.8305C130.027 49.6164 129.945 53.4086 130.021 57.1945C130.078 59.9912 128.702 61.2912 126.026 61.3229C122.031 61.361 118.029 61.361 114.028 61.3229C111.535 61.2975 110.058 60.1497 110.071 57.4863C110.083 53.3833 110.064 49.2803 110.083 45.1773C110.096 42.9831 110.952 41.4421 113.406 41.5182C115.753 41.588 115.727 40.4401 115.087 38.7343C110.825 27.459 103.152 19.6081 91.8322 15.3339C89.9615 14.63 88.8136 14.7251 88.6107 17.0525C88.3951 19.532 86.8097 20.4071 84.4824 20.3881C80.7979 20.3564 77.1135 20.312 73.4354 20.4071C70.7529 20.4769 68.8758 19.6969 68.6094 16.7164C68.4699 15.1373 67.6899 14.7949 66.2567 15.3085C54.5375 19.5003 46.4837 27.3702 42.2285 39.0957C41.6958 40.5606 41.7529 41.5182 43.7125 41.5372C46.2047 41.5626 47.2447 43.0465 47.2384 45.4246C47.2257 49.5276 47.2384 53.6306 47.2257 57.7336C47.2193 60.1687 46.0271 61.4434 43.5412 61.4434C39.3304 61.4434 35.1196 61.399 30.9152 61.4688C28.4293 61.5131 27.1356 60.3463 27.0468 57.9365C26.9327 54.8926 26.9263 51.8359 26.92 48.7856C26.9115 44.3339 29.11 41.9029 33.5152 41.4928C33.7245 41.4738 33.9338 41.4802 34.143 41.4548C35.7918 41.2709 36.1216 40.0153 36.204 38.7279C36.3182 36.8889 34.8089 37.504 33.9338 37.4977C28.3595 37.4342 22.779 37.4533 17.2047 37.4596C12.7403 37.4659 12.4929 37.6942 12.4866 42.0446C12.4803 70.8796 12.5183 99.7147 12.4232 128.55C12.4105 131.524 13.1842 132.539 16.2915 132.52C37.0221 132.393 57.7527 132.456 78.4832 132.456H78.4959ZM79.295 138.303C79.295 138.303 79.295 138.297 79.295 138.29C76.3461 138.29 73.4036 138.29 70.4548 138.29C50.1428 138.29 29.8308 138.29 9.51875 138.316C6.12602 138.316 5.66943 138.969 7.08994 142C10.1466 148.519 15.3403 152.007 22.5633 152.014C60.0293 152.058 97.5016 152.058 134.968 152.001C142.07 151.988 147.124 148.424 150.276 142.152C151.982 138.753 151.665 138.297 147.809 138.297C124.973 138.29 102.131 138.297 79.295 138.297V138.303ZM78.4515 14.351C82.897 14.3573 82.7828 14.351 82.9414 10.1465C83.0492 7.34987 82.7701 5.58057 79.1681 5.80887C74.4563 6.10692 74.4373 5.86594 74.431 10.0704C74.4268 12.9241 75.7669 14.3531 78.4515 14.3573V14.351ZM37.3075 46.9593C34.5468 46.9593 33.1643 48.3523 33.1601 51.1384C33.1601 55.3999 33.1918 55.4379 37.225 55.4379C41.3027 55.4379 41.3597 55.3872 41.3661 51.2208C41.3661 48.3798 40.0153 46.9593 37.3138 46.9593H37.3075ZM115.968 50.9481C115.949 55.3682 115.987 55.4126 119.913 55.4379C124.041 55.4633 124.168 55.3492 124.187 51.5759C124.212 47.0861 124.117 46.9719 120.363 46.9529C117.442 46.936 115.975 48.2699 115.962 50.9544L115.968 50.9481ZM134.035 10.0197C133.991 7.76841 131.943 5.84058 129.71 5.94204C127.497 6.04351 125.43 8.19964 125.703 10.3621C126.001 12.7402 127.446 14.1607 129.888 14.2622C132.133 14.351 134.086 12.2709 134.042 10.026L134.035 10.0197ZM27.4337 14.2812C29.5961 14.2875 31.6889 12.1948 31.6635 10.045C31.6381 7.85085 29.5327 5.75814 27.3385 5.97375C24.9858 6.20205 23.4448 7.48938 23.337 9.98796C23.2356 12.2709 25.2141 14.2749 27.44 14.2812H27.4337Z" fill="#0B79B7"/>
<path d="M78.3815 105.689C72.2746 105.689 66.1676 105.714 60.067 105.676C56.5158 105.657 55.8182 104.934 55.7548 101.402C55.7104 99.087 55.7992 96.766 55.7294 94.4514C55.6533 91.9021 55.7104 89.6001 58.9509 88.8708C60.5807 88.5093 59.5153 87.3742 59.1158 86.6576C56.7377 82.4404 54.3723 78.2106 51.8674 74.0696C50.6245 72.0149 50.6245 70.3281 52.0386 68.2924C59.7944 57.1503 67.4296 45.9194 75.1346 34.7392C77.7917 30.8899 79.5737 30.9026 82.2308 34.79C89.7075 45.7418 97.1018 56.7508 104.661 67.6519C106.424 70.1949 106.437 72.313 104.826 74.875C102.416 78.7053 100.266 82.6878 97.9896 86.6005C97.311 87.7674 96.5247 88.801 98.8076 89.1562C100.793 89.4669 101.452 91.0777 101.471 92.923C101.503 95.8719 101.515 98.8207 101.471 101.763C101.433 104.439 100.165 105.752 97.3364 105.708C91.0202 105.606 84.704 105.676 78.3878 105.676L78.3815 105.689ZM82.0215 44.4735C81.8186 44.5243 81.6157 44.5686 81.4064 44.6194C81.4064 48.3546 81.4825 52.0897 81.3747 55.8249C81.324 57.6006 81.9771 58.6976 83.4167 59.7313C86.9679 62.2933 88.1348 66.2061 86.7523 70.03C85.5348 73.3974 82.4084 75.5345 78.6922 75.5472C74.8746 75.5599 71.6341 73.2832 70.4926 69.7827C69.1926 65.7939 70.4228 62.1157 73.9424 59.503C74.6907 58.9513 75.7941 58.6215 75.8131 57.5245C75.8766 53.2312 75.8385 48.9316 75.8385 43.7379C69.6048 52.8127 63.9671 61.0567 58.2724 69.2627C57.2324 70.7593 57.2007 72.0783 58.1202 73.6257C60.7519 78.0584 63.3456 82.5165 65.8823 87C66.713 88.4713 67.8545 88.9786 69.4969 88.9659C75.6039 88.9088 81.7045 88.9152 87.8114 88.9659C89.4412 88.9786 90.608 88.5093 91.4514 87.0317C94.1086 82.3707 96.8354 77.7477 99.5623 73.1247C100.082 72.2432 100.342 71.4315 99.7081 70.493C93.8105 61.824 87.9192 53.1424 82.0279 44.4672L82.0215 44.4735ZM78.5527 100.216C83.3913 100.216 88.2236 100.165 93.0622 100.241C95.0281 100.273 95.5988 99.3788 95.6052 97.5587C95.6052 95.7197 94.9837 94.8762 93.0432 94.8826C83.4738 94.9333 73.9107 94.927 64.3413 94.8953C62.5529 94.8953 61.6017 95.4597 61.5827 97.4129C61.5637 99.3978 62.2929 100.273 64.3603 100.241C69.0911 100.159 73.8219 100.216 78.5527 100.216Z" fill="#0B79B7"/>
<path d="M78.6166 147.93C77.0439 147.93 75.4648 148.019 73.8984 147.904C72.2433 147.79 71.1081 146.877 71.0447 145.133C70.9877 143.497 72.0213 142.628 73.5433 142.425C76.9868 141.956 80.4429 141.88 83.8801 142.444C85.4147 142.698 86.385 143.605 86.2899 145.235C86.1947 146.82 85.161 147.746 83.6454 147.873C81.9776 148.012 80.2907 147.904 78.6166 147.904C78.6166 147.911 78.6166 147.923 78.6166 147.93Z" fill="#0B79B7"/>
</g>
<defs>
<clipPath id="clip0_1013_8793">
<rect width="157.283" height="158" fill="white"/>
</clipPath>
</defs>
</svg>
