<svg width="176" height="158" viewBox="0 0 176 158" fill="none" xmlns="http://www.w3.org/2000/svg">
<g clip-path="url(#clip0_1013_8823)">
<path d="M88.0443 0C115.287 0 142.53 0 169.773 0C175.283 0 175.671 0.365944 175.671 5.72337C175.671 48.6047 175.671 91.486 175.671 134.367C175.671 140.193 175.393 140.457 169.399 140.464C162.343 140.479 155.287 140.537 148.238 140.435C145.732 140.398 144.699 141.291 144.772 143.816C144.875 147.095 144.823 150.374 144.713 153.653C144.611 156.536 143.182 158.022 140.09 157.993C130.967 157.905 121.845 157.919 112.723 157.985C109.484 158.007 108.026 156.522 108.07 153.353C108.106 150.557 107.879 147.746 108.121 144.972C108.429 141.503 107.212 140.376 103.644 140.398C81.3912 140.544 59.1309 140.471 36.8781 140.479C26.2975 140.479 15.7169 140.501 5.13636 140.479C0.666734 140.464 0.0219351 139.842 0.0219351 135.429C-4.66895e-05 91.9325 -4.669e-05 48.4437 0.0146078 4.95488C0.0146078 0.607467 0.659407 0.00731888 5.21696 0.00731888C32.8261 0 60.4352 0 88.0443 0ZM87.5607 23.3253C90.477 23.3253 93.4005 23.3253 96.3168 23.3253C119.178 23.3253 142.046 23.2521 164.907 23.3985C168.468 23.4204 169.714 22.3006 169.37 18.8315C169.135 16.4236 169.333 13.9791 169.326 11.5492C169.326 8.08004 167.609 6.34303 164.175 6.33815C113.463 6.33815 62.7433 6.33815 12.0313 6.33815C11.0568 6.33815 10.0823 6.40402 9.11506 6.34547C7.06343 6.22837 6.29407 7.20178 6.33803 9.1852C6.4113 12.3396 6.5725 15.5233 6.27941 18.6558C5.94236 22.3153 7.18067 23.4424 10.9396 23.4131C36.4751 23.2521 62.0179 23.3326 87.5607 23.3253ZM42.4028 81.6494C53.3497 81.6494 64.2967 81.5909 75.2436 81.6934C77.8961 81.7226 78.8926 80.9102 78.8706 78.1656C78.768 63.2205 78.7533 48.2753 78.8779 33.3302C78.8999 30.3953 77.8887 29.6049 75.0677 29.6122C53.4157 29.7 31.7636 29.7 10.1116 29.6122C7.31989 29.5976 6.25011 30.3514 6.27941 33.3155C6.4113 48.1363 6.4113 62.9643 6.27941 77.7851C6.25011 80.8517 7.31256 81.7446 10.2874 81.708C20.9926 81.5689 31.6977 81.6568 42.4028 81.6494ZM161.779 30.3368C161.691 30.1172 161.595 29.8976 161.507 29.6781C137.086 29.6781 112.664 29.7073 88.2348 29.6342C85.3992 29.6268 85.1427 31.0906 85.15 33.3082C85.194 47.1482 85.1647 60.9882 85.2013 74.8209C85.2013 75.8529 84.6298 77.2581 85.6923 77.8583C86.784 78.473 87.656 77.2142 88.5279 76.6653C101.995 68.19 115.441 59.6855 128.886 51.1809C139.855 44.2426 150.81 37.2824 161.771 30.3294L161.779 30.3368ZM59.1896 87.9876C42.8937 87.9876 26.5906 88.0461 10.2948 87.9364C7.3492 87.9144 6.24278 88.7195 6.27941 91.8227C6.42596 104.697 6.41131 117.578 6.28674 130.459C6.25743 133.35 7.22463 134.206 10.0749 134.199C41.4576 134.118 72.8402 134.155 104.223 134.14C105.981 134.14 107.982 134.602 108.084 131.674C108.194 128.607 106.238 128.827 104.223 128.827C93.276 128.834 82.329 128.842 71.3821 128.812C66.7073 128.798 65.7841 127.905 65.7694 123.316C65.7401 115.177 65.7401 107.039 65.7768 98.8927C65.7987 94.216 66.678 93.345 71.3162 93.3304C82.1385 93.3084 92.9682 93.3304 103.791 93.3231C104.765 93.3231 105.74 93.367 106.707 93.2791C109.403 93.0376 110.656 90.7541 110.708 88.8073C110.751 87.2703 108.297 88.0388 107 88.0315C91.0631 87.9656 75.1337 87.9876 59.1969 87.9876H59.1896ZM131.312 57.6508C134.03 57.5484 136.382 57.7387 138.815 58.1558C142.72 58.8292 146.149 60.6516 149.762 62.0641C153.403 63.484 156.935 65.7162 160.885 62.1373C162.064 61.0687 164.959 61.3615 166.263 62.8399C167.611 64.3696 166.065 66.0602 165.017 67.3264C162.577 70.2832 159.287 71.2347 155.55 70.8395C151.366 70.393 147.652 68.5633 143.856 66.9239C140.962 65.6723 138.031 64.3769 134.756 64.6623C130.645 65.0283 128.674 68.7023 130.726 72.2008C132.015 74.3964 133.517 76.4823 134.726 78.7219C135.906 80.9102 137.533 81.7299 140.024 81.6934C148.406 81.5689 156.803 81.525 165.186 81.708C168.336 81.7739 169.428 80.8663 169.384 77.6094C169.216 66.0749 169.384 54.5403 169.274 43.0057C169.245 40.1807 170.718 36.1553 168.432 34.8598C166.563 33.7986 163.757 37.1433 161.427 38.5998C151.352 44.894 141.343 51.2907 131.304 57.6435L131.312 57.6508ZM90.3231 122.481C94.3311 122.481 98.3391 122.577 102.347 122.438C104.179 122.372 106.765 123.506 107.674 121.45C108.715 119.086 107.095 116.795 105.564 114.855C104.97 114.101 104.208 113.457 103.432 112.886C98.9619 109.586 98.8374 109.088 101.636 104.455C102.076 103.731 102.508 102.999 102.985 102.296C104.384 100.232 103.666 99.61 101.38 99.6319C92.8803 99.6978 84.3807 99.7198 75.8811 99.6319C73.5217 99.61 72.6351 100.466 72.6717 102.823C72.7743 108.283 72.789 113.743 72.6571 119.195C72.5911 121.786 73.6462 122.584 76.1082 122.518C80.8416 122.394 85.5824 122.481 90.3158 122.481H90.3231ZM122.101 85.3528L121.149 84.9722C116.884 92.0862 112.613 99.2001 108.355 106.314C107.799 107.244 108.282 107.902 108.971 108.51C113.397 112.418 114.943 117.512 114.921 123.199C114.921 125.394 115.844 126.207 117.998 126.178C123.464 126.104 128.93 126.053 134.397 126.199C137.086 126.273 138.199 125.307 137.958 122.613C137.467 117.197 139.291 112.601 143.087 108.759C143.805 108.027 144.45 107.368 143.768 106.263C139.027 98.5561 134.309 90.8493 129.575 83.1352C128.96 86.3116 129.062 89.305 128.923 92.2838C128.784 95.182 129.158 97.4289 131.876 99.4416C135.503 102.128 135.474 107.331 132.506 110.815C129.429 114.431 124.453 114.994 120.761 112.14C117.317 109.476 115.976 103.789 119.017 100.803C123.911 96.0018 121.523 90.5419 122.094 85.3382L122.101 85.3528ZM169.326 111.284C169.326 104.967 169.12 98.6512 169.406 92.3496C169.567 88.7122 168.234 87.7973 164.819 87.9144C158.144 88.1486 151.454 87.9656 144.765 88.0169C143.629 88.0242 141.973 87.3582 141.46 88.6243C140.94 89.9051 142.376 90.981 143.05 92.0935C143.893 93.4768 145.314 93.3011 146.64 93.3084C151.015 93.3231 155.396 93.3743 159.771 93.3084C162.665 93.2645 164.021 94.5307 164.006 97.4509C163.962 106.556 163.962 115.66 164.006 124.765C164.021 127.744 162.533 128.871 159.698 128.827C155.807 128.761 151.916 128.849 148.033 128.827C146.296 128.812 144.889 129.003 144.831 131.264C144.772 133.54 145.886 134.192 147.974 134.17C154.048 134.104 160.13 134.075 166.204 134.184C168.6 134.228 169.406 133.299 169.37 130.964C169.274 124.406 169.333 117.849 169.333 111.298L169.326 111.284ZM126.3 151.633C129.092 151.633 131.891 151.508 134.675 151.669C137.276 151.816 138.082 150.696 138.002 148.237C137.87 144.241 137.877 140.23 138.002 136.234C138.075 133.818 137.034 133.035 134.741 133.087C130.616 133.182 126.483 133.087 122.358 133.116C114.071 133.182 115.038 132.194 115.067 140.552C115.082 144.028 113.587 148.398 115.8 150.754C118.064 153.162 122.482 151.333 125.941 151.625C126.058 151.633 126.183 151.625 126.307 151.633H126.3ZM125.186 61.464C114.628 68.1754 104.641 74.5135 94.6535 80.859C101.255 81.5982 107.637 81.6055 114.027 81.5909C115.631 81.5909 116.225 80.2954 116.972 79.1903C120.526 73.9646 123.23 68.3437 125.179 61.4713L125.186 61.464ZM157.653 111.306C157.653 108.517 157.529 105.721 157.69 102.947C157.836 100.378 156.774 99.3319 154.29 99.6539C152.422 99.8954 149.835 98.6878 148.853 100.327C147.981 101.791 150.165 103.445 151.029 104.989C153.14 108.766 153.022 109.659 149.549 112.169C146.977 114.028 145.212 116.363 144.882 119.62C144.706 121.362 145.263 122.262 147.197 122.489C157.214 123.667 157.653 123.33 157.653 113.487C157.653 112.762 157.653 112.03 157.653 111.306Z" fill="#0B79B7"/>
<path d="M31.0018 79.2286C26.0192 79.2286 21.0294 79.17 16.0468 79.2505C12.984 79.3018 11.5625 77.999 11.6578 74.8885C11.7604 71.6096 11.7018 68.3308 11.6871 65.0519C11.6798 62.5049 12.9181 61.2461 15.4753 61.2461C25.8067 61.2534 36.1455 61.2461 46.4769 61.2607C48.8583 61.2607 50.082 62.4757 50.1039 64.847C50.1332 68.2503 50.0673 71.6462 50.1332 75.0495C50.1845 77.9478 48.8656 79.2798 45.9494 79.2432C40.9668 79.1847 35.977 79.2286 30.9944 79.2286H31.0018ZM31.3242 67.5916C27.8144 67.5916 24.3047 67.6428 20.7949 67.5696C18.7726 67.5257 17.9886 68.3674 18.0179 70.3874C18.0472 72.2976 18.9191 72.9197 20.6996 72.9124C27.4774 72.8758 34.2551 72.8612 41.0401 72.9124C43.0624 72.927 43.8465 72.1073 43.8171 70.0946C43.7878 68.1844 42.9086 67.5403 41.1354 67.5623C37.8674 67.6062 34.5995 67.5769 31.3315 67.5842L31.3242 67.5916Z" fill="#0B79B7"/>
<path d="M35.6179 46.6589C42.1758 46.6589 48.7337 46.6955 55.2916 46.6297C57.5557 46.6077 58.9332 47.0468 58.9405 49.7914C58.9405 52.4921 57.6729 53.0191 55.3502 53.0117C41.9926 52.9605 28.635 52.9605 15.2774 53.0117C13.0133 53.0191 11.6357 52.6019 11.6284 49.85C11.6284 47.142 12.896 46.6077 15.2188 46.637C22.0185 46.7175 28.8182 46.6663 35.6179 46.6589Z" fill="#0B79B7"/>
<path d="M23.4767 41.3095C20.4432 41.3095 17.4171 41.251 14.3836 41.3242C11.9583 41.39 11.6652 39.9555 11.6725 38.0307C11.6871 36.2083 12.1048 34.9933 14.281 35.008C20.4652 35.0519 26.6494 35.0519 32.8263 35.008C34.9146 34.9933 35.5667 36.018 35.5374 37.9355C35.5081 39.7726 35.4128 41.3681 32.9289 41.3242C29.7782 41.2656 26.6274 41.3095 23.4767 41.3095Z" fill="#0B79B7"/>
<path d="M36.3654 93.3232C43.0405 93.3232 49.7229 93.389 56.3981 93.2866C59.6147 93.2354 61.1022 94.5601 61.0875 97.8023C61.0362 106.658 61.0436 115.507 61.0729 124.363C61.0802 127.363 59.754 128.827 56.6765 128.82C43.0771 128.79 29.4777 128.79 15.8783 128.827C13.006 128.834 11.6505 127.605 11.6652 124.67C11.7164 115.573 11.7091 106.475 11.6652 97.3852C11.6505 94.4283 13.116 93.2866 15.9516 93.3085C22.7513 93.3671 29.551 93.3305 36.3507 93.3232H36.3654ZM35.6473 122.474C40.7544 122.474 45.8542 122.408 50.9613 122.504C53.2913 122.547 54.2732 121.647 54.2439 119.313C54.1779 113.853 54.1852 108.385 54.2512 102.926C54.2805 100.679 53.5185 99.6101 51.0858 99.6321C41.1207 99.7126 31.1557 99.7126 21.1906 99.6321C18.8312 99.6101 17.9373 100.459 17.9886 102.823C18.0985 108.283 18.1205 113.75 17.9813 119.21C17.9153 121.816 18.9631 122.591 21.4324 122.526C26.1658 122.394 30.9139 122.489 35.6473 122.482V122.474Z" fill="#0B79B7"/>
</g>
<defs>
<clipPath id="clip0_1013_8823">
<rect width="175.671" height="158" fill="white"/>
</clipPath>
</defs>
</svg>
