<svg width="21" height="21" viewBox="0 0 21 21" fill="none" xmlns="http://www.w3.org/2000/svg">
<path fillRule="evenodd" clipRule="evenodd" d="M10.9516 14.9948C12.268 14.3005 16.3854 11.8006 16.3854 7.69368C16.3854 4.47202 13.7737 1.86035 10.5521 1.86035C7.33042 1.86035 4.71875 4.47202 4.71875 7.69368C4.71875 11.8006 8.83617 14.3005 10.1525 14.9948C10.4045 15.1277 10.6997 15.1277 10.9516 14.9948ZM10.5521 10.1937C11.9328 10.1937 13.0521 9.0744 13.0521 7.69368C13.0521 6.31297 11.9328 5.19368 10.5521 5.19368C9.17137 5.19368 8.05208 6.31297 8.05208 7.69368C8.05208 9.0744 9.17137 10.1937 10.5521 10.1937Z" fill="#325A3E"/>
<path d="M15.6039 13.9434C16.1159 14.3234 16.3854 14.7545 16.3854 15.1934C16.3854 15.6322 16.1159 16.0633 15.6039 16.4434C15.0919 16.8234 14.3555 17.139 13.4688 17.3584C12.582 17.5778 11.576 17.6934 10.5521 17.6934C9.52812 17.6934 8.5222 17.5778 7.63542 17.3584C6.74864 17.139 6.01225 16.8234 5.50027 16.4434C4.98829 16.0633 4.71875 15.6322 4.71875 15.1934C4.71875 14.7545 4.98829 14.3234 5.50027 13.9434" stroke="#325A3E" strokeWidth="2" stroke-linecap="round"/>
</svg>
