<svg width="21" height="21" viewBox="0 0 21 21" fill="none" xmlns="http://www.w3.org/2000/svg">
<path fillRule="evenodd" clipRule="evenodd" d="M3.84029 5.53671C3.05212 6.39684 3.05212 7.73016 3.05212 10.3968C3.05212 13.0635 3.05212 14.3968 3.84029 15.2569C3.89926 15.3213 3.961 15.383 4.02535 15.442C4.88549 16.2301 6.21881 16.2301 8.88546 16.2301H12.2188C14.8854 16.2301 16.2188 16.2301 17.0789 15.442C17.1432 15.383 17.205 15.3213 17.264 15.2569C18.0521 14.3968 18.0521 13.0635 18.0521 10.3968C18.0521 7.73016 18.0521 6.39684 17.264 5.53671C17.205 5.47236 17.1432 5.41061 17.0789 5.35164C16.2188 4.56348 14.8854 4.56348 12.2188 4.56348H8.88546C6.21881 4.56348 4.88549 4.56348 4.02535 5.35164C3.961 5.41061 3.89926 5.47236 3.84029 5.53671ZM6.10682 7.06476C5.6473 6.75841 5.02643 6.88258 4.72007 7.34211C4.41372 7.80164 4.5379 8.42251 4.99742 8.72886L9.44272 11.6924C10.1145 12.1403 10.9897 12.1403 11.6615 11.6924L16.1068 8.72886C16.5664 8.42251 16.6905 7.80164 16.3842 7.34211C16.0778 6.88258 15.457 6.75841 14.9974 7.06476L10.5521 10.0283L6.10682 7.06476Z" fill="#325A3E"/>
</svg>
