<svg width="21" height="21" viewBox="0 0 21 21" fill="none" xmlns="http://www.w3.org/2000/svg">
<path d="M16.1013 11.2952L17.9158 13.1097C18.2673 13.4611 18.2673 14.0309 17.9158 14.3823C16.016 16.2822 13.0082 16.4959 10.8587 14.8838L10.7334 14.7898C9.112 13.5738 7.67169 12.1335 6.45565 10.5121L6.36167 10.3868C4.74957 8.23732 4.96332 5.22953 6.86321 3.32964C7.21462 2.97823 7.78437 2.97823 8.13578 3.32964L9.95028 5.14415C10.3408 5.53467 10.3408 6.16784 9.95028 6.55836L8.68408 7.82456C8.44812 8.06052 8.38963 8.42099 8.53886 8.71946C9.40156 10.4449 10.8006 11.8439 12.526 12.7066C12.8245 12.8559 13.185 12.7974 13.4209 12.5614L14.6871 11.2952C15.0776 10.9047 15.7108 10.9047 16.1013 11.2952Z" fill="#325A3E"/>
</svg>
