<?xml version="1.0" encoding="utf-8"?>
<!-- Generator: Adobe Illustrator 27.8.1, SVG Export Plug-In . SVG Version: 6.00 Build 0)  -->
<svg version="1.1" id="Layer_1" xmlns="http://www.w3.org/2000/svg" xmlns:xlink="http://www.w3.org/1999/xlink" x="0px" y="0px"
	 viewBox="0 0 36.5 42.2" style="enable-background:new 0 0 36.5 42.2;" xml:space="preserve">
<style type="text/css">
	.st0{fill:#198BCA;}
	.st1{fill:#0B79B7;}
	.st2{fill:#0D6394;}
	.st3{fill:#0D4972;}
	.st4{fill:#139DD9;}
	.st5{fill:#9CD6EF;}
	.st6{fill:#26B2E3;}
	.st7{fill:#66C6EB;}
	.st8{fill:#2AA9E1;}
</style>
<g>
	<path class="st0" d="M0,10.5v10.5l6.9-6.6L0,10.5z"/>
	<path class="st1" d="M6.9,14.6L0,21.1h6.9V14.6z"/>
	<path class="st2" d="M0,21.1l6.9,6.6v-6.6H0z"/>
	<path class="st3" d="M0,31.6l6.9-4L0,21.1V31.6z"/>
	<path class="st4" d="M0,10.5l6.9,4l2.2-9.3L0,10.5z"/>
	<path class="st5" d="M9.1,5.3L18.3,8V0L9.1,5.3L9.1,5.3z"/>
	<path class="st3" d="M18.3,0v8l9.4-2.6L18.3,0L18.3,0z"/>
	<path class="st0" d="M27.6,5.4l2,9.2l6.9-4L27.6,5.4z"/>
	<path class="st4" d="M29.6,14.6l6.9,6.6V10.6L29.6,14.6L29.6,14.6z"/>
	<path class="st5" d="M36.5,31.6V21.1l-6.9,6.5L36.5,31.6z"/>
	<path class="st6" d="M6.9,14.6l5.7-3.3l-3.5-6L6.9,14.6z"/>
	<path class="st7" d="M9.1,5.3l3.5,6L18.3,8L9.1,5.3L9.1,5.3z"/>
	<path class="st2" d="M18.3,42.2l9.4-5.4l-9.4-2.6V42.2z"/>
	<path class="st8" d="M36.5,31.6l-6.9-4l-2,9.2L36.5,31.6L36.5,31.6z"/>
	<path class="st0" d="M23.9,30.9l3.7,5.9l2-9.2L23.9,30.9L23.9,30.9z"/>
	<path class="st3" d="M18.3,34.2l9.4,2.6l-3.7-5.9L18.3,34.2L18.3,34.2z"/>
	<path class="st1" d="M18.3,34.2l-9.1,2.7l9.1,5.3V34.2L18.3,34.2z"/>
	<path class="st7" d="M0,31.6l9.1,5.3l-2.2-9.3L0,31.6z"/>
	<path class="st4" d="M6.9,27.6l2.2,9.3l3.5-6L6.9,27.6L6.9,27.6z"/>
	<path class="st0" d="M12.6,30.9l-3.5,6l9.1-2.7L12.6,30.9L12.6,30.9z"/>
	<path class="st6" d="M29.6,14.6v6.6h6.9L29.6,14.6L29.6,14.6z"/>
	<path class="st7" d="M36.5,21.1h-6.9v6.6L36.5,21.1z"/>
	<path class="st2" d="M27.6,5.4L18.2,8l5.7,3.3L27.6,5.4L27.6,5.4z"/>
	<path class="st1" d="M27.6,5.4l-3.7,5.9l5.7,3.3L27.6,5.4z"/>
</g>
</svg>
