<svg width="141" height="140" viewBox="0 0 141 140" fill="none" xmlns="http://www.w3.org/2000/svg">
<g clip-path="url(#clip0_935_6110)">
<path d="M87.3054 124.206C87.3054 121.248 87.2913 118.291 87.3139 115.337C87.3195 114.521 87.2348 114.067 86.2246 114.445C82.3361 115.912 78.284 116.671 74.1613 117.03C73.0184 117.129 72.7447 117.603 72.7757 118.621C72.8265 120.357 72.8406 122.095 72.7701 123.83C72.7249 124.928 73.0777 125.614 74.0399 126.237C76.2776 127.685 77.3189 129.852 76.9295 132.508C76.526 135.259 74.9034 137.127 72.2198 137.917C69.1271 138.828 65.8284 137.251 64.4852 134.328C63.1674 131.461 64.0901 128.004 66.8245 126.268C67.8968 125.588 68.2495 124.852 68.1931 123.653C68.1084 121.872 68.1479 120.086 68.179 118.302C68.1931 117.487 67.8996 117.148 67.0502 117.078C63.3 116.773 59.6118 116.104 56.0366 114.911C55.0743 114.589 54.7921 114.834 54.8006 115.825C54.8345 119.437 54.8204 123.052 54.8091 126.666C54.8006 128.797 54.0556 129.533 51.9223 129.545C49.5746 129.556 47.2268 129.607 44.8847 129.522C43.6346 129.477 42.8558 129.81 42.1616 130.956C40.7309 133.323 38.0276 134.305 35.3271 133.71C32.7987 133.151 30.8178 130.998 30.3917 128.348C29.895 125.253 31.6276 122.287 34.5821 121.186C37.3729 120.145 40.6829 121.186 42.2208 123.785C42.8388 124.827 43.502 125.219 44.673 125.14C46.1206 125.044 47.5823 125.089 49.0356 125.123C49.8878 125.143 50.2095 124.776 50.2038 123.949C50.1869 120.475 50.1869 117.004 50.201 113.531C50.201 112.82 49.8567 112.427 49.2557 112.12C39.9549 107.396 32.9878 100.33 28.2273 91.0745C27.8492 90.3408 27.361 90.0756 26.5624 90.0812C23.2778 90.1094 19.9932 90.1263 16.7086 90.0727C15.6222 90.0558 15.3005 90.4988 15.3682 91.4977C15.4218 92.2907 15.419 93.0949 15.3738 93.8907C15.2581 95.8829 15.4162 97.4321 17.4225 98.8628C20.5463 101.092 20.3431 105.714 17.4902 108.378C14.7305 110.954 10.3961 110.63 7.99191 107.664C5.61874 104.738 6.19722 100.327 9.38025 98.2786C10.509 97.5534 10.8279 96.7718 10.7855 95.533C10.7065 93.236 10.7488 90.9334 10.7686 88.6364C10.7884 86.4071 11.5982 85.5437 13.8247 85.5154C17.3435 85.4703 20.8651 85.459 24.384 85.5154C25.6115 85.5352 25.8062 85.2022 25.4281 84.0566C24.2993 80.6139 23.5713 77.081 23.402 73.4521C23.3625 72.6253 23.0662 72.2556 22.2281 72.2641C20.1174 72.2838 18.0038 72.3064 15.8931 72.2528C14.8574 72.2274 14.5922 73.009 14.1435 73.6383C11.9397 76.7198 7.95805 77.4027 4.94996 75.2186C2.00396 73.0824 1.40009 68.94 3.59548 65.9544C6.24237 62.3622 11.7986 62.5541 14.2423 66.4116C14.8631 67.3936 15.5093 67.7294 16.6098 67.6814C18.4384 67.6052 20.2697 67.6363 22.0983 67.6701C22.942 67.6871 23.3625 67.4698 23.4274 66.5103C23.7011 62.4215 24.4827 58.4201 25.8824 54.5627C26.3395 53.2985 25.8739 53.1264 24.779 53.132C19.2426 53.1602 13.7033 53.1489 8.16686 53.1433C5.41839 53.1405 4.78912 52.4999 4.7863 49.7345C4.78347 46.9183 4.75526 44.1021 4.80041 41.2887C4.81734 40.3462 4.55491 39.7649 3.68578 39.2598C1.01914 37.7078 -0.106776 34.7787 0.711558 31.8864C1.49039 29.1351 4.12599 27.1344 6.9958 27.1231C9.82046 27.1118 12.3996 29.0222 13.2292 31.7368C14.1012 34.5953 13.0176 37.547 10.3651 39.1639C9.48184 39.7029 9.15451 40.2842 9.19119 41.2972C9.26456 43.312 9.23634 45.3324 9.2053 47.3501C9.19119 48.1938 9.5157 48.5211 10.3623 48.5183C16.0398 48.4985 21.7202 48.4957 27.3977 48.5239C28.185 48.5268 28.5801 48.1656 28.9074 47.5222C29.737 45.8883 30.7275 44.3476 31.7829 42.852C32.9483 41.1984 34.1927 40.7723 35.4174 41.5963C36.6646 42.4344 36.7606 43.7353 35.5839 45.4058C31.9832 50.5077 29.6072 56.1203 28.4954 62.2635C24.3163 85.3913 39.4441 107.509 62.476 111.829C74.418 114.067 85.5051 111.651 95.4662 104.535C95.7342 104.343 95.9995 104.145 96.2901 103.996C97.4302 103.412 98.6548 103.668 99.3095 104.608C100.015 105.621 99.8315 106.885 98.7705 107.729C97.0041 109.134 95.1078 110.359 93.1043 111.395C92.2267 111.849 91.9078 112.427 91.9135 113.39C91.9445 118.785 91.953 124.183 91.9135 129.581C91.905 130.752 92.3311 131.164 93.4796 131.125C95.2602 131.063 97.0464 131.057 98.827 131.125C99.9642 131.17 100.692 130.862 101.35 129.821C102.899 127.361 105.924 126.373 108.619 127.225C111.347 128.089 113.28 130.696 113.249 133.467C113.216 136.399 111.274 138.955 108.486 139.743C105.645 140.544 102.755 139.472 101.183 136.876C100.641 135.984 100.049 135.676 99.0442 135.696C96.0898 135.75 93.1325 135.727 90.1752 135.71C88.0645 135.699 87.328 134.943 87.3195 132.795C87.3082 129.934 87.3195 127.07 87.3167 124.209L87.3054 124.206ZM38.7415 127.409C38.7726 126.393 37.8272 125.371 36.8311 125.343C35.7983 125.315 34.8587 126.232 34.8333 127.298C34.8079 128.362 35.6742 129.285 36.738 129.327C37.8075 129.37 38.7076 128.509 38.7415 127.409ZM10.7178 69.9699C10.7319 68.7876 9.97848 68.0229 8.78485 68.0483C7.6166 68.0737 6.94218 68.6578 6.89421 69.8571C6.84624 71.045 7.59685 71.8634 8.73123 71.8888C9.83739 71.9114 10.7009 71.0761 10.715 69.9699H10.7178ZM14.9816 103.612C14.9901 102.435 14.2169 101.634 13.0797 101.637C11.9792 101.642 11.1157 102.503 11.1552 103.612C11.1947 104.783 11.8127 105.429 13.0007 105.474C14.2 105.519 14.976 104.783 14.9816 103.612ZM106.66 135.411C107.671 135.417 108.67 134.446 108.67 133.456C108.67 132.409 107.752 131.509 106.686 131.503C105.616 131.497 104.679 132.406 104.691 133.43C104.702 134.48 105.619 135.403 106.66 135.411ZM70.5013 129.742C69.3585 129.711 68.6163 130.38 68.5599 131.495C68.4978 132.685 69.2117 133.521 70.3405 133.574C71.441 133.625 72.3412 132.81 72.3863 131.72C72.4343 130.566 71.6809 129.776 70.5013 129.745V129.742ZM6.99862 31.782C5.91221 31.7735 4.981 32.6708 4.99511 33.7121C5.0064 34.7646 5.92914 35.6168 7.03248 35.5999C8.0681 35.583 8.95415 34.7421 8.97109 33.7601C8.98802 32.7103 8.07374 31.7876 7.00144 31.782H6.99862Z" fill="black"/>
<path d="M87.2998 15.7383C87.2998 13.0152 87.2998 10.2949 87.2998 7.57185C87.3026 4.88546 87.898 4.30416 90.6409 4.29851C93.505 4.29569 96.3664 4.27312 99.2305 4.3098C100.071 4.32109 100.582 4.06148 101.042 3.31651C102.8 0.466454 105.822 -0.64253 108.799 0.364868C111.692 1.34405 113.393 4.08405 113.12 7.32635C112.874 10.2131 110.555 12.6399 107.405 13.0293C104.753 13.3566 102.617 12.2505 101.189 10.0071C100.658 9.17183 100.069 8.87836 99.1346 8.89812C97.1649 8.94044 95.1925 8.93762 93.2228 8.90376C92.2521 8.88683 91.8909 9.30164 91.8937 10.2526C91.9135 15.7919 91.9107 21.3283 91.8937 26.8676C91.8937 27.6746 92.238 28.1459 92.9322 28.5268C101.082 33.0023 107.408 39.3204 111.892 47.4614C112.341 48.2769 112.888 48.5647 113.791 48.5591C119.331 48.5309 124.867 48.5281 130.406 48.5591C131.416 48.5647 131.848 48.2628 131.812 47.1933C131.747 45.2716 131.732 43.3415 131.817 41.4227C131.865 40.3391 131.473 39.7521 130.556 39.1878C128.169 37.7176 127.147 35.477 127.582 32.7088C128.008 30.0027 129.644 28.2306 132.26 27.4461C135.342 26.5205 138.595 28.081 139.964 31.0609C141.293 33.9589 140.359 37.4213 137.613 39.089C136.535 39.7437 136.163 40.4463 136.197 41.6682C136.281 44.5295 136.231 47.3937 136.219 50.255C136.211 52.3601 135.443 53.1474 133.33 53.153C127.697 53.17 122.065 53.1615 116.435 53.1615C114.57 53.1615 114.564 53.1615 115.157 54.8603C116.449 58.5569 117.172 62.3777 117.516 66.2633C117.612 67.3413 117.959 67.7391 119.051 67.694C120.925 67.6206 122.807 67.6376 124.681 67.6912C125.575 67.7166 126.111 67.4372 126.597 66.6386C128.29 63.8619 131.304 62.7699 134.25 63.7462C137.043 64.6718 138.883 67.4034 138.714 70.3747C138.544 73.3461 136.352 75.804 133.313 76.4276C130.852 76.9327 128.061 75.7334 126.684 73.4223C126.179 72.573 125.606 72.2626 124.658 72.288C122.782 72.3416 120.902 72.3388 119.026 72.288C118.055 72.2626 117.595 72.5447 117.502 73.6001C117.175 77.3447 116.548 81.0413 115.309 84.6081C114.934 85.6889 115.589 85.6691 116.305 85.6691C119.872 85.6663 123.439 85.6635 127.006 85.6691C129.546 85.6748 130.22 86.3605 130.231 88.9538C130.24 91.1604 130.293 93.3671 130.212 95.571C130.166 96.8154 130.511 97.6083 131.622 98.3251C133.823 99.7445 134.76 101.943 134.377 104.522C133.976 107.203 132.404 109.042 129.771 109.855C126.724 110.798 123.493 109.375 122.056 106.506C120.648 103.687 121.458 100.108 124.116 98.3843C125.31 97.6112 125.739 96.7787 125.637 95.4242C125.533 94.0246 125.595 92.6109 125.618 91.2028C125.629 90.438 125.33 90.0966 124.54 90.0994C121.021 90.1192 117.499 90.1248 113.98 90.0994C113.216 90.0938 112.916 90.5566 112.643 91.1294C111.585 93.3361 110.292 95.4045 108.884 97.4024C107.877 98.833 106.564 99.2281 105.427 98.4662C104.293 97.7043 104.129 96.2849 105.137 94.8627C108.909 89.5294 111.506 83.6882 112.479 77.2205C114.452 64.1159 111.412 52.3291 102.73 42.2015C96.1745 34.5543 87.8755 29.7938 77.9369 28.0471C66.8725 26.1001 56.5897 28.2164 47.1252 34.2778C46.5722 34.6333 46.0473 35.0284 45.4886 35.3755C44.0805 36.2559 42.7852 36.0781 42.029 34.924C41.3264 33.8488 41.6622 32.5649 42.9094 31.6365C44.7605 30.2623 46.7217 29.0545 48.7958 28.0612C49.8427 27.5618 50.2208 26.9269 50.1954 25.7812C50.1277 22.6377 50.1418 19.4913 50.1926 16.3478C50.2095 15.2529 49.8455 14.7929 48.728 14.8889C47.9351 14.9566 47.1309 14.9453 46.3351 14.8889C44.3655 14.7506 42.8699 14.9707 41.5182 16.9573C39.4724 19.9626 34.791 19.9005 32.1808 17.2874C29.4436 14.5474 29.6214 10.2357 32.5758 7.67344C35.3864 5.23537 39.7687 5.62196 41.8794 8.70905C42.7881 10.0381 43.7503 10.4106 45.2261 10.3401C47.2861 10.2413 49.3545 10.2949 51.4201 10.3231C54.05 10.357 54.7837 11.0963 54.7894 13.684C54.7978 17.1576 54.8176 20.6313 54.7752 24.1022C54.7611 25.1604 55.0631 25.4059 56.0818 25.0673C59.6119 23.8906 63.2577 23.2415 66.96 22.9424C67.8714 22.8691 68.1818 22.5276 68.1621 21.6444C68.1226 19.7199 68.1141 17.7954 68.1677 15.8737C68.1931 14.9735 67.8912 14.4459 67.0982 13.9605C64.3074 12.2505 63.2182 9.1154 64.2679 6.15529C65.2358 3.42939 68.2354 1.51336 71.0093 1.84916C74.2403 2.23857 76.6897 4.60892 76.9465 7.84557C77.1525 10.4332 76.0801 12.5439 73.8396 13.8956C72.9761 14.4176 72.7222 15.0159 72.7447 15.9471C72.7927 17.8716 72.7786 19.7961 72.756 21.7206C72.7476 22.5445 73.0777 22.8606 73.9158 22.9227C78.0526 23.2218 82.0963 24.0119 85.9876 25.4595C87.1446 25.8912 87.3252 25.5639 87.3026 24.4747C87.2433 21.5654 87.2829 18.656 87.2829 15.7467L87.2998 15.7383ZM38.7444 12.6314C38.7274 11.5309 37.8414 10.6589 36.7691 10.6843C35.7052 10.7097 34.8248 11.6184 34.8333 12.685C34.8389 13.7517 35.7617 14.6772 36.8029 14.6688C37.7878 14.6603 38.7641 13.636 38.7472 12.6342L38.7444 12.6314ZM104.691 6.52495C104.654 7.54645 105.577 8.48048 106.644 8.50588C107.71 8.53128 108.639 7.65368 108.667 6.59267C108.695 5.5627 107.769 4.61738 106.717 4.59763C105.676 4.57788 104.727 5.48087 104.691 6.52213V6.52495ZM72.3892 8.40712C72.4089 7.29531 71.5737 6.44029 70.4703 6.43465C69.3247 6.429 68.5599 7.2163 68.5599 8.39301C68.5599 9.52174 69.2598 10.2413 70.3829 10.2639C71.5765 10.2865 72.3694 9.5556 72.3892 8.40712ZM134.066 35.6012C135.144 35.573 136.036 34.67 136.002 33.64C135.971 32.6072 135.028 31.755 133.953 31.7861C132.884 31.8171 131.978 32.737 132.015 33.7585C132.051 34.8026 132.971 35.6294 134.066 35.6012ZM129.836 103.52C129.805 102.445 128.908 101.613 127.813 101.638C126.707 101.666 125.967 102.51 126.018 103.698C126.063 104.813 126.794 105.49 127.929 105.47C129.103 105.45 129.87 104.663 129.839 103.52H129.836ZM132.218 71.8873C133.299 71.8619 134.12 70.9702 134.086 69.864C134.049 68.707 133.251 67.9762 132.065 68.0467C130.883 68.1173 130.296 68.7973 130.271 69.9515C130.245 71.052 131.131 71.9127 132.218 71.8844V71.8873Z" fill="black"/>
<path d="M70.4533 63.8785C64.4936 63.8785 58.5339 63.9096 52.5741 63.8532C51.2197 63.839 50.7766 64.299 50.7907 65.6394C50.8472 71.269 50.7682 76.9013 50.8303 82.5309C50.9318 91.9813 58.5762 99.6708 68.0407 99.8316C71.4974 99.8909 74.9655 100.105 78.3432 98.8891C85.1805 96.4257 90.068 89.6758 90.13 82.4096C90.1413 81.1426 90.1018 79.8727 90.1554 78.6086C90.2119 77.2456 91.0895 76.3257 92.3028 76.2439C93.4542 76.1648 94.549 77.0537 94.676 78.3856C95.9882 92.128 87.469 102.273 76.1168 104.084C70.157 105.035 64.0873 105.061 58.5226 102.067C50.6835 97.8507 46.4592 91.2589 46.2278 82.3221C46.0783 76.5543 46.1911 70.778 46.2024 65.0073C46.2081 61.7029 47.7403 59.8292 51.008 59.3015C51.9731 59.1463 52.0916 58.6948 52.1085 57.8962C52.1706 55.0462 51.911 52.1961 52.6221 49.3574C54.5128 41.8118 61.858 34.8898 72.0561 35.5473C80.1097 36.0665 87.3195 42.7232 88.6627 51.0702C89.0154 53.2712 88.8461 55.4695 88.8715 57.6705C88.8828 58.6356 89.021 59.1604 90.1865 59.3354C92.9886 59.753 94.6083 61.7001 94.7296 64.5868C94.8002 66.2263 94.7776 67.8715 94.7296 69.5138C94.6817 71.1307 93.7335 72.1748 92.4157 72.186C91.0274 72.1973 90.1582 71.1391 90.1357 69.3868C90.1187 68.1677 90.1357 66.9459 90.1328 65.7269C90.1244 63.935 90.0821 63.8814 88.3325 63.8814C82.3728 63.8757 76.4131 63.8814 70.4533 63.8814V63.8785ZM84.2747 55.1167C84.2916 55.1167 84.3057 55.1167 84.3227 55.1167C84.2662 53.9457 84.3227 52.7577 84.1336 51.6064C83.0895 45.2459 77.6349 40.5222 71.3225 40.1412C63.3874 39.6615 58.0626 45.61 57.027 50.6441C56.6291 52.5799 56.4796 54.5411 56.5191 56.5135C56.5755 59.4765 55.9745 59.1774 59.3607 59.2197C60.2665 59.231 60.639 58.8952 60.6136 57.9865C60.5769 56.6264 60.5741 55.2635 60.6136 53.9033C60.7857 48.1553 65.1059 43.9479 70.7214 44.0071C75.7838 44.0608 80.4878 48.5306 80.1887 54.0219C80.1435 54.8628 80.1746 55.7121 80.1887 56.5559C80.231 59.4511 79.6977 59.1774 82.9343 59.2197C83.8825 59.231 84.3312 58.9206 84.286 57.9301C84.2409 56.9933 84.2775 56.0536 84.2775 55.1139L84.2747 55.1167ZM70.3969 59.2056C71.805 59.2056 73.2103 59.1887 74.6184 59.214C75.3549 59.2282 75.7753 59.0081 75.7584 58.1841C75.7274 56.6377 75.8346 55.0829 75.7132 53.5421C75.4762 50.4579 73.1877 48.4854 70.1429 48.6124C67.3183 48.7309 65.2894 50.9065 65.2358 53.909C65.2104 55.3171 65.2499 56.7224 65.2245 58.1305C65.2104 58.9093 65.5349 59.231 66.3137 59.214C67.6738 59.183 69.0339 59.2056 70.3941 59.2084L70.3969 59.2056Z" fill="#66C6EB"/>
<path d="M70.3066 90.3098C68.9944 90.3098 67.6766 90.3663 66.3673 90.2957C64.5359 90.197 63.6555 89.1275 63.9123 87.2989C64.1917 85.3039 64.5387 83.3173 64.9169 81.3392C65.0467 80.6535 64.979 80.0863 64.6544 79.4598C63.1335 76.5251 63.7712 73.1446 66.1669 71.1749C68.5514 69.2137 72.0194 69.1009 74.387 70.9097C77.0226 72.9216 77.8381 76.1696 76.382 79.2059C75.97 80.0637 75.8769 80.8623 76.066 81.7794C76.4159 83.4753 76.7093 85.1854 76.9887 86.8982C77.3612 89.1726 76.4385 90.2647 74.1076 90.3155C72.8406 90.3437 71.5736 90.3211 70.3094 90.3211C70.3094 90.3183 70.3094 90.3127 70.3094 90.3098H70.3066ZM70.6678 85.7018C71.7655 85.8936 72.2452 85.4901 71.8784 84.1554C71.5708 83.0295 71.4946 81.8443 71.2491 80.7015C71.0064 79.5699 71.1983 78.6077 71.9433 77.6849C72.7164 76.7255 72.7334 75.6278 71.8135 74.7728C71.0092 74.0222 69.999 74.0278 69.113 74.722C68.1592 75.4698 68.0378 76.6465 68.9465 77.7131C69.7789 78.6923 69.841 79.7223 69.635 80.8708C69.4431 81.9318 69.2597 82.9928 69.0706 84.0538C68.7884 85.6453 68.8421 85.7074 70.6678 85.7074V85.7018Z" fill="#26B2E3"/>
</g>
<defs>
<clipPath id="clip0_935_6110">
<rect width="140.124" height="140" fill="white" transform="translate(0.437866)"/>
</clipPath>
</defs>
</svg>
