<svg width="141" height="141" viewBox="0 0 141 141" fill="none" xmlns="http://www.w3.org/2000/svg">
<g clip-path="url(#clip0_935_6035)">
<path d="M75.9197 0.0200289C78.5783 -0.19627 79.1259 1.55876 79.5065 3.66973C79.9363 6.0408 80.5934 8.36806 81.1383 10.7172C81.2642 11.2648 81.3655 11.8097 82.0445 11.9247C82.6606 12.0287 82.9371 11.5769 83.2301 11.1717C85.0481 8.66376 86.8907 6.17496 88.6594 3.63413C89.2399 2.79906 89.7793 2.54443 90.8087 2.87298C95.2032 4.27208 99.4415 6.02437 103.524 8.16545C104.378 8.61448 104.679 9.08815 104.496 10.0957C103.929 13.1814 103.488 16.2917 103.001 19.3911C102.924 19.8702 102.711 20.3658 103.277 20.7409C103.858 21.1269 104.304 20.8367 104.778 20.5438C107.447 18.89 110.133 17.2582 112.786 15.5771C113.556 15.0898 114.101 15.1117 114.834 15.7167C118.5 18.7422 121.819 22.1017 124.847 25.7623C125.411 26.4441 125.274 26.9506 124.877 27.5858C123.237 30.2115 121.614 32.8481 119.99 35.4848C119.689 35.9749 119.256 36.4349 119.656 37.1002C120.091 37.823 120.705 37.4753 121.247 37.3932C124.305 36.925 127.366 36.4759 130.408 35.9201C131.369 35.7449 131.812 36.057 132.231 36.851C134.403 40.9717 136.174 45.2511 137.57 49.6948C137.88 50.6777 137.622 51.187 136.842 51.7346C134.345 53.4841 131.886 55.2912 129.419 57.0873C128.954 57.4268 128.343 57.7061 128.519 58.4617C128.691 59.2065 129.359 59.19 129.923 59.3242C132.888 60.0306 135.848 60.7644 138.824 61.4242C139.794 61.6405 140.139 62.1142 140.218 63.0971C140.59 67.6914 140.59 72.2747 140.218 76.8663C140.139 77.8547 139.772 78.312 138.808 78.5228C135.788 79.1908 132.784 79.9383 129.773 80.6474C129.236 80.7734 128.664 80.8254 128.516 81.4989C128.365 82.1834 128.883 82.4682 129.321 82.7858C131.79 84.5737 134.241 86.3944 136.752 88.1275C137.639 88.7408 137.88 89.3103 137.537 90.3918C136.149 94.7424 134.403 98.9315 132.3 102.986C131.829 103.895 131.331 104.197 130.268 103.999C127.185 103.424 124.072 102.992 120.973 102.496C120.469 102.414 119.995 102.275 119.653 102.85C119.333 103.389 119.582 103.797 119.853 104.232C121.507 106.904 123.136 109.59 124.82 112.241C125.334 113.051 125.315 113.615 124.666 114.395C121.718 117.947 118.465 121.175 114.93 124.14C114.106 124.83 113.517 124.838 112.663 124.29C110.095 122.645 107.483 121.068 104.887 119.463C104.386 119.154 103.91 118.768 103.269 119.206C102.645 119.633 102.952 120.192 103.028 120.696C103.505 123.798 103.965 126.902 104.52 129.991C104.682 130.892 104.386 131.322 103.642 131.713C99.4799 133.903 95.1648 135.708 90.6718 137.104C89.7464 137.392 89.2536 137.142 88.7389 136.411C86.9564 133.879 85.1275 131.382 83.3095 128.874C82.9946 128.441 82.729 127.902 82.0418 128.017C81.2779 128.146 81.2505 128.789 81.1136 129.361C80.4072 132.326 79.668 135.286 79.0054 138.262C78.7809 139.273 78.31 139.659 77.2559 139.741C72.7519 140.086 68.2617 140.121 63.7577 139.749C62.6708 139.659 62.1341 139.327 61.8959 138.235C61.2361 135.212 60.4749 132.211 59.763 129.2C59.6453 128.701 59.5604 128.195 58.9718 128.039C58.2955 127.861 57.9861 128.348 57.663 128.794C55.8478 131.302 54.0024 133.788 52.2364 136.332C51.645 137.184 51.0837 137.378 50.0762 137.058C45.7255 135.672 41.531 133.931 37.4815 131.825C36.6027 131.368 36.2057 130.916 36.4137 129.821C36.9887 126.785 37.4158 123.718 37.8868 120.66C37.9662 120.151 38.2509 119.595 37.6075 119.187C36.9504 118.771 36.4849 119.187 35.9921 119.491C33.3965 121.093 30.7818 122.667 28.219 124.321C27.3347 124.89 26.7542 124.781 25.9547 124.115C22.4447 121.188 19.2467 117.971 16.3007 114.48C15.5615 113.604 15.6107 112.983 16.183 112.093C17.8093 109.566 19.359 106.992 20.9361 104.432C21.24 103.937 21.6671 103.468 21.2372 102.819C20.8238 102.195 20.2406 102.483 19.7451 102.557C16.6402 103.019 13.5381 103.485 10.4469 104.035C9.55437 104.194 9.1163 103.915 8.7193 103.167C6.51524 99.0109 4.73009 94.6877 3.32004 90.2002C3.02982 89.2802 3.27076 88.7819 4.00727 88.2644C6.53988 86.482 9.0369 84.6503 11.5421 82.8323C11.9747 82.5174 12.5223 82.2573 12.4073 81.5701C12.2814 80.8117 11.6462 80.7679 11.0712 80.631C8.28122 79.9684 5.51041 79.2237 2.70127 78.6569C1.25836 78.3667 0.480782 77.7835 0.675177 76.2284C0.708032 75.9765 0.565659 75.7027 0.502686 75.4371C0.502686 71.7929 0.502686 68.1514 0.502686 64.5072C0.565659 64.2443 0.71077 63.9678 0.677915 63.7186C0.478044 62.1635 1.25562 61.583 2.69853 61.2928C5.50493 60.726 8.27849 59.984 11.0657 59.3105C11.638 59.1736 12.2786 59.1024 12.4073 58.3604C12.5251 57.6732 11.9583 57.4186 11.5284 57.1065C9.02321 55.2885 6.52619 53.4568 3.99084 51.6798C3.24338 51.1541 3.04625 50.6449 3.32826 49.7359C4.71093 45.2867 6.50976 41.0182 8.65906 36.8894C9.11082 36.0214 9.60092 35.7559 10.5975 35.9393C13.6394 36.4951 16.7004 36.9387 19.7587 37.3932C20.257 37.4671 20.8375 37.7518 21.2455 37.1194C21.6671 36.465 21.2345 35.9995 20.9306 35.5067C19.3782 32.9878 17.8613 30.4442 16.2432 27.9691C15.597 26.9807 15.5916 26.3209 16.402 25.3626C19.3179 21.9045 22.4967 18.7312 25.963 15.829C26.7652 15.1555 27.3538 15.0733 28.23 15.6346C30.8338 17.3075 33.4841 18.9065 36.1153 20.5383C36.5862 20.8285 37.027 21.1379 37.6157 20.7573C38.1852 20.3904 37.9881 19.8976 37.9114 19.4157C37.424 16.3164 36.9942 13.206 36.4137 10.1231C36.2057 9.0197 36.6136 8.57889 37.4898 8.12438C41.5392 6.01616 45.7283 4.26934 50.0816 2.89215C51.0919 2.57181 51.6505 2.7662 52.2419 3.62044C54.0051 6.16401 55.8505 8.65281 57.6658 11.158C57.9587 11.5605 58.2216 12.0369 58.8404 11.9301C59.5139 11.8152 59.6289 11.2621 59.7603 10.72C60.3654 8.19831 60.9732 5.67665 61.5838 3.15499C62.0054 1.40817 63.1043 0.407906 64.8803 0.154189C65.0117 0.135023 65.1377 0.0665741 65.2663 0.0227668C68.8175 0.0227668 72.3713 0.0227668 75.9225 0.0227668L75.9197 0.0200289ZM99.4306 12.0917C99.7016 11.3415 99.102 11.0978 98.5517 10.8651C96.5393 10.0163 94.5105 9.20588 92.5035 8.34068C91.6438 7.97106 91.1017 8.16819 90.5623 8.94577C88.9031 11.3415 87.1344 13.6605 85.4834 16.059C84.8564 16.968 84.2267 17.3212 83.1069 16.9954C81.8009 16.6148 80.4456 16.3848 79.0958 16.1931C78.0115 16.0371 77.4366 15.5662 77.2011 14.4436C76.6261 11.6837 75.8923 8.95399 75.3037 6.19686C75.0792 5.14822 74.6685 4.66908 73.5103 4.64444C71.5089 4.60063 69.5184 4.5404 67.5142 4.63896C66.3533 4.69646 65.8331 5.06882 65.5949 6.21603C65.0227 8.97863 64.2779 11.7029 63.6975 14.4628C63.462 15.5881 62.8761 16.0535 61.7891 16.2041C60.4859 16.3875 59.1853 16.6449 57.9122 16.9872C56.7951 17.2883 56.0723 17.0392 55.3987 16.048C53.7916 13.6742 52.042 11.3962 50.4074 9.03886C49.8599 8.24759 49.3287 7.92725 48.3786 8.34342C46.3799 9.22231 44.3538 10.0437 42.3277 10.8623C41.5721 11.169 41.3558 11.6125 41.5036 12.4476C42.0402 15.4922 42.4537 18.5615 42.9931 21.6061C43.1491 22.4795 42.8808 22.9586 42.1799 23.3995C40.8684 24.2208 39.5597 25.0532 38.3248 25.9841C37.5336 26.5837 36.9093 26.5235 36.1153 26.0197C33.58 24.4043 30.9953 22.871 28.4627 21.2584C27.7152 20.782 27.154 20.8176 26.5407 21.4446C25.043 22.9723 23.5371 24.4946 21.9957 25.9759C21.2674 26.6768 21.2783 27.2874 21.8149 28.1224C23.4386 30.6496 24.9663 33.2397 26.579 35.775C27.039 36.4978 27.0253 37.0564 26.5215 37.7491C25.5879 39.0387 24.7035 40.3666 23.8712 41.7246C23.4276 42.4447 22.9594 42.6802 22.0887 42.5214C19.0907 41.9792 16.068 41.5768 13.0672 41.0429C12.1472 40.8786 11.627 41.073 11.2793 41.9655C10.5181 43.915 9.72413 45.8535 8.87262 47.7673C8.40717 48.8104 8.7193 49.3882 9.62556 50.0069C12.0678 51.6771 14.4225 53.4732 16.8428 55.1762C17.5465 55.6718 17.7299 56.1947 17.53 57.0216C17.1768 58.4782 16.8784 59.9539 16.6649 61.4379C16.5115 62.4975 15.9995 62.9985 14.9564 63.2203C12.1527 63.8199 9.37914 64.5482 6.57821 65.1506C5.56517 65.3696 5.17364 65.8269 5.13257 66.8892C5.05043 68.9372 5.01758 70.9715 5.11888 73.0222C5.17638 74.1667 5.60898 74.5965 6.66583 74.821C9.4695 75.4179 12.2458 76.1435 15.044 76.7513C16.0379 76.9676 16.4978 77.4823 16.6512 78.468C16.8811 79.9492 17.1632 81.4277 17.5218 82.8843C17.7409 83.7714 17.5136 84.3081 16.7662 84.8283C14.3376 86.5203 11.9829 88.3137 9.54616 89.9921C8.6837 90.5862 8.42907 91.1694 8.85619 92.1414C9.69675 94.0579 10.4908 95.9964 11.2629 97.9431C11.5996 98.7919 12.0623 99.0903 13.0234 98.9151C15.9749 98.3784 18.9565 97.9896 21.908 97.453C22.8663 97.2805 23.4303 97.4886 23.9287 98.3264C24.698 99.616 25.5386 100.867 26.4339 102.072C27.0034 102.839 27.0472 103.46 26.5188 104.279C24.9417 106.729 23.4906 109.259 21.8834 111.688C21.2126 112.701 21.3413 113.371 22.1709 114.157C23.5919 115.502 24.98 116.887 26.3244 118.311C27.0855 119.118 27.7399 119.181 28.6872 118.565C31.1267 116.972 33.6457 115.504 36.1016 113.938C36.8874 113.437 37.5117 113.35 38.3111 113.955C39.5432 114.888 40.8547 115.718 42.1635 116.539C42.8616 116.977 43.1519 117.446 42.9931 118.327C42.4619 121.281 42.0786 124.263 41.5282 127.212C41.3174 128.337 41.6761 128.877 42.6864 129.26C44.5154 129.955 46.3224 130.708 48.113 131.5C49.1507 131.957 49.8106 131.803 50.4841 130.796C52.0831 128.417 53.8655 126.16 55.4809 123.792C56.0997 122.886 56.7595 122.672 57.7725 122.93C59.0922 123.264 60.4338 123.548 61.7837 123.737C62.8761 123.891 63.4538 124.359 63.6893 125.481C64.2779 128.285 65.0145 131.059 65.6141 133.862C65.8331 134.889 66.3095 135.242 67.3609 135.297C69.4554 135.409 71.5363 135.379 73.6281 135.294C74.6657 135.253 75.0545 134.823 75.2599 133.892C75.8869 131.05 76.6015 128.225 77.223 125.38C77.4393 124.392 77.9486 123.924 78.9397 123.77C80.4209 123.543 81.9022 123.264 83.356 122.905C84.2459 122.686 84.7798 122.911 85.3 123.658C87.0441 126.161 88.873 128.603 90.6308 131.097C91.099 131.762 91.5781 131.979 92.3502 131.65C94.4037 130.779 96.4681 129.939 98.5353 129.101C99.2663 128.805 99.5565 128.4 99.3977 127.538C98.883 124.767 98.5243 121.963 97.9931 119.195C97.7193 117.766 97.9603 116.794 99.3703 116.107C100.466 115.573 101.468 114.82 102.431 114.064C103.269 113.407 103.951 113.366 104.871 113.968C107.269 115.54 109.772 116.953 112.159 118.538C113.172 119.212 113.846 119.083 114.629 118.256C115.973 116.835 117.359 115.447 118.78 114.103C119.585 113.341 119.656 112.69 119.034 111.74C117.441 109.303 115.971 106.781 114.404 104.325C113.901 103.537 113.824 102.91 114.424 102.116C115.355 100.884 116.192 99.5749 117.014 98.2662C117.452 97.5707 117.912 97.2723 118.796 97.4284C121.841 97.9677 124.907 98.3839 127.955 98.9041C128.836 99.0547 129.304 98.7672 129.622 97.965C130.411 95.9772 131.226 93.9977 132.067 92.0319C132.431 91.1804 132.267 90.6355 131.478 90.0879C128.973 88.3493 126.531 86.5176 124.039 84.7571C123.401 84.3053 123.155 83.8454 123.347 83.0431C123.714 81.4962 124.009 79.9273 124.258 78.3558C124.409 77.3947 124.929 76.9703 125.835 76.7677C128.634 76.1435 131.413 75.4289 134.214 74.832C135.262 74.6075 135.733 74.1995 135.771 73.0441C135.832 71.0892 135.859 69.1453 135.793 67.1849C135.747 65.8022 135.24 65.3066 133.951 65.052C131.229 64.5126 128.549 63.7789 125.835 63.1875C124.844 62.9712 124.382 62.4592 124.234 61.4653C124.034 60.1182 123.776 58.7711 123.432 57.4542C123.139 56.3453 123.352 55.6197 124.357 54.9407C126.772 53.3116 129.077 51.521 131.473 49.8646C132.264 49.317 132.426 48.7666 132.067 47.9179C131.322 46.1574 130.531 44.4105 129.92 42.6008C129.419 41.114 128.554 40.8594 127.128 41.1359C124.36 41.6726 121.559 42.0176 118.785 42.5241C117.898 42.6856 117.441 42.3735 117.006 41.6808C116.181 40.3721 115.349 39.0633 114.418 37.8285C113.816 37.029 113.909 36.4048 114.41 35.619C115.976 33.163 117.444 30.6414 119.04 28.2046C119.664 27.2518 119.574 26.6001 118.774 25.8417C117.32 24.4645 115.905 23.0435 114.522 21.5951C113.802 20.8422 113.175 20.7546 112.272 21.3432C109.829 22.9313 107.308 24.3961 104.86 25.9759C104.017 26.5207 103.365 26.581 102.535 25.9567C101.301 25.0285 100 24.177 98.6776 23.3748C97.9356 22.9258 97.7522 22.4384 97.9028 21.5842C98.4559 18.4492 98.9158 15.2978 99.4196 12.0917H99.4306Z" fill="black"/>
<path d="M44.1349 69.8841C44.1349 65.7415 44.1705 61.599 44.1157 57.4592C44.0966 56.0546 44.6332 55.1621 45.8516 54.5022C53.5343 50.3405 61.2006 46.1542 68.8641 41.9541C69.973 41.3463 70.9943 41.371 72.0922 41.9733C79.7557 46.1706 87.4247 50.3542 95.102 54.5241C96.2574 55.1511 96.7995 56.0163 96.794 57.3716C96.7584 65.7908 96.7612 74.2128 96.7913 82.632C96.7968 83.927 96.293 84.784 95.1841 85.3891C87.4302 89.6083 79.6818 93.8384 71.9334 98.0686C70.9258 98.6189 69.9538 98.5888 68.949 98.0412C61.2417 93.8275 53.5343 89.622 45.816 85.4329C44.6578 84.8032 44.1048 83.9435 44.1185 82.5882C44.165 78.3553 44.1349 74.1224 44.1376 69.8895L44.1349 69.8841ZM68.1824 81.7914C68.1824 78.6975 68.166 75.6064 68.1933 72.5125C68.1988 71.7513 67.9852 71.2503 67.2761 70.867C61.4771 67.7293 55.6891 64.5697 49.9147 61.3882C49.0577 60.9172 48.6607 60.8461 48.6662 62.059C48.7045 68.2002 48.6936 74.3387 48.6717 80.48C48.669 81.2931 48.8962 81.8133 49.6546 82.2213C55.418 85.3316 61.1568 88.483 66.9065 91.618C68.1577 92.2997 68.1769 92.2833 68.1824 90.7966C68.1879 87.7958 68.1824 84.7922 68.1851 81.7914H68.1824ZM92.2299 71.3434C92.2299 68.3426 92.2326 65.339 92.2299 62.3382C92.2271 60.7475 92.2216 60.7475 90.7705 61.5415C85.144 64.6162 79.5257 67.7046 73.8801 70.7438C73.0532 71.1901 72.7055 71.7021 72.711 72.6549C72.7493 78.7496 72.7548 84.8443 72.711 90.939C72.7027 92.234 73.1025 92.1519 74.0197 91.6453C79.7119 88.5049 85.4178 85.3864 91.1401 82.298C91.9205 81.8763 92.2572 81.3862 92.2463 80.4882C92.2025 77.4408 92.2299 74.3935 92.2299 71.3461V71.3434ZM89.2838 56.7309C89.0894 56.6022 88.8786 56.4379 88.6486 56.312C82.8989 53.1688 77.1437 50.0366 71.3995 46.8852C70.7834 46.5484 70.2386 46.4964 69.6061 46.8441C63.8208 50.0147 58.0273 53.1743 52.2283 56.3202C51.5164 56.7063 51.4507 56.9664 52.2119 57.3771C58.0519 60.5449 63.881 63.7291 69.7129 66.9161C70.2441 67.2063 70.7342 67.1899 71.2626 66.9024C77.0917 63.7154 82.9263 60.5394 88.7581 57.3552C88.9854 57.232 89.2838 57.1526 89.2893 56.7309H89.2838Z" fill="#26B2E3"/>
<path d="M70.3974 30.7091C68.9189 30.7091 68.1806 29.9215 68.1824 28.3462C68.1824 26.8896 68.9819 26.1622 70.5808 26.1641C72.0155 26.1641 72.732 26.9745 72.7301 28.5954C72.7301 30.0063 71.9535 30.7109 70.4001 30.7091H70.3974Z" fill="#66C6EB"/>
<path d="M55.2427 32.8221C55.2409 34.3317 54.4204 35.0855 52.7813 35.0837C51.3849 35.0837 50.6876 34.2066 50.6895 32.4525C50.6913 31.1712 51.4424 30.5314 52.9428 30.5332C54.4761 30.535 55.2418 31.298 55.2399 32.8221H55.2427Z" fill="#66C6EB"/>
<path d="M90.2174 32.7181C90.2174 34.2933 89.479 35.081 88.0024 35.081C86.449 35.081 85.6724 34.3308 85.6724 32.8304C85.6724 31.2989 86.4335 30.5332 87.9558 30.5332C89.4781 30.5332 90.232 31.2606 90.2174 32.7154V32.7181Z" fill="#66C6EB"/>
<path d="M39.9622 39.2812C41.4042 39.2812 42.1243 40.0424 42.1225 41.5647C42.1143 44.1083 42.2703 43.8098 39.5324 43.8263C37.5747 43.8372 37.5747 43.8263 37.5775 41.3402C37.5775 39.9676 38.3724 39.2822 39.9622 39.284V39.2812Z" fill="#66C6EB"/>
<path d="M100.991 43.827C99.5219 43.827 98.7872 43.0349 98.7872 41.4505C98.7872 40.003 99.5904 39.2793 101.197 39.2793C102.622 39.2793 103.334 40.0943 103.332 41.7243C103.33 43.1261 102.55 43.827 100.991 43.827Z" fill="#66C6EB"/>
<path d="M31.1432 52.3965C32.6363 52.4001 33.382 53.1823 33.3801 54.7429C33.3783 56.2141 32.5387 56.9488 30.8612 56.947C29.4995 56.9451 28.8223 56.0489 28.8296 54.2583C28.8333 53.0153 29.6045 52.3956 31.1432 52.3992V52.3965Z" fill="#66C6EB"/>
<path d="M107.532 54.6416C107.532 53.1449 108.311 52.3965 109.868 52.3965C111.343 52.3965 112.079 53.1859 112.077 54.7648C112.077 56.2178 111.276 56.9433 109.673 56.9415C108.246 56.9415 107.532 56.174 107.532 54.6389V54.6416Z" fill="#66C6EB"/>
<path d="M28.9884 67.7012C30.4596 67.7012 31.1943 68.4924 31.1925 70.075C31.1925 71.5243 30.3894 72.248 28.7831 72.2462C27.3557 72.2462 26.6438 71.4321 26.6475 69.8039C26.6493 68.4003 27.4296 67.6994 28.9884 67.7012Z" fill="#66C6EB"/>
<path d="M111.979 72.2466C109.717 72.2466 109.712 72.2466 109.72 70.0617C109.734 67.4141 109.512 67.7208 112.346 67.7016C114.268 67.6907 114.268 67.7016 114.262 70.226C114.26 71.5731 113.498 72.2466 111.976 72.2466H111.979Z" fill="#66C6EB"/>
<path d="M33.3773 85.3312C33.3773 86.8097 32.6354 87.5489 31.1514 87.5489C29.6035 87.5489 28.8296 86.796 28.8296 85.2901C28.8296 83.7842 29.6857 83.0222 31.3978 83.0039C32.7175 83.0039 33.3773 83.7806 33.3773 85.3339V85.3312Z" fill="#66C6EB"/>
<path d="M109.895 83.0008C111.355 83.0044 112.084 83.8039 112.08 85.3992C112.076 86.8376 111.219 87.554 109.509 87.5485C108.188 87.5449 107.528 86.676 107.53 84.942C107.531 83.6424 108.32 82.9944 109.895 82.9981V83.0008Z" fill="#66C6EB"/>
<path d="M39.7815 100.663C38.3103 100.663 37.5756 99.9164 37.5774 98.4233C37.5774 96.8846 38.4262 96.1152 40.1237 96.1152C41.458 96.1152 42.1242 96.9302 42.1224 98.5602C42.1224 99.9621 41.3421 100.662 39.7815 100.66V100.663Z" fill="#66C6EB"/>
<path d="M100.947 100.666C99.5018 100.662 98.7808 99.8553 98.7844 98.2454C98.7881 96.8198 99.6524 96.1098 101.377 96.1153C102.686 96.1189 103.339 96.9942 103.335 98.741C103.333 100.026 102.537 100.667 100.947 100.663V100.666Z" fill="#66C6EB"/>
<path d="M50.6922 107.109C50.7059 104.579 50.5443 104.885 53.3015 104.866C55.2399 104.853 55.2399 104.866 55.2372 107.371C55.2354 108.735 54.3884 109.415 52.6964 109.411C51.3566 109.408 50.6876 108.64 50.6895 107.109H50.6922Z" fill="#66C6EB"/>
<path d="M87.8409 109.412C86.3916 109.412 85.6679 108.562 85.6697 106.863C85.6697 105.527 86.3934 104.86 87.8409 104.861C89.4271 104.861 90.2193 105.597 90.2174 107.068C90.2174 108.631 89.4243 109.412 87.8381 109.412H87.8409Z" fill="#66C6EB"/>
<path d="M72.7273 111.419C72.7273 112.995 71.9889 113.782 70.5123 113.782C68.1795 113.782 68.1741 113.782 68.1823 111.669C68.1932 109.024 67.9605 109.248 70.5999 109.237C72.7245 109.229 72.7245 109.237 72.7245 111.417L72.7273 111.419Z" fill="#66C6EB"/>
</g>
<defs>
<clipPath id="clip0_935_6035">
<rect width="140" height="140.016" fill="white" transform="translate(0.5)"/>
</clipPath>
</defs>
</svg>
