<svg width="123" height="150" viewBox="0 0 123 150" fill="none" xmlns="http://www.w3.org/2000/svg">
<g clip-path="url(#clip0_932_6001)">
<path d="M49.7693 0.276751C56.9061 3.61232 65.8429 1.82496 74.9056 0.201229C81.1362 -0.91902 85.6046 2.79416 89.1668 7.46396C92.1373 11.366 95.5358 14.7141 100.344 16.0735C109.646 18.7042 114.102 24.9977 114.303 34.3751C114.416 39.8127 116.141 44.4951 119.237 48.8628C124.008 55.5843 123.945 62.4694 119.262 69.1783C116.065 73.76 114.379 78.6186 114.328 84.2954C114.24 92.9553 109.847 98.9341 101.54 101.477C96.4043 103.05 95.8127 105.794 97.6504 110.376C100.659 117.903 103.315 125.581 106.059 133.221C106.826 135.361 107.833 137.652 105.895 139.666C103.982 141.667 101.477 141.063 99.463 140.119C91.7849 136.494 86.4983 138.583 82.8481 146.136C81.8914 148.112 80.2299 150.226 77.5993 150.012C74.528 149.748 73.9616 146.903 73.1183 144.613C70.0093 136.23 67.0261 127.796 63.9171 119.401C63.4388 118.104 63.0738 116.241 61.299 116.304C59.5494 116.367 59.3228 118.268 58.8445 119.564C55.7229 127.947 52.702 136.368 49.5805 144.751C48.8001 146.866 48.2336 149.408 45.5778 149.899C42.5065 150.478 41.3108 147.86 39.8255 145.909C38.8185 144.587 37.7486 143.253 37.0312 141.78C35.0927 137.828 32.3614 137.438 28.3083 138.621C24.7462 139.666 20.5043 142.989 17.1939 139.59C13.5563 135.852 17.6345 131.799 18.7547 128.061C20.668 121.692 23.0343 115.448 25.5392 109.281C27.0496 105.568 26.2692 103.088 22.5183 102.005C11.6556 98.8586 8.20679 90.8281 8.18161 80.557C8.18161 76.29 6.06699 72.967 3.85166 69.7322C-1.06988 62.5324 -1.46008 55.2822 3.80131 48.309C7.71589 43.1357 8.2949 37.2072 8.81096 31.2409C9.42773 24.167 13.1661 19.5853 19.5477 17.2945C25.8413 15.0288 30.8509 11.4163 34.8536 6.04163C38.0129 1.7872 42.4939 -0.264493 49.7693 0.276751ZM74.1882 110.3C77.9517 110.665 80.6453 108.865 82.8229 106.134C87.3291 100.47 92.8422 96.2657 99.7525 93.8993C104.447 92.2882 106.763 88.7386 106.575 83.8422C106.31 77.0578 108.576 71.1167 112.39 65.7798C115.763 61.0597 115.839 56.7045 112.428 52.0725C108.5 46.723 106.411 40.7442 106.6 34.0227C106.738 28.799 104.246 25.3124 99.2616 23.7264C92.9177 21.7125 87.5934 18.1756 83.7543 12.7631C80.3307 7.92968 75.8371 7.02342 70.5757 8.57162C64.6346 10.3086 58.7816 10.4849 52.8027 8.60939C47.3525 6.91013 42.6072 7.94227 38.9822 12.826C34.8914 18.3392 29.3908 21.9894 22.8833 24.0663C18.2513 25.539 16.0234 28.8116 16.1492 33.4059C16.3632 40.5931 14.2486 46.9496 10.0445 52.6263C6.87256 56.9059 6.93549 61.0093 10.0319 65.2134C14.1101 70.7391 16.1618 76.869 16.1492 83.8171C16.1492 88.512 18.1002 92.3889 22.9588 93.9245C29.9698 96.1398 35.4074 100.394 39.8632 106.109C42.0156 108.878 44.8477 110.879 48.4728 109.998C57.0823 107.921 65.629 106.738 74.1882 110.3ZM43.7401 138.42C46.1819 131.862 48.0197 126.827 49.9455 121.805C50.965 119.136 50.2602 117.852 47.2896 117.978C42.8464 118.167 39.2087 116.355 36.1878 113.258C34.2242 111.244 32.8397 111.005 31.7949 114.039C30.2467 118.545 28.5601 123.013 26.9867 127.507C26.3573 129.294 26.3951 131.547 28.8999 130.44C36.427 127.091 39.9514 131.774 43.7401 138.42ZM78.581 137.564C82.7851 134.493 83.3012 128.363 89.6073 129.521C96.9078 130.855 96.9456 130.628 94.3275 123.34C93.8366 121.981 93.3834 120.596 92.9051 119.237C91.1765 114.295 88.0465 113.158 83.5152 115.826C82.8103 116.241 81.9418 116.455 81.325 116.959C78.7699 119.023 73.5085 116.015 72.9169 120.206C72.4763 123.315 74.7923 126.827 75.9252 130.137C76.7182 132.466 77.5867 134.757 78.5936 137.564H78.581Z" fill="black"/>
<path d="M104.687 59.2481C104.636 83.0124 84.9249 102.913 61.5633 102.774C37.4339 102.636 17.8988 83.0754 17.924 59.0467C17.9366 34.9676 37.4213 15.3696 61.4878 15.2059C85.1515 15.0549 104.737 35.018 104.687 59.2355V59.2481ZM25.6902 58.7949C25.6147 79.1482 41.1597 94.945 61.3619 95.0205C81.0229 95.096 97.0337 79.2992 97.3861 59.4872C97.7385 39.5871 81.6649 23.1484 61.7521 23.0477C41.3611 22.947 25.7783 38.3913 25.7028 58.7949H25.6902Z" fill="black"/>
<path d="M36.3388 54.3892C36.1374 43.086 46.9623 35.9114 56.9564 40.984C60.0528 42.5574 62.3563 43.1112 65.4779 41.0721C70.6386 37.7113 75.8874 38.7561 80.6201 42.2427C85.1892 45.6034 87.0017 50.3613 86.3598 55.9374C85.164 66.3973 73.3825 79.236 63.0737 81.401C62.0794 81.615 60.9969 81.6528 59.9899 81.4891C49.6182 79.8151 36.515 64.7735 36.3388 54.3892ZM78.9586 53.3696C78.7446 50.9026 77.3852 48.36 74.3643 47.2649C71.3183 46.1573 68.3729 47.1265 66.5604 49.6816C62.822 54.9556 59.927 54.3137 55.9369 49.6439C51.8461 44.8608 45.2505 46.6859 43.8533 52.4256C42.1289 59.5121 54.4768 74.0502 61.7647 73.5215C68.3603 73.0432 79.2104 60.7834 78.9586 53.3696Z" fill="#26B2E3"/>
</g>
<defs>
<clipPath id="clip0_932_6001">
<rect width="122.787" height="150" fill="white"/>
</clipPath>
</defs>
</svg>
