<svg width="141" height="141" viewBox="0 0 141 141" fill="none" xmlns="http://www.w3.org/2000/svg">
<g clip-path="url(#clip0_351_1718)">
<path d="M140.987 99.2876C140.987 109.249 140.971 119.213 141 129.175C141.007 131.552 139.855 133.199 137.962 134.413C135.269 136.14 132.214 136.838 129.116 137.348C121.281 138.636 113.481 138.518 105.749 136.618C103.684 136.112 101.654 135.449 99.918 134.162C98.0926 132.81 97.2086 131.128 97.4447 128.7C97.7001 126.077 97.6075 123.401 97.4447 120.762C97.3618 119.424 97.6203 118.133 97.5628 116.811C97.3107 110.998 97.4607 105.173 97.4575 99.3609C97.4575 94.6639 97.4894 89.9509 97.4894 85.2507C97.4894 79.757 97.7926 74.2538 97.3618 68.757C97.2309 67.0744 98.3192 65.7743 99.6372 64.7673C101.313 63.4895 103.259 62.7662 105.27 62.2563C114.368 59.9556 123.515 59.774 132.687 61.772C134.716 62.2149 136.641 62.9829 138.332 64.2447C140.116 65.5767 141 67.3262 140.997 69.56C140.984 79.4702 140.991 89.3773 140.991 99.2876H140.984H140.987ZM119.353 102.152C123.671 102.216 128.2 101.831 132.594 100.463C135.358 99.6031 135.549 99.2271 135.505 96.4229C135.486 95.2438 135.109 95.1164 134.072 95.4542C129.703 96.8722 125.171 97.347 120.608 97.4458C115.131 97.5637 109.706 97.1176 104.421 95.5434C103.856 95.3745 103.307 95.1164 103.074 96.0246C102.5 98.2679 103.122 99.5649 105.305 100.311C109.776 101.834 114.41 102.197 119.353 102.152ZM119.644 122.502C122.353 122.62 125.516 122.33 128.65 121.779C130.003 121.54 131.346 121.205 132.655 120.791C135.339 119.946 135.511 119.589 135.505 116.862C135.505 115.622 135.144 115.495 134.002 115.816C124.625 118.471 115.189 118.461 105.736 116.256C102.88 115.59 102.892 115.571 103.026 118.512C103.087 119.835 103.968 120.188 104.919 120.526C109.527 122.167 114.314 122.55 119.641 122.499L119.644 122.502ZM119.012 91.9776C123.745 92.0095 128.436 91.6972 132.955 90.1262C135.454 89.2562 135.479 89.1288 135.502 86.4839C135.511 85.324 135.364 84.8938 133.995 85.2858C124.622 87.9561 115.182 87.9306 105.726 85.7287C102.873 85.0627 102.905 85.0372 103.033 87.9912C103.09 89.32 103.977 89.6641 104.928 90.0019C109.486 91.6239 114.218 92.019 119.012 91.9808V91.9776ZM119.258 112.324C123.681 112.416 128.203 111.98 132.601 110.638C135.342 109.8 135.543 109.399 135.505 106.598C135.489 105.412 135.106 105.294 134.072 105.629C129.598 107.085 124.964 107.544 120.292 107.627C114.921 107.723 109.601 107.273 104.427 105.709C103.425 105.406 103.103 105.667 103.042 106.684C102.883 109.453 103.062 109.787 105.761 110.645C110.102 112.021 114.576 112.384 119.258 112.327V112.324ZM119.325 132.686C123.69 132.75 128.27 132.364 132.709 130.959C135.367 130.118 135.546 129.745 135.502 126.995C135.482 125.899 135.214 125.606 134.101 125.969C129.578 127.447 124.89 127.9 120.164 127.986C114.844 128.082 109.588 127.6 104.456 126.09C103.914 125.931 103.339 125.612 103.081 126.53C102.468 128.7 103.135 130.092 105.273 130.828C109.741 132.368 114.372 132.718 119.318 132.686H119.325ZM119.325 81.7996C123.725 81.8602 128.308 81.4746 132.754 80.0566C135.339 79.2313 135.476 78.9094 135.511 76.5354C135.533 75.0696 135.039 74.8593 133.708 75.2576C129.518 76.5099 125.193 76.9815 120.834 77.0931C115.297 77.2333 109.814 76.7808 104.469 75.2066C103.926 75.0473 103.349 74.7222 103.087 75.64C102.474 77.7941 103.151 79.209 105.286 79.9451C109.76 81.4842 114.4 81.8347 119.325 81.7996ZM120.008 65.9559C115.275 65.8508 110.325 66.2587 105.532 67.836C104.893 68.0463 103.856 68.1706 103.837 68.792C103.811 69.6333 104.903 69.6492 105.557 69.8595C111.729 71.8416 118.086 71.8575 124.456 71.4337C127.364 71.2393 130.261 70.825 133.019 69.799C133.682 69.5536 134.796 69.4994 134.819 68.741C134.844 67.8424 133.705 67.7659 133 67.5174C128.883 66.0707 124.597 65.8795 120.008 65.9528V65.9559Z" fill="black"/>
<path d="M0.0444988 78.9668C0.0444988 69.1649 0.121091 59.3598 -0.000179982 49.561C-0.0384761 46.5306 1.30508 44.676 3.81029 43.3631C7.11652 41.6328 10.7195 40.9763 14.3577 40.5493C21.4169 39.7208 28.4411 39.9598 35.3663 41.6901C37.4375 42.2064 39.4257 42.952 41.1618 44.2267C42.6968 45.3547 43.5585 46.7982 43.5521 48.8058C43.4915 65.4429 43.4787 82.0769 43.45 98.7141C43.4436 101.894 43.3893 105.074 43.4596 108.252C43.5202 110.976 42.3617 112.917 40.0512 114.261C37.3896 115.813 34.4568 116.54 31.4633 117.011C23.686 118.245 15.9374 118.181 8.25583 116.259C6.34102 115.781 4.50919 115.09 2.8465 114.003C0.989137 112.796 0.00620271 111.177 0.0189681 108.851C0.0764123 98.8893 0.0444988 88.9281 0.0444988 78.9668ZM21.5605 71.6185C26.2518 71.6886 30.8857 71.2712 35.3631 69.7894C37.8938 68.9514 37.98 68.6996 37.9832 66.0197C37.9832 64.9044 37.8013 64.4933 36.5471 64.9076C32.1813 66.3511 27.6401 66.8036 23.0732 66.912C17.4852 67.0458 11.9546 66.5837 6.58037 64.8853C6.06338 64.7228 5.34851 64.3308 5.34213 65.3888C5.31979 68.6327 4.90811 68.7251 7.92393 69.7926C12.328 71.3477 16.9267 71.6632 21.5605 71.6185ZM21.4201 81.7933C26.2199 81.8602 30.8027 81.4492 35.2386 80.0088C37.8875 79.1484 37.9736 78.9063 37.9864 76.169C37.9896 75.0027 37.7407 74.684 36.5311 75.0855C32.2164 76.5227 27.7294 76.9688 23.2137 77.0835C17.5171 77.2269 11.8748 76.7808 6.41442 74.99C5.69956 74.7541 5.37724 74.8784 5.31341 75.7356C5.09321 78.6163 5.41553 79.1835 8.23668 80.0917C12.5769 81.4874 17.0544 81.857 21.4201 81.7933ZM21.835 91.9713C26.2167 92.0573 30.742 91.6175 35.1333 90.2314C37.8843 89.3615 38.0534 88.9727 37.9896 86.143C37.9641 85.0341 37.6002 84.9225 36.6428 85.238C32.2196 86.6943 27.6337 87.1595 23.0126 87.2679C17.4214 87.3985 11.8844 86.9524 6.52612 85.203C5.56872 84.8907 5.34213 85.187 5.31341 86.1239C5.22724 88.9663 5.42511 89.3583 8.13137 90.2409C12.5163 91.6717 17.0512 92.0382 21.8382 91.9744L21.835 91.9713ZM21.8861 102.156C26.2486 102.226 30.8282 101.799 35.261 100.362C37.8811 99.5107 37.98 99.2271 37.9832 96.5026C37.9832 95.2789 37.6609 95.1228 36.4992 95.451C27.0624 98.1118 17.5682 98.1469 8.05797 95.8589C5.2049 95.1738 4.86662 95.4478 5.34213 98.354C5.54638 99.6063 6.6059 99.8485 7.51863 100.18C12.0695 101.846 16.815 102.184 21.8829 102.156H21.8861ZM21.4999 112.324C26.1401 112.413 30.7197 111.993 35.1589 110.575C37.8907 109.701 38.0789 109.297 37.9832 106.467C37.9513 105.524 37.7183 105.275 36.7577 105.546C26.6731 108.389 16.5789 108.446 6.49421 105.546C5.69637 105.317 5.35809 105.403 5.30703 106.349C5.14746 109.214 5.40915 109.711 8.1569 110.603C12.4907 112.009 16.9682 112.388 21.4967 112.324H21.4999ZM21.3116 61.4438C26.322 61.498 31.058 61.106 35.6216 59.5159C37.8683 58.732 37.9704 58.4261 37.9864 56.0425C37.996 54.7647 37.6162 54.497 36.3907 54.8699C31.9994 56.2018 27.4709 56.6703 22.9041 56.7436C17.3703 56.8328 11.8972 56.3707 6.58676 54.6755C5.75381 54.4078 5.34532 54.4492 5.30384 55.5104C5.19214 58.3942 5.41234 58.834 8.19519 59.7326C12.529 61.1315 17.0033 61.5075 21.3116 61.447V61.4438ZM21.8222 51.2531C24.2923 51.3073 26.6699 51.2244 29.0347 50.8898C31.4473 50.5488 33.8536 50.1505 36.1354 49.2551C36.595 49.0735 37.3577 49.0257 37.3226 48.4043C37.2907 47.8371 36.5535 47.7638 36.0748 47.5917C35.178 47.273 34.2717 46.9639 33.343 46.7568C26.8071 45.3037 20.2202 45.2559 13.6109 46.1227C11.511 46.3999 9.43024 46.8237 7.45161 47.6108C6.99206 47.7925 6.22932 47.8403 6.26443 48.4616C6.29634 49.032 7.03674 49.0958 7.51225 49.2742C8.25264 49.5514 9.01537 49.7968 9.78129 49.988C13.7609 50.9758 17.8043 51.3742 21.819 51.2531H21.8222Z" fill="black"/>
<path d="M47.1841 112.302C47.1841 105.782 47.2447 99.2622 47.1522 92.7456C47.1171 90.2155 48.1958 88.5043 50.2701 87.2711C53.8285 85.1552 57.8209 84.4987 61.8292 84.0335C67.9215 83.3261 74.0106 83.4822 80.0486 84.6421C82.6591 85.1456 85.2186 85.8371 87.5323 87.2169C89.6577 88.482 90.7364 90.2186 90.7236 92.8157C90.6534 105.906 90.6662 118.997 90.7173 132.087C90.7268 134.299 89.7726 135.835 88.0589 137.01C85.1324 139.018 81.7432 139.716 78.3284 140.248C70.7011 141.43 63.1057 141.274 55.5869 139.435C53.4679 138.916 51.4031 138.221 49.6255 136.886C48.0617 135.71 47.1426 134.257 47.1618 132.18C47.2224 125.555 47.1841 118.93 47.1841 112.305V112.302ZM69.5299 135.535C73.6053 135.487 78.2487 135.185 82.7165 133.649C85.3781 132.731 85.5026 132.425 85.4292 129.634C85.4005 128.521 84.9984 128.4 84.0697 128.719C79.3465 130.331 74.4286 130.73 69.5012 130.793C64.1908 130.86 58.9123 130.398 53.8189 128.725C52.9221 128.429 52.4754 128.47 52.4434 129.618C52.3637 132.438 52.5137 132.782 55.2869 133.703C59.7133 135.169 64.2993 135.516 69.5299 135.538V135.535ZM69.2969 105.004C73.6563 104.969 78.2965 104.635 82.7644 103.102C85.3749 102.207 85.4515 101.977 85.426 99.2144C85.4164 98.0863 85.0973 97.8314 84.025 98.1915C79.3529 99.7688 74.4925 100.205 69.6129 100.26C64.2482 100.32 58.9155 99.8708 53.7742 98.1692C52.7913 97.8441 52.4722 98.0736 52.4466 99.1283C52.3828 101.923 52.5137 102.223 55.1816 103.124C59.6559 104.635 64.2961 104.973 69.2969 104.998V105.004ZM68.381 115.182C73.5925 115.157 78.2327 114.819 82.7038 113.305C85.3654 112.404 85.4994 112.079 85.4292 109.297C85.4005 108.213 85.043 108.035 84.0856 108.357C79.2571 109.982 74.2403 110.418 69.2012 110.444C63.9993 110.469 58.8229 110.03 53.8381 108.369C52.7434 108.006 52.4594 108.306 52.4498 109.408C52.4243 112.152 52.5041 112.391 55.1274 113.286C59.5953 114.819 64.2355 115.141 68.3874 115.179L68.381 115.182ZM68.8853 125.363C73.6467 125.325 78.287 124.994 82.7548 123.464C85.3717 122.569 85.4579 122.317 85.426 119.586C85.4132 118.474 85.1069 118.19 84.0282 118.554C79.2539 120.16 74.2882 120.593 69.3033 120.625C64.0472 120.657 58.8293 120.185 53.7742 118.56C53.2892 118.404 52.6668 117.974 52.469 119.013C51.9871 121.552 52.4498 122.518 54.8784 123.381C59.4357 125 64.1812 125.322 68.8821 125.367L68.8853 125.363ZM69.1214 89.1543C64.1653 89.0587 59.4261 89.4507 54.8497 91.0312C54.3231 91.2129 53.487 91.3116 53.4679 91.9139C53.4455 92.5512 54.2976 92.6277 54.8114 92.8221C57.9166 94.0043 61.1782 94.4472 64.4621 94.6607C70.5767 95.0623 76.6562 94.8711 82.5666 92.9973C83.2495 92.7807 84.3824 92.6564 84.3665 91.9649C84.3473 91.1428 83.1921 91.0726 82.4708 90.8432C78.0795 89.4347 73.5478 89.0555 69.1182 89.1543H69.1214Z" fill="black"/>
<path d="M77.8177 4.30014e-05C95.8552 0.0287223 110.143 14.3429 110.098 32.3502C110.057 50.0772 95.4722 64.4423 77.5783 64.385C59.8823 64.3308 45.5819 49.7522 45.6138 31.7926C45.6394 14.2919 60.144 -0.0286363 77.8177 4.30014e-05ZM51.1029 32.0411C51.0487 46.9544 62.7545 58.8212 77.5943 58.8977C92.6862 58.9742 104.443 47.2412 104.66 32.2483C104.855 18.8487 94.2499 5.42361 77.9613 5.35032C61.6599 5.27703 50.7615 18.7308 51.1061 32.0411H51.1029Z" fill="#66C6EB"/>
<path d="M79.0881 49.1659C76.0181 49.1659 72.948 49.1659 69.8779 49.1659C68.7801 49.1659 68.0014 48.6305 67.5897 47.6522C67.194 46.7218 67.3089 45.7467 68.0971 45.103C70.4619 43.1783 70.4587 40.6067 69.9864 38.0192C69.3481 34.514 69.5556 35.2341 66.6387 35.1576C65.9557 35.1385 65.2696 35.1959 64.593 35.1162C63.3293 34.9696 62.5027 33.9754 62.5123 32.7103C62.5187 31.4485 63.3644 30.5275 64.6345 30.3268C65.5249 30.1866 66.7185 30.7793 67.2451 29.9731C67.7333 29.2242 66.9355 28.2396 66.7536 27.3505C65.3749 20.5981 69.7503 14.8432 76.6116 14.2377C83.5847 13.6227 87.3569 17.2905 89.5047 22.1564C90.1334 23.584 89.7121 24.9128 88.4866 25.5342C87.2229 26.1715 85.9591 25.7508 85.1357 24.387C84.7336 23.721 84.4049 23.0104 83.9837 22.3571C81.8072 18.9857 77.4031 18.0074 73.9788 20.1425C72.0353 21.3534 71.4098 23.2175 71.4736 25.3971C71.4736 25.4449 71.4864 25.4927 71.4927 25.5405C72.0927 29.9699 72.4725 30.3077 76.8829 30.3108C78.9796 30.3108 81.0731 30.2981 83.1699 30.3172C85.0081 30.3332 86.0261 31.1903 86.0453 32.688C86.0676 34.259 85.04 35.1353 83.106 35.1481C80.7189 35.164 78.3318 35.1799 75.9447 35.1449C74.9139 35.129 74.5405 35.4285 74.7862 36.5247C75.2649 38.6756 75.4723 40.8648 74.9139 43.0317C74.6234 44.1661 75.0862 44.3509 76.0755 44.3414C80.0711 44.3063 84.0666 44.3127 88.0622 44.3382C89.6291 44.3478 90.5865 45.1635 90.7142 46.4828C90.8642 48.0187 89.843 49.134 88.1547 49.1531C85.1325 49.1914 82.1135 49.1627 79.0913 49.1627L79.0881 49.1659Z" fill="#26B2E3"/>
<path d="M123.96 18.33C123.96 17.0491 123.977 15.7683 123.953 14.4889C123.943 13.9703 124.126 13.7694 124.651 13.7822C125.764 13.8093 126.877 13.8036 127.989 13.7865C128.446 13.7793 128.62 13.9603 128.614 14.4148C128.6 15.7184 128.613 17.0235 128.614 18.3271C128.576 18.3713 128.539 18.4169 128.5 18.461C127.023 18.461 125.546 18.4582 124.069 18.4582C124.032 18.4154 123.995 18.3727 123.957 18.33H123.96Z" fill="#66C6EB"/>
<path d="M123.941 23.0101C122.661 23.0087 121.38 22.9902 120.099 23.0144C119.57 23.0243 119.391 22.8235 119.402 22.3063C119.428 21.2149 119.429 20.1222 119.401 19.0294C119.386 18.4894 119.615 18.3341 120.121 18.3412C121.401 18.3583 122.682 18.337 123.961 18.3298C123.998 18.3726 124.035 18.4153 124.074 18.4581C124.074 19.9369 124.074 21.4158 124.074 22.8947C124.029 22.9332 123.985 22.9716 123.941 23.0101Z" fill="#66C6EB"/>
<path d="M128.616 18.329C129.914 18.3361 131.21 18.3589 132.508 18.3447C132.994 18.339 133.181 18.5156 133.172 19.0057C133.151 20.1156 133.147 21.2269 133.175 22.3353C133.189 22.8782 132.952 23.0235 132.454 23.0149C131.18 22.9936 129.906 23.0092 128.631 23.0092C128.589 22.9722 128.546 22.9352 128.503 22.8981C128.503 21.4192 128.503 19.9404 128.503 18.4629C128.542 18.4187 128.579 18.3731 128.617 18.329H128.616Z" fill="#66C6EB"/>
<path d="M128.634 23.0102C128.628 24.2867 128.6 25.5647 128.625 26.8413C128.637 27.4012 128.435 27.5921 127.884 27.5765C126.798 27.5465 125.711 27.5508 124.624 27.5722C124.14 27.5807 123.952 27.4055 123.957 26.9125C123.971 25.6118 123.948 24.311 123.941 23.0102C123.985 22.9717 124.029 22.9332 124.073 22.8948C125.55 22.8948 127.027 22.8962 128.504 22.8976C128.547 22.9347 128.59 22.9717 128.632 23.0088L128.634 23.0102Z" fill="#66C6EB"/>
<path d="M28.7405 131.427C28.7405 130.146 28.759 128.865 28.7348 127.584C28.7248 127.064 28.9069 126.868 29.432 126.881C30.5448 126.908 31.6589 126.902 32.7717 126.885C33.2299 126.878 33.4021 127.06 33.3964 127.515C33.3821 128.818 33.3935 130.123 33.3949 131.428C33.3579 131.471 33.321 131.515 33.284 131.558C31.8069 131.558 30.3285 131.558 28.8514 131.558C28.8144 131.515 28.7774 131.473 28.739 131.43L28.7405 131.427Z" fill="#66C6EB"/>
<path d="M28.7246 136.108C27.4739 136.108 26.2231 136.086 24.9737 136.115C24.4131 136.128 24.1598 135.97 24.1826 135.36C24.221 134.274 24.2096 133.186 24.1868 132.1C24.1769 131.606 24.3675 131.436 24.8513 131.442C26.1491 131.456 27.4468 131.435 28.7431 131.427C28.7801 131.47 28.8171 131.513 28.8555 131.556C28.8555 133.035 28.8555 134.515 28.8555 135.994C28.8129 136.031 28.7702 136.068 28.7275 136.106L28.7246 136.108Z" fill="#66C6EB"/>
<path d="M33.3961 131.429C34.6938 131.436 35.9916 131.458 37.2879 131.443C37.7717 131.438 37.9638 131.609 37.9538 132.103C37.9311 133.213 37.9254 134.324 37.9538 135.434C37.9681 135.977 37.7333 136.122 37.2352 136.114C35.9617 136.092 34.6867 136.108 33.4132 136.109C33.3705 136.072 33.3278 136.035 33.2837 135.998C33.2837 134.519 33.2837 133.04 33.2837 131.56C33.3207 131.517 33.3577 131.473 33.3947 131.431L33.3961 131.429Z" fill="#66C6EB"/>
<path d="M33.4137 136.108C33.4065 137.408 33.3909 138.709 33.3966 140.01C33.3994 140.436 33.2884 140.675 32.8032 140.668C31.6463 140.65 30.4881 140.651 29.3312 140.67C28.8431 140.678 28.7378 140.433 28.7392 140.01C28.7449 138.709 28.7293 137.408 28.7222 136.108C28.7649 136.071 28.8075 136.033 28.8502 135.995C30.3287 135.995 31.8057 135.995 33.2842 135.995L33.4137 136.106V136.108Z" fill="#66C6EB"/>
<path d="M18.6052 11.9881C18.6052 10.7072 18.6237 9.42641 18.5995 8.14557C18.5895 7.62554 18.7717 7.42893 19.2968 7.44175C20.4095 7.46882 21.5237 7.46311 22.6364 7.44602C23.0946 7.43889 23.2668 7.62127 23.2611 8.07576C23.2469 9.37939 23.2583 10.6845 23.2597 11.9895C23.2227 12.0323 23.1857 12.0764 23.1487 12.1192C21.6717 12.1192 20.1932 12.1192 18.7162 12.1192C18.6792 12.0764 18.6422 12.0337 18.6038 11.9909L18.6052 11.9881Z" fill="#66C6EB"/>
<path d="M18.5894 16.6682C17.3386 16.6682 16.0878 16.6468 14.8385 16.6753C14.2778 16.6881 14.0245 16.53 14.0473 15.9202C14.0857 14.8345 14.0743 13.746 14.0516 12.6604C14.0416 12.166 14.2323 11.9965 14.7161 12.0022C16.0138 12.0164 17.3116 11.995 18.6079 11.9879C18.6449 12.0307 18.6819 12.0734 18.7203 12.1161C18.7203 13.595 18.7203 15.0753 18.7203 16.5542C18.6776 16.5912 18.6349 16.6283 18.5922 16.6668L18.5894 16.6682Z" fill="#66C6EB"/>
<path d="M23.2609 11.9894C24.5586 11.9965 25.8563 12.0179 27.1526 12.0036C27.6364 11.9979 27.8285 12.1689 27.8186 12.6633C27.7958 13.7731 27.7901 14.8844 27.8186 15.9943C27.8328 16.5371 27.598 16.6825 27.1 16.6739C25.8264 16.6525 24.5515 16.6682 23.2779 16.6697C23.2352 16.6326 23.1925 16.5956 23.1484 16.5585C23.1484 15.0796 23.1484 13.6008 23.1484 12.1205C23.1854 12.0777 23.2224 12.0335 23.2594 11.9908L23.2609 11.9894Z" fill="#66C6EB"/>
<path d="M23.2789 16.6681C23.2718 17.9689 23.2561 19.2697 23.2618 20.5705C23.2647 20.9965 23.1537 21.2358 22.6684 21.2287C21.5116 21.2102 20.3533 21.2116 19.1964 21.2301C18.7084 21.2387 18.6031 20.9936 18.6045 20.5705C18.6102 19.2697 18.5945 17.9689 18.5874 16.6681C18.6301 16.6311 18.6728 16.594 18.7155 16.5555C20.1939 16.5555 21.671 16.5555 23.1494 16.5555L23.2789 16.6667V16.6681Z" fill="#66C6EB"/>
</g>
<defs>
<clipPath id="clip0_351_1718">
<rect width="141" height="141" fill="white"/>
</clipPath>
</defs>
</svg>
