<svg width="141" height="142" viewBox="0 0 141 142" fill="none" xmlns="http://www.w3.org/2000/svg">
<g clip-path="url(#clip0_351_1663)">
<path d="M56.367 111.021C56.367 104.13 56.3346 97.2393 56.3934 90.3513C56.4052 88.9643 56.032 88.4325 54.5891 88.5206C50.6309 88.7645 46.7902 88.3649 43.2993 86.1933C40.7927 84.6329 38.7886 82.6171 37.3752 80.0312C35.3799 76.3903 33.3876 72.7465 31.4452 69.0763C29.5616 65.5177 30.6195 61.5595 33.9047 59.6289C37.2018 57.6924 41.0807 58.7032 43.3757 62.062C45.4708 65.1269 47.5925 68.1742 49.717 71.2185C51.2568 73.4195 53.496 74.1952 56.0702 74.2393C57.2426 74.2599 58.4181 74.1952 59.5876 74.2599C60.8277 74.3304 60.8423 73.9984 60.284 72.9875C56.4345 66.0261 60.2517 57.4455 68.03 55.7588C72.8287 54.7186 76.9955 56.0968 80.0134 60.052C83.043 64.0279 83.4162 68.3916 81.0771 72.8464C80.4777 73.9895 80.463 74.348 81.8588 74.2569C83.5132 74.1482 85.1705 74.2863 86.8308 74.0718C88.9847 73.7927 90.5481 72.6848 91.744 70.9687C93.9244 67.8421 96.0578 64.6861 98.2529 61.5713C100.33 58.6268 104.306 57.8041 107.389 59.6259C110.483 61.4537 111.758 65.3414 110.101 68.5503C107.93 72.7612 105.764 76.9927 103.257 81.0038C100.236 85.8436 95.6435 88.2944 89.9163 88.5265C88.7937 88.5735 87.6624 88.6117 86.5458 88.5147C85.2117 88.4001 84.8972 88.9702 84.9031 90.2132C84.9443 99.7899 84.9266 109.37 84.9237 118.946C84.9237 123.051 84.9354 127.157 84.9178 131.262C84.9031 134.7 83.5778 137.497 80.4894 139.146C77.3687 140.809 74.2597 140.527 71.3946 138.411C70.8128 137.979 70.4308 138.017 69.8637 138.429C67.0427 140.483 63.9866 140.821 60.8982 139.208C57.7451 137.562 56.3581 134.767 56.3581 131.25C56.3581 124.506 56.3581 117.762 56.3581 111.018L56.367 111.021ZM79.8253 109.205C79.8253 101.776 79.8165 94.3477 79.8283 86.922C79.8312 84.4742 80.6628 83.6485 83.0695 83.6309C84.9266 83.6191 86.7838 83.6515 88.6409 83.6191C92.943 83.5427 96.6984 82.1675 99.0081 78.3562C101.283 74.6007 103.266 70.6631 105.341 66.7901C105.867 65.8086 105.99 64.7155 104.856 64.0955C103.786 63.5107 102.811 63.8134 102.076 64.8859C100.037 67.8715 97.9473 70.8218 95.8962 73.7985C93.5101 77.2601 90.263 79.1408 86.0227 79.1467C75.7613 79.1614 65.497 79.1555 55.2356 79.1467C51.0423 79.1467 47.8275 77.2689 45.4444 73.9043C43.3845 70.9952 41.3892 68.039 39.3557 65.1093C38.48 63.8516 37.2077 63.4372 36.2615 64.1542C35.0713 65.0534 35.518 66.0878 36.094 67.1398C37.9952 70.6102 39.823 74.1218 41.7653 77.5687C43.6871 80.9803 46.611 82.955 50.5457 83.4281C53.2286 83.7514 55.9144 83.5515 58.5973 83.6309C60.4104 83.6838 61.2861 84.4919 61.4418 86.2814C61.4829 86.7663 61.4683 87.257 61.4683 87.7478C61.4683 101.967 61.4683 116.19 61.4683 130.41C61.4683 130.997 61.4506 131.585 61.5006 132.167C61.6358 133.718 62.8024 134.885 64.3333 135.041C66.596 135.273 68.08 133.895 68.0858 131.441C68.1064 122.693 68.0947 113.945 68.0947 105.197C68.0947 104.609 68.1064 104.024 68.1182 103.437C68.1299 102.808 68.4091 102.496 69.0791 102.399C72.8081 101.85 73.2077 102.176 73.2019 105.879C73.2019 106.026 73.2019 106.172 73.2019 106.319C73.2019 114.724 73.1901 123.131 73.2136 131.535C73.2195 133.98 74.8827 135.387 77.1924 135.011C78.8527 134.741 79.8194 133.433 79.8253 131.338C79.84 123.959 79.8312 116.581 79.8312 109.199L79.8253 109.205ZM63.825 67.3602C63.8455 71.148 66.837 74.1247 70.6336 74.1423C74.4566 74.16 77.5039 71.0804 77.4716 67.2309C77.4392 63.5107 74.342 60.4076 70.6483 60.3988C66.9104 60.39 63.8044 63.5606 63.825 67.3602Z" fill="black"/>
<path d="M46.9404 58.2301C46.9404 55.56 45.6181 54.2268 42.9734 54.2308C42.0448 54.2308 41.1162 54.2131 40.1877 54.2308C39.0416 54.2513 38.1689 53.787 37.7428 52.7204C37.3255 51.6742 37.5665 50.7133 38.3775 49.9023C41.3513 46.9344 44.284 43.9224 47.3107 41.0103C48.2481 40.1111 48.3509 39.4528 47.728 38.2774C39.0593 21.992 49.112 2.37728 67.4221 0.196882C82.5996 -1.61032 94.1863 9.31811 96.1169 21.8275C97.019 27.6722 96.1345 33.2231 93.2283 38.3891C92.6406 39.4352 92.72 40.0552 93.5868 40.8898C96.543 43.7372 99.3993 46.6875 102.32 49.5702C103.231 50.4665 103.775 51.445 103.272 52.7057C102.761 53.9898 101.671 54.2719 100.395 54.2425C98.6852 54.2014 96.975 54.2602 95.2647 54.2249C94.3773 54.2043 94.0423 54.5599 94.0599 55.4385C94.0952 57.1958 94.0423 58.9559 94.0776 60.7161C94.104 61.9562 93.7426 62.9641 92.5348 63.4402C91.3418 63.9103 90.3721 63.4548 89.5052 62.5792C85.9936 59.0412 82.4439 55.5443 78.9529 51.9887C78.1889 51.2129 77.5042 50.9396 76.3817 51.2217C72.4822 52.1973 68.5358 52.1944 64.6363 51.2217C63.5197 50.9425 62.8262 51.2041 62.0622 51.9828C58.6388 55.4708 55.1537 58.8942 51.7185 62.3705C50.7958 63.302 49.8173 63.9632 48.4773 63.4431C47.1109 62.9112 46.864 61.7476 46.9316 60.4311C46.9698 59.6994 46.9375 58.9648 46.9375 58.2331L46.9404 58.2301ZM70.4899 4.96613C58.6535 5.28056 49.6527 14.2078 49.5704 25.7475C49.4852 37.7162 58.8004 46.9784 70.6692 46.8962C82.3616 46.8139 91.5563 37.6545 91.4329 25.7181C91.3124 14.0492 82.297 5.28937 70.4899 4.96613ZM52.0065 55.0447C53.9606 53.0877 55.7796 51.254 57.6103 49.4321C58.0334 49.0119 57.9952 48.6887 57.4869 48.3948C55.4857 47.24 53.6785 45.8354 52.0652 44.181C51.7067 43.8136 51.407 43.89 51.072 44.225C49.4588 45.8324 47.8367 47.428 46.1059 49.1353C47.8925 49.6907 49.7232 48.7034 51.0867 50.0316C52.4825 51.3921 51.5069 53.2199 52.0035 55.0477L52.0065 55.0447ZM88.8088 54.9301C88.9322 54.8831 89.0527 54.8361 89.1761 54.7891C89.1761 53.8723 89.1585 52.9554 89.179 52.0416C89.2231 50.2167 90.0665 49.4027 91.8972 49.3322C92.8228 49.294 93.769 49.4615 94.9797 49.1265C93.2136 47.4104 91.6239 45.8971 90.0753 44.3455C89.5816 43.8518 89.2319 43.8401 88.7529 44.3455C87.269 45.9176 85.544 47.1988 83.6898 48.2979C83.1021 48.6475 82.9082 48.9502 83.4694 49.5144C85.2619 51.304 87.028 53.1229 88.8029 54.9301H88.8088Z" fill="#26B2E3"/>
<path d="M28.3744 90.4865C28.3744 94.2949 28.3362 98.1062 28.3949 101.912C28.4126 103.108 28.0364 103.551 26.8111 103.519C22.8705 103.416 23.5052 103.963 23.4846 100.169C23.4494 93.187 23.5023 86.2021 23.4494 79.2202C23.4406 77.9008 23.8226 77.41 25.186 77.46C28.8592 77.5893 28.3391 77.0251 28.3685 80.6718C28.3949 83.9424 28.3744 87.2159 28.3744 90.4865Z" fill="#26B2E3"/>
<path d="M112.634 90.3396C112.634 86.5783 112.672 82.8199 112.614 79.0585C112.593 77.8479 112.998 77.4335 114.209 77.4658C118.106 77.5658 117.506 77.0486 117.524 80.6806C117.556 87.6626 117.494 94.6475 117.565 101.629C117.58 103.11 117.148 103.592 115.661 103.528C112.223 103.384 112.658 103.922 112.637 100.445C112.616 97.0747 112.631 93.7072 112.634 90.3367V90.3396Z" fill="#26B2E3"/>
<path d="M28.3685 114.104C28.3685 115.664 28.3508 117.227 28.3743 118.788C28.3861 119.59 28.0482 119.931 27.243 119.925C22.603 119.887 23.5728 120.436 23.4875 116.446C23.4376 114.104 23.5169 111.762 23.464 109.42C23.4405 108.344 23.8255 107.953 24.9039 107.977C29.0414 108.062 28.2979 107.524 28.3743 111.324C28.392 112.249 28.3743 113.178 28.3743 114.104C28.3743 114.104 28.3685 114.104 28.3655 114.104H28.3685Z" fill="#26B2E3"/>
<path d="M112.643 113.957C112.643 112.346 112.658 110.736 112.637 109.126C112.626 108.323 112.967 107.982 113.769 107.988C118.409 108.027 117.439 107.477 117.524 111.471C117.574 113.813 117.495 116.155 117.548 118.497C117.571 119.572 117.186 119.963 116.108 119.939C111.97 119.854 112.714 120.389 112.637 116.589C112.62 115.711 112.637 114.832 112.637 113.954H112.646L112.643 113.957Z" fill="#26B2E3"/>
<path d="M25.8209 23.4789C25.8209 21.5747 25.8503 19.6706 25.8151 17.7693C25.7974 16.8319 26.1618 16.4617 27.1021 16.4764C31.4394 16.541 30.6401 16.0062 30.7195 19.8234C30.7459 21.0429 30.7254 22.2624 30.7254 23.4848C30.649 23.5759 30.5726 23.664 30.4962 23.7551C29.0151 23.7551 27.537 23.7551 26.056 23.7551C25.9767 23.664 25.9003 23.5729 25.8209 23.4848V23.4789Z" fill="#66C6EB"/>
<path d="M110.286 23.4818C110.286 21.5776 110.319 19.6735 110.28 17.7722C110.263 16.8348 110.621 16.4675 111.567 16.4793C115.931 16.538 115.097 16.015 115.182 19.8233C115.208 21.0428 115.188 22.2653 115.188 23.4848C115.111 23.5759 115.035 23.664 114.959 23.7551C113.478 23.7551 111.997 23.7551 110.518 23.7522C110.442 23.664 110.363 23.5729 110.286 23.4848V23.4818Z" fill="#66C6EB"/>
<path d="M25.783 28.4244C23.9405 28.4244 22.0951 28.3862 20.2527 28.4362C19.23 28.4626 18.7511 28.1629 18.7716 27.0433C18.8539 22.8353 18.2985 23.6052 22.1833 23.523C23.3969 23.4965 24.6076 23.4936 25.8212 23.4789C25.9005 23.57 25.9769 23.6581 26.0563 23.7492C26.0563 25.2303 26.0533 26.7083 26.0504 28.1894C25.9622 28.2658 25.8711 28.3451 25.783 28.4215V28.4244Z" fill="#66C6EB"/>
<path d="M30.7253 23.4819C32.6647 23.4966 34.6071 23.5348 36.5466 23.5172C37.4046 23.5084 37.7749 23.8346 37.7631 24.7132C37.7073 29.2473 38.2744 28.3129 34.2545 28.4157C33.0908 28.4451 31.9242 28.4216 30.7606 28.4246C30.6724 28.3482 30.5813 28.2688 30.4932 28.1924C30.4932 26.7114 30.4932 25.2333 30.4932 23.7523C30.5696 23.6612 30.646 23.573 30.7224 23.4819H30.7253Z" fill="#66C6EB"/>
<path d="M110.248 28.4244C108.403 28.4244 106.56 28.3833 104.718 28.4333C103.695 28.4597 103.216 28.1629 103.24 27.0433C103.328 22.8265 102.761 23.6111 106.651 23.523C107.865 23.4965 109.076 23.4936 110.289 23.4789C110.366 23.567 110.445 23.6581 110.521 23.7463C110.521 25.2273 110.521 26.7083 110.518 28.1864C110.43 28.2628 110.339 28.3422 110.251 28.4186L110.248 28.4244Z" fill="#66C6EB"/>
<path d="M115.191 23.4819C117.13 23.4966 119.072 23.5319 121.012 23.5172C121.87 23.5113 122.237 23.8375 122.228 24.7161C122.181 29.2415 122.731 28.3246 118.723 28.4187C117.559 28.4451 116.393 28.4246 115.229 28.4275C115.138 28.3482 115.047 28.2718 114.958 28.1924C114.958 26.7143 114.958 25.2333 114.958 23.7552C115.035 23.6641 115.111 23.576 115.188 23.4849L115.191 23.4819Z" fill="#66C6EB"/>
<path d="M30.7606 28.4245C30.7459 30.3199 30.693 32.2182 30.7312 34.1135C30.7518 35.1273 30.3639 35.4888 29.3619 35.4711C25.1069 35.3947 25.912 35.9531 25.8209 32.0713C25.7915 30.8576 25.7915 29.6411 25.7769 28.4245C25.865 28.3481 25.9561 28.2688 26.0443 28.1924C27.5253 28.1924 29.0063 28.1924 30.4873 28.1924C30.5755 28.2688 30.6666 28.3481 30.7547 28.4245H30.7606Z" fill="#66C6EB"/>
<path d="M115.229 28.4245C115.214 30.3199 115.164 32.2182 115.202 34.1136C115.223 35.1244 114.832 35.4917 113.833 35.4712C109.604 35.3889 110.371 35.9619 110.292 32.0683C110.266 30.8547 110.263 29.6382 110.251 28.4216C110.339 28.3452 110.43 28.2659 110.518 28.1895C111.999 28.1895 113.48 28.1895 114.959 28.1895C115.05 28.2688 115.141 28.3452 115.229 28.4245Z" fill="#66C6EB"/>
<path d="M7.04945 7.05545C7.04945 5.15128 7.07884 3.2471 7.04358 1.34587C7.02595 0.408473 7.39032 0.0382169 8.33066 0.0529096C12.6679 0.117557 11.8687 -0.417257 11.948 3.39991C11.9744 4.6194 11.9539 5.8389 11.9539 7.06133C11.8775 7.15242 11.8011 7.24058 11.7247 7.33168C10.2436 7.33168 8.76556 7.33168 7.28454 7.33168C7.2052 7.24058 7.12879 7.14949 7.04945 7.06133V7.05545Z" fill="#66C6EB"/>
<path d="M129.055 7.05836C129.055 5.15418 129.087 3.25001 129.049 1.34877C129.031 0.411378 129.39 0.0440605 130.336 0.0558146C134.714 0.10577 133.859 -0.384967 133.953 3.39987C133.983 4.61937 133.959 5.83886 133.959 7.0613C133.883 7.15239 133.806 7.24055 133.73 7.33164C132.249 7.33164 130.771 7.33164 129.29 7.33164C129.211 7.24055 129.134 7.15239 129.055 7.0613V7.05836Z" fill="#66C6EB"/>
<path d="M7.01151 12.001C5.16904 12.001 3.32364 11.9628 1.48117 12.0127C0.458559 12.0392 -0.0204232 11.7395 0.000146578 10.6199C0.0824257 6.41188 -0.472959 7.18178 3.41179 7.0995C4.62541 7.07305 5.83609 7.07011 7.04971 7.05542C7.12905 7.14651 7.20545 7.23467 7.28479 7.32577C7.28479 8.80679 7.28185 10.2849 7.27891 11.7659L7.01151 11.998V12.001Z" fill="#66C6EB"/>
<path d="M11.9538 7.05835C13.8933 7.07304 15.8356 7.11124 17.7751 7.09361C18.6331 7.0848 19.0034 7.41097 18.9916 8.2896C18.9358 12.8238 19.5029 11.8893 15.483 11.9922C14.3193 12.0215 13.1527 11.998 11.9891 12.001C11.9009 11.9246 11.8098 11.8452 11.7217 11.7688C11.7217 10.2878 11.7217 8.80972 11.7217 7.3287C11.7981 7.2376 11.8745 7.14944 11.9509 7.05835H11.9538Z" fill="#66C6EB"/>
<path d="M129.017 12.001C127.174 12.001 125.329 11.9628 123.486 12.0127C122.464 12.0392 121.982 11.7394 122.005 10.6228C122.09 6.41186 121.529 7.19057 125.417 7.10242C126.63 7.07597 127.841 7.07303 129.055 7.06128C129.134 7.15237 129.211 7.24053 129.29 7.33163C129.29 8.81265 129.29 10.2907 129.287 11.7718C129.199 11.8482 129.108 11.9275 129.02 12.0039L129.017 12.001Z" fill="#66C6EB"/>
<path d="M133.959 7.05836C135.899 7.07305 137.841 7.11125 139.78 7.09362C140.639 7.08774 141.009 7.41098 141 8.28961C140.944 12.8032 141.479 11.8923 137.635 11.9922C136.422 12.0245 135.208 11.998 133.994 11.998C133.906 11.9216 133.815 11.8423 133.727 11.7659C133.727 10.2849 133.727 8.80679 133.727 7.32577C133.803 7.23467 133.88 7.14651 133.956 7.05542L133.959 7.05836Z" fill="#66C6EB"/>
<path d="M11.9921 12.0009C11.9774 13.8963 11.9245 15.7946 11.9627 17.69C11.9833 18.7038 11.5954 19.0652 10.5933 19.0476C6.33831 18.9712 7.14347 19.5295 7.05238 15.6477C7.02299 14.4341 7.02299 13.2175 7.0083 12.0009C7.09646 11.9245 7.18755 11.8452 7.27571 11.7688C8.75673 11.7688 10.2378 11.7688 11.7188 11.7688C11.8069 11.8452 11.898 11.9245 11.9862 12.0009H11.9921Z" fill="#66C6EB"/>
<path d="M133.997 12.0009C133.983 13.8963 133.93 15.7946 133.968 17.69C133.989 18.7038 133.601 19.0652 132.599 19.0476C128.352 18.9741 129.149 19.5324 129.058 15.6477C129.031 14.4341 129.028 13.2175 129.017 12.0009C129.105 11.9245 129.196 11.8452 129.284 11.7688C130.765 11.7688 132.246 11.7688 133.727 11.7688C133.815 11.8452 133.906 11.9245 133.994 12.0009H133.997Z" fill="#66C6EB"/>
<path d="M23.4759 127.994C23.4759 127.944 23.4759 127.897 23.4759 127.847C23.4759 124.059 23.473 124.074 27.2813 124.409C27.9836 124.471 28.3715 124.685 28.3656 125.443C28.3509 127.151 28.5214 128.873 28.3245 130.556C28.0806 132.646 26.3351 131.388 25.289 131.614C24.5132 131.782 23.4171 131.935 23.4759 130.483C23.5082 129.654 23.4818 128.826 23.4818 127.997H23.4759V127.994Z" fill="#26B2E3"/>
<path d="M112.634 128.012C112.634 127.915 112.634 127.818 112.634 127.718C112.634 124.309 113.322 123.768 116.716 124.424C117.339 124.544 117.521 124.876 117.521 125.423C117.521 127.177 117.521 128.934 117.518 130.689C117.518 130.786 117.533 130.909 117.486 130.977C116.454 132.384 114.991 131.397 113.745 131.629C112.943 131.779 112.614 131.282 112.637 130.498C112.661 129.669 112.643 128.84 112.643 128.012H112.637H112.634Z" fill="#26B2E3"/>
<path d="M25.8563 141.044C23.1705 141.024 23.5026 141.2 23.4791 138.376C23.4614 136.143 23.4761 136.128 25.7035 136.146C28.5334 136.166 28.3776 135.837 28.3717 138.517C28.3659 141.279 28.6127 141.015 25.8534 141.044H25.8563Z" fill="#26B2E3"/>
<path d="M115.012 141.041C113.427 141.041 112.634 140.25 112.634 138.667C112.634 136.984 113.426 136.143 115.009 136.143C117.536 136.143 117.545 136.143 117.533 138.37C117.515 141.282 117.818 141.018 115.014 141.041H115.012Z" fill="#26B2E3"/>
<path d="M58.6887 37.1402C59.1412 35.2889 59.6202 33.0439 60.252 30.8429C60.5693 29.7409 60.2843 29.1209 59.344 28.5538C57.9658 27.7222 56.6582 26.773 55.3152 25.8826C54.3279 25.2303 53.8048 24.3517 54.0282 23.1527C54.2427 22.0155 55.0126 21.419 56.1028 21.1487C58.3772 20.5845 60.6399 19.9821 62.9143 19.4296C63.7371 19.2298 64.269 18.789 64.6422 18.0162C65.7206 15.7711 66.8696 13.5613 67.9657 11.3251C68.5034 10.229 69.2851 9.48852 70.5604 9.51497C71.7622 9.54142 72.5145 10.2584 73.0288 11.3016C74.0631 13.4056 75.1651 15.4743 76.1524 17.6018C76.6461 18.6685 77.3161 19.2797 78.5033 19.5207C80.5573 19.938 82.579 20.5169 84.6125 21.0311C85.7644 21.322 86.7341 21.8392 86.978 23.1292C87.2337 24.4721 86.5461 25.3508 85.4764 26.0443C84.1247 26.9199 82.8112 27.8603 81.4447 28.7095C80.6484 29.2061 80.4662 29.7821 80.716 30.6754C81.2537 32.6031 81.7063 34.5543 82.1794 36.4967C82.4585 37.6427 82.4762 38.7505 81.4594 39.5821C80.3957 40.4519 79.2849 40.2168 78.1712 39.6556C76.0349 38.5801 73.8751 37.5428 71.7593 36.432C70.8954 35.9795 70.1431 35.9707 69.2762 36.4232C67.0253 37.5957 64.7626 38.7564 62.4588 39.8201C60.4371 40.7517 58.6475 39.6144 58.6887 37.1373V37.1402ZM78.2799 24.9306C77.3631 24.2694 76.5697 24.1724 75.8292 24.0519C74.1219 23.7786 73.0111 22.8795 72.3676 21.2838C71.9856 20.3376 71.4625 19.4472 71.0012 18.5363C70.6691 17.8781 70.3312 17.8986 70.0079 18.5422C69.4819 19.5883 68.9266 20.6197 68.4476 21.6864C67.8834 22.947 66.9519 23.6787 65.606 23.955C64.7186 24.1371 63.8488 24.4046 62.8144 24.6749C63.9222 25.9385 65.8117 26.2617 65.9028 28.1541C65.9763 29.7027 65.1182 31.1074 65.1447 32.7265C67.1017 32.227 68.5328 30.6343 70.4928 30.6108C72.4851 30.5872 73.9221 32.3004 76.0937 32.7206C75.0505 29.5588 73.9662 26.4615 78.2799 24.9335V24.9306Z" fill="black"/>
</g>
<defs>
<clipPath id="clip0_351_1663">
<rect width="141" height="141.044" fill="white"/>
</clipPath>
</defs>
</svg>
