<svg width="158" height="158" viewBox="0 0 158 158" fill="none" xmlns="http://www.w3.org/2000/svg">
<g clip-path="url(#clip0_931_5836)">
<path d="M0 27.1785C19.067 26.9378 36.1308 20.7118 51.6604 9.89905C54.7009 7.78156 57.5901 5.46035 60.2663 2.90145C61.356 1.85814 62.0721 1.88592 63.1833 2.9138C72.7523 11.7603 83.7197 18.2949 96.0699 22.4558C104.438 25.274 113.007 27.1075 121.882 27.1538C123.132 27.16 123.44 27.6045 123.44 28.7713C123.406 44.3499 123.462 59.9255 123.379 75.5042C123.354 80.3874 122.693 85.2305 121.65 90.018C121.431 91.0273 121.027 91.373 120.02 91.37C111.741 91.3422 103.466 91.3391 95.1871 91.37C94.0882 91.373 93.7672 90.9502 93.7857 89.913C93.832 87.2924 93.8474 84.6687 93.7764 82.0481C93.7486 81.0202 94.3505 80.4769 94.9432 79.8349C96.5422 78.1063 96.715 75.6431 95.4124 73.7293C94.1129 71.8218 91.6928 71.0655 89.5506 71.8958C87.4146 72.7231 86.115 74.9023 86.433 77.1896C86.5842 78.2884 87.0287 79.2854 87.893 80.0047C88.6832 80.6621 88.8993 81.4554 88.8808 82.4463C88.8314 84.965 88.8345 87.4838 88.8746 90.0025C88.89 90.9841 88.5536 91.3947 87.5411 91.3638C85.9483 91.3144 84.3525 91.3823 82.7597 91.3484C81.8769 91.3298 81.4355 91.6045 81.4509 92.5707C81.491 95.0895 81.4818 97.6082 81.4602 100.127C81.454 100.917 81.7874 101.232 82.5652 101.226C83.7938 101.214 84.9204 101.192 86.0625 100.426C90.0877 97.7286 95.5421 98.5034 98.6721 102.062C102.03 105.881 102.043 111.323 98.7029 115.159C95.5945 118.734 90.1865 119.475 86.0749 116.9C85.6026 116.604 85.2013 116.193 84.6148 116.07C82.0405 115.53 81.454 115.996 81.454 118.629C81.454 119.709 81.5188 120.793 81.4385 121.867C81.3521 123.071 81.7966 123.472 83.0159 123.463C89.492 123.416 95.9711 123.441 102.45 123.441C103.247 123.441 104.043 123.441 104.781 123.441C104.914 124.052 104.62 124.234 104.42 124.447C99.7432 129.389 94.7796 133.991 89.0845 137.763C80.386 143.526 71.7152 149.329 63.0413 155.129C62.2758 155.642 61.6523 155.981 60.7015 155.342C50.9751 148.805 40.9894 142.628 31.5191 135.748C14.2609 123.209 4.17024 106.128 0.817997 85.0514C0.663658 84.073 1.08037 82.8506 0 82.0975V27.1785ZM93.1097 128.383C90.8008 128.383 88.9024 128.435 87.0071 128.364C85.8156 128.318 84.8525 128.664 83.8648 129.33C77.0028 133.961 70.0885 138.51 63.2358 143.153C62.1369 143.897 61.359 143.934 60.2447 143.177C53.3921 138.535 46.4591 134.01 39.6065 129.371C26.2006 120.293 17.1625 107.989 12.5385 92.4627C11.6557 89.4994 11.6989 89.5797 14.6283 88.7802C16.079 88.3851 16.5976 88.7648 16.9866 90.1692C20.703 103.6 28.0465 114.65 39.1836 123.034C46.1659 128.29 53.676 132.797 60.8929 137.726C61.6801 138.263 62.2048 137.945 62.8253 137.532C66.9708 134.76 71.104 131.97 75.2804 129.247C76.2126 128.639 76.5553 127.948 76.5429 126.852C76.4935 122.123 76.5583 117.391 76.4997 112.662C76.4843 111.443 76.8948 111.048 78.0956 111.082C80.6144 111.153 83.1363 111.134 85.652 111.088C86.5533 111.069 87.18 111.39 87.8128 112.011C89.9149 114.079 92.8504 114.101 94.8383 112.134C96.7737 110.224 96.8045 107.134 94.9093 105.192C92.9276 103.161 89.9303 103.174 87.7726 105.3C87.1306 105.933 86.4793 106.192 85.5934 106.177C83.1764 106.137 80.7564 106.097 78.3456 106.189C76.9658 106.242 76.4627 105.841 76.4904 104.39C76.5769 100.022 76.4966 95.6482 76.5337 91.2774C76.546 89.7494 75.8823 87.7955 76.8331 86.7985C77.8641 85.7213 79.8581 86.4775 81.4262 86.4343C84.0747 86.3602 84.0438 86.4127 83.9388 83.7766C83.908 82.9803 83.4851 82.4432 83.0992 81.8413C80.4539 77.7174 81.2163 72.2477 84.8741 69.1054C88.6369 65.8736 93.9585 65.8551 97.7368 69.0591C101.422 72.1891 102.277 77.6618 99.5734 81.7579C98.8233 82.8938 98.7338 84.0051 98.7338 85.2459C98.7338 86.1133 99.0949 86.425 99.9376 86.4158C101.993 86.388 104.052 86.3633 106.108 86.4281C107.105 86.459 107.509 86.0022 107.621 85.1163C107.939 82.5697 108.507 80.0232 108.528 77.4735C108.636 65.5958 108.59 53.7181 108.621 41.8404C108.621 40.9638 108.312 40.5811 107.423 40.4113C104.901 39.9359 102.379 39.4328 99.8913 38.8031C86.4916 35.4108 74.1414 29.7251 62.9055 21.6625C62.0813 21.073 61.4979 20.9495 60.6028 21.5885C47.2741 31.1357 32.5162 37.3523 16.4062 40.3372C15.0604 40.5872 14.7857 41.1336 14.7949 42.3559C14.8443 48.4738 14.8567 54.5948 14.8011 60.7126C14.7641 64.7161 15.6315 64.142 11.1618 64.2037C10.2574 64.2161 9.87153 63.9074 9.87461 62.9598C9.89622 54.5269 9.89622 46.0939 9.86844 37.661C9.86535 36.7412 10.2481 36.3739 11.0908 36.2596C12.3132 36.0961 13.5324 35.9139 14.7456 35.6979C31.4358 32.713 46.5795 26.163 60.078 15.8935C61.3189 14.9489 62.0968 14.9119 63.3593 15.8749C77.7128 26.8235 93.8505 33.5773 111.726 36.1269C113.087 36.3214 113.6 36.7936 113.594 38.2598C113.532 49.5727 113.541 60.8824 113.569 72.1952C113.578 75.8005 113.337 79.3842 112.914 82.9617C112.479 86.6288 112.467 86.601 116.22 86.4312C117.116 86.3911 117.467 86.067 117.609 85.1903C118.048 82.4463 118.443 79.6898 118.452 76.9179C118.505 62.469 118.474 48.0201 118.514 33.5711C118.517 32.2963 118.057 31.8703 116.832 31.8086C113.541 31.6419 110.297 31.077 107.074 30.435C90.5569 27.1415 75.8391 20.0667 62.958 9.22306C61.9116 8.34026 61.322 8.50385 60.3898 9.29405C55.9078 13.0938 51.0924 16.4244 45.9807 19.3228C33.8805 26.1877 20.9099 30.3547 7.07182 31.7901C4.96046 32.0092 4.94811 31.9382 4.94811 34.0249C4.94811 47.0323 4.9728 60.0428 4.93268 73.0503C4.92033 77.276 5.15801 81.4739 5.87723 85.6379C8.84054 102.809 16.7952 117.249 30.127 128.46C39.6651 136.482 50.6541 142.489 60.8744 149.573C61.5412 150.036 62.0721 149.907 62.6925 149.487C71.567 143.52 80.46 137.584 89.3222 131.602C90.5754 130.757 91.8317 129.868 93.1158 128.374L93.1097 128.383Z" fill="black"/>
<path d="M111.081 158C111.081 152.809 111.124 147.617 111.053 142.425C111.035 141.039 111.501 140.625 112.828 140.699C114.52 140.795 116.221 140.752 117.915 140.715C119.866 140.672 121.598 140.736 123.246 142.292C125.092 144.033 128.2 143.339 129.824 141.298C131.38 139.344 131.17 136.455 129.349 134.705C127.463 132.893 124.518 132.766 122.672 134.619C121.737 135.557 120.78 135.844 119.533 135.807C117.168 135.742 114.804 135.754 112.439 135.798C111.464 135.816 111.066 135.489 111.072 134.47C111.103 128.763 111.103 123.059 111.072 117.351C111.066 116.33 111.473 116.003 112.445 116.03C114.038 116.077 115.634 116.006 117.227 116.046C118.15 116.07 118.502 115.715 118.502 114.786C118.502 113.536 118.341 112.437 117.61 111.314C114.973 107.27 115.825 101.819 119.434 98.7292C123.249 95.4635 128.657 95.482 132.414 98.7786C135.998 101.921 136.748 107.31 134.176 111.403C133.88 111.876 133.494 112.345 133.365 112.866C132.747 115.407 133.272 116.04 135.874 116.04C142.301 116.04 148.727 116.061 155.151 116.024C156.426 116.015 156.846 116.28 156.568 117.697C153.66 132.507 147.104 145.419 136.714 156.38C136.288 156.827 135.568 157.164 135.769 158H111.084H111.081ZM139.569 120.978V120.972C136.278 120.972 132.988 120.947 129.697 120.988C128.703 121 128.33 120.645 128.349 119.645C128.392 117.126 128.392 114.604 128.349 112.085C128.33 111.101 128.528 110.298 129.324 109.638C130.188 108.922 130.633 107.925 130.79 106.826C131.114 104.542 129.824 102.359 127.685 101.526C125.546 100.689 123.116 101.442 121.817 103.344C120.508 105.258 120.687 107.718 122.274 109.456C122.82 110.054 123.462 110.527 123.444 111.508C123.388 114.231 123.394 116.959 123.444 119.682C123.462 120.722 123.011 121.012 122.055 120.984C120.462 120.941 118.866 121.012 117.273 120.969C116.332 120.944 116.004 121.333 116.02 122.247C116.057 124.25 116.026 126.257 116.026 128.263C116.026 130.877 116.65 131.396 119.19 130.785C119.715 130.658 120.184 130.276 120.656 129.979C124.746 127.405 130.173 128.155 133.278 131.736C136.581 135.545 136.599 140.888 133.324 144.712C130.228 148.327 124.786 149.182 120.746 146.527C119.564 145.749 118.403 145.644 117.113 145.66C116.316 145.669 116.017 146.009 116.026 146.78C116.048 148.324 116.094 149.87 116.004 151.407C115.93 152.67 116.363 153.114 117.656 153.089C121.511 153.018 125.382 152.87 129.222 153.13C132.127 153.324 134.041 152.386 135.893 150.129C142.619 141.943 147.545 132.868 150.413 122.664C150.774 121.373 150.552 120.92 149.138 120.954C145.952 121.031 142.764 120.978 139.575 120.978H139.569Z" fill="black"/>
<path d="M157.982 39.5195C156.904 39.5195 155.818 39.4362 154.747 39.538C153.358 39.6707 153.015 39.1028 153.021 37.7786C153.067 27.7622 153.046 17.7458 153.046 7.72935C153.046 5.1612 153.046 2.59305 153.046 0.0248954C154.382 0.0248954 155.722 0.0773697 157.055 0.00328835C157.833 -0.0399258 158.006 0.176145 158.003 0.947825C157.969 8.81588 157.982 16.6839 157.982 24.552V39.5164V39.5195Z" fill="#66C6EB"/>
<path d="M148.107 0.0245711C148.107 9.21374 148.107 18.406 148.107 27.5952C148.107 29.6355 148.101 29.6571 146.104 29.6386C142.736 29.6046 143.187 30.0399 143.177 26.6692C143.153 17.7856 143.168 8.90507 143.168 0.0214844H148.104L148.107 0.0245711Z" fill="#66C6EB"/>
<path d="M138.232 0.0245711C138.232 6.02824 138.198 12.0319 138.257 18.0325C138.269 19.3536 137.92 19.8444 136.534 19.795C132.753 19.6592 133.33 20.2333 133.306 16.6466C133.269 11.1059 133.296 5.56524 133.296 0.0214844H138.232V0.0245711Z" fill="#66C6EB"/>
<path d="M59.2447 46.8404C59.2447 41.701 59.2786 36.5616 59.2231 31.4222C59.2107 30.1536 59.4669 29.564 60.9085 29.6165C64.7638 29.7616 64.1588 29.1566 64.1712 32.8946C64.2021 42.7104 64.1496 52.5261 64.2144 62.3419C64.2237 63.8513 63.7576 64.2835 62.2882 64.2248C58.7817 64.0859 59.2755 64.6076 59.2539 61.1751C59.2231 56.3969 59.2447 51.6156 59.2478 46.8373L59.2447 46.8404Z" fill="#66C6EB"/>
<path d="M49.3699 46.7675C49.3699 44.045 49.4255 41.3194 49.3452 38.6C49.3113 37.3591 49.7743 37.0042 50.9535 37.035C54.9447 37.1369 54.2563 36.5689 54.2933 40.3779C54.3397 45.258 54.2717 50.1382 54.3273 55.0183C54.3427 56.2838 54.0804 56.8765 52.6419 56.824C48.7649 56.682 49.4378 57.2623 49.3761 53.5459C49.3391 51.2864 49.3699 49.0238 49.3699 46.7644V46.7675Z" fill="#66C6EB"/>
<path d="M39.4952 46.8789C39.4952 46.314 39.4582 45.7461 39.5045 45.1843C39.5848 44.1811 39.0168 42.7952 39.8286 42.2612C40.9152 41.5451 42.4153 42.0266 43.7396 42.0389C44.2705 42.042 44.4063 42.4464 44.4094 42.8909C44.4156 45.5609 44.5637 48.2402 44.3662 50.8947C44.2273 52.7375 42.5789 51.6788 41.6406 51.7961C40.9213 51.8856 39.6064 52.4566 39.5261 50.8793C39.4582 49.5489 39.5107 48.2093 39.5107 46.8758C39.5045 46.8758 39.5014 46.8758 39.4952 46.8758V46.8789Z" fill="#66C6EB"/>
<path d="M12.8008 79.0132C15.1375 78.9514 15.514 79.2138 15.3258 82.4888C15.1992 84.6773 12.8625 84.097 11.6957 84.0445C9.50099 83.9426 10.4764 81.7295 10.3036 80.5164C9.98562 78.3217 12.0538 79.4484 12.8008 79.0132Z" fill="#26B2E3"/>
<path d="M14.8103 71.6552C14.7764 74.3715 15.0573 74.0505 12.1032 74.0721C9.87146 74.0876 9.85603 74.0721 9.87764 71.4855C9.89924 68.8494 9.62452 69.1642 12.6588 69.1426C14.8103 69.1272 14.8103 69.1426 14.8072 71.6552H14.8103Z" fill="#26B2E3"/>
</g>
<defs>
<clipPath id="clip0_931_5836">
<rect width="158" height="158" fill="white"/>
</clipPath>
</defs>
</svg>
