<svg width="158" height="158" viewBox="0 0 158 158" fill="none" xmlns="http://www.w3.org/2000/svg">
<g clip-path="url(#clip0_931_5867)">
<path d="M121.17 157.99C111.826 157.99 102.482 157.996 93.1381 157.987C90.0372 157.987 87.4378 157.025 85.8825 154.099C85.0986 152.626 85.143 151.049 85.1779 149.458C85.2319 146.91 85.2224 146.907 82.7531 146.903C79.849 146.9 76.9448 146.945 74.0439 146.878C72.7934 146.85 72.3649 147.297 72.4062 148.538C72.4506 149.849 72.5966 151.176 72.203 152.48C71.1239 156.067 68.3467 157.987 64.1032 157.99C49.5319 157.999 34.9636 157.996 20.3923 157.996C16.4344 157.996 12.4734 158.006 8.51552 157.996C2.7898 157.98 0.0348553 155.238 0.0285075 149.554C0.0221597 145.691 0.0856378 141.832 0.00311632 137.972C-0.0349705 136.153 1.1235 134.576 1.10129 132.948C1.07907 131.37 -0.00640539 129.825 0.00946412 128.076C0.0507248 124.004 0.00946412 119.932 0.0253336 115.856C0.0475509 110.883 2.93898 108.026 7.94422 108.023C15.8631 108.02 23.782 107.995 31.6977 108.055C33.1291 108.064 33.6274 107.668 33.602 106.179C33.5163 101.421 33.5608 96.6574 33.5735 91.8998C33.5957 85.2504 38.6612 79.8421 45.2979 79.512C46.6753 79.4422 47.0149 78.9217 46.9483 77.6902C46.8721 76.2651 46.8372 74.8305 46.9388 73.4086C47.034 72.047 46.4881 71.6947 45.2026 71.7011C36.9664 71.7455 28.7333 71.7328 20.497 71.7201C12.0481 71.7074 4.79253 66.4546 2.13598 58.4532C-0.942706 49.1759 3.21511 39.3336 12.0512 35.1345C13.1177 34.6299 13.6255 34.1062 13.7302 32.8303C14.8697 19.0556 21.5761 8.99428 34.4336 3.82717C45.9549 -0.80355 57.0096 0.837357 66.9978 8.41029C68.1373 9.27359 68.6514 9.2355 69.6544 8.19763C74.3105 3.37965 80.0013 0.618357 86.7078 0.101011C97.5022 -0.733725 105.859 3.63039 112.14 12.2539C112.81 13.1743 113.356 13.2505 114.356 12.9394C127.2 8.93398 141.254 17.7257 143.4 31.0307C143.714 32.9826 143.74 34.9251 143.667 36.877C143.632 37.8704 143.946 38.3814 144.904 38.756C151.465 41.3395 155.496 46.1226 156.178 53.1687C156.978 61.4049 151.014 70.1617 141.575 71.0123C132.161 71.8629 122.693 71.2028 113.248 71.3139C109.988 71.3519 110.395 71.3139 110.407 74.1259C110.414 75.3415 110.436 76.5603 110.372 77.7759C110.312 78.9407 110.642 79.439 111.953 79.4993C117.787 79.7691 122.586 84.0348 123.617 89.7796C123.792 90.7572 123.747 91.7823 123.75 92.7853C123.763 97.2827 123.811 101.777 123.725 106.271C123.7 107.703 124.188 108.061 125.547 108.052C133.57 107.998 141.594 108.023 149.618 108.026C154.55 108.03 157.372 110.607 157.533 115.523C157.673 119.802 157.562 124.089 157.562 128.374C157.562 130.056 156.197 131.551 156.372 133.024C156.546 134.497 157.537 135.947 157.549 137.556C157.587 141.841 157.651 146.126 157.54 150.407C157.419 155.127 154.274 157.955 149.199 157.977C139.855 158.015 130.511 157.99 121.167 157.987L121.17 157.99ZM126.204 65.8516V65.8389C130.796 65.8389 135.389 65.8357 139.982 65.8389C142.111 65.8389 144.028 65.1723 145.771 63.9821C149.719 61.2875 151.684 56.5235 150.694 52.0927C149.681 47.5604 145.628 43.9643 140.648 43.1772C138.182 42.7868 137.446 41.7013 137.919 39.2035C138.115 38.1688 138.363 37.1246 138.407 36.0804C139.03 22.1787 124.941 13.4314 113.429 19.0175C111.464 19.9696 110.334 19.5761 109.239 17.6336C108.433 16.2022 107.544 14.8343 106.507 13.5552C97.4356 2.37353 80.1092 2.56079 71.7174 13.9329C69.6353 16.7545 68.2547 16.8783 65.7378 14.355C57.9205 6.51229 45.4883 4.66826 35.4715 9.05141C25.388 13.4663 18.4943 23.9116 19.1513 35.2393C19.2877 37.6229 18.6879 38.4671 16.7042 39.0384C9.81365 41.0253 5.60505 47.3445 6.58261 54.2446C7.57922 61.2843 13.4605 66.4197 20.5954 66.4356C28.7269 66.4546 36.8553 66.4038 44.9868 66.4705C46.5103 66.4832 46.9769 66.0293 46.9642 64.4995C46.8975 56.6187 47.0149 48.7347 46.8975 40.8571C46.8372 36.9341 48.4369 34.0554 51.5155 31.8337C54.2102 29.8913 57.2444 28.6693 60.3993 27.7647C71.1588 24.6892 82.0294 24.5464 92.9604 26.6983C97.334 27.5616 101.552 28.9105 105.31 31.4052C108.709 33.6618 110.506 36.7183 110.426 40.9745C110.284 48.6427 110.417 56.314 110.357 63.9821C110.344 65.4485 110.82 65.8992 112.264 65.877C116.907 65.8008 121.554 65.8484 126.201 65.8484L126.204 65.8516ZM53.0327 108.023C55.0386 108.023 57.0445 108.023 59.0504 108.023C61.0563 108.023 63.0622 108.01 65.0681 108.023C69.5528 108.055 72.4093 110.892 72.4252 115.349C72.4411 119.316 72.403 123.28 72.4411 127.248C72.4569 128.965 72.3776 130.634 71.435 132.138C71.2286 132.465 71.0858 132.843 71.3048 133.186C72.6728 135.338 72.4506 137.747 72.4252 140.118C72.4157 140.949 72.6918 141.422 73.5932 141.419C77.0781 141.409 80.5599 141.409 84.0449 141.419C84.8352 141.419 85.3208 141.038 85.1621 140.264C84.4194 136.642 87.1458 133.053 85.2351 129.415C85.0605 129.082 85.1906 128.581 85.1875 128.158C85.1875 123.934 85.3525 119.703 85.143 115.488C84.9113 110.889 88.8914 107.893 92.7033 107.976C100.724 108.147 108.747 108.004 116.771 108.049C118.05 108.055 118.536 107.693 118.517 106.351C118.45 101.539 118.507 96.7273 118.479 91.9125C118.453 88.1197 115.508 85.0219 111.772 84.7553C110.861 84.6918 110.363 84.9521 110.388 85.9614C110.42 87.2817 110.376 88.6053 110.395 89.9288C110.436 92.8488 109.408 95.2895 107.23 97.2478C104.332 99.8536 100.854 101.374 97.1816 102.431C86.5459 105.494 75.78 105.767 64.9475 103.627C60.2628 102.704 55.74 101.307 51.7409 98.5618C48.5606 96.3782 46.7388 93.4836 46.9324 89.494C46.9896 88.3323 46.9102 87.1675 46.9451 86.0058C46.9737 85.0378 46.5484 84.6982 45.6026 84.7521C41.997 84.9553 38.8961 88.0784 38.858 91.7189C38.8072 96.5845 38.8771 101.45 38.8168 106.316C38.8009 107.62 39.2135 108.074 40.5307 108.052C44.698 107.988 48.8685 108.026 53.039 108.026L53.0327 108.023ZM78.4048 30.7196C73.6535 30.5832 68.5816 31.1322 63.5954 32.3859C60.1486 33.2556 56.8033 34.4077 53.9912 36.6898C51.9155 38.3751 51.8932 39.9208 53.842 41.7172C55.0576 42.8376 56.4986 43.6216 58.0093 44.269C62.2148 46.0718 66.6265 46.9827 71.162 47.4651C78.8238 48.2808 86.4158 48.0015 93.8998 46.1099C97.3848 45.2307 100.822 44.1167 103.571 41.6252C105.37 39.9938 105.358 38.5814 103.65 36.8897C102.073 35.3281 100.108 34.4172 98.0703 33.6682C91.8463 31.383 85.3842 30.6244 78.4048 30.7165V30.7196ZM36.1443 130.231C45.6946 130.231 55.2449 130.234 64.7983 130.228C66.4868 130.228 67.1248 129.714 67.1375 128.165C67.1787 123.883 67.1565 119.598 67.147 115.317C67.1438 114.031 66.4424 113.381 65.1855 113.317C64.6587 113.292 64.1318 113.301 63.6018 113.301C53.6992 113.301 43.7934 113.308 33.8909 113.308C25.1309 113.308 16.3709 113.298 7.61413 113.314C6.05257 113.314 5.3321 114.022 5.32258 115.51C5.29718 119.522 5.28766 123.534 5.30353 127.546C5.31305 129.834 5.73201 130.234 7.96961 130.234C17.3612 130.234 26.7559 130.234 36.1475 130.234L36.1443 130.231ZM121.253 130.231C130.755 130.231 140.255 130.234 149.757 130.231C151.735 130.231 152.081 129.914 152.093 127.939C152.122 123.813 152.116 119.687 152.093 115.564C152.084 113.828 151.551 113.314 149.789 113.314C130.838 113.305 111.89 113.305 92.9381 113.314C90.9513 113.314 90.4657 113.841 90.4625 115.904C90.453 119.922 90.453 123.943 90.4625 127.962C90.4657 130.009 90.7005 130.234 92.7509 130.234C102.254 130.234 111.753 130.234 121.256 130.234L121.253 130.231ZM36.3887 135.801C26.8385 135.801 17.2914 135.801 7.74109 135.801C5.6241 135.801 5.30988 136.109 5.30036 138.305C5.28766 142.263 5.29084 146.221 5.30988 150.179C5.3194 151.918 5.92244 152.502 7.74426 152.502C26.6829 152.512 45.6248 152.512 64.5634 152.502C66.6043 152.502 67.1407 151.928 67.1502 149.814C67.1661 145.904 67.1661 141.99 67.1502 138.08C67.1438 136.011 66.9248 135.801 64.8745 135.801C55.3782 135.801 45.8819 135.801 36.3856 135.801H36.3887ZM121.433 135.801C111.832 135.801 102.234 135.801 92.6334 135.801C90.745 135.801 90.472 136.052 90.4657 137.858C90.4498 141.981 90.4466 146.104 90.4657 150.227C90.4752 152.09 90.8687 152.505 92.6779 152.505C111.667 152.515 130.657 152.515 149.646 152.505C151.592 152.505 152.093 151.998 152.103 150.062C152.125 146.097 152.119 142.133 152.109 138.169C152.103 136.007 151.9 135.801 149.76 135.801C140.318 135.795 130.876 135.801 121.433 135.801ZM79.6649 82.3368C82.642 82.4542 86.5681 82.0766 90.4561 81.3339C94.8774 80.4896 99.2002 79.3438 102.92 76.6238C103.961 75.862 104.882 74.9892 104.888 73.5514C104.904 71.0155 104.907 68.4764 104.926 65.9404C104.932 65.1089 104.755 64.728 103.834 65.2327C97.5466 68.689 90.6466 69.9935 83.6322 70.3585C73.2377 70.8981 62.9606 70.1935 53.4643 65.2168C52.4645 64.6931 52.4042 65.2263 52.4042 65.9785C52.4042 67.7242 52.5788 69.4889 52.363 71.2059C51.9377 74.602 53.5595 76.5984 56.4319 77.9156C57.054 78.2012 57.6475 78.5535 58.2791 78.8169C64.8142 81.5338 71.673 82.359 79.6712 82.34L79.6649 82.3368ZM79.9759 99.5648C84.8542 99.6631 91.0528 98.9141 97.061 96.8828C99.2161 96.1528 101.282 95.2038 103.088 93.7882C104.05 93.0329 104.923 92.1854 104.916 90.7984C104.904 88.2625 104.901 85.7234 104.932 83.1874C104.945 82.1559 104.624 81.9655 103.739 82.5019C102.155 83.4635 100.444 84.1586 98.6892 84.7394C91.2528 87.2087 83.6132 87.9451 75.8054 87.6309C68.0389 87.3198 60.5072 86.1709 53.55 82.4733C52.5121 81.921 52.3915 82.3749 52.3979 83.2509C52.4138 85.0473 52.5947 86.8691 52.363 88.637C51.9281 91.9347 53.5944 93.7914 56.2732 95.1181C56.7937 95.3752 57.3016 95.6608 57.8316 95.8894C64.4397 98.7586 71.4159 99.5679 79.9759 99.5648ZM104.923 52.7116H104.916C104.916 51.442 104.885 50.1725 104.926 48.9061C104.961 47.7476 104.558 47.6651 103.631 48.192C101.279 49.5314 98.7495 50.4581 96.1374 51.1278C88.6216 53.048 81.017 53.6892 73.2631 53.0576C66.3726 52.499 59.6756 51.35 53.4897 48.0809C52.5502 47.5858 52.3979 47.9952 52.3979 48.8109C52.4042 50.8739 52.5153 52.9433 52.3661 54.9968C52.1979 57.3265 53.3183 58.7674 55.1338 59.9322C57.6094 61.516 60.3168 62.5412 63.1352 63.2648C71.4635 65.3977 79.8997 65.7119 88.3772 64.4677C92.8175 63.8171 97.1721 62.7538 101.171 60.5702C103.656 59.2118 105.466 57.4788 104.935 54.3017C104.85 53.7876 104.923 53.2448 104.923 52.718V52.7116Z" fill="black"/>
<path d="M23.0076 121.979C23.0076 125.934 19.9353 129.079 16.0282 129.121C12.264 129.162 8.95042 125.871 8.90598 122.043C8.86155 118.158 12.0196 115.006 15.9584 115C19.9639 114.994 23.0076 118.009 23.0108 121.979H23.0076ZM16.0377 123.649C17.0058 123.541 17.7231 123.049 17.6882 121.973C17.6564 120.961 17.0566 120.297 15.9806 120.307C14.9078 120.313 14.2762 120.999 14.2667 121.989C14.2572 123.001 14.9174 123.608 16.0346 123.652L16.0377 123.649Z" fill="#26B2E3"/>
<path d="M40.2388 122.011C40.207 125.912 37.0331 129.121 33.2022 129.124C29.3333 129.13 26.061 125.76 26.1467 121.862C26.2355 117.961 29.4031 114.94 33.3514 114.997C37.1791 115.051 40.2705 118.196 40.2388 122.011ZM34.8685 122.043C34.8241 121.056 34.3385 120.37 33.2816 120.32C32.231 120.269 31.6248 120.872 31.5582 121.922C31.4915 122.998 32.0406 123.605 33.1197 123.639C34.1608 123.671 34.7987 123.189 34.8685 122.043Z" fill="#26B2E3"/>
<path d="M53.7278 124.706C51.6203 124.706 49.5128 124.741 47.4085 124.696C45.501 124.658 44.3521 123.598 44.3584 121.992C44.3648 120.386 45.4979 119.441 47.472 119.434C51.633 119.425 55.794 119.421 59.955 119.434C61.926 119.441 63.094 120.393 63.1352 121.97C63.1765 123.503 61.8181 124.671 59.8915 124.696C57.838 124.725 55.7845 124.703 53.731 124.703L53.7278 124.706Z" fill="#66C6EB"/>
<path d="M111.496 122.024C111.496 118.003 114.47 115.006 118.469 115C122.373 114.994 125.515 118.091 125.566 122.005C125.614 125.715 122.186 129.162 118.482 129.124C114.549 129.086 111.496 125.982 111.496 122.024ZM120.104 121.976C120.059 120.976 119.561 120.313 118.485 120.31C117.444 120.31 116.822 120.91 116.793 121.957C116.765 123.014 117.336 123.627 118.415 123.636C119.469 123.643 120.066 123.113 120.104 121.979V121.976Z" fill="#26B2E3"/>
<path d="M94.0364 121.917C94.0681 117.902 97.169 114.95 101.292 115.001C104.97 115.048 108.106 118.241 108.119 121.958C108.128 125.732 104.815 129.109 101.082 129.128C97.1151 129.147 94.0046 125.96 94.0364 121.917ZM101.092 123.653C102.079 123.577 102.676 123.085 102.657 122.05C102.638 120.999 102.092 120.317 101.016 120.317C99.9557 120.317 99.359 120.958 99.3654 122.028C99.3717 123.132 100.029 123.627 101.095 123.653H101.092Z" fill="#26B2E3"/>
<path d="M138.944 124.703C136.836 124.703 134.726 124.734 132.618 124.693C130.762 124.655 129.543 123.509 129.594 121.954C129.644 120.421 130.784 119.45 132.618 119.444C136.887 119.428 141.156 119.428 145.425 119.444C147.193 119.45 148.297 120.377 148.386 121.849C148.475 123.316 147.282 124.607 145.581 124.671C143.371 124.75 141.153 124.69 138.941 124.69C138.941 124.693 138.941 124.696 138.941 124.703H138.944Z" fill="#66C6EB"/>
<path d="M33.2816 137.17C37.2109 137.202 40.3087 140.357 40.2388 144.258C40.169 148.146 36.884 151.38 33.1166 151.269C29.219 151.154 26.0896 147.927 26.153 144.086C26.2165 140.116 29.2857 137.138 33.2816 137.17ZM33.2562 142.486C32.1739 142.534 31.5614 143.061 31.555 144.153C31.5519 145.146 32.0565 145.752 33.0753 145.794C34.1354 145.838 34.7924 145.337 34.8368 144.232C34.8813 143.15 34.3068 142.579 33.2531 142.486H33.2562Z" fill="#26B2E3"/>
<path d="M16.1741 137.15C20.0971 137.229 23.0837 140.375 23.0107 144.352C22.9377 148.214 19.6083 151.404 15.8091 151.255C12.0258 151.106 8.88049 147.865 8.9027 144.142C8.9281 140.184 12.1686 137.071 16.1741 137.15ZM16.0694 142.485C14.9204 142.546 14.2793 143.145 14.2952 144.171C14.311 145.17 14.9046 145.846 16.0059 145.812C17.0565 145.777 17.7071 145.205 17.7008 144.148C17.6912 143.098 17.0247 142.565 16.0694 142.485Z" fill="#26B2E3"/>
<path d="M53.7055 146.892C51.6996 146.892 49.6968 146.92 47.6909 146.885C45.5708 146.847 44.4282 145.923 44.3647 144.276C44.298 142.619 45.3994 141.509 47.4846 141.467C51.6488 141.388 55.8193 141.391 59.9866 141.461C61.9925 141.493 63.205 142.705 63.1224 144.302C63.0463 145.797 61.7735 146.844 59.8787 146.882C57.822 146.92 55.7653 146.892 53.7055 146.892Z" fill="#66C6EB"/>
<path d="M94.0426 144.045C94.0807 140.052 97.1181 137.116 101.155 137.177C105.034 137.234 108.097 140.3 108.116 144.143C108.135 148.022 104.735 151.38 100.905 151.266C96.9531 151.148 94.0045 148.047 94.0426 144.045ZM102.672 144.096C102.587 143.064 102.034 142.452 100.946 142.515C99.8762 142.579 99.3145 143.236 99.3716 144.299C99.4319 145.41 100.149 145.86 101.193 145.81C102.238 145.759 102.666 145.124 102.672 144.096Z" fill="#26B2E3"/>
<path d="M111.49 144.134C111.49 140.166 114.546 137.126 118.517 137.145C122.43 137.164 125.633 140.369 125.572 144.207C125.512 148.031 122.24 151.275 118.437 151.272C114.581 151.272 111.487 148.091 111.487 144.134H111.49ZM118.409 145.825C119.545 145.813 120.107 145.244 120.11 144.153C120.113 143.137 119.577 142.559 118.568 142.518C117.498 142.474 116.844 143.029 116.8 144.105C116.755 145.19 117.371 145.752 118.406 145.825H118.409Z" fill="#26B2E3"/>
<path d="M138.931 146.895C136.928 146.895 134.922 146.927 132.92 146.889C130.914 146.848 129.613 145.775 129.593 144.232C129.574 142.661 130.819 141.484 132.809 141.452C136.922 141.385 141.035 141.392 145.149 141.452C147.139 141.481 148.418 142.655 148.399 144.204C148.38 145.778 147.091 146.857 145.101 146.889C143.044 146.924 140.988 146.895 138.931 146.898V146.895Z" fill="#66C6EB"/>
<path d="M82.4484 73.4178C83.2863 73.4178 84.3401 73.4051 85.3938 73.4178C86.8411 73.44 87.6473 74.2937 87.8726 75.6204C88.0948 76.9281 87.4886 78.077 86.2317 78.3341C83.5053 78.8864 80.7186 79.2482 77.9415 78.6801C76.7259 78.4293 76.0689 77.5248 76.0562 76.2647C76.0403 74.9349 76.7386 74.0811 77.9891 73.6939C79.3792 73.2622 80.8202 73.5606 82.4484 73.4178Z" fill="#66C6EB"/>
<path d="M67.0866 78.0592C65.1506 77.8497 62.9352 77.3863 60.7896 76.6722C59.4534 76.2279 58.825 74.9044 59.1614 73.6411C59.5296 72.2446 60.8468 71.3908 62.3036 71.667C64.1603 72.0193 66.0012 72.4509 67.8611 72.7905C69.5147 73.0921 70.5716 74.1807 70.4827 75.6121C70.3875 77.1578 69.2132 78.0973 67.0866 78.0592Z" fill="#66C6EB"/>
<path d="M81.2201 96.1246C80.2933 96.1246 79.4998 96.1754 78.7127 96.1151C77.0654 95.9881 75.9863 94.8392 76.053 93.357C76.1164 91.9128 77.1702 90.9575 78.7825 90.8781C80.8329 90.7766 82.8864 90.6306 84.9367 90.5925C86.7331 90.5607 87.8948 91.624 87.917 93.1665C87.9392 94.636 86.895 95.6485 85.1748 95.8516C83.8163 96.0103 82.4611 96.2293 81.2201 96.131V96.1246Z" fill="#66C6EB"/>
<path d="M67.347 95.2875C65.2395 95.1415 63.2082 94.6019 61.1833 94.0655C59.6439 93.6593 58.86 92.3548 59.1456 90.9805C59.4598 89.4792 60.6755 88.6636 62.3417 88.946C64.3032 89.2793 66.2615 89.657 68.2039 90.0886C69.7211 90.4251 70.6542 91.7264 70.4542 93.0531C70.2321 94.5099 68.9847 95.4113 67.347 95.2875Z" fill="#66C6EB"/>
<path d="M80.6743 61.8299C79.884 61.8299 79.081 61.9156 78.3066 61.8108C76.945 61.6268 76.0214 60.4842 76.0436 59.1733C76.0658 57.8562 77.0243 56.7453 78.405 56.6374C80.5569 56.4692 82.7151 56.3454 84.8734 56.3168C86.7365 56.2914 87.9553 57.4436 87.9204 59.0178C87.8886 60.554 86.7682 61.4839 84.9274 61.5791C83.5086 61.6521 82.0931 61.795 80.6743 61.9061V61.8299Z" fill="#66C6EB"/>
<path d="M67.5278 60.8945C65.3442 60.5676 63.1669 60.1963 61.0499 59.5583C59.6344 59.133 58.8441 57.7936 59.1234 56.5241C59.4376 55.08 60.6341 54.1754 62.1735 54.4293C64.2968 54.7816 66.4043 55.2323 68.4991 55.7274C69.8321 56.0417 70.6446 57.3303 70.4637 58.5839C70.2638 59.9805 69.0196 60.958 67.5247 60.8914L67.5278 60.8945Z" fill="#66C6EB"/>
</g>
<defs>
<clipPath id="clip0_931_5867">
<rect width="157.603" height="158" fill="white"/>
</clipPath>
</defs>
</svg>
