<svg width="124" height="115" viewBox="0 0 124 115" fill="none" xmlns="http://www.w3.org/2000/svg">
<g clip-path="url(#clip0_996_6586)">
<path d="M80.4938 33.9563C80.5258 42.1405 79.1147 40.1064 87.038 41.9754C88.2414 42.2577 89.4767 42.3855 90.6748 42.673C93.3425 43.3226 94.0241 44.6645 92.8579 47.1139C91.6812 49.5846 90.5097 52.0713 89.1306 54.4302C88.0976 56.198 88.1295 57.3482 89.9772 58.5569C92.2616 60.0532 94.3808 61.8104 96.5054 63.5356C98.5661 65.2129 98.5554 66.8689 96.4628 68.5516C94.1945 70.378 91.8675 72.1405 89.5033 73.8445C88.268 74.7337 88.0603 75.607 88.8058 76.9648C90.2062 79.5207 91.4948 82.1352 92.7514 84.7656C93.9921 87.3642 93.3159 88.7806 90.5417 89.4089C87.9591 89.9893 85.3766 90.6123 82.7569 90.9531C80.7814 91.2087 80.2915 92.1938 80.3767 93.9776C80.4938 96.5335 80.4672 99.1 80.4725 101.661C80.4779 105.666 79.5993 106.336 75.6536 105.303C73.4332 104.723 71.1915 104.191 69.0243 103.461C67.118 102.817 65.9466 103.035 65.2384 105.186C64.4663 107.524 63.3428 109.75 62.3577 112.018C60.8455 115.511 59.493 115.852 56.6602 113.445C54.706 111.789 52.6826 110.197 50.8669 108.402C49.4558 107.007 48.4494 107.194 47.1129 108.477C45.2066 110.309 43.1406 111.986 41.1119 113.69C38.6519 115.751 37.2142 115.399 35.8777 112.407C34.834 110.069 33.6626 107.764 32.8798 105.335C32.1503 103.056 30.9309 102.838 28.9129 103.498C26.4848 104.292 23.9875 104.883 21.5008 105.484C18.6201 106.187 17.5977 105.367 17.5711 102.348C17.5445 99.6964 17.4593 97.034 17.6723 94.3982C17.864 92.0393 16.9321 91.0383 14.6691 90.7561C12.486 90.4845 10.3348 89.9573 8.17291 89.526C4.37103 88.7752 3.76933 87.492 5.5691 83.9829C6.77782 81.6293 7.94395 79.2438 9.24851 76.9382C10.0206 75.5803 9.78099 74.7177 8.54564 73.8232C6.256 72.1671 4.0196 70.4366 1.80982 68.6741C-0.591647 66.7571 -0.596971 65.2396 1.75657 63.3599C3.75868 61.7625 5.70222 60.0532 7.86408 58.706C9.96736 57.3961 9.93541 56.0969 8.79058 54.1693C7.48602 51.9754 6.41574 49.6325 5.31352 47.3216C4.00362 44.5793 4.69584 43.2268 7.69368 42.5931C10.2815 42.0447 12.8694 41.4643 15.4838 41.0649C17.1505 40.8093 17.7149 39.968 17.667 38.3812C17.5818 35.5537 17.5551 32.7262 17.5658 29.8988C17.5818 26.5921 18.684 25.7507 21.8203 26.5708C24.5519 27.2843 27.2995 27.9552 30.0044 28.7593C31.293 29.1426 31.9373 28.8019 32.4272 27.5771C33.4496 25.0372 34.5891 22.5505 35.686 20.0372C37.2088 16.5441 38.5294 16.1927 41.3941 18.5782C43.4282 20.2715 45.4888 21.9595 47.3951 23.7912C48.6411 24.9946 49.5197 24.8668 50.7178 23.7433C52.7785 21.8104 54.9403 19.984 57.1288 18.1948C59.3652 16.3631 60.8401 16.7358 62.0542 19.3982C63.2682 22.05 64.4823 24.7017 65.5366 27.4174C66.117 28.919 66.9263 29.1852 68.3693 28.7486C70.9891 27.9605 73.6409 27.2736 76.2926 26.608C79.5034 25.804 80.4512 26.5814 80.4938 29.9627C80.5098 31.2885 80.4938 32.6144 80.4938 33.9403V33.9563ZM75.398 38.1522C75.398 31.1288 76.2074 31.7678 69.7431 33.4078C63.5345 34.984 63.5451 35.0425 60.9892 29.1373C58.5505 23.5143 58.5292 23.4877 53.9446 27.4121C48.8701 31.7518 49.2641 31.8476 44.2003 27.5079C39.4878 23.4717 39.4559 23.509 37.0331 29.1533C34.5039 35.0479 34.5198 34.9786 28.3271 33.4185C21.9907 31.8263 22.603 31.0702 22.6403 37.8647C22.6829 45.0585 23.3804 44.5207 15.8033 46.017C10.4892 47.066 10.4785 47.0234 13.061 51.9009C15.3294 56.1927 14.5396 59.794 10.6915 62.7049C7.76291 64.9201 7.73451 67.121 10.6063 69.3077C17.1824 74.329 16.4689 73.3705 12.9865 80.2822C10.5637 85.0851 10.4945 85.0212 15.6436 86.0383C23.5615 87.6038 22.6722 86.9914 22.6296 94.5793C22.5977 100.74 22.1451 100.277 27.9171 98.7646C32.3012 97.618 35.3949 99.1355 37.1982 103.317C38.7175 106.839 40.9575 107.338 43.918 104.814C49.2535 100.256 48.721 100.165 54.067 104.76C58.5452 108.61 58.5665 108.584 60.9253 103.099C63.5345 97.0393 63.5185 97.0873 69.8443 98.69C76.0423 100.261 75.4513 100.82 75.4034 94.3184C75.3501 86.9328 74.6952 87.5718 82.1232 86.0809C87.6397 84.9733 87.6503 85.0266 84.9453 80.0532C82.6734 75.8714 83.4367 72.3411 87.235 69.4621C90.2417 67.1831 90.263 64.9165 87.2989 62.6623C81.0689 57.9286 81.4842 58.8285 84.8548 52.1352C86.5516 48.7593 85.5062 46.695 81.7185 45.9424C77.4729 45.0976 75.3643 42.4991 75.3927 38.1469L75.398 38.1522Z" fill="black"/>
<path d="M123.519 25.7927C123.466 40.1111 112.018 51.6127 97.9869 51.3571C96.7728 51.3358 95.0636 51.8044 95.202 49.6052C95.3138 47.8427 95.6812 46.5381 98.0561 46.389C108.439 45.7447 115.527 40.1217 118.013 30.8459C121.128 19.2431 112.838 6.7458 100.969 5.16433C89.1424 3.58819 79.2969 10.782 77.2948 22.6137C76.9061 24.9087 75.5749 24.9354 73.8763 24.7596C71.8582 24.5467 72.1405 23.077 72.3215 21.7778C74.0041 9.6638 84.8613 0.446546 97.0497 0.0152362C108.876 -0.405424 120.931 7.91194 123.295 21.5648C123.535 22.9439 123.45 24.3816 123.519 25.7927Z" fill="#66C6EB"/>
<path d="M100.12 28.6521C101.51 27.8161 102.037 25.7288 104.012 27.2357C105.642 28.4764 106.249 29.4934 104.72 31.2666C103.107 33.1356 101.765 35.2335 100.21 37.1558C98.5757 39.1739 97.0528 39.1899 95.4341 37.1824C93.826 35.1909 92.4043 33.0504 90.7802 31.0695C89.6301 29.6691 89.7259 28.7266 91.1955 27.5924C92.6119 26.5062 93.6449 26.3411 94.6407 27.9758C94.7631 28.1782 95.0081 28.3113 95.5086 28.7586C95.5086 24.1579 95.5512 19.8715 95.4873 15.585C95.4607 13.8331 95.7642 12.7469 97.9207 12.7841C100.008 12.8161 100.141 13.9662 100.125 15.5317C100.093 19.8289 100.115 24.126 100.115 28.6574L100.12 28.6521Z" fill="#66C6EB"/>
<path d="M48.8538 34.0514C62.8899 33.4124 79.1304 44.1898 80.9302 62.603C82.8258 81.9534 69.1252 95.6435 53.6407 97.8373C44.3277 99.1579 35.7442 96.8256 28.4067 90.6754C27.4482 89.8714 26.0265 89.1313 27.5601 87.5338C28.8007 86.2452 29.658 85.2921 31.6388 86.8789C47.7942 99.8128 70.7066 92.028 75.5362 72.0546C79.6469 55.0631 66.3084 38.7319 48.5183 38.9768C34.5036 39.1739 23.4067 49.5253 21.9637 63.5721C21.6868 66.2612 21.8253 68.8916 22.3844 71.4475C22.8636 73.636 22.23 74.5572 20.1693 75.0045C17.7891 75.521 17.8211 73.7532 17.5176 72.3474C13.8648 55.5903 24.935 38.6147 42.0487 34.6318C44.4023 34.0833 46.7612 33.9662 48.8485 34.0461L48.8538 34.0514Z" fill="black"/>
<path d="M66.9575 50.9157C66.8989 51.7517 66.3398 52.2256 65.85 52.7155C55.7968 62.7794 45.7224 72.8114 35.7065 82.9125C34.3114 84.3183 33.4328 83.9242 32.2401 82.7155C31.1059 81.5654 30.7971 80.7187 32.0856 79.4408C42.2346 69.3556 52.341 59.2171 62.4687 49.1106C63.0012 48.5781 63.5816 47.7315 64.4762 48.2959C65.5145 48.9509 66.4144 49.8188 66.9628 50.9211L66.9575 50.9157Z" fill="black"/>
<path d="M40.511 51.017C44.446 51.017 47.1137 53.722 47.0764 57.6571C47.0391 61.4324 44.3554 64.0841 40.5642 64.0895C36.6558 64.1001 33.9775 61.3845 34.0041 57.4388C34.0307 53.6741 36.7251 51.0117 40.5163 51.0117L40.511 51.017Z" fill="black"/>
<path d="M57.5385 81.0646C53.6301 81.0753 50.9358 78.349 50.973 74.4246C51.0103 70.644 53.6833 68.0029 57.4799 67.9922C61.3989 67.9816 64.0826 70.6972 64.0453 74.6323C64.0081 78.4129 61.3403 81.0593 57.5385 81.0646Z" fill="black"/>
<path d="M26.5846 81.294C25.7806 82.9766 24.476 84.2386 23.1235 84.0575C21.3504 83.8179 20.573 81.7413 20.4186 80.2237C20.2215 78.3067 22.4366 77.9447 23.6667 77.9553C25.5463 77.9766 25.3546 80.3408 26.5846 81.2886V81.294Z" fill="black"/>
</g>
<defs>
<clipPath id="clip0_996_6586">
<rect width="123.519" height="115" fill="white"/>
</clipPath>
</defs>
</svg>
