<svg width="124" height="115" viewBox="0 0 124 115" fill="none" xmlns="http://www.w3.org/2000/svg">
<g clip-path="url(#clip0_996_6558)">
<path d="M61.622 106.514C48.4574 106.514 35.2927 106.466 22.1228 106.557C19.887 106.573 18.322 105.822 16.7995 104.252C-3.87635 82.8787 -5.71823 47.6169 12.6686 24.2209C13.3766 23.3212 14.0313 22.2992 15.3036 22.1714C16.2565 22.0756 17.0284 22.5281 17.5075 23.3585C18.1835 24.5456 17.7044 25.5783 16.9645 26.5312C13.9675 30.3906 11.54 34.5854 9.54377 39.0357C0.526046 59.1686 4.68889 84.2681 19.6102 100.057C20.8612 101.377 22.1281 101.974 23.9753 101.974C49.16 101.92 74.3394 101.92 99.5241 101.974C101.483 101.974 102.777 101.34 104.06 99.8921C112.673 90.1664 117.432 78.9235 118.47 65.9186C120.849 36.0121 98.9811 9.23038 69.213 5.32837C54.1267 3.35341 40.2967 6.95731 27.9252 15.9271C26.456 16.9918 24.7792 19.1424 22.9799 16.8374C21.1273 14.4632 23.4962 13.2335 25.0773 12.0517C61.0364 -14.8577 114.11 5.69036 122.324 49.8315C126.141 70.3476 120.903 88.4842 106.886 104.039C105.289 105.812 103.554 106.584 101.121 106.568C87.9565 106.466 74.7919 106.52 61.622 106.52V106.514Z" fill="black"/>
<path d="M61.7292 10.6088C87.9254 10.5875 109.857 30.1348 112.652 56.3043C113.818 67.2119 111.689 77.5924 106.136 87.1637C105.29 88.617 104.284 90.0117 102.378 88.9204C100.515 87.8558 101.031 86.2747 101.91 84.7895C106.168 77.6137 108.378 69.7192 108.095 61.5159C107.43 42.0431 98.2686 27.553 80.462 19.4349C52.6795 6.77071 20.2604 24.737 15.8793 54.9469C14.3782 65.3008 16.1934 75.1649 21.3304 84.353C21.719 85.045 22.1023 85.7477 22.3791 86.4877C22.7731 87.531 22.3951 88.4253 21.5327 89.0482C20.5532 89.7509 19.4939 89.6817 18.6155 88.8938C18.1045 88.436 17.7319 87.7972 17.3805 87.1903C6.9734 69.3092 8.61831 46.4136 21.4635 30.1774C31.3809 17.641 45.8284 10.6195 61.7292 10.6035V10.6088Z" fill="black"/>
<path d="M61.6009 115.001C50.9223 115.001 40.2384 115.001 29.5598 114.995C28.7666 114.995 27.9521 115.022 27.1962 114.841C26.1369 114.591 25.5833 113.819 25.5939 112.701C25.6045 111.588 26.1635 110.806 27.2228 110.582C28.0746 110.401 28.9742 110.428 29.8579 110.428C51.2204 110.422 72.5777 110.422 93.9402 110.428C94.7334 110.428 95.5478 110.401 96.3091 110.577C97.3737 110.827 97.9061 111.62 97.9061 112.722C97.9061 113.835 97.3525 114.617 96.2825 114.841C95.4307 115.017 94.5311 114.99 93.6474 114.99C82.9688 115.001 72.2849 114.995 61.6063 114.995L61.6009 115.001Z" fill="black"/>
<path d="M62.3048 53.153C66.0045 55.1812 68.1338 51.9765 70.5825 49.4692C72.8024 47.1962 75.0648 44.971 77.3166 42.7352C78.493 41.5694 79.8505 40.888 81.2452 42.2401C82.6825 43.6348 81.884 45.0136 80.7661 46.1581C77.8116 49.1871 74.8465 52.2161 71.7909 55.1439C70.3377 56.5333 69.7202 57.8269 70.2099 59.9934C71.1788 64.316 69.0867 68.021 65.2326 69.7458C61.634 71.3534 57.1784 70.2036 54.7669 67.0469C52.414 63.97 52.4938 59.3387 54.9585 56.2086C56.6727 54.0313 58.9883 53.1689 62.3048 53.153ZM61.7245 65.4499C63.971 65.4552 65.6851 63.8422 65.6638 61.7395C65.6425 59.7858 63.6941 57.8056 61.7671 57.7843C59.8507 57.763 57.8598 59.7326 57.8278 61.6916C57.7906 63.7943 59.5047 65.4392 61.7298 65.4499H61.7245Z" fill="black"/>
<path d="M83.0425 22.7949C84.336 22.9067 85.3209 23.6786 85.1505 25.1212C84.8897 27.357 83.7132 29.2628 81.9831 30.6575C80.812 31.605 79.6142 31.0674 78.8956 29.8324C77.8309 28.0011 80.7907 22.8535 83.0425 22.7949Z" fill="black"/>
<path d="M28.0878 78.6838C29.5677 78.6465 30.3555 79.099 30.8187 80.0678C31.2552 80.9834 30.9997 81.8458 30.3236 82.4687C28.9608 83.7196 27.3851 84.6885 25.6018 85.1995C24.6117 85.4817 23.6801 85.1463 23.0945 84.22C22.5728 83.4002 22.5462 82.458 23.1424 81.7553C24.5425 80.1104 26.5014 79.3332 28.0931 78.6891L28.0878 78.6838Z" fill="black"/>
<path d="M38.3277 25.5034C38.2851 24.2631 38.6311 23.4965 39.4988 23.0547C40.3559 22.6129 41.2875 22.6448 41.9476 23.3049C43.3902 24.7369 44.4389 26.4563 44.8541 28.4685C45.0457 29.3948 44.5986 30.172 43.7948 30.699C42.959 31.2473 42.0753 31.226 41.362 30.5979C39.7384 29.1712 38.9346 27.2388 38.3277 25.5088V25.5034Z" fill="black"/>
<path d="M25.338 38.3594C27.1532 38.9662 29.1868 39.7754 30.6241 41.58C31.1617 42.2561 31.1298 43.0652 30.656 43.8158C30.0651 44.7421 29.1708 45.1573 28.154 44.8858C26.3388 44.4014 24.7311 43.4432 23.363 42.1709C22.671 41.5268 22.5432 40.6218 22.9159 39.7168C23.2992 38.8012 24.0338 38.3966 25.3327 38.3647L25.338 38.3594Z" fill="black"/>
<path d="M95.1923 44.9446C93.9466 44.9446 93.2227 44.5347 92.7595 43.6936C92.2698 42.8153 92.4135 41.9263 93.0789 41.2715C94.5322 39.8449 96.2676 38.8281 98.2692 38.4022C99.1901 38.2053 99.9886 38.6418 100.468 39.4988C100.941 40.3452 100.952 41.2715 100.308 41.9529C98.8388 43.502 96.9916 44.4602 95.1976 44.9446H95.1923Z" fill="black"/>
<path d="M95.2451 78.6621C97.0071 79.1785 98.8543 80.1314 100.318 81.6911C100.957 82.3725 100.952 83.3094 100.462 84.1451C99.903 85.098 98.9927 85.4653 97.9919 85.1779C96.2086 84.6721 94.6063 83.7565 93.2276 82.5215C92.5408 81.904 92.2587 81.0523 92.6633 80.1313C93.0892 79.1519 93.861 78.6621 95.2504 78.6621H95.2451Z" fill="black"/>
<path d="M59.4923 21.3949C59.4923 20.6923 59.4337 19.9843 59.5029 19.2922C59.636 17.9827 60.3653 17.1842 61.7228 17.1682C63.0909 17.1522 63.8574 17.9454 63.9586 19.255C64.0597 20.5645 64.0224 21.8847 64.0118 23.1995C64.0012 24.6954 63.4582 25.8239 61.7653 25.8293C60.0991 25.8293 59.4976 24.754 59.4657 23.2368C59.455 22.6246 59.4657 22.0071 59.4657 21.3949C59.471 21.3949 59.4816 21.3949 59.487 21.3949H59.4923Z" fill="black"/>
<path d="M21.3883 64.0548C20.6856 64.0548 19.9829 64.1081 19.2856 64.0442C17.9867 63.9271 17.135 63.251 17.1137 61.8776C17.0924 60.3817 17.9707 59.6258 19.4027 59.5566C20.7176 59.4927 22.0324 59.5193 23.3473 59.5513C24.7633 59.5832 25.7321 60.238 25.7694 61.7445C25.812 63.4213 24.7526 64.0442 23.2302 64.0814C22.618 64.0974 22.0005 64.0814 21.3883 64.0814V64.0601V64.0548Z" fill="black"/>
<path d="M102.122 59.5368C102.734 59.5368 103.352 59.5155 103.964 59.5368C105.385 59.59 106.333 60.2448 106.37 61.746C106.407 63.2525 105.508 63.9871 104.076 64.0457C102.766 64.1042 101.446 64.0989 100.131 64.0616C98.7257 64.0191 97.7515 63.3749 97.7196 61.8631C97.6876 60.3619 98.5926 59.6433 100.019 59.5528C100.717 59.5102 101.419 59.5475 102.122 59.5475V59.5315V59.5368Z" fill="black"/>
<path d="M42.5 89.4008C42.5 88.8737 42.5 88.3467 42.5 87.825C42.5106 86.2227 43.0696 85.009 44.8955 85.0622C46.5883 85.1101 47.0461 86.3132 47.0568 87.7825C47.0621 88.8365 47.0568 89.8852 47.0568 90.9392C47.0515 92.5415 46.5085 93.7659 44.6719 93.702C42.9951 93.6435 42.5106 92.4617 42.5 90.9818C42.5 90.4548 42.5 89.9278 42.5 89.4061V89.4008Z" fill="#66C6EB"/>
<path d="M55.5434 89.3093C55.5434 89.7458 55.5434 90.1876 55.5434 90.6241C55.554 92.2584 55.2346 93.7383 53.2011 93.6904C51.1729 93.6371 50.944 92.1147 50.9707 90.507C50.9866 89.5435 50.9707 88.58 50.9919 87.6164C51.0292 86.0993 51.6627 85.0293 53.3236 85.0612C55.0004 85.0985 55.5168 86.2483 55.5434 87.7336C55.554 88.2606 55.5434 88.7876 55.5434 89.3093Z" fill="#66C6EB"/>
<path d="M59.4615 89.4803C59.4615 89.129 59.4615 88.7776 59.4615 88.4263C59.4509 86.7547 59.568 85.046 61.7825 85.0726C64.013 85.0992 64.0343 86.8559 64.0396 88.4955C64.0396 89.3738 64.0396 90.2469 64.0183 91.1252C63.981 92.637 63.3848 93.723 61.7133 93.7017C60.0364 93.6804 59.4934 92.5572 59.4775 91.056C59.4722 90.529 59.4775 90.002 59.4775 89.4803H59.4668H59.4615Z" fill="#66C6EB"/>
<path d="M72.5216 89.3637C72.5216 89.8907 72.5216 90.4177 72.5216 90.9447C72.511 92.547 71.9627 93.7714 70.1314 93.7022C68.4546 93.6436 67.9648 92.4618 67.9648 90.9766C67.9648 89.9226 67.9648 88.8739 67.9648 87.8199C67.9648 86.2123 68.5131 84.9932 70.3497 85.0571C72.0372 85.1156 72.5003 86.3134 72.5163 87.7826C72.5216 88.3096 72.5163 88.8367 72.5163 89.3583H72.5269L72.5216 89.3637Z" fill="#66C6EB"/>
<path d="M80.9834 89.4376C80.9834 90.0498 80.9994 90.6673 80.9781 91.2795C80.9248 92.6902 80.318 93.6697 78.7955 93.7016C77.305 93.7336 76.5384 92.8605 76.4745 91.4179C76.416 90.103 76.4213 88.7882 76.4532 87.4733C76.4905 86.0626 77.1346 85.0778 78.6465 85.0459C80.318 85.0086 80.9355 86.0786 80.9887 87.5957C81.01 88.2079 80.9887 88.8254 80.9887 89.4376H80.9834Z" fill="#66C6EB"/>
</g>
<defs>
<clipPath id="clip0_996_6558">
<rect width="123.533" height="115" fill="white"/>
</clipPath>
</defs>
</svg>
