<svg width="115" height="115" viewBox="0 0 115 115" fill="none" xmlns="http://www.w3.org/2000/svg">
<g clip-path="url(#clip0_996_6599)">
<path d="M44.3625 24.3473C46.8478 24.2063 49.3221 24.3556 51.7743 24.7675C52.4682 24.8836 52.8939 24.5712 53.3528 24.1538C62.6169 15.744 73.2466 9.68135 85.1508 5.89667C90.8458 4.08589 96.7785 3.21782 102.609 1.95994C105.481 1.34068 108.359 0.757361 111.237 0.154687C114.201 -0.464573 115.448 0.782241 114.79 3.77349C113.015 11.8432 111.682 20.018 109.465 27.9799C106.056 40.2159 100.043 51.0999 91.5784 60.5685C90.2293 62.0752 90.279 63.5211 90.4504 65.2019C91.2245 72.7906 90.4311 80.2494 88.3853 87.5672C85.5793 97.5942 80.4897 106.325 73.2024 113.767C71.9887 115.005 70.8691 115.315 69.7964 114.679C68.4694 113.894 68.5164 112.65 68.8316 111.389C69.9817 106.775 70.4986 102.065 70.6009 97.3427C70.7143 92.1453 70.2028 86.9811 68.5358 81.9883C68.1902 80.9516 67.864 80.8631 67.0761 81.5405C66.2412 82.2565 65.3455 82.9089 64.4553 83.5613C62.932 84.681 61.8815 84.6119 60.5435 83.3125C59.6864 82.4804 58.8046 81.6649 58.0139 80.7719C57.3808 80.0587 56.9385 80.0255 56.2612 80.7498C54.7849 82.3256 53.2312 83.8323 51.6913 85.3445C50.2593 86.7489 49.0401 86.7655 47.6413 85.3694C41.6837 79.4283 35.7343 73.479 29.7961 67.5186C28.317 66.0341 28.3474 64.9006 29.8541 63.3718C31.3691 61.8319 32.8868 60.2921 34.4433 58.7937C35.0432 58.2159 35.0736 57.7929 34.4571 57.2124C33.4508 56.2724 32.4777 55.291 31.5322 54.2847C30.407 53.0876 30.3517 52.0233 31.3249 50.6935C32.0575 49.6928 32.8094 48.7031 33.5946 47.7438C34.1475 47.0692 33.9844 46.7762 33.1937 46.5163C30.1223 45.51 26.9762 44.8797 23.7666 44.6087C16.9381 44.0337 10.2009 44.6502 3.53279 46.1818C2.2528 46.4748 0.981103 46.4914 0.289964 45.123C-0.368001 43.8209 0.184911 42.7814 1.17739 41.8221C11.0109 32.2982 22.6884 26.5977 36.2707 24.8228C37.6363 24.6459 38.9993 24.4441 40.3733 24.3611C41.7002 24.281 43.0383 24.3446 44.3708 24.3446L44.3625 24.3473ZM81.4407 12.28C81.3274 12.316 81.1505 12.363 80.9791 12.4321C69.7743 16.9687 59.9684 23.5567 51.7356 32.4281C46.3751 38.2033 42.0071 44.7719 37.0945 50.9036C36.2541 51.9514 36.4614 52.5347 37.3322 53.3973C45.4904 61.4947 53.6182 69.6225 61.7184 77.7779C62.5312 78.5962 63.0675 78.6874 64.0019 77.9548C68.345 74.5544 72.7987 71.2923 77.1197 67.867C88.4157 58.9098 96.7951 47.7438 102.288 34.4048C102.711 33.3791 102.567 32.9064 101.531 32.4005C97.7793 30.5731 94.495 28.0656 91.5258 25.1463C87.896 21.5772 84.8163 17.5907 82.4443 13.0735C82.2452 12.6947 82.1457 12.1446 81.4352 12.28H81.4407ZM109.385 6.35006C109.451 5.48199 109.44 5.4267 108.652 5.59533C101.611 7.09372 94.5116 8.31566 87.5393 10.1347C86.6436 10.3697 86.5939 10.7706 87.0141 11.506C90.9425 18.3925 96.1703 23.9879 103.118 27.9164C104.141 28.4942 104.503 28.2398 104.812 27.1727C105.896 23.4184 106.515 19.5646 107.364 15.7606C108.072 12.5814 108.732 9.39383 109.385 6.35006ZM85.7949 66.7058C81.5928 70.6398 77.2193 73.8412 72.9066 77.1199C72.3122 77.5705 72.1325 78.0544 72.4228 78.7842C75.2315 85.8642 75.4886 93.276 75.2398 100.754C75.2039 101.818 74.7477 102.875 75.1541 104.155C83.1382 92.9249 86.5496 80.595 85.7977 66.7086L85.7949 66.7058ZM48.1334 29.3042C37.5368 27.5625 15.6305 33.9182 11.1021 39.9809C11.5776 39.9809 12.0393 40.0141 12.4899 39.9754C20.579 39.3008 28.5603 39.6049 36.2402 42.5906C36.9867 42.8809 37.3958 42.7482 37.8575 42.1345C41.1225 37.8079 44.2879 33.4012 48.1306 29.3069L48.1334 29.3042ZM38.4823 61.6357C38.3883 61.6909 38.2501 61.7379 38.1588 61.8292C37.1138 62.8631 36.0716 63.8971 35.0377 64.9421C34.5345 65.4507 34.8663 65.8544 35.245 66.2331C39.8231 70.8112 44.4067 75.3838 48.9738 79.973C49.4769 80.4789 49.8557 80.4899 50.345 79.973C51.1993 79.0745 52.0701 78.1898 52.9741 77.3439C53.5961 76.7633 53.5242 76.3348 52.9437 75.757C48.3822 71.2287 43.8455 66.6727 39.2978 62.1305C39.0767 61.9093 38.8887 61.6191 38.4823 61.6357Z" fill="black"/>
<path d="M6.23248 112.174C3.83838 112.248 2.69662 111.317 2.81273 109.475C3.62274 96.6258 7.50971 85.0838 17.2299 76.0769C19.3945 74.0698 21.7776 72.3502 24.3431 70.8906C25.8442 70.0335 27.221 70.2824 27.9674 71.5098C28.7083 72.7262 28.277 74.0726 26.7731 74.9655C15.7287 81.5313 10.136 91.5722 8.1732 103.968C7.58435 107.681 7.9548 107.28 11.0013 106.802C23.287 104.878 33.3085 99.4042 39.844 88.4483C40.4356 87.4558 41.1378 86.6209 42.4178 86.6817C44.3087 86.7729 45.163 88.7662 44.1041 90.6184C41.1101 95.8462 37.1485 100.198 32.2082 103.639C25.7005 108.173 18.4242 110.667 10.5977 111.659C9.00533 111.861 7.40742 112.033 6.23248 112.171V112.174Z" fill="black"/>
<path d="M86.8358 41.1999C86.6174 48.4071 81.3371 54.1021 73.7926 54.1021C66.3422 54.1021 60.8822 48.2744 60.8711 41.0976C60.8601 33.9126 66.8094 28.1263 73.8977 28.1623C81.0164 28.201 86.8579 34.0895 86.8358 41.1999ZM73.8258 32.992C69.2173 33.0085 65.5902 36.6467 65.6096 41.2303C65.6289 45.6232 69.4025 49.3526 73.8645 49.383C78.3846 49.4134 82.031 45.6896 82.0006 41.07C81.973 36.4946 78.4122 32.9754 73.8286 32.992H73.8258Z" fill="#66C6EB"/>
</g>
<defs>
<clipPath id="clip0_996_6599">
<rect width="114.961" height="115" fill="white"/>
</clipPath>
</defs>
</svg>
