<svg width="46" height="46" viewBox="0 0 46 46" fill="none" xmlns="http://www.w3.org/2000/svg">
<path d="M31.1087 23.2071C31.2717 23.2071 31.4296 23.224 31.5853 23.2503C31.148 20.4453 28.8463 18.2576 25.9856 17.9961C25.961 19.1359 24.271 20.0559 22.1911 20.0559C20.1102 20.0559 18.4218 19.1361 18.3968 17.9961C15.5366 18.2576 13.2339 20.4453 12.7969 23.2503C12.9521 23.2238 13.1112 23.2071 13.2742 23.2071H31.1087Z" fill="#325A3E"/>
<path d="M26.1775 13.5228C25.6466 16.001 24.0634 17.7988 22.1917 17.7988C20.3173 17.7988 18.7326 15.9951 18.2035 13.5117C18.092 13.5294 17.9832 13.5407 17.8782 13.5407C17.8165 13.5407 17.7269 13.5353 17.623 13.5169C18.1964 16.4127 20.0236 18.5307 22.1918 18.5307C24.3554 18.5307 26.181 16.4191 26.7587 13.5306C26.6632 13.5468 26.5753 13.5525 26.5048 13.5525C26.399 13.552 26.2899 13.541 26.1775 13.5228Z" fill="#325A3E"/>
<path d="M28.9976 30.4816C28.9976 28.5403 30.5767 26.9616 32.5176 26.9616V26.0231C32.5176 25.2453 31.8871 24.6152 31.1098 24.6152H23.3438V28.9737L22.1925 27.9155L21.0407 28.9735V24.6152H13.2753C12.4977 24.6152 11.8674 25.2453 11.8674 26.0231V26.9616C13.8084 26.9616 15.3874 28.5403 15.3874 30.4816C15.3874 32.4225 13.8084 34.0016 11.8674 34.0016L11.8672 34.9405C11.8672 35.7181 12.4977 36.3484 13.2751 36.3484H31.1095C31.8871 36.3484 32.5174 35.7179 32.5174 34.9405V34.0018C30.5767 34.0013 28.9976 32.4228 28.9976 30.4816ZM28.1348 33.9424H27.3999V35.4095L26.3245 35.4097V33.9427H25.5897C25.5602 33.9127 25.5602 33.8641 25.5897 33.8341L26.8088 32.6158C26.8382 32.5858 26.8866 32.5858 26.9168 32.6158L28.1352 33.8341C28.1654 33.8641 28.1654 33.9125 28.1349 33.9424H28.1348Z" fill="#325A3E"/>
<path d="M13.9779 30.481C13.9779 31.6476 13.0323 32.5931 11.8658 32.5931C10.6995 32.5931 9.75391 31.6476 9.75391 30.481C9.75391 29.3147 10.6995 28.3691 11.8658 28.3691C13.0323 28.3691 13.9779 29.3147 13.9779 30.481Z" fill="#325A3E"/>
<path d="M34.6283 30.481C34.6283 31.6476 33.6827 32.5931 32.5162 32.5931C31.3499 32.5931 30.4043 31.6476 30.4043 30.481C30.4043 29.3147 31.3499 28.3691 32.5162 28.3691C33.6827 28.3691 34.6283 29.3147 34.6283 30.481Z" fill="#325A3E"/>
<path d="M22.1921 8.33921C24.1956 8.33921 26.115 9.41098 27.1126 10.522C27.0598 8.13102 26.6119 5.55803 22.8086 5.30956C22.8093 5.30219 22.8108 5.29507 22.8108 5.28746C22.8108 4.94543 22.5338 4.66797 22.192 4.66797C21.85 4.66797 21.5725 4.94543 21.5725 5.28746C21.5725 5.29531 21.5743 5.30219 21.5747 5.30956C17.7719 5.55828 17.3238 8.13052 17.2715 10.522C18.2691 9.41149 20.1885 8.33921 22.1921 8.33921Z" fill="#325A3E"/>
<path d="M17.8782 12.8382C18.7184 12.8382 20.3353 11.7991 22.1915 11.7991C24.048 11.7991 25.6644 12.8495 26.5041 12.8495C26.896 12.8495 27.1194 12.6211 27.1194 11.9511C27.1194 11.1614 24.913 9.04492 22.1915 9.04492C19.4698 9.04492 17.2637 11.1614 17.2637 11.9511C17.2642 12.6125 17.4868 12.8382 17.8782 12.8382Z" fill="#325A3E"/>
</svg>
