<svg width="46" height="46" viewBox="0 0 46 46" fill="none" xmlns="http://www.w3.org/2000/svg">
<path d="M7.21407 27.0047C7.21407 28.1556 8.09407 29.0356 9.24492 29.0356H9.98965C9.92189 28.8325 9.92189 28.5617 9.92189 28.3586C9.92189 25.7186 12.0202 23.6203 14.6602 23.6203C17.3002 23.6203 19.3986 25.7186 19.3986 28.3586C19.3986 28.5617 19.3986 28.8325 19.3308 29.0356H26.1678V22.9434H7.21387L7.21407 27.0047Z" fill="#325A3E"/>
<path d="M14.6591 24.9746C12.7639 24.9746 11.2744 26.5316 11.2744 28.3593C11.2744 30.2546 12.7636 31.7441 14.6591 31.7441C16.5544 31.7441 18.0439 30.2549 18.0439 28.3593C18.0439 26.5313 16.5545 24.9746 14.6591 24.9746Z" fill="#325A3E"/>
<path d="M38.7589 22.807L37.5406 22.4009L35.7128 15.1578C35.5775 14.5487 35.0358 14.1426 34.4267 14.1426H27.5225V29.0347H28.2672C28.2672 28.8316 28.1994 28.5608 28.1994 28.3577C28.1994 25.7177 30.2978 23.6194 32.9378 23.6194C35.5778 23.6194 37.6761 25.7177 37.6761 28.3577C37.6761 28.5608 37.6761 28.8316 37.6084 29.0347H38.3531C39.0978 29.0347 39.707 28.4255 39.707 27.6808V24.0931C39.707 23.5516 39.3009 23.01 38.7592 22.8069L38.7589 22.807ZM34.5622 22.6717C34.4269 22.807 34.2239 22.9425 34.0206 22.9425H29.5528C29.1467 22.9425 28.8758 22.6042 28.8758 22.2656V17.5272C28.8758 17.1888 29.1467 16.8502 29.5528 16.8502H32.8698C33.1406 16.8502 33.4114 17.0533 33.5467 17.3919L34.7651 22.1302C34.7653 22.3333 34.6976 22.5364 34.5623 22.6716L34.5622 22.6717Z" fill="#325A3E"/>
<path d="M32.9365 24.9746C31.0412 24.9746 29.5518 26.5316 29.5518 28.3593C29.5518 30.2546 31.0409 31.7441 32.9365 31.7441C34.8318 31.7441 36.3212 30.2549 36.3212 28.3593C36.3212 26.5313 34.8318 24.9746 32.9365 24.9746Z" fill="#325A3E"/>
<path d="M24.1368 10.082H9.24472C8.09387 10.082 7.21387 11.0298 7.21387 12.1129V21.5899H26.1678V12.1129C26.1678 10.962 25.2878 10.082 24.137 10.082H24.1368Z" fill="#325A3E"/>
</svg>
