<svg width="46" height="46" viewBox="0 0 46 46" fill="none" xmlns="http://www.w3.org/2000/svg">
<path d="M35.6057 11.6544C35.4145 11.5162 35.1761 11.4601 34.9434 11.4982C34.7107 11.5366 34.5027 11.6661 34.3657 11.8582L30.2117 17.6864H15.1542L11.0091 11.8582C10.8826 11.6445 10.6722 11.4939 10.4293 11.4429C10.1865 11.3917 9.9332 11.4448 9.73135 11.5894C9.52949 11.7339 9.39761 11.9565 9.36776 12.2028C9.33791 12.4494 9.41284 12.6971 9.57417 12.8855L13.8346 18.8553V31.8579C13.8346 32.0927 13.9279 32.3181 14.094 32.4842C14.26 32.6503 14.4854 32.7436 14.7203 32.7436H30.6634C30.8983 32.7436 31.1237 32.6503 31.2898 32.4842C31.4559 32.3181 31.5492 32.0927 31.5492 31.8579V18.8553L35.8096 12.8855V12.8853C35.945 12.6949 35.9994 12.4585 35.9612 12.228C35.9231 11.9972 35.7954 11.791 35.6058 11.6542L35.6057 11.6544ZM23.5775 23.0009H21.806C21.4895 23.0009 21.1971 22.832 21.0389 22.558C20.8808 22.284 20.8808 21.9463 21.0389 21.6723C21.1971 21.3982 21.4895 21.2294 21.806 21.2294H23.5775C23.894 21.2294 24.1864 21.3982 24.3446 21.6723C24.5027 21.9463 24.5027 22.284 24.3446 22.558C24.1864 22.832 23.894 23.0009 23.5775 23.0009Z" fill="#325A3E"/>
<path d="M14.7197 6.17188H20.0341C20.5232 6.17188 20.9198 6.66101 20.9198 7.05761V12.372C20.9198 12.8611 20.5232 13.2577 20.0341 13.2577H14.7197C14.2306 13.2577 13.834 12.7686 13.834 12.372V7.05761C13.834 6.56847 14.2306 6.17188 14.7197 6.17188Z" fill="#325A3E"/>
<path d="M32.3896 10.8568L28.6342 7.10136C28.4681 6.93647 28.2437 6.84375 28.0096 6.84375C27.7757 6.84375 27.5511 6.93647 27.3852 7.10136L23.6209 10.8568C23.456 11.0229 23.3633 11.2473 23.3633 11.4814C23.3633 11.7153 23.456 11.9399 23.6209 12.1057L27.3763 15.8612C27.5424 16.0263 27.7668 16.1188 28.0009 16.1188C28.2348 16.1188 28.4594 16.0263 28.6253 15.8612L32.3807 12.1057C32.547 11.941 32.6411 11.717 32.6427 11.4831C32.6445 11.2491 32.5533 11.0239 32.3896 10.8568Z" fill="#325A3E"/>
</svg>
