<svg width="13" height="13" viewBox="0 0 13 13" fill="none" xmlns="http://www.w3.org/2000/svg">
<path d="M6.41425 0.300781C3.07523 0.300781 0.366211 3.0098 0.366211 6.34882C0.366211 9.68784 3.07523 12.3969 6.41425 12.3969C9.75327 12.3969 12.4623 9.68784 12.4623 6.34882C12.4623 3.0098 9.75327 0.300781 6.41425 0.300781ZM9.52647 4.88721L5.97324 8.45303C5.85986 8.56641 5.69604 8.64199 5.5322 8.64199C5.36835 8.64199 5.20462 8.57898 5.09115 8.45303L3.30203 6.66382C3.05005 6.41184 3.05005 6.02124 3.30203 5.76917C3.55401 5.51719 3.94461 5.51719 4.19668 5.76917L5.53226 7.10475L8.64448 3.99254C8.89646 3.74056 9.28706 3.74056 9.53913 3.99254C9.77847 4.2446 9.77847 4.63518 9.52648 4.88719L9.52647 4.88721Z" fill="#325A3E"/>
</svg>
