<svg width="120" height="120" viewBox="0 0 120 120" fill="none" xmlns="http://www.w3.org/2000/svg">
<g clip-path="url(#clip0_935_6396)">
<path d="M26.7014 0C26.8751 0.518637 27.0511 1.03493 27.2224 1.55357C27.8349 3.40986 29.2782 4.02237 31.0124 3.16111C32.8993 2.22474 32.498 2.18954 33.9483 3.62107C35.7834 5.42809 37.574 7.28204 39.4233 9.07498C40.0194 9.65463 40.1344 10.1498 39.7401 10.9149C39.3646 11.647 38.7545 12.3511 39.0408 13.3086C39.5312 14.9419 40.0827 15.369 41.9437 15.3761C46.7452 15.3878 51.5467 15.3808 56.3482 15.3808C76.0611 15.3808 95.774 15.3808 115.485 15.3784C118.533 15.3784 119.993 16.8358 119.997 19.8889C119.997 21.0201 120.009 22.1536 119.993 23.2847C119.969 25.0237 119.075 26.4341 117.421 26.941C116.423 27.2461 116.21 27.7436 116.212 28.694C116.236 48.9537 116.231 69.2111 116.226 89.4708C116.226 90.2875 116.278 91.1065 116.099 91.9185C115.438 94.9552 113.218 96.8045 110.122 96.8068C99.8175 96.8186 89.5128 96.8115 79.2082 96.8115C78.113 96.8115 77.5646 97.3755 77.5631 98.5035C77.5631 101.275 77.5983 104.047 77.5443 106.818C77.5255 107.83 77.8283 108.182 78.8749 108.168C82.7002 108.114 86.5254 108.142 90.3506 108.151C94.4035 108.161 96.816 110.596 96.809 114.654C96.809 115.161 96.8184 115.67 96.8043 116.177C96.7456 118.315 95.131 119.988 93.0119 119.991C77.4363 120.005 61.8632 120.002 46.2876 119.993C44.6214 119.993 43.1687 119.035 42.7041 117.475C42.0517 115.276 42.0916 113.049 43.3049 111.026C44.4829 109.059 46.3322 108.161 48.6062 108.153C52.5488 108.142 56.4914 108.118 60.434 108.165C61.4501 108.177 61.7998 107.886 61.7763 106.842C61.713 103.955 61.713 101.064 61.7763 98.1773C61.8021 97.0931 61.4548 96.7857 60.38 96.7904C49.958 96.8279 39.5359 96.8209 29.1139 96.8092C26.1546 96.8068 23.8689 95.0209 23.2423 92.2423C23.1155 91.6791 23.1109 91.0807 23.1109 90.4987C23.1038 75.1203 23.1062 59.7395 23.1062 44.3611C23.1062 43.255 22.5492 42.7011 21.4353 42.6996C20.0295 42.6996 18.6215 42.6362 17.2204 42.7207C16.2066 42.7817 15.7561 42.3616 15.4604 41.4464C15.2116 40.679 15.1811 39.7919 14.172 39.3672C13.1347 38.9307 12.2265 38.8462 11.3183 39.5127C10.2951 40.266 9.56292 39.9937 8.72981 39.0996C6.92045 37.1612 5.01956 35.3049 3.10694 33.4627C2.48974 32.8689 2.35832 32.3386 2.83472 31.6345C3.58099 30.5292 3.87199 29.4027 3.06235 28.1707C2.32312 27.0489 1.00188 27.2226 -0.00488281 26.6993C-0.00488281 23.1087 -0.00488281 19.5158 -0.00488281 15.9252C0.541916 15.721 1.07463 15.4559 1.63786 15.3268C2.57188 15.1109 3.01307 14.5312 3.38855 13.67C3.78751 12.7524 3.49181 12.0648 3.03888 11.3866C2.36536 10.3751 2.46862 9.64525 3.40967 8.78633C5.25189 7.10604 7.02371 5.34126 8.69931 3.49435C9.6122 2.48758 10.3561 2.42891 11.4943 3.08132C13.2685 4.09982 14.6977 3.4568 15.3501 1.52775C15.5237 1.01146 15.7326 0.50925 15.925 0C19.5156 0 23.1085 0 26.6991 0L26.7014 0ZM69.5395 92.6812C82.7729 92.6812 96.0064 92.6812 109.237 92.6812C111.49 92.6812 112.096 92.0992 112.096 89.8674C112.098 69.5303 112.098 49.1931 112.096 28.8559C112.096 27.2367 112.089 27.2343 110.512 27.2343C93.0236 27.2343 75.5355 27.2343 58.0496 27.2343C52.584 27.2343 47.1207 27.2437 41.6551 27.2273C40.4371 27.2226 39.6509 27.6075 39.1651 28.8583C38.7216 29.9941 39.2919 30.7545 39.7284 31.5806C40.1203 32.3245 40.0475 32.8267 39.435 33.4181C37.4708 35.3166 35.5206 37.2339 33.6455 39.217C32.9016 40.0031 32.2774 40.1862 31.3316 39.6089C30.698 39.2217 30.055 38.7382 29.1585 39.0738C27.4712 39.7051 27.2365 39.982 27.2365 41.9275C27.2365 57.8926 27.2365 73.8577 27.2388 89.8228C27.2388 92.2916 27.6143 92.6788 30.0737 92.6788C43.2298 92.6812 56.3834 92.6788 69.5395 92.6788V92.6812ZM10.978 7.6012C10.5744 7.56366 10.3374 7.84292 10.0886 8.08464C9.47609 8.68542 8.90347 9.33313 8.25811 9.894C7.58693 10.476 7.44143 11.0604 7.93426 11.8254C8.25577 12.3253 8.45524 12.8509 8.08914 13.4634C7.34522 14.7096 6.84535 16.0637 6.44171 17.453C6.31264 17.8989 6.10377 18.2814 5.62738 18.3471C4.14422 18.5489 3.89546 19.5064 4.03157 20.7737C4.09259 21.3533 4.08789 21.947 4.03157 22.5267C3.95178 23.3786 4.29676 23.8761 5.12517 24.0216C5.96297 24.1671 6.3713 24.6623 6.57078 25.4766C6.87821 26.7298 7.38042 27.9196 8.06333 29.0202C8.30505 29.4121 8.46463 29.8486 8.17832 30.2265C7.19972 31.5195 7.77702 32.4137 8.84011 33.2538C9.26488 33.5894 9.6474 33.9954 9.99473 34.4131C10.5063 35.028 11.0297 35.1547 11.7008 34.6642C12.3978 34.155 13.0878 34.1503 13.8552 34.6384C14.9136 35.3072 16.1057 35.7062 17.3049 36.0606C17.7532 36.192 18.2695 36.3163 18.3446 36.8772C18.5698 38.5481 19.6752 38.7406 21.048 38.5786C21.5479 38.52 22.0665 38.52 22.5664 38.5763C23.3807 38.6655 23.829 38.3299 23.9627 37.5437C24.12 36.6214 24.6761 36.1685 25.5773 35.9549C26.7577 35.6757 27.8537 35.1477 28.9144 34.561C29.3298 34.331 29.778 34.0517 30.2192 34.392C31.5663 35.4363 32.4674 34.7534 33.3193 33.6809C33.608 33.3172 33.9483 32.9816 34.312 32.6906C34.9973 32.1438 35.1967 31.55 34.6476 30.7944C34.1219 30.0716 34.2275 29.3816 34.6851 28.6354C35.3188 27.6004 35.7224 26.4552 36.0486 25.2865C36.1871 24.789 36.3607 24.2492 36.9521 24.1835C38.4611 24.0169 38.7216 23.0758 38.5738 21.7968C38.5151 21.297 38.5198 20.7783 38.5738 20.2785C38.6841 19.3116 38.3625 18.7179 37.3534 18.5254C36.7081 18.4034 36.2434 18.0397 36.0627 17.3356C35.7224 16.0097 35.1921 14.7518 34.5044 13.5644C34.258 13.1372 34.0539 12.6702 34.3965 12.2572C35.4432 10.9923 34.7509 10.1639 33.7652 9.35659C33.4038 9.0609 33.0659 8.72766 32.7749 8.36391C32.1718 7.61294 31.5193 7.37122 30.6722 7.98138C30.0198 8.45074 29.3979 8.34983 28.729 7.91567C27.7762 7.29612 26.7108 6.88074 25.6078 6.62495C24.709 6.41608 24.1599 5.96785 23.9862 5.04557C23.8524 4.33684 23.4394 3.99656 22.6673 4.0388C21.6957 4.09278 20.7171 4.06696 19.7432 4.04819C19.2176 4.0388 18.7646 4.16553 18.6825 4.72875C18.483 6.08753 17.5326 6.53812 16.3662 6.81269C15.8781 6.92768 15.3923 7.11542 14.9464 7.34775C13.7331 7.97669 12.5551 8.77225 11.201 7.66457C11.147 7.61998 11.0531 7.62467 10.9757 7.6059L10.978 7.6012ZM79.4076 19.5087C77.4176 19.5087 75.4275 19.5087 73.4374 19.5087C63.6819 19.5087 53.9264 19.5064 44.1708 19.5134C43.7202 19.5134 43.0514 19.2999 42.8707 19.7598C42.4999 20.7103 42.5445 21.7875 42.8238 22.7403C43.0232 23.4255 43.854 23.0946 44.3961 23.0946C67.5353 23.1087 90.6745 23.1087 113.816 23.104C116.062 23.104 115.874 23.3668 115.877 21.0248C115.877 19.5111 115.869 19.5064 114.295 19.5064C102.667 19.5064 91.0383 19.5064 79.41 19.5064L79.4076 19.5087ZM69.6756 115.879C76.8942 115.879 84.1129 115.858 91.3316 115.903C92.4369 115.91 92.7678 115.546 92.6974 114.487C92.5942 112.953 91.9042 112.279 90.1653 112.279C76.4695 112.272 62.7737 112.277 49.0779 112.274C48.6062 112.274 48.1439 112.3 47.7051 112.502C46.7757 112.927 46.3862 113.929 46.6443 115.213C46.8532 116.248 47.6792 115.858 48.2542 115.86C55.3954 115.886 62.5367 115.877 69.6756 115.881V115.879ZM65.8949 102.47C65.8949 104.03 65.9113 105.593 65.8879 107.154C65.8785 107.827 66.092 108.165 66.8219 108.156C68.6571 108.13 70.4922 108.132 72.3251 108.156C73.0338 108.165 73.299 107.855 73.2943 107.173C73.2826 104.049 73.2826 100.928 73.2943 97.8042C73.2966 97.133 73.062 96.8021 72.3391 96.8115C70.504 96.8397 68.6688 96.8397 66.836 96.8115C66.1178 96.7998 65.8738 97.0955 65.8855 97.7878C65.9137 99.3484 65.8949 100.911 65.8949 102.472V102.47Z" fill="#66C6EB"/>
<path d="M99.3177 73.1627C97.4215 71.2994 95.7764 69.6402 94.0774 68.0374C93.3827 67.3826 93.3405 66.9086 94.0586 66.2327C96.5978 63.8413 95.7624 63.8319 98.1631 66.1905C101.559 69.5276 104.903 72.9187 108.259 76.2957C108.545 76.582 109.099 76.8331 108.921 77.2954C108.735 77.7694 108.16 77.5559 107.759 77.5582C98.7428 77.57 89.7264 77.5817 80.7101 77.5489C79.6424 77.5442 78.9712 77.7835 78.3329 78.7574C75.9837 82.348 70.8513 82.233 68.528 78.572C68.0399 77.8046 67.5213 77.5488 66.6483 77.5535C58.803 77.5817 50.9577 77.5864 43.1125 77.5606C39.5665 77.5488 36.4054 76.4599 33.9905 73.7658C30.6534 70.0439 29.8414 65.7446 31.7963 61.1613C33.7324 56.618 37.3746 54.1468 42.3145 54.0694C50.3921 53.9426 58.4721 54.0201 66.552 54.0482C67.4673 54.0506 68.0047 53.7948 68.514 52.9711C70.8889 49.1247 76.2653 49.2139 78.5793 53.1213C78.9688 53.7784 79.3701 54.0506 80.1352 54.0482C85.6783 54.0177 91.2213 54.0576 96.7621 54.0224C100.447 53.999 103.725 51.1664 104.152 47.7354C104.666 43.6051 102.439 40.1272 98.6465 39.1063C97.8392 38.8881 97.0202 38.8975 96.2059 38.8951C90.8975 38.881 85.5891 38.8998 80.2807 38.8716C79.4499 38.867 78.9477 39.1368 78.483 39.8573C75.9908 43.7224 70.8279 43.6591 68.4224 39.7306C67.9671 38.989 67.4297 38.8787 66.6882 38.8787C59.1949 38.8904 51.6993 38.8881 44.206 38.8834C42.3474 38.8834 42.338 38.867 42.3451 36.9661C42.3568 34.4315 42.169 34.631 44.6989 34.6287C51.9598 34.624 59.2184 34.6146 66.4793 34.6474C67.4227 34.6521 68.0141 34.4362 68.5632 33.5726C70.9147 29.8741 76.0565 29.8671 78.4314 33.5632C78.9853 34.4245 79.572 34.6521 80.5177 34.6451C85.7862 34.6076 91.0571 34.6099 96.3256 34.6287C102.498 34.6498 107.393 38.7801 108.299 44.694C109.24 50.8449 105.194 56.6508 99.0924 57.9181C98.0904 58.1269 97.0859 58.1692 96.0674 58.1692C90.8365 58.1621 85.6079 58.1809 80.3769 58.1457C79.5109 58.141 78.99 58.364 78.5089 59.1595C76.1949 62.9848 70.9358 63.0129 68.514 59.2088C67.9953 58.3945 67.4485 58.1457 66.538 58.1481C58.5355 58.1762 50.5353 58.1481 42.5328 58.1739C38.7052 58.1856 35.4972 61.0815 34.995 64.8786C34.5186 68.4926 36.924 72.0316 40.5451 73.0782C41.2749 73.2894 42.0118 73.2918 42.7487 73.2918C50.6714 73.3012 58.5965 73.2824 66.5192 73.3176C67.4884 73.3223 68.0422 73.0219 68.582 72.1912C70.9569 68.5396 76.1269 68.6053 78.483 72.278C78.8609 72.8647 79.1871 73.3153 80.0014 73.3106C86.1288 73.2824 92.2563 73.2965 98.386 73.2918C98.5714 73.2918 98.7545 73.2449 99.3107 73.1674L99.3177 73.1627ZM73.4821 73.6415C72.5128 73.6626 71.7267 74.4886 71.7478 75.4673C71.7689 76.4599 72.5762 77.2297 73.5619 77.1968C74.4302 77.1663 75.2774 76.3051 75.2867 75.4438C75.2961 74.5473 74.3691 73.6227 73.4821 73.6415ZM75.282 36.7736C75.2985 35.8584 74.4255 34.9877 73.4868 34.983C72.5621 34.9783 71.7924 35.7223 71.7501 36.6633C71.7056 37.6232 72.5058 38.5102 73.4375 38.5361C74.3293 38.5619 75.268 37.6654 75.2844 36.7736H75.282ZM73.4844 54.3838C72.5082 54.3838 71.7736 55.0902 71.7501 56.05C71.7267 57.0545 72.4941 57.8101 73.5173 57.7937C74.4841 57.7796 75.2656 57.0474 75.2914 56.1322C75.3196 55.1864 74.4888 54.3862 73.4821 54.3838H73.4844Z" fill="#66C6EB"/>
<path d="M32.8855 89.0827C30.5199 89.0686 30.8672 89.2141 30.8391 86.7477C30.818 84.9524 30.8344 84.9524 32.5006 84.9477C34.967 84.943 34.9788 84.943 34.967 86.7711C34.9506 89.2799 35.183 89.0593 32.8855 89.0827Z" fill="#66C6EB"/>
<path d="M42.6996 87.091C42.6996 87.3633 42.6809 87.6355 42.7043 87.9054C42.7747 88.7267 42.4697 89.1187 41.5849 89.0905C38.0554 88.9802 38.6139 89.7147 38.5764 85.8496C38.5693 85.1995 38.8885 84.9414 39.5057 84.9578C39.8553 84.9672 40.205 84.9531 40.5547 84.9531C41.9847 84.95 42.7004 85.6626 42.702 87.091H42.6996Z" fill="#66C6EB"/>
<path d="M50.4276 87.0872C50.4276 87.3594 50.4018 87.634 50.4299 87.9015C50.5285 88.8356 50.0803 89.1148 49.1979 89.0914C45.8279 89.0069 46.377 89.5748 46.2832 86.2025C46.255 85.2192 46.6399 84.8507 47.5786 84.9516C47.8086 84.9751 48.0433 84.954 48.2779 84.954C50.6341 84.961 50.4135 84.8085 50.4252 87.0872H50.4276Z" fill="#66C6EB"/>
<path d="M9.53518 21.2315C9.54691 14.7662 14.8483 9.51877 21.3535 9.53519C27.7415 9.55162 33.0757 14.8905 33.0639 21.262C33.0522 27.6711 27.6711 33.0522 21.262 33.064C14.8483 33.0757 9.52344 27.7039 9.53518 21.2315ZM28.7952 21.2667C28.7952 17.0519 25.3994 13.635 21.2432 13.6655C17.12 13.696 13.6444 17.2091 13.6655 21.3277C13.6866 25.4299 17.0894 28.7881 21.2409 28.7999C25.5519 28.8116 28.7975 25.5777 28.7975 21.2691L28.7952 21.2667Z" fill="#66C6EB"/>
</g>
<defs>
<clipPath id="clip0_935_6396">
<rect width="120.005" height="120" fill="white"/>
</clipPath>
</defs>
</svg>
