<svg width="120" height="120" viewBox="0 0 120 120" fill="none" xmlns="http://www.w3.org/2000/svg">
<g clip-path="url(#clip0_935_6181)">
<path d="M119.446 21.5889L104.421 15.579L98.4111 0.547004L90.547 8.41108C81.2977 2.92683 70.7909 0 60 0C26.9169 0 0 26.9169 0 60C0 93.0831 26.9169 120 60 120C93.0831 120 120 93.0831 120 60C120 49.202 117.073 38.6952 111.589 29.453L119.446 21.5889ZM100.571 19.4293L110.545 23.4217L104.393 29.5738L94.4258 25.5813L90.4333 15.6074L96.5854 9.45536L100.571 19.4293ZM114.999 60.0071C114.999 90.3339 90.3268 115.006 60 115.006C29.6732 115.006 5.00118 90.3268 5.00118 60C5.00118 29.6732 29.6732 5.00118 60 5.00118C69.4696 5.00118 78.7118 7.43074 86.9169 12.0483L84.5655 14.3997L89.5667 26.9027L86.4196 30.0497C79.3654 23.8196 70.1302 20.0047 60 20.0047C37.9422 20.0047 19.9976 37.9493 19.9976 60.0071C19.9976 82.0649 37.9422 100.009 60 100.009C82.0578 100.009 100.002 82.0649 100.002 60.0071C100.002 49.8769 96.1875 40.6417 89.9574 33.5875L93.1044 30.4404L105.607 35.4416L107.959 33.0902C112.576 41.2953 114.999 50.5375 114.999 60.0071ZM74.9964 60.0071C74.9964 68.2761 68.269 75.0036 60 75.0036C51.731 75.0036 45.0036 68.2761 45.0036 60.0071C45.0036 51.7381 51.731 45.0107 60 45.0107C63.2323 45.0107 66.2231 46.0478 68.6739 47.7954L61.2787 55.1906C60.8667 55.0841 60.4404 55.0059 60 55.0059C57.2366 55.0059 54.9988 57.2437 54.9988 60.0071C54.9988 62.7705 57.2366 65.0083 60 65.0083C62.7634 65.0083 65.0012 62.7705 65.0012 60.0071C65.0012 59.5596 64.923 59.1404 64.8165 58.7284L72.2117 51.3332C73.9593 53.784 74.9964 56.7748 74.9964 60.0071ZM72.2401 44.2292C68.8515 41.5937 64.6105 40.0095 59.9929 40.0095C48.9676 40.0095 39.9953 48.9818 39.9953 60.0071C39.9953 71.0324 48.9676 80.0047 59.9929 80.0047C71.0182 80.0047 79.9905 71.0324 79.9905 60.0071C79.9905 55.3895 78.4063 51.1556 75.7708 47.7599L86.4125 37.1182C91.7405 43.2631 94.987 51.255 94.987 60.0071C94.987 79.3085 79.2872 95.0083 59.9858 95.0083C40.6843 95.0083 24.9846 79.3085 24.9846 60.0071C24.9846 40.7057 40.6843 25.0059 59.9858 25.0059C68.7379 25.0059 76.7298 28.2524 82.8676 33.5875L72.2259 44.2292H72.2401Z" fill="#66C6EB"/>
</g>
<defs>
<clipPath id="clip0_935_6181">
<rect width="120" height="120" fill="white"/>
</clipPath>
</defs>
</svg>
