<svg width="164" height="120" viewBox="0 0 164 120" fill="none" xmlns="http://www.w3.org/2000/svg">
<g clip-path="url(#clip0_935_6186)">
<path d="M121.826 18.1808C98.7527 18.2431 80.0663 36.9295 80.004 60.0023C79.9791 81.0626 62.8816 98.1165 41.8214 98.0915C20.7611 98.0666 3.70724 80.9691 3.73216 59.9089C3.75709 38.886 20.7985 21.8508 41.8214 21.8197H55.6165L40.5378 36.8983C39.8275 37.6086 39.8275 38.7613 40.5378 39.4717C41.2481 40.182 42.4008 40.182 43.1112 39.4717L61.2928 21.29C61.9906 20.5735 61.9906 19.4332 61.2928 18.7292V18.7167L43.1049 0.528832C42.3946 -0.181486 41.2419 -0.181486 40.5316 0.528832C39.8213 1.23915 39.8213 2.39186 40.5316 3.10217L55.6102 18.1808H41.8151C18.7174 18.1808 -0.00634766 36.9046 -0.00634766 60.0023C-0.00634766 83.1001 18.7174 101.824 41.8151 101.824C64.9129 101.824 83.6366 83.1001 83.6366 60.0023C83.6615 38.942 100.759 21.8882 121.819 21.9131C142.88 21.938 159.933 39.0355 159.908 60.0958C159.884 81.1187 142.842 98.1538 121.819 98.185H108.024L123.103 83.1063C123.807 82.3898 123.801 81.2371 123.084 80.533C122.374 79.8351 121.24 79.8351 120.529 80.533L102.348 98.7146C101.644 99.4374 101.65 100.578 102.348 101.288L120.529 119.47C121.246 120.174 122.399 120.167 123.103 119.451C123.801 118.741 123.801 117.607 123.103 116.896L108.024 101.818H121.819C144.917 101.818 163.641 83.0939 163.641 59.9961C163.641 36.8983 144.917 18.1746 121.819 18.1746L121.826 18.1808Z" fill="#66C6EB"/>
</g>
<defs>
<clipPath id="clip0_935_6186">
<rect width="163.647" height="120" fill="white"/>
</clipPath>
</defs>
</svg>
