<svg width="140" height="158" viewBox="0 0 140 158" fill="none" xmlns="http://www.w3.org/2000/svg">
<path d="M62.3095 0C63.966 1.364 63.8398 3.39307 64.1969 5.21276C64.6896 7.72523 65.0899 10.2562 65.4316 12.7933C65.5486 13.6646 65.9366 14.0218 66.7248 14.2343C70.1548 15.1641 73.4309 16.4912 76.5068 18.2801C77.3874 18.7912 78.0833 18.7327 78.893 18.1384C81.4979 16.2233 84.1366 14.3574 86.7691 12.4854C88.8598 10.9982 89.8174 11.0567 91.6124 12.821C93.8416 15.0163 96.0523 17.2332 98.2538 19.4593C99.7995 21.0235 99.9011 22.1381 98.6295 23.9547C96.7759 26.6026 94.907 29.2413 92.9826 31.8369C92.2898 32.773 92.1328 33.5519 92.7609 34.6173C94.5128 37.5916 95.7876 40.7784 96.6558 44.1253C96.8683 44.9474 97.2501 45.3938 98.1953 45.5262C101.388 45.9727 104.566 46.5515 107.749 47.0657C110.428 47.4968 111.069 48.2296 111.069 50.8991C111.069 53.9781 111.069 57.0571 111.062 60.1361C111.056 62.5593 110.582 63.1936 108.147 63.6492C104.874 64.2589 101.595 64.8285 98.3 65.2996C97.3086 65.4412 96.8714 65.8569 96.6374 66.756C95.7721 70.0998 94.4913 73.2865 92.7424 76.2639C92.1605 77.2554 92.2375 78.0128 92.9087 78.918C94.8023 81.4736 96.6374 84.0723 98.4755 86.6679C99.9073 88.6877 99.8272 89.7931 98.106 91.5327C95.9415 93.7219 93.7677 95.9018 91.5755 98.0633C89.8789 99.7352 88.8044 99.803 86.84 98.4143C84.62 96.844 82.4247 95.2399 80.1924 93.688C79.4257 93.1554 79.0901 92.5981 79.3641 91.6251C79.6412 90.646 79.7305 89.6114 79.8937 88.6015C80.0661 87.5362 80.5034 87.3299 81.4147 88.0042C83.4808 89.5252 85.6207 90.9446 87.662 92.4965C88.5457 93.1677 89.1277 93.1431 89.8512 92.3056C90.6518 91.3757 91.5385 90.5043 92.4591 89.6915C93.2289 89.0141 93.272 88.4537 92.65 87.6224C90.8119 85.1561 89.0415 82.6344 87.2556 80.1281C85.8547 78.1606 85.8362 77.4247 87.1171 75.3803C89.4571 71.6516 91.1413 67.652 92.0312 63.3383C92.376 61.6694 93.2197 60.7457 94.9624 60.4994C97.9552 60.0776 100.92 59.4679 103.91 59.043C105.339 58.8398 106.204 58.4088 105.948 56.743C105.816 55.8901 105.819 54.9849 105.948 54.132C106.198 52.4817 105.363 52.0291 103.922 51.8228C100.831 51.3856 97.7612 50.7851 94.673 50.311C93.2597 50.0955 92.4407 49.2949 92.1543 47.974C91.129 43.2631 89.3678 38.8694 86.7168 34.8297C85.8793 33.5519 86.1164 32.308 86.9785 31.1134C88.8721 28.4931 90.7195 25.8421 92.647 23.2465C93.2597 22.4213 93.2474 21.8517 92.4622 21.1774C91.2183 20.1152 90.3223 18.1754 88.8721 17.9691C87.3849 17.7566 86.1595 19.5579 84.8109 20.4569C83.1482 21.5654 81.5317 22.7508 79.9214 23.9362C78.5605 24.9369 77.2304 25.0077 75.8017 24.0624C71.9468 21.5192 67.7378 19.8165 63.2178 18.8805C61.7491 18.5757 60.8839 17.7597 60.6499 16.2233C60.1758 13.135 59.5938 10.0653 59.1351 6.97703C58.9349 5.63151 58.5285 4.77554 56.9243 5.0157C56.0222 5.15118 55.0646 5.1481 54.1594 5.0157C52.5644 4.7817 52.1457 5.61611 51.9425 6.97087C51.4868 10.0591 50.8956 13.132 50.4307 16.2202C50.209 17.6981 49.39 18.5387 48.0014 18.8343C43.3336 19.8319 38.9953 21.5992 34.9987 24.2133C33.7271 25.0446 32.4986 24.8907 31.2854 24.0132C28.7083 22.1473 26.0727 20.3646 23.5386 18.4463C22.541 17.692 21.8975 17.7351 21.1124 18.6711C20.3888 19.5332 19.5821 20.3399 18.72 21.0635C17.8209 21.8148 17.8086 22.4398 18.5106 23.3727C20.3611 25.8329 22.0761 28.3915 23.9174 30.8578C25.0504 32.3758 25.112 33.7736 24.0498 35.3686C21.5804 39.0818 19.9732 43.18 19.0279 47.5276C18.6707 49.1779 17.8486 50.1293 16.0967 50.3726C13.0546 50.7975 10.0372 51.401 7.0013 51.8505C5.69888 52.0445 4.91373 52.4601 5.12311 53.9781C5.24934 54.8833 5.2555 55.8378 5.12311 56.743C4.88294 58.3965 5.72351 58.8429 7.16141 59.043C10.2527 59.4772 13.3225 60.0684 16.4077 60.5548C17.8733 60.7858 18.6831 61.6387 18.9694 63.0365C19.9054 67.615 21.6574 71.8548 24.2068 75.7621C25.1089 77.1415 25.032 78.4377 24.0806 79.7524C22.2178 82.3296 20.4165 84.956 18.5106 87.4992C17.8086 88.4352 17.7932 89.1034 18.7354 89.7993C19.0217 90.0117 19.2465 90.3011 19.5021 90.5536C21.3618 92.4031 23.3734 92.5396 25.5369 90.9631C26.9071 89.9686 28.3142 89.0233 29.6597 87.995C30.6727 87.2221 31.0945 87.5978 31.2608 88.6816C31.27 88.7308 31.2731 88.7832 31.2824 88.8325C31.8017 91.5153 30.9396 93.6511 28.696 95.2399C27.1041 96.3668 25.5369 97.5245 23.9235 98.6206C22.2393 99.7629 21.1185 99.6613 19.6714 98.2357C17.3652 95.9696 15.0806 93.6819 12.8175 91.3757C11.2257 89.7531 11.1426 88.7339 12.4357 86.8988C14.2678 84.2971 16.0967 81.6922 18.0057 79.149C18.7785 78.1206 18.9448 77.28 18.2489 76.1038C16.5709 73.2681 15.3516 70.2137 14.4864 67.0362C14.2 65.9831 13.7905 65.4228 12.5866 65.2565C9.19047 64.7854 5.8128 64.1604 2.43821 63.5384C0.624676 63.2028 0.0242693 62.4238 0.0150323 60.5672C-0.00344174 57.1279 -0.00652075 53.6917 0.0150323 50.2525C0.0242693 48.4174 0.658545 47.6384 2.47516 47.3089C5.95136 46.6808 9.43371 46.0712 12.9253 45.5385C13.7874 45.4061 14.1846 45.0305 14.3848 44.2484C15.2623 40.7969 16.6386 37.5423 18.4029 34.4603C18.9109 33.5735 18.8401 32.8838 18.2489 32.074C16.3091 29.4261 14.4032 26.7504 12.5158 24.0655C11.1179 22.0734 11.2103 21.0974 12.9407 19.3485C15.1422 17.1224 17.3498 14.9055 19.5821 12.7132C21.1894 11.1337 22.2085 11.0413 24.0652 12.3376C26.7131 14.1881 29.3487 16.0601 31.9474 17.9845C32.8773 18.6742 33.6501 18.8435 34.7278 18.2216C37.7113 16.4973 40.8765 15.158 44.2357 14.3297C45.1564 14.1019 45.5351 13.6185 45.6706 12.6455C46.1109 9.50182 46.6897 6.3797 47.1977 3.24527C47.3979 2.00443 47.7366 0.843648 48.768 0.015395H62.3157L62.3095 0Z" fill="#66C6EB"/>
<path d="M54.3056 157.644C53.2649 156.81 52.8646 155.745 52.9508 154.402C53.0401 153.026 52.9385 151.637 52.9847 150.255C53.0401 148.629 54.0654 147.665 55.6141 147.696C57.0736 147.727 58.0466 148.687 58.0927 150.252C58.1389 151.89 58.0681 153.531 58.1143 155.169C58.1451 156.283 57.4523 156.948 56.7719 157.644H54.3087H54.3056Z" fill="black"/>
<path d="M65.0824 157.643C63.1457 156.024 63.5121 153.865 63.9 151.824C64.1156 150.694 65.1347 150.127 66.3663 150.149C67.5363 150.168 68.5247 150.74 68.6817 151.802C68.9835 153.828 69.5161 156.015 67.5456 157.643H65.0824Z" fill="black"/>
<path d="M43.2201 157.641C41.1972 155.962 41.7761 153.739 42.1271 151.67C42.2934 150.682 43.2725 150.171 44.3748 150.149C45.5356 150.125 46.5886 150.614 46.7764 151.67C47.1459 153.736 47.697 155.962 45.6833 157.644H43.2201V157.641Z" fill="black"/>
<path d="M19.8183 127.047C19.8522 121.502 19.9168 115.972 22.183 110.741C24.8679 104.54 29.3232 100.439 36.0139 98.9976C37.264 98.7266 37.6088 98.3325 37.3656 96.9562C36.2294 90.5549 34.7576 84.1999 34.0833 77.7309C32.707 64.5712 34.4497 52.055 42.2365 40.8998C44.7613 37.282 47.2707 33.6549 49.8232 30.0586C52.8222 25.8373 58.2505 25.7357 61.2094 29.9755C65.1936 35.6901 69.6366 41.1061 72.7187 47.4181C75.3667 52.8371 76.5613 58.6133 77.2141 64.5712C78.1285 72.903 76.7153 81.0131 75.2004 89.1324C74.6831 91.9005 74.249 94.6839 73.7132 97.4488C73.5593 98.2463 73.5962 98.6558 74.5261 98.8344C85.6444 100.98 90.58 110.87 91.0696 120.498C91.242 123.882 91.279 127.263 91.2513 130.644C91.2235 134.08 89.3946 135.197 86.3433 133.658C80.0683 130.499 73.7995 127.331 67.5398 124.141C66.69 123.71 65.8402 123.503 64.8919 123.506C58.6846 123.525 52.4773 123.528 46.2701 123.506C45.2632 123.503 44.3672 123.734 43.4743 124.187C37.2578 127.349 31.0351 130.496 24.8063 133.627C21.6503 135.213 19.8953 134.135 19.8214 130.588C19.7967 129.409 19.8183 128.23 19.8183 127.047ZM55.5317 45.6445C52.9145 45.6445 50.2882 45.7769 47.6833 45.5984C45.9067 45.4783 45.0046 46.1741 44.2133 47.6644C39.1514 57.1939 38.0707 67.4131 39.4778 77.8602C40.734 87.1927 42.6522 96.4328 44.2595 105.719C44.4288 106.698 44.8783 107.132 45.9036 107.095C47.5448 107.04 49.1859 107.083 50.8301 107.083C52.2567 107.083 52.971 106.388 52.973 104.999C52.9761 101.15 52.9576 97.3011 52.9884 93.4554C53.0008 91.8574 53.9245 90.8444 55.3316 90.7428C56.8557 90.6319 57.8902 91.494 58.1427 93.1506C58.2505 93.8556 58.2874 94.5792 58.2905 95.2966C58.3059 98.6835 58.3274 102.07 58.2843 105.454C58.2689 106.612 58.6292 107.154 59.87 107.098C61.5604 107.025 63.26 107.018 64.9473 107.105C66.2713 107.172 66.6869 106.6 66.8932 105.353C67.6876 100.552 68.5959 95.7708 69.4734 90.986C71.1084 82.0661 72.9158 73.177 71.8073 63.9985C71.0715 57.9113 69.4704 52.1536 66.416 46.8146C65.9203 45.9463 65.2952 45.6138 64.3069 45.6292C61.3818 45.6753 58.4568 45.6445 55.5317 45.6507V45.6445ZM25.1573 123.814C25.1573 124.479 25.1511 125.145 25.1573 125.813C25.1727 127.426 25.2281 127.469 26.6629 126.746C31.0936 124.507 35.5089 122.235 39.955 120.027C40.8079 119.602 41.1866 119.162 41.0049 118.149C40.2198 113.774 39.5086 109.383 38.7696 104.999C38.6341 104.204 38.2831 103.912 37.3933 104.081C33.7754 104.768 30.9705 106.67 28.8798 109.645C25.8932 113.9 25.262 118.793 25.1573 123.814ZM85.9215 122.53C85.8815 120.286 85.5212 116.674 84.1295 113.247C82.2175 108.552 79.043 105.257 73.9165 104.118C72.9343 103.899 72.4878 104.136 72.3215 105.106C71.5887 109.448 70.859 113.792 70.0739 118.124C69.8922 119.122 70.237 119.581 71.1084 120.012C75.0187 121.936 78.8891 123.938 82.7778 125.902C84.8613 126.953 85.9092 125.83 85.9215 122.534V122.53ZM55.6272 112.468C53.6289 112.468 51.6275 112.465 49.6292 112.468C45.3525 112.481 45.3987 112.471 46.2208 116.662C46.4425 117.798 46.8766 118.174 48.0251 118.158C52.1263 118.097 56.2276 118.137 60.3288 118.134C64.7349 118.131 64.6856 118.118 65.4153 113.771C65.6093 112.61 65.1875 112.447 64.2422 112.456C61.3726 112.481 58.4999 112.465 55.6272 112.465V112.468ZM49.1582 40.247C53.3456 40.247 57.0774 40.2532 60.806 40.2409C61.2309 40.2409 61.9668 40.2902 61.4526 39.5389C59.8977 37.2573 58.309 34.9973 56.6463 32.7928C56.0028 31.9399 55.0575 31.9892 54.4263 32.8451C52.7052 35.1759 51.061 37.5652 49.1582 40.2501V40.247Z" fill="black"/>
<path d="M58.0978 133.675C58.0978 135.107 58.1348 136.539 58.0886 137.971C58.0362 139.51 57.0448 140.474 55.5884 140.495C54.0458 140.52 53.0082 139.55 52.9867 137.921C52.9466 135.058 52.999 132.194 52.9651 129.334C52.9528 128.336 53.3746 127.979 54.3383 127.988C58.8922 128.032 58.0116 127.554 58.107 131.526C58.1255 132.241 58.107 132.958 58.107 133.672C58.107 133.672 58.104 133.672 58.1009 133.672L58.0978 133.675Z" fill="black"/>
<path d="M47.0047 132.328C47.0047 133.091 47.0539 133.861 46.9923 134.622C46.8815 136.007 45.8008 137.002 44.4706 137.017C43.1467 137.033 41.992 136.044 41.9212 134.662C41.8412 133.085 41.8165 131.493 41.9274 129.92C42.0259 128.513 42.9373 127.971 44.3475 127.965C45.7669 127.959 46.783 128.365 46.9739 129.88C47.0755 130.684 46.9923 131.509 46.9923 132.325C46.9954 132.325 46.9985 132.325 47.0047 132.325V132.328Z" fill="black"/>
<path d="M68.8656 132.29C68.8656 133.057 68.9149 133.824 68.8563 134.584C68.7517 135.982 67.6986 136.983 66.3685 137.017C65.0507 137.051 63.856 136.075 63.7791 134.704C63.6867 133.128 63.6898 131.539 63.7791 129.963C63.8622 128.537 64.6535 127.995 66.3192 127.992C67.945 127.992 68.7178 128.568 68.8471 129.994C68.9179 130.751 68.8594 131.524 68.8625 132.287L68.8656 132.29Z" fill="black"/>
<path d="M65.8124 64.7279C65.8124 70.5103 61.1908 75.1812 55.5193 75.1257C49.8447 75.0703 45.2846 70.4795 45.2754 64.8172C45.2662 59.001 49.7708 54.4194 55.51 54.4102C61.2986 54.3979 65.8093 58.9178 65.8124 64.731V64.7279ZM50.6113 64.8018C50.6329 67.5853 52.8405 69.796 55.5839 69.7837C58.235 69.7713 60.6458 67.3666 60.6273 64.7587C60.6058 61.9168 58.3673 59.7584 55.47 59.7861C52.6373 59.8108 50.5898 61.9291 50.6113 64.8049V64.8018Z" fill="black"/>
</svg>
