<svg width="188" height="158" viewBox="0 0 188 158" fill="none" xmlns="http://www.w3.org/2000/svg">
<g clip-path="url(#clip0_996_5618)">
<path d="M90.3858 79.1233C90.3858 99.198 90.3958 119.278 90.3858 139.352C90.3808 148.574 83.3243 156.561 74.1479 157.8C66.116 158.88 58.6763 155.197 54.7798 148.121C54.2971 147.245 53.6452 147.354 52.9286 147.349C44.205 147.26 36.5962 141.214 34.5608 132.729C34.2971 131.624 34.0184 130.504 34.0682 129.365C34.1129 128.379 33.7497 128.305 32.8987 128.449C26.3946 129.559 20.7762 127.678 16.0985 123.119C12.3264 119.447 10.5398 114.824 10.4304 109.594C10.3856 107.454 10.724 105.319 11.5003 103.299C11.7839 102.567 11.6794 102.129 11.0275 101.612C4.78714 96.6451 1.04988 90.1858 0.193947 82.2733C-0.801329 73.0471 2.07999 65.065 8.67369 58.4813C9.36044 57.7995 10.0671 57.1128 10.8583 56.5654C11.6595 56.013 11.7441 55.4855 11.4555 54.5599C9.4301 48.1155 10.4005 42.109 14.506 36.7395C17.9099 32.2906 22.4981 29.8721 28.0965 29.3197C29.8233 29.1505 31.5003 29.3048 33.1774 29.6133C33.889 29.7477 34.0283 29.5436 34.0632 28.8868C34.521 19.6506 41.4282 12.1064 50.5101 10.8524C51.5104 10.713 52.5106 10.6633 53.5109 10.6881C54.1329 10.7031 54.4663 10.4642 54.7649 9.92675C57.6811 4.70155 62.1349 1.56146 67.9623 0.357177C78.1589 -1.74783 88.7187 5.70678 90.2067 15.9979C90.4804 17.9039 90.3858 19.8049 90.3858 21.7058C90.4007 40.845 90.3958 59.9841 90.3958 79.1233H90.3858ZM83.822 43.4725C83.822 35.5402 83.8319 27.6128 83.8071 19.6805C83.8071 18.6852 83.7274 17.665 83.5085 16.6946C82.4087 11.7531 79.4328 8.41891 74.5261 7.15491C69.6841 5.91081 65.4741 7.26937 62.0802 10.9967C61.1148 12.0566 61.1446 12.0367 62.3788 12.7135C69.1616 16.4408 72.8092 22.1039 72.9088 29.9169C72.9337 31.8029 71.4557 33.266 69.6443 33.266C67.8677 33.266 66.4445 31.8527 66.3449 30.0214C66.2852 28.8519 66.1608 27.6874 65.8423 26.5578C64.3992 21.4073 60.3484 18.088 54.7201 17.451C48.9923 16.8041 43.8766 19.7352 41.6422 25.035C40.413 27.9512 40.428 30.9519 41.3635 33.9676C42.0851 36.3065 40.9306 38.2423 38.6315 38.6006C37.6263 38.7549 36.8052 38.312 36.0089 37.8044C34.1577 36.625 32.1274 35.9781 29.9527 35.9184C23.0803 35.7293 17.2132 41.3725 17.0987 48.2449C17.0589 50.7131 17.7655 52.9824 18.9748 55.1272C19.9153 56.7943 19.6018 58.4564 18.2333 59.5462C17.9198 59.795 17.5665 59.9891 17.2231 60.1981C9.6839 64.7963 5.52862 73.5298 6.9021 82.2286C7.96207 88.9367 11.4157 94.1519 17.1883 97.7897C17.3027 97.8594 17.4172 97.924 17.5316 97.9937C19.562 99.2279 20.0597 100.96 18.9051 103.025C17.0241 106.384 16.5463 109.887 17.7954 113.555C20.3134 120.96 29.1714 124.592 36.0587 120.178C37.7158 119.118 39.0794 119.128 40.3434 120.099C41.5327 121.009 41.886 122.468 41.2839 124.284C40.8261 125.672 40.7265 127.096 40.7415 128.539C40.8261 135.157 46.2503 140.547 52.8739 140.626C58.0891 140.691 62.1548 138.705 64.7823 134.087C65.8871 132.152 66.2454 130.022 66.3599 127.827C66.4494 126.13 67.8926 124.767 69.5995 124.742C71.1969 124.717 72.7645 126.011 72.8839 127.548C72.9585 128.509 72.9735 129.499 72.8292 130.455C71.809 137.337 68.1962 142.378 61.9608 145.493C61.3487 145.797 61.2193 146.026 61.6821 146.583C64.8172 150.365 68.8431 151.948 73.6403 151.082C79.7065 149.987 83.7523 145.07 83.7971 138.775C83.8717 127.832 83.812 116.894 83.8319 105.951C83.8319 105.13 83.5085 104.916 82.762 104.936C81.2243 104.971 79.6816 104.971 78.1439 104.936C72.1673 104.806 67.4298 100.258 67.166 94.4257C66.962 89.8573 63.9812 85.8762 59.6816 84.3087C57.6014 83.5523 55.4666 83.7115 53.3317 83.6816C51.3859 83.6518 49.9677 82.3729 49.8881 80.6112C49.7985 78.5908 51.0326 77.1178 53.0879 76.9934C55.3919 76.8541 57.701 76.9038 59.9702 77.4562C67.9424 79.387 73.2074 85.7468 73.8991 94.3112C74.0732 96.4909 75.82 98.1729 77.9946 98.2177C79.6319 98.2475 81.2741 98.2027 82.9113 98.2376C83.6279 98.2525 83.827 97.9688 83.827 97.2871C83.807 90.3948 83.807 83.5025 83.827 76.6102C83.827 75.8289 83.5234 75.6398 82.8118 75.6597C81.3388 75.6946 79.8658 75.6747 78.3927 75.6697C70.9779 75.6498 64.6679 69.6035 64.3245 62.1837C64.23 60.1135 65.4293 58.6107 67.2905 58.4813C69.2412 58.3419 70.6993 59.6308 70.9083 61.6811C71.3313 65.8115 74.0185 68.5684 78.1439 68.9715C79.5025 69.1058 80.8809 69.0013 82.2494 69.0013C83.2912 69.0013 83.8137 68.4921 83.817 67.4736C83.817 59.4765 83.817 51.4795 83.817 43.4825L83.822 43.4725Z" fill="black"/>
<path d="M173.87 49.8573C173.87 53.2711 173.879 56.6849 173.865 60.0938C173.865 60.7805 174.004 61.4025 174.312 62.0196C175.323 64.0599 176.318 66.1052 177.268 68.1704C177.572 68.8273 177.94 69.1159 178.702 69.1209C183.29 69.1607 187.012 72.7885 187.092 77.5111C187.171 82.0744 183.932 85.6425 179.538 86.2546C175.094 86.8766 170.824 83.7614 169.978 79.3872C169.515 76.9985 169.963 74.794 171.337 72.8034C171.67 72.3207 171.7 71.9574 171.441 71.4399C170.456 69.4643 169.495 67.4787 168.57 65.4732C168.276 64.8313 167.878 64.5974 167.176 64.6073C164.832 64.6422 162.494 64.6272 160.15 64.6223C159.667 64.6223 159.244 64.677 158.866 65.0403C157.661 66.1998 156.432 67.3394 155.198 68.464C154.785 68.8373 154.651 69.1856 154.815 69.7728C156.392 75.4111 152.77 80.696 146.962 81.0045C141.981 81.2732 137.885 77.1976 137.99 72.261C138.114 66.5282 143.394 62.5521 148.953 64.0898C149.575 64.264 150.003 64.1893 150.476 63.7365C152.073 62.2087 153.72 60.7407 155.323 59.2229C156.169 58.4217 157.114 58.0186 158.298 58.0385C160.906 58.0833 163.519 58.0286 166.126 58.0684C166.932 58.0833 167.161 57.7947 167.156 57.0184C167.131 52.4003 167.131 47.7822 167.156 43.1641C167.156 42.3928 166.942 42.1091 166.131 42.1141C159.438 42.144 152.745 42.134 146.057 42.1241C145.514 42.1241 145.101 42.2933 144.713 42.6615C141.349 45.8215 137.98 48.9765 134.591 52.1166C134.103 52.5695 133.939 53.0522 133.939 53.7041C133.934 58.2774 130.565 62.0793 126.275 62.3928C121.488 62.7462 117.567 59.6907 116.805 55.0228C115.989 50.0216 120.045 45.2592 125.116 45.1895C126.813 45.1646 128.38 45.513 129.799 46.4087C130.376 46.772 130.709 46.6526 131.167 46.2196C134.402 43.1641 137.686 40.1634 140.896 37.083C142.006 36.018 143.18 35.401 144.743 35.5503C145.574 35.6299 146.415 35.5403 147.251 35.5702C147.863 35.5901 148.072 35.3263 148.067 34.7341C148.052 30.9869 148.047 27.2397 148.067 23.4925C148.067 22.8207 147.788 22.6266 147.166 22.6316C145.36 22.6565 143.553 22.6664 141.747 22.6316C140.946 22.6167 140.757 22.756 141.12 23.5771C142.931 27.6627 141.682 32.0568 138.089 34.4654C134.382 36.9536 129.177 36.0827 126.484 32.5196C123.708 28.8421 124.18 23.6667 127.679 20.7804C128.57 20.0488 128.843 19.3173 128.813 18.2275C128.744 15.8886 128.744 13.5447 128.813 11.2008C128.843 10.2006 128.495 9.9667 127.554 9.97665C122.971 10.0214 118.388 10.0165 113.805 9.97665C112.979 9.97168 112.66 10.2454 112.431 11.0267C110.55 17.4064 102.727 19.4367 98.0345 14.7888C94.6804 11.4596 94.6705 5.95574 98.0146 2.59171C101.379 -0.792229 106.868 -0.837017 110.187 2.54692C110.829 3.2038 111.466 3.4576 112.376 3.45262C118.801 3.41779 125.225 3.43272 131.65 3.43769C134.158 3.43769 135.357 4.62207 135.357 7.09533C135.357 9.67309 135.387 12.2509 135.342 14.8236C135.327 15.6497 135.586 15.9284 136.427 15.9234C141.21 15.8936 145.997 15.9135 150.784 15.9085C152.048 15.9085 153.168 16.232 153.989 17.2621C154.491 17.8891 154.646 18.6206 154.646 19.4218C154.631 24.4081 154.661 29.3945 154.621 34.3808C154.616 35.2915 154.855 35.5951 155.8 35.5851C160.553 35.5403 165.305 35.5602 170.053 35.5652C172.566 35.5652 173.86 36.869 173.87 39.407C173.879 42.8854 173.87 46.3689 173.87 49.8474V49.8573ZM146.609 70.4397C145.534 70.4446 144.593 71.3802 144.613 72.4153C144.633 73.4155 145.564 74.3212 146.574 74.3212C147.709 74.3212 148.515 73.4902 148.5 72.3406C148.485 71.2309 147.694 70.4347 146.604 70.4397H146.609ZM104.106 6.77684C102.991 6.79177 102.215 7.57804 102.22 8.68279C102.225 9.76764 103.15 10.6933 104.195 10.6684C105.2 10.6435 106.096 9.72286 106.106 8.7027C106.116 7.6079 105.235 6.76191 104.101 6.78182L104.106 6.77684ZM135.253 27.2148C135.238 26.1698 134.372 25.2989 133.337 25.284C132.307 25.274 131.326 26.2693 131.361 27.2944C131.396 28.3345 132.272 29.1755 133.322 29.1755C134.486 29.1755 135.268 28.3843 135.248 27.2148H135.253ZM178.483 79.5862C179.572 79.5763 180.399 78.7651 180.403 77.6952C180.408 76.6452 179.458 75.6897 178.418 75.6947C177.393 75.6947 176.492 76.685 176.522 77.7599C176.552 78.8447 177.363 79.5962 178.488 79.5862H178.483ZM125.415 55.6996C126.494 55.6897 127.36 54.8636 127.37 53.8285C127.385 52.7835 126.435 51.8429 125.375 51.8429C124.31 51.8429 123.454 52.7586 123.474 53.8683C123.494 54.978 124.27 55.7096 125.41 55.6996H125.415Z" fill="#66C6EB"/>
<path d="M122.827 151.367C119.751 151.367 116.671 151.392 113.596 151.347C112.829 151.337 112.501 151.591 112.242 152.308C110.859 156.169 106.688 158.603 102.842 157.866C98.4227 157.02 95.402 153.437 95.4866 149.148C95.5612 145.535 97.93 142.345 101.443 141.146C104.792 139.996 108.639 141.091 110.829 143.903C111.366 144.594 111.924 144.823 112.77 144.818C117.721 144.783 122.673 144.778 127.624 144.818C128.54 144.823 128.838 144.559 128.823 143.629C128.774 140.384 128.784 137.14 128.823 133.895C128.833 133.149 128.575 132.686 127.997 132.213C125.275 129.979 124.185 127.063 124.932 123.634C125.683 120.16 127.913 117.936 131.371 117.065C135.745 115.96 140.199 118.523 141.578 122.872C142.941 127.172 140.722 131.9 136.507 133.452C135.546 133.806 135.288 134.288 135.357 135.204C135.417 136 135.387 136.811 135.367 137.612C135.352 138.17 135.546 138.379 136.139 138.334C140.075 138.055 144.031 138.294 147.967 138.011C148.575 137.966 149.197 138.065 149.411 137.269C149.635 136.433 150.356 135.766 149.49 134.736C145.191 129.63 147.659 122.156 154.059 120.673C158.692 119.603 163.25 122.464 164.385 127.157C165.474 131.676 162.593 136.428 158.01 137.433C156.781 137.702 156.069 138.175 155.731 139.384C155.462 140.344 154.964 141.235 154.621 142.181C153.969 143.977 152.615 144.669 150.809 144.699C146.062 144.778 141.314 144.878 136.567 144.918C135.681 144.923 135.258 145.127 135.357 146.092C135.427 146.789 135.382 147.496 135.362 148.197C135.318 150.029 134.014 151.337 132.162 151.352C129.052 151.377 125.942 151.357 122.827 151.357V151.367ZM104.18 151.248C105.295 151.233 106.146 150.362 106.106 149.277C106.071 148.267 105.161 147.371 104.17 147.356C103.125 147.346 102.225 148.257 102.22 149.337C102.215 150.466 103.031 151.258 104.18 151.243V151.248ZM135.248 125.48C135.258 124.36 134.392 123.465 133.312 123.47C132.322 123.48 131.376 124.42 131.366 125.405C131.351 126.515 132.212 127.366 133.342 127.356C134.472 127.346 135.238 126.595 135.248 125.48ZM154.029 129.068C154.019 130.098 155.069 130.909 156.432 130.924C157.159 130.929 157.925 129.974 157.915 129.063C157.905 128.023 156.935 127.072 155.905 127.092C154.919 127.112 154.034 128.043 154.029 129.068Z" fill="black"/>
<path d="M158.98 119.239C154.128 119.239 149.276 119.224 144.424 119.249C143.389 119.254 142.543 118.945 141.787 118.248C137.88 114.64 133.949 111.053 130.057 107.435C129.505 106.922 129.047 106.758 128.291 107.022C124.867 108.221 121.762 107.499 119.244 104.961C116.651 102.344 116.014 99.1241 117.388 95.7004C118.766 92.2667 121.488 90.3856 125.146 90.2861C130.55 90.1368 133.939 94.5409 133.954 98.4673C133.954 99.0346 134.088 99.6666 133.894 100.159C133.397 101.423 134.048 102.085 134.899 102.851C138.278 105.897 141.613 108.992 144.947 112.088C145.429 112.535 145.927 112.69 146.569 112.69C154.198 112.675 161.827 112.665 169.455 112.7C170.356 112.7 170.585 112.406 170.58 111.545C170.54 107.027 170.545 102.513 170.575 97.9945C170.575 97.2281 170.376 96.9196 169.56 96.9345C167.321 96.9793 165.076 96.9793 162.837 96.9345C161.966 96.9196 162.011 97.1834 162.324 97.8402C163.757 100.846 163.519 103.782 161.638 106.489C159.751 109.201 157.044 110.435 153.755 110.172C149.281 109.813 145.688 105.698 145.907 101.284C146.141 96.4966 149.973 92.8589 154.735 93.0132C155.84 93.048 156.537 92.7892 157.094 91.8089C157.771 90.6245 158.97 90.2413 160.269 90.2363C164.683 90.2214 169.102 90.2115 173.516 90.2463C175.85 90.2662 177.124 91.6347 177.129 93.9836C177.129 101.209 177.129 108.44 177.129 115.666C177.129 118.005 175.88 119.249 173.536 119.249C168.684 119.249 163.832 119.249 158.98 119.249V119.239ZM154.611 103.474C155.741 103.459 156.542 102.623 156.512 101.493C156.482 100.493 155.566 99.582 154.576 99.577C153.546 99.572 152.615 100.527 152.625 101.573C152.64 102.702 153.456 103.483 154.611 103.469V103.474ZM125.37 100.841C126.45 100.841 127.39 99.9154 127.36 98.8753C127.33 97.8701 126.41 96.9644 125.4 96.9545C124.295 96.9445 123.464 97.8054 123.479 98.945C123.494 100.06 124.275 100.841 125.37 100.846V100.841Z" fill="black"/>
<path d="M96.671 112.143C96.671 106.759 96.6959 101.374 96.6511 95.9897C96.6411 94.7456 96.9945 93.7354 97.7558 92.765C99.7215 90.2719 101.622 87.724 103.568 85.2109C104.573 83.9121 105.962 83.4493 107.38 83.8872C109.575 84.559 110.411 87.1616 108.983 89.1074C107.36 91.3169 105.673 93.4816 103.976 95.6314C103.449 96.2983 103.225 96.9751 103.23 97.826C103.255 106.654 103.245 115.487 103.245 124.315C103.245 124.415 103.235 124.514 103.245 124.614C103.28 124.957 103.13 125.405 103.668 125.495C104.15 125.574 104.29 125.216 104.419 124.858C104.907 123.509 105.688 122.35 106.773 121.419C109.51 119.065 112.615 118.483 115.92 119.921C119.209 121.349 121.04 123.942 121.1 127.59C121.18 132.327 118.02 135.97 113.297 136.428C110.112 136.736 107.475 135.472 105.549 132.885C105.121 132.307 104.678 132.059 103.971 132.078C102.633 132.123 101.294 132.103 99.9604 132.088C98.0047 132.059 96.6909 130.765 96.6859 128.804C96.671 123.25 96.6809 117.702 96.6809 112.148L96.671 112.143ZM112.491 129.754C113.576 129.769 114.516 128.864 114.506 127.814C114.496 126.813 113.581 125.893 112.571 125.868C111.461 125.843 110.615 126.694 110.625 127.829C110.63 128.948 111.401 129.74 112.491 129.754Z" fill="black"/>
<path d="M106.455 47.2127C106.455 52.1294 106.46 57.046 106.445 61.9627C106.445 62.5698 106.564 63.0376 107.082 63.4407C108.853 64.8142 110.605 66.2075 112.332 67.6308C112.849 68.0588 113.243 68.1633 113.914 67.8497C119.214 65.3864 124.997 68.3374 126.186 74.0553C127.122 78.5539 123.793 83.3711 119.254 84.0827C113.521 84.9834 108.848 80.8132 109.137 74.9908C109.187 73.9657 108.868 73.3337 108.067 72.7216C105.778 70.9799 103.564 69.1486 101.309 67.3571C100.359 66.6007 99.8711 65.6651 99.8711 64.421C99.886 53.8213 99.8761 43.2167 99.881 32.617C99.881 30.507 101.195 29.1435 103.185 29.1485C105.161 29.1534 106.44 30.517 106.44 32.6618C106.445 37.5088 106.44 42.3607 106.44 47.2077L106.455 47.2127ZM119.597 75.6229C119.607 74.4683 118.816 73.6522 117.692 73.6572C116.646 73.6572 115.691 74.6077 115.706 75.6179C115.721 76.6082 116.641 77.5238 117.632 77.5437C118.751 77.5636 119.588 76.7475 119.597 75.6229Z" fill="black"/>
<path d="M30.8882 50.4564C38.3279 50.4912 43.9214 56.1693 43.792 63.5442C43.6726 70.2773 37.7158 75.9155 30.9878 75.6667C29.3306 75.607 27.9621 74.2783 27.8327 72.6013C27.7083 70.9889 28.9325 69.4114 30.5548 69.1277C31.2764 69.0033 32.0278 68.9934 32.7345 68.8093C35.6805 68.0479 37.4521 65.2561 37.039 62.111C36.6807 59.4089 34.1328 57.2242 31.2963 57.1795C30.6295 57.1695 29.9477 57.2043 29.3008 57.0799C27.559 56.7515 26.3697 55.2038 26.519 53.5567C26.6732 51.8647 28.0417 50.5609 29.7885 50.4564C30.1567 50.4315 30.525 50.4564 30.8932 50.4564H30.8882Z" fill="black"/>
<path d="M29.2114 103.339C29.2313 95.2775 35.2975 88.3006 43.1702 87.161C44.1007 87.0266 45.0313 86.947 45.9669 86.9868C47.6439 87.0615 48.9428 88.3454 49.0323 89.9876C49.1319 91.8537 48.0968 93.2372 46.365 93.5358C45.0214 93.7647 43.6379 93.7099 42.3292 94.2275C38.1639 95.8746 35.8997 99.3233 35.7802 104.305C35.7404 105.962 34.566 107.29 32.9188 107.544C31.4508 107.773 29.9031 106.798 29.3707 105.33C29.1219 104.643 29.2662 103.936 29.2164 103.339H29.2114Z" fill="black"/>
<path d="M65.1406 120.83C57.7457 120.74 51.0276 114.435 50.4951 107.075C50.4454 106.413 50.2911 105.771 50.4304 105.085C50.8236 103.208 52.2169 102.099 54.0731 102.243C55.7153 102.372 56.9545 103.786 57.049 105.587C57.2431 109.344 59.0495 112.012 62.5031 113.529C63.4636 113.952 64.4787 114.072 65.5287 114.127C67.9622 114.251 69.47 116.237 68.8629 118.421C68.435 119.959 67.0515 120.85 65.1406 120.83Z" fill="black"/>
<path d="M65.0511 43.4047C64.9715 49.0827 60.448 53.9347 54.7998 54.3925C52.6052 54.5716 51.3711 53.9994 50.6943 52.4965C49.7587 50.4064 51.1272 48.0576 53.4064 47.8386C56.6659 47.5301 58.0046 46.2014 58.343 42.9319C58.5271 41.1304 60.0847 39.742 61.8115 39.8366C63.6478 39.9361 65.071 41.5087 65.0462 43.4047H65.0511Z" fill="black"/>
</g>
<defs>
<clipPath id="clip0_996_5618">
<rect width="187.092" height="158" fill="white"/>
</clipPath>
</defs>
</svg>
