<svg width="158" height="158" viewBox="0 0 158 158" fill="none" xmlns="http://www.w3.org/2000/svg">
<g clip-path="url(#clip0_996_5655)">
<path d="M51.9125 158C51.9125 154.506 51.8631 151.011 51.9496 147.516C51.9836 146.098 51.5232 145.082 50.4727 144.17C49.039 142.925 47.7165 141.553 46.3137 140.271C45.6617 139.674 45.3497 139.016 45.3528 138.117C45.3775 131.693 45.3929 125.27 45.3435 118.846C45.3342 117.536 45.8564 117.193 47.08 117.19C50.5901 117.183 50.5654 117.14 50.5962 113.547C50.6333 109.422 50.6055 105.324 48.6496 101.512C47.3426 98.9563 45.6123 96.7748 43.4463 94.8962C33.7133 86.4578 27.6849 75.8472 25.6734 63.1602C22.8864 45.5758 27.5366 30.0647 39.7014 16.9946C48.662 7.36353 59.7979 1.76161 72.8649 0.361907C90.4864 -1.526 105.688 3.98631 118.063 16.5713C126.52 25.1704 131.476 35.713 132.799 47.7758C134.616 64.3653 129.715 78.7949 118.477 91.1018C116.846 92.8878 114.98 94.4234 113.228 96.0796C109.937 99.1973 107.947 103.007 107.82 107.623C107.746 110.293 107.842 112.969 107.786 115.638C107.762 116.782 108.083 117.304 109.338 117.325C113.024 117.387 113.03 117.431 113.03 121.166C113.03 126.716 113.008 132.268 113.042 137.817C113.049 138.874 112.736 139.674 111.967 140.404C110.404 141.89 108.939 143.481 107.363 144.955C106.541 145.724 106.248 146.568 106.254 147.677C106.279 151.119 106.217 154.558 106.186 158H51.9094H51.9125ZM79.1126 117.301C86.1513 117.301 93.19 117.301 100.229 117.301C101.675 117.301 102.399 116.601 102.401 115.203C102.401 112.635 102.364 110.064 102.401 107.497C102.494 101.369 105.058 96.265 109.6 92.3872C123.684 80.3646 129.833 65.2737 127.398 46.9168C124.255 23.2392 103.899 5.36748 78.9334 5.179C71.4003 5.12338 64.1762 6.87842 57.3723 10.2371C38.8239 19.3924 27.4532 39.6495 30.3546 60.7347C32.0355 72.9489 37.6065 83.0775 46.9008 91.1667C51.2637 94.9641 54.1311 99.6391 55.2959 105.34C55.9726 108.652 55.6729 111.992 55.6543 115.32C55.6451 116.887 56.1425 117.35 57.6844 117.335C64.8251 117.267 71.9657 117.304 79.1064 117.304L79.1126 117.301ZM107.261 137.413C106.075 137.413 105.308 137.413 104.542 137.413C97.7074 137.413 90.8757 137.419 84.0409 137.413C81.1179 137.413 81.1179 137.403 81.1333 134.483C81.1457 132.114 81.1457 132.098 83.528 132.098C90.8757 132.092 98.2234 132.076 105.571 132.126C106.965 132.135 107.518 131.684 107.453 130.263C107.366 128.313 107.376 126.357 107.453 124.407C107.502 123.116 107.122 122.588 105.722 122.591C87.9434 122.628 70.1643 122.621 52.3853 122.591C51.1462 122.591 50.6333 122.949 50.6519 124.253C50.7106 128.208 50.6766 132.166 50.6704 136.121C50.6704 136.807 50.7507 137.437 51.2853 137.956C52.5398 139.168 53.7819 140.397 55.0148 141.633C55.6729 142.292 56.4299 142.542 57.3692 142.542C71.9101 142.523 86.451 142.529 100.995 142.526C101.557 142.526 102.157 142.591 102.599 142.146C104.072 140.666 105.531 139.174 107.264 137.416L107.261 137.413ZM78.9704 152.982C85.3325 152.982 91.6976 153.001 98.0596 152.976C101.579 152.964 101.054 153.415 101.196 149.852C101.258 148.317 100.806 147.822 99.2183 147.829C86.1853 147.887 73.1491 147.85 60.113 147.859C56.4824 147.859 57.0262 147.473 56.9027 151.076C56.8532 152.538 57.2951 153.029 58.7998 153.013C65.5203 152.942 72.2438 152.982 78.9674 152.982H78.9704Z" fill="black"/>
<path d="M157.994 59.3165C151.777 59.3412 145.56 59.3659 139.346 59.3876C139.192 59.3876 139.003 59.4123 138.892 59.3381C137.418 58.3092 138.447 56.8044 138.203 55.5376C138.049 54.7435 138.481 54.2986 139.346 54.3048C145.563 54.3387 151.78 54.3573 157.994 54.382V59.3165Z" fill="black"/>
<path d="M9.97425 59.4019C7.19955 59.4019 4.42795 59.3679 1.65634 59.4173C0.506916 59.4389 -0.0214497 59.0991 0.00326922 57.8477C0.0866954 53.6825 -0.401503 54.3252 3.50099 54.3005C8.32735 54.2696 13.1568 54.3376 17.9832 54.2665C19.4076 54.2449 20.007 54.6095 19.9545 56.1482C19.8309 59.8283 20.2913 59.3617 16.7534 59.3926C14.4947 59.4142 12.2329 59.3957 9.97425 59.3957V59.4019Z" fill="black"/>
<path d="M134.857 75.8672C135.082 75.963 135.419 76.0866 135.737 76.2472C139.828 78.2865 143.901 80.366 148.016 82.359C149.15 82.909 149.37 83.4528 148.786 84.6053C147.154 87.8404 147.198 87.8682 144 86.2708C140.462 84.5034 136.939 82.702 133.377 80.9809C132.354 80.4865 132.097 79.9613 132.7 78.9663C133.176 78.1784 133.531 77.3163 133.954 76.4944C134.118 76.1762 134.288 75.8394 134.857 75.8703V75.8672Z" fill="black"/>
<path d="M149.107 26.3673C149.685 26.3611 149.852 26.6917 150.053 26.9883C152.33 30.347 152.268 30.6066 148.678 32.4018C145.239 34.1228 141.781 35.8099 138.367 37.5804C137.326 38.118 136.736 38.0377 136.213 36.9099C134.381 32.9641 134.084 33.8571 137.792 31.9599C141.17 30.2296 144.575 28.5549 147.973 26.8647C148.384 26.6608 148.814 26.497 149.11 26.3673H149.107Z" fill="black"/>
<path d="M11.5128 87.6201C11.0246 87.6819 10.7898 87.481 10.6415 87.1998C10.073 86.1091 9.51369 85.0122 8.97915 83.9061C8.66398 83.2541 9.14291 82.976 9.61875 82.735C13.9291 80.5752 18.2426 78.4277 22.5498 76.2587C23.279 75.891 23.7888 75.9558 24.1658 76.7469C26.1495 80.9398 26.684 80.0561 22.5653 82.1572C19.185 83.8813 15.7738 85.5437 12.378 87.2307C12.0597 87.3883 11.726 87.5243 11.5128 87.6201Z" fill="black"/>
<path d="M23.3346 34.3167C22.7382 35.429 22.1079 36.7206 21.3633 37.9442C21.1037 38.3675 20.6062 38.0276 20.2478 37.8484C15.9282 35.6948 11.6178 33.5195 7.28585 31.3844C6.5103 31.0013 6.35272 30.578 6.75749 29.8117C9.07797 25.4364 7.8822 25.9277 12.0195 27.9238C15.4431 29.5769 18.8265 31.3041 22.2191 33.0159C22.6919 33.2538 23.3408 33.365 23.3315 34.3136L23.3346 34.3167Z" fill="black"/>
<path d="M78.9676 91.4708C77.3238 91.4708 75.68 91.4739 74.0361 91.4708C72.3841 91.4667 71.5581 90.6119 71.5581 88.9063C71.5581 85.9771 71.5086 83.0479 71.589 80.1218C71.6199 78.9167 71.2645 78.2586 70.0873 77.8322C66.8955 76.6797 67.6031 76.4881 65.2362 78.8271C63.1876 80.8479 61.1329 82.8625 59.1461 84.942C58.3489 85.7731 57.802 85.7484 57.0079 84.9358C54.2116 82.0653 51.3906 79.2165 48.5077 76.4356C47.5746 75.5364 47.7631 74.9864 48.585 74.1923C50.8035 72.0511 52.8984 69.7831 55.1602 67.6913C56.3127 66.6253 56.5908 65.6767 55.9419 64.2028C54.9315 61.9071 55.0242 61.8669 52.5369 61.8669C49.6077 61.8669 46.6785 61.8205 43.7524 61.8916C42.4547 61.9225 41.9078 61.561 41.9356 60.1644C42.0128 56.3113 42.0128 52.4583 41.9356 48.6052C41.9078 47.2086 42.4485 46.8471 43.7462 46.8718C46.9813 46.9398 50.2195 46.8502 53.4546 46.9151C54.604 46.9367 55.2034 46.5381 55.6484 45.469C56.8534 42.5553 56.9029 42.5769 54.6349 40.312C52.7068 38.387 50.8158 36.4281 48.8445 34.5494C47.9979 33.743 47.8836 33.1775 48.7889 32.3031C51.6686 29.5161 54.4959 26.6734 57.2922 23.806C58.0585 23.0181 58.5652 23.0768 59.3006 23.8307C61.5531 26.1512 63.9292 28.3543 66.1261 30.7242C67.3713 32.0683 68.4929 31.5832 69.8525 31.0764C71.1657 30.5882 71.6477 29.8776 71.5982 28.4562C71.487 25.2737 71.5982 22.0849 71.5488 18.9024C71.5303 17.7221 71.9165 17.2555 73.1432 17.274C77.0457 17.3297 80.9543 17.3297 84.8568 17.274C86.1113 17.2555 86.5872 17.6664 86.5624 18.9518C86.4976 22.1869 86.5902 25.4251 86.513 28.6602C86.4852 29.8807 86.8282 30.6191 88.0579 30.9034C88.5523 31.0177 89.0281 31.2433 89.4885 31.4658C90.3908 31.9045 91.0953 31.75 91.8276 31.0208C94.1913 28.6633 96.6385 26.3891 99.0022 24.0316C99.7561 23.2807 100.275 23.2653 101.026 24.0346C103.866 26.936 106.736 29.8065 109.641 32.6399C110.441 33.4216 110.32 33.9284 109.579 34.6483C107.218 36.9379 104.947 39.3202 102.571 41.5912C101.69 42.4348 101.524 43.1856 102.027 44.2979C103.396 47.326 102.679 46.8564 105.877 46.8903C108.701 46.9181 111.529 46.9429 114.353 46.8718C115.653 46.8378 116.188 47.2179 116.16 48.6114C116.083 52.4645 116.083 56.3175 116.16 60.1706C116.188 61.5795 115.623 61.9163 114.337 61.8916C111.257 61.8267 108.17 61.9441 105.089 61.8453C103.649 61.7989 102.695 62.1264 102.429 63.659C102.386 63.9062 102.277 64.1565 102.148 64.3728C101.372 65.6643 101.78 66.5975 102.831 67.5831C105.114 69.7275 107.255 72.0233 109.514 74.1923C110.348 74.9926 110.512 75.5457 109.591 76.4356C106.708 79.2196 103.884 82.0622 101.085 84.9327C100.3 85.7392 99.7654 85.7886 98.9559 84.9482C96.6786 82.5782 94.2871 80.3165 92.016 77.9403C91.1756 77.0628 90.3815 76.8033 89.3062 77.3718C88.8984 77.585 88.4627 77.7704 88.0178 77.8755C86.8869 78.1443 86.4821 78.7962 86.5099 79.9766C86.581 83.0572 86.5315 86.1408 86.5285 89.2245C86.5264 90.7159 85.8023 91.4647 84.3563 91.4708C82.558 91.4739 80.7597 91.4708 78.9614 91.4708H78.9676ZM81.4209 80.6687H81.4333C81.4333 79.2288 81.4704 77.7889 81.4209 76.3522C81.3869 75.4005 81.7237 74.8319 82.6321 74.4766C85.3605 73.4137 88.0734 72.3106 90.7708 71.1736C91.6113 70.8182 92.1922 70.9696 92.8256 71.6C94.4601 73.2314 96.1472 74.8134 97.825 76.4047C100.346 78.7993 99.5646 78.9198 102.24 76.3583C103.007 75.626 103.044 75.0946 102.259 74.3407C100.26 72.4188 98.3595 70.3918 96.3449 68.4854C95.4118 67.6048 95.2635 66.8138 95.8135 65.6458C96.9475 63.2295 97.9795 60.7607 98.9651 58.2827C99.407 57.1734 100.034 56.6883 101.267 56.7377C103.473 56.8273 105.686 56.7872 107.895 56.7563C111.408 56.7068 110.972 57.3063 111.056 53.5057C111.08 52.3748 110.697 51.9577 109.548 51.9824C106.724 52.0411 103.897 51.9639 101.072 52.0164C100.047 52.035 99.4626 51.6549 99.0795 50.7187C97.9826 48.0583 96.864 45.4103 95.6868 42.7839C95.2604 41.8353 95.4242 41.1679 96.1565 40.4634C97.859 38.8258 99.5244 37.148 101.174 35.4579C103.421 33.159 103.557 33.8264 101.131 31.2649C100.269 30.3565 99.7005 30.4554 98.8879 31.3082C96.9382 33.3537 94.8896 35.3034 92.9183 37.3241C92.2571 38.0008 91.6329 38.1769 90.7338 37.7722C88.061 36.5795 85.3605 35.4486 82.6569 34.3208C81.7917 33.9593 81.3993 33.4155 81.4209 32.4422C81.4734 30.1309 81.4642 27.8197 81.4302 25.5054C81.3777 22.0046 81.9956 22.4495 78.1642 22.3692C77.0117 22.3445 76.6347 22.774 76.6563 23.8987C76.712 26.7228 76.6347 29.55 76.6903 32.3742C76.7089 33.4093 76.3041 33.9747 75.3771 34.3579C72.7199 35.4548 70.0688 36.5764 67.4486 37.7567C66.4783 38.1924 65.8295 37.9606 65.1374 37.2469C63.4935 35.5475 61.8034 33.8944 60.1256 32.232C57.7989 29.9239 58.4509 29.9394 55.9419 32.2969C55.0304 33.1559 55.1293 33.7244 55.9821 34.5371C58.0276 36.4868 59.9773 38.5323 61.9981 40.5067C62.6716 41.1648 62.8601 41.7921 62.4584 42.6943C61.2658 45.367 60.1256 48.0645 58.9978 50.765C58.6363 51.6333 58.0925 52.0226 57.1222 52.001C54.811 51.9515 52.4998 51.9639 50.1855 51.9917C46.6971 52.0319 47.1266 51.4448 47.0462 55.2608C47.0215 56.4164 47.451 56.7841 48.5757 56.7624C51.3998 56.7068 54.2271 56.7872 57.0512 56.7346C58.0863 56.7161 58.6548 57.1209 59.038 58.0447C60.1349 60.702 61.2472 63.3562 62.4275 65.9795C62.8601 66.9404 62.6655 67.5955 61.9393 68.2938C60.2368 69.9314 58.5714 71.6092 56.9214 73.3025C54.6596 75.6199 54.5608 74.9246 56.9832 77.4831C57.8484 78.3946 58.42 78.2741 59.2295 77.4274C61.1792 75.385 63.2278 73.4322 65.1991 71.4115C65.8666 70.7255 66.5062 70.5865 67.3929 70.9789C70.0688 72.1654 72.7662 73.3056 75.4698 74.4303C76.3505 74.7949 76.7027 75.3634 76.6811 76.3213C76.6347 78.5799 76.6656 80.8417 76.6718 83.1035C76.6811 86.6599 76.6811 86.6352 80.2653 86.3664C81.1305 86.3015 81.4425 85.9554 81.4271 85.1304C81.3993 83.6411 81.4209 82.1518 81.4209 80.6594V80.6687Z" fill="#66C6EB"/>
<path d="M79.0015 64.3338C73.5108 64.3368 69.114 59.9678 69.0923 54.4864C69.0738 48.7856 73.4151 44.4196 79.0973 44.4258C84.6189 44.432 88.9941 48.7825 89.0003 54.2732C89.0065 59.9956 84.6992 64.3276 79.0015 64.3338ZM79.0262 49.5735C76.5914 49.5797 74.271 51.8816 74.2401 54.3257C74.2092 56.8254 76.5791 59.2108 79.0726 59.1922C81.5198 59.1737 83.8155 56.8934 83.8588 54.4369C83.902 51.9496 81.5352 49.5673 79.0293 49.5704L79.0262 49.5735Z" fill="#66C6EB"/>
</g>
<defs>
<clipPath id="clip0_996_5655">
<rect width="157.994" height="158" fill="white"/>
</clipPath>
</defs>
</svg>
