<svg width="158" height="158" viewBox="0 0 158 158" fill="none" xmlns="http://www.w3.org/2000/svg">
<g clip-path="url(#clip0_996_5637)">
<path d="M77.6573 0C85.54 1.47305 93.2061 3.54646 100.439 7.19814C142.142 28.2603 151.324 84.4961 118.426 117.64C115.382 120.71 112.251 123.68 108.588 125.995C106.738 127.165 106.75 128.223 108.334 129.523C108.415 129.585 108.483 129.665 108.551 129.74C114.466 135.898 115.307 135.91 121.29 129.932C124.848 126.373 128.418 122.826 131.933 119.23C135.033 116.055 135.076 114.954 132.459 111.296C132.341 111.129 132.205 110.974 132.087 110.801C130.85 109.018 130.906 107.285 132.545 105.843C134.104 104.469 135.726 104.791 137.279 106.029C141.177 109.123 142.878 114.434 140.917 119.02C139.989 121.192 140.533 122.362 142.012 123.804C146.504 128.174 150.891 132.636 155.321 137.068C155.828 137.575 156.36 138.064 156.818 138.615C158.254 140.342 158.495 142.217 156.868 143.87C155.179 145.584 153.316 145.225 151.701 143.635C146.888 138.869 142.024 134.14 137.353 129.238C135.54 127.338 134.395 127.109 132.434 129.121C126.803 134.895 126.711 134.809 132.397 140.528C135.948 144.093 139.494 147.658 143.07 151.204C144.771 152.888 145.755 154.689 143.936 156.843C142.482 158.557 140.069 158.371 138.009 156.335C133.183 151.576 128.381 146.797 123.648 141.945C122.274 140.54 121.142 140.045 119.119 140.924C114.707 142.842 110.661 141.66 107.183 138.516C105.284 136.796 103.446 134.988 101.72 133.094C100.408 131.652 99.2264 131.547 97.4073 132.296C71.9402 142.842 47.9272 140.132 26.024 123.359C11.7498 112.416 3.45872 97.5493 0.476425 79.7675C0.358866 79.0681 0.160871 78.3749 0 77.6817C0 71.9257 0 66.1758 0 60.4198C0.142309 59.9308 0.334117 59.4481 0.414552 58.9467C4.41158 35.2294 17.1451 17.887 38.4482 6.80202C45.3532 3.20605 52.8275 1.4421 60.4008 0H77.6573ZM68.9579 6.932C34.1727 7.06197 6.8432 34.8642 6.92982 70.0317C7.01645 103.844 35.3421 131.287 70.016 131.157C103.496 131.033 131.215 102.816 131.122 68.9672C131.029 34.5919 103.18 6.79583 68.9579 6.92581V6.932Z" fill="black"/>
<path d="M65.3386 147.868C64.8188 144.866 66.3162 144.191 69.0015 144.136C72.0085 144.068 72.8562 145.25 72.8686 148.103C72.8748 150.969 71.7796 151.792 69.0448 151.798C66.112 151.804 64.7755 150.82 65.3386 147.868Z" fill="black"/>
<path d="M52.3264 148.092C51.8129 145.177 52.9452 144.143 55.8037 144.137C58.687 144.124 59.4295 145.263 59.4295 147.968C59.4295 150.673 58.718 151.855 55.8099 151.793C53.038 151.731 51.6706 150.889 52.3202 148.092H52.3264Z" fill="black"/>
<path d="M78.7712 147.938C78.2452 145.115 79.458 144.168 82.2732 144.137C85.1936 144.106 85.8804 145.326 85.899 147.993C85.9175 150.729 85.0699 151.812 82.2237 151.806C79.3466 151.8 78.27 150.698 78.7712 147.938Z" fill="black"/>
<path d="M67.9803 102.394C64.2679 102.239 59.6521 102.716 55.0611 101.899C49.8947 100.977 45.3099 98.866 41.2572 95.53C39.8898 94.4036 39.2215 93.0543 39.2525 91.2656C39.3081 87.9853 39.3453 84.6926 39.2401 81.4123C39.1411 78.3238 40.4528 76.108 42.9525 74.4431C47.0547 71.7198 51.1136 68.9285 55.2467 66.2485C56.7379 65.283 57.0844 64.5712 55.915 62.8939C50.6186 55.2811 50.9651 46.9256 54.0711 38.8052C56.7688 31.7556 64.9052 28.1163 72.4166 29.6018C79.7919 31.0624 85.4967 37.6726 85.7751 45.2792C86.0164 51.7532 86.3938 58.2953 81.6481 63.6861C80.5468 64.9364 81.8028 65.4934 82.6072 66.0381C86.1773 68.4581 89.6546 71.0266 93.3793 73.1743C97.3825 75.4829 99.3377 78.5652 98.8428 83.2505C98.6138 85.3796 98.6015 87.5768 98.8428 89.7059C99.2264 93.0295 97.6919 95.1339 95.1304 96.8793C89.9825 100.389 84.3211 102.233 78.109 102.369C75.0339 102.437 71.9526 102.382 67.9803 102.382V102.394ZM68.8775 94.8492C68.8775 94.8492 68.8775 94.812 68.8775 94.7935C72.9797 94.7935 77.1004 94.9853 81.1903 94.7502C89.0606 94.3045 91.8325 91.1666 91.7211 83.5228C91.6964 81.5608 91.0343 80.2858 89.3823 79.2274C84.7232 76.2318 80.1446 73.1 75.5289 70.0302C74.6812 69.4669 73.8335 69.0584 72.7136 68.9904C66.6933 68.5942 61.2175 69.7021 56.6018 73.9418C55.2591 75.1735 53.669 76.2813 51.9984 77.0055C46.9495 79.1903 45.613 83.0277 46.3122 88.1524C46.5411 89.8544 47.0176 91.0242 48.5087 91.8721C51.491 93.568 54.5971 94.8368 58.0929 94.8492C61.6878 94.8616 65.2764 94.8492 68.8713 94.8492H68.8775ZM78.703 49.3765C78.6844 47.6373 78.7215 45.9105 78.2946 44.1899C77.1437 39.5603 73.6603 36.5957 69.1621 36.54C64.5339 36.4781 60.8092 39.4304 59.7882 44.2332C59.0148 47.8663 58.9777 51.5799 59.9677 55.1821C61.6383 61.26 68.2278 63.909 73.7098 60.7958C78.2018 58.2396 78.8081 53.9628 78.7091 49.3765H78.703Z" fill="#66C6EB"/>
<path d="M12.8385 66.1865C14.144 40.928 32.1616 19.4884 57.2698 14.0728C60.8832 13.2929 64.5337 12.7297 68.2523 12.8225C70.5664 12.8844 72.4535 13.7819 72.5154 16.2947C72.5711 18.7704 70.8943 19.8164 68.4751 19.9402C54.4298 20.6396 42.2841 25.6096 32.7432 36.1747C25.504 44.196 21.2595 53.5851 20.4056 64.4349C20.2942 65.8647 20.0158 67.2882 19.9354 68.7179C19.8116 71.0265 18.667 72.5367 16.3777 72.5429C14.0388 72.5429 13.0117 70.8656 12.8509 68.656C12.8014 67.9381 12.8447 67.2201 12.8447 66.1803L12.8385 66.1865Z" fill="black"/>
<path d="M125.219 71.587C124.737 97.6005 102.642 121.844 76.8528 124.716C74.3036 125 71.773 125.508 69.1929 125.242C67.1139 125.025 65.5671 123.961 65.5361 121.794C65.5052 119.498 66.9407 118.304 69.2733 118.186C80.5343 117.617 90.9042 114.491 99.7212 107.212C110.264 98.5042 116.421 87.3882 117.652 73.6666C117.782 72.2368 118.042 70.8133 118.116 69.3836C118.234 67.075 119.366 65.5524 121.662 65.5586C123.982 65.5586 125.046 67.2173 125.207 69.4331C125.256 70.1511 125.213 70.869 125.213 71.587H125.219Z" fill="black"/>
</g>
<defs>
<clipPath id="clip0_996_5637">
<rect width="158" height="158" fill="white"/>
</clipPath>
</defs>
</svg>
