<svg width="24" height="25" viewBox="0 0 24 25" fill="none" xmlns="http://www.w3.org/2000/svg">
<path d="M4 3.99219H20C20.2652 3.99219 20.5196 4.09754 20.7071 4.28508C20.8946 4.47262 21 4.72697 21 4.99219V20.9922C21 21.2574 20.8946 21.5118 20.7071 21.6993C20.5196 21.8868 20.2652 21.9922 20 21.9922H4C3.73478 21.9922 3.48043 21.8868 3.29289 21.6993C3.10536 21.5118 3 21.2574 3 20.9922V4.99219C3 4.72697 3.10536 4.47262 3.29289 4.28508C3.48043 4.09754 3.73478 3.99219 4 3.99219ZM11.003 16.9922L18.073 9.92119L16.659 8.50719L11.003 14.1642L8.174 11.3352L6.76 12.7492L11.003 16.9922Z" fill="#325A3E"/>
</svg>
