<svg width="21" height="21" viewBox="0 0 21 21" fill="none" xmlns="http://www.w3.org/2000/svg">
<path d="M10.3675 18.5495C5.76501 18.5495 2.03418 14.8186 2.03418 10.2161C2.03418 5.61365 5.76501 1.88281 10.3675 1.88281C14.97 1.88281 18.7008 5.61365 18.7008 10.2161C18.7008 14.8186 14.97 18.5495 10.3675 18.5495ZM9.53418 12.7161V14.3828H11.2008V12.7161H9.53418ZM11.2008 11.3453C11.8706 11.1435 12.4455 10.7078 12.821 10.1176C13.1964 9.52742 13.3474 8.82202 13.2465 8.12987C13.1455 7.43771 12.7993 6.80484 12.2709 6.34653C11.7424 5.88821 11.067 5.63493 10.3675 5.63281C9.69322 5.63276 9.03973 5.86627 8.51817 6.29364C7.99661 6.72101 7.63919 7.31584 7.50668 7.97698L9.14168 8.30448C9.18808 8.07234 9.29944 7.85815 9.46282 7.68683C9.62619 7.5155 9.83486 7.3941 10.0645 7.33673C10.2942 7.27937 10.5355 7.2884 10.7602 7.36279C10.9849 7.43717 11.1839 7.57384 11.334 7.75691C11.4841 7.93997 11.5792 8.16189 11.6081 8.39685C11.637 8.63181 11.5986 8.87015 11.4973 9.08413C11.3961 9.29812 11.2361 9.47895 11.0361 9.60559C10.8361 9.73223 10.6042 9.79946 10.3675 9.79948C10.1465 9.79948 9.93454 9.88728 9.77826 10.0436C9.62198 10.1998 9.53418 10.4118 9.53418 10.6328V11.8828H11.2008V11.3453Z" fill="#325A3E"/>
</svg>
