<svg width="20" height="21" viewBox="0 0 20 21" fill="none" xmlns="http://www.w3.org/2000/svg">
<path d="M9 0.163281V2.17528C6.98271 2.43196 5.13885 3.44715 3.84319 5.0145C2.54752 6.58185 1.89728 8.58375 2.02462 10.6133C2.15196 12.6429 3.04733 14.5478 4.52874 15.9409C6.01016 17.334 7.96645 18.1108 10 18.1133C11.9486 18.1132 13.8302 17.4021 15.2917 16.1133C16.7533 14.8245 17.6942 13.0466 17.938 11.1133H19.951C19.449 16.1663 15.185 20.1133 10 20.1133C4.477 20.1133 0 15.6363 0 10.1133C0 4.92828 3.947 0.664281 9 0.163281ZM16.707 4.82028L10 11.5273L8.586 10.1133L15.293 3.40628L12 0.113281H20V8.11328L16.707 4.82028Z" fill="#325A3E"/>
</svg>
