<svg width="21" height="21" viewBox="0 0 21 21" fill="none" xmlns="http://www.w3.org/2000/svg">
<path d="M7.0332 6.05078V9.38411L2.0332 5.21745L7.0332 1.05078V4.38411H11.1999C12.968 4.38411 14.6637 5.08649 15.9139 6.33674C17.1642 7.58698 17.8665 9.28267 17.8665 11.0508C17.8665 12.8189 17.1642 14.5146 15.9139 15.7648C14.6637 17.0151 12.968 17.7174 11.1999 17.7174H3.69987V16.0508H11.1999C12.526 16.0508 13.7977 15.524 14.7354 14.5863C15.6731 13.6486 16.1999 12.3769 16.1999 11.0508C16.1999 9.7247 15.6731 8.45293 14.7354 7.51525C13.7977 6.57757 12.526 6.05078 11.1999 6.05078H7.0332Z" fill="#325A3E"/>
</svg>
