<svg width="25" height="25" viewBox="0 0 25 25" fill="none" xmlns="http://www.w3.org/2000/svg">
<path d="M18.5037 17.6033L22.7867 21.8853L21.3717 23.3003L17.0897 19.0173C15.4964 20.2945 13.5147 20.9892 11.4727 20.9863C6.50466 20.9863 2.47266 16.9543 2.47266 11.9863C2.47266 7.01833 6.50466 2.98633 11.4727 2.98633C16.4407 2.98633 20.4727 7.01833 20.4727 11.9863C20.4756 14.0283 19.7809 16.0101 18.5037 17.6033ZM16.4977 16.8613C17.7668 15.5562 18.4755 13.8068 18.4727 11.9863C18.4727 8.11833 15.3397 4.98633 11.4727 4.98633C7.60466 4.98633 4.47266 8.11833 4.47266 11.9863C4.47266 15.8533 7.60466 18.9863 11.4727 18.9863C13.2931 18.9892 15.0425 18.2804 16.3477 17.0113L16.4977 16.8613Z" fill="#325A3E"/>
</svg>
