<svg width="18" height="19" viewBox="0 0 18 19" fill="none" xmlns="http://www.w3.org/2000/svg">
<path d="M11.8229 0.691406C12.2832 0.691406 12.6562 1.0645 12.6562 1.52474V2.35724L16.8229 2.35807V7.35807L15.1396 7.35724L17.4452 13.6874C17.5816 14.0514 17.6562 14.4456 17.6562 14.8572C17.6562 16.6982 16.1639 18.1906 14.3229 18.1906C12.7702 18.1906 11.4655 17.129 11.095 15.6921L7.55107 15.692C7.18082 17.1294 5.87589 18.1914 4.32292 18.1914C2.70219 18.1914 1.35163 17.0347 1.05169 15.5018C0.51923 15.2239 0.15625 14.6667 0.15625 14.0247V9.85807H7.65625C7.65625 10.2854 7.97795 10.6377 8.3924 10.6858L8.48958 10.6914H10.1562C10.5836 10.6914 10.9358 10.3697 10.984 9.95526L10.9896 9.85807V2.35807H8.48958V0.691406H11.8229ZM4.32292 13.1914C3.40244 13.1914 2.65625 13.9376 2.65625 14.8581C2.65625 15.7785 3.40244 16.5247 4.32292 16.5247C5.24339 16.5247 5.98958 15.7785 5.98958 14.8581C5.98958 13.9376 5.24339 13.1914 4.32292 13.1914ZM14.3229 13.1914C13.4024 13.1914 12.6562 13.9376 12.6562 14.8581C12.6562 15.7785 13.4024 16.5247 14.3229 16.5247C15.2434 16.5247 15.9896 15.7785 15.9896 14.8581C15.9896 13.9376 15.2434 13.1914 14.3229 13.1914ZM6.82292 2.35807C7.28315 2.35807 7.65625 2.73117 7.65625 3.19141V9.02474H0.15625V3.19141C0.15625 2.73117 0.529346 2.35807 0.989583 2.35807H6.82292ZM15.1562 4.02474H12.6562V5.69141H15.1562V4.02474ZM5.98958 4.02474H1.82292V4.85807H5.98958V4.02474Z" fill="#325A3E"/>
</svg>
