<svg width="191" height="140" viewBox="0 0 191 140" fill="none" xmlns="http://www.w3.org/2000/svg">
<g clip-path="url(#clip0_1078_10895)">
<path d="M20.3633 30.9616C21.3857 29.8392 22.7666 29.3339 24.1182 28.7757C46.6416 19.4619 69.1767 10.1717 91.6707 0.793284C94.2034 -0.264428 96.4187 -0.264428 98.9454 0.793284C121.528 10.2187 144.145 19.5501 166.751 28.9167C168.09 29.4749 169.671 29.8686 170.165 31.4258C170.97 33.9467 169.178 34.9339 167.285 35.7154C157.737 39.6701 148.182 43.5954 138.639 47.5618C137.599 47.9966 136.271 48.1671 135.901 49.5127C135.695 50.2472 135.472 51.1521 136.106 51.728C136.694 52.2569 137.393 51.728 138.004 51.4753C144.862 48.6724 151.749 45.9341 158.565 43.0254C161.227 41.8913 164.324 41.48 165.752 38.1482C166.451 36.5146 169.301 37.0317 170.118 38.6653C171.399 41.2273 170.194 44.4651 167.385 45.6462C161.092 48.2846 154.769 50.8466 148.458 53.4439C144.944 54.8894 141.43 56.3467 137.91 57.7864C136.782 58.2506 135.777 58.7912 135.777 60.2367C135.777 69.2684 135.777 78.306 135.777 87.9958C138.269 85.2164 139.855 82.8835 139.756 79.5987C139.626 75.2151 139.703 70.8197 139.756 66.4302C139.779 64.3794 140.149 62.2052 142.711 62.1759C145.267 62.1465 145.702 64.2619 145.714 66.3538C145.737 71.1312 145.843 75.9144 145.69 80.6917C145.538 85.6042 142.735 89.4178 139.415 92.5557C136.512 95.2999 135.225 98.1675 135.724 102.052C135.924 103.585 135.813 105.172 135.724 106.729C135.625 108.674 136.036 110.12 137.763 111.489C141.313 114.286 141.465 119.48 138.463 122.671C135.378 125.95 130.054 125.932 126.981 122.63C124.001 119.422 124.207 114.28 127.756 111.448C129.366 110.161 129.754 108.821 129.748 106.958C129.713 88.7186 129.69 70.4789 129.784 52.2392C129.795 49.8065 129.008 48.5901 126.687 47.7792C119.33 45.1878 112.043 42.4143 104.763 39.6231C102.935 38.9238 101.308 38.818 99.4214 39.5114C95.5314 40.9394 91.7177 40.481 88.2626 38.1423C83.9847 35.2395 83.9083 29.9098 88.0216 26.813C92.0292 23.7985 98.9278 23.9043 102.812 27.0363C104.064 28.047 105.321 29.2986 105.256 30.8676C105.133 33.7352 106.937 34.3992 109.058 35.1689C115.751 37.5899 122.433 40.0344 129.043 42.6611C131.505 43.6424 133.609 43.5249 136.018 42.4848C143.775 39.1236 151.62 35.9681 159.458 32.7244C158.959 31.6374 158.095 31.5551 157.413 31.273C137.693 23.0934 117.961 14.9431 98.2462 6.75173C96.4598 6.01133 94.8204 5.71752 92.9165 6.51081C72.7553 14.902 52.5706 23.2285 32.3918 31.5845C31.9629 31.7608 31.5633 32.0193 30.629 32.5129C34.8951 34.2993 38.7087 35.9035 42.5282 37.49C59.2812 44.4239 76.046 51.3402 92.7813 58.3093C94.5442 59.0439 96.1131 58.9969 97.8348 58.2682C104.569 55.4241 111.332 52.6388 118.09 49.8535C118.983 49.4833 119.906 49.1131 120.852 48.9486C122.221 48.7018 123.431 49.119 123.925 50.5469C124.372 51.8573 124.195 53.2852 122.879 53.8787C114 57.8921 105.004 61.6411 95.8663 65.0199C94.6265 65.4783 93.3748 64.7496 92.2113 64.2678C69.1767 54.6955 46.1186 45.1467 23.0781 35.5626C22.1085 35.1572 21.2682 34.452 20.3633 33.8879C20.3633 32.9125 20.3633 31.937 20.3633 30.9616ZM95.2082 34.3933C96.9652 34.2464 99.3979 34.4462 99.4097 32.319C99.4155 30.3681 97.0239 30.5914 95.4139 30.4621C95.3198 30.4562 95.2199 30.4562 95.1259 30.4621C93.5217 30.609 91.1301 30.3622 91.1184 32.3366C91.1066 34.5754 93.5922 34.1876 95.2082 34.3992V34.3933Z" fill="black"/>
<path d="M20.3633 37.983C22.6961 36.8077 24.7175 36.7078 25.7517 39.6518C26.1337 40.7389 27.0798 41.0033 27.9671 41.3735C49.5679 50.323 71.1805 59.2547 92.7696 68.2453C94.6382 69.021 96.2777 68.9152 98.0934 68.1395C104.904 65.2367 111.756 62.4279 118.595 59.5897C119.048 59.4017 119.489 59.196 119.947 59.0373C121.892 58.3498 124.137 57.3156 125.206 59.9951C126.252 62.6159 124.078 63.5561 122.115 64.367C114.282 67.6107 106.432 70.8073 98.634 74.1274C96.3129 75.1146 94.2327 75.0793 91.9058 74.1039C69.4176 64.7372 46.9001 55.447 24.3943 46.1332C22.9606 45.5397 21.4621 45.0285 20.3633 43.8415V37.9889V37.983Z" fill="black"/>
<path d="M92.283 92.6726C92.283 89.8462 92.2771 87.0197 92.2889 84.1933C92.3006 82.0426 92.5533 79.6921 95.2387 79.651C97.9418 79.604 98.2708 81.9192 98.2767 84.0934C98.2885 89.6522 98.453 95.2111 98.218 100.758C98.0887 103.737 99.1229 104.325 101.879 104.078C107.749 103.555 113.414 102.333 118.873 100.135C119.596 99.8415 120.318 99.5477 121.029 99.2304C122.78 98.4489 124.396 98.584 125.243 100.447C126.1 102.327 125.06 103.602 123.362 104.419C118.232 106.899 112.803 108.433 107.185 109.243C92.5945 111.359 78.4094 110.242 65.0528 103.45C57.4196 99.5654 51.3202 93.9301 46.7955 86.6143C45.4792 84.4871 44.7623 82.2541 44.8152 79.7097C44.9093 75.2262 44.8387 70.7427 44.8446 66.2592C44.8446 64.2613 45.303 62.2692 47.624 62.1517C50.1684 62.0283 50.756 64.1085 50.7913 66.2004C50.8618 70.0963 51.0028 74.0098 50.7796 77.894C50.5739 81.4608 51.8431 84.2873 53.9821 86.9962C61.3919 96.357 71.3344 101.199 82.8106 103.308C85.1963 103.749 87.6526 103.779 90.0559 104.108C91.7659 104.343 92.3242 103.667 92.2889 102.022C92.2184 98.9013 92.2713 95.7811 92.2713 92.6667L92.283 92.6726Z" fill="#66C6EB"/>
<path d="M145.572 136.656C145.442 138.46 144.872 139.542 143.456 139.888C142.081 140.229 140.8 139.8 140.289 138.466C138.926 134.929 138.144 131.215 137.48 127.495C137.239 126.156 138.15 125.039 139.507 124.657C141.059 124.216 142.322 124.945 142.763 126.373C143.85 129.887 144.714 133.471 145.566 136.65L145.572 136.656Z" fill="#66C6EB"/>
<path d="M119.883 136.798C120.788 133.419 121.646 129.835 122.739 126.327C123.179 124.905 124.46 124.17 126.012 124.699C127.451 125.187 128.333 126.344 128.004 127.855C127.263 131.263 126.382 134.642 125.43 137.997C125.013 139.478 123.832 140.183 122.269 139.93C120.647 139.672 120.118 138.479 119.889 136.798H119.883Z" fill="#66C6EB"/>
<path d="M135.787 132.913C135.681 135.076 135.934 136.545 135.423 137.955C134.947 139.283 134.042 140.041 132.579 139.976C131.239 139.918 130.328 139.148 130.081 137.914C129.511 135.046 129.476 132.138 130.081 129.27C130.363 127.913 131.339 127.025 132.761 127.025C134.195 127.025 135.135 127.948 135.399 129.305C135.676 130.716 135.711 132.179 135.781 132.913H135.787Z" fill="#66C6EB"/>
</g>
<defs>
<clipPath id="clip0_1078_10895">
<rect width="150.272" height="140" fill="white" transform="translate(20.3633)"/>
</clipPath>
</defs>
</svg>
