<svg width="181" height="140" viewBox="0 0 181 140" fill="none" xmlns="http://www.w3.org/2000/svg">
<g clip-path="url(#clip0_1078_10913)">
<path d="M160.529 44.7807C159.197 45.7292 157.678 45.8717 156.105 45.8717C112.508 45.8717 68.9117 45.8717 25.3207 45.8607C21.1431 45.8607 20.551 45.2303 20.54 41.1732C20.5345 38.3498 20.688 35.5208 20.4961 32.7138C20.3207 30.1316 21.3185 28.7664 23.7089 27.7686C38.8185 21.4638 53.8843 15.0439 68.9556 8.64035C75.6442 5.78947 82.3108 2.88377 88.9885 0C90.0795 0 91.1705 0 92.267 0C110.737 7.86732 129.224 15.7018 147.667 23.6294C151.993 25.4879 156.527 26.9189 160.529 29.4901V44.7807ZM90.6332 40.7785C100.452 40.7785 110.277 40.7785 120.096 40.7785C131.099 40.7785 142.102 40.784 153.106 40.7621C154.043 40.7621 155.518 41.1678 155.704 39.9397C156.028 37.807 156.05 35.5866 155.842 33.4375C155.683 31.7928 153.868 31.7325 152.684 31.2281C132.777 22.7632 112.848 14.3531 92.9468 5.87171C91.3075 5.16996 89.9369 5.1864 88.2922 5.88816C68.7253 14.227 49.12 22.4726 29.5532 30.8059C24.3613 33.0154 25.5126 31.9846 25.2275 37.2752C25.085 39.9836 25.8635 40.8607 28.6979 40.8443C49.3393 40.7237 69.9863 40.7785 90.6277 40.7785H90.6332Z" fill="black"/>
<path d="M160.529 139.26C159.394 139.961 158.133 140 156.845 140C112.739 139.989 68.6267 140 24.5203 139.989C20.9841 139.989 20.562 139.556 20.5455 136.085C20.5291 132.445 20.5346 128.81 20.5455 125.17C20.5565 121.283 21.187 120.641 25.1947 120.63C34.2901 120.603 43.3854 120.608 52.4754 120.614C86.7626 120.614 121.05 120.619 155.332 120.619C157.157 120.619 158.994 120.521 160.529 121.782V139.26ZM90.4907 135.247C110.496 135.247 130.502 135.268 150.507 135.236C156.779 135.225 155.907 136.063 155.962 129.704C155.995 125.778 155.962 125.778 151.872 125.778C111.68 125.778 71.4885 125.762 31.2966 125.795C24.312 125.8 25.4852 124.791 25.233 131.886C25.1398 134.479 25.8964 135.312 28.5719 135.301C49.2133 135.197 69.8547 135.247 90.4962 135.252L90.4907 135.247Z" fill="black"/>
<path d="M105.545 54.8458C105.545 55.9369 105.506 57.0333 105.556 58.1244C105.643 60.1803 104.777 61.5235 102.683 61.6989C101 61.8415 100.599 62.7077 100.605 64.2154C100.638 76.9566 100.632 89.6978 100.61 102.439C100.61 103.793 100.89 104.72 102.48 104.857C104.881 105.06 105.654 106.567 105.561 108.821C105.473 111.003 105.534 113.19 105.534 115.372C105.534 117 105.007 118.404 103.204 118.486C101.257 118.574 100.632 117.121 100.44 115.422C100.031 111.785 97.9697 109.961 94.2562 109.95C90.7091 109.945 87.151 110.065 83.6093 109.917C81.3944 109.829 80.6817 110.723 80.8242 112.801C80.9065 113.969 80.8407 115.175 80.6159 116.326C80.3472 117.708 79.4372 118.656 77.9295 118.503C76.5863 118.366 75.8078 117.412 75.7749 116.079C75.7091 113.261 75.6926 110.438 75.7694 107.62C75.8132 106.025 76.8768 105.082 78.379 104.945C80.2376 104.78 80.8352 103.875 80.8297 102.105C80.7913 89.5443 80.8023 76.9895 80.8297 64.4292C80.8297 62.8502 80.4569 61.8469 78.6148 61.7099C76.5479 61.5509 75.6378 60.2515 75.6981 58.1737C75.7639 55.8108 75.7036 53.4423 75.7255 51.0739C75.742 49.4182 76.4108 48.1189 78.2036 48.0969C79.8319 48.075 80.5282 49.3086 80.7639 50.7943C80.8078 51.063 80.8078 51.3371 80.8242 51.6112C81.0508 54.9409 82.8052 56.6112 86.0874 56.6222C89.9086 56.6331 93.7354 56.529 97.5512 56.6551C99.6564 56.7208 100.583 56.041 100.435 53.859C100.347 52.609 100.435 51.3042 100.709 50.0761C100.983 48.8206 101.921 47.9708 103.28 48.0915C104.635 48.2121 105.386 49.166 105.468 50.4818C105.561 51.9292 105.49 53.393 105.49 54.8458C105.506 54.8458 105.528 54.8458 105.545 54.8458ZM85.901 83.2833C85.901 88.3765 85.8681 93.4697 85.9064 98.563C85.9613 105.75 84.9032 104.616 92.0742 104.851C94.7113 104.939 95.5172 104.056 95.4898 101.436C95.3637 90.4325 95.4898 79.4292 95.4185 68.4259C95.3692 60.7779 96.7398 61.9237 88.5435 61.7592C86.526 61.7208 85.8352 62.4445 85.8681 64.4621C85.9613 70.734 85.901 77.0114 85.9064 83.2833H85.901Z" fill="#66C6EB"/>
<path d="M121.58 111.518C121.58 110.334 121.585 109.155 121.58 107.971C121.563 106.057 122.331 104.714 124.392 104.719C126.256 104.719 126.673 103.787 126.673 102.154C126.651 89.4234 126.651 76.6877 126.695 63.9574C126.7 62.1811 126.185 61.271 124.233 61.2546C122.512 61.2436 121.624 60.1033 121.607 58.3873C121.58 55.7502 121.569 53.1131 121.624 50.4761C121.651 49.0561 122.314 48.0035 123.855 47.8609C125.598 47.6965 126.251 48.8423 126.569 50.3061C126.645 50.657 126.662 51.0243 126.684 51.3916C127.024 56.1285 127.024 56.1395 131.7 56.1504C135.703 56.1614 139.705 56.0682 143.707 56.1504C145.576 56.1888 146.377 55.5145 146.295 53.6175C146.234 52.2688 146.125 50.8873 146.607 49.566C147.029 48.4092 147.813 47.7732 149.08 47.85C150.363 47.9267 151.229 48.7162 151.273 49.884C151.399 52.9651 151.404 56.0627 151.262 59.1438C151.201 60.4706 150.105 61.2546 148.8 61.2546C147.029 61.2546 146.454 62.0112 146.459 63.7381C146.508 76.5616 146.508 89.3851 146.47 102.209C146.47 103.875 146.909 104.736 148.756 104.741C150.511 104.741 151.355 105.915 151.377 107.603C151.415 110.24 151.421 112.877 151.355 115.514C151.317 116.951 150.576 117.949 149.047 118.064C147.479 118.179 146.733 117.187 146.437 115.816C146.284 115.114 146.278 114.374 146.262 113.65C146.185 109.851 146.19 109.835 142.517 109.824C138.153 109.813 133.784 109.911 129.42 109.824C127.424 109.785 126.596 110.498 126.684 112.516C126.739 113.771 126.618 115.065 126.344 116.293C126.053 117.62 125.034 118.234 123.674 118.075C122.419 117.927 121.706 117.115 121.635 115.893C121.552 114.445 121.618 112.987 121.618 111.529C121.602 111.529 121.585 111.529 121.574 111.529L121.58 111.518ZM131.766 83.009C131.766 88.1022 131.772 93.1954 131.766 98.2831C131.755 104.752 131.75 104.643 138.301 104.725C140.774 104.758 141.371 103.853 141.355 101.545C141.262 90.3609 141.388 79.1767 141.284 67.9925C141.212 60.2732 142.72 61.4848 134.474 61.2875C132.216 61.2327 131.706 62.1373 131.733 64.1822C131.826 70.4541 131.766 76.7316 131.761 83.0035L131.766 83.009Z" fill="#66C6EB"/>
<path d="M59.6629 54.6651C59.6629 55.8494 59.6629 57.0281 59.6629 58.2123C59.6629 60.0434 58.7967 61.2276 56.9327 61.277C55.2825 61.3208 54.7342 61.9897 54.7397 63.6016C54.7781 76.5182 54.7671 89.4294 54.7397 102.346C54.7397 103.887 55.1399 104.731 56.8724 104.72C58.7693 104.709 59.641 105.888 59.6575 107.708C59.6849 110.164 59.6849 112.62 59.6684 115.076C59.6575 116.71 59.0763 117.998 57.2233 118.059C55.3208 118.119 54.8877 116.699 54.6026 115.175C54.2956 113.519 55.3592 111.381 53.8296 110.268C52.3713 109.216 50.2989 109.846 48.4952 109.824C44.948 109.78 41.4009 109.912 37.8537 109.802C35.7594 109.736 34.8 110.449 34.9645 112.615C35.0467 113.689 34.9809 114.808 34.7836 115.871C34.5259 117.253 33.709 118.207 32.1465 118.07C30.7649 117.949 29.9645 117.056 29.9206 115.734C29.8329 112.916 29.8274 110.098 29.9097 107.28C29.959 105.685 30.9623 104.736 32.5522 104.736C34.2956 104.736 34.9809 104.018 34.9754 102.286C34.9426 89.4623 34.9426 76.6388 34.9645 63.8154C34.9645 62.1597 34.4217 61.3044 32.6125 61.2715C30.7485 61.2386 29.8658 60.0544 29.8603 58.2287C29.8494 55.7726 29.8384 53.3165 29.8603 50.8603C29.8768 49.2375 30.4195 47.9272 32.289 47.8669C34.1969 47.8066 34.6575 49.2211 34.9261 50.7397C34.9426 50.8274 34.9426 50.9206 34.9535 51.0138C35.3336 54.4385 37.2397 56.1509 40.6717 56.1509C44.493 56.1509 48.3143 56.0741 52.1301 56.1399C53.8954 56.1728 54.5862 55.4711 54.5588 53.7276C54.5368 52.379 54.6355 50.9974 54.8987 49.6761C55.1673 48.3439 56.1597 47.7189 57.5358 47.8724C58.8077 48.0149 59.5204 48.8263 59.5972 50.0379C59.6958 51.5785 59.6191 53.1246 59.6191 54.6706C59.6355 54.6706 59.652 54.6706 59.6684 54.6706L59.6629 54.6651ZM40.0193 83.004C40.0193 88.0972 40.0193 93.1904 40.0193 98.2836C40.0248 104.769 40.0303 104.66 46.5434 104.725C49.0105 104.753 49.6246 103.87 49.6026 101.551C49.5094 90.4546 49.6246 79.3636 49.5423 68.2671C49.482 60.0873 50.9678 61.5292 42.4535 61.3044C40.4853 61.2551 39.97 62.0884 39.9864 63.9086C40.0577 70.2737 40.0138 76.6388 40.0138 83.004H40.0193Z" fill="#66C6EB"/>
<path d="M100.082 25.3561C100.066 30.6302 95.7234 34.934 90.5206 34.8517C85.3013 34.7695 80.9208 30.3452 80.9811 25.2191C81.0469 19.7092 85.241 15.6083 90.7618 15.6686C96.0798 15.7234 100.098 19.9066 100.082 25.3561ZM94.9339 25.3726C94.9942 22.6368 93.3166 20.8605 90.6521 20.8331C88.1631 20.8112 85.992 22.7958 85.9427 25.1478C85.8934 27.4833 88.0206 29.6982 90.4164 29.8024C92.8835 29.912 94.8846 27.9548 94.9394 25.3726H94.9339Z" fill="black"/>
</g>
<defs>
<clipPath id="clip0_1078_10913">
<rect width="140.055" height="140" fill="white" transform="translate(20.4727)"/>
</clipPath>
</defs>
</svg>
