<svg width="173" height="140" viewBox="0 0 173 140" fill="none" xmlns="http://www.w3.org/2000/svg">
<g clip-path="url(#clip0_1078_10949)">
<path d="M148.201 -0.000377348C151.293 1.91833 152.269 4.67031 152.264 8.30489C152.165 49.3269 152.203 90.3544 152.203 131.382C152.203 137.993 150.213 139.972 143.569 139.972C128.472 139.972 113.369 139.983 98.2711 139.95C96.9444 139.95 95.256 140.482 95.0531 138.125C94.8448 135.74 95.9193 135.208 98.0683 135.214C112.985 135.274 127.907 135.247 142.824 135.236C147.039 135.236 147.472 134.797 147.472 130.516C147.478 89.9432 147.483 49.3762 147.478 8.80376C147.478 5.1308 146.897 4.55519 143.18 4.55519C125.807 4.54422 108.429 4.53874 91.0567 4.54971C87.2796 4.54971 86.704 5.15273 86.6821 9.05045C86.6602 12.5973 86.6163 16.1442 86.6876 19.6911C86.7259 21.5001 85.9146 22.0483 84.2097 22.0319C82.5815 22.0154 81.9292 21.3905 81.9456 19.7623C81.995 15.2122 81.9785 10.6676 81.9621 6.11756C81.9511 3.19016 83.8588 1.54007 85.953 -0.00585938H148.207L148.201 -0.000377348Z" fill="black"/>
<path d="M20.7888 100.476C20.7888 90.1913 20.871 79.907 20.7394 69.6282C20.7011 66.4267 21.622 63.7569 23.5682 61.3284C25.5581 58.845 27.433 56.263 29.5162 53.8564C31.6048 51.4388 31.8625 48.6485 31.7144 45.6717C31.6541 44.4163 31.1059 43.9997 29.8889 43.8352C26.2763 43.3583 25.2018 42.0865 25.1634 38.4957C25.136 36.2207 25.147 33.9457 25.1634 31.6706C25.1908 27.5372 26.6381 26.0461 30.7222 26.0406C43.4624 26.0241 56.2027 26.0296 68.9429 26.0296C73.2189 26.0296 77.4949 25.9912 81.7708 26.0515C85.0107 26.0954 86.595 27.7071 86.6553 30.9525C86.7101 33.6825 86.7211 36.4126 86.6553 39.1426C86.584 41.9385 85.1642 43.616 82.3739 43.8023C80.5264 43.9229 80.1701 44.7069 80.0824 46.346C79.9179 49.3118 80.6635 51.8171 82.5548 54.1689C93.2118 67.4079 90.8491 62.8085 91.008 79.5781C91.1725 97.0493 91.0464 114.52 91.0464 131.992C91.0464 137.66 88.7769 139.968 83.1523 139.968C64.952 139.979 46.7516 139.979 28.5513 139.968C23.0857 139.968 20.7997 137.655 20.7888 132.145C20.7778 121.587 20.7888 111.034 20.7888 100.476ZM86.3154 100.596C86.3154 90.5914 86.2716 80.5867 86.3483 70.582C86.3648 68.1754 85.685 66.1855 84.2542 64.2777C81.5844 60.7199 78.3884 57.5513 76.2285 53.6097C75.6255 52.5133 74.6058 52.612 73.6081 52.612C61.7834 52.612 49.9586 52.6065 38.1339 52.612C37.2348 52.612 36.259 52.4859 35.7108 53.4672C33.2549 57.8692 29.5436 61.3339 26.7697 65.4947C26.0734 66.5418 25.147 67.7424 25.761 69.0032C26.3969 70.3134 27.888 69.694 28.9954 69.6994C40.0033 69.7433 51.0057 69.7817 62.0136 69.6885C64.3983 69.6665 65.0561 70.6259 64.8149 72.7913C64.5737 74.9512 62.9456 74.4304 61.7066 74.4359C50.611 74.4743 39.5154 74.5127 28.4198 74.414C26.1337 74.3921 25.4759 75.1376 25.4814 77.3852C25.5527 95.2128 25.5088 113.04 25.5252 130.868C25.5252 134.678 26.1447 135.254 29.9986 135.254C47.2779 135.259 64.5627 135.259 81.8421 135.254C85.8111 135.254 86.31 134.727 86.3154 130.621C86.3209 120.617 86.3154 110.612 86.3154 100.607V100.596ZM55.8025 47.8755C61.5257 47.8755 67.2489 47.859 72.9722 47.8865C74.414 47.8919 75.4226 47.6946 75.4226 45.8526C75.4226 43.9887 74.3591 43.8517 72.9448 43.8572C61.5915 43.8791 50.2327 43.8791 38.8795 43.8626C37.4432 43.8626 36.4235 44.0545 36.4235 45.8965C36.4235 47.7713 37.5035 47.8919 38.9069 47.8865C44.5369 47.8645 50.1724 47.8755 55.8025 47.8755ZM36.111 34.8941C35.8918 33.6167 36.6592 32.0489 35.5793 31.2266C34.2307 30.196 32.4216 30.651 30.8647 30.9251C29.56 31.1553 29.9547 32.4874 29.8944 33.4303C29.8506 34.1485 29.8835 34.8776 29.8835 35.5957C29.8944 39.192 29.9163 39.0494 33.4961 39.17C37.2787 39.2961 35.6944 36.5551 36.1056 34.8886L36.111 34.8941ZM81.9791 34.8502C81.5022 33.6387 82.8618 31.72 80.9156 30.8757C77.8676 29.5546 75.7625 31.0347 75.757 34.3568C75.757 34.8063 75.757 35.2613 75.757 35.7109C75.7735 39.1481 75.8283 39.0056 79.2217 39.192C82.8837 39.3893 81.7653 36.8511 81.9791 34.8557V34.8502ZM58.3352 34.6145C58.3352 35.9247 58.2803 36.9224 58.3516 37.9092C58.4284 38.9891 59.2561 39.1371 60.1278 39.1207C60.9282 39.1042 61.9314 39.2687 62.1342 38.2162C62.337 37.1636 62.4302 36.0288 62.2548 34.9872C61.9862 33.4139 63.5486 30.7222 60.1662 30.8045C56.9427 30.8812 58.8834 33.5345 58.3352 34.6199V34.6145ZM53.5494 35.2668C53.5494 34.3075 53.5055 33.5784 53.5603 32.8602C53.6864 31.1279 52.7325 30.4372 51.2414 30.8209C47.9193 31.6706 50.0683 34.4116 49.6187 36.2481C49.3282 37.4267 49.1308 39.0988 51.3346 39.1371C54.7938 39.2029 53.0834 36.5387 53.5548 35.2668H53.5494ZM44.9261 34.9105C44.2299 33.5126 46.1486 30.8648 42.9197 30.799C39.5318 30.7277 40.8914 33.4413 40.9023 34.9763C40.9133 36.429 39.5154 38.9946 42.6949 39.0933C46.1596 39.1974 44.2135 36.3742 44.9207 34.916L44.9261 34.9105ZM67.0351 34.4993C67.0351 35.5683 67.0735 36.3852 67.0297 37.1965C66.9255 39.0714 68.2247 39.5264 69.4911 39.0494C72.709 37.8324 70.423 34.9927 70.9712 32.9534C71.3221 31.6377 70.7136 30.7222 69.0799 30.7496C65.8127 30.8045 67.5066 33.3207 67.0351 34.4993Z" fill="black"/>
<path d="M103.867 30.7486C98.6865 30.6992 95.019 26.9166 95.0629 21.6703C95.1013 16.5556 98.9935 12.8388 104.207 12.9375C109.36 13.0361 112.967 16.8681 112.879 22.1473C112.792 27.125 108.943 30.7979 103.873 30.7486H103.867ZM107.995 21.9554C108.061 19.9271 106.126 17.8823 104.075 17.811C102.036 17.7397 100.008 19.6639 99.9364 21.7306C99.8706 23.759 101.806 25.8038 103.856 25.8751C105.901 25.9463 107.924 24.0276 107.99 21.9554H107.995Z" fill="#66C6EB"/>
<path d="M121.274 21.7749C121.295 16.6054 125.1 12.894 130.319 12.9379C135.362 12.9817 139.074 16.7205 139.085 21.7749C139.096 26.9828 135.368 30.738 130.176 30.749C125.012 30.76 121.252 26.9664 121.274 21.7749ZM130.067 25.8755C132.09 25.9413 134.129 24.0061 134.2 21.9558C134.271 19.9055 132.369 17.8936 130.286 17.8333C128.225 17.7675 126.235 19.6643 126.158 21.7475C126.087 23.8033 127.989 25.8152 130.061 25.8809L130.067 25.8755Z" fill="#66C6EB"/>
<path d="M95.0637 45.6429C95.1404 40.5008 98.9888 36.8662 104.252 36.9649C109.257 37.058 112.913 40.8681 112.88 45.9499C112.842 51.0975 109.01 54.8363 103.813 54.7814C98.6763 54.7321 94.9869 50.8782 95.0637 45.6429ZM107.996 45.8731C107.996 43.8229 106.033 41.8493 103.972 41.8329C101.927 41.8219 99.9372 43.8064 99.9427 45.8567C99.9482 47.9179 101.916 49.8915 103.966 49.897C106.022 49.897 107.996 47.9344 107.996 45.8731Z" fill="#66C6EB"/>
<path d="M139.083 46.0208C139.028 51.1685 135.185 54.8524 129.955 54.7701C124.928 54.6934 121.261 50.9218 121.277 45.8454C121.294 40.6594 125.055 36.9426 130.273 36.959C135.427 36.9755 139.143 40.8019 139.089 46.0153L139.083 46.0208ZM134.188 45.9002C134.215 43.8335 132.285 41.8545 130.213 41.838C128.179 41.8161 126.173 43.7842 126.145 45.829C126.118 47.8902 128.053 49.8637 130.131 49.8802C132.203 49.9021 134.16 47.9834 134.188 45.9002Z" fill="#66C6EB"/>
<path d="M139.086 69.7315C139.146 74.9668 135.457 78.7659 130.282 78.7988C125.074 78.8317 121.275 75.0874 121.27 69.9234C121.264 64.847 124.932 61.0699 129.948 60.9822C135.166 60.889 139.026 64.5894 139.086 69.7315ZM134.207 70.0056C134.267 67.9608 132.349 65.927 130.293 65.8612C128.254 65.7899 126.225 67.7141 126.154 69.7808C126.083 71.8147 128.001 73.843 130.074 73.9198C132.113 74.002 134.147 72.0723 134.207 70.0056Z" fill="#66C6EB"/>
<path d="M112.87 70.0435C112.81 75.1966 108.989 78.8696 103.748 78.8038C98.6387 78.738 94.9658 74.8513 95.0644 69.6159C95.1576 64.6109 98.9567 60.9708 104.049 60.9982C109.214 61.0256 112.93 64.8411 112.87 70.049V70.0435ZM107.991 69.8023C107.936 67.7246 105.93 65.8169 103.88 65.8827C101.802 65.9485 99.8996 67.9384 99.9544 69.9997C100.009 72.0774 102.01 73.9906 104.06 73.9303C106.111 73.87 108.051 71.8362 107.997 69.8078L107.991 69.8023Z" fill="#66C6EB"/>
<path d="M103.857 102.826C98.6981 102.788 94.9922 98.9615 95.0635 93.7481C95.1293 88.606 98.9667 84.944 104.213 85.0207C109.218 85.092 112.886 88.8801 112.869 93.9619C112.853 99.1369 109.059 102.865 103.857 102.826ZM107.974 93.8084C107.913 91.7307 105.907 89.8175 103.862 89.8833C101.812 89.9545 99.8767 91.9939 99.937 94.0167C100.003 96.0944 102.009 97.9967 104.065 97.9254C106.154 97.8541 108.039 95.8696 107.979 93.8029L107.974 93.8084Z" fill="#66C6EB"/>
<path d="M130.111 102.832C124.925 102.794 121.246 99.0276 121.274 93.7868C121.301 88.6611 125.177 84.9333 130.385 85.021C135.543 85.1088 139.167 88.9297 139.085 94.2034C139.008 99.1921 135.176 102.876 130.111 102.832ZM129.985 97.9531C132.007 98.0792 134.085 96.1989 134.206 94.1267C134.326 92.1148 132.43 90.0207 130.374 89.8946C128.356 89.774 126.273 91.6598 126.147 93.7265C126.027 95.7384 127.923 97.8271 129.979 97.9531H129.985Z" fill="#66C6EB"/>
<path d="M112.868 118.171C112.791 123.318 108.937 126.958 103.68 126.854C98.6691 126.756 95.0181 122.951 95.051 117.869C95.0839 112.711 98.9104 108.988 104.118 109.038C109.266 109.087 112.95 112.93 112.868 118.171ZM103.855 121.975C105.894 122.052 107.928 120.128 107.989 118.056C108.049 116.011 106.13 113.982 104.069 113.911C102.03 113.845 100.001 115.764 99.93 117.831C99.8642 119.865 101.783 121.887 103.85 121.97L103.855 121.975Z" fill="#66C6EB"/>
<path d="M139.088 118.099C139.028 123.236 135.169 126.942 129.95 126.859C124.835 126.783 121.168 122.896 121.272 117.65C121.37 112.623 125.142 109.01 130.257 109.037C135.421 109.065 139.149 112.886 139.088 118.094V118.099ZM130.268 113.916C128.228 113.85 126.2 115.791 126.151 117.852C126.101 119.897 128.031 121.92 130.087 121.98C132.137 122.041 134.143 120.116 134.204 118.044C134.264 116.005 132.34 113.988 130.268 113.922V113.916Z" fill="#66C6EB"/>
<path d="M77.9384 98.5401C77.9384 106.993 77.8836 115.452 77.9768 123.905C77.9988 126.126 77.2861 126.926 75.0165 126.915C60.8345 126.838 46.6525 126.866 32.4705 126.888C30.7656 126.888 29.4828 126.789 29.4883 124.487C29.4883 122.135 30.8643 122.14 32.5199 122.14C45.0627 122.151 57.6111 122.085 70.154 122.19C72.5551 122.212 73.2678 121.499 73.2513 119.098C73.1526 105.278 73.1855 91.4628 73.2294 77.6427C73.2349 75.7075 73.1581 74.1725 70.5542 74.3918C68.7999 74.5398 68.8712 73.1583 68.8492 71.9413C68.8328 70.7243 69.074 69.743 70.5925 69.7595C70.6857 69.7595 70.7734 69.7595 70.8666 69.7485C75.5739 69.288 77.9275 71.4333 77.9275 76.1844C77.9275 83.64 77.9275 91.0955 77.9275 98.5456L77.9384 98.5401Z" fill="black"/>
<path d="M49.3648 82.8277C55.6966 82.8277 55.7459 82.8278 56.0638 89.3349C56.1461 90.9631 56.7217 91.6977 58.3444 91.5606C58.5253 91.5442 58.7062 91.5606 58.8871 91.5606C62.8488 91.641 64.8296 93.7096 64.8296 97.7663C64.8296 97.8595 64.8296 97.9472 64.8296 98.0404C64.8296 104.652 64.8296 104.696 58.3115 104.997C56.6778 105.074 55.9487 105.644 56.0967 107.267C56.1132 107.448 56.0967 107.628 56.0967 107.809C56.0236 111.775 53.9606 113.757 49.9075 113.757C49.8143 113.757 49.7266 113.757 49.6334 113.757C43.0276 113.757 42.9837 113.757 42.6603 107.25C42.5781 105.622 42.0024 104.887 40.3798 105.024C40.1989 105.041 40.018 105.024 39.837 105.024C35.8754 104.944 33.8945 102.876 33.8945 98.8188C33.8945 98.7256 33.8945 98.6379 33.8945 98.5447C33.8945 91.9334 33.8945 91.8841 40.4127 91.588C42.0463 91.5113 42.589 90.9357 42.6603 89.3185C42.9454 82.8223 42.9947 82.8223 49.3648 82.8223V82.8277ZM60.0657 98.2925C60.285 96.4451 59.1064 96.3135 57.6756 96.2697C51.6344 96.0833 51.596 96.0614 51.3877 89.8941C51.3383 88.381 51.0368 87.4929 49.2607 87.5368C47.5886 87.5752 47.4022 88.4962 47.3365 89.8338C47.2433 91.8073 48.1697 94.2304 46.8431 95.6447C45.3903 97.1907 42.8686 96.1381 40.8238 96.2642C39.4259 96.3519 38.6091 96.6534 38.6036 98.2706C38.6036 99.8494 39.3217 100.261 40.7635 100.326C42.8138 100.425 45.352 99.3944 46.7992 100.897C48.2191 102.377 47.2487 104.898 47.3255 106.954C47.3803 108.467 47.934 109.065 49.4525 109.037C50.8833 109.01 51.3109 108.352 51.3767 107.02C51.4754 104.953 50.5051 102.404 51.8811 100.946C53.3831 99.3615 56.0255 100.447 58.1635 100.304C59.534 100.211 60.2028 99.7069 60.0657 98.2871V98.2925Z" fill="#66C6EB"/>
</g>
<defs>
<clipPath id="clip0_1078_10949">
<rect width="131.525" height="140" fill="white" transform="translate(20.7383)"/>
</clipPath>
</defs>
</svg>
