<svg width="181" height="140" viewBox="0 0 181 140" fill="none" xmlns="http://www.w3.org/2000/svg">
<g clip-path="url(#clip0_1078_10877)">
<path d="M67.8671 0.163909C78.9139 0.163909 89.984 -0.256476 101.007 0.257328C120.077 1.15065 138.451 13.1141 145.446 31.3308C147.659 37.0994 148.75 43.0491 148.161 49.2497C147.834 52.677 148.312 55.8942 149.854 59.0938C153.223 66.071 156.3 73.1884 159.482 80.259C161.963 85.7707 159.955 88.8886 153.918 88.9061C153.725 88.9061 153.532 88.9061 153.334 88.9061C148.682 88.9022 146.364 91.2727 146.38 96.0176C146.392 100.478 146.427 104.933 146.368 109.394C146.31 114.047 143.577 116.774 138.93 116.815C133.599 116.862 128.268 116.885 122.938 116.786C121.005 116.751 120.176 117.37 120.012 119.372C119.58 124.674 118.973 129.958 118.407 135.248C118.296 136.299 118.167 137.373 117.846 138.371C117.484 139.487 116.591 140.076 115.376 139.995C114.034 139.901 113.181 139.095 113.035 137.817C112.895 136.579 112.977 135.3 113.099 134.057C113.566 129.438 114.039 124.814 114.612 120.207C114.909 117.773 114.244 116.657 111.523 116.768C106.782 116.955 102.023 116.856 97.2765 116.809C91.4203 116.751 86.5976 112.629 85.6984 106.948C85.4123 105.149 85.3948 103.234 87.6135 102.691C89.9431 102.125 90.5737 103.876 91.0116 105.698C92.0859 110.182 94.1587 111.747 99.4777 111.776C110.04 111.835 120.608 111.794 131.17 111.794C133.301 111.794 135.438 111.741 137.569 111.811C140.302 111.899 141.405 110.597 141.382 107.929C141.324 101.243 141.347 94.5521 141.376 87.8668C141.394 84.4804 141.931 83.9432 145.235 83.8965C147.758 83.8615 150.28 83.8031 152.797 83.914C154.904 84.0074 155.039 83.2776 154.245 81.5494C150.806 74.07 147.53 66.5089 144.027 59.0587C142.865 56.5831 142.41 54.1484 142.701 51.4743C144.389 36.0718 138.27 24.1142 126.289 14.8774C117.251 7.91184 106.724 5.25524 95.5191 5.19102C75.3581 5.08008 55.1971 5.16182 35.042 5.15599C34.0728 5.15599 33.0977 5.18518 32.1343 5.0976C30.6863 4.96915 29.7872 4.18676 29.793 2.66287C29.793 1.15649 30.6688 0.33907 32.1168 0.198941C33.1736 0.0996834 34.2479 0.128877 35.3106 0.128877C46.1647 0.128877 57.0188 0.128877 67.8787 0.128877C67.8787 0.140554 67.8787 0.15807 67.8787 0.169748L67.8671 0.163909Z" fill="black"/>
<path d="M62.6361 50.6555C62.6361 55.9863 62.7529 61.317 62.5836 66.6419C62.5018 69.1758 63.2784 70.0049 65.8649 69.9757C76.3278 69.8473 86.7966 69.9232 97.2595 69.9232C98.0361 69.9232 98.8126 69.9115 99.5833 69.9641C101.177 70.0692 102.135 70.8866 102.094 72.5389C102.059 74.0511 101.107 74.7109 99.6767 74.9211C95.2043 75.5751 95.3853 75.5984 95.1459 80.1643C94.9941 83.107 95.8874 84.1287 98.8768 83.936C102.736 83.6908 106.625 83.8893 110.502 83.8835C112.224 83.8835 113.69 84.2922 113.713 86.3533C113.736 88.4143 112.294 88.8873 110.56 88.8873C104.844 88.8873 99.1279 88.8639 93.4118 88.8931C91.0355 88.9048 90.1305 87.6962 90.1713 85.4424C90.2239 82.8267 90.1597 80.211 90.1889 77.5952C90.2064 76.1122 90.1071 74.927 88.0928 74.9211C86.1543 74.9153 85.8799 75.9487 85.8974 77.5076C85.9325 81.6765 85.8974 85.8395 85.8974 90.0083C85.8974 91.7949 85.6172 93.4648 83.3459 93.4356C81.0747 93.4064 80.8762 91.6957 80.8762 89.9324C80.882 85.7635 80.8411 81.6006 80.8878 77.4317C80.9054 75.8144 80.5142 74.8686 78.6283 74.9094C76.8533 74.9503 76.5672 75.9137 76.5847 77.3558C76.6198 80.1643 76.5906 82.9785 76.5847 85.7869C76.5847 87.4159 76.0651 88.7413 74.1967 88.7938C72.1648 88.8522 71.581 87.486 71.581 85.7168C71.581 82.9084 71.5343 80.0942 71.581 77.2858C71.6043 75.7911 71.2131 74.9094 69.4732 74.9094C67.815 74.9094 67.2253 75.6218 67.2779 77.1924C67.3304 78.7396 67.3246 80.2985 67.2195 81.84C67.1202 83.2996 66.2736 84.1637 64.7614 84.1404C63.255 84.1229 62.4434 83.2471 62.3267 81.7932C62.2391 80.7364 62.2274 79.6621 62.2741 78.5995C62.3559 76.5559 62.4318 74.6934 59.4657 74.7284C58.3213 74.7401 57.7258 73.6133 57.6616 72.428C57.6148 71.558 57.7083 70.6706 57.5915 69.8181C57.4046 68.4635 58.4089 66.4609 56.7098 65.912C54.7656 65.2873 52.5235 65.0829 50.6434 66.6535C48.7867 68.2066 46.5972 69.4503 45.0266 71.2427C41.5526 75.2072 37.1152 75.1722 32.5085 74.9036C30.9671 74.816 29.8461 74.2146 29.7935 72.5214C29.7468 70.8632 30.7978 69.713 32.2983 70.0049C37.7808 71.0617 41.2432 67.6987 44.7464 64.5458C47.7475 61.8425 50.8536 59.869 55.1217 60.5696C56.7215 60.8324 57.6732 60.2193 57.6324 58.3392C57.5973 56.5468 56.6047 56.3774 55.1859 56.2957C50.4741 56.0446 45.8908 56.0914 42.1482 59.6471C40.9746 60.7623 39.4449 61.0134 37.8217 60.9842C34.5287 60.9141 31.2357 60.9725 27.9368 60.9375C26.2553 60.9199 25.0875 60.1901 25.1459 58.3451C25.1985 56.6635 26.3136 56.0154 27.8667 55.9746C28.9294 55.9454 30.0095 55.8578 31.0605 55.9687C35.6731 56.4534 39.9003 55.6826 43.4619 52.4538C44.9682 51.0818 46.8775 51.2978 48.7108 51.2978C50.7485 51.2978 52.7804 51.2628 54.8123 51.2978C56.4062 51.3328 57.6907 51.2452 57.6324 49.0557C57.5798 47.0297 56.3362 47.0005 54.894 47.0064C48.3021 47.018 41.7161 47.018 35.1242 47.0122C34.2543 47.0122 33.3785 47.0122 32.5085 46.983C30.9671 46.9246 29.8344 46.294 29.7935 44.6008C29.7468 42.7616 30.9087 42.026 32.5961 42.0143C36.7649 41.9851 40.9279 41.9909 45.0967 41.9909C48.5824 41.9909 52.0739 41.9559 55.5596 41.9909C57.0485 42.0026 57.6265 41.3428 57.6207 39.8773C57.6207 38.4527 57.1536 37.6937 55.618 37.7112C52.903 37.7462 50.188 37.6178 47.4789 37.7287C45.3711 37.8163 43.7304 37.1623 43.1758 35.1013C41.5643 29.1166 37.6057 27.4935 31.8487 28.3284C29.0987 28.7254 26.2377 28.3985 23.4293 28.381C21.7945 28.3693 20.5042 27.7971 20.4808 25.9287C20.4574 24.0837 21.6719 23.3947 23.3418 23.3889C29.2505 23.3772 35.1651 23.3947 41.0738 23.3889C42.4751 23.3889 43.4911 23.9669 44.1333 25.2047C44.4019 25.7185 44.6763 26.2323 44.9332 26.752C48.2029 33.2504 48.6233 33.4606 55.834 32.6899C56.7916 32.5848 57.4397 32.2345 58.006 31.4871C58.7943 30.442 59.8978 30.1326 61.1122 30.6113C62.4026 31.1193 62.6244 32.2637 62.6244 33.484C62.6244 39.2 62.6244 44.9161 62.6244 50.6322H62.6419L62.6361 50.6555Z" fill="black"/>
<path d="M104.143 47.6556C104.143 42.2315 104.056 36.8073 104.184 31.3832C104.237 29.1061 103.483 28.3529 101.189 28.3763C90.7259 28.4697 80.2689 28.4171 69.8059 28.4113C68.936 28.4113 68.0602 28.4288 67.1902 28.3704C65.6079 28.2653 64.627 27.4713 64.6854 25.8014C64.738 24.295 65.6838 23.6353 67.1143 23.4192C71.5926 22.7536 71.4057 22.7303 71.6393 18.1352C71.7853 15.1575 70.8219 14.2175 67.8675 14.4043C64.0081 14.6495 60.1196 14.4568 56.2485 14.4568C54.5261 14.4568 53.0606 14.0073 53.0664 11.952C53.0664 9.90267 54.5261 9.44725 56.2543 9.44725C61.9704 9.44725 67.6865 9.45893 73.3967 9.43557C75.5687 9.42973 76.6022 10.4573 76.5846 12.6235C76.5613 15.4319 76.6255 18.2403 76.5846 21.0487C76.5613 22.5551 76.9817 23.4134 78.7041 23.4075C80.374 23.4075 80.917 22.6544 80.8878 21.1013C80.8352 18.2929 80.8761 15.4844 80.8819 12.676C80.8819 10.9361 81.3899 9.50564 83.4334 9.52899C85.4945 9.55235 85.8915 11.0529 85.8974 12.7578C85.8974 15.5662 85.9499 18.3746 85.8974 21.183C85.8682 22.8062 86.5396 23.4309 88.1569 23.4017C89.675 23.3784 90.2121 22.6952 90.2005 21.2647C90.1713 18.3571 90.2005 15.4553 90.2063 12.5476C90.2063 10.9186 90.7376 9.59905 92.5943 9.53483C94.6437 9.45893 95.1984 10.8427 95.2042 12.6001C95.2159 15.4085 95.2568 18.217 95.2159 21.0254C95.1925 22.5142 95.5662 23.4075 97.312 23.4075C98.9702 23.4075 99.5657 22.7011 99.5132 21.1246C99.4606 19.5774 99.4548 18.0184 99.5657 16.477C99.6708 15.029 100.523 14.1591 102.03 14.1591C103.548 14.1591 104.33 15.0699 104.464 16.5062C104.558 17.563 104.564 18.6373 104.517 19.7C104.423 21.761 104.388 23.6469 107.343 23.5594C108.254 23.5302 108.808 24.4118 109.059 25.311C109.112 25.4978 109.118 25.6963 109.141 25.8832C109.41 27.9734 108.312 30.5483 109.725 32.0663C111.179 33.6252 113.777 32.4633 115.861 32.7027C117.444 32.8837 118.431 33.6077 118.39 35.2659C118.349 36.9475 117.263 37.6306 115.71 37.6715C114.256 37.7123 112.802 37.7357 111.354 37.7006C109.953 37.6656 109.188 38.1444 109.17 39.6916C109.153 41.2681 109.719 42.0213 111.366 41.9921C114.174 41.9395 116.983 41.9921 119.791 41.9862C121.507 41.9804 122.985 42.3891 123.031 44.4327C123.084 46.4879 121.659 46.9958 119.914 46.9958C117.105 46.9958 114.297 47.0425 111.488 46.9958C109.959 46.9725 109.159 47.4513 109.159 49.1503C109.159 50.8552 109.97 51.3106 111.494 51.2931C115.173 51.2464 118.857 51.1997 122.535 51.3165C124.573 51.3807 127.632 50.394 127.609 53.868C127.586 57.1318 124.649 56.221 122.687 56.2793C119.009 56.3844 115.324 56.3552 111.646 56.2969C109.999 56.2735 109.112 56.7231 109.153 58.5856C109.194 60.3781 110.192 60.635 111.617 60.6C112.971 60.5649 114.332 60.5883 115.686 60.6233C117.245 60.6642 118.343 61.3473 118.384 63.0172C118.431 64.8681 117.257 65.557 115.575 65.592C114.314 65.6154 113.059 65.6329 111.798 65.6096C110.601 65.5862 109.538 65.6913 108.756 66.8474C108.02 67.9275 106.864 68.1727 105.655 67.6706C104.383 67.1451 104.161 66.0066 104.161 64.7805C104.161 59.0644 104.161 53.3483 104.161 47.6381H104.149L104.143 47.6556Z" fill="#66C6EB"/>
<path d="M95.1978 49.1678C95.1978 51.9704 95.1569 54.7729 95.2095 57.5813C95.2503 59.8467 94.3045 61.0028 91.9457 60.9911C86.2413 60.9561 80.5369 60.9561 74.8325 60.9911C72.4911 61.0028 71.5394 59.8643 71.5511 57.593C71.592 51.9879 71.6095 46.3769 71.5511 40.7718C71.5278 38.2786 72.7072 37.3211 75.1069 37.3444C80.6186 37.397 86.1303 37.4087 91.6362 37.3328C94.2753 37.2977 95.2854 38.5122 95.2036 41.052C95.1161 43.7553 95.1861 46.4645 95.1861 49.1736L95.1978 49.1678ZM90.1707 48.9167C90.1785 44.5727 87.9753 42.393 83.5613 42.3774C78.8981 42.3618 76.5743 44.7109 76.5899 49.4247C76.6055 53.7881 78.8106 55.966 83.2051 55.9582C87.8411 55.9504 90.1629 53.6032 90.1707 48.9167Z" fill="black"/>
<path d="M69.1703 104.232C68.9835 115.821 66.9574 126.349 64.8497 136.864C64.4877 138.686 63.7578 140.431 61.4574 139.894C59.2153 139.375 59.2504 137.535 59.6416 135.69C61.8661 125.192 63.4893 114.607 64.0089 103.881C64.1549 100.869 63.8045 97.9025 62.6952 95.059C62.088 93.5118 62.2456 92.1163 63.8396 91.3456C65.6729 90.464 66.7998 91.6492 67.5647 93.0914C69.5615 96.8632 68.7908 101.038 69.1761 104.226L69.1703 104.232Z" fill="black"/>
</g>
<defs>
<clipPath id="clip0_1078_10877">
<rect width="140.041" height="140" fill="white" transform="translate(20.4805)"/>
</clipPath>
</defs>
</svg>
