<svg width="181" height="140" viewBox="0 0 181 140" fill="none" xmlns="http://www.w3.org/2000/svg">
<g clip-path="url(#clip0_1078_10904)">
<path d="M160.445 61.4555V78.9124C160.314 79.6242 160.171 80.3306 160.051 81.0479C156.831 100.027 147.571 115.332 132.13 126.837C122.218 134.223 110.977 138.298 98.8093 140H82.4475C73.0401 138.692 64.1091 135.937 55.8515 131.168C54.6742 130.489 53.8583 130.85 53.037 131.809C50.6878 134.563 48.284 137.268 45.902 139.995H42.6275C35.0818 131.957 27.9304 123.633 23.0405 113.618C19.8426 107.074 19.7495 100.482 22.69 93.8832C23.5278 92.005 23.4293 90.3294 22.9584 88.38C16.8309 62.8628 22.3505 40.182 40.5193 21.159C60.3746 0.383783 91.1322 -5.57937 117.936 5.54747C119.667 6.2648 121.036 6.75215 122.87 5.30106C133.11 -2.80861 146.241 -1.46704 154.816 8.36751C157.63 11.5928 159.202 15.4423 160.445 19.4615V29.2796C159.071 32.932 157.554 36.5186 155.506 39.8479C154.931 40.7788 154.816 41.6769 155.259 42.6789C157.904 48.6859 159.41 55.0104 160.45 61.4664L160.445 61.4555ZM155.363 70.5727C155.593 63.1311 154.318 56.1987 152.067 49.4251C151.826 48.6968 151.821 47.6291 150.824 47.525C150.014 47.4429 149.723 48.3573 149.263 48.894C146.547 52.0699 143.93 55.3335 141.099 58.4054C137.605 62.1947 136.768 62.2768 133.362 58.2795C130.821 55.2952 128.121 53.751 124.168 54.6764C122.585 55.0488 121.205 54.3917 120.833 52.6668C120.45 50.8872 121.589 49.8632 123.138 49.5456C125.246 49.1075 124.819 48.3135 123.834 47.0377C121.271 43.7303 119.075 40.171 117.044 36.5132C112.931 29.0989 112.362 21.504 116.135 13.8433C117.263 11.5599 116.677 10.7221 114.519 9.87336C105.216 6.23195 95.5621 4.82466 85.6564 5.55842C78.5652 6.0841 71.6602 7.71041 65.144 10.6893C64.0817 11.1711 62.6908 11.4121 64.4212 13.0165C72.4323 20.4198 75.2907 33.9779 71.0962 44.0753C68.539 50.2301 71.9504 56.6751 78.5542 58.0167C80.5036 58.4109 82.5352 58.4219 84.4736 58.8545C103.759 63.153 111.99 87.2027 99.5266 102.705C94.7079 108.701 88.8433 113.656 82.9513 118.459C78.1819 122.341 78.0012 126.891 78.9266 132.104C79.1675 133.468 80.0272 134.136 81.3359 134.306C88.0383 135.176 94.7243 135.231 101.41 134.081C108.6 132.844 106.968 132.636 104.176 127.872C100.956 122.374 101.854 118.229 107.176 114.598C109.903 112.742 112.948 111.559 116.058 110.508C119.508 109.347 121.709 107.102 122.317 103.351C123.116 98.461 124.786 93.8504 127.508 89.6887C133.077 81.1793 143.103 79.7666 150.775 86.4909C152.779 88.2486 153.25 87.3396 153.682 85.4231C154.81 80.4456 155.593 75.4352 155.369 70.5836L155.363 70.5727ZM38.3728 55.6183C43.4105 55.6949 47.2052 56.007 50.9124 57.0091C58.469 59.0516 62.428 64.0455 61.8037 70.8629C61.4807 74.4003 60.8345 77.9158 59.137 81.0808C58.1514 82.9207 58.4252 84.0268 59.9639 85.4888C66.6663 91.8407 70.8114 103.313 65.2261 113.925C63.4465 117.309 61.6559 120.682 59.3506 123.726C58.0364 125.462 58.4197 126.377 60.1993 127.291C63.7641 129.12 67.4438 130.648 71.2386 131.935C73.2372 132.614 73.8834 131.759 73.4234 130.002C71.7642 123.617 74.3926 119.017 79.0197 114.867C84.5612 109.894 90.4148 105.235 95.1788 99.4412C102.002 91.1398 102.089 81.1629 95.5402 72.6535C94.4724 71.2626 93.8153 71.4817 92.8023 72.5549C90.6229 74.8657 88.3833 77.1272 86.1656 79.4107C84.8897 80.7249 83.362 81.4367 81.8616 80.0513C80.3174 78.6276 81.0293 77.078 82.2778 75.7583C84.4626 73.4475 86.6037 71.0929 88.8816 68.8752C90.2068 67.5829 89.9658 66.8218 88.46 66.0278C85.8425 64.6588 83.0937 63.9579 80.1313 63.7498C69.0537 62.9777 61.8202 52.4642 65.8394 42.7392C68.8621 35.429 67.5971 28.5021 64.7497 21.6299C63.5889 18.8318 61.3383 17.0029 58.4361 15.9734C57.0179 15.4696 55.8351 15.6065 54.5976 16.4608C41.9539 25.1892 33.3295 36.8691 28.6696 51.5114C28.0071 53.5977 28.7189 54.4957 30.6683 55.0433C33.6198 55.8811 36.5876 55.8154 38.3728 55.6237V55.6183ZM119.179 24.658C119.015 26.4213 119.469 28.3487 120.236 30.2215C123.883 39.1142 130.06 46.2656 136.193 53.4444C137.014 54.4081 137.638 54.1836 138.388 53.3184C143.749 47.1417 149.006 40.8938 152.812 33.5891C153.945 31.4152 154.969 29.1537 155.292 26.706C156.628 16.5265 148.672 6.22099 138.98 5.48724C128.264 4.67134 119.24 13.2903 119.185 24.658H119.179ZM62.1378 103.855C61.9844 93.489 54.269 84.9576 45.0313 84.5853C31.8949 84.0541 22.1972 98.2639 27.5142 110.409C31.1666 118.76 36.9874 125.643 42.9451 132.411C44.0238 133.638 44.7356 133.172 45.568 132.225C51.2738 125.72 56.5962 118.946 60.4074 111.116C61.5683 108.728 62.3787 106.226 62.1432 103.86L62.1378 103.855ZM107.779 122.883C108.266 124.822 109.92 126.508 110.851 128.551C111.875 130.812 113.222 130.993 115.385 130.056C130.208 123.628 141.362 113.317 148.677 98.8936C151.027 94.2556 150.999 94.2446 147.287 90.6142C142.873 86.3047 136.143 86.8194 132.568 91.8298C130.109 95.2741 128.499 99.1455 127.875 103.329C126.917 109.752 123.428 113.853 117.23 115.759C114.448 116.613 111.765 117.763 109.465 119.614C108.534 120.364 107.68 121.191 107.779 122.883ZM25.9317 69.6582C25.7729 74.4112 26.4848 78.8028 27.2185 83.189C27.5361 85.0836 27.9906 85.7681 29.8743 84.2129C35.3118 79.7173 41.6747 78.321 48.5413 79.5695C54.1048 80.5825 54.1486 80.6975 55.5558 75.1778C55.868 73.9513 56.0487 72.6864 56.1801 71.4269C56.6948 66.5097 55.4189 64.4069 50.77 62.7094C47.145 61.3843 43.3667 60.99 39.5227 61.0612C35.8922 61.1324 32.2563 61.2857 28.7299 60.092C27.224 59.5827 26.556 60.2508 26.4464 61.795C26.2548 64.5055 25.6634 67.1941 25.9317 69.6528V69.6582Z" fill="black"/>
<path d="M101.408 64.4222C100.297 64.4441 99.4971 63.9568 99.0098 62.9657C98.5005 61.9307 98.7141 60.9013 99.5135 60.2278C103.002 57.2927 106.917 55.0367 111.155 53.383C112.294 52.934 113.329 53.5363 113.92 54.5658C114.501 55.5843 114.594 56.9423 113.614 57.5556C109.792 59.9375 105.849 62.1224 101.945 64.3729C101.802 64.4551 101.589 64.4167 101.408 64.4277V64.4222Z" fill="#66C6EB"/>
<path d="M75.6982 85.2094C77.8776 85.1766 79.2575 86.9945 78.3157 88.7085C77.0672 90.9809 75.5011 93.1001 73.9131 95.1644C73.1246 96.1884 71.8597 96.2706 70.7262 95.5697C69.7077 94.9399 69.1711 93.9105 69.631 92.7879C70.7317 90.0993 72.4675 87.7885 74.4607 85.6968C74.7892 85.3518 75.4354 85.308 75.6982 85.2094Z" fill="#66C6EB"/>
<path d="M137.093 35.4836C130.369 35.4288 125.276 30.2268 125.336 23.4751C125.397 16.8494 130.752 11.5926 137.383 11.6529C143.96 11.7131 149.211 17.1013 149.178 23.7653C149.145 30.3527 143.795 35.5438 137.093 35.4891V35.4836ZM137.29 30.1666C140.877 30.1447 143.921 27.0563 143.85 23.508C143.784 20.1568 140.674 17.0465 137.339 16.9863C133.868 16.9261 130.708 20.0527 130.659 23.6011C130.61 27.1275 133.698 30.1885 137.29 30.1666Z" fill="#66C6EB"/>
<path d="M44.0316 114.592C37.373 114.565 32.056 109.231 32.1217 102.644C32.1874 96.1278 37.6961 90.7177 44.2397 90.7561C50.7887 90.7944 56.04 96.1935 56.0126 102.858C55.9853 109.653 50.9201 114.62 44.0371 114.592H44.0316ZM50.619 102.836C50.619 99.145 47.7442 96.1716 44.1575 96.1333C40.6859 96.1004 37.5811 99.2874 37.6358 102.83C37.6906 106.559 40.5325 109.314 44.278 109.259C47.8482 109.21 50.6245 106.395 50.619 102.836Z" fill="#66C6EB"/>
</g>
<defs>
<clipPath id="clip0_1078_10904">
<rect width="139.885" height="140" fill="white" transform="translate(20.5586)"/>
</clipPath>
</defs>
</svg>
