<svg width="181" height="140" viewBox="0 0 181 140" fill="none" xmlns="http://www.w3.org/2000/svg">
<g clip-path="url(#clip0_1078_10886)">
<path d="M67.4733 140.001C66.1208 139.059 66.1372 137.772 66.4822 136.343C68.927 126.222 71.3473 116.095 73.7866 105.97C76.8338 93.327 79.8728 80.6838 82.9665 68.0516C83.2676 66.8224 83.0349 66.242 81.8878 65.6041C75.3171 61.96 71.9715 55.1292 72.9543 47.8303C73.9701 40.2904 79.3909 34.5739 86.6817 32.9558C97.6082 30.5301 108.034 38.9051 108.006 50.0917C107.99 56.9827 104.88 62.1243 99.0045 65.5739C97.83 66.2639 97.5836 66.8552 97.8984 68.1393C101.959 84.7002 105.964 101.278 109.98 117.849C111.481 124.037 112.956 130.23 114.484 136.409C114.845 137.874 114.758 139.114 113.378 140.001H111.193C109.923 139.193 109.811 137.802 109.542 136.538C109.329 135.538 108.825 134.974 107.919 134.545C97.4768 129.589 87.0458 124.612 76.6257 119.61C75.7086 119.169 75.3992 119.331 75.1692 120.319C73.8441 125.986 72.4479 131.634 71.1036 137.296C70.8545 138.342 70.5095 139.297 69.658 140.001H67.4733ZM77.5949 50.1547C77.5758 57.3332 83.2238 63.099 90.3092 63.1346C97.5124 63.1729 103.481 57.2866 103.445 50.1848C103.41 43.1158 97.6219 37.3418 90.5502 37.3199C83.2704 37.298 77.6141 42.9022 77.5977 50.1547H77.5949ZM107.541 128.291C107.47 128.034 107.39 127.774 107.327 127.508C105.113 118.271 102.9 109.034 100.685 99.7964C100.297 98.1756 100.278 98.1674 98.9716 99.2187C92.6665 104.3 86.3613 109.387 80.0589 114.474C78.8735 115.429 78.8707 115.451 80.2369 116.105C86.6789 119.188 93.1264 122.263 99.574 125.335C101.874 126.43 104.173 127.525 106.484 128.598C106.865 128.773 107.437 129.28 107.541 128.289V128.291ZM77.6278 110.373C78.7475 109.472 79.588 108.79 80.4313 108.114C86.0054 103.646 91.5823 99.1804 97.1565 94.7096C97.7396 94.2414 98.4761 93.9047 97.5507 92.941C93.6138 88.8343 89.7535 84.6564 85.8603 80.5114C85.6523 80.2896 85.4716 79.9008 85.1156 80.0049C84.7734 80.1062 84.809 80.5196 84.7351 80.8262C82.3998 90.5454 80.0589 100.262 77.6278 110.373ZM97.036 85.4038C97.1127 85.1054 97.1702 85.0096 97.151 84.9329C95.856 79.4573 94.5528 73.9845 93.2496 68.5116C93.0991 67.8792 92.7295 67.5999 92.0532 67.7477C91.0211 67.9722 89.9698 68.0106 88.9403 67.7724C88.119 67.5807 87.7604 67.9093 87.5879 68.6567C87.2621 70.0721 86.9664 71.4958 86.5557 72.8893C86.2902 73.7955 86.5201 74.4225 87.1553 75.085C89.4824 77.5107 91.7521 79.9939 94.0628 82.436C94.9909 83.4162 95.971 84.347 97.0305 85.4065L97.036 85.4038Z" fill="#66C6EB"/>
<path d="M20.4766 44.3633C21.0186 40.0349 21.6538 35.7228 22.8283 31.5094C26.0644 19.9175 31.8987 9.82326 40.2681 1.18551C40.4269 1.02124 40.5829 0.856975 40.7582 0.709134C41.8588 -0.227192 43.3153 -0.227192 44.2023 0.700921C45.1031 1.64546 45.0811 2.89663 44.0983 4.01639C42.5952 5.72478 40.9881 7.34556 39.5645 9.11417C31.5482 19.0852 26.7379 30.4252 25.4621 43.1724C23.6059 61.71 28.7009 78.1696 40.5638 92.5294C41.5768 93.7559 42.6911 94.9003 43.7752 96.0666C45.0592 97.4437 45.1989 98.7469 44.1448 99.7791C43.0935 100.806 41.7246 100.644 40.4488 99.341C29.974 88.6335 23.5374 75.8918 21.1884 61.094C20.9256 59.4376 20.712 57.773 20.4766 56.1139C20.4766 52.1961 20.4766 48.2811 20.4766 44.3633Z" fill="black"/>
<path d="M160.505 50.258C160.292 69.2693 153.639 85.6577 140.432 99.3741C139.186 100.666 137.76 100.803 136.711 99.7766C135.685 98.7718 135.728 97.4741 136.99 96.1736C143.646 89.3127 148.7 81.4498 151.928 72.4397C154.261 65.9264 155.558 59.2271 155.728 52.2922C156.18 33.7409 149.913 17.8206 137.136 4.41908C135.821 3.03923 135.646 1.76068 136.651 0.703892C137.65 -0.347422 139.222 -0.221483 140.487 1.08445C150.797 11.7235 157.226 24.3338 159.635 38.9674C160.248 42.699 160.607 46.4525 160.505 50.258Z" fill="black"/>
<path d="M138.458 49.3161C138.192 37.6038 133.959 26.5814 125.267 17.3441C124.955 17.0128 124.623 16.6925 124.352 16.3311C123.463 15.1456 123.542 13.93 124.539 13.0293C125.535 12.1286 126.743 12.1669 127.829 13.2127C129.768 15.0799 131.495 17.1387 133.072 19.3153C138.132 26.2939 141.414 34.0474 142.575 42.5811C144.735 58.4576 140.609 72.5764 130.233 84.8253C129.557 85.6247 128.851 86.3995 128.117 87.1442C126.896 88.3817 125.39 88.4967 124.388 87.4755C123.386 86.4543 123.49 85.1593 124.741 83.8643C130.679 77.707 134.786 70.5203 136.924 62.2302C137.937 58.296 138.427 54.2879 138.458 49.3161Z" fill="black"/>
<path d="M37.7645 50.4522C37.9041 36.1965 42.8403 23.9366 52.6416 13.6452C52.8935 13.3824 53.1427 13.1114 53.4329 12.8951C54.4349 12.1395 55.4616 12.134 56.4308 12.9416C57.3151 13.6781 57.4848 15.0525 56.7073 16.0271C55.6313 17.3769 54.3856 18.5897 53.2987 19.9312C47.0593 27.6409 43.4125 36.41 42.6569 46.3318C41.5809 60.4917 45.9751 72.7433 55.5629 83.1716C55.8394 83.4728 56.1159 83.7767 56.3787 84.0888C57.4136 85.318 57.4136 86.6924 56.3787 87.5986C55.3931 88.461 54.0297 88.346 52.9647 87.281C50.3474 84.6664 48.023 81.8082 46.0572 78.6761C40.8965 70.4491 37.978 61.5266 37.8575 51.7581C37.8521 51.3036 37.7918 50.8519 37.7617 50.4549L37.7645 50.4522Z" fill="black"/>
<path d="M125.52 52.9518C125.43 59.7388 122.12 67.8646 115.612 74.6927C114.451 75.911 113.033 76.0424 112.004 75.0513C111.018 74.1013 111.029 72.7379 112.163 71.5415C116.338 67.1363 119.204 62.0139 120.264 56.0373C122.049 45.9595 119.522 37.0315 112.636 29.3958C112.453 29.1932 112.248 29.0098 112.067 28.8072C111.065 27.6683 111.024 26.3185 111.957 25.3795C112.946 24.3829 114.336 24.4103 115.467 25.5519C116.362 26.4527 117.211 27.4136 117.991 28.4184C122.991 34.8522 125.559 42.1266 125.518 52.9518H125.52Z" fill="black"/>
<path d="M67.3677 24.6559C68.2247 24.7709 68.9721 25.1733 69.3499 26.0412C69.8263 27.1308 69.5114 28.0672 68.7038 28.8995C66.4068 31.2704 64.5204 33.9288 63.0612 36.8938C57.5828 48.0339 59.5951 61.701 68.0714 70.7905C68.3506 71.0889 68.6408 71.3819 68.8927 71.7022C69.8071 72.8657 69.7441 74.2757 68.7558 75.1299C67.7592 75.9896 66.3876 75.8664 65.339 74.7932C61.0215 70.3689 57.936 65.2026 56.4795 59.1932C53.4926 46.8621 56.2003 35.8726 64.6135 26.3314C65.339 25.5101 66.0755 24.6805 67.365 24.6504L67.3677 24.6559Z" fill="black"/>
</g>
<defs>
<clipPath id="clip0_1078_10886">
<rect width="140.044" height="140" fill="white" transform="translate(20.4766)"/>
</clipPath>
</defs>
</svg>
