<svg width="181" height="140" viewBox="0 0 181 140" fill="none" xmlns="http://www.w3.org/2000/svg">
<g clip-path="url(#clip0_1078_10922)">
<path d="M39.1195 64.3104C39.1195 47.0622 39.1136 29.814 39.1195 12.5658C39.1311 4.57235 43.7264 0.00631187 51.7783 0.000472947C83.8515 -0.00536598 115.925 -0.00536598 147.998 0.000472947C155.799 0.000472947 160.447 4.64242 160.499 12.4432C160.53 16.8341 158.362 19.0237 153.995 19.012C150.894 19.0062 147.788 19.1171 144.693 18.977C142.515 18.8836 141.844 19.7127 141.855 21.8439C141.925 33.7612 141.885 45.6784 141.885 57.6015C141.885 68.4561 141.937 79.3048 141.85 90.1594C141.832 92.4949 142.293 93.6335 144.968 93.797C149.008 94.0423 153.008 94.9064 157.042 95.356C159.384 95.6129 160.563 96.6464 160.499 99.0696C160.435 101.393 160.441 103.723 160.505 106.047C160.569 108.47 159.384 109.51 157.048 109.772C153.014 110.228 149.014 111.086 144.973 111.331C142.299 111.495 141.78 112.633 141.85 114.969C141.978 119.424 141.92 123.885 141.867 128.34C141.791 135.014 136.951 139.954 130.312 139.965C97.5613 140 64.8107 140 32.0602 139.965C25.4155 139.96 20.5867 134.985 20.505 128.334C20.4466 123.433 22.8308 120.979 27.6576 120.971C30.1742 120.971 32.6966 120.971 35.2132 120.971C37.8096 120.971 39.1097 119.621 39.1136 116.919C39.1136 99.3791 39.1136 81.8447 39.1136 64.3046L39.1195 64.3104ZM44.176 65.4665C44.176 82.7147 44.176 99.9629 44.176 117.211C44.176 120.971 44.1935 120.983 48.0589 120.983C70.9241 120.983 93.7952 120.983 116.66 120.983C122.943 120.983 122.92 120.983 123.288 127.131C123.469 130.185 124.374 132.9 127.492 134.191C132.069 136.083 136.484 132.935 136.764 127.423C136.962 123.459 136.682 119.471 136.869 115.512C136.997 112.809 135.812 112.406 133.529 112.785C121.326 114.805 109.052 115.01 96.7789 113.673C92.1077 113.165 87.4016 111.092 82.8881 111.53C78.2286 111.979 73.7735 114.595 69.2425 116.306C67.5434 116.948 66.072 116.709 64.6064 115.646C59.9002 112.236 55.124 108.92 50.4353 105.481C47.5976 103.402 47.6385 101.685 50.5579 99.5542C55.1707 96.1793 59.8769 92.9329 64.4954 89.5696C66.0544 88.4369 67.5901 88.1975 69.3943 88.904C72.7283 90.2061 76.1266 91.3622 79.4606 92.6643C81.7261 93.546 83.7697 93.8204 86.3681 93.2482C101.754 89.8499 117.297 90.0192 132.84 92.1796C136.741 92.7227 136.816 92.7635 136.816 88.8923C136.816 63.5047 136.816 38.117 136.816 12.7293C136.816 11.0828 136.635 9.37195 137.43 7.87719C138.673 5.52994 137.949 5.02195 135.479 5.03363C108.252 5.1037 81.0255 5.06866 53.7985 5.08034C46.4999 5.08034 44.1818 7.38088 44.1701 14.6095C44.1526 31.5657 44.1701 48.522 44.1643 65.4782L44.176 65.4665ZM71.8759 126.034C61.4125 126.034 50.9433 126.034 40.4799 126.034C36.4102 126.034 32.3346 126.127 28.2707 126.005C25.7483 125.929 25.3104 126.945 25.8359 129.198C26.5366 132.194 28.2999 133.887 31.2194 134.617C32.6616 134.973 34.1038 134.944 35.5519 134.944C62.3934 134.944 89.2408 134.944 116.082 134.944C119.586 134.944 119.568 134.944 118.605 131.517C118.4 130.781 118.184 129.975 118.266 129.239C118.558 126.623 117.39 125.97 114.903 125.987C100.563 126.086 86.2163 126.034 71.8759 126.034ZM97.6781 102.55C97.6664 108.657 97.6781 108.517 103.832 108.867C111.581 109.305 119.294 109.177 126.984 108.213C135.8 107.11 144.611 105.895 153.428 104.803C154.87 104.622 155.46 104.068 155.448 102.608C155.443 101.183 154.94 100.488 153.463 100.36C151.443 100.179 149.446 99.7994 147.432 99.5542C132.963 97.8025 118.581 95.1225 103.873 96.2669C97.7073 96.7457 97.6898 96.5005 97.6781 102.555V102.55ZM59.6199 99.6827C61.4339 99.9435 62.8742 99.6944 63.9408 98.9353C66.4515 97.1486 69.1783 97.3179 70.965 99.3732C72.5181 101.16 72.5181 103.974 70.965 105.767C69.1783 107.828 66.3873 108.085 63.9699 106.181C62.7146 105.195 61.5234 104.838 59.6083 105.457C62.2007 107.279 64.5422 108.92 66.8777 110.572C67.7244 111.174 68.5418 110.841 69.3593 110.537C73.3414 109.037 77.2885 107.448 81.3057 106.059C83.0516 105.452 83.3669 104.336 83.3435 102.731C83.3202 101.102 83.291 99.7527 81.3349 99.0871C77.3119 97.715 73.3648 96.1268 69.3885 94.6203C68.4542 94.27 67.5609 94.0539 66.6442 94.7137C64.402 96.3311 62.1365 97.9135 59.6316 99.6827H59.6199ZM148.588 13.9614V13.9497C150.234 13.9497 151.875 13.9322 153.522 13.9555C154.847 13.9789 155.454 13.4417 155.396 12.0462C155.256 8.60705 152.71 5.72846 149.329 5.29638C146.153 4.8935 143.222 7.0539 142.293 10.4814C141.482 13.4767 141.797 13.9146 144.816 13.9555C146.071 13.973 147.332 13.9555 148.588 13.9555V13.9614ZM92.6157 102.678H92.6274C92.6274 101.913 92.7092 101.131 92.6099 100.378C92.4639 99.3148 93.2814 97.5631 91.0742 97.75C89.4043 97.8901 88.1314 98.4623 88.3475 100.588C88.4993 102.106 88.4351 103.653 88.3767 105.189C88.3008 107.215 89.8948 107.162 91.1385 107.373C92.8785 107.664 92.5515 106.257 92.6099 105.271C92.6624 104.412 92.6216 103.542 92.6216 102.684L92.6157 102.678Z" fill="black"/>
<path d="M113.966 26.9181C114.877 41.3578 105.861 53.0181 93.039 57.882C91.6435 58.4133 90.3063 58.7695 88.8233 58.2031C77.4315 53.8531 69.7416 46.2275 67.4002 33.9248C66.6003 29.7091 67.1024 25.4234 67.0849 21.1668C67.0791 19.5552 68.1009 18.6969 69.6657 18.586C76.6549 18.0721 83.1653 16.2037 88.9576 12.0931C90.1896 11.2231 91.5734 11.6376 92.7704 12.4609C97.8327 15.9351 103.368 17.9262 109.551 18.3115C113.621 18.5685 113.931 19.1407 113.96 23.1403C113.966 24.4015 113.96 25.6569 113.96 26.9181H113.966ZM72.0597 26.7897C72.4859 38.742 77.3673 47.2785 88.1284 52.0664C89.7692 52.7963 91.1705 52.8371 92.8171 52.1073C104.746 46.7997 108.909 37.1246 108.927 25.873C108.927 24.2497 108.238 23.7651 106.714 23.5374C101.599 22.7725 96.6941 21.2894 92.2741 18.5217C90.9194 17.6693 89.81 17.8503 88.5255 18.6444C84.4324 21.1726 79.9247 22.7199 75.1952 23.3389C72.5502 23.6834 71.5517 24.711 72.0597 26.7838V26.7897Z" fill="#66C6EB"/>
<path d="M90.5238 70.1957C79.8736 70.1957 69.2176 70.1899 58.5674 70.2132C56.7865 70.2132 55.3034 70.1899 55.3735 67.6966C55.426 65.834 56.0741 65.11 57.9368 65.1334C63.2619 65.1917 68.587 65.1392 73.9121 65.1392C90.0859 65.1392 106.254 65.1392 122.428 65.145C123.975 65.145 125.528 64.929 125.627 67.3521C125.733 69.8162 124.571 70.2366 122.474 70.2191C111.824 70.1548 101.174 70.1899 90.518 70.1957H90.5238Z" fill="#66C6EB"/>
<path d="M105.579 81.8202C99.868 81.8202 94.1576 81.7793 88.4529 81.8435C86.5845 81.8669 85.6152 81.3881 85.6094 79.2569C85.6094 77.0381 86.748 76.7578 88.5347 76.7578C99.8564 76.7928 111.178 76.787 122.5 76.7578C124.333 76.7578 125.653 76.9038 125.641 79.3386C125.629 81.8435 124.181 81.8377 122.418 81.8318C116.807 81.8026 111.196 81.8202 105.579 81.8202Z" fill="#66C6EB"/>
<path d="M68.3822 81.8205C64.9022 81.8205 61.4164 81.768 57.9422 81.8439C56.0796 81.8847 55.3847 81.149 55.3789 79.2806C55.3789 77.3771 56.1496 76.7406 57.9772 76.7582C64.9372 76.8107 71.9031 76.8166 78.8631 76.7582C80.7257 76.7406 81.4147 77.453 81.4205 79.3215C81.4264 81.2308 80.6556 81.8789 78.8222 81.838C75.3422 81.7621 71.8622 81.8147 68.3822 81.8205Z" fill="#66C6EB"/>
<path d="M63.4717 58.5577C61.6383 58.5577 59.799 58.4993 57.9656 58.5811C56.1322 58.6628 55.3731 57.9505 55.3789 56.0587C55.3789 54.1902 56.0738 53.4662 57.9364 53.5012C61.8952 53.5771 65.854 53.5713 69.8128 53.5129C71.6345 53.4895 72.1075 54.3887 72.1016 56.0236C72.0958 57.6293 71.6871 58.6278 69.842 58.5694C67.7166 58.5052 65.5912 58.5577 63.4659 58.5577H63.4717Z" fill="#66C6EB"/>
<path d="M117.248 58.5519C115.315 58.5519 113.383 58.4877 111.456 58.5694C109.605 58.6512 108.893 57.898 108.887 56.0237C108.887 54.1318 109.622 53.4545 111.462 53.4896C115.321 53.5655 119.187 53.5596 123.052 53.4896C124.897 53.4545 125.621 54.1552 125.621 56.0353C125.621 57.9213 124.885 58.6453 123.04 58.5694C121.113 58.4877 119.181 58.5519 117.248 58.5519Z" fill="#66C6EB"/>
</g>
<defs>
<clipPath id="clip0_1078_10922">
<rect width="140.018" height="140" fill="white" transform="translate(20.4922)"/>
</clipPath>
</defs>
</svg>
