<svg width="187" height="140" viewBox="0 0 187 140" fill="none" xmlns="http://www.w3.org/2000/svg">
<g clip-path="url(#clip0_1078_10940)">
<path d="M95.2791 129.75C91.8315 126.402 89.1377 123.533 86.9757 120.19C70.1294 94.17 85.9297 59.151 116.613 54.5757C144.573 50.4036 168.835 73.473 165.907 101.451C163.517 124.281 142.955 141.571 120.113 139.882C116.344 139.602 112.628 138.825 109.046 137.568C92.819 131.859 76.5279 132.403 60.1841 136.996C50.7997 139.637 41.468 140.134 32.3524 135.95C23.8445 132.046 19.1407 122.136 21.4137 113.079C21.6357 112.185 22.0389 111.425 23.0089 111.197C23.9439 110.975 24.7327 111.285 25.3346 112.033C25.6384 112.407 25.9247 112.804 26.2228 113.184C34.1404 123.468 46.7445 127.167 58.9687 122.545C65.2619 120.167 71.6721 118.426 78.3568 117.707C79.1223 117.625 79.9111 117.555 80.6766 117.619C81.8336 117.713 82.7685 118.227 82.8503 119.53C82.9321 120.792 82.1842 121.686 81.0214 121.762C78.7483 121.908 79.2976 122.872 79.8118 124.392C81.0798 128.131 83.3119 129.785 87.3964 129.259C89.6461 128.973 92.001 129.516 95.2791 129.75ZM123.14 135.57C144.895 135.511 161.612 118.396 161.566 96.2152C161.525 75.5006 143.89 58.4148 122.62 58.479C101.537 58.5433 84.4397 75.9505 84.4748 97.3137C84.5098 118.537 101.777 135.628 123.134 135.57H123.14ZM26.0533 120.173C26.0416 124.906 28.1335 128.459 31.9492 130.837C39.5981 135.605 47.8956 135.535 56.3509 133.659C58.3902 133.203 57.7124 131.713 57.4553 130.404C57.2157 129.195 57.3033 127.6 55.3809 128.009C51.0568 128.938 46.7386 128.891 42.4146 128.12C41.17 127.898 40.8895 128.529 40.8603 129.563C40.8194 131.158 40.7901 133.016 38.5638 132.777C36.5537 132.561 36.618 130.685 36.5245 129.131C36.4544 127.997 36.7524 126.665 35.4493 126.039C32.1303 124.444 29.1035 122.411 26.0533 120.179V120.173ZM63.3979 131.608C66.6234 131.041 69.8489 130.439 73.0803 129.914C77.4862 129.195 77.5154 129.201 75.4527 125.192C74.9268 124.175 74.8333 122.569 73.016 122.843C69.3698 123.398 65.8521 124.427 62.4747 125.87C60.114 126.875 61.8611 128.716 61.8085 130.177C61.7735 131.17 62.2 131.877 63.3979 131.62V131.608Z" fill="#66C6EB"/>
<path d="M53.7287 27.2704C71.3638 27.2704 89.0048 27.2704 106.64 27.2704C111.496 27.2704 111.805 27.586 111.811 32.319C111.811 37.169 111.811 42.019 111.811 46.8689C111.811 47.6461 111.835 48.4232 111.765 49.1945C111.636 50.6378 111.227 52.0286 109.439 51.9234C107.849 51.8299 107.476 50.5327 107.47 49.177C107.44 44.4264 107.329 39.6699 107.481 34.9193C107.563 32.4184 106.804 31.5185 104.203 31.5244C81.7941 31.6062 59.3909 31.6003 36.9818 31.5244C34.4049 31.5185 33.6335 32.4418 33.6452 34.931C33.727 49.3815 33.727 63.8379 33.6452 78.2884C33.6335 80.7309 34.51 81.438 36.8883 81.4204C48.9138 81.3211 60.9452 81.3737 72.9707 81.3795C73.9407 81.3795 74.9166 81.3678 75.8749 81.4672C76.9851 81.5782 77.6804 82.2443 77.6512 83.3838C77.622 84.5174 76.8916 85.1192 75.7755 85.2186C75.0977 85.277 74.4199 85.277 73.7421 85.277C60.355 85.2829 46.968 85.2945 33.5809 85.2829C29.6951 85.2829 29.4205 85.0141 29.4147 81.1575C29.403 66.3155 29.3504 51.4734 29.4439 36.6314C29.4731 31.8516 29.0582 27.1769 28.0006 22.514C26.9079 17.6991 28.9238 14.4853 33.7621 13.5094C56.0777 9.01006 78.3992 4.56914 100.721 0.145753C104.145 -0.532071 107.248 1.22677 108.264 4.56914C109.077 7.24538 109.527 10.0385 110.041 12.7965C110.543 15.4786 108.644 16.0805 106.622 16.4837C97.6938 18.26 88.7652 20.0306 79.8366 21.8069C71.1184 23.5482 62.406 25.2954 53.6936 27.0425C53.7053 27.1185 53.717 27.1945 53.7287 27.2704ZM85.6916 7.87646C79.0127 7.95242 75.9275 11.0786 75.1503 18.4879C77.5461 17.3076 80.7891 18.6749 82.2733 15.5312C83.4186 13.1004 84.4704 10.6228 85.6916 7.87646ZM51.6134 22.736C59.3967 22.0816 58.1112 22.8529 62.2073 12.6154C54.4533 11.3299 54.313 18.0555 51.6134 22.736ZM63.7208 20.3052C67.5014 20.5448 70.0315 19.4813 71.0541 15.8526C71.4398 14.4736 72.1585 13.188 72.7837 11.885C73.3856 10.6345 73.1343 10.0268 71.6677 10.2372C69.4238 10.5527 67.4137 11.0728 66.5781 13.6789C65.8769 15.8584 64.7726 17.9094 63.7208 20.311V20.3052ZM43.1231 24.863C44.1749 24.2786 46.1382 24.8454 46.9563 22.8704C47.8503 20.7259 48.8729 18.634 49.802 16.507C50.0591 15.9227 50.4681 14.9527 49.393 14.9527C47.6049 14.9527 45.5422 14.8242 44.5079 16.7116C43.3451 18.8268 42.4511 21.094 41.4577 23.297C40.8383 24.6701 41.4577 25.0675 43.1289 24.8688L43.1231 24.863ZM86.8077 15.8818C89.2385 15.578 91.5583 15.8993 92.7562 14.0645C94.1586 11.9142 95 9.39572 96.0635 7.02918C96.3265 6.439 96.2447 5.6151 95.5435 5.73196C93.8314 6.01244 91.6693 5.48654 90.6585 7.47327C89.3262 10.0969 88.1867 12.8257 86.8019 15.8818H86.8077ZM39.734 16.7992C38.2673 17.0037 37.3265 17.0855 36.4033 17.2667C31.9857 18.1315 31.5475 18.8268 32.4882 23.3203C32.5642 23.6943 32.6402 24.0741 32.6928 24.4539C32.8213 25.3246 32.9265 26.3121 33.9608 26.4816C35.1177 26.6744 35.6378 25.7219 36.0468 24.8396C37.2213 22.327 38.3608 19.8027 39.734 16.7934V16.7992ZM98.0853 13.7724C100.335 13.3516 102.292 13.0069 104.244 12.6095C104.963 12.4635 105.536 12.0194 105.366 11.2013C104.98 9.3256 104.712 7.38562 104.028 5.62094C103.496 4.24776 102.269 3.9965 101.509 5.55666C100.265 8.11019 98.8391 10.6053 98.0911 13.7782L98.0853 13.7724Z" fill="black"/>
<path d="M62.0658 54.425C62.0658 52.0059 62.0074 49.5809 62.0775 47.1618C62.171 43.9421 63.5617 43.0481 66.2847 44.5381C70.784 46.9982 75.2483 49.5342 79.6717 52.1345C82.161 53.6011 82.2311 55.2665 79.8003 56.7273C75.2366 59.4678 70.6029 62.1031 65.9282 64.6508C63.6669 65.8779 62.2353 64.9547 62.1067 62.2726C61.984 59.6606 62.0775 57.0428 62.0775 54.4309H62.06L62.0658 54.425ZM75.2133 54.501C72.5429 52.9584 70.3925 51.7079 68.2363 50.4691C67.0443 49.7854 66.4424 50.1244 66.4483 51.5209C66.4541 53.4375 66.46 55.36 66.4308 57.2766C66.4074 58.7257 66.8456 59.2925 68.2831 58.4511C70.4217 57.1948 72.5896 55.991 75.2074 54.501H75.2133Z" fill="#66C6EB"/>
<path d="M122.801 130.726C119.172 130.72 115.666 130.007 112.248 128.868C109.397 127.915 108.97 126.963 110.203 124.345C112.353 119.787 114.597 115.276 116.765 110.73C118.015 108.106 120.137 106.651 122.947 106.605C125.781 106.558 127.926 108.03 129.199 110.613C131.42 115.136 133.664 119.647 135.797 124.211C137.1 126.992 136.632 127.997 133.635 128.909C131.513 129.551 129.322 130.019 127.137 130.404C125.717 130.656 124.244 130.626 122.795 130.726H122.801ZM122.836 126.291C125.062 126.297 127.265 126.226 129.457 125.718C131.034 125.35 131.35 124.66 130.666 123.276C128.966 119.805 127.388 116.264 125.577 112.857C124.145 110.157 121.843 110.268 120.359 113.026C119.394 114.809 118.629 116.696 117.729 118.519C113.948 126.209 113.966 126.244 122.83 126.302L122.836 126.291Z" fill="black"/>
<path d="M122.756 63.3535C126.812 63.523 130.51 64.1599 134.116 65.3695C136.319 66.1116 137.032 67.4672 135.991 69.6117C133.66 74.3974 131.475 79.2707 128.933 83.9454C126.28 88.8304 119.811 88.8362 117.141 83.9512C114.587 79.2824 112.414 74.4091 110.07 69.6234C109.013 67.4731 109.732 66.1466 111.923 65.3811C115.522 64.1248 119.239 63.5931 122.762 63.3535H122.756ZM130.954 70.1259C131.112 68.9514 130.405 68.6359 129.622 68.4606C125.228 67.4731 120.828 67.4964 116.44 68.4606C115.329 68.706 114.669 69.2728 115.271 70.5116C117.071 74.2455 118.754 78.0436 120.723 81.684C121.932 83.9103 124.2 83.7759 125.473 81.462C126.911 78.85 128.115 76.0978 129.412 73.4099C129.955 72.2821 130.481 71.1427 130.96 70.1318L130.954 70.1259Z" fill="black"/>
<path d="M140.466 95.7547C136.919 95.9183 133.255 96.1053 131.344 92.3071C129.521 88.6843 131.227 85.6574 133.424 82.7299C135.855 79.4869 138.047 76.0569 140.396 72.7496C142.172 70.2428 143.224 70.1084 145.555 72.1711C151.112 77.0795 154.455 83.3026 155.974 90.4957C156.687 93.8731 155.734 94.9425 152.328 95.1236C148.378 95.3398 144.422 95.5443 140.472 95.7547H140.466ZM141.815 91.454C144.533 91.4657 147.221 91.1093 149.914 90.8229C151.223 90.6827 151.539 90.1451 151.188 88.9063C149.932 84.4362 147.682 80.5445 144.568 77.1262C143.872 76.3607 143.218 76.0803 142.487 77.1613C140.098 80.6789 137.556 84.1031 135.288 87.7026C134.038 89.6893 135.043 91.2612 137.462 91.4365C138.906 91.5417 140.36 91.454 141.815 91.454Z" fill="black"/>
<path d="M107.941 95.3456C102.244 94.8021 97.6218 94.3814 93.0055 93.9139C90.7909 93.6861 89.6398 92.5817 90.1715 90.1976C91.8719 82.5545 95.7168 76.2496 101.735 71.2243C103.851 69.4597 105.317 69.9447 106.667 72.1301C109.01 75.9165 111.365 79.703 113.843 83.396C115.683 86.1365 116.84 88.9062 114.93 92.0149C113.066 95.0475 110.226 95.8481 107.935 95.3397L107.941 95.3456ZM109.612 91.2143C111.091 91.2026 112.283 89.1458 110.904 86.7909C108.899 83.3784 106.685 80.0887 104.581 76.7346C103.95 75.7237 103.301 75.3439 102.32 76.3548C99.1118 79.6679 96.6868 83.4544 95.226 87.8427C94.7702 89.2159 95.5006 89.9171 96.7394 90.0457C100.672 90.4489 104.61 90.7702 109.612 91.2202V91.2143Z" fill="black"/>
<path d="M106.218 98.2969C106.99 98.2969 107.767 98.2793 108.538 98.2969C114.113 98.4546 117.373 103.813 114.475 108.528C111.594 113.221 108.246 117.621 105.073 122.126C103.934 123.744 102.537 123.744 101.117 122.506C95.1395 117.299 91.3764 110.79 90.0325 102.983C89.53 100.062 90.3889 99.1909 93.4859 98.9922C97.7281 98.7176 101.976 98.554 106.218 98.3436C106.218 98.3261 106.218 98.3085 106.218 98.291V98.2969ZM104.816 102.656C101.988 102.451 99.2357 103.234 96.4309 103.27C95.122 103.287 94.415 103.62 94.8474 105.174C96.092 109.65 98.3241 113.548 101.462 116.949C102.362 117.925 103.028 117.773 103.747 116.709C105.979 113.431 108.357 110.246 110.502 106.916C112.161 104.339 111.162 102.755 108.007 102.662C106.943 102.627 105.88 102.662 104.816 102.662V102.656Z" fill="black"/>
<path d="M137.561 98.9157C143.013 99.5001 148.295 100.061 153.571 100.64C155.716 100.873 156.335 102.182 155.897 104.128C154.197 111.637 150.504 117.971 144.579 122.92C142.183 124.918 141.096 124.767 139.419 122.201C136.614 117.907 133.739 113.647 131.215 109.188C128.357 104.14 131.922 98.7054 137.561 98.9099V98.9157ZM138.572 103.31C134.984 103.211 133.57 104.788 135.089 107.447C137.052 110.889 139.302 114.167 141.411 117.521C142.072 118.567 142.82 118.771 143.76 117.877C147.22 114.611 149.487 110.608 150.989 106.138C151.333 105.121 151.053 104.543 149.808 104.438C146.057 104.122 142.317 103.69 138.572 103.304V103.31Z" fill="black"/>
<path d="M123.118 104.975C119.104 105.045 115.224 101.335 115.101 97.3148C114.972 93.1485 118.73 89.2276 122.925 89.1458C127.068 89.064 130.925 92.8972 130.942 97.1161C130.965 101.101 127.167 104.911 123.112 104.981L123.118 104.975ZM122.522 100.581C124.964 100.651 126.676 99.0795 126.577 97.046C126.472 94.9307 125.221 93.6919 123.147 93.4816C121.26 93.2887 119.402 95.1411 119.472 97.081C119.548 99.2372 120.786 100.359 122.522 100.575V100.581Z" fill="black"/>
</g>
<defs>
<clipPath id="clip0_1078_10940">
<rect width="145.306" height="140" fill="white" transform="translate(20.8477)"/>
</clipPath>
</defs>
</svg>
