<svg width="191" height="140" viewBox="0 0 191 140" fill="none" xmlns="http://www.w3.org/2000/svg">
<g clip-path="url(#clip0_1072_10804)">
<path d="M95.5437 95.2236C93.3709 95.2236 91.2043 95.1676 89.0377 95.2361C86.3793 95.317 85.3022 94.0407 85.3769 91.457C85.4516 88.7737 85.2773 86.0779 85.4143 83.4008C85.5263 81.1595 84.7855 80.1821 82.4259 80.3128C79.6429 80.4622 76.8475 80.3128 74.0584 80.3564C71.5992 80.3937 70.4723 79.2544 70.4972 76.7828C70.547 72.4434 70.5595 68.104 70.4972 63.7646C70.4536 61.0999 71.6988 60.0353 74.2825 60.0976C77.0717 60.1723 79.8671 60.0291 82.65 60.1225C84.6236 60.191 85.4765 59.4812 85.408 57.4391C85.3084 54.5504 85.4392 51.6554 85.3894 48.7604C85.352 46.2763 86.5162 45.193 88.9754 45.2179C93.3148 45.2677 97.6542 45.2863 101.994 45.2179C104.677 45.1743 105.71 46.4693 105.648 49.0218C105.586 51.811 105.71 54.6064 105.611 57.3893C105.536 59.3754 106.277 60.1972 108.307 60.1287C111.195 60.0291 114.09 60.1598 116.985 60.11C119.476 60.0664 120.553 61.2369 120.522 63.6899C120.472 68.0293 120.459 72.3687 120.522 76.7081C120.565 79.3789 119.295 80.4311 116.724 80.3626C113.935 80.2879 111.139 80.4249 108.356 80.3253C106.383 80.2568 105.53 80.9665 105.598 83.0086C105.704 85.8974 105.573 88.7924 105.623 91.6874C105.667 94.1653 104.515 95.2921 102.05 95.2361C99.8831 95.1863 97.7103 95.2236 95.5437 95.2236ZM82.9177 74.996C91.3039 74.9461 90.7809 74.5601 90.7436 82.965C90.7436 83.0708 90.7436 83.1705 90.7436 83.2763C90.9303 90.685 89.1933 89.8259 97.9157 89.8943C99.6527 89.9068 100.375 89.1721 100.275 87.4725C100.225 86.6507 100.275 85.8227 100.275 84.9946C100.338 73.6574 98.9865 75.0769 110.417 75.0022C111.139 75.0022 111.868 74.9524 112.584 75.0022C114.414 75.1392 115.192 74.3796 115.174 72.487C115.087 64.0759 115.915 65.5389 108.705 65.4829C99.5842 65.4144 100.282 66.1491 100.269 57.1714C100.257 50.0242 100.25 50.074 93.1156 50.5596C91.3973 50.6779 90.6439 51.3067 90.7622 53.0001C90.7871 53.411 90.7622 53.8282 90.756 54.2391C90.6772 61.6603 86.9873 65.402 79.6865 65.4642C79.2756 65.4642 78.8585 65.5016 78.4476 65.4642C76.611 65.3148 75.8514 66.0993 75.8639 67.9795C75.9137 76.5835 75.1728 74.7905 82.3138 74.9773C82.5193 74.9773 82.7247 74.9773 82.9364 74.9773L82.9177 74.996Z" fill="#66C6EB"/>
<path d="M91.2788 139.882C88.6951 139.882 86.1051 139.738 83.5277 139.906C75.982 140.405 68.9779 138.767 62.391 135.075C60.1435 133.811 57.6594 132.971 55.4368 131.663C46.1167 126.191 36.062 124.211 25.3723 124.983C24.7559 125.027 24.1271 125.002 23.517 124.94C21.9854 124.778 20.9955 123.993 20.9768 122.375C20.9582 120.775 21.8734 119.747 23.4174 119.729C32.8931 119.635 42.4559 118.726 51.3526 123.383C56.4765 126.066 61.812 128.339 66.9483 130.991C71.7608 133.475 76.8847 134.378 82.1953 134.509C85.7067 134.596 89.243 134.303 92.7356 134.577C101.184 135.237 109.134 133.824 116.655 129.833C119.195 128.482 121.997 127.629 124.662 126.502C125.689 126.066 126.897 125.705 126.872 124.249C126.853 122.792 126.15 121.646 124.929 120.918C123.043 119.797 120.957 119.797 118.909 120.276C115.896 120.986 112.907 121.789 109.938 122.673C108.032 123.24 106.289 123.259 105.542 121.161C104.764 118.988 106.277 117.898 108.101 117.319C113.499 115.613 118.847 113.447 124.705 114.754C129.163 115.75 132.295 119.424 132.612 123.943C132.842 127.224 131.373 129.821 128.316 131.109C121.848 133.843 115.329 136.476 108.842 139.159C107.478 139.726 106.071 139.9 104.602 139.894C100.157 139.869 95.7116 139.888 91.2726 139.882H91.2788Z" fill="black"/>
<path d="M100.055 0.566136C113.13 -1.55687 124.816 2.50237 135.873 8.88383C144.856 14.0699 154.426 16.1867 164.704 15.4645C165.526 15.4085 166.36 15.4645 167.182 15.4957C168.851 15.5641 169.984 16.3112 170.015 18.098C170.046 19.8849 168.963 20.7253 167.276 20.7751C156.704 21.0989 146.469 20.7502 136.539 15.6949C115.576 5.02382 119.748 6.26899 95.4857 5.73979C86.975 5.55302 79.7717 8.37331 72.3692 11.4862C70.3707 12.3267 68.3473 13.1112 66.3551 13.9703C65.3278 14.4124 64.12 14.7548 64.1387 16.2178C64.1636 17.6685 64.8484 18.8202 66.0749 19.5549C67.9613 20.6818 70.0408 20.6693 72.089 20.1837C75.0961 19.4677 78.097 18.677 81.0605 17.793C82.9718 17.2202 84.7088 17.2451 85.4621 19.3183C86.2528 21.4911 84.7337 22.618 82.9033 23.1534C77.5864 24.7036 72.3568 26.9823 66.6041 25.762C62.0094 24.7846 59.1518 21.6717 58.4981 17.1144C57.9813 13.5345 59.4008 10.7765 62.7067 9.36944C69.0757 6.66121 75.4759 4.03392 81.8823 1.41285C85.7672 -0.174736 89.8575 0.815169 93.8483 0.584814C95.909 0.466523 97.9822 0.566136 100.049 0.566136H100.055Z" fill="black"/>
<path d="M156.576 50.5791C151.764 49.7262 146.023 51.7309 140.128 52.5776C130.527 53.9597 122.365 50.99 116.501 42.94C115.349 41.3587 114.054 40.2816 112.255 39.5532C107.759 37.729 103.196 36.0045 98.8877 33.8068C91.149 29.8534 88.1917 23.3474 90.3583 15.9511C91.3856 12.4522 92.7366 11.6927 96.0363 13.0312C104.454 16.4616 112.84 19.9605 121.232 23.447C121.898 23.7209 122.571 24.0198 123.175 24.4058C124.426 25.2027 125.111 26.3171 124.507 27.8175C123.903 29.318 122.589 29.7787 121.189 29.3366C118.929 28.6269 116.731 27.7117 114.533 26.8089C109.086 24.5801 103.619 22.3824 98.2278 20.029C95.7561 18.952 95.2767 19.8547 95.6441 22.096C96.1857 25.4206 98.5017 27.3506 101.266 28.6331C106.415 31.0176 111.682 33.1531 116.905 35.3757C118.157 35.9049 119.352 36.4278 119.981 37.7851C123.436 45.2062 132.233 48.8421 140.85 46.6693C149.585 44.4654 158.307 45.667 167.023 45.2747C168.816 45.1938 170.074 46.053 170.018 48.0079C169.962 50.0001 168.58 50.5729 166.836 50.5791C163.842 50.5854 160.841 50.5791 156.57 50.5791H156.576Z" fill="black"/>
<path d="M34.4744 89.8955C39.0255 90.6053 44.5789 88.8869 50.2693 87.9655C60.3427 86.3281 68.8347 89.4286 74.8613 98.0202C75.8076 99.3712 77.0092 100.118 78.4598 100.766C84.007 103.256 89.9714 104.856 95.0143 108.405C100.524 112.284 102.597 118.478 100.549 124.76C99.472 128.06 98.2019 128.745 94.9956 127.437C86.4849 123.969 78.0054 120.433 69.532 116.884C67.7079 116.119 65.4915 115.241 66.5747 112.701C67.7016 110.061 69.9616 110.989 71.9103 111.786C78.3104 114.407 84.6732 117.121 91.1045 119.686C92.4057 120.203 94.0431 122.002 95.1762 120.433C96.1847 119.039 95.2882 117.059 94.2174 115.546C92.7979 113.541 90.8741 112.178 88.6577 111.225C83.8203 109.146 78.9704 107.104 74.108 105.087C72.7321 104.514 71.5928 103.81 70.883 102.397C66.9545 94.6023 58.0329 91.7695 50.1822 93.7867C41.4536 96.028 32.7312 94.8015 24.0088 95.1999C22.2345 95.2809 20.9457 94.4466 21.0018 92.4792C21.0578 90.4994 22.4275 89.9018 24.1769 89.8955C27.1715 89.8893 30.1662 89.8955 34.4744 89.8955Z" fill="black"/>
<path d="M43.1888 71.3791C43.0767 59.1827 46.2892 49.2276 52.54 40.2188C53.6482 38.6188 54.912 36.969 57.0537 38.3324C59.3199 39.7768 58.4607 41.6881 57.2218 43.4189C51.4878 51.4129 48.9539 60.459 48.6862 70.165C48.6053 73.0227 49.1469 75.9177 49.5578 78.7691C49.8504 80.8112 49.7882 82.7599 47.4286 83.177C45.0441 83.6003 44.2908 81.7139 43.9234 79.7403C43.3382 76.5838 43.0331 73.4025 43.1888 71.3853V71.3791Z" fill="black"/>
<path d="M147.823 69.3492C147.947 81.309 144.666 91.2267 138.478 100.235C137.289 101.966 135.869 103.616 133.715 102.116C131.53 100.603 132.644 98.6416 133.833 96.9793C139.499 89.0912 142.02 80.1634 142.325 70.5881C142.419 67.6308 141.858 64.6424 141.454 61.6852C141.192 59.7489 141.329 57.9746 143.514 57.5201C145.936 57.0158 146.721 58.7964 147.101 60.7824C147.698 63.9327 147.947 67.1141 147.829 69.3429L147.823 69.3492Z" fill="black"/>
</g>
<defs>
<clipPath id="clip0_1072_10804">
<rect width="149.046" height="140" fill="white" transform="translate(20.9766)"/>
</clipPath>
</defs>
</svg>
