<svg width="193" height="140" viewBox="0 0 193 140" fill="none" xmlns="http://www.w3.org/2000/svg">
<g clip-path="url(#clip0_1078_10931)">
<path d="M144.19 5.91594C138.376 7.47323 133.199 8.85616 128.022 10.2511C123.398 11.4957 118.799 12.8125 114.157 13.991C112.708 14.3578 111.95 14.8027 112.016 16.5524C112.221 21.6031 110.459 25.9623 106.653 29.3535C105.414 30.4598 105.005 31.6924 105.005 33.2978C105.035 58.1484 105.053 82.9989 104.981 107.849C104.975 110.279 105.889 110.994 108.156 110.898C111.144 110.772 114.145 110.88 117.139 110.868C119.622 110.856 121.618 111.824 122.971 113.91C123.723 115.065 124.775 116.562 123.639 117.716C122.472 118.901 120.392 118.859 119.213 117.825C117.728 116.526 116.201 116.508 114.517 116.508C102.444 116.508 90.3644 116.508 78.2909 116.508C76.6073 116.508 75.062 116.514 73.5649 117.794C72.3683 118.817 70.306 118.901 69.1696 117.656C68.1113 116.502 69.1034 114.993 69.8851 113.826C71.2019 111.872 73.0839 110.886 75.4649 110.88C78.1586 110.874 80.8523 110.868 83.552 110.862C87.3941 110.856 87.4422 110.82 87.4422 107.068C87.4422 86.7088 87.4422 66.3497 87.4362 45.9847C87.4362 41.7938 87.3641 37.5969 87.4663 33.4121C87.5144 31.47 87.0273 29.9427 85.4881 28.6801C84.6583 27.9946 83.7624 27.1408 83.4017 26.1728C82.2472 23.1123 80.3051 23.0341 77.5212 23.8398C68.899 26.3351 60.2347 28.668 51.5403 30.9048C49.1472 31.5181 48.5219 32.3538 49.4238 34.801C54.4805 48.5641 59.4109 62.3753 64.3053 76.1985C65.0449 78.285 66.1272 79.4153 68.436 79.1267C69.2237 79.0305 70.0354 79.1748 70.8291 79.1027C73.0177 78.9103 73.607 79.8002 73.1801 81.9347C70.7149 94.1886 59.3869 103.388 46.6941 103.352C34.1996 103.316 23.0821 94.0984 20.6109 81.8685C20.196 79.8062 20.8153 78.79 22.7514 79.1688C27.6999 80.1429 29.1369 77.2868 30.5139 73.2643C34.9993 60.1506 39.8576 47.1571 44.5595 34.1156C45.0285 32.8108 45.72 31.482 45.1488 30.069C44.2108 27.7481 45.2811 26.9244 47.4096 26.3592C57.6252 23.6474 67.8047 20.7854 78.0203 18.0797C79.8121 17.6047 80.5757 16.7749 80.9785 14.935C82.4096 8.33305 86.3239 3.78744 93.022 2.24217C99.3594 0.775069 104.675 2.88553 108.667 7.94824C109.936 9.55964 111.186 9.13274 112.623 8.74191C122.923 5.946 133.217 3.15009 143.517 0.348167C147.058 -0.613867 148.399 0.28804 148.092 3.97383C147.954 5.68746 148.375 7.08842 148.91 8.57957C153.702 21.9098 158.567 35.2159 163.232 48.5882C164.164 51.2578 165.397 52.4062 168.337 52.2559C173.003 52.0214 173.135 52.3822 171.825 56.9338C168.295 69.1697 157.286 76.9381 144.238 76.397C132.784 75.922 122.334 66.7706 119.797 55.136C119.286 52.791 120.031 52.1597 122.298 52.1477C127.625 52.1236 127.595 52.0274 129.459 46.8385C134.281 33.4241 139.127 20.0157 144.208 5.90993L144.19 5.91594ZM99.8404 69.0795C99.8404 56.2183 99.8765 43.3571 99.8044 30.4959C99.7923 28.3975 100.382 27.0446 102.221 25.8421C105.925 23.4189 107.35 18.6689 105.991 14.4841C104.572 10.1128 101.133 7.52735 96.6537 7.45519C91.9097 7.38304 88.2599 9.89034 86.8109 14.2195C85.3919 18.4524 86.6726 23.2205 90.3644 25.6857C92.4809 27.0987 93.0882 28.6801 93.0821 31.1032C93.01 56.5249 93.0821 81.9467 92.9799 107.368C92.9679 110.212 93.96 110.874 96.6056 110.91C99.3835 110.952 99.9066 109.834 99.8885 107.356C99.7923 94.5974 99.8404 81.8324 99.8404 69.0735V69.0795ZM47.0127 44.4695C46.6039 45.0106 46.3754 45.209 46.2852 45.4555C42.5212 55.8515 38.7813 66.2535 34.9993 76.6435C34.3259 78.4954 34.825 79.1508 36.7971 79.1327C43.4712 79.0666 50.1514 79.0245 56.8255 79.1508C59.3568 79.1989 59.3208 78.291 58.5992 76.3428C55.2922 67.3719 52.0935 58.3648 48.8466 49.3698C48.2874 47.8185 47.6862 46.2733 47.0127 44.4695ZM146.204 17.4183C145.754 18.1578 145.501 18.4524 145.375 18.7952C141.689 28.9987 138.051 39.2204 134.323 49.4119C133.5 51.6546 134.269 52.2379 136.416 52.2138C142.891 52.1537 149.367 52.1296 155.837 52.2258C158.176 52.2619 158.573 51.4803 157.791 49.3999C155.656 43.7179 153.636 37.9877 151.568 32.2817C149.824 27.4535 148.08 22.6313 146.198 17.4183H146.204ZM146.15 57.8357C140.474 57.8357 134.792 57.8778 129.116 57.8117C126.813 57.7876 126.495 58.5272 127.679 60.4031C132.081 67.3478 138.25 70.9795 146.583 70.8232C154.598 70.6789 160.328 66.8007 164.519 60.2348C165.571 58.5873 165.421 57.7696 163.178 57.7996C157.502 57.8778 151.82 57.8237 146.144 57.8297L146.15 57.8357ZM46.7422 84.7486C41.2526 84.7486 35.763 84.7306 30.2733 84.7727C29.4376 84.7787 28.2891 84.3037 27.8442 85.3198C27.4474 86.2157 28.3072 86.9793 28.7642 87.7249C37.0857 101.193 56.7954 101.139 65.0268 87.6287C66.512 85.1875 66.3256 84.7787 63.5176 84.7666C57.9258 84.7306 52.34 84.7546 46.7482 84.7546L46.7422 84.7486Z" fill="black"/>
<path d="M96.1378 139.952C85.6636 139.952 75.1895 139.873 64.7213 140C61.9435 140.036 60.7169 139.302 60.8912 136.326C61.1077 132.646 61.0115 128.948 60.9213 125.257C60.8672 123.176 61.4805 122.166 63.7834 122.172C85.5253 122.226 107.267 122.22 129.015 122.166C131.27 122.166 131.992 123.104 131.949 125.214C131.871 129.105 131.841 132.995 131.955 136.885C132.028 139.254 131.036 139.994 128.757 139.976C117.886 139.898 107.015 139.94 96.1438 139.94V139.952H96.1378ZM96.4264 134.252V134.264C105.193 134.264 113.965 134.197 122.732 134.306C125.185 134.336 126.346 133.819 126.304 131.023C126.267 128.437 125.269 127.848 122.924 127.854C105.187 127.92 87.4494 127.92 69.7119 127.848C67.3549 127.836 66.6093 128.654 66.6033 130.975C66.5973 133.374 67.2707 134.336 69.8201 134.3C78.6889 134.173 87.5576 134.252 96.4264 134.252Z" fill="#66C6EB"/>
</g>
<defs>
<clipPath id="clip0_1078_10931">
<rect width="152.037" height="140" fill="white" transform="translate(20.4805)"/>
</clipPath>
</defs>
</svg>
