<svg width="356" height="161" viewBox="0 0 356 161" fill="none" xmlns="http://www.w3.org/2000/svg">
<path d="M462.494 2.99805L308.369 5.99327L406.023 105.464L462.494 2.99805Z" fill="#198BCA"/>
<path d="M406.014 105.465L308.361 5.99427L310.33 107.325L406.014 105.465Z" fill="#0B79B7"/>
<path d="M308.359 5.99414L214.743 109.182L310.329 107.324L308.359 5.99414Z" fill="#0D6394"/>
<path d="M154.234 8.98936L214.743 109.182L308.359 5.99414L154.234 8.98936Z" fill="#0D4972"/>
<path d="M122.169 276.659L79.7572 144.01L5.18859 278.933L122.169 276.659Z" fill="#0B79B7"/>
<path d="M154.234 8.98921L79.7659 144.009L214.743 109.182L154.234 8.98921Z" fill="#66C6EB"/>
<path d="M214.746 109.188L79.7694 144.015L168.414 192.927L214.746 109.188Z" fill="#139DD9"/>
<path d="M168.407 192.92L79.7627 144.008L122.175 276.658L168.407 192.92Z" fill="#198BCA"/>
</svg>
