<svg width="368" height="297" viewBox="0 0 368 297" fill="none" xmlns="http://www.w3.org/2000/svg">
<path d="M544.684 3.15039L363.355 5.97449L477.785 123.437L544.684 3.15039Z" fill="#198BCA"/>
<path d="M477.775 123.438L363.345 5.97592L365.202 125.191L477.775 123.438Z" fill="#0B79B7"/>
<path d="M363.344 5.97656L252.744 126.944L365.2 125.192L363.344 5.97656Z" fill="#0D6394"/>
<path d="M182.015 8.80066L252.744 126.944L363.344 5.97656L182.015 8.80066Z" fill="#0D4972"/>
<path d="M143.078 323.547L93.7856 167.304L5.44952 325.691L143.078 323.547Z" fill="#0B79B7"/>
<path d="M182.014 8.79921L93.7965 167.301L252.743 126.942L182.014 8.79921Z" fill="#66C6EB"/>
<path d="M252.746 126.949L93.7992 167.308L197.86 225.251L252.746 126.949Z" fill="#139DD9"/>
<path d="M197.853 225.245L93.7921 167.302L143.084 323.545L197.853 225.245Z" fill="#198BCA"/>
</svg>
