<svg width="154" height="89" viewBox="0 0 154 89" fill="none" xmlns="http://www.w3.org/2000/svg">
<path d="M230.662 1.69922L153.996 3.18912L202.572 52.6684L230.662 1.69922Z" fill="#198BCA"/>
<path d="M202.568 52.6693L153.993 3.1901L154.973 53.5943L202.568 52.6693Z" fill="#0B79B7"/>
<path d="M153.992 3.18994L107.425 54.5181L154.972 53.5941L153.992 3.18994Z" fill="#0D6394"/>
<path d="M77.3266 4.67984L107.425 54.5181L153.992 3.18994L77.3266 4.67984Z" fill="#0D4972"/>
<path d="M61.3767 137.826L40.28 71.8429L3.18769 138.957L61.3767 137.826Z" fill="#0B79B7"/>
<path d="M77.3262 4.67917L40.2841 71.8414L107.425 54.5175L77.3262 4.67917Z" fill="#66C6EB"/>
<path d="M107.427 54.5205L40.286 71.8444L84.3801 96.1745L107.427 54.5205Z" fill="#139DD9"/>
<path d="M84.376 96.1721L40.2819 71.842L61.3786 137.825L84.376 96.1721Z" fill="#198BCA"/>
</svg>
